<svg width="571" height="292" viewBox="0 0 571 292" fill="none" xmlns="http://www.w3.org/2000/svg">
<path d="M0.0878906 179.696L95.0279 0.723633H155.224V182.12H182.696V227.368H155.224V286.756H101.896V227.368H0.0878906V179.696ZM101.896 73.4436H101.088L45.3359 182.12H101.896V73.4436Z" fill="#AB3541"/>
<path d="M388.307 179.696L483.247 0.723633H543.443V182.12H570.915V227.368H543.443V286.756H490.115V227.368H388.307V179.696ZM490.115 73.4436H489.307L433.555 182.12H490.115V73.4436Z" fill="#AB3541"/>
<path d="M195.812 153.436C195.812 133.505 196.486 114.382 197.833 96.0676C199.179 77.753 202.815 61.593 208.741 47.5876C214.666 33.313 223.554 22.0009 235.405 13.6516C247.525 5.03296 264.223 0.723633 285.501 0.723633C303.007 0.723633 317.417 3.2823 328.729 8.39963C340.31 13.2476 349.467 21.193 356.201 32.2356C363.203 43.2783 368.051 57.6876 370.745 75.4636C373.707 92.9703 375.189 114.382 375.189 139.7C375.189 159.63 374.515 178.753 373.169 197.068C371.822 215.382 368.186 231.677 362.26 245.952C356.335 259.957 347.313 271 335.193 279.08C323.342 287.16 306.778 291.2 285.501 291.2C268.263 291.2 253.854 288.91 242.273 284.332C230.691 279.753 221.399 271.942 214.396 260.9C207.663 249.857 202.815 235.582 199.853 218.076C197.159 200.3 195.812 178.753 195.812 153.436ZM253.989 165.96C253.989 184.005 254.392 198.818 255.201 210.4C256.278 221.712 258.029 230.734 260.453 237.468C262.877 243.932 266.108 248.376 270.148 250.8C274.188 253.224 279.306 254.436 285.501 254.436C291.965 254.436 297.216 252.954 301.257 249.992C305.296 246.76 308.394 241.508 310.549 234.236C312.973 226.694 314.589 216.729 315.397 204.34C316.474 191.95 317.013 176.598 317.013 158.284V127.176C317.013 109.13 316.474 94.4516 315.397 83.1396C314.589 71.5583 312.973 62.5356 310.549 56.0716C308.125 49.3383 304.893 44.7596 300.853 42.3356C296.813 39.9116 291.695 38.6996 285.501 38.6996C279.037 38.6996 273.785 40.3156 269.745 43.5476C265.705 46.5103 262.472 51.7623 260.048 59.3036C257.894 66.5756 256.278 76.4063 255.201 88.7956C254.392 101.185 253.989 116.537 253.989 134.852V165.96Z" fill="#AB3541"/>
<path d="M253.989 165.96C253.989 184.005 254.392 198.818 255.201 210.4C256.278 221.712 258.029 230.734 260.453 237.468C262.877 243.932 266.108 248.376 270.148 250.8C274.188 253.224 279.306 254.436 285.501 254.436C291.965 254.436 297.216 252.954 301.257 249.992C305.296 246.76 308.394 241.508 310.549 234.236C312.973 226.694 314.589 216.729 315.397 204.34C316.474 191.95 317.013 176.598 317.013 158.284V127.176C317.013 109.13 316.474 94.4516 315.397 83.1396C314.589 71.5583 312.973 62.5356 310.549 56.0716C308.125 49.3383 304.893 44.7596 300.853 42.3356C296.813 39.9116 291.695 38.6996 285.501 38.6996C279.037 38.6996 273.785 40.3156 269.745 43.5476C265.705 46.5103 262.472 51.7623 260.048 59.3036C257.894 66.5756 256.278 76.4063 255.201 88.7956C254.392 101.185 253.989 116.537 253.989 134.852V165.96Z" fill="#AB3541"/>
<path d="M312.124 63.9294C315.219 67.87 318.118 72.4598 320.603 77.6251C322.31 81.2401 323.737 84.9406 324.81 88.6637C325.043 89.351 325.509 89.7584 326.047 89.8325C331.34 90.2926 336.345 94.3041 340.101 100.613C340.732 101.756 342.213 100.824 341.768 99.4929C340.779 96.335 339.545 93.2357 338.078 90.1303C331.495 76.2876 321.918 66.658 312.492 63.1589C312.111 63.0316 311.84 63.6192 312.124 63.9294Z" fill="#F4F4F4"/>
<path d="M264.3 41.8749C262.495 46.3818 264.386 50.0944 264.661 50.581C265.432 52.0212 266.46 53.9052 267.621 55.9779C269.649 59.5943 271.998 63.8912 274.084 67.9208C275.498 70.7221 277.094 72.261 279.048 74.1719C279.501 74.6464 279.987 75.096 280.494 75.5887C286.889 81.965 292.365 89.7833 296.511 98.3702C299.397 104.387 301.573 109.769 303.105 114.757C305.307 121.937 306.633 127.069 307.58 139.729C307.749 142.218 307.939 144.75 308.108 147.24C308.506 153.311 308.938 159.358 309.595 165.303C309.69 167.052 309.852 168.752 310.055 170.537C311.01 178.371 312.606 186.205 315.993 194.25C318.304 199.822 321.497 204.26 323.165 206.145C329.34 213.413 336.063 218.933 342.853 222.08C342.982 222.159 343.146 222.214 343.329 222.312C344.131 222.653 344.747 221.537 344.174 220.807C339.45 214.387 337.377 207.286 338.582 201.218C338.616 201.193 338.645 201.06 338.653 200.884C338.804 200.041 338.456 199.208 337.798 198.878C332.191 195.916 326.598 191.528 321.425 185.707C317.867 181.754 313.987 173.83 312.761 168.23C311.724 163.516 311.21 159.91 310.96 156.57C310.891 150.323 311.182 143.482 311.504 138.547C311.638 136.41 311.829 134.007 312.049 131.47C312.761 122.517 313.632 111.58 313.567 104.081C313.505 94.6535 313.04 90.955 311.176 81.7787C309.802 75.0919 307.396 68.737 304.878 62.6304C302.496 57.3922 296.835 47.4365 293.269 45.0186C286.585 40.549 281.884 39.5012 275.418 38.1099C274.446 37.8895 273.438 37.6926 272.411 37.4536C269.981 36.9571 266.104 37.3677 264.3 41.8749Z" fill="#F4F4F4"/>
<path d="M293.939 132.346C290.256 125.417 288.944 117.893 290.734 111.128C290.896 110.502 290.718 109.835 290.354 109.354C286.804 105.225 283.506 100.179 280.775 94.3939C279.489 91.6716 278.326 88.9191 277.41 86.1061C277.258 85.5902 276.677 85.7165 276.652 86.2449C276.085 96.5701 278.477 108.607 283.82 119.922C286.33 125.239 289.236 129.938 292.434 133.806C293.256 134.87 294.576 133.597 293.939 132.346Z" fill="#F4F4F4"/>
<path d="M258.727 227.994C255.633 224.053 252.734 219.464 250.248 214.298C248.541 210.683 247.115 206.983 246.042 203.26C245.809 202.572 245.342 202.165 244.805 202.091C239.511 201.631 234.507 197.619 230.751 191.31C230.12 190.168 228.639 191.1 229.084 192.43C230.073 195.588 231.307 198.688 232.773 201.793C239.356 215.636 248.933 225.265 258.36 228.764C258.74 228.892 259.012 228.304 258.727 227.994Z" fill="#F4F4F4"/>
<path d="M306.551 250.048C308.356 245.542 306.466 241.829 306.191 241.342C305.419 239.902 304.392 238.018 303.23 235.945C301.203 232.329 298.853 228.032 296.768 224.003C295.353 221.201 293.758 219.662 291.804 217.751C291.351 217.277 290.864 216.827 290.357 216.335C283.963 209.958 278.487 202.14 274.341 193.553C271.455 187.537 269.279 182.154 267.747 177.167C265.545 169.986 264.219 164.854 263.272 152.195C263.102 149.705 262.913 147.173 262.743 144.684C262.345 138.612 261.914 132.565 261.256 126.62C261.162 124.871 260.999 123.171 260.797 121.387C259.842 113.552 258.246 105.718 254.859 97.6736C252.548 92.1017 249.355 87.6633 247.687 85.7781C241.511 78.5102 234.788 72.9901 227.998 69.8432C227.869 69.7642 227.706 69.7096 227.523 69.6115C226.721 69.2708 226.105 70.3863 226.678 71.1161C231.402 77.5364 233.474 84.6369 232.27 90.7056C232.235 90.73 232.207 90.8637 232.198 91.0395C232.048 91.8827 232.396 92.7151 233.054 93.0449C238.66 96.0069 244.254 100.396 249.426 106.216C252.985 110.169 256.864 118.094 258.09 123.693C259.127 128.407 259.641 132.014 259.892 135.353C259.961 141.601 259.669 148.441 259.348 153.376C259.213 155.513 259.022 157.916 258.802 160.453C258.091 169.407 257.22 180.344 257.284 187.842C257.346 197.27 257.812 200.968 259.675 210.145C261.049 216.831 263.456 223.186 265.974 229.293C268.356 234.531 274.017 244.487 277.582 246.905C284.266 251.374 288.968 252.422 295.434 253.813C296.406 254.034 297.413 254.231 298.441 254.47C300.871 254.966 304.747 254.556 306.551 250.048Z" fill="#F4F4F4"/>
<path d="M276.912 159.577C280.595 166.507 281.908 174.03 280.118 180.795C279.955 181.421 280.134 182.088 280.498 182.57C284.048 186.698 287.345 191.744 290.077 197.529C291.362 200.252 292.526 203.004 293.442 205.817C293.594 206.333 294.175 206.207 294.199 205.678C294.767 195.353 292.375 183.316 287.032 172.001C284.521 166.684 281.616 161.985 278.418 158.118C277.596 157.053 276.275 158.326 276.912 159.577Z" fill="#F4F4F4"/>
</svg>
