<svg width="22" height="22" viewBox="0 0 22 22" fill="none" xmlns="http://www.w3.org/2000/svg">
<path d="M10.9987 1.83337C6.70228 1.83337 3.20703 5.32862 3.20703 9.62504C3.20703 11.4749 3.87116 13.2702 5.08299 14.6887C5.22141 14.8459 8.48703 18.5566 9.57786 19.5965C9.97616 19.9765 10.4872 20.1667 10.9987 20.1667C11.5102 20.1667 12.0212 19.9765 12.42 19.5965C13.6882 18.387 16.7852 14.8367 16.9208 14.6809C18.1262 13.2702 18.7904 11.4749 18.7904 9.62504C18.7904 5.32862 15.2951 1.83337 10.9987 1.83337ZM10.9987 11.9167C9.73324 11.9167 8.70703 10.8905 8.70703 9.62504C8.70703 8.35958 9.73324 7.33337 10.9987 7.33337C12.2642 7.33337 13.2904 8.35958 13.2904 9.62504C13.2904 10.8905 12.2642 11.9167 10.9987 11.9167Z" fill="#ED1E26"/>
</svg>
