<svg width="20" height="20" viewBox="0 0 20 20" fill="none" xmlns="http://www.w3.org/2000/svg">
<path d="M1.49596 0.834218C1.38655 0.838294 1.2797 0.868437 1.18429 0.92214C1.08889 0.975842 1.00769 1.05155 0.947443 1.14297C0.8872 1.23438 0.849657 1.33886 0.837939 1.44772C0.82622 1.55657 0.840665 1.66664 0.880071 1.76879L3.4009 8.27766C3.44429 8.38932 3.51609 8.4877 3.6092 8.56307C3.70231 8.63844 3.8135 8.68817 3.93175 8.70735L10.7799 9.81916C10.9505 9.84682 10.9339 9.89608 10.9339 9.99999C10.9339 10.1039 10.9505 10.1532 10.7799 10.1808L3.93175 11.2926C3.8135 11.3118 3.70231 11.3615 3.6092 11.4369C3.51609 11.5123 3.44429 11.6107 3.4009 11.7223L0.880071 18.2312C0.830176 18.3605 0.820535 18.5019 0.852414 18.6368C0.884293 18.7717 0.956203 18.8938 1.05871 18.9871C1.16122 19.0804 1.28953 19.1406 1.42683 19.1597C1.56413 19.1788 1.70399 19.1559 1.82807 19.0941L18.7864 10.615C18.9006 10.5579 18.9967 10.4701 19.0638 10.3615C19.1309 10.2529 19.1665 10.1277 19.1665 9.99999C19.1665 9.8723 19.1309 9.74712 19.0638 9.6385C18.9967 9.52988 18.9006 9.4421 18.7864 9.385L1.82807 0.905832C1.7251 0.854555 1.61091 0.829932 1.49596 0.834218Z" fill="white"/>
</svg>
