<svg width="100" height="100" viewBox="0 0 100 100" fill="none" xmlns="http://www.w3.org/2000/svg">
<circle cx="50" cy="50" r="50" fill="white"/>
<g clip-path="url(#clip0_178_2)">
<path d="M54.9875 50.5057L55.527 33.1861C55.5596 32.1387 54.7194 31.272 53.6716 31.272H50.3309C49.2831 31.272 48.4429 32.1387 48.4755 33.1861L49.015 50.5057C49.0461 51.5079 49.8677 52.3043 50.8704 52.3043H53.1322C54.1348 52.3041 54.9564 51.5079 54.9875 50.5057ZM49.297 59.5599L49.3588 61.5448C49.39 62.547 50.2115 63.3433 51.2142 63.3433H52.7883C53.791 63.3433 54.6125 62.547 54.6437 61.5448L54.7056 59.5599C54.7382 58.5125 53.898 57.6458 52.8502 57.6458H51.1525C50.1045 57.6458 49.2644 58.5125 49.297 59.5599Z" fill="#F6874D"/>
<path d="M21.0804 58.0565L26.779 49.3034C26.7984 49.2734 26.8083 49.2382 26.8074 49.2025C26.8066 49.1668 26.795 49.1322 26.7743 49.1031L21.6963 42.0554C21.5292 41.8243 21.4157 41.559 21.3639 41.2786C21.3121 40.9982 21.3234 40.7099 21.3969 40.4344C21.4695 40.1586 21.6025 39.9025 21.7864 39.6846C21.9702 39.4667 22.2003 39.2924 22.4598 39.1744L25.6416 37.722C25.7462 37.6739 25.8592 37.647 25.9743 37.6427C26.0893 37.6384 26.204 37.6569 26.3119 37.697C26.4198 37.7371 26.5188 37.7981 26.603 37.8765C26.6873 37.9549 26.7553 38.0492 26.8031 38.1539C26.851 38.2586 26.8776 38.3717 26.8817 38.4867C26.8857 38.6018 26.867 38.7165 26.8267 38.8243C26.7863 38.9321 26.7251 39.0309 26.6465 39.115C26.5679 39.1991 26.4735 39.2669 26.3687 39.3145L23.187 40.7671C23.1239 40.7958 23.0991 40.846 23.0893 40.8829C23.0795 40.9198 23.0763 40.9757 23.1168 41.0318L28.1948 48.0795C28.6567 48.7208 28.6774 49.5966 28.2462 50.2586L22.5476 59.0117C22.5093 59.0704 22.5156 59.1266 22.5277 59.1634C22.5356 59.1888 22.5492 59.2119 22.5676 59.2311C22.5859 59.2503 22.6084 59.265 22.6334 59.2741L30.5197 62.2656C30.8348 62.3858 31.1129 62.5863 31.3266 62.8471C31.5403 63.108 31.6821 63.4203 31.7378 63.7528L33.1784 72.4441C33.1823 72.4694 33.1917 72.4934 33.206 72.5146C33.2203 72.5358 33.2391 72.5535 33.2611 72.5665C33.2826 72.5802 33.307 72.5889 33.3323 72.5919C33.3577 72.5949 33.3834 72.5923 33.4075 72.584L41.8886 69.8663C42.6488 69.6228 43.4661 69.865 43.9708 70.4833L49.8092 77.6383C49.8255 77.6588 49.8463 77.6754 49.8699 77.6867C49.8936 77.698 49.9195 77.7037 49.9457 77.7036C49.9718 77.7037 49.9977 77.698 50.0214 77.687C50.0451 77.6759 50.0661 77.6597 50.0828 77.6396L55.9717 70.5634C56.2493 70.2276 56.6328 69.9962 57.0593 69.9072C57.4858 69.8182 57.9298 69.8769 58.3186 70.0737L74.5595 78.2264C74.5871 78.2404 74.671 78.2826 74.7614 78.1963C74.8518 78.1101 74.8136 78.0242 74.801 77.9959L68.8769 64.6715C68.6625 64.1892 68.6559 63.6333 68.859 63.1463C69.0621 62.6592 69.4615 62.2727 69.9547 62.0856L77.3664 59.2742C77.3913 59.2651 77.4138 59.2504 77.4322 59.2312C77.4505 59.2121 77.4642 59.1889 77.4721 59.1636C77.4807 59.1384 77.4833 59.1116 77.4799 59.0853C77.4764 59.059 77.4669 59.0338 77.4522 59.0117L71.7536 50.2588C71.3224 49.5967 71.343 48.7209 71.805 48.0798L73.349 45.9368C73.4847 45.7485 73.6897 45.6217 73.9189 45.5845C74.1481 45.5473 74.3826 45.6027 74.571 45.7384C74.7593 45.8741 74.886 46.0791 74.9233 46.3083C74.9605 46.5375 74.9051 46.772 74.7694 46.9604L73.2254 49.1032C73.2046 49.1323 73.1931 49.167 73.1922 49.2027C73.1914 49.2384 73.2013 49.2736 73.2206 49.3036L78.9194 58.0564C79.2393 58.5478 79.3184 59.1492 79.1364 59.7067C78.9545 60.2643 78.5357 60.7031 77.9874 60.9111L70.5756 63.7225C70.5168 63.7448 70.4883 63.7878 70.475 63.8199C70.4616 63.852 70.451 63.9026 70.4767 63.9602L76.4008 77.2847C76.736 78.0384 76.5669 78.8933 75.9701 79.4628C75.5997 79.8163 75.1271 80 74.6456 80C74.3513 80 74.0537 79.9314 73.7742 79.7911L57.5331 71.6382C57.4973 71.6203 57.4565 71.6149 57.4173 71.6231C57.3782 71.6313 57.3429 71.6526 57.3174 71.6834L51.4286 78.7595C51.059 79.2038 50.5141 79.4544 49.9374 79.4543C49.6529 79.4533 49.3722 79.3892 49.1154 79.2666C48.8587 79.144 48.6324 78.9659 48.4529 78.7452L42.6145 71.5902C42.592 71.5625 42.5617 71.5423 42.5275 71.5322C42.4933 71.5221 42.4568 71.5226 42.4229 71.5336L33.9417 74.2514C33.6781 74.3359 33.3993 74.3627 33.1244 74.3298C32.8495 74.2969 32.5849 74.2051 32.3486 74.0607C32.1122 73.9165 31.9098 73.723 31.7549 73.4935C31.6001 73.2639 31.4966 73.0037 31.4514 72.7305L30.0108 64.0394C30.0006 63.9773 29.9575 63.9248 29.8988 63.9025L22.0126 60.9111C21.4643 60.7031 21.0455 60.2642 20.8636 59.7067C20.6816 59.1493 20.7605 58.5478 21.0804 58.0565ZM76.9533 43.9291C76.8722 44.0418 76.7654 44.1336 76.6418 44.1968C76.5182 44.2601 76.3813 44.293 76.2424 44.2928C76.0813 44.2927 75.9234 44.2481 75.7859 44.164C75.6485 44.0799 75.537 43.9595 75.4636 43.816C75.3903 43.6726 75.3579 43.5117 75.3702 43.351C75.3824 43.1904 75.4387 43.0362 75.5329 42.9055L76.8829 41.0318C76.9234 40.9757 76.9203 40.9198 76.9105 40.8829C76.9007 40.846 76.8758 40.7958 76.8127 40.767L68.3289 36.8939C68.0082 36.7482 67.7337 36.5173 67.5354 36.2262C67.3371 35.9351 67.2225 35.5952 67.2043 35.2434L66.7512 26.8159C66.7501 26.7897 66.7431 26.764 66.7307 26.7409C66.7182 26.7178 66.7006 26.6978 66.6793 26.6825C66.6584 26.6667 66.6341 26.6558 66.6084 26.6507C66.5826 26.6457 66.5561 26.6466 66.5307 26.6533L57.4112 28.9562C56.6891 29.139 55.9182 28.8839 55.4468 28.3074L50.1371 21.8155C50.0932 21.7617 50.0382 21.7503 49.9998 21.7503C49.9614 21.7503 49.9066 21.7617 49.8626 21.8155L44.5528 28.3074C44.0814 28.8839 43.3104 29.1389 42.5883 28.9562L33.4688 26.6533C33.4435 26.6466 33.4169 26.6457 33.3912 26.6507C33.3655 26.6558 33.3412 26.6667 33.3204 26.6825C33.2895 26.7051 33.2522 26.7467 33.2485 26.8158L32.7954 35.2434C32.7771 35.5951 32.6626 35.9351 32.4643 36.2261C32.266 36.5171 31.9915 36.7481 31.6708 36.8938L29.7701 37.7616C29.3304 37.9625 28.811 37.7689 28.6102 37.329C28.4093 36.8891 28.6032 36.3698 29.0429 36.1691L30.9438 35.3011C30.9733 35.2877 30.9985 35.2665 31.0168 35.2398C31.035 35.213 31.0455 35.1818 31.0471 35.1495L31.5002 26.7217C31.5151 26.4374 31.5929 26.1599 31.7282 25.9093C31.8634 25.6587 32.0526 25.4413 32.2822 25.2729C32.5112 25.1037 32.7749 24.9875 33.0542 24.9327C33.3336 24.8779 33.6217 24.8858 33.8976 24.956L43.017 27.2589C43.0497 27.2669 43.084 27.2656 43.1159 27.255C43.1479 27.2445 43.1762 27.2251 43.1977 27.1991L48.5074 20.7075C48.8752 20.2579 49.4191 20 49.9998 20C50.5806 20 51.1246 20.2579 51.4922 20.7075L56.802 27.1994C56.8234 27.2254 56.8517 27.2448 56.8837 27.2553C56.9156 27.2659 56.9499 27.2672 56.9825 27.2592L66.1019 24.9563C66.3778 24.8862 66.6659 24.8782 66.9453 24.933C67.2247 24.9878 67.4884 25.104 67.7173 25.2732C67.9469 25.4417 68.1361 25.6591 68.2714 25.9097C68.4066 26.1603 68.4845 26.4378 68.4993 26.7222L68.9524 35.1498C68.9541 35.1822 68.9647 35.2134 68.9829 35.2401C69.0011 35.2669 69.0263 35.2881 69.0558 35.3016L77.5396 39.1747C77.7992 39.2927 78.0292 39.467 78.2131 39.6849C78.397 39.9028 78.53 40.159 78.6026 40.4347C78.6761 40.7102 78.6874 40.9986 78.6356 41.279C78.5838 41.5593 78.4703 41.8247 78.3032 42.0557L76.9533 43.9291Z" fill="#3A3A3A"/>
<path d="M53.2044 45.4936C53.6876 45.5104 54.0915 45.1292 54.1066 44.6459L54.4004 35.2132C54.4236 34.4678 54.1506 33.7624 53.6316 33.2269C53.1124 32.6913 52.4159 32.3965 51.6701 32.3965H48.3294C47.5836 32.3965 46.8871 32.6913 46.3679 33.2269C45.8489 33.7624 45.5758 34.4678 45.599 35.2132L46.1385 52.533C46.1847 54.0171 47.384 55.1796 48.8689 55.1796H51.1306C52.6155 55.1796 53.8148 54.0171 53.861 52.533L53.9905 48.3751C53.994 48.2602 53.975 48.1457 53.9343 48.0382C53.8936 47.9307 53.8322 47.8322 53.7535 47.7485C53.6748 47.6647 53.5803 47.5973 53.4755 47.55C53.3707 47.5027 53.2577 47.4766 53.1428 47.473C52.6594 47.4542 52.2556 47.8375 52.2406 48.3207L52.1111 52.4786C52.1043 52.7337 51.9978 52.976 51.8146 53.1536C51.6313 53.3313 51.3858 53.4301 51.1306 53.429H48.8689C48.6136 53.4301 48.3681 53.3313 48.1849 53.1537C48.0016 52.976 47.8952 52.7337 47.8884 52.4786L47.3489 35.1589C47.3443 35.0275 47.3665 34.8965 47.4139 34.7739C47.4614 34.6513 47.5332 34.5396 47.625 34.4455C47.7162 34.3508 47.8257 34.2756 47.9467 34.2243C48.0678 34.1731 48.198 34.1469 48.3294 34.1473H51.6701C51.9378 34.1473 52.1881 34.2532 52.3745 34.4455C52.5608 34.6378 52.659 34.8911 52.6506 35.1589L52.3568 44.5915C52.3532 44.7064 52.3723 44.8209 52.4129 44.9284C52.4536 45.0359 52.515 45.1344 52.5937 45.2181C52.6724 45.3019 52.7669 45.3693 52.8717 45.4166C52.9764 45.4639 53.0895 45.49 53.2044 45.4936ZM50.8484 58.7704H49.1507C48.4049 58.7704 47.7084 59.0652 47.1894 59.6007C46.6702 60.1363 46.3971 60.8417 46.4203 61.5871L46.4822 63.5721C46.5284 65.0562 47.7278 66.2188 49.2126 66.2188H50.7867C52.2715 66.2188 53.4707 65.0562 53.5171 63.5721L53.5789 61.5871C53.6022 60.8417 53.3291 60.1363 52.8099 59.6007C52.2908 59.0652 51.5942 58.7704 50.8484 58.7704ZM51.7672 63.5175C51.7604 63.7726 51.654 64.0149 51.4707 64.1925C51.2875 64.3702 51.042 64.469 50.7868 64.468H49.2127C48.9575 64.4691 48.712 64.3702 48.5287 64.1926C48.3455 64.0149 48.2391 63.7726 48.2323 63.5175L48.1704 61.5325C48.1622 61.2648 48.2602 61.0114 48.4466 60.8192C48.633 60.6269 48.8832 60.521 49.151 60.521H50.8487C51.1164 60.521 51.3666 60.6268 51.553 60.8192C51.7394 61.0115 51.8376 61.2648 51.8292 61.5325L51.7672 63.5175Z" fill="#3A3A3A"/>
</g>
<defs>
<clipPath id="clip0_178_2">
<rect width="60" height="60" fill="white" transform="translate(20 20)"/>
</clipPath>
</defs>
</svg>
