<svg width="80" height="80" viewBox="0 0 80 80" fill="none" xmlns="http://www.w3.org/2000/svg">
<path opacity="0.35" d="M27.6008 72.8C22.9688 72.8 19.2008 69.032 19.2008 64.4V53.6H13.2008C8.56878 53.6 4.80078 49.832 4.80078 45.2V18.8C4.80078 14.168 8.56878 10.4 13.2008 10.4H55.6008C60.2328 10.4 64.0008 14.168 64.0008 18.8V29.6H70.0008C74.6328 29.6 78.4008 33.368 78.4008 38V64.4C78.4008 69.032 74.6328 72.8 70.0008 72.8H27.6008Z" fill="black"/>
<path d="M25.9992 71.2C21.3672 71.2 17.5992 67.432 17.5992 62.8V52H11.5992C6.96722 52 3.19922 48.232 3.19922 43.6V17.2C3.19922 12.568 6.96722 8.8 11.5992 8.8H53.9992C58.6312 8.8 62.3992 12.568 62.3992 17.2V28H68.3992C73.0312 28 76.7992 31.768 76.7992 36.4V62.8C76.7992 67.432 73.0312 71.2 68.3992 71.2H25.9992Z" fill="#F2F2F2"/>
<path d="M53.9984 46.8H11.5984C9.83124 46.8 8.39844 45.3672 8.39844 43.6V17.2C8.39844 15.4328 9.83124 14 11.5984 14H53.9984C55.7656 14 57.1984 15.4328 57.1984 17.2V43.6C57.1984 45.3672 55.7656 46.8 53.9984 46.8Z" fill="#D9EEFF"/>
<path d="M40.7984 30.4H14.3984V36.8H40.7984V30.4Z" fill="#70BFFF"/>
<path d="M57.6 20.8H8V25.6H57.6V20.8Z" fill="#707CC0"/>
<path d="M68.3984 33.2H57.1984V17.2C57.1984 15.4328 55.7656 14 53.9984 14H11.5984C9.83124 14 8.39844 15.4328 8.39844 17.2V43.6C8.39844 45.3672 9.83124 46.8 11.5984 46.8H22.7984V62.8C22.7984 64.5672 24.2312 66 25.9984 66H68.3984C70.1656 66 71.5984 64.5672 71.5984 62.8V36.4C71.5984 34.6328 70.1656 33.2 68.3984 33.2Z" stroke="#40396E" stroke-width="3" stroke-miterlimit="10" stroke-linecap="round" stroke-linejoin="round"/>
<path d="M26 64.8C24.8976 64.8 24 63.9024 24 62.8V36.4C24 35.2976 24.8976 34.4 26 34.4H68.4C69.5024 34.4 70.4 35.2976 70.4 36.4V62.8C70.4 63.9024 69.5024 64.8 68.4 64.8H26Z" fill="#707CC0"/>
<path d="M36.8016 40H29.6016V47.2H36.8016V40Z" fill="#FFC571"/>
<path d="M36.0016 57.6H29.6016V60H36.0016V57.6Z" fill="#FFC571"/>
<path d="M45.5992 57.6H39.1992V60H45.5992V57.6Z" fill="#FFC571"/>
<path d="M55.2008 57.6H48.8008V60H55.2008V57.6Z" fill="#FFC571"/>
<path d="M64.7984 57.6H58.3984V60H64.7984V57.6Z" fill="#FFC571"/>
</svg>
