<svg width="60" height="60" viewBox="0 0 60 60" fill="none" xmlns="http://www.w3.org/2000/svg">
<g clip-path="url(#clip0_153_3316)">
<path fill-rule="evenodd" clip-rule="evenodd" d="M18.1795 11.3113L8.62891 10.7432V34.8635C8.62891 35.4416 8.89469 35.6774 9.44277 35.6774H18.7475L18.1795 11.3113Z" fill="#F6874D"/>
<path fill-rule="evenodd" clip-rule="evenodd" d="M43.8814 34.8635C43.8814 35.3917 43.6355 35.6774 43.0707 35.6774H18.1797V10.7432H43.8814V34.8635Z" fill="#F6874D"/>
<path fill-rule="evenodd" clip-rule="evenodd" d="M18.1806 11.3113H8.63018L3.0128 3.53803C2.7537 3.1792 2.87334 2.88037 3.34831 2.88037H24.8445L18.1806 11.3113Z" fill="#F6874D"/>
<path fill-rule="evenodd" clip-rule="evenodd" d="M17.6133 11.3113H43.883L49.5035 3.53803C49.7759 3.16268 49.633 2.88037 49.1647 2.88037H23.7089L17.6133 11.3113Z" fill="#F6874D"/>
<path fill-rule="evenodd" clip-rule="evenodd" d="M42.2375 55.478C51.7314 55.478 59.4781 47.7347 59.4781 38.2406C59.4781 28.7466 51.7314 21 42.2375 21C32.7434 21 25 28.7466 25 38.2406C25 47.7347 32.7434 55.478 42.2375 55.478Z" fill="white"/>
<path d="M31.0362 41.0395C31.0362 41.1516 31.0141 41.2627 30.9713 41.3662C30.9284 41.4698 30.8655 41.564 30.7862 41.6432C30.7069 41.7225 30.6128 41.7854 30.5092 41.8283C30.4056 41.8712 30.2946 41.8932 30.1825 41.8932C29.7141 41.8932 29.332 41.5112 29.332 41.0395V34.4222C29.332 33.9506 29.7141 33.5685 30.1825 33.5685C30.498 33.5685 30.7771 33.7379 30.9232 33.9937L33.9561 38.3885L33.9196 34.4156C33.9163 33.9473 34.2916 33.5619 34.7633 33.5587C35.2317 33.5553 35.6138 33.9341 35.6204 34.4024L35.6802 40.7339C35.7034 40.9598 35.6404 41.2056 35.5174 41.3951C35.4118 41.5605 35.2557 41.6874 35.0722 41.7572C34.8629 41.8401 34.6371 41.8401 34.4145 41.7538C34.2417 41.6874 34.0856 41.5645 33.9594 41.3851L31.0362 37.153V41.0395ZM43.4535 34.6514C43.3801 34.4369 43.3949 34.202 43.4946 33.9984C43.5942 33.7947 43.7705 33.6389 43.9849 33.5652C44.4301 33.4156 44.9152 33.6514 45.0679 34.0966L46.5661 38.4615L48.1439 34.0302C48.3001 33.5884 48.7884 33.3559 49.2302 33.512C49.3538 33.555 49.4657 33.626 49.5573 33.7193C49.6489 33.8127 49.7177 33.9259 49.7584 34.0502L51.2532 38.435L52.7781 34.0868C52.9343 33.6416 53.4192 33.4091 53.861 33.5619C54.3061 33.7181 54.5387 34.2031 54.3859 34.6448L52.0573 41.2821C51.9841 41.5379 51.7882 41.7536 51.5157 41.8467C51.0707 41.9962 50.5856 41.7603 50.4361 41.3119L48.9313 36.9003L47.3666 41.2886C47.3276 41.4177 47.2584 41.5356 47.1649 41.6326C47.0713 41.7296 46.956 41.803 46.8285 41.8467C46.7225 41.8832 46.6103 41.8984 46.4985 41.8914C46.3866 41.8845 46.2772 41.8555 46.1765 41.8061C46.0759 41.7567 45.986 41.6879 45.9121 41.6037C45.8381 41.5194 45.7815 41.4214 45.7455 41.3152L43.4535 34.6514ZM41.0749 33.6151C41.5466 33.6151 41.9288 33.9971 41.9288 34.4688C41.9288 34.9405 41.5467 35.3225 41.0749 35.3225H39.1583V36.9003H40.8723C41.344 36.9003 41.7261 37.2824 41.7261 37.754C41.7261 38.2257 41.3441 38.6078 40.8723 38.6078H39.1583V40.1858H41.0749C41.5466 40.1858 41.9288 40.5678 41.9288 41.0395C41.9288 41.5112 41.5467 41.8932 41.0749 41.8932H38.3079C38.1958 41.8933 38.0847 41.8712 37.9811 41.8283C37.8775 41.7854 37.7834 41.7226 37.7041 41.6433C37.6248 41.564 37.5619 41.4699 37.519 41.3663C37.4761 41.2627 37.454 41.1516 37.4541 41.0395V34.4688C37.454 34.3567 37.4761 34.2456 37.519 34.142C37.5619 34.0384 37.6248 33.9443 37.7041 33.865C37.7834 33.7857 37.8775 33.7229 37.9811 33.68C38.0847 33.6371 38.1958 33.615 38.3079 33.6151H41.0749Z" fill="#C9646D"/>
<path d="M5.7532 27.0774C5.75308 26.9622 5.77567 26.8481 5.8197 26.7416C5.86372 26.6352 5.92831 26.5385 6.00976 26.457C6.09121 26.3755 6.18793 26.3109 6.29438 26.2669C6.40083 26.2229 6.51491 26.2002 6.63011 26.2004C7.11515 26.2003 7.51042 26.5925 7.51042 27.0774V36.7971H15.3003V14.1918H7.51054V23.0977C7.51054 23.5827 7.11515 23.9746 6.63023 23.9746C6.14531 23.9746 5.75332 23.5826 5.75332 23.0977V13.5905L0.301988 6.04961C0.00632381 5.64098 -0.109926 5.13941 0.125972 4.67441C0.358472 4.2127 0.846792 4 1.34835 4H47.1641C47.6691 4 48.154 4.20602 48.3899 4.66773C48.6292 5.13602 48.5128 5.6377 48.2139 6.04961L42.7626 13.5905V19.5797C44.1275 19.6453 45.4805 19.866 46.7954 20.2375C48.4099 20.6893 49.9346 21.3636 51.3332 22.2207C51.7451 22.4731 51.878 23.0113 51.6255 23.4232C51.373 23.8384 50.8316 23.9679 50.4197 23.7155C49.1437 22.9322 47.7653 22.3297 46.3237 21.9251C44.9153 21.5298 43.427 21.3171 41.8825 21.3171C37.3646 21.3171 33.2754 23.1475 30.3155 26.1106C27.3557 29.0704 25.522 33.1595 25.522 37.6775C25.522 42.1953 27.3557 46.2844 30.3155 49.2443C33.2753 52.2074 37.3645 54.0379 41.8825 54.0379C46.4002 54.0379 50.4894 52.2074 53.4526 49.2443C56.4124 46.2844 58.2428 42.1953 58.2428 37.6775C58.2428 35.4419 57.7977 33.3156 56.9871 31.3791C56.1466 29.3661 54.9176 27.5589 53.3862 26.0441C53.0407 25.7052 53.0373 25.1473 53.3795 24.8017C53.4605 24.7195 53.557 24.6542 53.6634 24.6093C53.7697 24.5645 53.8839 24.5411 53.9993 24.5405C54.1147 24.5399 54.2291 24.562 54.336 24.6057C54.4428 24.6494 54.54 24.7137 54.6219 24.795C56.3281 26.4823 57.683 28.4909 58.6083 30.7048C59.5052 32.854 60.0001 35.2093 60.0001 37.6775C60.0001 42.6802 57.9737 47.2114 54.6949 50.49C51.4162 53.7688 46.8851 55.7952 41.8825 55.7952C36.8796 55.7952 32.3518 53.7688 29.0732 50.49C25.9871 47.404 24.0073 43.2084 23.788 38.5578H7.44398C6.93574 38.5578 6.53378 38.4216 6.2216 38.116C5.90601 37.8105 5.7532 37.4018 5.7532 36.8636V27.0774ZM41.0053 19.5797V14.1917H33.3816V16.6398C33.3816 17.1314 33.1789 17.5799 32.8567 17.9021C32.6907 18.0686 32.4934 18.2007 32.2762 18.2908C32.059 18.3808 31.8262 18.4271 31.5911 18.427H26.4719C25.9803 18.427 25.5319 18.2277 25.2097 17.9021C25.043 17.7369 24.9107 17.5403 24.8206 17.3236C24.7305 17.1069 24.6844 16.8745 24.6848 16.6398V14.1917H17.0611V36.797H23.788C24.0073 32.1463 25.9871 27.9509 29.0732 24.8648C32.1558 21.7823 36.3513 19.8024 41.0053 19.5797ZM31.0628 41.0393C31.0628 41.155 31.0401 41.2695 30.9959 41.3763C30.9517 41.4832 30.8869 41.5802 30.8051 41.662C30.7233 41.7437 30.6263 41.8086 30.5194 41.8528C30.4126 41.897 30.2981 41.9197 30.1825 41.9197C29.6974 41.9197 29.3055 41.5244 29.3055 41.0393V34.422C29.3055 33.9338 29.6975 33.5417 30.1825 33.5417C30.337 33.5415 30.489 33.582 30.623 33.6589C30.7571 33.7359 30.8687 33.8467 30.9465 33.9802L33.9296 38.3052L33.8932 34.4153C33.8922 34.3001 33.914 34.1859 33.9572 34.0791C34.0004 33.9723 34.0643 33.8751 34.1451 33.793C34.226 33.7109 34.3222 33.6456 34.4283 33.6008C34.5344 33.5559 34.6483 33.5325 34.7635 33.5317C35.2452 33.5284 35.6406 33.917 35.6439 34.4021L35.707 40.7303C35.7503 41.1755 35.5011 41.6172 35.0824 41.7801C34.6473 41.9461 34.1988 41.7734 33.9397 41.398L31.0629 37.2355V41.0393H31.0628ZM43.4303 34.658C43.2709 34.1996 43.5166 33.7013 43.9751 33.5418C44.4335 33.3857 44.9351 33.6282 45.0912 34.09L46.5661 38.3818L48.1207 34.0236C48.2802 33.5652 48.7819 33.3259 49.2402 33.4888C49.506 33.5819 49.6986 33.7912 49.7817 34.0436L51.2532 38.3586L52.7549 34.0768C52.8317 33.8575 52.9924 33.6777 53.2016 33.5768C53.4109 33.4759 53.6516 33.4621 53.871 33.5385C54.0902 33.6154 54.27 33.776 54.3709 33.9853C54.4717 34.1945 54.4855 34.4352 54.4091 34.6546L52.0839 41.2885C52.0042 41.5543 51.8048 41.7768 51.5224 41.8697C51.064 42.0259 50.5657 41.7801 50.4129 41.3216L48.9313 36.9798L47.3932 41.295C47.3135 41.5541 47.1142 41.7767 46.8352 41.8696C46.3767 42.0291 45.8785 41.7834 45.7191 41.3249L43.4303 34.658ZM41.075 33.5883C41.5601 33.5883 41.9555 33.9836 41.9555 34.4686C41.9555 34.9537 41.5601 35.3489 41.075 35.3489H39.1849V36.877H40.8724C40.9876 36.8768 41.1017 36.8994 41.2082 36.9435C41.3146 36.9875 41.4113 37.0521 41.4928 37.1335C41.5743 37.215 41.6389 37.3117 41.6829 37.4181C41.7269 37.5246 41.7496 37.6387 41.7495 37.7539C41.7495 38.2389 41.3575 38.6342 40.8724 38.6342H39.1849V40.1624H41.075C41.5601 40.1624 41.9555 40.5544 41.9555 41.0393C41.9555 41.5244 41.5601 41.9197 41.075 41.9197H38.308C37.823 41.9197 37.4277 41.5244 37.4277 41.0393V34.4686C37.4277 33.9836 37.823 33.5883 38.308 33.5883H41.075ZM31.6209 14.1918H26.4421V16.6698H31.6209V14.1918ZM33.6705 10.1954C33.953 9.80336 34.5009 9.71699 34.893 9.99941C34.9866 10.066 35.066 10.1505 35.1268 10.248C35.1875 10.3455 35.2283 10.454 35.2468 10.5674C35.2653 10.6807 35.2612 10.7966 35.2347 10.9083C35.2082 11.0201 35.1598 11.1255 35.0924 11.2184L34.2187 12.4309H41.4373L46.2641 5.75723H39.0423L37.4278 7.99305C37.1421 8.38492 36.5973 8.47457 36.2053 8.19227C35.81 7.90996 35.7237 7.36176 36.006 6.96977L36.8796 5.75711H32.1027L27.2793 12.4308H32.0562L33.6705 10.1954ZM25.1167 12.4309L29.9434 5.75723H22.7216L17.8982 12.4309H25.1167ZM7.07531 12.4309H15.7356L20.559 5.75723H2.25199L7.07531 12.4309Z" fill="#3A3A3A"/>
</g>
<defs>
<clipPath id="clip0_153_3316">
<rect width="60" height="60" fill="white"/>
</clipPath>
</defs>
</svg>
