<svg width="60" height="60" viewBox="0 0 60 60" fill="none" xmlns="http://www.w3.org/2000/svg">
<g clip-path="url(#clip0_153_3334)">
<path d="M44.2736 19.5148L43.8626 11.1374C43.8258 10.3884 43.2079 9.80005 42.458 9.80005H11.4562C10.7063 9.80005 10.0884 10.3884 10.0516 11.1374L8.37109 45.3905L44.2736 19.5148Z" fill="#F6874D"/>
<path d="M46.1177 57.1209L44.2727 19.5146L8.37004 45.3903L7.86696 55.6457C7.82758 56.4484 8.46778 57.1208 9.27157 57.1208L46.1177 57.1209Z" fill="#F6874D"/>
<path d="M54.1547 19.6284C54.1381 19.3242 54.0056 19.038 53.7845 18.8286C53.5633 18.6192 53.2703 18.5024 52.9657 18.5024H24.6612C24.3566 18.5024 24.0636 18.6192 23.8424 18.8286C23.6213 19.038 23.4888 19.3242 23.4722 19.6284L21.9492 47.5477L54.5257 26.4305L54.1547 19.6284Z" fill="#F6874D"/>
<path d="M22.6831 57.1211H54.9408C55.6239 57.1211 56.1671 56.5476 56.1298 55.8655L54.5242 26.4307L21.9477 47.5479L21.494 55.8655C21.4568 56.5476 21.9999 57.1211 22.6831 57.1211Z" fill="#F6874D"/>
<path d="M24.9567 0.878906C20.5515 0.878906 16.9805 4.44996 16.9805 8.85516V15.1534C16.9805 16.284 17.897 17.2005 19.0276 17.2005C20.1582 17.2005 21.0748 16.284 21.0748 15.1534V8.92805C21.0748 6.80824 22.7439 5.02453 24.8631 4.97449C27.0462 4.92293 28.8386 6.68367 28.8386 8.85527V19.4898C28.8386 20.6204 29.7551 21.537 30.8857 21.537C32.0163 21.537 32.9329 20.6204 32.9329 19.4898V8.85516C32.933 4.44996 29.3619 0.878906 24.9567 0.878906Z" fill="white"/>
<path d="M36.8141 10.6428C32.4089 10.6428 28.8379 14.2139 28.8379 18.6191V24.5656C28.8379 25.6963 29.7544 26.6128 30.885 26.6128C32.0157 26.6128 32.9322 25.6963 32.9322 24.5656V18.6918C32.9322 16.572 34.6013 14.7883 36.7205 14.7383C38.9036 14.6867 40.696 16.4475 40.696 18.6191V24.5656C40.696 25.6963 41.6125 26.6128 42.7431 26.6128C43.8737 26.6128 44.7903 25.6963 44.7903 24.5656V18.6191C44.7905 14.214 41.2193 10.6428 36.8141 10.6428Z" fill="white"/>
<path d="M44.75 50.1998C49.1333 45.8164 49.1332 38.7095 44.7497 34.3262C40.3663 29.9429 33.2594 29.943 28.8761 34.3265C24.4928 38.7099 24.4929 45.8168 28.8764 50.2001C33.2598 54.5834 40.3667 54.5833 44.75 50.1998Z" fill="white"/>
<path d="M16.6828 11.8003H9.45524C8.70536 11.8003 8.08743 12.3887 8.05063 13.1376L7.44418 25.4989M28.6026 11.8003H21.3088M7.24333 29.5954L6.37016 47.3906M6.37016 47.3906L20.3176 37.3385M6.37016 47.3906L5.86696 57.6466C5.82758 58.4494 6.46778 59.1212 7.27157 59.1212H22.5657M44.5121 33.6253L52.5255 28.4307L52.1545 21.6285C52.1379 21.3243 52.0054 21.0381 51.7843 20.8287C51.5631 20.6192 51.2701 20.5025 50.9655 20.5025H45.1313" stroke="#3A3A3A" stroke-width="1.6" stroke-miterlimit="10" stroke-linecap="round" stroke-linejoin="round"/>
<path d="M28.6227 20.6236H22.6811C22.3765 20.6236 22.0835 20.7404 21.8624 20.9498C21.6412 21.1592 21.5087 21.4454 21.4921 21.7496L19.9692 49.6689L25.9764 45.7748M40.4807 20.6236H33.153M19.9691 49.6689L19.5153 57.9865C19.478 58.6687 20.0212 59.2422 20.7043 59.2422H44.7358M48.8379 59.2422H52.9622C53.6452 59.2422 54.1884 58.6687 54.1511 57.9865L52.5456 28.5517M32.9525 11.5356V8.97625C32.9525 4.57106 29.3813 1 24.9762 1C20.5711 1 17 4.57106 17 8.97625V15.2745C17 16.4051 17.9165 17.3216 19.0471 17.3216C20.1778 17.3216 21.0943 16.4051 21.0943 15.2745V9.04914C21.0943 6.92934 22.7634 5.14563 24.8826 5.09559C27.0657 5.04402 28.8581 6.80477 28.8581 8.97637V20.4313" stroke="#3A3A3A" stroke-width="1.6" stroke-miterlimit="10" stroke-linecap="round" stroke-linejoin="round"/>
<path d="M36.8141 10.6428C32.4089 10.6428 28.8379 14.2139 28.8379 18.6191V24.5656C28.8379 25.6963 29.7544 26.6128 30.885 26.6128C32.0157 26.6128 32.9322 25.6963 32.9322 24.5656V18.6918C32.9322 16.572 34.6013 14.7883 36.7205 14.7383C38.9036 14.6867 40.696 16.4475 40.696 18.6191V24.5656C40.696 25.6963 41.6125 26.6128 42.7431 26.6128C43.8737 26.6128 44.7903 25.6963 44.7903 24.5656V18.6191C44.7905 14.214 41.2193 10.6428 36.8141 10.6428Z" stroke="#3A3A3A" stroke-width="1.6" stroke-miterlimit="10" stroke-linecap="round" stroke-linejoin="round"/>
<path d="M34.8212 39.8624C35.5023 39.1813 35.5023 38.0769 34.8211 37.3957C34.1399 36.7146 33.0356 36.7146 32.3544 37.3958C31.6733 38.077 31.6733 39.1813 32.3545 39.8625C33.0356 40.5436 34.14 40.5436 34.8212 39.8624Z" stroke="#3A3A3A" stroke-width="1.6" stroke-miterlimit="10" stroke-linecap="round" stroke-linejoin="round"/>
<path d="M42.0887 47.1305C42.7699 46.4493 42.7699 45.345 42.0887 44.6638C41.4075 43.9827 40.3031 43.9827 39.622 44.6638C38.9409 45.345 38.9409 46.4494 39.622 47.1305C40.3032 47.8117 41.4076 47.8117 42.0887 47.1305Z" stroke="#3A3A3A" stroke-width="1.6" stroke-miterlimit="10" stroke-linecap="round" stroke-linejoin="round"/>
<path d="M44.75 50.1998C49.1333 45.8164 49.1332 38.7095 44.7497 34.3262C40.3663 29.9429 33.2594 29.943 28.8761 34.3265C24.4928 38.7099 24.4929 45.8168 28.8764 50.2001C33.2598 54.5834 40.3667 54.5833 44.75 50.1998Z" stroke="#3A3A3A" stroke-width="1.6" stroke-miterlimit="10" stroke-linecap="round" stroke-linejoin="round"/>
<path d="M32.5742 46.9109L41.8694 37.6157" stroke="#3A3A3A" stroke-width="1.6" stroke-miterlimit="10" stroke-linecap="round" stroke-linejoin="round"/>
</g>
<defs>
<clipPath id="clip0_153_3334">
<rect width="60" height="60" fill="white"/>
</clipPath>
</defs>
</svg>
