<svg width="60" height="60" viewBox="0 0 60 60" fill="none" xmlns="http://www.w3.org/2000/svg">
<g clip-path="url(#clip0_153_3305)">
<path d="M57.9621 34.7291L32.2505 9.53167C32.0423 9.32761 31.7767 9.18908 31.4877 9.13381L20.4772 7.02686C20.2392 6.98134 19.9934 6.99382 19.7616 7.06319C19.5297 7.13257 19.3187 7.25671 19.1473 7.42472L9.43343 16.9443C9.26196 17.1123 9.13525 17.319 9.06446 17.5463C8.99367 17.7736 8.98096 18.0145 9.02746 18.2477L11.1774 29.0379C11.2338 29.3212 11.3752 29.5814 11.5834 29.7854L37.295 54.9828C38.6789 56.3391 40.9227 56.3391 42.3066 54.9828L57.9621 39.6404C59.346 38.2842 59.346 36.0853 57.9621 34.7291ZM19.6053 17.3933C18.5518 18.4256 16.8439 18.4256 15.7904 17.3933C14.737 16.3609 14.737 14.6871 15.7904 13.6547C16.8439 12.6223 18.5518 12.6223 19.6053 13.6547C20.6587 14.6872 20.6587 16.3609 19.6053 17.3933Z" fill="#F6874D"/>
<path d="M22.9933 27.1836C21.9568 26.1469 22.4649 25.09 22.0483 24.6734C21.7333 24.3584 21.0421 24.5209 20.7576 24.8055C20.1681 25.3949 20.5137 27.0821 21.845 28.4133C23.2476 29.8158 25.0158 30.0801 26.4692 28.6267C29.1015 25.9946 25.4021 23.1693 26.6623 21.9091C27.1502 21.4213 27.8616 21.5432 28.5933 22.2749C29.4471 23.1286 29.2946 23.7486 29.6097 24.0637C29.9756 24.4295 30.6056 24.1247 30.8394 23.8909C31.5101 23.2202 30.3209 21.7465 29.7214 21.1469C28.5527 19.9782 26.7336 19.1956 25.2193 20.7099C22.8106 23.1186 26.5405 25.9134 25.016 27.4377C24.406 28.0474 23.603 27.7933 22.9933 27.1836ZM30.0771 36.4625C30.4327 36.8181 31.1442 37.062 31.4592 36.747C31.4897 36.7165 31.51 36.676 31.5406 36.6251L35.9716 28.2711C36.185 27.8747 35.9513 27.3564 35.5652 26.9702C35.189 26.5941 34.6708 26.3603 34.2745 26.5738L25.9205 31.0048C25.8698 31.0354 25.8189 31.0659 25.7987 31.0861C25.4735 31.4113 25.7275 32.1126 26.0833 32.4684C26.3069 32.692 26.5508 32.7936 26.7946 32.6512L28.5325 31.6857L30.86 34.013L29.8945 35.751C29.7519 35.995 29.8536 36.2389 30.0771 36.4625ZM29.8433 30.9236L33.8476 28.6878L31.6116 32.692L29.8433 30.9236ZM40.2098 31.7369C39.8744 31.4015 39.4273 31.1983 39.1427 31.4828L32.5368 38.0887C32.2624 38.3631 32.4046 38.7899 32.6994 39.0847L35.921 42.3063C36.1852 42.5705 36.6121 42.408 36.8967 42.1233C37.1914 41.8286 37.3438 41.4119 37.0796 41.1476L34.5998 38.6678L40.4638 32.8038C40.7484 32.5195 40.5351 32.0621 40.2098 31.7369ZM48.0151 41.8593C48.2793 42.1236 48.7061 42.0016 49.0212 41.6866C49.2957 41.4121 49.4583 40.9853 49.1737 40.7007L45.5558 37.0827C45.2609 36.7879 44.8341 36.6458 44.5598 36.9201L37.964 43.5159C37.6896 43.7903 37.8318 44.2171 38.1267 44.512L41.7446 48.1299C42.0292 48.4145 42.456 48.2519 42.7304 47.9774C43.0454 47.6624 43.1674 47.2355 42.9032 46.9713L40.027 44.0951L42.0698 42.0524L43.6147 43.5973C43.8992 43.8818 44.3057 43.7395 44.5395 43.5058C44.8138 43.2313 44.9156 42.8249 44.6513 42.5607L43.1064 41.0158L45.139 38.9832L48.0151 41.8593Z" fill="#3A3A3A"/>
<path d="M12.5196 17.064C12.5196 18.0108 12.8883 18.9009 13.5579 19.5704C14.249 20.2615 15.1565 20.6069 16.0644 20.6069C16.972 20.6069 17.88 20.2613 18.571 19.5705C19.953 18.1884 19.9531 15.9396 18.571 14.5575C18.1547 14.1403 17.6405 13.8342 17.0754 13.6671C16.9591 12.8719 16.723 12.0235 16.4054 11.1646L18.1152 9.45474C18.1858 9.38406 18.2727 9.33184 18.3682 9.30266C18.4638 9.27349 18.565 9.26825 18.6631 9.28742L29.6132 11.4255C29.7323 11.4486 29.8418 11.5068 29.9275 11.5927L50.1464 31.8109C50.309 31.9682 50.5269 32.0553 50.7531 32.0534C50.9793 32.0515 51.1957 31.9608 51.3557 31.8009C51.5156 31.6409 51.6063 31.4245 51.6082 31.1983C51.6101 30.9721 51.5231 30.7543 51.3658 30.5917L31.1468 10.3733C30.8187 10.0446 30.3997 9.82168 29.9438 9.73318L18.9936 7.59511C18.6183 7.5216 18.2306 7.54155 17.8648 7.65321C17.499 7.76486 17.1663 7.96479 16.896 8.23538L15.6767 9.45462C14.5607 7.12839 13.0226 4.93447 11.8238 3.73573C8.68568 0.597725 4.09423 0.0828617 1.58847 2.58842C-0.917061 5.09397 -0.402406 9.68538 2.73571 12.8234C4.07599 14.1637 6.27225 15.6274 8.46081 16.6704L7.23574 17.8955C6.96505 18.1658 6.76503 18.4985 6.65335 18.8643C6.54166 19.2301 6.52174 19.6177 6.59534 19.9931L8.73349 30.9428C8.82208 31.3987 9.04507 31.8177 9.37377 32.1458L11.2944 34.0662C11.3744 34.1464 11.4694 34.21 11.574 34.2533C11.6786 34.2966 11.7908 34.3189 11.904 34.3187C12.0745 34.3188 12.2413 34.2682 12.3831 34.1735C12.5249 34.0788 12.6354 33.9441 12.7007 33.7866C12.7659 33.629 12.783 33.4557 12.7497 33.2884C12.7165 33.1212 12.6343 32.9675 12.5137 32.847L10.5932 30.9266C10.5073 30.8409 10.449 30.7315 10.4259 30.6124L8.28771 19.6626C8.26847 19.5646 8.27367 19.4634 8.30285 19.3678C8.33204 19.2723 8.3843 19.1854 8.45503 19.1149L15.0387 12.5313C15.1547 12.9099 15.245 13.2682 15.3099 13.6026C14.6461 13.7455 14.0377 14.0771 13.558 14.5576C12.8883 15.2269 12.5196 16.117 12.5196 17.064ZM9.76064 15.3707C7.58647 14.4112 5.26073 12.9098 3.95523 11.6042C2.73231 10.3814 1.95257 8.87394 1.75987 7.3596C1.57759 5.92716 1.94985 4.66588 2.80799 3.80778C4.64117 1.97455 8.13897 2.48918 10.6047 4.95509C11.918 6.26836 13.4055 8.56854 14.371 10.7608L9.76064 15.3707ZM16.26 17.2594C16.7104 16.8091 16.9736 16.2282 17.0881 15.5595C17.1826 15.6234 17.2709 15.696 17.3518 15.7765C18.0616 16.4863 18.0616 17.6412 17.3519 18.3511C16.642 19.0608 15.487 19.0609 14.7771 18.3511C14.6966 18.2703 14.6238 18.1821 14.5596 18.0878C15.2567 17.9694 15.8264 17.693 16.26 17.2594ZM14.7773 15.7766C14.9461 15.6077 15.1467 15.4738 15.3676 15.3827C15.3048 15.6615 15.1966 15.8842 15.0406 16.0402C14.8723 16.2086 14.6372 16.3086 14.3823 16.3653C14.4741 16.1451 14.6082 15.945 14.7773 15.7766ZM56.7174 35.943L54.1962 33.422C54.0336 33.2647 53.8158 33.1776 53.5895 33.1795C53.3633 33.1814 53.1469 33.2721 52.987 33.432C52.827 33.592 52.7363 33.8084 52.7344 34.0346C52.7325 34.2608 52.8196 34.4786 52.9768 34.6412L55.498 37.1622C55.746 37.4088 55.9426 37.7021 56.0764 38.0252C56.2103 38.3483 56.2787 38.6948 56.2777 39.0445C56.2787 39.3942 56.2102 39.7407 56.0764 40.0638C55.9426 40.3869 55.746 40.6802 55.498 40.9269L39.9283 56.496C39.6817 56.744 39.3884 56.9406 39.0653 57.0744C38.7422 57.2082 38.3958 57.2767 38.0461 57.2757C37.3349 57.2757 36.6664 56.9989 36.1637 56.496L15.3501 35.6833C15.1875 35.526 14.9697 35.439 14.7435 35.4408C14.5172 35.4427 14.3008 35.5334 14.1409 35.6933C13.9809 35.8533 13.8902 36.0697 13.8883 36.2959C13.8864 36.5221 13.9735 36.74 14.1307 36.9026L34.9442 57.7153C35.7726 58.5437 36.8742 59 38.0459 59C39.2175 59 40.3191 58.5437 41.1476 57.7153L56.7173 42.1461C58.4276 40.4359 58.4276 37.6533 56.7174 35.943Z" fill="#3A3A3A"/>
</g>
<defs>
<clipPath id="clip0_153_3305">
<rect width="60" height="60" fill="white"/>
</clipPath>
</defs>
</svg>
