<svg width="26" height="26" viewBox="0 0 26 26" fill="none" xmlns="http://www.w3.org/2000/svg">
<path d="M3.52214 6.5C3.16299 6.5 2.81855 6.64267 2.56459 6.89663C2.31064 7.15058 2.16797 7.49502 2.16797 7.85417C2.16797 8.21331 2.31064 8.55775 2.56459 8.81171C2.81855 9.06566 3.16299 9.20833 3.52214 9.20833C3.88128 9.20833 4.22572 9.06566 4.47968 8.81171C4.73363 8.55775 4.8763 8.21331 4.8763 7.85417C4.8763 7.49502 4.73363 7.15058 4.47968 6.89663C4.22572 6.64267 3.88128 6.5 3.52214 6.5V6.5ZM7.3138 7.04167C7.20614 7.04014 7.09924 7.06003 6.99933 7.10018C6.89942 7.14033 6.80848 7.19994 6.73181 7.27554C6.65513 7.35114 6.59425 7.44122 6.55269 7.54055C6.51113 7.63989 6.48973 7.74649 6.48973 7.85417C6.48973 7.96184 6.51113 8.06845 6.55269 8.16778C6.59425 8.26711 6.65513 8.3572 6.73181 8.4328C6.80848 8.5084 6.89942 8.568 6.99933 8.60815C7.09924 8.6483 7.20614 8.66819 7.3138 8.66667H23.0221C23.1298 8.66819 23.2367 8.6483 23.3366 8.60815C23.4365 8.568 23.5275 8.5084 23.6041 8.4328C23.6808 8.3572 23.7417 8.26711 23.7832 8.16778C23.8248 8.06845 23.8462 7.96184 23.8462 7.85417C23.8462 7.74649 23.8248 7.63989 23.7832 7.54055C23.7417 7.44122 23.6808 7.35114 23.6041 7.27554C23.5275 7.19994 23.4365 7.14033 23.3366 7.10018C23.2367 7.06003 23.1298 7.04014 23.0221 7.04167H7.3138ZM3.52214 11.9167C3.16299 11.9167 2.81855 12.0593 2.56459 12.3133C2.31064 12.5672 2.16797 12.9117 2.16797 13.2708C2.16797 13.63 2.31064 13.9744 2.56459 14.2284C2.81855 14.4823 3.16299 14.625 3.52214 14.625C3.88128 14.625 4.22572 14.4823 4.47968 14.2284C4.73363 13.9744 4.8763 13.63 4.8763 13.2708C4.8763 12.9117 4.73363 12.5672 4.47968 12.3133C4.22572 12.0593 3.88128 11.9167 3.52214 11.9167ZM7.3138 12.4583C7.20614 12.4568 7.09924 12.4767 6.99933 12.5169C6.89942 12.557 6.80848 12.6166 6.73181 12.6922C6.65513 12.7678 6.59425 12.8579 6.55269 12.9572C6.51113 13.0566 6.48973 13.1632 6.48973 13.2708C6.48973 13.3785 6.51113 13.4851 6.55269 13.5844C6.59425 13.6838 6.65513 13.7739 6.73181 13.8495C6.80848 13.9251 6.89942 13.9847 6.99933 14.0248C7.09924 14.065 7.20614 14.0849 7.3138 14.0833H23.0221C23.1298 14.0849 23.2367 14.065 23.3366 14.0248C23.4365 13.9847 23.5275 13.9251 23.6041 13.8495C23.6808 13.7739 23.7417 13.6838 23.7832 13.5844C23.8248 13.4851 23.8462 13.3785 23.8462 13.2708C23.8462 13.1632 23.8248 13.0566 23.7832 12.9572C23.7417 12.8579 23.6808 12.7678 23.6041 12.6922C23.5275 12.6166 23.4365 12.557 23.3366 12.5169C23.2367 12.4767 23.1298 12.4568 23.0221 12.4583H7.3138ZM3.52214 17.3333C3.16299 17.3333 2.81855 17.476 2.56459 17.73C2.31064 17.9839 2.16797 18.3284 2.16797 18.6875C2.16797 19.0466 2.31064 19.3911 2.56459 19.645C2.81855 19.899 3.16299 20.0417 3.52214 20.0417C3.88128 20.0417 4.22572 19.899 4.47968 19.645C4.73363 19.3911 4.8763 19.0466 4.8763 18.6875C4.8763 18.3284 4.73363 17.9839 4.47968 17.73C4.22572 17.476 3.88128 17.3333 3.52214 17.3333ZM7.3138 17.875C7.20614 17.8735 7.09924 17.8934 6.99933 17.9335C6.89942 17.9737 6.80848 18.0333 6.73181 18.1089C6.65513 18.1845 6.59425 18.2746 6.55269 18.3739C6.51113 18.4732 6.48973 18.5798 6.48973 18.6875C6.48973 18.7952 6.51113 18.9018 6.55269 19.0011C6.59425 19.1004 6.65513 19.1905 6.73181 19.2661C6.80848 19.3417 6.89942 19.4013 6.99933 19.4415C7.09924 19.4816 7.20614 19.5015 7.3138 19.5H23.0221C23.1298 19.5015 23.2367 19.4816 23.3366 19.4415C23.4365 19.4013 23.5275 19.3417 23.6041 19.2661C23.6808 19.1905 23.7417 19.1004 23.7832 19.0011C23.8248 18.9018 23.8462 18.7952 23.8462 18.6875C23.8462 18.5798 23.8248 18.4732 23.7832 18.3739C23.7417 18.2746 23.6808 18.1845 23.6041 18.1089C23.5275 18.0333 23.4365 17.9737 23.3366 17.9335C23.2367 17.8934 23.1298 17.8735 23.0221 17.875H7.3138Z" fill="#25344F"/>
</svg>
