<svg width="22" height="22" viewBox="0 0 22 22" fill="none" xmlns="http://www.w3.org/2000/svg">
<g opacity="0.4">
<path d="M10.9997 1.83325C5.9452 1.83325 1.83301 5.94545 1.83301 10.9999C1.83301 16.0544 5.9452 20.1666 10.9997 20.1666C16.0541 20.1666 20.1663 16.0544 20.1663 10.9999C20.1663 5.94545 16.0541 1.83325 10.9997 1.83325ZM10.9997 3.20825C15.311 3.20825 18.7913 6.68856 18.7913 10.9999C18.7913 15.3113 15.311 18.7916 10.9997 18.7916C6.68831 18.7916 3.20801 15.3113 3.20801 10.9999C3.20801 6.68856 6.68831 3.20825 10.9997 3.20825ZM10.7598 5.49007C10.5776 5.49292 10.404 5.56796 10.2771 5.69871C10.1502 5.82946 10.0804 6.00524 10.083 6.18742V11.6874C10.083 11.8698 10.1555 12.0446 10.2844 12.1735C10.4133 12.3025 10.5882 12.3749 10.7705 12.3749H14.4372C14.5283 12.3762 14.6187 12.3594 14.7033 12.3254C14.7878 12.2914 14.8648 12.241 14.9296 12.177C14.9945 12.1131 15.046 12.0368 15.0812 11.9528C15.1164 11.8687 15.1345 11.7785 15.1345 11.6874C15.1345 11.5963 15.1164 11.5061 15.0812 11.4221C15.046 11.338 14.9945 11.2618 14.9296 11.1978C14.8648 11.1338 14.7878 11.0834 14.7033 11.0494C14.6187 11.0155 14.5283 10.9986 14.4372 10.9999H11.458V6.18742C11.4593 6.0954 11.4422 6.00406 11.4075 5.91879C11.3729 5.83353 11.3215 5.75609 11.2564 5.69106C11.1913 5.62603 11.1138 5.57473 11.0285 5.54021C10.9431 5.50568 10.8518 5.48863 10.7598 5.49007Z" fill="#25344F"/>
</g>
</svg>
