<svg width="12" height="12" viewBox="0 0 12 12" fill="none" xmlns="http://www.w3.org/2000/svg">
<g opacity="0.5">
<path d="M9.42284 1.10131C9.28966 0.966229 9.07398 0.966229 8.94079 1.10131L5.99989 4.08426L3.0592 1.10131C2.92602 0.966229 2.71034 0.966229 2.57716 1.10131L1.09989 2.5997C0.966705 2.73479 0.966705 2.95355 1.09989 3.08863L3.97023 6L1.09989 8.91137C0.966705 9.04645 0.966705 9.26521 1.09989 9.4003L2.57716 10.8987C2.71034 11.0338 2.92602 11.0338 3.0592 10.8987L5.99989 7.91574L8.94079 10.8987C9.07398 11.0338 9.28966 11.0338 9.42284 10.8987L10.9001 9.40007C11.0333 9.26498 11.0333 9.04622 10.9001 8.91113L8.03 6L10.9001 3.08887C11.0333 2.95378 11.0333 2.73502 10.9001 2.59993L9.42284 1.10131Z" fill="#282828"/>
</g>
</svg>
