<svg width="26" height="26" viewBox="0 0 26 26" fill="none" xmlns="http://www.w3.org/2000/svg">
<g id="Phone">
<path id="Vector" d="M20.2972 24.4398C20.289 24.4398 20.2809 24.4398 20.2728 24.4398C16.3647 24.3118 11.7862 20.5236 8.63169 17.367C5.4731 14.2104 1.68482 9.62997 1.56294 5.74013C1.51826 4.37513 4.86779 1.94779 4.90232 1.92341C5.77169 1.3181 6.73654 1.53341 7.13263 2.08185C7.40076 2.45357 9.93982 6.30076 10.2161 6.73747C10.5025 7.19044 10.4598 7.86482 10.1023 8.54122C9.90529 8.91701 9.25123 10.0667 8.94451 10.6029C9.2756 11.0742 10.1511 12.23 11.9589 14.0378C13.7687 15.8456 14.9225 16.7231 15.3958 17.0542C15.932 16.7475 17.0817 16.0934 17.4575 15.8964C18.1237 15.5429 18.794 15.4983 19.2511 15.7786C19.7183 16.065 23.5553 18.6162 23.9087 18.862C24.2053 19.0712 24.3962 19.4287 24.4348 19.8451C24.4714 20.2656 24.3414 20.7104 24.0712 21.0984C24.0489 21.1309 21.65 24.4398 20.2972 24.4398Z" fill="#0088CC" style="fill:#0088CC;fill:color(display-p3 0.0000 0.5333 0.8000);fill-opacity:1;"/>
</g>
</svg>
