<svg width="19" height="21" viewBox="0 0 19 21" fill="none" xmlns="http://www.w3.org/2000/svg">
<path fill-rule="evenodd" clip-rule="evenodd" d="M7.96873 20.5989C8.89396 21.132 10.0335 21.1338 10.9604 20.6037L17.4917 16.8686C18.4246 16.3351 19 15.3442 19 14.2713L19 6.73694C19 5.66504 18.4257 4.67495 17.4942 4.14107L10.9632 0.397741C10.0348 -0.134366 8.89265 -0.132455 7.96607 0.402757L1.49707 4.13939C0.57052 4.67458 -2.47491e-07 5.66193 -2.94188e-07 6.73025L-6.24187e-07 14.2797C-6.70937e-07 15.3493 0.571811 16.3375 1.50003 16.8723L7.96873 20.5989ZM2.24854 5.43482L8.71753 1.69819C9.18082 1.43058 9.75191 1.42963 10.2161 1.69568L16.7471 5.439C17.2128 5.70594 17.5 6.20099 17.5 6.73694L17.5 14.2713C17.5 14.8078 17.2123 15.3032 16.7458 15.57L10.2145 19.305C9.75108 19.5701 9.18133 19.5692 8.71872 19.3027L2.25002 15.576C1.7859 15.3086 1.5 14.8145 1.5 14.2797L1.5 6.73025C1.5 6.19609 1.78526 5.70242 2.24854 5.43482Z" fill="#D3D3D3"/>
</svg>
