<svg width="19" height="21" viewBox="0 0 19 21" fill="none" xmlns="http://www.w3.org/2000/svg">
<path fill-rule="evenodd" clip-rule="evenodd" d="M7.96873 20.5989C8.89396 21.132 10.0335 21.1338 10.9604 20.6037L17.4917 16.8686C18.4246 16.3351 19 15.3442 19 14.2713L19 6.73694C19 5.66504 18.4257 4.67495 17.4942 4.14107L10.9632 0.397741C10.0348 -0.134366 8.89265 -0.132455 7.96607 0.402757L1.49707 4.13939C0.57052 4.67458 -2.47491e-07 5.66193 -2.94188e-07 6.73025L-6.24187e-07 14.2797C-6.70937e-07 15.3493 0.571811 16.3375 1.50003 16.8723L7.96873 20.5989Z" fill="#AB3541"/>
<path fill-rule="evenodd" clip-rule="evenodd" d="M8.29739 11.73L12.2226 7L14 8.45258L8.56661 15L5 11.903L6.51622 10.1834L8.29739 11.73Z" fill="white"/>
</svg>
