<svg width="26" height="26" viewBox="0 0 26 26" fill="none" xmlns="http://www.w3.org/2000/svg">
<path d="M1.89634 5.41666C1.78867 5.41514 1.68178 5.43503 1.58187 5.47518C1.48195 5.51533 1.39102 5.57493 1.31434 5.65053C1.23767 5.72613 1.17678 5.81621 1.13522 5.91555C1.09367 6.01488 1.07227 6.12148 1.07227 6.22916C1.07227 6.33684 1.09367 6.44344 1.13522 6.54277C1.17678 6.64211 1.23767 6.73219 1.31434 6.80779C1.39102 6.88339 1.48195 6.943 1.58187 6.98314C1.68178 7.02329 1.78867 7.04318 1.89634 7.04166H10.0213C10.129 7.04318 10.2359 7.02329 10.3358 6.98314C10.4357 6.943 10.5267 6.88339 10.6033 6.80779C10.68 6.73219 10.7409 6.64211 10.7825 6.54277C10.824 6.44344 10.8454 6.33684 10.8454 6.22916C10.8454 6.12148 10.824 6.01488 10.7825 5.91555C10.7409 5.81621 10.68 5.72613 10.6033 5.65053C10.5267 5.57493 10.4357 5.51533 10.3358 5.47518C10.2359 5.43503 10.129 5.41514 10.0213 5.41666H1.89634ZM13.2713 5.41666C13.1637 5.41514 13.0568 5.43503 12.9569 5.47518C12.857 5.51533 12.766 5.57493 12.6893 5.65053C12.6127 5.72613 12.5518 5.81621 12.5102 5.91555C12.4687 6.01488 12.4473 6.12148 12.4473 6.22916C12.4473 6.33684 12.4687 6.44344 12.5102 6.54277C12.5518 6.64211 12.6127 6.73219 12.6893 6.80779C12.766 6.88339 12.857 6.943 12.9569 6.98314C13.0568 7.02329 13.1637 7.04318 13.2713 7.04166H14.8963C15.3549 7.04166 15.7088 7.39564 15.7088 7.85416V17.875H9.63413C9.27696 16.63 8.12536 15.7083 6.77134 15.7083C5.41731 15.7083 4.26572 16.63 3.90854 17.875H3.52134C3.06282 17.875 2.70884 17.521 2.70884 17.0625V15.9792C2.7104 15.8704 2.69011 15.7625 2.64918 15.6617C2.60825 15.5609 2.54751 15.4694 2.47055 15.3926C2.3936 15.3157 2.302 15.2551 2.20118 15.2143C2.10037 15.1735 1.99239 15.1533 1.88364 15.155C1.66834 15.1584 1.46317 15.2471 1.31321 15.4016C1.16325 15.5561 1.08075 15.7639 1.08384 15.9792V17.0625C1.08384 18.3991 2.18477 19.5 3.52134 19.5H3.90854C4.26572 20.745 5.41731 21.6667 6.77134 21.6667C8.12536 21.6667 9.27696 20.745 9.63413 19.5H16.3669C16.724 20.745 17.8756 21.6667 19.2297 21.6667C20.5837 21.6667 21.7353 20.745 22.0925 19.5H22.4797C23.8162 19.5 24.9172 18.3991 24.9172 17.0625V13.6157C24.9172 13.2737 24.845 12.9378 24.7077 12.6276C24.7073 12.6272 24.707 12.6269 24.7066 12.6265L23.1091 9.03165V9.03059C22.719 8.15226 21.8431 7.58333 20.8822 7.58333H17.3063C17.1682 6.37358 16.1403 5.41666 14.8963 5.41666H13.2713ZM1.89634 8.66666C1.78867 8.66514 1.68178 8.68503 1.58187 8.72518C1.48195 8.76533 1.39102 8.82493 1.31434 8.90053C1.23767 8.97613 1.17678 9.06621 1.13522 9.16555C1.09367 9.26488 1.07227 9.37148 1.07227 9.47916C1.07227 9.58684 1.09367 9.69344 1.13522 9.79278C1.17678 9.89211 1.23767 9.98219 1.31434 10.0578C1.39102 10.1334 1.48195 10.193 1.58187 10.2331C1.68178 10.2733 1.78867 10.2932 1.89634 10.2917H7.85467C7.96234 10.2932 8.06923 10.2733 8.16914 10.2331C8.26905 10.193 8.35999 10.1334 8.43667 10.0578C8.51334 9.98219 8.57423 9.89211 8.61578 9.79278C8.65734 9.69344 8.67874 9.58684 8.67874 9.47916C8.67874 9.37148 8.65734 9.26488 8.61578 9.16555C8.57423 9.06621 8.51334 8.97613 8.43667 8.90053C8.35999 8.82493 8.26905 8.76533 8.16914 8.72518C8.06923 8.68503 7.96234 8.66514 7.85467 8.66666H1.89634ZM17.3338 9.20833H20.8822C21.2058 9.20833 21.4927 9.39524 21.6238 9.69075L22.613 11.9167H17.3338V9.20833ZM1.89634 11.9167C1.78867 11.9151 1.68178 11.935 1.58187 11.9752C1.48195 12.0153 1.39102 12.0749 1.31434 12.1505C1.23767 12.2261 1.17678 12.3162 1.13522 12.4155C1.09367 12.5149 1.07227 12.6215 1.07227 12.7292C1.07227 12.8368 1.09367 12.9434 1.13522 13.0428C1.17678 13.1421 1.23767 13.2322 1.31434 13.3078C1.39102 13.3834 1.48195 13.443 1.58187 13.4831C1.68178 13.5233 1.78867 13.5432 1.89634 13.5417H5.688C5.79567 13.5432 5.90257 13.5233 6.00248 13.4831C6.10239 13.443 6.19332 13.3834 6.27 13.3078C6.34667 13.2322 6.40756 13.1421 6.44912 13.0428C6.49067 12.9434 6.51208 12.8368 6.51208 12.7292C6.51208 12.6215 6.49067 12.5149 6.44912 12.4155C6.40756 12.3162 6.34667 12.2261 6.27 12.1505C6.19332 12.0749 6.10239 12.0153 6.00248 11.9752C5.90257 11.935 5.79567 11.9151 5.688 11.9167H1.89634ZM17.3338 13.5417H23.2848C23.2871 13.5663 23.2922 13.5911 23.2922 13.6157V17.0625C23.2922 17.521 22.9382 17.875 22.4797 17.875H22.0925C21.7353 16.63 20.5837 15.7083 19.2297 15.7083C18.5114 15.7083 17.8504 15.9679 17.3338 16.397V13.5417ZM6.77134 17.3333C7.50191 17.3333 8.07918 17.8928 8.1181 18.6124C8.11346 18.6624 8.11346 18.7126 8.1181 18.7626C8.07918 19.4822 7.50191 20.0417 6.77134 20.0417C6.04077 20.0417 5.46349 19.4822 5.42458 18.7626C5.42922 18.7126 5.42922 18.6624 5.42458 18.6124C5.46349 17.8928 6.04077 17.3333 6.77134 17.3333ZM19.2297 17.3333C19.9861 17.3333 20.5838 17.9311 20.5838 18.6875C20.5838 19.4439 19.9861 20.0417 19.2297 20.0417C18.4733 20.0417 17.8755 19.4439 17.8755 18.6875C17.8755 17.9311 18.4733 17.3333 19.2297 17.3333Z" fill="#25344F"/>
</svg>
