<svg width="48" height="48" viewBox="0 0 48 48" fill="none" xmlns="http://www.w3.org/2000/svg">
<path d="M39.8695 27.4192C39.3947 28.2044 38.8041 28.979 38.0982 29.6965C37.6024 30.1923 37.0779 30.6362 36.5308 31.0108C36.4317 31.087 36.3904 31.1973 36.407 31.3071C36.6137 32.3771 36.2289 33.5443 35.4049 34.5636C35.2531 34.7384 35.4831 34.9918 35.6753 34.8456C36.1351 34.5122 36.5723 34.1326 36.9982 33.7067C38.8941 31.7991 39.9474 29.4807 40.0141 27.4586C40.0145 27.3776 39.9047 27.3493 39.8695 27.4192Z" fill="#AB3541"/>
<path d="M40.9063 16.9739C40.0792 16.8117 39.5773 17.3482 39.513 17.4239C39.3203 17.6396 39.0693 17.9253 38.7947 18.2458C38.3158 18.8052 37.7435 19.458 37.2006 20.047C36.8213 20.4493 36.6564 20.8328 36.4502 21.3034C36.3973 21.4139 36.3503 21.53 36.2973 21.652C35.6027 23.1977 34.6253 24.6237 33.4525 25.8195C32.6298 26.6536 31.8722 27.3192 31.1444 27.8399C30.0965 28.5888 29.3343 29.0749 27.3307 29.8132C26.9358 29.9551 26.5352 30.1027 26.1403 30.2446C25.1763 30.5875 24.2182 30.9359 23.2887 31.3248C23.0099 31.4196 22.7427 31.5257 22.4639 31.6435C21.2436 32.1735 20.0575 32.8307 18.9323 33.8523C18.1511 34.5529 17.6008 35.3793 17.3836 35.7921C16.5327 37.3331 15.9944 38.9067 15.8448 40.3905C15.8388 40.4194 15.8386 40.4542 15.8324 40.4948C15.8198 40.6687 16.0335 40.7424 16.1215 40.597C16.912 39.3808 17.9539 38.661 19.0025 38.6361C19.0083 38.6419 19.0315 38.6418 19.0604 38.6358C19.2052 38.629 19.3218 38.5238 19.3403 38.3789C19.5229 37.138 19.9376 35.8376 20.607 34.5585C21.0593 33.6808 22.1387 32.5668 22.982 32.0801C23.6917 31.6695 24.2495 31.4107 24.778 31.2159C25.7879 30.9306 26.9132 30.691 27.731 30.5403C28.0848 30.4741 28.4849 30.4075 28.9082 30.3408C30.3986 30.0927 32.2194 29.7901 33.4325 29.4513C34.9588 29.0291 35.5341 28.776 36.9238 28.0074C37.9357 27.4442 38.8388 26.6905 39.6957 25.9255C40.419 25.2253 41.7333 23.6696 41.9361 22.8571C42.3059 21.3369 42.226 20.3587 42.1081 19.0157C42.0922 18.8132 42.0706 18.6048 42.0547 18.3906C42.0061 17.8869 41.7335 17.1359 40.9063 16.9739Z" fill="#AB3541"/>
<path d="M27.8031 26.7866C28.7315 25.7548 29.8824 25.1674 31.0752 25.2284C31.1853 25.2334 31.2841 25.169 31.3428 25.0759C31.824 24.1921 32.4673 23.3188 33.2608 22.5253C33.6341 22.152 34.0189 21.8016 34.4265 21.4975C34.5022 21.4449 34.4508 21.3353 34.3638 21.3533C32.6584 21.6897 30.8326 22.6874 29.2809 24.2391C28.5517 24.9683 27.9437 25.7489 27.4862 26.5515C27.3572 26.7609 27.6339 26.9674 27.8031 26.7866Z" fill="#AB3541"/>
<path d="M7.85705 20.3079C8.33188 19.5227 8.92244 18.7481 9.62837 18.0305C10.1242 17.5347 10.6487 17.0908 11.1957 16.7162C11.2948 16.6401 11.3361 16.5298 11.3196 16.42C11.1129 15.3499 11.4977 14.1828 12.3217 13.1634C12.4735 12.9886 12.2435 12.7353 12.0513 12.8815C11.5915 13.2149 11.1543 13.5945 10.7284 14.0204C8.83242 15.928 7.77914 18.2464 7.71249 20.2684C7.71207 20.3495 7.82182 20.3777 7.85705 20.3079Z" fill="#AB3541"/>
<path d="M6.82025 30.7531C7.6474 30.9153 8.14925 30.3788 8.21358 30.3031C8.40623 30.0875 8.65729 29.8018 8.93183 29.4812C9.4108 28.9219 9.98305 28.269 10.526 27.6801C10.9053 27.2778 11.0701 26.8943 11.2763 26.4237C11.3292 26.3132 11.3763 26.1971 11.4293 26.0751C12.1239 24.5294 13.1013 23.1033 14.2741 21.9076C15.0968 21.0735 15.8544 20.4079 16.5822 19.8871C17.6301 19.1382 18.3922 18.6521 20.3958 17.9138C20.7907 17.772 21.1914 17.6243 21.5863 17.4825C22.5502 17.1396 23.5084 16.7911 24.4379 16.4022C24.7167 16.3075 24.9839 16.2013 25.2626 16.0836C26.4829 15.5536 27.6691 14.8964 28.7943 13.8748C29.5754 13.1741 30.1258 12.3478 30.343 11.9349C31.1939 10.3939 31.7322 8.82035 31.8818 7.33658C31.8878 7.30761 31.8879 7.27282 31.8941 7.23225C31.9068 7.05835 31.6931 6.98466 31.6051 7.13001C30.8145 8.34621 29.7727 9.06602 28.7241 9.09092C28.7183 9.08511 28.6951 9.0853 28.6661 9.09127C28.5213 9.09807 28.4048 9.20325 28.3862 9.34815C28.2037 10.5891 27.789 11.8895 27.1196 13.1685C26.6673 14.0462 25.5878 15.1603 24.7445 15.6469C24.0349 16.0576 23.4771 16.3164 22.9486 16.5112C21.9386 16.7965 20.8133 17.0361 19.9956 17.1868C19.6417 17.253 19.2417 17.3196 18.8184 17.3863C17.3279 17.6343 15.5072 17.937 14.294 18.2758C12.7678 18.698 12.1924 18.951 10.8027 19.7197C9.79087 20.2829 8.88778 21.0366 8.03085 21.8015C7.30761 22.5017 5.99326 24.0575 5.79051 24.8699C5.42063 26.3901 5.50053 27.3683 5.61847 28.7114C5.63439 28.9139 5.656 29.1223 5.67183 29.3365C5.72045 29.8401 5.99309 30.5912 6.82025 30.7531Z" fill="#AB3541"/>
<path d="M19.9235 20.9404C18.995 21.9722 17.8442 22.5596 16.6514 22.4987C16.5412 22.4936 16.4425 22.558 16.3837 22.6511C15.9026 23.5349 15.2592 24.4083 14.4658 25.2017C14.0924 25.5751 13.7077 25.9255 13.3 26.2295C13.2244 26.2821 13.2757 26.3918 13.3628 26.3738C15.0681 26.0374 16.894 25.0396 18.4457 23.4879C19.1749 22.7587 19.7828 21.9781 20.2403 21.1756C20.3693 20.9662 20.0926 20.7596 19.9235 20.9404Z" fill="#AB3541"/>
</svg>
