<svg width="30" height="30" viewBox="0 0 30 30" fill="none" xmlns="http://www.w3.org/2000/svg">
<path d="M9.6875 3.125C8.0567 3.125 6.71305 4.196 5.81055 5.57007C4.90804 6.94413 4.375 8.68656 4.375 10.437C4.375 12.8112 5.49881 14.6173 7.12769 15.5359C6.97649 19.4253 6.875 23.05 6.875 23.5938C6.875 25.2934 8.01858 26.875 9.6875 26.875C11.3564 26.875 12.5 25.2934 12.5 23.5938C12.5 23.05 12.3985 19.424 12.2473 15.5359C13.8763 14.6172 15 12.8108 15 10.437C15 8.68656 14.467 6.94413 13.5645 5.57007C12.6619 4.196 11.3183 3.125 9.6875 3.125ZM22.0312 3.13232C21.7885 3.12347 21.542 3.14943 21.3013 3.21289C20.8198 3.33982 20.3645 3.61414 20.0195 4.04663C18.0735 6.48574 16.875 10.3699 16.875 15.6726V16.1816C16.875 17.534 17.6419 18.7752 18.8513 19.3799L19.375 19.6423V24.375C19.375 25.7446 20.5054 26.875 21.875 26.875C23.2409 26.875 24.375 25.7494 24.375 24.3799V5.56885C24.375 4.46216 23.6316 3.57533 22.7368 3.26294C22.5131 3.18484 22.274 3.14118 22.0312 3.13232ZM21.9531 4.99268C22.0077 4.99869 22.0627 5.01324 22.1191 5.03296C22.345 5.11182 22.5 5.24991 22.5 5.56885V24.3799C22.5 24.7366 22.2353 25 21.875 25C21.5183 25 21.25 24.7317 21.25 24.375V19.0625C21.2501 18.8884 21.2017 18.7178 21.1103 18.5697C21.0189 18.4216 20.888 18.3018 20.7324 18.2239L19.6899 17.7026C19.1119 17.4136 18.75 16.8281 18.75 16.1816V15.6726C18.75 10.6566 19.9179 7.17945 21.4844 5.21606C21.6336 5.02901 21.7895 4.97463 21.9531 4.99268ZM9.6875 5C10.4729 5 11.3161 5.56241 11.9971 6.59912C12.678 7.63584 13.125 9.08059 13.125 10.437C13.125 12.5113 12.2174 13.6662 10.9595 14.1455C10.7758 14.2155 10.6188 14.3414 10.5106 14.5055C10.4024 14.6695 10.3485 14.8634 10.3564 15.0598C10.5267 19.2608 10.625 23.2898 10.625 23.5938C10.625 24.4828 10.0898 25 9.6875 25C9.28517 25 8.75 24.4828 8.75 23.5938C8.75 23.2898 8.84829 19.2615 9.01856 15.0586C9.02629 14.8624 8.97225 14.6688 8.86406 14.505C8.75587 14.3411 8.59898 14.2154 8.41553 14.1455C7.1574 13.6661 6.25 12.512 6.25 10.437C6.25 9.08059 6.697 7.63584 7.37793 6.59912C8.05886 5.56241 8.90205 5 9.6875 5Z" fill="#25344F"/>
</svg>
