<svg width="35" height="35" viewBox="0 0 35 35" fill="none" xmlns="http://www.w3.org/2000/svg">
<path d="M16.3815 14.2157C16.3815 13.5897 16.2667 12.9691 16.0427 12.3845L13.6913 6.24552C13.2761 5.16147 13.0632 4.01047 13.0632 2.84963H8.8769C8.8769 4.01051 8.66402 5.16148 8.24881 6.24552L7.492 8.22131M6.5993 10.5519L5.89731 12.3845C5.67342 12.9691 5.55861 13.5897 5.55859 14.2157V16.8424M7.84323 1.09327V2.26905C7.84323 2.42303 7.9044 2.5707 8.01328 2.67958C8.12216 2.78846 8.26983 2.84963 8.42381 2.84963H13.5163C13.6703 2.84963 13.818 2.78846 13.9268 2.67958C14.0357 2.5707 14.0969 2.42303 14.0969 2.26905V1.09327C14.0969 0.939293 14.0357 0.791621 13.9268 0.682742C13.818 0.573863 13.6703 0.512695 13.5163 0.512695H8.42381C8.26983 0.512695 8.12216 0.573863 8.01328 0.682742C7.9044 0.791621 7.84323 0.939293 7.84323 1.09327Z" stroke="#3A3A3A" stroke-miterlimit="10" stroke-linecap="round" stroke-linejoin="round"/>
<path d="M10.8867 22.5379L5.97832 24.6532C5.70164 24.0671 5.5583 23.4269 5.55859 22.7788V16.8424L14.0133 13.1989L16.023 12.3328L16.0429 12.3847C16.2665 12.9692 16.3811 13.5896 16.3813 14.2154V20.1702L14.1158 21.1463L13.0357 21.6118" stroke="#3A3A3A" stroke-miterlimit="10" stroke-linecap="round" stroke-linejoin="round"/>
<path d="M5.97764 24.6531C6.0534 24.8141 6.13887 24.9704 6.23357 25.1211C6.38649 25.3644 6.46762 25.6459 6.46762 25.9333C6.46762 26.2206 6.38649 26.5022 6.23357 26.7455C5.79257 27.4472 5.55861 28.2592 5.55859 29.0879V32.8134C5.55859 33.7378 6.30795 34.487 7.23224 34.487H14.7077C15.6321 34.487 16.3814 33.7377 16.3814 32.8134V29.0879C16.3814 28.2592 16.1474 27.4472 15.7064 26.7455C15.5535 26.5022 15.4724 26.2206 15.4724 25.9333C15.4724 25.6459 15.5535 25.3644 15.7064 25.1211C16.1474 24.4193 16.3814 23.6074 16.3814 22.7786L16.3812 20.1699" stroke="#3A3A3A" stroke-miterlimit="10" stroke-linecap="round" stroke-linejoin="round"/>
<path d="M10.9697 20.5056C11.7027 20.5056 12.2968 19.6308 12.2968 18.5516C12.2968 17.4725 11.7027 16.5977 10.9697 16.5977C10.2368 16.5977 9.64258 17.4725 9.64258 18.5516C9.64258 19.6308 10.2368 20.5056 10.9697 20.5056Z" stroke="#3A3A3A" stroke-miterlimit="10" stroke-linecap="round" stroke-linejoin="round"/>
<path d="M20.9043 1.09352V2.2693C20.9043 2.34554 20.9193 2.42104 20.9485 2.49147C20.9777 2.56191 21.0204 2.62591 21.0743 2.67983C21.1832 2.78871 21.3309 2.84987 21.4849 2.84987H26.5774C26.6536 2.84987 26.7291 2.83486 26.7996 2.80568C26.87 2.7765 26.934 2.73374 26.9879 2.67983C27.0418 2.62591 27.0846 2.56191 27.1138 2.49147C27.1429 2.42104 27.1579 2.34554 27.1579 2.2693V1.09352C27.1579 0.939537 27.0968 0.791865 26.9879 0.682986C26.879 0.574107 26.7314 0.512939 26.5774 0.512939H21.4849C21.4086 0.51293 21.3331 0.527941 21.2627 0.557115C21.1922 0.586288 21.1282 0.629053 21.0743 0.682966C21.0204 0.73688 20.9776 0.800885 20.9485 0.871328C20.9193 0.941771 20.9043 1.01727 20.9043 1.09352Z" stroke="#3A3A3A" stroke-miterlimit="10" stroke-linecap="round" stroke-linejoin="round"/>
<path d="M29.4423 14.2159C29.4423 13.5899 29.3275 12.9693 29.1036 12.3848L26.7522 6.24574C26.3369 5.1617 26.124 4.0107 26.124 2.84985H21.9377C21.9377 4.01073 21.7248 5.1617 21.3095 6.24574L20.5527 8.22153" stroke="#3A3A3A" stroke-miterlimit="10" stroke-linecap="round" stroke-linejoin="round"/>
<path d="M20.5525 8.22144L18.9579 12.3847C18.734 12.9692 18.6192 13.5898 18.6191 14.2158V16.8425" stroke="#3A3A3A" stroke-miterlimit="10" stroke-linecap="round" stroke-linejoin="round"/>
<path d="M18.6191 31.4765V32.8136C18.6191 33.738 19.3685 34.4873 20.2928 34.4873H27.7683C28.6926 34.4873 29.4419 33.7379 29.4419 32.8136V29.0882C29.4419 28.2594 29.2079 27.4474 28.7669 26.7457C28.614 26.5024 28.5329 26.2209 28.5329 25.9335C28.5329 25.6462 28.614 25.3646 28.7669 25.1213C29.2079 24.4196 29.4419 23.6076 29.4419 22.7789L29.4417 20.1702M19.0382 24.6533C19.1139 24.8143 19.1994 24.9706 19.2941 25.1212C19.447 25.3646 19.5282 25.6461 19.5282 25.9335C19.5282 26.2208 19.447 26.5024 19.2941 26.7457C18.8531 27.4474 18.6192 28.2593 18.6191 29.0881M29.4418 14.2154V20.1701L27.1763 21.1463L19.0389 24.6531C18.7622 24.067 18.6188 23.4269 18.6191 22.7787V16.8424L27.0738 13.1989L29.0836 12.3328L29.1034 12.3847C29.327 12.9692 29.4416 13.5896 29.4418 14.2154Z" stroke="#3A3A3A" stroke-miterlimit="10" stroke-linecap="round" stroke-linejoin="round"/>
<path d="M24.0303 20.5056C24.7632 20.5056 25.3574 19.6308 25.3574 18.5516C25.3574 17.4725 24.7632 16.5977 24.0303 16.5977C23.2973 16.5977 22.7031 17.4725 22.7031 18.5516C22.7031 19.6308 23.2973 20.5056 24.0303 20.5056Z" stroke="#3A3A3A" stroke-miterlimit="10" stroke-linecap="round" stroke-linejoin="round"/>
</svg>
