<svg width="95" height="23" viewBox="0 0 95 23" fill="none" xmlns="http://www.w3.org/2000/svg">
<path d="M26.8541 14.0507C27.2034 14.0507 27.5627 14.2103 27.9319 14.5397C28.7303 15.2382 29.6584 15.5875 30.7162 15.5875C31.7241 15.5875 32.6322 15.2682 33.4406 14.6295C34.2489 13.9908 34.7878 13.1825 35.0473 12.2145H30.2871C29.9977 12.2145 29.7382 12.1047 29.4887 11.8951C29.2392 11.6856 29.1195 11.4161 29.1195 11.0968C29.1195 10.7774 29.2292 10.498 29.4588 10.2884C29.6783 10.0689 29.9577 9.95911 30.297 9.95911H35.0971C34.8477 8.95119 34.3188 8.1229 33.5104 7.46426C32.7021 6.8156 31.774 6.48628 30.7262 6.48628C29.7781 6.48628 28.9199 6.7657 28.1515 7.32455C27.8621 7.56405 27.5826 7.68381 27.3132 7.68381C27.0038 7.68381 26.7244 7.56405 26.4949 7.32455C26.2554 7.08504 26.1356 6.8156 26.1356 6.51621C26.1356 6.17691 26.2554 5.91745 26.4949 5.71786C27.6226 4.71992 29.0496 4.22095 30.7461 4.22095C32.6522 4.22095 34.2589 4.87959 35.5762 6.19687C36.1949 6.80562 36.6739 7.53412 37.0032 8.39235C37.3325 9.2406 37.5022 10.1288 37.5022 11.0469C37.5022 13.0028 36.8535 14.6195 35.5662 15.9168C34.2589 17.2241 32.6522 17.8728 30.7561 17.8728C29.858 17.8728 28.9997 17.7031 28.1615 17.3638C27.3232 17.0245 26.6047 16.5356 25.976 15.8969C25.8163 15.7372 25.7365 15.5177 25.7365 15.2482C25.7365 14.9388 25.8562 14.6594 26.0957 14.4299C26.3053 14.1704 26.5647 14.0507 26.8541 14.0507ZM51.184 4.7798C51.3836 4.43052 51.673 4.24091 52.0622 4.20099C52.4214 4.20099 52.7208 4.31076 52.9703 4.52033C53.2098 4.7299 53.3295 4.99934 53.3295 5.31868V16.815C53.3295 17.1243 53.2198 17.3738 53.0002 17.5535C52.7807 17.7331 52.5013 17.8229 52.1719 17.8229C51.8526 17.8229 51.5831 17.7331 51.3736 17.5634C51.164 17.3938 51.0542 17.1443 51.0343 16.8349V9.31045L47.6014 14.6694C47.5415 14.7892 47.4118 14.9388 47.2221 15.0885C47.0325 15.2482 46.803 15.3181 46.5435 15.3181C46.1444 15.3181 45.8051 15.1085 45.5356 14.6993L42.0827 9.31045V16.8449C42.0728 17.1443 41.953 17.3838 41.7335 17.5535C41.5139 17.7231 41.2544 17.8129 40.9451 17.8129C40.6357 17.8129 40.3663 17.7231 40.1467 17.5335C39.9272 17.3439 39.8074 17.1144 39.8074 16.825V5.34862C39.8074 5.03926 39.9072 4.76982 40.1168 4.54029C40.3264 4.31076 40.5958 4.19101 40.9251 4.19101C41.3642 4.19101 41.7135 4.41056 41.9929 4.83967L46.5435 12.2145L51.184 4.7798ZM65.8737 4.2908C66.1731 4.2908 66.4126 4.3906 66.6022 4.59019C66.7918 4.78977 66.8816 5.03926 66.8816 5.33864V16.8649C66.8816 17.1044 66.7718 17.3239 66.5623 17.5135C66.3527 17.7131 66.0733 17.8129 65.724 17.8129C65.3747 17.8129 65.0953 17.7131 64.8957 17.5235C64.6861 17.3339 64.5863 17.1144 64.5863 16.8649V6.60603H58.8981V16.8649C58.8981 17.1243 58.7883 17.3539 58.5787 17.5335C58.3692 17.7231 58.0897 17.8129 57.7404 17.8129C57.4211 17.8129 57.1417 17.7231 56.9221 17.5535C56.7026 17.3838 56.5828 17.1543 56.5828 16.8649V5.33864C56.5828 5.0692 56.6926 4.81971 56.9122 4.61014C57.1317 4.40058 57.3712 4.2908 57.6506 4.2908H65.8737ZM80.3538 4.66004C80.5634 4.84965 80.6732 5.10912 80.6732 5.44842V16.5854C80.6732 16.9048 80.5634 17.1842 80.3438 17.3938C80.1243 17.6133 79.8548 17.7231 79.5355 17.7231C79.1962 17.7231 78.9268 17.6133 78.7172 17.4038C78.5076 17.1942 78.3978 16.9148 78.3978 16.5854V8.82146L72.2505 17.274C72.0909 17.4936 71.8713 17.6433 71.6019 17.7031C71.3324 17.763 71.073 17.7331 70.8235 17.6133C70.6139 17.5135 70.4343 17.3638 70.3045 17.1543C70.1648 16.9447 70.095 16.7351 70.095 16.5056V5.27877C70.095 4.9694 70.1948 4.7299 70.4043 4.55027C70.6139 4.38062 70.9033 4.2908 71.2725 4.2908C71.5919 4.2908 71.8613 4.38062 72.0609 4.56025C72.2705 4.73988 72.3703 4.97938 72.3703 5.27877V13.1725L78.4877 4.78977C78.6873 4.49039 78.9767 4.33072 79.3559 4.30078C79.7551 4.28082 80.0844 4.40058 80.3538 4.66004ZM89.8842 15.5775C90.912 15.5775 91.8401 15.2282 92.6684 14.5297C92.9878 14.2103 93.347 14.0407 93.7362 14.0407C94.0256 14.0407 94.2851 14.1604 94.5346 14.39C94.7841 14.6195 94.9038 14.8889 94.9038 15.1983C94.9038 15.4678 94.814 15.6973 94.6443 15.8669C93.3271 17.1842 91.7304 17.8429 89.8642 17.8429C87.9981 17.8429 86.4013 17.1842 85.0841 15.8669C83.7768 14.5896 83.1281 12.9729 83.1281 11.0169C83.1281 10.1088 83.2977 9.23062 83.6271 8.38237C83.9664 7.53412 84.4454 6.80562 85.0641 6.17691C86.3914 4.84965 87.9981 4.18103 89.8642 4.18103C91.5807 4.18103 92.9977 4.68 94.0955 5.67794C94.345 5.89749 94.4647 6.17691 94.4647 6.51621C94.4647 6.80562 94.3549 7.06508 94.1354 7.30459C93.9158 7.54409 93.6564 7.66385 93.357 7.66385C93.0876 7.66385 92.7782 7.55407 92.4389 7.34451C91.5208 6.75572 90.6626 6.46632 89.8642 6.46632C88.6367 6.46632 87.5789 6.91539 86.7107 7.81354C85.8425 8.71169 85.4034 9.76951 85.4034 11.007C85.4034 12.2544 85.8425 13.3222 86.7107 14.2303C87.6089 15.1285 88.6567 15.5775 89.8842 15.5775Z" fill="white"/>
<path d="M9.78015 12.6739L22.7534 0L15.3686 22.2541L9.78015 12.6739Z" fill="#872C35"/>
<path d="M9.87963 12.7737L22.7531 0.0998535L0 6.88586L9.87963 12.7737Z" fill="#D04250"/>
<path d="M2.99335 19.4597L8.58182 13.8712L11.2763 18.5615L2.99335 19.4597Z" fill="#872C35"/>
<path d="M3.09393 19.4599L8.58261 13.9712L3.99208 11.0771L3.09393 19.4599Z" fill="#D04250"/>
</svg>
