<svg width="100" height="100" viewBox="0 0 100 100" fill="none" xmlns="http://www.w3.org/2000/svg">
<path d="M49.5799 9.38107C32.9839 9.50825 21.8117 15.2581 15.1134 23.3581C8.41498 31.4581 6.19434 41.5677 6.25105 50.2929C6.30939 58.9065 8.57919 68.8435 15.2476 76.8066C21.9161 84.7697 32.9661 90.4297 49.3602 90.6189C66.1718 90.8144 77.5819 85.1935 84.4798 77.1118C91.3777 69.03 93.7511 58.8292 93.7511 50C93.7511 41.1836 91.3904 31.0116 84.5286 22.9431C77.6669 14.8746 66.3213 9.25232 49.5799 9.38107ZM49.6226 15.625C64.9813 15.5068 74.1422 20.3808 79.7679 26.9958C85.3936 33.6109 87.5011 42.3101 87.5011 50C87.5011 57.6957 85.382 66.4253 79.7252 73.0529C74.0684 79.6806 64.8593 84.5483 49.4334 84.3689C34.4056 84.1955 25.4986 79.3163 20.0389 72.7966C14.5792 66.2769 12.5521 57.7867 12.5011 50.2502C12.4515 42.6286 14.4407 33.9744 19.929 27.3376C25.4174 20.7009 34.4093 15.7415 49.6226 15.625ZM40.5894 41.0644C40.0287 41.0753 39.4812 41.2369 39.0044 41.5322C38.5276 41.8275 38.139 42.2457 37.8795 42.7429C36.6629 44.9899 35.4701 45.6536 34.2235 45.874C32.9769 46.0944 31.3886 45.7232 29.8045 44.7143C29.4583 44.4938 29.0719 44.3436 28.6676 44.2724C28.2633 44.2011 27.849 44.2103 27.4482 44.2992C27.0474 44.3882 26.6681 44.5552 26.3318 44.7908C25.9956 45.0263 25.7091 45.3258 25.4886 45.6721C25.2682 46.0185 25.1181 46.4048 25.047 46.8091C24.9759 47.2135 24.9851 47.6278 25.0742 48.0286C25.1632 48.4293 25.3303 48.8086 25.566 49.1448C25.8016 49.481 26.1012 49.7674 26.4476 49.9878C29.0292 51.632 32.1292 52.5887 35.3099 52.0263C38.4906 51.4639 41.4642 49.2402 43.3726 45.7153C43.6411 45.2355 43.7782 44.6934 43.7702 44.1437C43.7622 43.594 43.6093 43.0561 43.327 42.5844C43.0447 42.1126 42.643 41.7237 42.1623 41.4568C41.6817 41.19 41.1391 41.0546 40.5894 41.0644ZM59.3211 41.0644C58.7792 41.0707 58.2482 41.2177 57.7803 41.4911C57.3123 41.7646 56.9235 42.155 56.6521 42.6241C56.3806 43.0931 56.2358 43.6247 56.2318 44.1667C56.2278 44.7086 56.3649 45.2423 56.6295 45.7153C58.5379 49.2402 61.5115 51.4639 64.6922 52.0263C67.8729 52.5887 70.9729 51.632 73.5545 49.9878C73.9009 49.7674 74.2005 49.481 74.4362 49.1448C74.6719 48.8086 74.839 48.4294 74.9281 48.0286C75.0171 47.6278 75.0264 47.2134 74.9553 46.8091C74.8841 46.4047 74.7341 46.0184 74.5136 45.6721C74.2931 45.3257 74.0066 45.0262 73.6704 44.7906C73.3341 44.5551 72.9548 44.388 72.554 44.2991C72.1532 44.2102 71.7388 44.2011 71.3345 44.2723C70.9302 44.3436 70.5438 44.4938 70.1976 44.7143C68.6136 45.7232 67.0253 46.0944 65.7786 45.874C64.532 45.6536 63.3392 44.9899 62.1226 42.7429C61.8558 42.232 61.453 41.8048 60.9586 41.5086C60.4641 41.2124 59.8975 41.0587 59.3211 41.0644ZM50.0011 59.375C42.3139 59.375 35.6481 63.8421 31.8065 70.2758C31.5965 70.6285 31.458 71.0191 31.3989 71.4253C31.3399 71.8315 31.3614 72.2453 31.4623 72.6432C31.5632 73.0411 31.7414 73.4152 31.9869 73.7441C32.2324 74.0731 32.5402 74.3505 32.8929 74.5605C33.2456 74.7705 33.6361 74.909 34.0423 74.968C34.4485 75.0271 34.8624 75.0056 35.2602 74.9047C35.6581 74.8038 36.0322 74.6255 36.3612 74.3801C36.6902 74.1346 36.9676 73.8268 37.1776 73.4741C40.0609 68.6453 44.7195 65.625 50.0011 65.625C55.2826 65.625 59.9412 68.6453 62.8245 73.4741C63.0345 73.8268 63.3119 74.1346 63.6409 74.3801C63.9699 74.6255 64.344 74.8038 64.7419 74.9047C65.1397 75.0056 65.5536 75.0271 65.9598 74.968C66.366 74.909 66.7565 74.7705 67.1092 74.5605C67.4619 74.3505 67.7697 74.0731 68.0152 73.7441C68.2607 73.4152 68.4389 73.0411 68.5398 72.6432C68.6407 72.2453 68.6622 71.8315 68.6032 71.4253C68.5441 71.0191 68.4056 70.6285 68.1956 70.2758C64.354 63.8421 57.6882 59.375 50.0011 59.375Z" fill="#FF4747"/>
</svg>
