<svg width="22" height="20" viewBox="0 0 22 20" fill="none" xmlns="http://www.w3.org/2000/svg">
<path d="M6.12435 0.791656C2.84317 0.791656 0.166016 3.46881 0.166016 6.74999C0.166016 8.96874 1.83849 11.0578 3.87728 13.2003C5.91607 15.3427 8.42555 17.5126 10.4249 19.512C10.5773 19.6643 10.7839 19.7498 10.9993 19.7498C11.2148 19.7498 11.4214 19.6643 11.5738 19.512C13.5731 17.5126 16.0826 15.3427 18.1214 13.2003C20.1602 11.0578 21.8327 8.96874 21.8327 6.74999C21.8327 3.46881 19.1555 0.791656 15.8743 0.791656C13.9913 0.791656 12.3518 1.80267 10.9993 3.52009C9.6469 1.80267 8.00742 0.791656 6.12435 0.791656ZM6.12435 2.41666C7.71066 2.41666 9.03109 3.26079 10.3127 5.28791C10.386 5.4037 10.4874 5.49908 10.6075 5.56517C10.7275 5.63125 10.8623 5.66591 10.9993 5.66591C11.1364 5.66591 11.2712 5.63125 11.3912 5.56517C11.5113 5.49908 11.6127 5.4037 11.686 5.28791C12.9676 3.26079 14.288 2.41666 15.8743 2.41666C18.2774 2.41666 20.2077 4.34692 20.2077 6.74999C20.2077 8.05207 18.901 10.0255 16.945 12.081C15.1613 13.9554 12.9441 15.9136 10.9993 17.8097C9.0546 15.9136 6.8374 13.9554 5.05371 12.081C3.09771 10.0255 1.79102 8.05207 1.79102 6.74999C1.79102 4.34692 3.72128 2.41666 6.12435 2.41666Z" fill="#303640"/>
</svg>
