<svg width="317" height="90" viewBox="0 0 317 90" fill="none" xmlns="http://www.w3.org/2000/svg">
<path opacity="0.1" fill-rule="evenodd" clip-rule="evenodd" d="M315.502 90C311.743 90 297.074 80.6464 278.734 66.5518C255.267 48.5183 245.279 43.2884 232.233 42.2036C220.263 41.2072 213.012 43.3554 188.927 55.03C165.8 66.2398 156.206 68.5286 145.413 65.4094C141.451 64.2643 135.723 61.5108 132.684 59.2902C120.699 50.5326 115.983 38.9934 111.847 8.31304C110.408 -2.37311 107.992 -15.5316 106.482 -20.9276C98.4941 -49.4597 82.1102 -71.1681 60.3828 -82.0109C51.5539 -86.4172 45.7854 -87.7137 21.8667 -90.6628C15.7649 -91.4154 9.28927 -92.9958 7.4771 -94.1743C-0.094155 -99.0975 -2.3368 -113.234 2.70305 -124.261C7.70513 -135.206 7.16945 -135 30.6146 -135C48.1333 -135 51.3461 -134.694 50.7254 -133.086C45.2551 -118.94 51.809 -108.849 68.6935 -105.412C96.7953 -99.6949 103.623 -96.5382 117.44 -82.8748C125.468 -74.9369 128.914 -70.24 133.24 -61.3391C140.689 -46.011 142.852 -36.2704 144.158 -12.1753C145.139 5.94518 145.661 9.00679 148.885 15.5465C154.057 26.0385 159.469 29.0961 172.618 28.9514C183.949 28.8282 191.132 26.2032 206.479 16.5845C222.75 6.38446 230.103 3.69786 241.583 3.75679C250.545 3.80232 253.17 4.43045 262.236 8.7041C267.948 11.3974 279.252 18.1594 287.355 23.7335C295.456 29.3063 305.441 35.3907 309.543 37.255L317 40.6434L317 65.321C317 82.5121 316.545 90 315.502 90ZM313.44 -3.08161C303.567 3.33892 292.309 -0.184729 275.421 -14.9785C263.158 -25.7209 255.607 -29.3704 243.862 -30.2262C230.857 -31.1758 223.194 -28.2722 207.363 -16.3994C191.546 -4.53607 185.73 -2.50838 177.007 -5.81374C165.347 -10.2347 159.511 -24.8034 160.913 -45.9909C163.15 -79.7944 149.917 -101.515 122.036 -109.804C102.562 -115.594 95.705 -121.091 95.705 -130.915L95.705 -135L110.458 -135C124.051 -135 125.276 -134.788 126.07 -132.306C127.196 -128.785 133.205 -125.785 141.223 -124.742C153.096 -123.197 159.455 -118.482 171.026 -102.651C179.159 -91.5226 183.637 -88.7944 193.772 -88.7944C200.114 -88.7944 203.017 -89.4641 205.917 -91.5962C211.74 -95.8793 215.798 -102.652 215.793 -108.077C215.785 -116.698 210.788 -122.35 194.883 -131.732L189.485 -134.917L208.433 -134.958L227.38 -135L231.155 -127.299C241.259 -106.689 266.091 -75.1753 298.592 -41.7226L317 -22.7758L317 -14.0865C317 -6.17401 316.682 -5.18964 313.44 -3.08161ZM312.767 -54.0574C305.883 -60.4552 293.734 -77.373 287.545 -89.1815C282.058 -99.6467 272.501 -123.42 270.605 -131.317L269.721 -135L283.817 -135L297.911 -135L302.165 -127.619C304.506 -123.56 308.801 -117.249 311.711 -113.595L317 -106.954L317 -78.5382L317 -50.124L312.767 -54.0574ZM252.966 -52.5735C248.77 -48.407 242.59 -48.2838 231.098 -52.1369C220.063 -55.836 216.502 -54.482 208.127 -43.4021C196.516 -28.0432 191.276 -25.9539 182.828 -33.3159C176.75 -38.6128 175.517 -44.5204 178.712 -53.0262C181.659 -60.8717 192.876 -72.0534 200.28 -74.5257C203.249 -75.5168 209.217 -78.115 213.543 -80.3007C223.62 -85.3913 227.035 -84.6922 237.102 -75.4752C241.341 -71.5927 246.934 -67.3431 249.532 -66.0306C257.333 -62.0891 258.388 -57.9534 252.966 -52.5735Z" fill="white"/>
</svg>
