<svg width="317" height="116" viewBox="0 0 317 116" fill="none" xmlns="http://www.w3.org/2000/svg">
<path opacity="0.1" fill-rule="evenodd" clip-rule="evenodd" d="M1.49779 -6.54705e-08C5.25711 -2.29795e-07 19.926 9.35356 38.2665 23.4482C61.7332 41.4817 71.7212 46.7116 84.7668 47.7964C96.737 48.7928 103.988 46.6446 128.073 34.97C151.2 23.7602 160.794 21.4714 171.587 24.5906C175.549 25.7357 181.277 28.4892 184.316 30.7098C196.301 39.4674 201.017 51.0066 205.153 81.687C206.592 92.3731 209.008 105.532 210.518 110.928C218.506 139.46 234.89 161.168 256.617 172.011C265.446 176.417 271.215 177.714 295.133 180.663C301.235 181.415 307.711 182.996 309.523 184.174C317.094 189.098 319.337 203.234 314.297 214.261C309.295 225.206 309.831 225 286.385 225C268.867 225 265.654 224.694 266.275 223.086C271.745 208.94 265.191 198.849 248.306 195.412C220.205 189.695 213.377 186.538 199.56 172.875C191.532 164.937 188.086 160.24 183.76 151.339C176.311 136.011 174.148 126.27 172.842 102.175C171.861 84.0548 171.339 80.9932 168.115 74.4535C162.943 63.9615 157.531 60.9039 144.382 61.0486C133.051 61.1718 125.868 63.7968 110.521 73.4155C94.2501 83.6155 86.8974 86.3021 75.4171 86.2432C66.4546 86.1977 63.8301 85.5696 54.7638 81.2959C49.0519 78.6026 37.7483 71.8406 29.6454 66.2665C21.5439 60.6937 11.5586 54.6093 7.45657 52.745L2.15745e-06 49.3566L1.07875e-06 24.679C3.27308e-07 7.48794 0.454735 -1.98771e-08 1.49779 -6.54705e-08ZM3.55962 93.0816C13.4329 86.6611 24.6906 90.1847 41.5792 104.978C53.8422 115.721 61.3932 119.37 73.138 120.226C86.1431 121.176 93.8062 118.272 109.637 106.399C125.454 94.5361 131.27 92.5084 139.993 95.8137C151.653 100.235 157.489 114.803 156.087 135.991C153.85 169.794 167.083 191.515 194.964 199.804C214.438 205.594 221.295 211.091 221.295 220.915L221.295 225L206.542 225C192.949 225 191.724 224.788 190.93 222.306C189.804 218.785 183.795 215.785 175.777 214.742C163.904 213.197 157.545 208.482 145.974 192.651C137.841 181.523 133.363 178.794 123.228 178.794C116.886 178.794 113.983 179.464 111.083 181.596C105.26 185.879 101.202 192.652 101.207 198.077C101.215 206.698 106.212 212.35 122.117 221.732L127.515 224.917L108.567 224.958L89.6204 225L85.8449 217.299C75.7409 196.689 50.9086 165.175 18.408 131.723L4.92959e-06 112.776L4.54977e-06 104.087C4.2039e-06 96.174 0.318454 95.1896 3.55962 93.0816ZM4.23295 144.057C11.1174 150.455 23.2657 167.373 29.4552 179.181C34.9417 189.647 44.4992 213.42 46.3951 221.317L47.2789 225L33.1835 225L19.0894 225L14.8349 217.619C12.4937 213.56 8.19872 207.249 5.2895 203.595L8.60913e-06 196.954L7.36704e-06 168.538L6.12501e-06 140.124L4.23295 144.057ZM64.0339 142.574C68.2304 138.407 74.4104 138.284 85.9016 142.137C96.9367 145.836 100.498 144.482 108.873 133.402C120.484 118.043 125.724 115.954 134.172 123.316C140.25 128.613 141.483 134.52 138.288 143.026C135.341 150.872 124.124 162.053 116.72 164.526C113.751 165.517 107.783 168.115 103.457 170.301C93.3798 175.391 89.9645 174.692 79.8983 165.475C75.6586 161.593 70.0655 157.343 67.468 156.031C59.6673 152.089 58.6121 147.953 64.0339 142.574Z" fill="white"/>
</svg>
