<svg width="35" height="35" viewBox="0 0 35 35" fill="none" xmlns="http://www.w3.org/2000/svg">
<g clip-path="url(#clip0_403_306)">
<path d="M20.1564 29.849L16.0474 33.2629C13.9405 35.0136 10.8473 34.8714 8.90995 32.9341L7.1415 31.1656C6.68281 30.7069 6.74365 29.9475 7.26933 29.5674L15.7637 23.4328C17.1226 22.4512 18.2292 21.161 18.9923 19.6683C19.7482 18.1909 20.1458 16.5563 20.153 14.8968C20.1537 14.8797 20.1537 14.8633 20.1537 14.8462C20.1366 14.8462 20.1202 14.8462 20.1031 14.8469C16.7214 14.8626 13.5488 16.493 11.5671 19.2362L5.43251 27.7306C5.05244 28.2563 4.29296 28.3171 3.83427 27.8584L2.06581 26.0899C0.354779 24.3789 0.0437442 21.7648 1.20107 19.7264" stroke="#3A3A3A" stroke-width="0.9" stroke-miterlimit="10" stroke-linecap="round" stroke-linejoin="round"/>
<path d="M2.67188 17.8281L11.5381 7.15788C11.8184 6.82018 12.1144 6.49616 12.4247 6.1858C17.3145 1.29606 24.4395 -0.615269 31.1203 1.16959L31.6351 1.30768C32.1287 1.43931 32.5789 1.69887 32.9402 2.06015C33.3015 2.42142 33.561 2.87162 33.6927 3.3653L33.8308 3.88004C34.2667 5.51065 34.4876 7.19128 34.4877 8.87916C34.4877 10.3065 34.3298 11.725 34.0201 13.1072M21.9971 28.3199L27.8425 23.4623C28.1802 23.182 28.5042 22.886 28.8146 22.5756C30.8401 20.5511 32.3909 18.1021 33.355 15.4054" stroke="#3A3A3A" stroke-width="0.9" stroke-miterlimit="10" stroke-linecap="round" stroke-linejoin="round"/>
<path d="M30.0569 4.94252C30.1542 4.23387 30.0862 3.51233 29.8581 2.83436C29.63 2.1564 29.2482 1.54041 28.7424 1.03462L28.3828 0.675049M30.0569 4.94252C30.7656 4.84525 31.4871 4.91331 32.1651 5.14136C32.8431 5.36942 33.4591 5.75129 33.9648 6.25707L34.2868 6.57904M30.0569 4.94252L24.0024 10.997M25.3689 14.1053L31.001 19.7373M20.9853 9.72166L15.2323 3.96867M0.564453 22.3947L1.26001 23.0902C2.39819 24.2284 4.17684 24.4165 5.52796 23.5417C6.321 23.0282 7.36498 23.1387 8.03306 23.8068M12.6047 34.4349L11.9092 33.7394C10.771 32.6012 10.5829 30.8226 11.4577 29.4714C11.9712 28.6784 11.8607 27.6344 11.1926 26.9663M9.0715 10.1656L9.16297 11.2036C9.3919 13.8028 10.5285 16.2384 12.3735 18.0834M17.6841 6.36959L17.6588 6.39557L17.3867 6.66695C16.468 7.58505 15.7718 8.70144 15.3517 9.93043M15.4993 15.8551C15.0453 14.7205 14.8413 13.5013 14.9012 12.2806M19.1443 19.5C22.3087 20.7649 25.9225 20.0227 28.3322 17.613L28.6296 17.3156M10.3212 20.7171C7.93587 20.0843 5.76031 18.8318 4.01523 17.0868L3.69025 16.7618M24.8339 25.9279L23.7958 25.8364C21.1967 25.6075 18.761 24.4709 16.916 22.6259M14.2823 24.6781C14.9151 27.0635 16.1676 29.2391 17.9126 30.9842L18.2376 31.3091M24.467 0.851553L24.5713 1.59264C24.8271 3.41028 25.6675 5.09531 26.9654 6.39324L27.6415 7.06938M34.1478 10.5325L33.4068 10.4282C31.5891 10.1723 29.9041 9.332 28.6062 8.03407L27.93 7.35793M25.2301 13.9664C23.5618 15.6347 20.1109 14.8885 20.1109 14.8885C20.1109 14.8885 19.3647 11.4375 21.033 9.76931C22.7012 8.10106 26.1522 8.84721 26.1522 8.84721C26.1522 8.84721 26.8984 12.2982 25.2301 13.9664Z" stroke="#3A3A3A" stroke-width="0.9" stroke-miterlimit="10" stroke-linecap="round" stroke-linejoin="round"/>
<path d="M23.1321 12.9834C23.7482 12.9834 24.2476 12.484 24.2476 11.8679C24.2476 11.2519 23.7482 10.7524 23.1321 10.7524C22.516 10.7524 22.0166 11.2519 22.0166 11.8679C22.0166 12.484 22.516 12.9834 23.1321 12.9834Z" stroke="#3A3A3A" stroke-width="0.9" stroke-miterlimit="10" stroke-linecap="round" stroke-linejoin="round"/>
<path d="M25.3408 4.29947L23.9172 4.23426C21.644 4.13014 19.4162 4.89354 17.6846 6.36994M30.7007 9.65946L30.766 11.0831C30.8701 13.3563 30.1067 15.5841 28.6303 17.3157" stroke="#3A3A3A" stroke-width="0.9" stroke-miterlimit="10" stroke-linecap="round" stroke-linejoin="round"/>
</g>
<defs>
<clipPath id="clip0_403_306">
<rect width="35" height="35" fill="white"/>
</clipPath>
</defs>
</svg>
