<svg width="180" height="92" viewBox="0 0 180 92" fill="none" xmlns="http://www.w3.org/2000/svg">
<g opacity="0.5">
<path d="M59.9973 17.3565C66.3993 15.7794 73.3351 14.8445 80.5674 14.7855C85.6052 14.7855 90.5254 15.1951 95.2081 16.071C96.0984 16.1879 96.8686 15.8372 97.3425 15.1951C101.729 8.70845 109.614 4.73382 118.979 3.74106C120.638 3.6242 120.757 1.16882 119.038 0.935091C115.008 0.292935 110.858 0.000166763 106.53 0.000167141C87.2057 0.0592051 70.0754 6.48681 59.4634 16.4216C59.0495 16.8312 59.4634 17.5324 59.9973 17.3565Z" fill="#EBEBEB"/>
<path d="M1.66781 65.1601C5.04635 70.1865 10.3217 70.0106 11.0332 69.9528C13.1076 69.8359 15.8346 69.66 18.858 69.4263C24.1334 69.0179 30.3579 68.6082 36.1084 68.3745C40.0796 68.2576 42.8654 67.1468 46.304 65.8035C47.1342 65.5107 47.9632 65.1601 48.8523 64.8095C60.2345 60.4855 72.4457 58.206 84.4794 58.0891C92.897 58.0313 100.128 58.4988 106.471 59.5506C115.6 61.0698 121.942 62.4722 135.873 68.901C138.6 70.1865 141.386 71.472 144.113 72.7576C150.752 75.9129 157.391 79.0105 164.089 81.7574C165.987 82.6923 167.884 83.5104 169.898 84.3285C178.791 87.8356 188.156 90.5233 199.063 91.0492C206.592 91.4583 213.587 90.0561 216.787 89.0621C228.94 85.5561 239.669 80.296 247.968 73.5178C248.146 73.4009 248.323 73.225 248.561 73.0503C249.509 72.2311 248.797 70.7708 247.612 71.0624C237.416 73.225 228.466 71.5889 223.012 66.3878C223.012 66.3287 222.893 66.2119 222.716 66.095C221.945 65.3938 220.819 65.336 219.988 65.9781C212.756 71.3552 204.042 75.8551 194.143 78.9526C187.386 81.114 176.241 81.2899 169.484 79.4779C163.793 77.9587 159.644 76.4394 155.969 74.7443C149.388 71.0624 142.453 66.5625 137.533 63.1734C135.399 61.712 133.028 60.018 130.539 58.206C121.706 51.8941 110.918 44.1809 103.033 39.7388C93.1333 34.1293 88.9245 32.492 77.9586 29.3366C69.9562 27.0571 61.5386 26.2981 53.2986 25.8306C46.0664 25.7138 31.4844 26.9403 26.3266 30.0378C16.7236 35.8823 12.1598 41.2581 5.93536 48.6809C4.98756 49.7905 4.03852 50.9591 3.03071 52.1278C0.718762 54.9338 -1.71195 60.1349 1.66781 65.1601Z" fill="#EBEBEB"/>
<path d="M118.09 81.8745C108.13 82.3998 99.2988 79.5372 93.5483 73.1674C93.0144 72.5819 92.1854 72.4072 91.414 72.5819C84.4793 74.6276 76.7732 75.7963 68.7107 75.7963C64.917 75.7963 61.1822 75.6216 57.5661 75.0951C56.9146 74.9782 56.6183 75.7963 57.1522 76.1469C67.5254 83.1022 81.871 87.3093 97.6383 87.3093C105.048 87.3093 112.103 86.4322 118.505 84.6793C120.224 84.2708 119.868 81.8154 118.09 81.8745Z" fill="#EBEBEB"/>
</g>
</svg>
