<svg width="35" height="35" viewBox="0 0 35 35" fill="none" xmlns="http://www.w3.org/2000/svg">
<path d="M6.45143 22.7455C5.53644 22.7455 4.79412 22.0032 4.79412 21.0882C4.79412 20.7872 4.87492 20.5047 5.01513 20.2616C4.42751 20.0068 4.0166 19.4219 4.0166 18.7404C4.0166 18.0588 4.42744 17.4739 5.01513 17.2191C4.87005 16.9678 4.79382 16.6827 4.79412 16.3925C4.79412 15.6474 5.28645 15.0176 5.96389 14.8091M29.0363 14.8092C29.7137 15.0177 30.206 15.6474 30.206 16.3926C30.206 16.6936 30.1252 16.9761 29.985 17.2192C30.5726 17.474 30.9836 18.0589 30.9836 18.7404C30.9836 19.422 30.5727 20.0069 29.985 20.2617C30.1301 20.513 30.2063 20.7981 30.206 21.0883C30.206 22.0033 29.4637 22.7456 28.5487 22.7456" stroke="#3A3A3A" stroke-miterlimit="10" stroke-linecap="round" stroke-linejoin="round"/>
<path d="M8.80469 9.82252C13.0307 8.00894 17.5 8.11216 17.5 8.11216C17.5 8.11216 24.3906 7.95289 29.1498 11.5014C29.7842 11.9745 29.9899 12.8344 29.6461 13.5467L28.9208 15.0486C28.4683 15.9851 27.4237 16.48 26.4127 16.236C24.2006 15.7007 20.3089 14.8688 17.5 14.8688C14.6911 14.8688 10.7994 15.7007 8.58731 16.236C7.57627 16.48 6.53174 15.9851 6.0792 15.0486L5.35391 13.5467C5.01006 12.8344 5.21582 11.9745 5.8502 11.5014C6.12227 11.2984 6.40186 11.1077 6.68623 10.9286M6.86567 24.8172V26.1983C6.86567 26.5797 6.55648 26.8888 6.17511 26.8888H3.41298C3.0316 26.8888 2.72241 26.5797 2.72241 26.1983V24.8172M10.8562 22.7459H1.06504C0.760156 22.7459 0.512695 22.9926 0.512695 23.2982V24.2648C0.512695 24.5697 0.760156 24.8171 1.06504 24.8171H23.9859M13.2487 22.7459H33.935C34.2398 22.7459 34.4873 22.9926 34.4873 23.2982V24.2648C34.4873 24.5697 34.2398 24.8171 33.935 24.8171H26.3785M28.1343 24.8172V26.1983C28.1343 26.5797 28.4435 26.8888 28.8249 26.8888H31.587C31.9684 26.8888 32.2776 26.5797 32.2776 26.1983V24.8172" stroke="#3A3A3A" stroke-miterlimit="10" stroke-linecap="round" stroke-linejoin="round"/>
<path d="M10.9832 9.04681C10.9832 9.04681 8.3429 12.0105 9.51834 16.017M16.0009 8.16504C16.0009 8.16504 13.1518 10.468 13.847 15.1868M21.3673 8.44668C21.3673 8.44668 18.0254 10.3289 18.0254 14.8686M22.4489 15.3983C22.5676 11.9801 25.1986 10.4285 26.3787 9.90294M13.4936 18.1069L13.0053 18.5952M22.693 18.1069L22.2047 18.5952M17.2563 19.2776L17.7446 19.7659M9.21681 19.7659L8.72852 19.2776M26.1676 19.984H25.4771" stroke="#3A3A3A" stroke-miterlimit="10" stroke-linecap="round" stroke-linejoin="round"/>
</svg>
