<svg width="35" height="35" viewBox="0 0 35 35" fill="none" xmlns="http://www.w3.org/2000/svg">
<g clip-path="url(#clip0_403_313)">
<path d="M24.0391 20.0962C25.0786 19.9575 26.2488 19.9936 27.5537 20.2945C27.5537 20.2945 23.4023 22.6337 22.4034 26.5695C21.4004 30.521 23.5816 34.4862 23.5816 34.4862C23.5816 34.4862 18.0136 32.2654 17.2335 27.2737C17.2335 27.2737 11.6628 26.6308 7.09255 24.4314" stroke="#3A3A3A" stroke-miterlimit="10" stroke-linecap="round" stroke-linejoin="round"/>
<path d="M5.29133 23.4403C4.09455 22.6827 3.05379 21.787 2.324 20.7314C-1.59991 15.0561 1.28448 10.4646 6.86359 6.75806C12.246 3.18224 19.6769 1.96327 24.7599 2.78443C29.5869 3.56423 32.5811 5.93032 33.983 7.33573C34.5908 7.94512 34.6572 8.91203 34.1328 9.59457C32.8154 11.3091 29.8114 14.3944 24.7163 15.3605C18.0378 16.6268 13.4547 14.8801 11.3158 17.0635C8.84968 19.5809 12.0579 22.8711 17.5578 24.4431C17.5578 24.4431 18.9933 21.8222 22.0442 20.6148" stroke="#3A3A3A" stroke-miterlimit="10" stroke-linecap="round" stroke-linejoin="round"/>
<path d="M34.1328 9.59436C34.1328 9.59436 32.312 10.7128 28.7753 11.0552M24.3607 15.425C23.1943 14.1051 22.0037 12.0618 21.8129 9.11771C21.6225 6.17799 22.9101 4.00812 24.0508 2.68641M13.7962 1.33525C15.8251 1.76552 17.359 2.29141 18.4088 2.72388M5.51802 7.71066C7.84733 3.81579 5.42363 0.513672 5.42363 0.513672C7.84315 0.513672 9.95726 0.694905 11.771 0.969014" stroke="#3A3A3A" stroke-miterlimit="10" stroke-linecap="round" stroke-linejoin="round"/>
<path d="M21.8979 9.9611L17.2298 11.6446C16.5544 11.8882 15.8402 11.392 15.8402 10.679V9.18356C15.8402 8.61617 16.3039 8.15617 16.8759 8.15617H21.8034M19.6283 15.8671L15.5153 18.849C15.5153 18.849 15.0744 17.4253 14.0442 15.9539M10.5604 19.5628L15.6681 21.2961L15.1437 23.5821M28.7754 7.23877V7.71055" stroke="#3A3A3A" stroke-miterlimit="10" stroke-linecap="round" stroke-linejoin="round"/>
</g>
<defs>
<clipPath id="clip0_403_313">
<rect width="35" height="35" fill="white" transform="matrix(-1 0 0 1 35 0)"/>
</clipPath>
</defs>
</svg>
