<svg width="54" height="54" viewBox="0 0 54 54" fill="none" xmlns="http://www.w3.org/2000/svg">
<path d="M0 11.25V15.75H15.75V20.25H2.25V24.75H11.25V29.25H2.25V40.5H6.75C6.75 44.2282 9.77175 47.25 13.5 47.25C17.2282 47.25 20.25 44.2282 20.25 40.5H31.5H33.75C33.75 44.2282 36.7717 47.25 40.5 47.25C44.2282 47.25 47.25 44.2282 47.25 40.5H51.75V29.25L45.6196 16.9937C45.2394 16.2309 44.4641 15.75 43.6113 15.75H36C36 13.2638 33.9862 11.25 31.5 11.25H0ZM36 19.6875H42.5654L47.3467 29.25H36V19.6875ZM13.5 37.6875C15.0502 37.6875 16.3125 38.9498 16.3125 40.5C16.3125 42.0502 15.0502 43.3125 13.5 43.3125C11.9497 43.3125 10.6875 42.0502 10.6875 40.5C10.6875 38.9498 11.9497 37.6875 13.5 37.6875ZM40.5 37.6875C42.0502 37.6875 43.3125 38.9498 43.3125 40.5C43.3125 42.0502 42.0502 43.3125 40.5 43.3125C38.9497 43.3125 37.6875 42.0502 37.6875 40.5C37.6875 38.9498 38.9497 37.6875 40.5 37.6875Z" fill="#AB3541"/>
</svg>
