<svg width="60" height="60" viewBox="0 0 60 60" fill="none" xmlns="http://www.w3.org/2000/svg">
<g clip-path="url(#clip0_114_6310)">
<path d="M54.4411 57.1451H6.73789C5.11145 57.1451 3.79297 55.8266 3.79297 54.2002V25.0563C3.79297 23.4298 5.11145 22.1113 6.73789 22.1113H54.4411C56.0675 22.1113 57.386 23.4298 57.386 25.0563V54.2002C57.3861 55.8265 56.0675 57.1451 54.4411 57.1451Z" fill="#F6874D"/>
<path d="M59.1395 33.9988H48.4028C45.2938 33.9988 42.7734 36.5191 42.7734 39.6281C42.7734 42.7371 45.2938 45.2575 48.4028 45.2575H59.1395C59.4225 45.2575 59.6939 45.145 59.894 44.9449C60.0941 44.7448 60.2065 44.4734 60.2065 44.1905V35.0657C60.2065 34.4766 59.7287 33.9988 59.1395 33.9988Z" fill="#F6874D"/>
<path d="M54.4411 22.1113H6.73789C5.11145 22.1113 3.79297 23.4298 3.79297 25.0563V28.2835H57.3861V25.0563C57.3861 23.4298 56.0675 22.1113 54.4411 22.1113Z" fill="#F6874D"/>
<path d="M6.73801 57.1453H54.4412C56.0676 57.1453 57.3861 55.8268 57.3861 54.2004V50.9731H3.79297V54.2004C3.79297 55.8267 5.11156 57.1453 6.73801 57.1453Z" fill="#F6874D"/>
<path d="M46.602 44.2424C48.0456 44.2424 49.2158 43.0722 49.2158 41.6286C49.2158 40.1851 48.0456 39.0149 46.602 39.0149C45.1585 39.0149 43.9883 40.1851 43.9883 41.6286C43.9883 43.0722 45.1585 44.2424 46.602 44.2424Z" fill="white"/>
<path d="M57.1385 35.1438H56.2406V27.0562C56.2406 25.7758 55.6034 24.6422 54.6301 23.9533V22.8521C54.6301 21.2547 53.3306 19.9552 51.7332 19.9552H51.0628L53.6279 16.1912C54.4877 14.9295 54.1608 13.2035 52.8991 12.3436L35.4932 0.481728C34.882 0.0651264 34.1454 -0.0886236 33.4184 0.0493061C33.0608 0.116043 32.7199 0.253049 32.4156 0.452391C32.1113 0.651734 31.8496 0.909454 31.6455 1.21063L16.622 23.2563H12.4413L13.45 13.0458C13.4613 12.9307 13.5361 12.8309 13.6404 12.7917C14.9399 12.3017 16.0661 11.3867 16.8114 10.2153C16.8701 10.1231 16.9808 10.0704 17.0954 10.082L23.6527 10.7298C23.7644 10.7408 23.8772 10.7297 23.9846 10.6972C24.0921 10.6646 24.1921 10.6112 24.2789 10.54C24.3657 10.4688 24.4376 10.3812 24.4905 10.2822C24.5435 10.1832 24.5764 10.0747 24.5875 9.96302C24.5985 9.85129 24.5874 9.73849 24.5549 9.63104C24.5223 9.5236 24.4689 9.42362 24.3977 9.33681C24.3265 9.25001 24.2389 9.17808 24.1399 9.12513C24.0409 9.07218 23.9324 9.03925 23.8207 9.02821L17.2635 8.3804C16.5023 8.30587 15.7765 8.65661 15.3687 9.29739C14.8207 10.1587 13.9927 10.8314 13.0372 11.1916C12.318 11.4628 11.8242 12.1087 11.7483 12.8776L10.7231 23.2562H9.63293L11.2281 7.10727C11.2855 6.52602 11.8043 6.09899 12.3862 6.15724L25.6371 7.46622C25.8628 7.4885 26.088 7.42024 26.2633 7.27645C26.4386 7.13265 26.5496 6.9251 26.5719 6.69946C26.5942 6.47382 26.5259 6.24857 26.3821 6.07326C26.2383 5.89795 26.0308 5.78694 25.8052 5.76466L12.5543 4.45567C11.0351 4.30579 9.67652 5.41966 9.52641 6.93911L8.24063 19.9551H6.05098C4.45371 19.9551 3.1541 21.2546 3.1541 22.852V23.6032C1.84734 24.2048 0.9375 25.5258 0.9375 27.0561V56.1999C0.9375 58.2952 2.64211 59.9999 4.73754 59.9999H52.4407C54.536 59.9999 56.2406 58.2952 56.2406 56.1999V48.1125H57.1385C58.1984 48.1125 59.0605 47.2503 59.0605 46.1906V37.0658C59.0606 36.006 58.1984 35.1438 57.1385 35.1438ZM51.7332 21.665C52.3879 21.665 52.9202 22.1975 52.9202 22.8521V23.2877C52.7612 23.2672 52.601 23.2567 52.4407 23.2564H48.8132L49.8975 21.6651H51.7332V21.665ZM33.0585 2.17345C33.1365 2.05825 33.2367 1.95968 33.3531 1.88342C33.4695 1.80717 33.5999 1.75475 33.7366 1.72919C33.8733 1.70292 34.0138 1.704 34.15 1.73238C34.2862 1.76077 34.4155 1.81588 34.5302 1.89454L51.9362 13.7563C52.4188 14.0852 52.5439 14.7454 52.2151 15.228L46.7441 23.2561H45.4311L48.1134 19.3201C48.5484 18.6818 48.5843 17.8694 48.2067 17.1999C47.7049 16.3105 47.5015 15.2632 47.6339 14.2508C47.7323 13.4976 47.4009 12.7624 46.7691 12.3318L37.7459 6.18278C37.1139 5.75212 36.3083 5.71263 35.6434 6.07977C34.7498 6.57313 33.7007 6.76684 32.6893 6.62528C31.9393 6.52005 31.1787 6.85872 30.7501 7.48743L20.0041 23.2562H18.6912L33.0585 2.17345ZM33.435 16.6919C29.7118 16.6919 26.6556 19.595 26.4066 23.2562H22.0731L32.1628 8.45036H32.1629C32.1906 8.40939 32.2278 8.37575 32.2713 8.35234C32.3149 8.32893 32.3635 8.31644 32.4129 8.31595C32.4259 8.31595 32.4389 8.31688 32.4519 8.31864C33.8275 8.51106 35.2542 8.24786 36.4697 7.57673C36.5653 7.52376 36.6881 7.53138 36.7828 7.59583L45.8061 13.745C45.9006 13.8095 45.9525 13.921 45.9384 14.0293C45.7583 15.4061 46.0351 16.8304 46.7175 18.04C46.7722 18.1372 46.7655 18.2616 46.7006 18.3572L43.3622 23.2561H40.4638C40.2145 19.595 37.1584 16.6919 33.435 16.6919ZM38.7492 23.2563H28.1209C28.3658 20.5388 30.655 18.4019 33.435 18.4019C36.2152 18.4018 38.5044 20.5388 38.7492 23.2563ZM4.86398 22.852C4.86398 22.1974 5.39637 21.6649 6.05098 21.6649H8.07176L7.91461 23.2562H4.86398V22.852ZM2.64738 27.0561C2.64738 25.9037 3.585 24.9661 4.73754 24.9661H52.4407C53.5932 24.9661 54.5307 25.9037 54.5307 27.0561V29.4284H2.64738V27.0561ZM54.5307 52.1179H12.7321C12.6198 52.1179 12.5086 52.1401 12.4049 52.183C12.3012 52.226 12.207 52.2889 12.1276 52.3683C12.0482 52.4477 11.9852 52.542 11.9423 52.6457C11.8993 52.7494 11.8772 52.8606 11.8772 52.9728C11.8772 53.0851 11.8993 53.1963 11.9423 53.3C11.9852 53.4037 12.0482 53.4979 12.1276 53.5773C12.207 53.6567 12.3012 53.7197 12.4049 53.7626C12.5086 53.8056 12.6198 53.8277 12.7321 53.8277H54.5307V56.2001C54.5307 57.3525 53.5932 58.2901 52.4407 58.2901H4.73754C3.585 58.2901 2.64738 57.3525 2.64738 56.2001V53.8277H7.25777C7.37004 53.8277 7.4812 53.8056 7.58492 53.7626C7.68864 53.7197 7.78288 53.6567 7.86227 53.5773C7.94165 53.4979 8.00462 53.4037 8.04758 53.3C8.09054 53.1963 8.11266 53.0851 8.11266 52.9728C8.11266 52.8606 8.09054 52.7494 8.04758 52.6457C8.00462 52.542 7.94165 52.4477 7.86227 52.3683C7.78288 52.2889 7.68864 52.226 7.58492 52.183C7.4812 52.1401 7.37004 52.1179 7.25777 52.1179H2.64738V31.1383H54.5307V35.1438H46.4018C43.8405 35.1438 41.622 36.6368 40.569 38.7978C40.5655 38.8051 40.5615 38.8121 40.5579 38.8194C40.549 38.8378 40.5412 38.8569 40.5326 38.8754C40.4072 39.1418 40.2982 39.4175 40.2095 39.702L40.2088 39.7044C40.0152 40.3273 39.9169 40.9759 39.9175 41.6281C39.9175 45.2036 42.8263 48.1125 46.4017 48.1125H54.5306V52.1179H54.5307ZM57.3507 46.1905C57.3507 46.3074 57.2556 46.4026 57.1385 46.4026H46.4019C44.592 46.4026 43.0139 45.3902 42.2045 43.902C42.0934 43.6981 41.9975 43.4862 41.9176 43.2681C41.7299 42.7564 41.6275 42.204 41.6275 41.6281C41.6269 40.9121 41.788 40.2051 42.0989 39.56C42.1325 39.4905 42.1677 39.4218 42.2045 39.3542C43.0139 37.8661 44.592 36.8537 46.4019 36.8537H57.1385C57.2555 36.8537 57.3507 36.9488 57.3507 37.0658V46.1905Z" fill="#3A3A3A"/>
<path d="M46.6016 38.1594C44.6888 38.1594 43.1328 39.7156 43.1328 41.6282C43.1328 43.5408 44.6888 45.0968 46.6016 45.0968C48.5143 45.0968 50.0703 43.5408 50.0703 41.6282C50.0703 39.7156 48.5143 38.1594 46.6016 38.1594ZM46.6016 43.3869C45.6317 43.3869 44.8427 42.5979 44.8427 41.6282C44.8427 40.6584 45.6317 39.8693 46.6016 39.8693C47.5714 39.8693 48.3604 40.6583 48.3604 41.6282C48.3604 42.598 47.5714 43.3869 46.6016 43.3869Z" fill="#3A3A3A"/>
</g>
<defs>
<clipPath id="clip0_114_6310">
<rect width="60" height="60" fill="white"/>
</clipPath>
</defs>
</svg>
