<svg width="60" height="60" viewBox="0 0 60 60" fill="none" xmlns="http://www.w3.org/2000/svg">
<g clip-path="url(#clip0_302_4045)">
<path d="M16.8458 17.8164C9.41367 17.8164 3.38867 23.8413 3.38867 31.2735C3.38867 42.5912 16.8458 53.0046 16.8458 53.0046C16.8458 53.0046 30.3028 42.5912 30.3028 31.2735C30.3028 23.8413 24.278 17.8164 16.8458 17.8164ZM16.8458 36.6407C13.8815 36.6407 11.4785 34.2377 11.4785 31.2735C11.4785 28.3093 13.8815 25.9061 16.8458 25.9061C19.81 25.9061 22.2131 28.3092 22.2131 31.2735C22.2131 34.2377 19.8101 36.6407 16.8458 36.6407Z" fill="#F6874D"/>
<path d="M49.6551 0.265625C43.943 0.265625 39.3125 4.8962 39.3125 10.6083C39.3125 19.3068 49.6551 27.3102 49.6551 27.3102C49.6551 27.3102 59.9978 19.3068 59.9978 10.6083C59.9978 4.8962 55.3672 0.265625 49.6551 0.265625ZM49.6551 14.7335C47.3768 14.7335 45.53 12.8866 45.53 10.6083C45.53 8.33005 47.3768 6.4832 49.6551 6.4832C51.9334 6.4832 53.7803 8.33005 53.7803 10.6083C53.7803 12.8866 51.9334 14.7335 49.6551 14.7335Z" fill="#F6874D"/>
<path d="M14.8991 18.9043C7.00681 18.9043 0.585938 25.3252 0.585938 33.2174C0.585938 38.1175 2.9169 43.386 7.51418 48.8766C8.19726 49.6924 8.87794 50.4484 9.53114 51.138C6.56282 51.9482 4.78074 53.4039 4.78074 55.1029C4.78074 58.1105 9.99382 59.7334 14.8987 59.7334C19.8036 59.7334 25.0167 58.1104 25.0167 55.1029C25.0167 53.4053 23.2351 51.9493 20.2687 51.1387C21.4538 49.8876 22.729 48.4157 23.9389 46.7738C24.2195 46.3932 24.1382 45.8573 23.7576 45.5769C23.3773 45.2967 22.8411 45.3777 22.5607 45.7583C21.0999 47.7407 19.5187 49.4829 18.139 50.8667C17.9808 50.9474 17.8486 51.0756 17.7657 51.2371C16.5297 52.4517 15.4897 53.3528 14.8996 53.8451C14.316 53.3576 13.2918 52.4687 12.0717 51.27C11.9841 51.0781 11.8303 50.9276 11.6426 50.8437C7.76525 46.9437 2.29813 40.2058 2.29813 33.2176C2.29813 26.2695 7.95098 20.6166 14.8992 20.6166C21.8474 20.6166 27.5002 26.2695 27.5002 33.2176C27.5002 36.252 26.4663 39.5288 24.4272 42.9572C24.1856 43.3637 24.319 43.889 24.7254 44.1306C25.1318 44.3722 25.6571 44.2388 25.8987 43.8324C28.0974 40.1355 29.2123 36.5643 29.2123 33.2176C29.2122 25.3252 22.7913 18.9043 14.8991 18.9043ZM14.8991 55.8045C15.0839 55.8045 15.2687 55.7449 15.423 55.6255C15.5281 55.5442 16.9584 54.4287 18.8651 52.5644C21.7523 53.1532 23.3047 54.2869 23.3047 55.1029C23.3047 55.7123 22.4695 56.4313 21.1248 56.9791C19.4757 57.6513 17.2646 58.0215 14.8987 58.0215C9.76739 58.0215 6.4927 56.2928 6.4927 55.1029C6.4927 54.2857 8.04561 53.1526 10.9344 52.5638C12.8518 54.4392 14.2843 55.5551 14.3752 55.6255C14.5294 55.745 14.7144 55.8045 14.8991 55.8045Z" fill="#3A3A3A"/>
<path d="M9.97558 30.9094C9.52133 30.7794 9.04713 31.0416 8.91659 31.496C8.75685 32.0527 8.67578 32.6311 8.67578 33.2156C8.67578 36.647 11.4675 39.4389 14.8991 39.4389C18.3306 39.4389 21.1223 36.6471 21.1223 33.2156C21.1223 29.784 18.3306 26.9922 14.8991 26.9922C13.5451 26.9922 12.2576 27.4196 11.1758 28.2284C10.7973 28.5115 10.7198 29.0479 11.0028 29.4266C11.286 29.8051 11.8223 29.8825 12.201 29.5996C12.9844 29.0139 13.9174 28.7043 14.8989 28.7043C17.3866 28.7043 19.4101 30.728 19.4101 33.2156C19.4101 35.7031 17.3865 37.7268 14.8989 37.7268C12.4114 37.7268 10.3877 35.7031 10.3877 33.2156C10.3877 32.7911 10.4465 32.3714 10.5622 31.9685C10.6926 31.5139 10.43 31.0398 9.97558 30.9094Z" fill="#3A3A3A"/>
<path d="M55.6848 29.3748C55.6848 28.0185 54.4099 26.8888 52.2041 26.225C52.6397 25.7576 53.0882 25.2541 53.5382 24.7166C57.1022 20.46 58.9092 16.3681 58.9092 12.5541C58.9091 6.37929 53.8854 1.35547 47.7105 1.35547C43.1996 1.35547 39.1494 4.04011 37.3923 8.19489C37.208 8.63032 37.4118 9.13268 37.8471 9.31671C38.2824 9.50073 38.7849 9.29721 38.9689 8.86189C40.4577 5.34196 43.889 3.06743 47.7105 3.06743C52.9415 3.06743 57.1971 7.32323 57.1971 12.5542C57.1971 19.6283 49.7703 26.4055 47.7101 28.1489C47.2561 27.7651 46.5415 27.1372 45.7035 26.3158C45.62 26.1501 45.4849 26.0188 45.3228 25.9375C42.3672 22.9616 38.2238 17.846 38.2238 12.5542C38.2238 12.0814 37.8407 11.6982 37.3678 11.6982C36.8949 11.6982 36.5117 12.0813 36.5117 12.5542C36.5117 16.3681 38.3189 20.4602 41.8828 24.7168C42.3326 25.2539 42.7809 25.7573 43.2163 26.2244C41.0096 26.8874 39.7357 28.016 39.7357 29.3749C39.7357 30.5209 40.6654 31.5311 42.3537 32.219C43.7983 32.8076 45.7007 33.1319 47.7104 33.1319C49.7199 33.1319 51.6223 32.8076 53.067 32.219C54.755 31.531 55.6848 30.5208 55.6848 29.3748ZM47.7102 31.4197C43.6582 31.4197 41.4477 30.0688 41.4477 29.3747C41.4477 28.9225 42.4533 28.095 44.6004 27.6384C46.0451 29.0442 47.1175 29.8794 47.1867 29.9331C47.3409 30.0525 47.5258 30.1122 47.7106 30.1122C47.8954 30.1122 48.0801 30.0525 48.2345 29.9331C48.3037 29.8797 49.3758 29.0443 50.8205 27.6387C51.7771 27.8426 52.6058 28.1415 53.1857 28.4946C53.6786 28.7949 53.9729 29.124 53.9729 29.3748C53.9727 30.0688 51.7623 31.4197 47.7102 31.4197Z" fill="#3A3A3A"/>
<path d="M52.691 12.5534C52.691 9.80688 50.4565 7.57227 47.7098 7.57227C44.9632 7.57227 42.7285 9.80677 42.7285 12.5534C42.7285 15.3 44.963 17.5345 47.7098 17.5345C50.4566 17.5345 52.691 15.3001 52.691 12.5534ZM44.4407 12.5534C44.4407 10.7508 45.9072 9.28423 47.7099 9.28423C49.5125 9.28423 50.9791 10.7507 50.9791 12.5534C50.9791 14.3559 49.5126 15.8225 47.7099 15.8225C45.9072 15.8225 44.4407 14.356 44.4407 12.5534Z" fill="#3A3A3A"/>
<path d="M36.6074 30.2297C37.0801 30.2297 37.4635 29.8466 37.4635 29.3736C37.4635 28.9007 37.0801 28.5176 36.6074 28.5176H36.2166C35.932 28.5176 35.646 28.5364 35.3662 28.5737C34.8977 28.636 34.5683 29.0663 34.6306 29.5352C34.688 29.9655 35.0555 30.2785 35.4781 30.2785C35.5157 30.2785 35.5538 30.2761 35.5921 30.2709C35.7972 30.2437 36.0074 30.2299 36.2167 30.2299H36.6074V30.2297Z" fill="#3A3A3A"/>
<path d="M33.7778 54.2031C33.7764 54.2031 33.7751 54.2031 33.7738 54.2031L32.6432 54.2083C32.1705 54.2104 31.789 54.5955 31.791 55.0682C31.7932 55.5396 32.1761 55.9203 32.6469 55.9203C32.6483 55.9203 32.6497 55.9203 32.6509 55.9203L33.7815 55.9152C34.2542 55.913 34.6357 55.528 34.6337 55.0553C34.6316 54.5837 34.2487 54.2031 33.7778 54.2031Z" fill="#3A3A3A"/>
<path d="M37.6214 41.3195C38.0942 41.3195 38.4774 40.9363 38.4774 40.4635C38.4774 39.9906 38.0942 39.6074 37.6214 39.6074H36.4908C36.018 39.6074 35.6348 39.9905 35.6348 40.4635C35.6348 40.9363 36.018 41.3195 36.4908 41.3195H37.6214Z" fill="#3A3A3A"/>
<path d="M31.2102 32.3848C31.3613 32.4934 31.5359 32.5456 31.7089 32.5456C31.9752 32.5456 32.2376 32.4217 32.4049 32.1888C32.5907 31.9301 32.8037 31.6893 33.0378 31.4734C33.3853 31.1529 33.4071 30.6113 33.0866 30.2638C32.7661 29.9165 32.2247 29.8946 31.877 30.215C31.5579 30.5092 31.2676 30.8373 31.0142 31.19C30.7385 31.5743 30.8263 32.1091 31.2102 32.3848Z" fill="#3A3A3A"/>
<path d="M38.2991 54.1836C38.2978 54.1836 38.2965 54.1836 38.2952 54.1836L37.1647 54.1887C36.692 54.1909 36.3105 54.5759 36.3125 55.0486C36.3147 55.5201 36.6974 55.9008 37.1684 55.9008C37.1698 55.9008 37.1711 55.9008 37.1724 55.9008L38.3029 55.8957C38.7756 55.8936 39.1571 55.5085 39.1551 55.0358C39.153 54.5643 38.77 54.1836 38.2991 54.1836Z" fill="#3A3A3A"/>
<path d="M29.2543 54.2246C29.253 54.2246 29.2517 54.2246 29.2503 54.2246L28.1197 54.2297C27.647 54.2318 27.2655 54.6169 27.2676 55.0897C27.2698 55.5611 27.6525 55.9418 28.1235 55.9418C28.1249 55.9418 28.1261 55.9418 28.1275 55.9418L29.2581 55.9367C29.7308 55.9345 30.1123 55.5495 30.1103 55.0768C30.1082 54.6052 29.7255 54.2246 29.2543 54.2246Z" fill="#3A3A3A"/>
<path d="M33.2611 40.4685C33.5453 40.4685 33.8231 40.3272 33.9861 40.069C34.2383 39.6691 34.1185 39.1406 33.7187 38.8882C33.4498 38.7186 33.1967 38.5204 32.967 38.2996C32.6262 37.9718 32.0841 37.9826 31.7567 38.3231C31.4289 38.6637 31.4395 39.2057 31.7802 39.5333C32.0935 39.8347 32.4384 40.1048 32.8054 40.3363C32.947 40.4259 33.1049 40.4685 33.2611 40.4685Z" fill="#3A3A3A"/>
<path d="M31.6151 35.8217C31.5577 35.5266 31.5285 35.2231 31.5285 34.9194L31.5287 34.8718C31.5343 34.3991 31.1555 34.0114 30.6827 34.006C30.6794 34.0059 30.676 34.0059 30.6726 34.0059C30.2044 34.0059 29.8222 34.3826 29.8167 34.852L29.8164 34.9195C29.8164 35.3329 29.8562 35.7467 29.9346 36.1493C30.0142 36.558 30.3725 36.8416 30.774 36.8416C30.8282 36.8416 30.8834 36.8364 30.9387 36.8256C31.4027 36.7352 31.7056 36.2857 31.6151 35.8217Z" fill="#3A3A3A"/>
<path d="M42.1448 41.3195C42.6177 41.3195 43.0009 40.9363 43.0009 40.4635C43.0009 39.9906 42.6177 39.6074 42.1448 39.6074H41.0142C40.5414 39.6074 40.1582 39.9905 40.1582 40.4635C40.1582 40.9363 40.5414 41.3195 41.0142 41.3195H42.1448Z" fill="#3A3A3A"/>
<path d="M55.3577 42.878C55.6106 42.878 55.8612 42.7663 56.0302 42.5524C56.3231 42.1814 56.2598 41.643 55.8888 41.3501C55.5589 41.0898 55.2064 40.8532 54.8408 40.6475C54.4293 40.4154 53.9068 40.5612 53.6748 40.9732C53.4428 41.385 53.5885 41.9072 54.0006 42.1391C54.289 42.3017 54.5675 42.4883 54.8279 42.6939C54.985 42.8181 55.1719 42.878 55.3577 42.878Z" fill="#3A3A3A"/>
<path d="M51.7448 54.0649C51.4644 54.1037 51.1773 54.1241 50.891 54.1252L50.7308 54.126C50.258 54.1284 49.8766 54.5136 49.8789 54.9862C49.8813 55.4575 50.2641 55.8381 50.7348 55.8381C50.7363 55.8381 50.7377 55.8381 50.7391 55.8381L50.8989 55.8373C51.2605 55.8357 51.6239 55.8101 51.9791 55.7609C52.4474 55.6961 52.7746 55.2639 52.71 54.7958C52.645 54.3275 52.2122 53.9997 51.7448 54.0649Z" fill="#3A3A3A"/>
<path d="M55.2779 52.3574C55.0377 52.5862 54.7777 52.7981 54.505 52.9871C54.1166 53.2564 54.02 53.7898 54.2892 54.1785C54.4556 54.4183 54.7222 54.5469 54.9935 54.5469C55.1618 54.5469 55.3317 54.4974 55.4805 54.3943C55.8255 54.155 56.1546 53.8868 56.4587 53.5971C56.801 53.271 56.814 52.7291 56.4879 52.3869C56.1618 52.0443 55.6199 52.0312 55.2779 52.3574Z" fill="#3A3A3A"/>
<path d="M58.1552 48.2298C57.6914 48.1423 57.2432 48.4479 57.1556 48.9125C57.0941 49.2383 57.0068 49.5616 56.8956 49.8734C56.7369 50.3187 56.9691 50.8084 57.4145 50.9672C57.5095 51.0011 57.6066 51.0171 57.702 51.0171C58.0536 51.0171 58.3833 50.7987 58.5083 50.4484C58.6493 50.0528 58.7603 49.6427 58.8381 49.2294C58.9255 48.7649 58.6198 48.3172 58.1552 48.2298Z" fill="#3A3A3A"/>
<path d="M57.0841 43.8812C56.6557 44.0812 56.4704 44.5905 56.6703 45.019C56.8106 45.3194 56.928 45.6332 57.0193 45.9512C57.1271 46.3266 57.4696 46.5713 57.8416 46.5713C57.9199 46.5713 57.9993 46.5605 58.0782 46.5379C58.5327 46.4075 58.7952 45.9333 58.6648 45.4789C58.5487 45.0747 58.3998 44.6766 58.2217 44.295C58.0219 43.8666 57.513 43.6814 57.0841 43.8812Z" fill="#3A3A3A"/>
<path d="M46.6683 41.3195C47.1411 41.3195 47.5243 40.9363 47.5243 40.4635C47.5243 39.9906 47.1411 39.6074 46.6683 39.6074H45.5377C45.0649 39.6074 44.6816 39.9905 44.6816 40.4635C44.6816 40.9363 45.0649 41.3195 45.5377 41.3195H46.6683Z" fill="#3A3A3A"/>
<path d="M42.8207 54.1621C42.8194 54.1621 42.8181 54.1621 42.8167 54.1621L41.6862 54.1672C41.2134 54.1694 40.8319 54.5544 40.834 55.0272C40.8362 55.4986 41.2189 55.8793 41.6899 55.8793C41.6913 55.8793 41.6925 55.8793 41.6939 55.8793L42.8245 55.8742C43.2972 55.872 43.6787 55.487 43.6767 55.0143C43.6746 54.5428 43.2917 54.1621 42.8207 54.1621Z" fill="#3A3A3A"/>
<path d="M50.863 41.3193C50.9598 41.3193 51.056 41.3214 51.1517 41.3257C51.1646 41.3263 51.1774 41.3266 51.1902 41.3266C51.6455 41.3266 52.0245 40.9678 52.0447 40.5085C52.0656 40.0361 51.6998 39.6363 51.2275 39.6155C51.1063 39.61 50.9837 39.6074 50.8631 39.6074H50.0592C49.5863 39.6074 49.2031 39.9905 49.2031 40.4635C49.2031 40.9363 49.5863 41.3195 50.0592 41.3195L50.863 41.3193Z" fill="#3A3A3A"/>
<path d="M47.3443 54.1406C47.3429 54.1406 47.3417 54.1406 47.3403 54.1406L46.2096 54.1458C45.7369 54.1478 45.3554 54.533 45.3574 55.0057C45.3595 55.4771 45.7424 55.8578 46.2134 55.8578C46.2147 55.8578 46.216 55.8578 46.2173 55.8578L47.3479 55.8527C47.8207 55.8507 48.2022 55.4655 48.2001 54.9928C48.198 54.5212 47.8152 54.1406 47.3443 54.1406Z" fill="#3A3A3A"/>
</g>
<defs>
<clipPath id="clip0_302_4045">
<rect width="60" height="60" fill="white"/>
</clipPath>
</defs>
</svg>
