<svg width="60" height="60" viewBox="0 0 60 60" fill="none" xmlns="http://www.w3.org/2000/svg">
<path d="M33.4338 43.7856C30.0556 43.3539 26.7783 42.3373 23.7489 40.7814C22.93 43.7111 23.5347 45.9765 25.8583 47.2656C24.5299 51.0156 25.9755 53.6331 27.4595 54.6095C28.6708 52.6956 30.2669 50.7503 34.5302 46.9534L33.4338 43.7856Z" fill="#F6874D"/>
<path d="M16.9531 8.99622C16.9531 12.8262 18.4745 16.4993 21.1827 19.2076C23.8909 21.9158 27.5639 23.4373 31.3939 23.4375H35.7031C38.1274 23.4375 40.4523 24.4005 42.1665 26.1147C43.8807 27.8289 44.8438 30.1538 44.8438 32.5781V32.5851C44.8442 35.4611 43.7426 38.228 41.7655 40.3167C40.7146 41.4261 39.4486 42.3096 38.0448 42.9133C36.641 43.5171 35.1289 43.8283 33.6008 43.8281H33.5155C33.1011 43.8281 32.7037 43.9927 32.4107 44.2857C32.1177 44.5787 31.9531 44.9761 31.9531 45.3904C31.9531 45.8048 32.1177 46.2023 32.4107 46.4953C32.7037 46.7884 33.1011 46.9531 33.5155 46.9532H37.2223C41.3846 46.9529 45.462 45.7759 48.9842 43.5581C52.1416 41.5696 54.7435 38.8134 56.5469 35.5468C58.3503 32.2801 59.2963 28.6098 59.2967 24.8784C59.2967 20.6662 57.6234 16.6265 54.6449 13.648C51.6664 10.6695 47.6267 8.99622 43.4145 8.99622H16.9531Z" fill="#F6874D"/>
<path d="M41.0709 10.5197H23.0653C22.8478 10.5197 22.6391 10.6061 22.4853 10.76C22.3314 10.9138 22.245 11.1224 22.245 11.34C22.245 11.5576 22.3314 11.7662 22.4853 11.92C22.6391 12.0739 22.8478 12.1603 23.0653 12.1603H34.7344C35.6419 13.1916 36.0839 15.3089 35.8941 17.8027C35.6555 20.9311 34.4878 23.8753 33.0881 24.9609H29.0503C25.5816 24.9556 22.2453 23.629 19.72 21.2511C17.1947 18.8731 15.6702 15.6224 15.4566 12.1603H18.7913C19.0088 12.1603 19.2175 12.0739 19.3713 11.92C19.5251 11.7662 19.6116 11.5576 19.6116 11.34C19.6116 11.1224 19.5251 10.9138 19.3713 10.76C19.2175 10.6061 19.0088 10.5197 18.7913 10.5197H14.6095C14.392 10.5197 14.1833 10.6061 14.0295 10.76C13.8756 10.9138 13.7892 11.1224 13.7892 11.34C13.7892 11.7441 13.8094 12.143 13.8403 12.5391H8.20313C7.92468 12.5357 7.64718 12.5058 7.37438 12.45C7.20347 11.8082 7.18244 11.1356 7.31292 10.4843C7.44339 9.83305 7.72187 9.2205 8.12684 8.69402C8.5318 8.16753 9.05241 7.74122 9.64841 7.44803C10.2444 7.15483 10.8998 7.00261 11.5641 7.00313H33.3609C33.5785 7.00313 33.7871 6.9167 33.941 6.76286C34.0948 6.60902 34.1812 6.40037 34.1812 6.18281C34.1812 5.96525 34.0948 5.7566 33.941 5.60276C33.7871 5.44893 33.5785 5.3625 33.3609 5.3625H11.5641C10.7791 5.36213 10.0018 5.51647 9.27649 5.81669C8.55122 6.11691 7.89222 6.55712 7.33717 7.11217C6.78212 7.66722 6.34191 8.32622 6.04169 9.05149C5.74147 9.77677 5.58713 10.5541 5.5875 11.3391C5.5875 11.4483 5.59594 11.557 5.60203 11.6672C5.06567 11.2623 4.63006 10.7391 4.32914 10.1382C4.02822 9.53736 3.87013 8.87512 3.86719 8.20313C3.86694 7.63365 3.97893 7.06971 4.19674 6.54354C4.41455 6.01737 4.73393 5.53928 5.13661 5.13661C5.53928 4.73393 6.01737 4.41455 6.54354 4.19674C7.06971 3.97893 7.63365 3.86694 8.20313 3.86719H30C30.2176 3.86719 30.4262 3.78076 30.58 3.62692C30.7339 3.47309 30.8203 3.26444 30.8203 3.04688C30.8203 2.82932 30.7339 2.62067 30.58 2.46683C30.4262 2.31299 30.2176 2.22656 30 2.22656H8.20313C7.41817 2.22619 6.64083 2.38053 5.91556 2.68075C5.19028 2.98097 4.53128 3.42118 3.97623 3.97623C3.42118 4.53128 2.98097 5.19028 2.68075 5.91556C2.38053 6.64083 2.22619 7.41817 2.22656 8.20313C2.23225 9.42138 2.60772 10.6092 3.3033 11.6094C3.99887 12.6095 4.98176 13.3749 6.12188 13.8042C6.59802 14.8488 7.36385 15.7349 8.32849 16.3573C9.29312 16.9797 10.4161 17.3123 11.5641 17.3156H15.0084C15.7879 19.1367 16.9132 20.7892 18.322 22.1817C15.7866 24.6422 15.8906 28.8084 15.8958 29.0006C15.9028 29.2133 15.9922 29.4149 16.1451 29.5629C16.298 29.7108 16.5024 29.7936 16.7152 29.7938H16.7428C16.9602 29.7865 17.1659 29.6932 17.3146 29.5344C17.4632 29.3755 17.5427 29.1642 17.5355 28.9467C17.5355 28.9073 17.4417 25.2136 19.5539 23.2748C20.5147 24.0414 21.5645 24.6892 22.6805 25.2042C21.1458 27.7383 21.3844 30.923 21.3966 31.073C21.4141 31.2775 21.5076 31.4681 21.6588 31.6069C21.81 31.7458 22.0078 31.8229 22.2131 31.823C22.2356 31.823 22.26 31.823 22.2816 31.8202C22.4978 31.802 22.6981 31.699 22.8387 31.5336C22.9792 31.3682 23.0486 31.1539 23.0316 30.9375C23.0292 30.9052 22.807 27.9052 24.2273 25.8178C25.4954 26.242 26.8141 26.4964 28.1489 26.5744C27.654 28.3505 27.6041 30.2212 28.0036 32.0212C28.0554 32.2326 28.189 32.4147 28.375 32.5275C28.5611 32.6404 28.7844 32.6747 28.9957 32.6229C29.207 32.5711 29.3892 32.4375 29.502 32.2514C29.6148 32.0654 29.6491 31.8421 29.5973 31.6308C29.5903 31.6012 28.9411 28.853 29.8819 26.6034H33.36C35.567 26.6063 37.6827 27.4848 39.2427 29.046C40.8026 30.6073 41.6793 32.7238 41.6803 34.9308C41.6797 37.6948 40.5813 40.3453 38.6266 42.2995C36.672 44.2537 34.0212 45.3516 31.2572 45.3516H31.1719C31.163 45.3516 31.1545 45.3516 31.1452 45.3544C27.8798 44.8983 24.7139 43.8982 21.7791 42.3956C21.6707 42.3399 21.5513 42.3089 21.4295 42.3051C21.3077 42.3012 21.1866 42.3245 21.0749 42.3733C20.9632 42.4221 20.8638 42.4951 20.7839 42.5871C20.704 42.6791 20.6455 42.7878 20.6128 42.9052C19.5394 46.7616 20.9409 48.8494 22.5408 49.965C21.4931 53.603 22.8066 56.4155 24.6647 57.6384C24.7557 57.6983 24.8576 57.7394 24.9646 57.7594C25.0716 57.7794 25.1816 57.778 25.288 57.7551C25.3944 57.7323 25.4953 57.6885 25.5846 57.6263C25.674 57.5641 25.7501 57.4847 25.8084 57.3928C26.9719 55.56 28.5131 53.6897 32.505 50.1173H34.8787C38.7199 50.1173 42.4992 49.1508 45.8688 47.3069C49.2384 45.4629 52.0899 42.8009 54.1608 39.5658C54.2206 39.4751 54.2618 39.3733 54.282 39.2666C54.3021 39.1598 54.3009 39.0501 54.2783 38.9438C54.2557 38.8375 54.2122 38.7367 54.1504 38.6474C54.0885 38.558 54.0095 38.4818 53.918 38.4233C53.8264 38.3647 53.7242 38.3249 53.6171 38.3062C53.5101 38.2875 53.4004 38.2903 53.2944 38.3143C53.1884 38.3383 53.0883 38.3832 52.9998 38.4463C52.9113 38.5094 52.8362 38.5894 52.7789 38.6817C52.1344 39.6894 51.406 40.6409 50.6016 41.5261C47.28 41.4567 44.4923 40.2933 42.8447 38.2917C43.1609 37.1964 43.321 36.0619 43.3205 34.9219C43.3188 33.407 42.969 31.9128 42.2981 30.5545C44.8514 29.8683 51.1978 27.5761 54.8606 21.1739C55.7008 23.0791 56.1341 25.1386 56.1328 27.2208C56.1326 28.69 55.9804 30.1553 55.6786 31.5933C55.6339 31.8062 55.6756 32.0281 55.7946 32.2102C55.9135 32.3924 56.0999 32.5198 56.3128 32.5645C56.3686 32.5765 56.4255 32.5824 56.4825 32.5823C56.6706 32.5821 56.8528 32.5172 56.9987 32.3986C57.1446 32.28 57.2454 32.1148 57.2841 31.9308C57.6093 30.3819 57.7733 28.8035 57.7734 27.2208C57.7681 22.7928 56.0066 18.5477 52.8754 15.4167C49.7442 12.2858 45.4989 10.5247 41.0709 10.5197ZM11.5641 15.6759C10.9458 15.673 10.3352 15.538 9.77323 15.2801C9.21126 15.0223 8.7108 14.6474 8.30531 14.1806H14.0578C14.1532 14.6848 14.274 15.1839 14.4197 15.6759H11.5641ZM24.9511 55.718C24.0797 54.7195 23.2725 52.7494 24.2902 49.8834C24.3551 49.7005 24.3531 49.5004 24.2845 49.3188C24.2158 49.1371 24.0849 48.9858 23.9152 48.8916C22.2525 47.9695 21.6122 46.4691 21.9731 44.3213C24.2328 45.3774 26.6083 46.1653 29.0513 46.6687C28.8805 46.9984 28.7902 47.3639 28.7878 47.7352C28.788 48.207 28.9282 48.6682 29.1906 49.0604C29.4531 49.4526 29.8259 49.7581 30.262 49.9383C27.457 52.5239 26.0081 54.1941 24.9511 55.717V55.718ZM49.0556 43.0617C45.1559 46.5475 40.1093 48.4756 34.8787 48.4781H31.1719C30.9782 48.4733 30.7942 48.3929 30.6589 48.2542C30.5237 48.1156 30.448 47.9296 30.448 47.7359C30.448 47.5422 30.5237 47.3561 30.6589 47.2175C30.7942 47.0788 30.9782 46.9985 31.1719 46.9936H31.2572C33.5572 46.9931 35.8091 46.3354 37.7479 45.098C39.6867 43.8606 41.2316 42.0951 42.2006 40.0092C44.0819 41.7615 46.4945 42.8353 49.0556 43.0603V43.0617ZM41.4113 29.0822C39.9136 27.0152 37.6796 25.6019 35.1703 25.1339C36.5517 23.2819 37.343 20.4047 37.5319 17.9273C37.7095 15.5925 37.4034 13.5909 36.6825 12.1617H41.0709C43.6576 12.163 46.2004 12.8301 48.4544 14.0989C50.7085 15.3678 52.598 17.1955 53.9409 19.4062C50.4881 26.4164 43.3406 28.6083 41.4113 29.0822Z" fill="#3A3A3A"/>
<path d="M55.9121 33.9731C55.8109 33.9363 55.7034 33.9199 55.5958 33.9246C55.4882 33.9294 55.3826 33.9554 55.285 34.001C55.1875 34.0466 55.0999 34.111 55.0272 34.1905C54.9546 34.2701 54.8983 34.3631 54.8617 34.4644C54.6638 35.0096 54.4398 35.5528 54.1998 36.0788C54.1548 36.1767 54.1296 36.2825 54.1256 36.3901C54.1215 36.4978 54.1387 36.6052 54.1762 36.7062C54.2136 36.8072 54.2706 36.8998 54.3439 36.9788C54.4171 37.0578 54.5052 37.1216 54.6031 37.1665C54.701 37.2114 54.8068 37.2367 54.9145 37.2407C55.0221 37.2448 55.1295 37.2276 55.2305 37.1901C55.3315 37.1526 55.4242 37.0957 55.5032 37.0224C55.5822 36.9492 55.6459 36.8611 55.6909 36.7631C55.951 36.196 56.191 35.611 56.4038 35.0241C56.4406 34.9228 56.457 34.8153 56.4522 34.7076C56.4473 34.6 56.4213 34.4943 56.3757 34.3968C56.33 34.2992 56.2656 34.2115 56.186 34.1388C56.1065 34.0662 56.0134 34.0099 55.9121 33.9731Z" fill="#3A3A3A"/>
<path d="M27.3047 15.6934C27.3047 15.253 27.1741 14.8225 26.9294 14.4563C26.6848 14.0902 26.337 13.8048 25.9302 13.6363C25.5233 13.4678 25.0757 13.4237 24.6437 13.5096C24.2118 13.5955 23.8151 13.8076 23.5037 14.1189C23.1923 14.4303 22.9803 14.8271 22.8943 15.259C22.8084 15.6909 22.8525 16.1386 23.0211 16.5454C23.1896 16.9523 23.475 17.3 23.8411 17.5447C24.2073 17.7893 24.6378 17.9199 25.0781 17.9199C25.6684 17.9192 26.2343 17.6844 26.6517 17.267C27.0691 16.8496 27.3039 16.2837 27.3047 15.6934ZM24.4922 15.6934C24.4922 15.5775 24.5266 15.4642 24.5909 15.3678C24.6553 15.2715 24.7468 15.1964 24.8539 15.152C24.961 15.1077 25.0788 15.0961 25.1924 15.1187C25.3061 15.1413 25.4105 15.1971 25.4924 15.279C25.5744 15.361 25.6302 15.4654 25.6528 15.579C25.6754 15.6927 25.6638 15.8105 25.6195 15.9176C25.5751 16.0247 25.5 16.1162 25.4037 16.1805C25.3073 16.2449 25.194 16.2793 25.0781 16.2793C24.9228 16.2792 24.7738 16.2174 24.6639 16.1075C24.5541 15.9977 24.4923 15.8487 24.4922 15.6934Z" fill="#3A3A3A"/>
</svg>
