<svg width="60" height="60" viewBox="0 0 60 60" fill="none" xmlns="http://www.w3.org/2000/svg">
<path d="M44.7249 55.5282V51.9597H53.6463V43.0383H57.2148V51.9597C57.2148 52.9061 56.8389 53.8138 56.1696 54.483C55.5004 55.1523 54.5927 55.5282 53.6463 55.5282H44.7249ZM53.6463 14.4899V5.56855H44.7249V2H53.6463C54.5927 2 55.5004 2.37597 56.1696 3.0452C56.8389 3.71444 57.2148 4.62211 57.2148 5.56855V14.4899H53.6463ZM7.25517 55.5282C6.30873 55.5282 5.40105 55.1523 4.73182 54.483C4.06259 53.8138 3.68662 52.9061 3.68662 51.9597V43.0383H7.25517V51.9597H16.1765V55.5282H7.25517ZM3.68662 14.4899V5.56855C3.68662 4.62211 4.06259 3.71444 4.73182 3.0452C5.40105 2.37597 6.30873 2 7.25517 2H16.1765V5.56855H7.25517V14.4899H3.68662ZM58.107 29.6562H2.79448C2.55787 29.6562 2.33095 29.5623 2.16364 29.395C1.99634 29.2276 1.90234 29.0007 1.90234 28.7641C1.90234 28.5275 1.99634 28.3006 2.16364 28.1333C2.33095 27.966 2.55787 27.872 2.79448 27.872H58.107C58.3436 27.872 58.5705 27.966 58.7378 28.1333C58.9051 28.3006 58.9991 28.5275 58.9991 28.7641C58.9991 29.0007 58.9051 29.2276 58.7378 29.395C58.5705 29.5623 58.3436 29.6562 58.107 29.6562ZM25.0979 35.9012H37.5878V48.3911H25.0979V35.9012Z" fill="#F6874D"/>
<path d="M10.8242 9.13721H23.3141V21.6271H10.8242V9.13721ZM14.3928 41.2541H17.9613V44.8227H14.3928V41.2541ZM34.0198 12.7058H46.5097V25.1957H34.0198V12.7058ZM44.7254 32.3328H50.0782V35.9013H44.7254V32.3328Z" fill="#F6874D"/>
<path d="M12.4922 13.6575H17.845V19.0103H12.4922V13.6575ZM26.7664 40.4216H32.1192V45.7744H26.7664V40.4216ZM39.2563 43.9901H44.6091V49.343H39.2563V43.9901ZM35.6878 17.226H41.0406V22.5788H35.6878V17.226Z" fill="white"/>
<path d="M55.3125 43.0976H51.7439C51.5073 43.0976 51.2804 43.1916 51.1131 43.3589C50.9458 43.5262 50.8518 43.7532 50.8518 43.9898V52.019H42.8226C42.586 52.019 42.3591 52.113 42.1917 52.2803C42.0244 52.4476 41.9304 52.6745 41.9304 52.9111V56.4797C41.9304 56.7163 42.0244 56.9432 42.1917 57.1105C42.3591 57.2778 42.586 57.3718 42.8226 57.3718H51.7439C52.9266 57.3704 54.0603 56.9 54.8966 56.0638C55.7328 55.2275 56.2032 54.0938 56.2046 52.9111V43.9898C56.2046 43.7532 56.1106 43.5262 55.9433 43.3589C55.776 43.1916 55.5491 43.0976 55.3125 43.0976ZM54.4204 52.9111C54.4204 53.621 54.1384 54.3017 53.6365 54.8036C53.1345 55.3056 52.4538 55.5875 51.7439 55.5875H43.7147V53.8033H51.7439C51.9806 53.8033 52.2075 53.7093 52.3748 53.542C52.5421 53.3747 52.6361 53.1477 52.6361 52.9111V44.8819H54.4204V52.9111ZM42.8226 7.41215H50.8518V15.4414C50.8518 15.678 50.9458 15.9049 51.1131 16.0722C51.2804 16.2395 51.5073 16.3335 51.7439 16.3335H55.3125C55.5491 16.3335 55.776 16.2395 55.9433 16.0722C56.1106 15.9049 56.2046 15.678 56.2046 15.4414V6.52001C56.2032 5.3374 55.7328 4.20363 54.8966 3.3674C54.0603 2.53116 52.9266 2.06074 51.7439 2.05933H42.8226C42.586 2.05933 42.3591 2.15332 42.1917 2.32063C42.0244 2.48794 41.9304 2.71485 41.9304 2.95146V6.52001C41.9304 6.75662 42.0244 6.98354 42.1917 7.15085C42.3591 7.31816 42.586 7.41215 42.8226 7.41215ZM43.7147 3.8436H51.7439C52.4538 3.8436 53.1345 4.12558 53.6365 4.6275C54.1384 5.12943 54.4204 5.81018 54.4204 6.52001V14.5492H52.6361V6.52001C52.6361 6.2834 52.5421 6.05648 52.3748 5.88918C52.2075 5.72187 51.9806 5.62787 51.7439 5.62787H43.7147V3.8436ZM14.2742 52.019H6.24496V43.9898C6.24496 43.7532 6.15097 43.5262 5.98366 43.3589C5.81635 43.1916 5.58943 43.0976 5.35282 43.0976H1.78427C1.54766 43.0976 1.32075 43.1916 1.15344 43.3589C0.98613 43.5262 0.892137 43.7532 0.892137 43.9898V52.9111C0.893554 54.0938 1.36397 55.2275 2.20021 56.0638C3.03644 56.9 4.17021 57.3704 5.35282 57.3718H14.2742C14.5108 57.3718 14.7377 57.2778 14.905 57.1105C15.0723 56.9432 15.1663 56.7163 15.1663 56.4797V52.9111C15.1663 52.6745 15.0723 52.4476 14.905 52.2803C14.7377 52.113 14.5108 52.019 14.2742 52.019ZM13.3821 55.5875H5.35282C4.64299 55.5875 3.96224 55.3056 3.46031 54.8036C2.95839 54.3017 2.67641 53.621 2.67641 52.9111V44.8819H4.46069V52.9111C4.46069 53.1477 4.55468 53.3747 4.72199 53.542C4.88929 53.7093 5.11621 53.8033 5.35282 53.8033H13.3821V55.5875ZM1.78427 16.3335H5.35282C5.58943 16.3335 5.81635 16.2395 5.98366 16.0722C6.15097 15.9049 6.24496 15.678 6.24496 15.4414V7.41215H14.2742C14.5108 7.41215 14.7377 7.31816 14.905 7.15085C15.0723 6.98354 15.1663 6.75662 15.1663 6.52001V2.95146C15.1663 2.71485 15.0723 2.48794 14.905 2.32063C14.7377 2.15332 14.5108 2.05933 14.2742 2.05933H5.35282C4.17021 2.06074 3.03644 2.53116 2.20021 3.3674C1.36397 4.20363 0.893554 5.3374 0.892137 6.52001V15.4414C0.892137 15.678 0.98613 15.9049 1.15344 16.0722C1.32075 16.2395 1.54766 16.3335 1.78427 16.3335ZM2.67641 6.52001C2.67641 5.81018 2.95839 5.12943 3.46031 4.6275C3.96224 4.12558 4.64299 3.8436 5.35282 3.8436H13.3821V5.62787H5.35282C5.11621 5.62787 4.88929 5.72187 4.72199 5.88918C4.55468 6.05648 4.46069 6.2834 4.46069 6.52001V14.5492H2.67641V6.52001ZM56.2046 28.8234H0.892137C0.655528 28.8234 0.428609 28.9174 0.261301 29.0847C0.0939928 29.252 0 29.479 0 29.7156C0 29.9522 0.0939928 30.1791 0.261301 30.3464C0.428609 30.5137 0.655528 30.6077 0.892137 30.6077H56.2046C56.4412 30.6077 56.6682 30.5137 56.8355 30.3464C57.0028 30.1791 57.0968 29.9522 57.0968 29.7156C57.0968 29.479 57.0028 29.252 56.8355 29.0847C56.6682 28.9174 56.4412 28.8234 56.2046 28.8234Z" fill="#3A3A3A"/>
<path d="M8.03125 10.0887V22.5786C8.03125 22.8152 8.12524 23.0421 8.29255 23.2094C8.45986 23.3767 8.68678 23.4707 8.92339 23.4707H21.4133C21.6499 23.4707 21.8768 23.3767 22.0441 23.2094C22.2115 23.0421 22.3054 22.8152 22.3054 22.5786V10.0887C22.3054 9.85206 22.2115 9.62514 22.0441 9.45783C21.8768 9.29053 21.6499 9.19653 21.4133 9.19653H8.92339C8.68678 9.19653 8.45986 9.29053 8.29255 9.45783C8.12524 9.62514 8.03125 9.85206 8.03125 10.0887ZM9.81552 10.9808H20.5212V21.6865H9.81552V10.9808ZM35.6875 35.9606H23.1976C22.961 35.9606 22.7341 36.0546 22.5667 36.2219C22.3994 36.3893 22.3054 36.6162 22.3054 36.8528V49.3427C22.3054 49.5793 22.3994 49.8062 22.5667 49.9735C22.7341 50.1408 22.961 50.2348 23.1976 50.2348H35.6875C35.9241 50.2348 36.151 50.1408 36.3183 49.9735C36.4856 49.8062 36.5796 49.5793 36.5796 49.3427V36.8528C36.5796 36.6162 36.4856 36.3893 36.3183 36.2219C36.151 36.0546 35.9241 35.9606 35.6875 35.9606ZM34.7954 48.4506H24.0897V37.7449H34.7954V48.4506Z" fill="#3A3A3A"/>
<path d="M17.8426 12.7651H12.4898C12.2532 12.7651 12.0263 12.8591 11.859 13.0264C11.6916 13.1937 11.5977 13.4207 11.5977 13.6573V19.0101C11.5977 19.2467 11.6916 19.4736 11.859 19.6409C12.0263 19.8082 12.2532 19.9022 12.4898 19.9022H17.8426C18.0792 19.9022 18.3061 19.8082 18.4735 19.6409C18.6408 19.4736 18.7348 19.2467 18.7348 19.0101V13.6573C18.7348 13.4207 18.6408 13.1937 18.4735 13.0264C18.3061 12.8591 18.0792 12.7651 17.8426 12.7651ZM16.9505 18.118H13.3819V14.5494H16.9505V18.118ZM26.764 46.6663H32.1168C32.3534 46.6663 32.5803 46.5724 32.7476 46.405C32.915 46.2377 33.0089 46.0108 33.0089 45.7742V40.4214C33.0089 40.1848 32.915 39.9579 32.7476 39.7905C32.5803 39.6232 32.3534 39.5292 32.1168 39.5292H26.764C26.5274 39.5292 26.3005 39.6232 26.1332 39.7905C25.9658 39.9579 25.8719 40.1848 25.8719 40.4214V45.7742C25.8719 46.0108 25.9658 46.2377 26.1332 46.405C26.3005 46.5724 26.5274 46.6663 26.764 46.6663ZM27.6561 41.3135H31.2247V44.8821H27.6561V41.3135ZM16.0583 41.3135H12.4898C12.2532 41.3135 12.0263 41.4075 11.859 41.5748C11.6916 41.7421 11.5977 41.969 11.5977 42.2057V45.7742C11.5977 46.0108 11.6916 46.2377 11.859 46.405C12.0263 46.5724 12.2532 46.6663 12.4898 46.6663H16.0583C16.295 46.6663 16.5219 46.5724 16.6892 46.405C16.8565 46.2377 16.9505 46.0108 16.9505 45.7742V42.2057C16.9505 41.969 16.8565 41.7421 16.6892 41.5748C16.5219 41.4075 16.295 41.3135 16.0583 41.3135ZM15.1662 44.8821H13.3819V43.0978H15.1662V44.8821ZM45.4989 49.3428V43.9899C45.4989 43.7533 45.4049 43.5264 45.2376 43.3591C45.0703 43.1918 44.8433 43.0978 44.6067 43.0978H39.2539C39.0173 43.0978 38.7904 43.1918 38.6231 43.3591C38.4558 43.5264 38.3618 43.7533 38.3618 43.9899V49.3428C38.3618 49.5794 38.4558 49.8063 38.6231 49.9736C38.7904 50.1409 39.0173 50.2349 39.2539 50.2349H44.6067C44.8433 50.2349 45.0703 50.1409 45.2376 49.9736C45.4049 49.8063 45.4989 49.5794 45.4989 49.3428ZM43.7146 48.4506H40.146V44.8821H43.7146V48.4506ZM35.6854 23.4708H41.0382C41.2748 23.4708 41.5017 23.3768 41.669 23.2095C41.8363 23.0422 41.9303 22.8153 41.9303 22.5786V17.2258C41.9303 16.9892 41.8363 16.7623 41.669 16.595C41.5017 16.4277 41.2748 16.3337 41.0382 16.3337H35.6854C35.4487 16.3337 35.2218 16.4277 35.0545 16.595C34.8872 16.7623 34.7932 16.9892 34.7932 17.2258V22.5786C34.7932 22.8153 34.8872 23.0422 35.0545 23.2095C35.2218 23.3768 35.4487 23.4708 35.6854 23.4708ZM36.5775 18.118H40.146V21.6865H36.5775V18.118Z" fill="#3A3A3A"/>
<path d="M32.1189 12.7651C31.8823 12.7651 31.6554 12.8591 31.4881 13.0264C31.3208 13.1937 31.2268 13.4206 31.2268 13.6572V26.1471C31.2268 26.3837 31.3208 26.6107 31.4881 26.778C31.6554 26.9453 31.8823 27.0393 32.1189 27.0393H44.6089C44.8455 27.0393 45.0724 26.9453 45.2397 26.778C45.407 26.6107 45.501 26.3837 45.501 26.1471V13.6572C45.501 13.4206 45.407 13.1937 45.2397 13.0264C45.0724 12.8591 44.8455 12.7651 44.6089 12.7651H32.1189ZM43.7167 25.255H33.0111V14.5494H43.7167V25.255ZM8.03125 26.1471C8.03125 26.3837 8.12524 26.6107 8.29255 26.778C8.45986 26.9453 8.68678 27.0393 8.92339 27.0393H24.9819C25.2185 27.0393 25.4454 26.9453 25.6127 26.778C25.78 26.6107 25.874 26.3837 25.874 26.1471V10.0887C25.874 9.85206 25.78 9.62514 25.6127 9.45783C25.4454 9.29053 25.2185 9.19653 24.9819 9.19653C24.7452 9.19653 24.5183 9.29053 24.351 9.45783C24.1837 9.62514 24.0897 9.85206 24.0897 10.0887V25.255H8.92339C8.68678 25.255 8.45986 25.349 8.29255 25.5163C8.12524 25.6836 8.03125 25.9105 8.03125 26.1471Z" fill="#3A3A3A"/>
<path d="M37.4718 10.9808H47.2853V20.7943C47.2853 21.0309 47.3793 21.2578 47.5466 21.4252C47.7139 21.5925 47.9408 21.6865 48.1774 21.6865C48.414 21.6865 48.6409 21.5925 48.8083 21.4252C48.9756 21.2578 49.0696 21.0309 49.0696 20.7943V10.0887C49.0696 9.85206 48.9756 9.62514 48.8083 9.45783C48.6409 9.29053 48.414 9.19653 48.1774 9.19653H37.4718C37.2352 9.19653 37.0082 9.29053 36.8409 9.45783C36.6736 9.62514 36.5796 9.85206 36.5796 10.0887C36.5796 10.3253 36.6736 10.5522 36.8409 10.7195C37.0082 10.8868 37.2352 10.9808 37.4718 10.9808ZM28.5504 27.0393C28.787 27.0393 29.0139 26.9453 29.1812 26.778C29.3485 26.6107 29.4425 26.3837 29.4425 26.1471V10.9808H33.9032C34.1398 10.9808 34.3668 10.8868 34.5341 10.7195C34.7014 10.5522 34.7954 10.3253 34.7954 10.0887C34.7954 9.85206 34.7014 9.62514 34.5341 9.45783C34.3668 9.29053 34.1398 9.19653 33.9032 9.19653H28.5504C28.3138 9.19653 28.0869 9.29053 27.9196 9.45783C27.7523 9.62514 27.6583 9.85206 27.6583 10.0887V26.1471C27.6583 26.3837 27.7523 26.6107 27.9196 26.778C28.0869 26.9453 28.3138 27.0393 28.5504 27.0393ZM48.1774 23.4707C47.9408 23.4707 47.7139 23.5647 47.5466 23.732C47.3793 23.8993 47.2853 24.1263 47.2853 24.3629V26.1471C47.2853 26.3837 47.3793 26.6107 47.5466 26.778C47.7139 26.9453 47.9408 27.0393 48.1774 27.0393C48.414 27.0393 48.6409 26.9453 48.8083 26.778C48.9756 26.6107 49.0696 26.3837 49.0696 26.1471V24.3629C49.0696 24.1263 48.9756 23.8993 48.8083 23.732C48.6409 23.5647 48.414 23.4707 48.1774 23.4707ZM12.4919 32.3921H8.92339C8.68678 32.3921 8.45986 32.4861 8.29255 32.6534C8.12524 32.8207 8.03125 33.0476 8.03125 33.2842V49.3427C8.03125 49.5793 8.12524 49.8062 8.29255 49.9735C8.45986 50.1408 8.68678 50.2348 8.92339 50.2348C9.16 50.2348 9.38691 50.1408 9.55422 49.9735C9.72153 49.8062 9.81552 49.5793 9.81552 49.3427V34.1764H11.5998V38.6371C11.5998 38.8737 11.6938 39.1006 11.8611 39.2679C12.0284 39.4352 12.2553 39.5292 12.4919 39.5292H16.0605C16.2971 39.5292 16.524 39.4352 16.6913 39.2679C16.8586 39.1006 16.9526 38.8737 16.9526 38.6371V33.2842C16.9526 33.0476 16.8586 32.8207 16.6913 32.6534C16.524 32.4861 16.2971 32.3921 16.0605 32.3921C15.8239 32.3921 15.597 32.4861 15.4296 32.6534C15.2623 32.8207 15.1683 33.0476 15.1683 33.2842V37.7449H13.3841V33.2842C13.3841 33.0476 13.2901 32.8207 13.1228 32.6534C12.9555 32.4861 12.7285 32.3921 12.4919 32.3921ZM19.629 41.3135C19.3924 41.3135 19.1655 41.4075 18.9982 41.5748C18.8309 41.7421 18.7369 41.969 18.7369 42.2056V48.4506H12.4919C12.2553 48.4506 12.0284 48.5446 11.8611 48.7119C11.6938 48.8792 11.5998 49.1061 11.5998 49.3427C11.5998 49.5793 11.6938 49.8062 11.8611 49.9735C12.0284 50.1408 12.2553 50.2348 12.4919 50.2348H19.629C19.8656 50.2348 20.0926 50.1408 20.2599 49.9735C20.4272 49.8062 20.5212 49.5793 20.5212 49.3427V42.2056C20.5212 41.969 20.4272 41.7421 20.2599 41.5748C20.0926 41.4075 19.8656 41.3135 19.629 41.3135ZM33.0111 33.2842C33.0111 33.0476 32.9171 32.8207 32.7498 32.6534C32.5825 32.4861 32.3556 32.3921 32.1189 32.3921H19.629C19.3924 32.3921 19.1655 32.4861 18.9982 32.6534C18.8309 32.8207 18.7369 33.0476 18.7369 33.2842V38.6371C18.7369 38.8737 18.8309 39.1006 18.9982 39.2679C19.1655 39.4352 19.3924 39.5292 19.629 39.5292C19.8656 39.5292 20.0926 39.4352 20.2599 39.2679C20.4272 39.1006 20.5212 38.8737 20.5212 38.6371V34.1764H32.1189C32.3556 34.1764 32.5825 34.0824 32.7498 33.9151C32.9171 33.7478 33.0111 33.5208 33.0111 33.2842ZM39.256 32.3921H35.6875C35.4509 32.3921 35.224 32.4861 35.0567 32.6534C34.8894 32.8207 34.7954 33.0476 34.7954 33.2842C34.7954 33.5208 34.8894 33.7478 35.0567 33.9151C35.224 34.0824 35.4509 34.1764 35.6875 34.1764H38.3639V40.4213C38.3639 40.6579 38.4579 40.8849 38.6252 41.0522C38.7925 41.2195 39.0194 41.3135 39.256 41.3135H47.2853V49.3427C47.2853 49.5793 47.3793 49.8062 47.5466 49.9735C47.7139 50.1408 47.9408 50.2348 48.1774 50.2348C48.414 50.2348 48.6409 50.1408 48.8083 49.9735C48.9756 49.8062 49.0696 49.5793 49.0696 49.3427V40.4213C49.0696 40.1847 48.9756 39.9578 48.8083 39.7905C48.6409 39.6232 48.414 39.5292 48.1774 39.5292H40.1482V33.2842C40.1482 33.0476 40.0542 32.8207 39.8869 32.6534C39.7196 32.4861 39.4927 32.3921 39.256 32.3921Z" fill="#3A3A3A"/>
<path d="M48.1746 37.7449C48.4113 37.7449 48.6382 37.6509 48.8055 37.4836C48.9728 37.3163 49.0668 37.0894 49.0668 36.8528V33.2842C49.0668 33.0476 48.9728 32.8207 48.8055 32.6534C48.6382 32.4861 48.4113 32.3921 48.1746 32.3921H42.8218C42.5852 32.3921 42.3583 32.4861 42.191 32.6534C42.0237 32.8207 41.9297 33.0476 41.9297 33.2842V36.8528C41.9297 37.0894 42.0237 37.3163 42.191 37.4836C42.3583 37.6509 42.5852 37.7449 42.8218 37.7449H48.1746ZM43.714 34.1764H47.2825V35.9606H43.714V34.1764Z" fill="#3A3A3A"/>
</svg>
