<svg width="60" height="60" viewBox="0 0 60 60" fill="none" xmlns="http://www.w3.org/2000/svg">
<path d="M5.51172 22.6876L12.6754 51.8521C12.8041 52.376 13.2739 52.7445 13.8134 52.7445H50.1886C50.7282 52.7445 51.198 52.3761 51.3266 51.8521L58.4903 22.6876H5.51172ZM22.0222 42.5469C22.0222 43.453 21.2876 44.1875 20.3815 44.1875C19.4754 44.1875 18.7409 43.453 18.7409 42.5469V31.6973C18.7409 30.7913 19.4754 30.0567 20.3815 30.0567C21.2876 30.0567 22.0222 30.7913 22.0222 31.6973V42.5469ZM29.7685 42.5469C29.7685 43.453 29.0339 44.1875 28.1279 44.1875C27.2218 44.1875 26.4872 43.453 26.4872 42.5469V31.6973C26.4872 30.7913 27.2218 30.0567 28.1279 30.0567C29.0339 30.0567 29.7685 30.7913 29.7685 31.6973V42.5469ZM37.5148 42.5469C37.5148 43.453 36.7803 44.1875 35.8742 44.1875C34.9681 44.1875 34.2336 43.453 34.2336 42.5469V31.6973C34.2336 30.7913 34.9681 30.0567 35.8742 30.0567C36.7803 30.0567 37.5148 30.7913 37.5148 31.6973V42.5469ZM45.2611 42.5469C45.2611 43.453 44.5266 44.1875 43.6205 44.1875C42.7144 44.1875 41.9799 43.453 41.9799 42.5469V31.6973C41.9799 30.7913 42.7144 30.0567 43.6205 30.0567C44.5266 30.0567 45.2611 30.7913 45.2611 31.6973V42.5469Z" fill="#F6874D"/>
<path d="M8.53633 45.1501L10.6738 53.8501C10.8027 54.3751 11.2727 54.7431 11.8117 54.7431H48.1867C48.7258 54.7431 49.1957 54.3751 49.3246 53.8501L55.8051 27.4689M7.55781 41.1634L4.19336 27.4689M20.0204 44.5456C20.0204 45.4516 19.2858 46.1862 18.3797 46.1862C17.4736 46.1862 16.7391 45.4516 16.7391 44.5456V33.696C16.7391 32.7899 17.4736 32.0554 18.3797 32.0554C19.2858 32.0554 20.0204 32.7899 20.0204 33.696V44.5456ZM27.7667 44.5456C27.7667 45.4516 27.0321 46.1862 26.1261 46.1862C25.22 46.1862 24.4854 45.4516 24.4854 44.5456V33.696C24.4854 32.7899 25.22 32.0554 26.1261 32.0554C27.0321 32.0554 27.7667 32.7899 27.7667 33.696V44.5456ZM35.513 44.5456C35.513 45.4516 34.7785 46.1862 33.8724 46.1862C32.9663 46.1862 32.2318 45.4516 32.2318 44.5456V33.696C32.2318 32.7899 32.9663 32.0554 33.8724 32.0554C34.7785 32.0554 35.513 32.7899 35.513 33.696V44.5456ZM43.2593 44.5456C43.2593 45.4516 42.5248 46.1862 41.6187 46.1862C40.7126 46.1862 39.9781 45.4516 39.9781 44.5456V33.696C39.9781 32.7899 40.7126 32.0554 41.6187 32.0554C42.5248 32.0554 43.2593 32.7899 43.2593 33.696V44.5456Z" stroke="#3A3A3A" stroke-width="1.5" stroke-miterlimit="10" stroke-linecap="round" stroke-linejoin="round"/>
<path d="M53.5066 21.9045H57.9492C58.5961 21.9045 59.1211 22.4284 59.1211 23.0764V26.2979C59.1211 26.9459 58.5961 27.4698 57.9492 27.4698H2.05078C1.40391 27.4698 0.878906 26.9459 0.878906 26.2979V23.0764C0.878906 22.4284 1.40391 21.9045 2.05078 21.9045H15.6926" stroke="#3A3A3A" stroke-width="1.5" stroke-miterlimit="10" stroke-linecap="round" stroke-linejoin="round"/>
<path d="M49.4043 21.9044H44.3066" stroke="#3A3A3A" stroke-width="1.5" stroke-miterlimit="10" stroke-linecap="round" stroke-linejoin="round"/>
<path d="M40.6133 22.1427H20" stroke="#3A3A3A" stroke-width="1.5" stroke-miterlimit="10" stroke-linecap="round" stroke-linejoin="round"/>
<path d="M24.8028 6.12282L15.6602 21.9583C15.1816 22.7871 15.4657 23.8471 16.2945 24.3257C17.1234 24.8043 18.1834 24.5202 18.662 23.6913L27.8046 7.85591C28.2832 7.02704 27.9991 5.96708 27.1703 5.48849C26.3414 5.00989 25.2813 5.29384 24.8028 6.12282Z" stroke="#3A3A3A" stroke-width="1.5" stroke-miterlimit="10" stroke-linecap="round" stroke-linejoin="round"/>
<path d="M35.1971 6.12282L44.3397 21.9583C44.8183 22.7871 44.5343 23.8471 43.7054 24.3257C42.8765 24.8043 41.8166 24.5202 41.338 23.6913L32.1954 7.85591C31.7168 7.02704 32.0008 5.96708 32.8297 5.48849C33.6586 5.00989 34.7187 5.29384 35.1971 6.12282Z" stroke="#3A3A3A" stroke-width="1.5" stroke-miterlimit="10" stroke-linecap="round" stroke-linejoin="round"/>
<path d="M50.0814 50.7736H9.91797" stroke="#3A3A3A" stroke-width="1.5" stroke-miterlimit="10" stroke-linecap="round" stroke-linejoin="round"/>
</svg>
