<svg width="25" height="25" viewBox="0 0 25 25" fill="none" xmlns="http://www.w3.org/2000/svg">
<path fill-rule="evenodd" clip-rule="evenodd" d="M7.76071 1.05347C5.94748 1.45828 4.78899 3.22436 5.15937 5.01899C5.24333 5.42578 5.39611 5.80699 5.60823 6.13883L5.76056 6.37721L4.28995 6.37788C3.13339 6.37838 2.75749 6.39312 2.52982 6.4468C1.82909 6.61212 1.23454 7.2076 1.06919 7.90977C0.989316 8.24885 0.973953 9.87399 1.04763 10.1937C1.17314 10.7388 1.64068 11.3351 2.11178 11.5512L2.34762 11.6594L2.34829 16.9198C2.34901 22.7408 2.33837 22.5166 2.63777 23.0081C2.82047 23.308 3.05218 23.5379 3.36088 23.7253C3.83808 24.0151 3.32845 23.9998 12.5 23.9998C21.716 23.9998 21.1575 24.0174 21.6601 23.7108C21.9598 23.5279 22.1894 23.296 22.3767 22.9871C22.6594 22.5208 22.6509 22.7077 22.6517 16.9198L22.6523 11.6594L22.8882 11.5512C23.3593 11.3351 23.8268 10.7388 23.9523 10.1937C24.0262 9.87309 24.0106 8.24881 23.9305 7.90833C23.8116 7.40398 23.477 6.9539 23.0078 6.6676C22.579 6.40598 22.3621 6.3786 20.71 6.37788L19.2394 6.37721L19.3917 6.13883C19.8771 5.37952 20.0335 4.35679 19.7989 3.47735C19.4994 2.35445 18.5398 1.39983 17.3965 1.08741C17.0323 0.987872 16.056 0.975328 15.6894 1.06543C14.9629 1.24409 14.2565 1.77002 13.7796 2.48726C13.4976 2.91145 13.1132 3.69994 12.7655 4.5676C12.6342 4.89527 12.5147 5.16331 12.5 5.16331C12.4852 5.16331 12.3658 4.89527 12.2345 4.5676C11.8867 3.69994 11.5023 2.91145 11.2203 2.48726C10.7593 1.79376 10.0936 1.28316 9.40036 1.09114C9.02881 0.988277 8.1439 0.967956 7.76071 1.05347ZM8.08482 2.37481C7.27825 2.52111 6.60397 3.22585 6.4746 4.05777C6.3091 5.12141 7.06177 6.15906 8.12516 6.33333C8.44761 6.3862 11.4668 6.39218 11.4668 6.33998C11.4668 6.24291 10.6349 4.25626 10.4099 3.81611C9.9684 2.95222 9.66356 2.61966 9.15329 2.44504C8.88596 2.35355 8.38387 2.32055 8.08482 2.37481ZM16.1611 2.3607C15.426 2.51909 15.0973 2.8236 14.59 3.81611C14.3651 4.25626 13.5332 6.24291 13.5332 6.33998C13.5332 6.39218 16.5523 6.3862 16.8748 6.33333C17.9382 6.15906 18.6908 5.12141 18.5254 4.05777C18.3925 3.20346 17.7148 2.51243 16.8748 2.37477C16.6071 2.33089 16.3252 2.32531 16.1611 2.3607ZM2.72052 7.81949C2.39685 7.97982 2.34762 8.14558 2.34762 9.07475C2.34762 9.77135 2.35759 9.87628 2.44016 10.0469C2.50736 10.1859 2.58508 10.2636 2.72389 10.3309C2.9118 10.4219 2.97334 10.4235 6.35987 10.4235H9.80466V9.07475V7.72598L6.3569 7.72602C2.95618 7.72607 2.90658 7.72733 2.72052 7.81949ZM11.1523 15.1892V22.6524H12.5H13.8476V15.1892V7.72598H12.5H11.1523V15.1892ZM15.1953 9.07475V10.4235H18.6401C22.0266 10.4235 22.0882 10.4219 22.2761 10.3309C22.4149 10.2636 22.4926 10.1859 22.5598 10.0469C22.6424 9.87628 22.6523 9.77135 22.6523 9.07475C22.6523 8.37815 22.6424 8.27322 22.5598 8.10256C22.4926 7.96363 22.4149 7.88585 22.2761 7.81859C22.0882 7.72755 22.0266 7.72598 18.6401 7.72598H15.1953V9.07475ZM3.69528 16.9284C3.69528 22.0427 3.69604 22.086 3.78782 22.2758C3.85502 22.4147 3.93274 22.4925 4.07154 22.5598C4.25824 22.6502 4.32755 22.6524 7.0337 22.6524H9.80466V17.2123V11.7723H6.74997H3.69528V16.9284ZM15.1953 17.2123V22.6524H17.9663C20.6724 22.6524 20.7417 22.6502 20.9284 22.5598C21.0672 22.4925 21.1449 22.4147 21.2121 22.2758C21.3039 22.086 21.3047 22.0427 21.3047 16.9284V11.7723H18.25H15.1953V17.2123Z" fill="white"/>
</svg>
