<svg width="35" height="35" viewBox="0 0 35 35" fill="none" xmlns="http://www.w3.org/2000/svg">
<path d="M33.181 28.157H31.3951V20.9965C31.3951 19.2828 30.6962 17.6625 29.4273 16.4339C28.2795 15.3226 26.7804 14.6439 25.1651 14.4949V13.4684C25.1651 12.9164 24.716 12.4674 24.1641 12.4674H21.5812C21.0292 12.4674 20.5802 12.9164 20.5802 13.4684V14.2803H19.8538V9.94226C20.366 9.89718 20.7692 9.46638 20.7692 8.94264V7.56362H21.5901C22.1437 7.56362 22.5942 7.11319 22.5942 6.55955V4.71311C22.5942 4.21256 22.2256 3.79758 21.7458 3.72234L21.3745 1.61352C21.3019 1.20952 20.9144 0.939576 20.5123 1.01165L17.1268 1.60764C17.0306 1.62454 16.9387 1.66032 16.8564 1.7129C16.7741 1.76548 16.703 1.83383 16.6472 1.91401C16.591 1.99392 16.5512 2.08421 16.5301 2.17962C16.5091 2.27504 16.5072 2.37368 16.5245 2.46984L16.7428 3.70898H15.0672L15.3041 2.82457C15.4095 2.43096 15.1749 2.02347 14.7792 1.91569L11.4554 1.02566C11.0613 0.920202 10.6538 1.15501 10.5465 1.55062L9.96855 3.70898H8.7515V2.47487C8.7515 2.06454 8.41763 1.73067 8.00729 1.73067H4.57105C4.16072 1.73067 3.82684 2.06454 3.82684 2.47487V3.70898H3.76698C3.58082 3.70837 3.3982 3.7598 3.23971 3.85747C3.08123 3.95513 2.95319 4.09514 2.87004 4.26171C2.78592 4.42764 2.74983 4.61379 2.76585 4.79914C2.78187 4.98449 2.84936 5.16168 2.96071 5.31073L4.33017 7.15852C4.42393 7.28397 4.5456 7.38589 4.68555 7.4562C4.8255 7.52651 4.97989 7.56329 5.1365 7.56362H7.9276C8.05606 7.56362 8.17925 7.5126 8.27008 7.42176C8.36092 7.33093 8.41194 7.20774 8.41194 7.07928C8.41194 6.95083 8.36092 6.82763 8.27008 6.7368C8.17925 6.64597 8.05606 6.59494 7.9276 6.59494H5.1365C5.13099 6.59499 5.12553 6.59377 5.12057 6.59136C5.11561 6.58895 5.11127 6.58542 5.1079 6.58106L3.73869 4.73365C3.73321 4.72629 3.72571 4.71621 3.7354 4.69703C3.74509 4.67772 3.75775 4.67772 3.76692 4.67772H14.4349L14.4363 4.67779L14.4375 4.67772H21.5902C21.6093 4.67772 21.6256 4.69393 21.6256 4.71311V6.55955C21.6254 6.5689 21.6217 6.57783 21.6151 6.58445C21.6085 6.59106 21.5995 6.59482 21.5902 6.59494H10.2015C10.073 6.59494 9.94984 6.64597 9.85901 6.7368C9.76818 6.82763 9.71715 6.95083 9.71715 7.07928C9.71715 7.20774 9.76818 7.33093 9.85901 7.42176C9.94984 7.5126 10.073 7.56362 10.2015 7.56362H14.4924V8.94264C14.4924 9.46638 14.8957 9.89718 15.4078 9.94226V14.2803H11.1296V13.1527C11.1296 12.2931 10.49 11.5937 9.70378 11.5937H2.66371C1.91434 11.5937 1.07617 12.2604 1.07617 13.1527V32.441C1.07617 33.3006 1.71544 34 2.5013 34H16.8805C17.6663 34 18.3056 33.3006 18.3056 32.441V27.9503C18.3056 27.8218 18.2546 27.6986 18.1638 27.6078C18.0729 27.517 17.9497 27.4659 17.8213 27.4659C17.6928 27.4659 17.5696 27.517 17.4788 27.6078C17.388 27.6986 17.3369 27.8218 17.3369 27.9503V32.441C17.3369 32.761 17.1279 33.0313 16.8805 33.0313H2.5013C2.2539 33.0313 2.04485 32.7609 2.04485 32.441V13.1527C2.04485 12.8487 2.39345 12.5624 2.66371 12.5624H9.70385C9.95157 12.5624 10.1609 12.8327 10.1609 13.1527V18.1242C10.1609 20.7296 12.3316 22.8492 14.9996 22.8492H16.8804C17.1278 22.8492 17.3369 23.1198 17.3369 23.4401V25.6763C17.3369 25.8048 17.3879 25.928 17.4787 26.0188C17.5696 26.1096 17.6928 26.1607 17.8212 26.1607C17.9497 26.1607 18.0729 26.1096 18.1637 26.0188C18.2545 25.928 18.3056 25.8048 18.3056 25.6763V23.4401C18.3056 22.5801 17.6663 21.8805 16.8804 21.8805H14.9996C13.6395 21.8805 12.442 21.1954 11.7516 20.1626H20.5802V20.9744C20.5802 21.5264 21.0292 21.9754 21.5812 21.9754H24.1642C24.7161 21.9754 25.1651 21.5264 25.1651 20.9744V20.1125C25.5897 20.2901 25.8785 20.6255 25.8785 20.9965V28.1569H20.0179C19.6084 28.1569 19.2753 28.4901 19.2753 28.8996V31.1908C19.2753 32.7398 20.5355 34 22.0845 34H31.1145C32.6634 34 33.9236 32.7398 33.9236 31.1908V28.8996C33.9236 28.4901 33.5905 28.157 33.181 28.157ZM17.5174 2.52247L20.4597 2.00448L20.7599 3.70904H17.7263L17.5174 2.52247ZM11.4236 2.01998L14.3097 2.79286L14.0643 3.70904H10.9714L11.4236 2.01998ZM4.7954 2.69935H7.78275V3.70904H4.7954V2.69935ZM30.4264 20.9965V28.157H29.1211V20.9965C29.1211 18.8584 27.4177 17.0835 25.1651 16.7824V15.469C28.1084 15.789 30.4264 18.1761 30.4264 20.9965ZM19.8005 7.56369V8.94271C19.8005 8.9521 19.7968 8.96111 19.7901 8.96775C19.7835 8.9744 19.7745 8.97814 19.7651 8.97816H15.4966C15.4872 8.97814 15.4782 8.9744 15.4715 8.96775C15.4649 8.96111 15.4612 8.9521 15.4612 8.94271V7.56369H19.8005ZM16.3766 9.94678H18.8851V14.2803H16.3766V9.94678ZM11.2904 19.194C11.1839 18.8474 11.1297 18.4868 11.1296 18.1242V15.249H20.5802V19.194H11.2904ZM24.1964 20.9745C24.1964 20.983 24.193 20.9912 24.187 20.9973C24.1809 21.0033 24.1727 21.0068 24.1642 21.0068H21.5812C21.5726 21.0068 21.5644 21.0033 21.5584 20.9973C21.5523 20.9912 21.5489 20.983 21.5489 20.9745V13.4683C21.5489 13.4598 21.5523 13.4516 21.5584 13.4455C21.5644 13.4394 21.5726 13.436 21.5812 13.436H24.1642C24.1727 13.436 24.1809 13.4394 24.187 13.4455C24.193 13.4516 24.1964 13.4598 24.1964 13.4683V20.9745ZM25.1651 19.0931V17.7624C26.8757 18.0474 28.1524 19.3894 28.1524 20.9965V28.157H26.8471V20.9965C26.8471 20.0999 26.1496 19.3382 25.1651 19.0931ZM32.955 31.1908C32.955 32.2057 32.1293 33.0313 31.1145 33.0313H22.0845C21.0696 33.0313 20.244 32.2057 20.244 31.1908V29.1257H32.955V31.1908Z" fill="#3A3A3A"/>
<path d="M10.4585 32.2424C11.3978 32.2424 12.1619 31.4784 12.1619 30.5391C12.1619 29.5999 11.3978 28.8358 10.4585 28.8358C9.51938 28.8358 8.75528 29.5999 8.75528 30.5391C8.75528 31.4784 9.51931 32.2424 10.4585 32.2424ZM10.4585 29.8045C10.8637 29.8045 11.1932 30.134 11.1932 30.5391C11.1932 30.9442 10.8637 31.2738 10.4585 31.2738C10.0535 31.2738 9.72396 30.9442 9.72396 30.5391C9.72396 30.134 10.0534 29.8045 10.4585 29.8045ZM12.9627 30.5391C12.9627 31.4784 13.7268 32.2424 14.666 32.2424C15.6052 32.2424 16.3693 31.4784 16.3693 30.5391C16.3693 29.5999 15.6052 28.8358 14.666 28.8358C13.7268 28.8358 12.9627 29.5999 12.9627 30.5391ZM15.4006 30.5391C15.4006 30.9442 15.0711 31.2738 14.666 31.2738C14.2609 31.2738 13.9313 30.9442 13.9313 30.5391C13.9313 30.134 14.2609 29.8045 14.666 29.8045C15.0711 29.8045 15.4006 30.134 15.4006 30.5391ZM3.75778 23.9589H9.36329C9.49174 23.9589 9.61494 23.9079 9.70577 23.8171C9.7966 23.7262 9.84763 23.603 9.84763 23.4746C9.84763 23.3461 9.7966 23.2229 9.70577 23.1321C9.61494 23.0413 9.49174 22.9902 9.36329 22.9902H3.75778C3.62932 22.9902 3.50613 23.0413 3.4153 23.1321C3.32447 23.2229 3.27344 23.3461 3.27344 23.4746C3.27344 23.603 3.32447 23.7262 3.4153 23.8171C3.50613 23.9079 3.62932 23.9589 3.75778 23.9589ZM3.75778 25.6282H9.36329C9.49174 25.6282 9.61494 25.5772 9.70577 25.4864C9.7966 25.3955 9.84763 25.2723 9.84763 25.1439C9.84763 25.0154 9.7966 24.8922 9.70577 24.8014C9.61494 24.7106 9.49174 24.6595 9.36329 24.6595H3.75778C3.62932 24.6595 3.50613 24.7106 3.4153 24.8014C3.32447 24.8922 3.27344 25.0154 3.27344 25.1439C3.27344 25.2723 3.32447 25.3955 3.4153 25.4864C3.50613 25.5772 3.62932 25.6282 3.75778 25.6282ZM3.75778 27.2975H9.36329C9.49174 27.2975 9.61494 27.2465 9.70577 27.1557C9.7966 27.0648 9.84763 26.9416 9.84763 26.8132C9.84763 26.6847 9.7966 26.5615 9.70577 26.4707C9.61494 26.3799 9.49174 26.3288 9.36329 26.3288H3.75778C3.62932 26.3288 3.50613 26.3799 3.4153 26.4707C3.32447 26.5615 3.27344 26.6847 3.27344 26.8132C3.27344 26.9416 3.32447 27.0648 3.4153 27.1557C3.50613 27.2465 3.62932 27.2975 3.75778 27.2975Z" fill="#3A3A3A"/>
</svg>
