<svg width="35" height="35" viewBox="0 0 35 35" fill="none" xmlns="http://www.w3.org/2000/svg">
<path d="M7.98191 21.6686C5.1573 20.1783 4.29673 16.5383 6.15494 13.941L9.73287 8.93985L17.5 13.0377M7.98191 21.6686C10.8065 23.1588 14.2968 21.8142 15.3917 18.8142L17.5 13.0377M7.98191 21.6686L5.42076 26.523M17.5 13.0377L25.2672 8.93978L28.8451 13.941C29.9633 15.5039 30.097 17.4443 29.4107 19.0667M17.5 13.0377L19.6083 18.8142C20.7032 21.8142 24.1935 23.1588 27.0182 21.6686C27.4267 21.4536 27.8053 21.186 28.1444 20.8727M5.42076 26.523L0.512695 26.4159L8.27982 30.5137L5.42076 26.523ZM27.0181 21.6686L29.5792 26.523M29.5792 26.523L34.4873 26.4159L26.7202 30.5137L29.5792 26.523ZM7.09912 17.1728H5.285M15.9268 17.1728H9.29455M29.7701 17.1728H19.1604M17.5275 8.39093V4M15.3321 8.93978L13.6855 7.29321M19.723 8.93978L21.3696 7.29321" stroke="#3A3A3A" stroke-miterlimit="10" stroke-linecap="round" stroke-linejoin="round"/>
</svg>
