<svg width="16" height="16" viewBox="0 0 16 16" fill="none" xmlns="http://www.w3.org/2000/svg">
<path d="M7.99971 0.336426C7.93011 0.336426 7.86079 0.358501 7.80159 0.403301L0.441588 6.14768C0.303988 6.25647 0.278413 6.4575 0.387213 6.5983C0.496013 6.7359 0.697038 6.76148 0.837838 6.65268L1.27971 6.30767V14.7202C1.27971 14.8962 1.42371 15.0402 1.59971 15.0402H6.07971V9.28018H9.91971V15.0402H14.3997C14.5757 15.0402 14.7197 14.8962 14.7197 14.7202V6.30767L15.1616 6.65268C15.2224 6.69748 15.2893 6.72018 15.3597 6.72018C15.4557 6.72018 15.5482 6.6783 15.6122 6.5983C15.721 6.4575 15.6954 6.25647 15.5578 6.14768L8.19784 0.403301C8.13864 0.358501 8.06931 0.336426 7.99971 0.336426ZM11.1997 1.60018V1.93643L13.1197 3.43393V1.60018H11.1997Z" fill="#E7D5B3"/>
</svg>
