<svg width="26" height="26" viewBox="0 0 26 26" fill="none" xmlns="http://www.w3.org/2000/svg">
<path d="M19.0226 2.51471C18.4665 2.51472 17.9104 2.72455 17.4907 3.14419L15.6615 4.97337C15.6438 4.99057 15.6269 5.00858 15.6108 5.02732C14.6908 4.92919 13.6726 4.87498 12.5438 4.87498C9.74543 4.87498 7.80979 5.18928 6.47437 5.76154C5.13896 6.33379 4.33416 7.31794 4.33416 8.39581C4.33416 9.47379 5.13892 10.4579 6.47437 11.0301C7.80983 11.6023 9.74569 11.9166 12.5438 11.9166C15.3419 11.9166 17.4925 11.5966 19.0237 11.0481C19.7893 10.7738 20.4048 10.444 20.8719 10.0187C21.339 9.59335 21.6675 9.02195 21.6675 8.39581C21.6675 7.76973 21.34 7.19829 20.873 6.77293C20.7226 6.63597 20.5517 6.5116 20.3705 6.39313L20.5545 6.20905C21.3931 5.36958 21.3947 3.9835 20.5545 3.14419C20.1347 2.72479 19.5788 2.5147 19.0226 2.51471ZM12.5438 11.9166H4.60499H4.06332C3.87013 11.9146 3.68254 11.9815 3.53419 12.1053C3.38585 12.229 3.28646 12.4016 3.25385 12.592C3.22124 12.7825 3.25755 12.9783 3.35626 13.1444C3.45497 13.3104 3.60963 13.4359 3.79249 13.4983V21.71C3.60963 21.7724 3.45497 21.8979 3.35626 22.0639C3.25755 22.23 3.22124 22.4258 3.25385 22.6163C3.28646 22.8067 3.38585 22.9793 3.53419 23.103C3.68254 23.2268 3.87013 23.2937 4.06332 23.2916H4.60499H21.9383H22.48C22.6732 23.2937 22.8608 23.2268 23.0091 23.103C23.1575 22.9793 23.2569 22.8067 23.2895 22.6163C23.3221 22.4258 23.2858 22.23 23.1871 22.0639C23.0883 21.8979 22.9337 21.7724 22.7508 21.71V13.4983C22.9337 13.4359 23.0883 13.3104 23.1871 13.1444C23.2858 12.9783 23.3221 12.7825 23.2895 12.592C23.2569 12.4016 23.1575 12.229 23.0091 12.1053C22.8608 11.9815 22.6732 11.9146 22.48 11.9166H21.9383H12.5438ZM19.0226 4.13019C19.1595 4.13039 19.2962 4.1849 19.4056 4.29417C19.6238 4.51219 19.6243 4.84117 19.4056 5.06012L18.7962 5.66949C18.4277 5.54741 18.0269 5.43745 17.5912 5.34153L18.6397 4.29311C18.7487 4.18408 18.8857 4.12998 19.0226 4.13019ZM12.5438 6.49998C15.2146 6.49998 17.2195 6.82292 18.4767 7.27334C19.1053 7.49854 19.5412 7.75804 19.778 7.97369C20.0148 8.18934 20.0425 8.3115 20.0425 8.39581C20.0425 8.48007 20.0148 8.60227 19.778 8.81793C19.5412 9.0336 19.1043 9.29308 18.4757 9.51829C17.2184 9.96871 15.2144 10.2916 12.5438 10.2916C9.87322 10.2916 8.1103 9.963 7.11443 9.53627C6.11855 9.10955 5.95916 8.73863 5.95916 8.39581C5.95916 8.0529 6.11864 7.68207 7.11443 7.25535C8.11021 6.82863 9.87295 6.49998 12.5438 6.49998ZM5.41749 13.5416H21.1258V21.6666H5.41749V13.5416Z" fill="#04A3E9"/>
<path d="M17.605 15.1666H13.2717H8.93832V16.7916H13.2717H17.605V15.1666Z" fill="#04A3E9"/>
<path d="M17.605 17.875H13.2717H8.93832V19.5H13.2717H17.605V17.875Z" fill="#04A3E9"/>
</svg>
