<svg width="22" height="22" viewBox="0 0 22 22" fill="none" xmlns="http://www.w3.org/2000/svg">
<path d="M16.1566 2.29701C15.9786 2.29052 15.7979 2.30955 15.6213 2.35609C15.2683 2.44917 14.9343 2.65035 14.6814 2.9675C13.2543 4.75619 12.3754 7.60457 12.3754 11.4932V11.8665C12.3754 12.8582 12.9378 13.7684 13.8247 14.2119L14.2087 14.4044V17.875C14.2087 18.8793 15.0377 19.7083 16.0421 19.7083C17.0437 19.7083 17.8754 18.8829 17.8754 17.8786V4.08379C17.8754 3.27222 17.3302 2.62188 16.6741 2.3928C16.51 2.33552 16.3347 2.3035 16.1566 2.29701ZM4.34382 2.74013C4.16164 2.74297 3.98804 2.81801 3.86115 2.94876C3.73426 3.07952 3.66445 3.25529 3.66706 3.43747V6.18747V8.02081C3.66606 8.09363 3.67664 8.16615 3.69839 8.23565C3.76976 9.34506 4.36678 10.2945 5.24795 10.8702C5.12413 13.9373 5.04206 16.8781 5.04206 17.3021C5.04206 18.5485 5.88069 19.7083 7.10456 19.7083C8.32844 19.7083 9.16706 18.5485 9.16706 17.3021C9.16706 16.8787 9.08531 13.9357 8.96117 10.8702C9.84338 10.2938 10.4404 9.34274 10.5107 8.23207C10.5321 8.16371 10.5427 8.09243 10.5421 8.02081V6.18747V3.43747C10.5434 3.34637 10.5265 3.25592 10.4925 3.17138C10.4586 3.08684 10.4081 3.00989 10.3442 2.94502C10.2802 2.88014 10.204 2.82862 10.1199 2.79345C10.0359 2.75829 9.94567 2.74018 9.85456 2.74018C9.76345 2.74018 9.67325 2.75829 9.5892 2.79345C9.50515 2.82862 9.42892 2.88014 9.36495 2.94502C9.30099 3.00989 9.25055 3.08684 9.21658 3.17138C9.18261 3.25592 9.16577 3.34637 9.16706 3.43747V6.17852V6.18747C9.16706 6.57545 8.86754 6.87497 8.47956 6.87497C8.09158 6.87497 7.79206 6.57545 7.79206 6.18747V3.43747C7.79335 3.34637 7.77652 3.25592 7.74255 3.17138C7.70858 3.08684 7.65814 3.00989 7.59417 2.94502C7.5302 2.88014 7.45398 2.82862 7.36993 2.79345C7.28588 2.75829 7.19567 2.74018 7.10456 2.74018C7.01345 2.74018 6.92325 2.75829 6.8392 2.79345C6.75515 2.82862 6.67892 2.88014 6.61495 2.94502C6.55098 3.00989 6.50055 3.08684 6.46658 3.17138C6.43261 3.25592 6.41577 3.34637 6.41706 3.43747V6.17852V6.18747C6.41706 6.57545 6.11754 6.87497 5.72956 6.87497C5.34158 6.87497 5.04206 6.57545 5.04206 6.18747V3.43747C5.04338 3.34546 5.02622 3.25411 4.99158 3.16885C4.95695 3.08359 4.90555 3.00615 4.84044 2.94111C4.77532 2.87608 4.69782 2.82479 4.61251 2.79026C4.5272 2.75574 4.43584 2.73869 4.34382 2.74013ZM16.0994 3.66127C16.1394 3.66568 16.1797 3.67635 16.2211 3.69081C16.3867 3.74864 16.5004 3.84991 16.5004 4.08379V17.8786C16.5004 18.1401 16.3063 18.3333 16.0421 18.3333C15.7805 18.3333 15.5837 18.1366 15.5837 17.875V13.9791C15.5838 13.8515 15.5483 13.7264 15.4813 13.6178C15.4142 13.5091 15.3183 13.4213 15.2042 13.3642L14.4397 12.9819C14.0158 12.77 13.7504 12.3406 13.7504 11.8665V11.4932C13.7504 7.81478 14.6069 5.2649 15.7556 3.82509C15.865 3.68792 15.9793 3.64804 16.0994 3.66127ZM7.10456 7.69765C7.47181 8.03229 7.94883 8.24997 8.47956 8.24997C8.71289 8.24997 8.92939 8.18857 9.13931 8.1157C9.10017 8.90349 8.64696 9.57494 7.97199 9.88905C7.84863 9.94632 7.74502 10.0389 7.67427 10.1551C7.60352 10.2712 7.56881 10.4057 7.57453 10.5416C7.71217 13.8057 7.79206 17.067 7.79206 17.3021C7.79206 17.954 7.3996 18.3333 7.10456 18.3333C6.80952 18.3333 6.41706 17.954 6.41706 17.3021C6.41706 17.0677 6.4974 13.8076 6.63459 10.5416C6.64032 10.4057 6.60561 10.2712 6.53486 10.1551C6.46411 10.0389 6.3605 9.94632 6.23713 9.88905C5.562 9.57487 5.10895 8.90394 5.06981 8.1157C5.27974 8.18857 5.49623 8.24997 5.72956 8.24997C6.2603 8.24997 6.73732 8.03229 7.10456 7.69765Z" fill="#04A3E9"/>
</svg>
