<svg width="22" height="22" viewBox="0 0 22 22" fill="none" xmlns="http://www.w3.org/2000/svg">
<path d="M1.60452 2.74995C1.51342 2.74866 1.42297 2.76549 1.33843 2.79946C1.25389 2.83343 1.17694 2.88387 1.11206 2.94784C1.04718 3.0118 0.995663 3.08803 0.960499 3.17208C0.925335 3.25613 0.907227 3.34634 0.907227 3.43745C0.907227 3.52856 0.925335 3.61876 0.960499 3.70281C0.995663 3.78686 1.04718 3.86309 1.11206 3.92706C1.17694 3.99102 1.25389 4.04146 1.33843 4.07543C1.42297 4.1094 1.51342 4.12623 1.60452 4.12495H2.86762C3.20126 4.12495 3.47937 4.35545 3.54259 4.68354L3.67955 5.39969L5.1575 13.1618C5.42476 14.5623 6.65862 15.5833 8.08474 15.5833H16.666C18.0921 15.5833 19.3265 14.5627 19.5932 13.1618L21.0711 5.39969C21.0901 5.3003 21.0869 5.19796 21.0618 5.09996C21.0366 5.00196 20.9901 4.91072 20.9257 4.83274C20.8612 4.75476 20.7803 4.69197 20.6888 4.64885C20.5973 4.60573 20.4974 4.58334 20.3962 4.58328H4.92296L4.89342 4.42662C4.70865 3.45832 3.85355 2.74995 2.86762 2.74995H1.60452ZM5.18525 5.95828H19.5655L18.2424 12.9049C18.0975 13.6656 17.4408 14.2083 16.666 14.2083H8.08474C7.31022 14.2083 6.65388 13.6655 6.50833 12.9049V12.904L5.18525 5.95828ZM9.16702 16.4999C8.80234 16.4999 8.45261 16.6448 8.19475 16.9027C7.93688 17.1605 7.79202 17.5103 7.79202 17.8749C7.79202 18.2396 7.93688 18.5894 8.19475 18.8472C8.45261 19.1051 8.80234 19.2499 9.16702 19.2499C9.53169 19.2499 9.88143 19.1051 10.1393 18.8472C10.3972 18.5894 10.542 18.2396 10.542 17.8749C10.542 17.5103 10.3972 17.1605 10.1393 16.9027C9.88143 16.6448 9.53169 16.4999 9.16702 16.4999ZM15.5837 16.4999C15.219 16.4999 14.8693 16.6448 14.6114 16.9027C14.3535 17.1605 14.2087 17.5103 14.2087 17.8749C14.2087 18.2396 14.3535 18.5894 14.6114 18.8472C14.8693 19.1051 15.219 19.2499 15.5837 19.2499C15.9484 19.2499 16.2981 19.1051 16.556 18.8472C16.8138 18.5894 16.9587 18.2396 16.9587 17.8749C16.9587 17.5103 16.8138 17.1605 16.556 16.9027C16.2981 16.6448 15.9484 16.4999 15.5837 16.4999Z" fill="#04A3E9"/>
</svg>
