<svg width="22" height="22" viewBox="0 0 22 22" fill="none" xmlns="http://www.w3.org/2000/svg">
<path d="M6.87467 3.20831C4.09829 3.20831 1.83301 5.4736 1.83301 8.24998C1.83301 10.1274 3.24818 11.8951 4.97331 13.7079C6.69844 15.5208 8.82185 17.3568 10.5136 19.0486C10.6425 19.1774 10.8174 19.2498 10.9997 19.2498C11.182 19.2498 11.3568 19.1774 11.4858 19.0486C13.1775 17.3568 15.3009 15.5208 17.026 13.7079C18.7512 11.8951 20.1663 10.1274 20.1663 8.24998C20.1663 5.4736 17.9011 3.20831 15.1247 3.20831C13.5313 3.20831 12.1441 4.06379 10.9997 5.51699C9.8553 4.06379 8.46804 3.20831 6.87467 3.20831ZM6.87467 4.58331C8.21694 4.58331 9.33423 5.29758 10.4187 7.01284C10.4807 7.11081 10.5665 7.19151 10.6681 7.24744C10.7697 7.30336 10.8837 7.33268 10.9997 7.33268C11.1156 7.33268 11.2297 7.30336 11.3313 7.24744C11.4328 7.19151 11.5186 7.11081 11.5806 7.01284C12.6651 5.29758 13.7824 4.58331 15.1247 4.58331C17.158 4.58331 18.7913 6.21661 18.7913 8.24998C18.7913 9.35174 17.6857 11.0216 16.0306 12.7608C14.5213 14.3468 12.6452 16.0038 10.9997 17.6082C9.35411 16.0038 7.47803 14.3468 5.96875 12.7608C4.31367 11.0216 3.20801 9.35174 3.20801 8.24998C3.20801 6.21661 4.84131 4.58331 6.87467 4.58331Z" fill="#04A3E9"/>
</svg>
