<svg width="22" height="22" viewBox="0 0 22 22" fill="none" xmlns="http://www.w3.org/2000/svg">
<g clip-path="url(#clip0_154_2867)">
<path fill-rule="evenodd" clip-rule="evenodd" d="M10.6075 3.86965C12.646 3.86965 14.2767 5.49006 14.2767 7.46211C14.2767 9.43417 12.646 11.0546 10.6075 11.0546C8.56898 11.0546 6.93836 9.43417 6.93836 7.46211C6.93836 5.49006 8.56898 3.86965 10.6075 3.86965ZM15.7302 7.46211C15.7302 4.66326 13.4246 2.41608 10.6075 2.41608C7.79042 2.41608 5.48478 4.66326 5.48478 7.46211C5.48478 10.261 7.79042 12.5082 10.6075 12.5082C13.4246 12.5082 15.7302 10.261 15.7302 7.46211ZM10.6075 15.5705C14.2785 15.5705 17.4306 17.3947 19.0217 20.0196C19.2298 20.3629 19.6767 20.4724 20.02 20.2644C20.3632 20.0563 20.4728 19.6094 20.2647 19.2661C18.3919 16.1764 14.7505 14.1169 10.6075 14.1169C6.46455 14.1169 2.82307 16.1764 0.95027 19.2661C0.742208 19.6094 0.851803 20.0563 1.19506 20.2644C1.53832 20.4724 1.98525 20.3629 2.19332 20.0196C3.78437 17.3947 6.93649 15.5705 10.6075 15.5705Z" fill="#04A3E9"/>
</g>
<defs>
<clipPath id="clip0_154_2867">
<rect width="22" height="22" fill="white"/>
</clipPath>
</defs>
</svg>
