<svg width="26" height="26" viewBox="0 0 26 26" fill="none" xmlns="http://www.w3.org/2000/svg">
<path d="M12.7126 1.57318C12.5016 1.57933 12.3013 1.66736 12.1541 1.81863L11.0707 2.90196C10.9952 2.97739 10.9352 3.06697 10.8943 3.16557C10.8534 3.26417 10.8323 3.36986 10.8323 3.47662C10.8322 3.58337 10.8532 3.68909 10.894 3.78773C10.9348 3.88638 10.9946 3.97602 11.0701 4.05154C11.1455 4.12706 11.2351 4.18698 11.3337 4.22787C11.4323 4.26876 11.538 4.28983 11.6448 4.28987C11.7515 4.2899 11.8572 4.26891 11.9559 4.22809C12.0545 4.18727 12.1441 4.12741 12.2196 4.05194L13.303 2.96861C13.4206 2.85452 13.5009 2.70754 13.5335 2.54696C13.5661 2.38638 13.5494 2.2197 13.4855 2.0688C13.4217 1.9179 13.3137 1.78982 13.1758 1.70137C13.0379 1.61293 12.8764 1.56824 12.7126 1.57318ZM17.046 2.11485C16.835 2.121 16.6346 2.20903 16.4874 2.36029L14.8624 3.98529C14.7868 4.06073 14.7269 4.1503 14.686 4.2489C14.6451 4.3475 14.624 4.4532 14.6239 4.55995C14.6239 4.6667 14.6448 4.77242 14.6856 4.87107C14.7264 4.96971 14.7863 5.05935 14.8617 5.13487C14.9372 5.21039 15.0268 5.27031 15.1254 5.3112C15.224 5.3521 15.3297 5.37316 15.4364 5.3732C15.5432 5.37324 15.6489 5.35224 15.7475 5.31142C15.8462 5.2706 15.9358 5.21074 16.0113 5.13528L17.6363 3.51028C17.7539 3.39619 17.8343 3.24921 17.8669 3.08863C17.8994 2.92805 17.8827 2.76137 17.8189 2.61047C17.755 2.45956 17.6471 2.33149 17.5091 2.24304C17.3712 2.15459 17.2098 2.10991 17.046 2.11485ZM21.3793 2.65652C21.1683 2.66267 20.968 2.75069 20.8207 2.90196L18.6541 5.06863C18.5016 5.22098 18.4158 5.42768 18.4157 5.64325C18.4156 5.85881 18.5012 6.06558 18.6535 6.21808C18.8059 6.37058 19.0126 6.45631 19.2281 6.45641C19.4437 6.45651 19.6505 6.37097 19.803 6.21861L21.9696 4.05194C22.0872 3.93785 22.1676 3.79087 22.2002 3.63029C22.2328 3.46971 22.216 3.30304 22.1522 3.15213C22.0884 3.00123 21.9804 2.87315 21.8425 2.78471C21.7045 2.69626 21.5431 2.65157 21.3793 2.65652ZM8.51896 4.83165C6.78182 4.83165 5.44866 6.04014 4.79712 7.49661C4.05609 9.15309 2.16602 11.842 2.16602 15.2915V15.3656C2.16602 16.5611 2.22574 17.755 2.61353 18.8526C3.00131 19.9501 3.77801 20.9446 5.02669 21.5186C5.07397 21.5402 5.12322 21.5572 5.17375 21.5694L14.0753 23.7455C14.6043 24.0428 15.2065 24.1738 15.8695 24.2671C16.6013 24.3701 17.3953 24.4077 18.1388 24.4163C19.5931 24.4331 20.8025 24.335 20.8577 24.3306C21.9173 24.3289 22.7783 23.7635 23.2339 23.0399C23.6901 22.3152 23.8327 21.4798 23.8327 20.7124C23.8327 18.2831 22.3201 16.0853 21.6734 14.8726C20.8105 13.2538 20.5822 12.7127 20.5827 10.937C20.5827 10.9367 20.5827 10.9363 20.5827 10.936C20.5827 9.03216 19.2127 7.43317 17.4099 7.07449C17.3723 7.05744 17.3333 7.04329 17.2935 7.03217C17.2935 7.03217 15.6973 6.55552 13.8245 6.04511C11.9518 5.53469 9.84675 4.99006 8.62052 4.83694C8.58716 4.8331 8.5536 4.83133 8.52002 4.83165H8.51896ZM8.4904 6.46723C9.47025 6.59708 11.5718 7.11551 13.3971 7.61298C13.7619 7.7124 14.0134 7.78606 14.3472 7.87958C13.7766 8.35833 13.3182 8.97302 12.9613 9.58604C12.0326 11.1824 10.291 14.0309 10.291 17.4582C10.291 18.82 10.8401 20.1062 11.5436 21.1832C11.6189 21.2984 11.7021 21.4009 11.7806 21.5112L5.67204 20.0184C4.83499 19.6218 4.41799 19.0824 4.14543 18.3109C3.86818 17.5262 3.79102 16.4976 3.79102 15.3656V15.2915C3.79102 12.4458 5.41047 10.1045 6.28035 8.15994C6.73744 7.13816 7.51493 6.48166 8.4904 6.46723ZM16.644 8.62331H16.645C17.9321 8.62331 18.9577 9.6487 18.9577 10.936C18.9571 12.8914 19.3478 13.964 20.2399 15.6375C20.9658 16.9987 22.2077 19.0045 22.2077 20.7124C22.2077 21.2559 22.0794 21.8237 21.8586 22.1745C21.6377 22.5253 21.4168 22.7066 20.8535 22.7066C20.8316 22.7065 20.8097 22.7072 20.7879 22.7088C20.7879 22.7088 19.5574 22.8074 18.1579 22.7913C17.4581 22.7832 16.7192 22.7457 16.0959 22.658C15.4781 22.5711 14.9698 22.4057 14.8042 22.3004C14.8 22.2975 14.7958 22.2947 14.7915 22.2919C14.2517 21.9373 13.4869 21.1866 12.9041 20.2945C12.3192 19.3992 11.916 18.3655 11.916 17.4582C11.916 14.5902 13.425 12.0217 14.3662 10.4038H14.3652C14.9918 9.32762 15.6802 8.62331 16.644 8.62331ZM15.9626 10.7815C15.7516 10.7877 15.5513 10.8757 15.4041 11.027C14.5355 11.8956 14.1266 13.0913 13.8722 14.0728C13.6177 15.0542 13.5442 15.8618 13.5442 15.8618C13.5247 16.0764 13.5913 16.29 13.7292 16.4556C13.8672 16.6211 14.0653 16.7251 14.28 16.7446C14.4946 16.7641 14.7082 16.6975 14.8738 16.5596C15.0394 16.4216 15.1433 16.2235 15.1628 16.0088C15.1628 16.0088 15.2247 15.3268 15.4443 14.4801C15.6638 13.6334 16.0674 12.6625 16.553 12.1769C16.6706 12.0629 16.7509 11.9159 16.7835 11.7553C16.8161 11.5947 16.7994 11.428 16.7355 11.2771C16.6717 11.1262 16.5637 10.9982 16.4258 10.9097C16.2879 10.8213 16.1264 10.7766 15.9626 10.7815ZM19.1777 16.7388C19.0368 16.7464 18.9004 16.7906 18.7817 16.867C18.6631 16.9434 18.5664 17.0494 18.5012 17.1745C18.436 17.2997 18.4044 17.4396 18.4097 17.5806C18.415 17.7216 18.4569 17.8588 18.5313 17.9787C18.9007 18.5943 19.0508 19.0451 19.0815 19.3054C19.1121 19.5656 19.0718 19.6097 19.018 19.6725C18.9103 19.7981 18.3257 19.9983 17.6035 19.9983C17.4958 19.9968 17.389 20.0167 17.289 20.0568C17.1891 20.097 17.0982 20.1566 17.0215 20.2322C16.9448 20.3078 16.884 20.3979 16.8424 20.4972C16.8008 20.5965 16.7794 20.7031 16.7794 20.8108C16.7794 20.9185 16.8008 21.0251 16.8424 21.1244C16.884 21.2238 16.9448 21.3138 17.0215 21.3894C17.0982 21.465 17.1891 21.5246 17.289 21.5648C17.389 21.6049 17.4958 21.6248 17.6035 21.6233C18.5063 21.6233 19.5467 21.5517 20.2515 20.7294C20.604 20.3182 20.7668 19.719 20.6959 19.116C20.6249 18.513 20.3688 17.8804 19.9257 17.1419C19.8504 17.0122 19.7406 16.9059 19.6086 16.8348C19.4766 16.7636 19.3275 16.7304 19.1777 16.7388Z" fill="#04A3E9"/>
</svg>
