<svg width="26" height="26" viewBox="0 0 26 26" fill="none" xmlns="http://www.w3.org/2000/svg">
<path d="M16.25 1.95508C14.668 1.95508 13.0862 2.55658 11.8839 3.75887L4.30054 11.3422L4.3418 11.3835C2.704 12.5078 1.625 14.3918 1.625 16.5208C1.625 19.9515 4.42352 22.75 7.85417 22.75C9.98319 22.75 11.8672 21.671 12.9915 20.0332L13.0328 20.0745L20.6161 12.4911C23.0207 10.0866 23.0207 6.16345 20.6161 3.75887C19.4138 2.55658 17.832 1.95508 16.25 1.95508ZM16.25 3.57056C17.4127 3.57056 18.5754 4.016 19.4672 4.9078C21.2508 6.69139 21.2508 9.55862 19.4672 11.3422L14.0728 16.7367C14.0753 16.6645 14.0833 16.5936 14.0833 16.5208C14.0833 13.0902 11.2848 10.2917 7.85417 10.2917C7.78139 10.2917 7.71053 10.2997 7.63835 10.3022L13.0328 4.9078C13.9246 4.016 15.0873 3.57056 16.25 3.57056ZM7.85417 11.9167C9.51334 11.9167 10.9564 12.7871 11.7664 14.095C11.4965 14.1348 11.2515 14.2751 11.0804 14.4877C10.9094 14.7004 10.8249 14.9698 10.8439 15.242C10.8629 15.5143 10.9839 15.7693 11.1828 15.9562C11.3817 16.1431 11.6438 16.248 11.9167 16.25C12.099 16.2502 12.2784 16.2043 12.4382 16.1167C12.4498 16.2502 12.4583 16.3842 12.4583 16.5208C12.4583 19.0733 10.4066 21.125 7.85417 21.125C6.69957 21.125 5.65044 20.7018 4.84432 20.0057C5.03034 19.9484 5.18962 19.8263 5.29318 19.6615C5.39674 19.4967 5.43771 19.3002 5.40862 19.1077C5.37954 18.9153 5.28234 18.7397 5.1347 18.6129C4.98706 18.486 4.7988 18.4164 4.60417 18.4167C4.45579 18.4169 4.3103 18.4577 4.18348 18.5347C4.05666 18.6117 3.95335 18.722 3.88477 18.8536C3.48345 18.1698 3.25 17.3749 3.25 16.5208C3.25 16.2349 3.27897 15.9563 3.32829 15.6851C3.39131 15.7005 3.45595 15.7083 3.52083 15.7083C3.70241 15.7076 3.87851 15.6461 4.02103 15.5336C4.16356 15.4211 4.26429 15.2641 4.30715 15.0876C4.35002 14.9112 4.33254 14.7255 4.25751 14.5601C4.18249 14.3948 4.05424 14.2593 3.89323 14.1754C4.54546 13.0724 5.64059 12.2657 6.94222 12.0066C6.78024 12.0899 6.65094 12.2252 6.57508 12.3908C6.49922 12.5564 6.4812 12.7426 6.52391 12.9197C6.56662 13.0967 6.66758 13.2543 6.81059 13.3671C6.9536 13.4799 7.13036 13.5414 7.3125 13.5417C7.51304 13.5412 7.70632 13.4666 7.85518 13.3323C8.00403 13.1979 8.09792 13.0132 8.1188 12.8138C8.13968 12.6143 8.08606 12.4142 7.96826 12.2519C7.85046 12.0896 7.67681 11.9766 7.48071 11.9347C7.60433 11.9248 7.72791 11.9167 7.85417 11.9167ZM7.04167 15.7083C6.75435 15.7083 6.4788 15.8225 6.27563 16.0256C6.07247 16.2288 5.95833 16.5043 5.95833 16.7917C5.95833 17.079 6.07247 17.3545 6.27563 17.5577C6.4788 17.7609 6.75435 17.875 7.04167 17.875C7.32898 17.875 7.60453 17.7609 7.8077 17.5577C8.01086 17.3545 8.125 17.079 8.125 16.7917C8.125 16.5043 8.01086 16.2288 7.8077 16.0256C7.60453 15.8225 7.32898 15.7083 7.04167 15.7083ZM10.0208 18.4167C9.80535 18.4167 9.59868 18.5023 9.44631 18.6546C9.29394 18.807 9.20833 19.0137 9.20833 19.2292C9.20833 19.4447 9.29394 19.6513 9.44631 19.8037C9.59868 19.9561 9.80535 20.0417 10.0208 20.0417C10.2363 20.0417 10.443 19.9561 10.5954 19.8037C10.7477 19.6513 10.8333 19.4447 10.8333 19.2292C10.8333 19.0137 10.7477 18.807 10.5954 18.6546C10.443 18.5023 10.2363 18.4167 10.0208 18.4167Z" fill="#04A3E9"/>
</svg>
