<svg width="26" height="26" viewBox="0 0 26 26" fill="none" xmlns="http://www.w3.org/2000/svg">
<path d="M14.895 4.33331C14.598 4.33312 14.3092 4.43057 14.073 4.61066C13.8368 4.79076 13.6664 5.0435 13.588 5.32997C13.5096 5.61644 13.5275 5.92074 13.6391 6.19601C13.7506 6.47128 13.9496 6.70224 14.2053 6.85333L13.4435 7.61505C12.5394 7.192 11.4296 7.33114 10.6876 8.07314L10.1872 8.57355C9.7744 8.98633 9.22413 9.23275 8.62567 9.28131C7.43221 9.37839 6.04894 10.1604 4.84881 11.6225C3.64868 13.0846 2.70754 15.2628 2.70754 18.1458C2.70771 18.1557 2.70806 18.1656 2.70859 18.1754C2.30184 19.037 1.9978 19.9561 1.81781 20.9197C1.7344 21.367 1.78257 21.8087 1.92889 22.2083H1.35337C1.2457 22.2068 1.13881 22.2267 1.0389 22.2668C0.938985 22.307 0.848049 22.3666 0.771373 22.4422C0.694698 22.5178 0.633813 22.6079 0.592255 22.7072C0.550697 22.8065 0.529297 22.9131 0.529297 23.0208C0.529297 23.1285 0.550697 23.2351 0.592255 23.3344C0.633813 23.4338 0.694698 23.5238 0.771373 23.5994C0.848049 23.675 0.938985 23.7346 1.0389 23.7748C1.13881 23.8149 1.2457 23.8348 1.35337 23.8333H4.21087H21.7875H24.645C24.7527 23.8348 24.8596 23.8149 24.9595 23.7748C25.0594 23.7346 25.1504 23.675 25.227 23.5994C25.3037 23.5238 25.3646 23.4338 25.4061 23.3344C25.4477 23.2351 25.4691 23.1285 25.4691 23.0208C25.4691 22.9131 25.4477 22.8065 25.4061 22.7072C25.3646 22.6079 25.3037 22.5178 25.227 22.4422C25.1504 22.3666 25.0594 22.307 24.9595 22.2668C24.8596 22.2267 24.7527 22.2068 24.645 22.2083H24.0706C24.2168 21.8087 24.2642 21.367 24.1806 20.9197C23.742 18.5709 22.5755 16.483 20.9338 14.8821L21.6987 14.1161C22.405 13.4097 22.5548 12.35 22.1631 11.485L22.9386 10.7095C23.0582 10.9121 23.2285 11.0799 23.4328 11.1966C23.637 11.3133 23.8681 11.3748 24.1034 11.375C24.4625 11.375 24.807 11.2323 25.0609 10.9784C25.3149 10.7244 25.4575 10.38 25.4575 10.0208C25.4575 9.66167 25.3149 9.31723 25.0609 9.06327C24.807 8.80932 24.4625 8.66665 24.1034 8.66665C23.9993 8.66708 23.8957 8.6795 23.7944 8.70367C23.8408 8.50523 23.8417 8.29889 23.7972 8.10003C23.7527 7.90116 23.6639 7.71491 23.5374 7.55515C23.4109 7.39539 23.2499 7.26625 23.0666 7.17733C22.8832 7.08842 22.6821 7.04204 22.4784 7.04165C22.1814 7.04145 21.8925 7.1389 21.6564 7.31899C21.4202 7.49909 21.2498 7.75183 21.1713 8.0383C21.0929 8.32477 21.1109 8.62907 21.2224 8.90434C21.3339 9.17961 21.5329 9.41058 21.7886 9.56167L21.0142 10.3361C20.7056 10.1964 20.3746 10.1192 20.0409 10.1192C19.4391 10.1192 18.8375 10.3461 18.3831 10.8005L17.6034 11.5802C17.3356 11.848 17.0361 12.0784 16.7147 12.2785C15.8352 11.9743 14.9104 11.77 13.9492 11.6902L14.1058 11.5485C14.1156 11.5392 14.1251 11.5297 14.1344 11.5199C14.8764 10.7779 15.0155 9.6681 14.5925 8.76398L15.3552 8.0012C15.4749 8.20373 15.6452 8.37161 15.8494 8.48829C16.0537 8.60498 16.2848 8.66645 16.52 8.66665C16.8792 8.66665 17.2236 8.52398 17.4776 8.27002C17.7315 8.01606 17.8742 7.67163 17.8742 7.31248C17.8742 6.95333 17.7315 6.60889 17.4776 6.35494C17.2236 6.10098 16.8792 5.95831 16.52 5.95831C16.416 5.95875 16.3123 5.97117 16.2111 5.99534C16.2574 5.7969 16.2584 5.59055 16.2139 5.39169C16.1694 5.19283 16.0805 5.00658 15.954 4.84682C15.8275 4.68706 15.6666 4.55791 15.4832 4.469C15.2999 4.38009 15.0988 4.33371 14.895 4.33331ZM12.411 8.97874C12.6171 8.97874 12.8232 9.0598 12.9854 9.22207C13.3091 9.54573 13.3084 10.0432 12.9865 10.3678L11.6419 11.5845C11.587 11.6348 11.5393 11.6925 11.5001 11.7558C8.86399 12.1044 6.51301 13.3518 4.76523 15.1878C5.09228 14.1451 5.57126 13.3038 6.10459 12.654C7.07086 11.4769 8.27328 10.9404 8.75791 10.901C9.72162 10.8228 10.6407 10.4179 11.3361 9.72247L11.8365 9.22207C11.9988 9.0598 12.2049 8.97874 12.411 8.97874ZM20.0409 11.7336C20.2232 11.7336 20.4056 11.8053 20.5497 11.9494C20.8381 12.2378 20.8381 12.6789 20.5497 12.9672L19.77 13.7479C18.7168 14.8012 18.1039 16.1521 17.8255 17.5512C17.8252 17.5537 17.8248 17.5562 17.8245 17.5587C17.8259 17.5513 17.8219 17.5696 17.8202 17.5777C17.6126 18.5687 16.7409 19.3649 15.735 19.4831C14.1306 19.6704 12.83 18.3709 13.0161 16.7673C13.1326 15.7606 13.9299 14.887 14.9215 14.6789C14.9257 14.6779 14.93 14.6769 14.9342 14.6758C14.9262 14.6776 14.9441 14.6746 14.949 14.6736L14.9522 14.6726C15.7004 14.5241 16.4326 14.2758 17.1146 13.9193C17.1737 13.8957 17.2298 13.8651 17.2818 13.8283C17.8116 13.5331 18.3095 13.1719 18.7523 12.7291L19.532 11.9494C19.6762 11.8053 19.8585 11.7336 20.0409 11.7336ZM12.9992 13.2708C13.2989 13.2708 13.5944 13.2857 13.8868 13.3121C12.5487 13.8646 11.5733 15.1099 11.4028 16.5801C11.1013 19.1776 13.3255 21.3998 15.9234 21.0964C17.6395 20.8956 19.0568 19.6031 19.4114 17.9109C19.4121 17.906 19.4128 17.9011 19.4135 17.8961C19.4115 17.9068 19.4156 17.8904 19.4199 17.8686C19.5365 17.2826 19.7214 16.7257 19.9774 16.2161C21.2933 17.5654 22.2232 19.2904 22.5831 21.2181C22.6835 21.7549 22.3207 22.2083 21.7875 22.2083H4.21087C3.67851 22.2083 3.31515 21.7551 3.4153 21.2181C4.25998 16.6958 8.22116 13.2708 12.9992 13.2708Z" fill="#04A3E9"/>
</svg>
