<svg width="25" height="21" viewBox="0 0 25 21" fill="none" xmlns="http://www.w3.org/2000/svg">
<path d="M14.8598 17.05C14.4465 17.05 14.0501 17.2142 13.7578 17.5064C13.4656 17.7987 13.3014 18.195 13.3014 18.6083C13.3014 19.0216 13.4656 19.418 13.7578 19.7102C14.0501 20.0025 14.4465 20.1666 14.8598 20.1666C15.2731 20.1666 15.6694 20.0025 15.9617 19.7102C16.2539 19.418 16.4181 19.0216 16.4181 18.6083C16.4181 18.195 16.2539 17.7987 15.9617 17.5064C15.6694 17.2142 15.2731 17.05 14.8598 17.05Z" fill="white"/>
<path d="M8.44309 17.05C8.02979 17.05 7.63343 17.2142 7.34118 17.5064C7.04894 17.7987 6.88476 18.195 6.88476 18.6083C6.88476 19.0216 7.04894 19.418 7.34118 19.7102C7.63343 20.0025 8.02979 20.1666 8.44309 20.1666C8.85639 20.1666 9.25276 20.0025 9.545 19.7102C9.83724 19.418 10.0014 19.0216 10.0014 18.6083C10.0014 18.195 9.83724 17.7987 9.545 17.5064C9.25276 17.2142 8.85639 17.05 8.44309 17.05Z" fill="white"/>
<path d="M0.546175 4.24565C0.652836 4.28851 0.766924 4.30983 0.881857 4.30839L0.881844 2.56672C0.766915 2.56527 0.652833 2.58659 0.546175 2.62945C0.439092 2.67248 0.34163 2.73637 0.259451 2.81739C0.177272 2.89842 0.112017 2.99497 0.0674768 3.10143C0.0229366 3.20789 0 3.32215 0 3.43755C0 3.55296 0.0229367 3.66721 0.0674768 3.77367C0.112017 3.88014 0.177272 3.97669 0.259451 4.05771C0.34163 4.13874 0.439092 4.20262 0.546175 4.24565Z" fill="white"/>
<path fill-rule="evenodd" clip-rule="evenodd" d="M24.2764 5.5C24.2764 8.30057 22.1832 10.6122 19.476 10.9559C19.2469 10.985 19.0134 11 18.7764 11C18.413 11 18.0579 10.9648 17.7142 10.8975C15.3902 10.4428 13.5903 8.52456 13.3134 6.14172C13.2889 5.93121 13.2764 5.71707 13.2764 5.5C13.2764 5.12331 13.3142 4.75546 13.3864 4.40005C13.896 1.88956 16.1155 0 18.7764 0C21.8139 0 24.2764 2.46243 24.2764 5.5ZM19.0494 13.1962L19.088 12.9936C18.9846 12.9979 18.8807 13 18.7764 13C18.2851 13 17.8048 12.9528 17.3399 12.8626L17.3384 12.8707C17.21 13.5447 16.629 14.0251 15.9421 14.0251H7.36085C6.67994 14.0251 6.10306 13.5523 5.96777 12.8868L4.68291 6.14172H11.3034C11.2855 5.93019 11.2764 5.71616 11.2764 5.5C11.2764 5.12634 11.3037 4.75906 11.3565 4.40005H4.35106L4.34961 4.39237C4.14837 3.33774 3.21778 2.56672 2.14373 2.56672H0.881844L0.881857 4.30839H2.14373C2.38902 4.30839 2.59195 4.4762 2.63867 4.71833L4.25352 13.1963C4.53727 14.6832 5.84671 15.7667 7.36085 15.7667H15.9421C17.4561 15.7667 18.7662 14.6836 19.0494 13.1962ZM17.7074 6.13878L19.1732 4.40005L21.1965 2L22.7764 3.271L20.4032 6.08605L18.1132 8.80242L17.9467 9L14.7764 6.29012L14.9093 6.14172L16.1241 4.78545L17.7074 6.13878Z" fill="white"/>
<path d="M17.7074 6.13878L16.1241 4.78545L14.9093 6.14172L14.7764 6.29012L17.9467 9L18.1132 8.80242L20.4032 6.08605L22.7764 3.271L21.1965 2L19.1732 4.40005L17.7074 6.13878Z" fill="#4CA86B"/>
</svg>
