<svg width="40" height="40" viewBox="0 0 40 40" fill="none" xmlns="http://www.w3.org/2000/svg">
<g clip-path="url(#clip0_282_43)">
<g clip-path="url(#clip1_282_43)">
<path d="M39.9999 6.85968C39.9999 6.8553 39.9993 6.85093 39.9992 6.84647C39.9988 6.82922 39.9976 6.81198 39.9957 6.79483C39.9949 6.78858 39.9937 6.78233 39.9928 6.77608C39.987 6.73754 39.9773 6.69971 39.9637 6.66319C39.9626 6.66015 39.9619 6.65702 39.9607 6.65405L38.3713 2.58515C38.2111 2.17516 37.823 1.91016 37.3828 1.91016H34.4887C34.3372 1.91016 34.192 1.97033 34.0848 2.07745C33.9777 2.18456 33.9175 2.32984 33.9175 2.48133C33.9175 2.63281 33.9777 2.77809 34.0848 2.88521C34.192 2.99232 34.3372 3.0525 34.4887 3.0525H37.3275L38.5924 6.29069H26.6335L25.8842 3.0525H30.3008C30.4523 3.0525 30.5976 2.99232 30.7047 2.88521C30.8118 2.77809 30.872 2.63281 30.872 2.48133C30.872 2.32984 30.8118 2.18456 30.7047 2.07745C30.5976 1.97033 30.4523 1.91016 30.3008 1.91016H7.19346C6.75314 1.91016 6.36518 2.17516 6.20494 2.58531L4.61549 6.65405C4.61432 6.6571 4.6137 6.66022 4.61252 6.66319C4.59893 6.69971 4.58919 6.73754 4.58346 6.77608C4.58252 6.78233 4.58135 6.78858 4.58057 6.79483C4.57865 6.81199 4.57747 6.82922 4.57705 6.84647C4.57698 6.85085 4.57643 6.85522 4.57635 6.85968L4.57627 6.86179V15.2532C4.57627 15.4047 4.63645 15.5499 4.74357 15.6571C4.85068 15.7642 4.99596 15.8243 5.14744 15.8243C5.29893 15.8243 5.44421 15.7642 5.55132 15.6571C5.65844 15.5499 5.71862 15.4047 5.71862 15.2532V7.43304H17.8258V16.1149C17.8259 16.2814 17.8741 16.4443 17.9645 16.5841C18.0549 16.7239 18.1836 16.8346 18.3354 16.9031C18.4872 16.9713 18.6555 16.9943 18.82 16.9692C18.9846 16.9442 19.1384 16.8722 19.263 16.7618L22.2881 14.0819L25.3132 16.7618C25.4379 16.8721 25.5917 16.9441 25.7563 16.9691C25.9208 16.9942 26.0891 16.9713 26.241 16.9031C26.3927 16.8346 26.5215 16.7238 26.6118 16.584C26.7022 16.4442 26.7504 16.2814 26.7505 16.1149V7.43304H38.8576V33.052C38.8576 33.4618 38.5241 33.7953 38.1143 33.7953H27.6414C27.6414 33.7888 27.6406 33.7824 27.6405 33.7759C27.6401 33.7247 27.6378 33.6736 27.6336 33.6227C28.617 33.8834 29.6677 33.378 30.0618 32.4116C30.269 31.9032 30.266 31.3446 30.0531 30.8387C30.033 30.791 30.0109 30.7448 29.9876 30.6992C29.9833 30.6909 29.9792 30.6824 29.9749 30.6742C29.9521 30.6309 29.9278 30.5885 29.9019 30.547C29.8969 30.5389 29.8918 30.5311 29.8867 30.5231C29.8597 30.4807 29.8312 30.4393 29.8012 30.399L29.7995 30.3968C29.7696 30.3574 29.7382 30.319 29.7055 30.2818L29.6877 30.2613C29.6554 30.2254 29.6219 30.1906 29.5872 30.1571C29.5804 30.1506 29.5736 30.1442 29.5667 30.1378C29.5305 30.1036 29.4931 30.0706 29.4544 30.0392L29.4504 30.0361C29.4121 30.0055 29.3727 29.9762 29.3323 29.9484C29.3251 29.9433 29.3179 29.9381 29.3104 29.9331C29.2699 29.9059 29.2285 29.8801 29.1861 29.8558C29.1826 29.8538 29.1794 29.8514 29.1758 29.8494C29.4199 29.6378 29.6105 29.3713 29.7318 29.0719C29.9391 28.5635 29.9361 28.0049 29.7232 27.4989C29.5369 27.0562 29.2095 26.7001 28.7901 26.4792C28.7298 26.4474 28.668 26.4186 28.6049 26.3929L19.7153 22.7682L23.8533 21.4874C24.8377 21.1826 25.3922 20.1326 25.0892 19.1469C24.9762 18.7789 24.752 18.4686 24.4625 18.2418C24.0316 17.9043 23.4558 17.7518 22.8847 17.8718C22.8819 17.8724 22.8793 17.8729 22.8766 17.8736C22.8449 17.8807 19.6727 18.594 16.3597 19.24C16.1048 19.2897 15.8498 19.3388 15.5947 19.3874L15.5006 19.4053C15.2412 19.4545 14.9817 19.5031 14.722 19.5509C10.5613 20.3174 9.39251 20.3311 9.06814 20.2872C9.06217 20.2864 9.05621 20.2855 9.05025 20.2846L9.04087 20.283C9.02235 20.2801 9.00403 20.276 8.98603 20.2707L8.89244 20.2326L9.00908 19.9466C9.06586 19.8084 9.09467 19.6604 9.09385 19.511C9.09304 19.3616 9.0626 19.2139 9.00431 19.0764C8.97522 19.0072 8.93943 18.941 8.89744 18.8787C8.77175 18.6928 8.59352 18.5485 8.38548 18.4643L5.31768 17.2135C5.17952 17.1567 5.03146 17.1279 4.88208 17.1287C4.73271 17.1295 4.58498 17.1599 4.44745 17.2183C4.3096 17.2758 4.18453 17.3601 4.07949 17.4663C3.97445 17.5725 3.89152 17.6985 3.83549 17.8369L0.0841732 27.0371C-0.152545 27.6177 0.12722 28.2825 0.707766 28.5193L3.77565 29.7703C3.91142 29.8258 4.0567 29.8544 4.20338 29.8544C4.65205 29.8544 5.07815 29.5871 5.25776 29.1467L5.28596 29.0775L5.9933 29.3659L5.99455 29.3664C6.98073 29.7692 7.84813 30.4164 8.51502 31.2471C9.30365 32.2292 10.3293 32.9945 11.4953 33.4708L12.2911 33.7952H6.46205C6.05221 33.7952 5.71869 33.4617 5.71869 33.0519V31.6067C5.71869 31.4552 5.65852 31.3099 5.5514 31.2028C5.44429 31.0957 5.29901 31.0355 5.14752 31.0355C4.99604 31.0355 4.85076 31.0957 4.74364 31.2028C4.63653 31.3099 4.57635 31.4552 4.57635 31.6067V33.0519C4.57635 34.0917 5.42221 34.9376 6.46205 34.9376H15.0927L22.4506 37.9377C22.6961 38.0382 22.9587 38.0899 23.224 38.0899C24.0348 38.0899 24.805 37.6067 25.1296 36.8107C25.2585 36.4956 25.3066 36.1533 25.2696 35.8149C25.6523 35.8699 26.0491 35.8195 26.4088 35.6642C26.7744 35.5063 27.0773 35.2548 27.2925 34.9375H38.1143C39.1541 34.9375 40 34.0917 40 33.0518V6.86187L39.9999 6.85968ZM19.8646 3.0525H24.7116L25.4609 6.29069H19.1153L19.8646 3.0525ZM17.9428 6.29069H5.98385L7.24877 3.0525H18.6921L17.9428 6.29069ZM25.6083 15.497L22.8612 13.0634C22.7033 12.9234 22.4994 12.8461 22.2883 12.8464C22.0771 12.8461 21.8732 12.9234 21.7151 13.0634L18.9682 15.497V7.43304H25.6083V15.497ZM4.20198 28.7104L1.14394 27.4635L4.89127 18.2733L7.94931 19.5203L4.20198 28.7104ZM27.0211 32.1574L26.3655 31.89L26.3646 31.8896L26.3639 31.8893L26.3637 31.8892L19.5366 29.1056C19.3964 29.0484 19.2391 29.0493 19.0995 29.108C18.9599 29.1668 18.8493 29.2786 18.7921 29.4189C18.7638 29.4883 18.7494 29.5627 18.7498 29.6377C18.7502 29.7127 18.7654 29.7869 18.7945 29.8561C18.8236 29.9252 18.866 29.9879 18.9194 30.0407C18.9727 30.0934 19.0359 30.1351 19.1054 30.1635L25.9326 32.9472C25.9611 32.9588 25.9887 32.9717 26.0153 32.9859C26.0228 32.9899 26.0297 32.9947 26.0371 32.9988C26.0558 33.0095 26.0747 33.0201 26.0924 33.0319C26.1009 33.0376 26.1087 33.0442 26.117 33.0501C26.1327 33.0613 26.1487 33.0724 26.1636 33.0846C26.1726 33.092 26.1807 33.1002 26.1894 33.1078C26.2026 33.1196 26.2162 33.131 26.2287 33.1435C26.2374 33.1521 26.2451 33.1616 26.2534 33.1705C26.2649 33.1828 26.2767 33.1949 26.2875 33.2079C26.2957 33.2178 26.3029 33.2284 26.3107 33.2386C26.3204 33.2514 26.3306 33.264 26.3396 33.2773C26.3472 33.2884 26.3537 33.3001 26.3607 33.3114C26.3688 33.3245 26.3774 33.3374 26.3848 33.351C26.3915 33.3631 26.3972 33.3759 26.4033 33.3883C26.4099 33.4017 26.417 33.4148 26.4229 33.4285C26.4287 33.4416 26.4333 33.4552 26.4383 33.4685C26.4435 33.482 26.4491 33.4953 26.4537 33.5091C26.4582 33.5229 26.4616 33.537 26.4654 33.551C26.4693 33.5649 26.4736 33.5785 26.4768 33.5924C26.48 33.6066 26.482 33.621 26.4846 33.6352C26.4872 33.6494 26.4901 33.6635 26.492 33.6778C26.4939 33.6922 26.4946 33.7067 26.4958 33.7212C26.4969 33.7357 26.4987 33.7502 26.4991 33.7647C26.4996 33.779 26.4989 33.7935 26.4987 33.8078C26.4986 33.8227 26.4988 33.8375 26.4979 33.8524C26.497 33.8666 26.4949 33.8807 26.4933 33.8949C26.4917 33.9101 26.4904 33.9253 26.4879 33.9405C26.4857 33.9544 26.4822 33.9682 26.4793 33.9821C26.476 33.9975 26.4733 34.0129 26.4691 34.0282C26.4655 34.0417 26.4607 34.0552 26.4564 34.0686C26.4515 34.0839 26.4471 34.0992 26.4414 34.1143C26.4365 34.1247 26.4318 34.1352 26.4273 34.1457C26.4263 34.1481 26.4258 34.1506 26.4248 34.153C26.3356 34.359 26.1709 34.5227 25.9558 34.6156C25.7191 34.7177 25.4481 34.7213 25.2122 34.625L24.0026 34.1318C23.9969 34.1295 23.9912 34.128 23.9856 34.1259C23.9799 34.1233 23.9745 34.1203 23.9687 34.118L18.4159 31.8538C18.3465 31.8255 18.2721 31.8112 18.1971 31.8116C18.1221 31.812 18.0479 31.8272 17.9788 31.8563C17.9096 31.8854 17.8469 31.9278 17.7942 31.9811C17.7414 32.0345 17.6997 32.0977 17.6714 32.1671C17.6431 32.2366 17.6287 32.3109 17.6291 32.386C17.6295 32.461 17.6447 32.5352 17.6738 32.6043C17.7029 32.6734 17.7453 32.7362 17.7986 32.7889C17.8519 32.8417 17.9151 32.8834 17.9846 32.9117L23.5374 35.1759C23.5433 35.1783 23.5494 35.18 23.5554 35.1822C23.5608 35.1845 23.5658 35.1874 23.5713 35.1896C24.0373 35.3797 24.2619 35.9134 24.0719 36.3795C23.8819 36.8456 23.3483 37.0703 22.8821 36.8801L15.4216 33.8381L15.4206 33.8376L11.9269 32.413C11.3127 32.1622 10.7422 31.8155 10.2367 31.386C9.9334 31.1285 9.65539 30.8426 9.40642 30.5324C8.61779 29.5502 7.59216 28.7849 6.42611 28.3085L6.42588 28.3085L5.7176 28.0197L7.1283 24.56L8.46142 21.2905L8.55978 21.3306C8.65236 21.3683 8.78439 21.4219 9.1397 21.4354C9.58361 21.4554 10.318 21.4091 11.6336 21.2232C12.5285 21.0968 13.6263 20.914 14.9077 20.6782L15.0025 20.6608L15.1838 20.6272L15.3264 20.6006L15.4909 20.5697L15.6681 20.5362L15.8115 20.509L16.032 20.4668L16.1462 20.445C16.2597 20.4231 16.3746 20.4009 16.4916 20.3782C19.7933 19.736 22.98 19.0212 23.1232 18.989C23.1375 18.9861 23.1518 18.9843 23.1661 18.9822C23.533 18.9279 23.8924 19.1401 23.9976 19.4825C24.0335 19.5986 24.0396 19.7218 24.0156 19.841C23.9644 20.0951 23.7798 20.3144 23.5158 20.3961L17.8531 22.1487C17.7406 22.1835 17.6416 22.2522 17.5697 22.3455C17.4978 22.4387 17.4564 22.5519 17.4513 22.6696C17.4462 22.7872 17.4776 22.9036 17.5411 23.0027C17.6047 23.1018 17.6973 23.1789 17.8064 23.2233L28.1739 27.4507C28.2851 27.4957 28.3862 27.5623 28.4715 27.6466C28.5567 27.7309 28.6244 27.8313 28.6706 27.942C28.7174 28.0524 28.7418 28.171 28.7425 28.2909C28.7432 28.4108 28.72 28.5297 28.6744 28.6406C28.6295 28.7517 28.5629 28.8529 28.4786 28.9381C28.3942 29.0234 28.2938 29.0911 28.1832 29.1373C28.0708 29.1845 27.9526 29.2084 27.8343 29.2091L27.8291 29.2089C27.8013 29.2089 27.7736 29.2078 27.7458 29.2052C27.7376 29.2044 27.7295 29.2027 27.7213 29.2017C27.7001 29.1992 27.679 29.1967 27.6579 29.1927C27.6447 29.1901 27.6315 29.1862 27.6183 29.1831C27.6026 29.1793 27.5867 29.1761 27.5711 29.1715C27.5549 29.1667 27.539 29.1604 27.5231 29.1547C27.5104 29.1502 27.4976 29.1464 27.4851 29.1414L20.6573 26.3573C20.5878 26.329 20.5134 26.3146 20.4384 26.315C20.3634 26.3154 20.2892 26.3306 20.2201 26.3597C20.151 26.3888 20.0882 26.4312 20.0355 26.4846C19.9827 26.5379 19.941 26.6011 19.9127 26.6706C19.8844 26.74 19.87 26.8144 19.8704 26.8894C19.8708 26.9644 19.886 27.0386 19.9151 27.1078C19.9442 27.1769 19.9866 27.2397 20.04 27.2924C20.0933 27.3452 20.1565 27.3869 20.226 27.4152L28.5037 30.7904C28.6149 30.8353 28.7161 30.9019 28.8014 30.9862C28.8866 31.0705 28.9543 31.171 29.0004 31.2817C29.0473 31.392 29.0718 31.5106 29.0724 31.6306C29.0731 31.7505 29.0499 31.8694 29.0043 31.9803C28.9924 32.0094 28.9792 32.0376 28.9647 32.0648C28.9311 32.1281 28.8901 32.1853 28.8443 32.2374C28.8158 32.2697 28.7854 32.2999 28.7531 32.3275C28.7479 32.3319 28.7433 32.3369 28.738 32.3411C28.6333 32.4267 28.5108 32.4881 28.3795 32.5207C28.2482 32.5534 28.1113 32.5565 27.9787 32.5299C27.9225 32.5187 27.8675 32.5023 27.8144 32.4808L27.0211 32.1574Z" fill="#3A3A3A"/>
</g>
</g>
<defs>
<clipPath id="clip0_282_43">
<rect width="40" height="40" fill="white"/>
</clipPath>
<clipPath id="clip1_282_43">
<rect width="40" height="40" fill="white"/>
</clipPath>
</defs>
</svg>
