<svg width="22" height="22" viewBox="0 0 22 22" fill="none" xmlns="http://www.w3.org/2000/svg">
<circle cx="11" cy="11" r="11" fill="#0CBA7A"/>
<path d="M9.928 9.072H11.88V16H9.928V9.072ZM10.072 6.976C9.848 6.74133 9.736 6.464 9.736 6.144C9.736 5.824 9.848 5.552 10.072 5.328C10.3067 5.09333 10.584 4.976 10.904 4.976C11.224 4.976 11.496 5.09333 11.72 5.328C11.9547 5.552 12.072 5.824 12.072 6.144C12.072 6.464 11.9547 6.74133 11.72 6.976C11.496 7.2 11.224 7.312 10.904 7.312C10.584 7.312 10.3067 7.2 10.072 6.976Z" fill="white"/>
</svg>
