<svg width="12" height="12" viewBox="0 0 12 12" fill="none" xmlns="http://www.w3.org/2000/svg">
<g clip-path="url(#clip0_282_66)">
<path d="M6 0C2.6916 0 0 2.69164 0 6.00004C0 9.30844 2.6916 12 6 12C9.3084 12 12 9.30844 12 6.00004C12 2.69164 9.3084 0 6 0ZM6 10.9091C3.29309 10.9091 1.09091 8.70691 1.09091 6.00004C1.09091 3.29316 3.29309 1.09091 6 1.09091C8.70691 1.09091 10.9091 3.29316 10.9091 6.00004C10.9091 8.70691 8.70687 10.9091 6 10.9091Z" fill="#3A3A3A"/>
<path d="M6.00056 2.54541C5.59962 2.54541 5.27344 2.87181 5.27344 3.27301C5.27344 3.67385 5.59962 3.99996 6.00056 3.99996C6.40151 3.99996 6.72769 3.67385 6.72769 3.27301C6.72769 2.87181 6.40151 2.54541 6.00056 2.54541ZM6.00064 5.09086C5.6994 5.09086 5.45518 5.33508 5.45518 5.63632V8.90905C5.45518 9.21028 5.6994 9.4545 6.00064 9.4545C6.30187 9.4545 6.54609 9.21028 6.54609 8.90905V5.63632C6.54609 5.33508 6.30187 5.09086 6.00064 5.09086Z" fill="#3A3A3A"/>
</g>
<defs>
<clipPath id="clip0_282_66">
<rect width="12" height="12" fill="white"/>
</clipPath>
</defs>
</svg>
