<svg width="22" height="22" viewBox="0 0 22 22" fill="none" xmlns="http://www.w3.org/2000/svg">
<g opacity="0.4">
<path d="M19.4651 1.82695C19.2865 1.83215 19.117 1.90663 18.9924 2.03463L2.03406 18.993C1.96808 19.0563 1.9154 19.1322 1.87912 19.2162C1.84283 19.3001 1.82366 19.3905 1.82273 19.4819C1.8218 19.5734 1.83913 19.6641 1.8737 19.7488C1.90827 19.8335 1.9594 19.9104 2.02408 19.9751C2.08875 20.0398 2.16569 20.0909 2.25037 20.1255C2.33506 20.1601 2.42579 20.1774 2.51725 20.1765C2.60872 20.1755 2.69907 20.1564 2.78304 20.1201C2.867 20.0838 2.94288 20.0311 3.00623 19.9651L7.75249 15.2189C8.56313 16.0962 9.71613 16.6512 10.9993 16.6512C13.4422 16.6512 15.4314 14.6619 15.4314 12.2236C15.4314 10.9403 14.8765 9.78399 13.9991 8.97229L16.0652 6.90621C18.2889 8.20823 20.0142 10.3109 20.6476 12.7732C20.7255 13.0849 21.0047 13.2915 21.3118 13.2915C21.3668 13.2915 21.426 13.2866 21.481 13.2683C21.8523 13.1766 22.0723 12.8015 21.976 12.4349C21.2703 9.68366 19.4607 7.36671 17.0848 5.8866L19.9646 3.0068C20.0637 2.9102 20.1315 2.78591 20.1588 2.6502C20.1862 2.51448 20.172 2.37366 20.118 2.24617C20.064 2.11867 19.9728 2.01045 19.8563 1.93565C19.7398 1.86085 19.6034 1.82296 19.4651 1.82695ZM10.9948 4.12488C5.87525 4.12488 1.26009 7.61777 0.0225868 12.4349C-0.0736632 12.8015 0.146373 13.1766 0.517623 13.2683C0.884289 13.3645 1.25937 13.1445 1.35104 12.7732C2.41895 8.62532 6.56734 5.49988 10.9948 5.49988C11.7786 5.49988 12.5528 5.59573 13.2999 5.78365L14.4279 4.65662C13.3324 4.30828 12.1773 4.12488 10.9948 4.12488ZM10.9993 7.79154C8.5564 7.79154 6.57174 9.78068 6.57174 12.2236C6.57174 12.3153 6.57611 12.4112 6.58069 12.5029L11.2831 7.8005C11.1868 7.79591 11.0956 7.79154 10.9993 7.79154Z" fill="#231F20"/>
</g>
</svg>
