<svg width="30" height="30" viewBox="0 0 30 30" fill="none" xmlns="http://www.w3.org/2000/svg">
<path d="M14.6692 1.81512C14.4257 1.82222 14.1946 1.92379 14.0247 2.09833L12.7747 3.34833C12.6875 3.43537 12.6183 3.53872 12.5711 3.65249C12.5239 3.76626 12.4996 3.88822 12.4995 4.01139C12.4995 4.13457 12.5236 4.25655 12.5707 4.37037C12.6178 4.48419 12.6868 4.58763 12.7739 4.67477C12.861 4.7619 12.9643 4.83104 13.0781 4.87822C13.1919 4.92541 13.3139 4.94971 13.437 4.94976C13.5602 4.9498 13.6822 4.92558 13.796 4.87847C13.9098 4.83137 14.0132 4.76231 14.1003 4.67523L15.3503 3.42523C15.486 3.29359 15.5788 3.12399 15.6164 2.93871C15.6539 2.75343 15.6346 2.56111 15.561 2.38699C15.4873 2.21287 15.3627 2.06509 15.2036 1.96303C15.0444 1.86098 14.8582 1.80942 14.6692 1.81512ZM19.6692 2.44012C19.4257 2.44722 19.1946 2.54879 19.0247 2.72333L17.1497 4.59833C17.0625 4.68537 16.9933 4.78872 16.9461 4.90249C16.8989 5.01626 16.8746 5.13822 16.8745 5.26139C16.8745 5.38457 16.8986 5.50655 16.9457 5.62037C16.9928 5.73419 17.0618 5.83763 17.1489 5.92477C17.236 6.0119 17.3393 6.08104 17.4531 6.12822C17.5669 6.17541 17.6889 6.19971 17.812 6.19976C17.9352 6.1998 18.0572 6.17558 18.171 6.12847C18.2848 6.08137 18.3882 6.01231 18.4753 5.92523L20.3503 4.05023C20.486 3.91859 20.5788 3.74899 20.6164 3.56371C20.6539 3.37843 20.6346 3.18611 20.561 3.01199C20.4873 2.83787 20.3627 2.69009 20.2036 2.58803C20.0444 2.48598 19.8582 2.43442 19.6692 2.44012ZM24.6692 3.06512C24.4257 3.07222 24.1946 3.17379 24.0247 3.34833L21.5247 5.84833C21.3487 6.02412 21.2498 6.26262 21.2497 6.51135C21.2496 6.76008 21.3483 6.99866 21.524 7.17462C21.6998 7.35058 21.9383 7.4495 22.1871 7.44961C22.4358 7.44973 22.6744 7.35103 22.8503 7.17523L25.3503 4.67523C25.486 4.54359 25.5788 4.37399 25.6164 4.18871C25.6539 4.00343 25.6346 3.81111 25.561 3.63699C25.4873 3.46287 25.3627 3.31509 25.2036 3.21303C25.0444 3.11098 24.8582 3.05942 24.6692 3.06512ZM9.83032 5.57489C7.82592 5.57489 6.28767 6.96931 5.53589 8.64984C4.68085 10.5612 2.5 13.6637 2.5 17.644V17.7294C2.5 19.1088 2.56891 20.4864 3.01636 21.7529C3.4638 23.0193 4.36 24.1668 5.80078 24.829C5.85534 24.854 5.91216 24.8736 5.97046 24.8876L16.2415 27.3986C16.8519 27.7416 17.5467 27.8928 18.3118 28.0004C19.1561 28.1192 20.0723 28.1626 20.9302 28.1725C22.6081 28.1919 24.0036 28.0788 24.0674 28.0737C25.29 28.0717 26.2834 27.4194 26.8091 26.5844C27.3355 25.7482 27.5 24.7842 27.5 23.8989C27.5 21.0958 25.7547 18.5599 25.0085 17.1606C24.0129 15.2928 23.7494 14.6684 23.75 12.6196C23.75 12.6192 23.75 12.6188 23.75 12.6183C23.75 10.4216 22.1692 8.57665 20.0891 8.16278C20.0457 8.14311 20.0008 8.12679 19.9548 8.11395C19.9548 8.11395 18.1131 7.56398 15.9521 6.97504C13.7912 6.3861 11.3624 5.75768 9.94751 5.58099C9.90902 5.57656 9.87029 5.57453 9.83154 5.57489H9.83032ZM9.79736 7.4621C10.928 7.61192 13.3529 8.21011 15.459 8.78412C15.8799 8.89884 16.17 8.98383 16.5552 9.09174C15.8969 9.64413 15.3679 10.3534 14.9561 11.0607C13.8845 12.9027 11.875 16.1894 11.875 20.144C11.875 21.7153 12.5085 23.1994 13.3203 24.4421C13.4071 24.575 13.5032 24.6932 13.5938 24.8205L6.54541 23.0981C5.57959 22.6405 5.09843 22.018 4.78394 21.1279C4.46404 20.2224 4.375 19.0357 4.375 17.7294V17.644C4.375 14.3605 6.2436 11.6589 7.24731 9.41522C7.77472 8.23625 8.67183 7.47875 9.79736 7.4621ZM19.2053 9.94989H19.2065C20.6917 9.94989 21.875 11.133 21.875 12.6183C21.8744 14.8745 22.3252 16.1122 23.3545 18.0432C24.192 19.6138 25.625 21.9282 25.625 23.8989C25.625 24.526 25.477 25.1812 25.2222 25.5859C24.9674 25.9906 24.7124 26.1999 24.0625 26.1999C24.0372 26.1997 24.012 26.2005 23.9868 26.2023C23.9868 26.2023 22.5669 26.3162 20.9521 26.2975C20.1447 26.2882 19.2921 26.2449 18.573 26.1437C17.8601 26.0435 17.2736 25.8527 17.0825 25.7311C17.0777 25.7278 17.0728 25.7246 17.0679 25.7214C16.445 25.3122 15.5625 24.446 14.8901 23.4167C14.2152 22.3836 13.75 21.1908 13.75 20.144C13.75 16.8348 15.4912 13.8711 16.5771 12.0043H16.5759C17.299 10.7626 18.0933 9.94989 19.2053 9.94989ZM18.4192 12.4401C18.1757 12.4472 17.9446 12.5488 17.7747 12.7233C16.7724 13.7255 16.3007 15.1053 16.0071 16.2377C15.7135 17.3702 15.6287 18.3019 15.6287 18.3019C15.6062 18.5496 15.683 18.7961 15.8422 18.9871C16.0014 19.1782 16.23 19.2981 16.4777 19.3206C16.7253 19.3431 16.9718 19.2663 17.1628 19.1071C17.3539 18.9479 17.4738 18.7193 17.4963 18.4716C17.4963 18.4716 17.5678 17.6846 17.821 16.7077C18.0743 15.7308 18.5401 14.6105 19.1003 14.0502C19.236 13.9186 19.3288 13.749 19.3664 13.5637C19.4039 13.3784 19.3846 13.1861 19.311 13.012C19.2373 12.8379 19.1127 12.6901 18.9536 12.588C18.7944 12.486 18.6082 12.4344 18.4192 12.4401ZM22.1289 19.3139C21.9663 19.3227 21.8089 19.3737 21.672 19.4619C21.5351 19.55 21.4235 19.6723 21.3483 19.8167C21.273 19.9611 21.2366 20.1225 21.2427 20.2852C21.2488 20.4479 21.2972 20.6062 21.3831 20.7446C21.8092 21.4549 21.9825 21.975 22.0178 22.2753C22.0532 22.5756 22.0067 22.6265 21.9446 22.6989C21.8204 22.8438 21.1458 23.0749 20.3125 23.0749C20.1883 23.0731 20.0649 23.0961 19.9496 23.1424C19.8344 23.1887 19.7294 23.2575 19.641 23.3447C19.5525 23.432 19.4822 23.5359 19.4343 23.6505C19.3863 23.7651 19.3616 23.8881 19.3616 24.0124C19.3616 24.1366 19.3863 24.2596 19.4343 24.3743C19.4822 24.4889 19.5525 24.5928 19.641 24.68C19.7294 24.7673 19.8344 24.836 19.9496 24.8824C20.0649 24.9287 20.1883 24.9516 20.3125 24.9499C21.3542 24.9499 22.5546 24.8672 23.3679 23.9184C23.7746 23.444 23.9625 22.7526 23.8806 22.0568C23.7988 21.361 23.5033 20.6312 22.9919 19.779C22.905 19.6294 22.7784 19.5067 22.6261 19.4247C22.4737 19.3426 22.3017 19.3042 22.1289 19.3139Z" fill="#25344F"/>
</svg>
