<svg width="26" height="26" viewBox="0 0 26 26" fill="none" xmlns="http://www.w3.org/2000/svg">
<path d="M13.0013 2.16669C7.92548 2.16669 3.79297 6.2992 3.79297 11.375C3.79297 13.6537 4.62893 15.7435 6.00195 17.3503L6.00619 17.3545L6.00936 17.3587C6.00936 17.3587 9.92665 21.8287 11.3213 23.1594C12.2552 24.0498 13.7464 24.0498 14.6803 23.1594C16.2699 21.6432 19.9943 17.3566 19.9943 17.3566L19.9964 17.3535L19.9996 17.3503C21.3738 15.7435 22.2096 13.6537 22.2096 11.375C22.2096 6.2992 18.0771 2.16669 13.0013 2.16669ZM13.0013 3.79169C17.1988 3.79169 20.5846 7.17751 20.5846 11.375C20.5846 13.2574 19.8986 14.9677 18.7639 16.2945C18.7565 16.3029 14.9459 20.6611 13.5588 21.9841C13.2372 22.2908 12.7644 22.2908 12.4427 21.9841C11.2834 20.8779 7.2494 16.3078 7.23763 16.2945L7.23657 16.2934C6.10335 14.9667 5.41797 13.2569 5.41797 11.375C5.41797 7.17751 8.80379 3.79169 13.0013 3.79169ZM13.0013 8.12502C11.9857 8.12502 11.1211 8.53513 10.5659 9.15969C10.0108 9.78424 9.7513 10.5851 9.7513 11.375C9.7513 12.165 10.0108 12.9658 10.5659 13.5904C11.1211 14.2149 11.9857 14.625 13.0013 14.625C14.0169 14.625 14.8815 14.2149 15.4367 13.5904C15.9918 12.9658 16.2513 12.165 16.2513 11.375C16.2513 10.5851 15.9918 9.78424 15.4367 9.15969C14.8815 8.53513 14.0169 8.12502 13.0013 8.12502ZM13.0013 9.75002C13.6107 9.75002 13.9648 9.94928 14.2222 10.2388C14.4795 10.5283 14.6263 10.9462 14.6263 11.375C14.6263 11.8038 14.4795 12.2217 14.2222 12.5113C13.9648 12.8008 13.6107 13 13.0013 13C12.3919 13 12.0378 12.8008 11.7804 12.5113C11.5231 12.2217 11.3763 11.8038 11.3763 11.375C11.3763 10.9462 11.5231 10.5283 11.7804 10.2388C12.0378 9.94928 12.3919 9.75002 13.0013 9.75002Z" fill="#25344F"/>
</svg>
