<svg width="22" height="22" viewBox="0 0 22 22" fill="none" xmlns="http://www.w3.org/2000/svg">
<path d="M9.99935 1.66663C6.09487 1.66663 2.91602 4.84548 2.91602 8.74996C2.91602 10.5028 3.55906 12.1103 4.61523 13.3463L4.61849 13.3496L4.62093 13.3528C4.62093 13.3528 7.63424 16.7912 8.70703 17.8149C9.42542 18.4998 10.5725 18.4998 11.2909 17.8149C12.5137 16.6486 15.3786 13.3512 15.3786 13.3512L15.3802 13.3488L15.3827 13.3463C16.4398 12.1103 17.0827 10.5028 17.0827 8.74996C17.0827 4.84548 13.9038 1.66663 9.99935 1.66663ZM9.99935 2.91663C13.2282 2.91663 15.8327 5.5211 15.8327 8.74996C15.8327 10.198 15.305 11.5135 14.4321 12.5341C14.4264 12.5406 11.4952 15.8931 10.4282 16.9108C10.1808 17.1467 9.81711 17.1467 9.56966 16.9108C8.67792 16.0599 5.57481 12.5444 5.56576 12.5341L5.56494 12.5333C4.69323 11.5128 4.16602 10.1976 4.16602 8.74996C4.16602 5.5211 6.77049 2.91663 9.99935 2.91663ZM9.99935 6.24996C9.2181 6.24996 8.55302 6.56543 8.12598 7.04586C7.69893 7.52628 7.49935 8.14232 7.49935 8.74996C7.49935 9.3576 7.69893 9.97363 8.12598 10.4541C8.55302 10.9345 9.2181 11.25 9.99935 11.25C10.7806 11.25 11.4457 10.9345 11.8727 10.4541C12.2998 9.97363 12.4994 9.3576 12.4994 8.74996C12.4994 8.14232 12.2998 7.52628 11.8727 7.04586C11.4457 6.56543 10.7806 6.24996 9.99935 6.24996ZM9.99935 7.49996C10.4681 7.49996 10.7405 7.65324 10.9385 7.87594C11.1364 8.09863 11.2493 8.4201 11.2493 8.74996C11.2493 9.07982 11.1364 9.40128 10.9385 9.62398C10.7405 9.84668 10.4681 9.99996 9.99935 9.99996C9.5306 9.99996 9.25818 9.84668 9.06022 9.62398C8.86227 9.40128 8.74935 9.07982 8.74935 8.74996C8.74935 8.4201 8.86227 8.09863 9.06022 7.87594C9.25818 7.65324 9.5306 7.49996 9.99935 7.49996Z" fill="#25344F"/>
</svg>
