<svg width="243" height="43" viewBox="0 0 243 43" fill="none" xmlns="http://www.w3.org/2000/svg">
<path d="M21.0358 0.462402H0.386865C0.169254 0.462402 0 0.629262 0 0.843798C0 1.05833 0.169254 1.22519 0.386865 1.22519H8.68029C8.89792 1.22519 9.06717 1.39205 9.06717 1.60659V26.5284C9.06717 26.7429 9.23642 26.9097 9.45402 26.9097H12.0775C12.2951 26.9097 12.4643 26.7429 12.4643 26.5284V1.59467C12.4643 1.38013 12.6336 1.21327 12.8512 1.21327H21.0358C21.2534 1.21327 21.4227 1.04641 21.4227 0.83188C21.4227 0.617345 21.2413 0.462402 21.0358 0.462402Z" fill="white"/>
<path d="M32.1937 0.462402H29.5704C29.3529 0.462402 29.1836 0.629262 29.1836 0.843798V26.5284C29.1836 26.7429 29.3529 26.9097 29.5704 26.9097H32.1937C32.4115 26.9097 32.5806 26.7429 32.5806 26.5284V0.843798C32.5806 0.629262 32.3993 0.462402 32.1937 0.462402Z" fill="white"/>
<path d="M64.159 0.462402H61.5355C61.318 0.462402 61.1486 0.629262 61.1486 0.843798V12.7266C61.1486 12.9412 60.9796 13.108 60.7618 13.108H45.7587C45.5412 13.108 45.3719 12.9412 45.3719 12.7266V0.843798C45.3719 0.629262 45.2025 0.462402 44.985 0.462402H42.3615C42.1439 0.462402 41.9746 0.629262 41.9746 0.843798V26.5284C41.9746 26.7429 42.1439 26.9097 42.3615 26.9097H44.985C45.2025 26.9097 45.3719 26.7429 45.3719 26.5284V14.2522C45.3719 14.0377 45.5412 13.8708 45.7587 13.8708H60.7618C60.9796 13.8708 61.1486 14.0377 61.1486 14.2522V26.5284C61.1486 26.7429 61.318 26.9097 61.5355 26.9097H64.159C64.3766 26.9097 64.5459 26.7429 64.5459 26.5284V0.843798C64.5339 0.629262 64.3646 0.462402 64.159 0.462402Z" fill="white"/>
<path d="M94.0196 24.0254L90.5862 18.2568C90.03 17.2795 89.1112 16.5048 87.8298 15.9327C87.4911 15.7778 87.5396 15.301 87.9022 15.2176C89.6431 14.8243 91.0939 14.0734 92.2787 12.9888C93.7656 11.5943 94.5151 9.93767 94.5151 7.99495C94.5151 5.86151 93.5843 4.07374 91.7347 2.63157C89.9091 1.17752 87.6 0.462402 84.8316 0.462402H74.7247C74.507 0.462402 74.3379 0.629262 74.3379 0.843798V26.5284C74.3379 26.7429 74.507 26.9097 74.7247 26.9097H77.348C77.5656 26.9097 77.7349 26.7429 77.7349 26.5284V15.9685C77.7349 15.7539 77.9042 15.5871 78.1217 15.5871H84.1423C84.2027 15.5871 84.2512 15.599 84.3116 15.6228C85.2184 16.04 85.9679 16.7313 86.5603 17.6847L90.6104 24.7047C91.1301 25.5748 91.7587 26.278 92.4962 26.8262C92.5566 26.8741 92.6413 26.8979 92.726 26.8979H93.415C93.5963 26.5163 93.8623 26.1588 94.201 25.861L94.3218 25.7536L94.4185 25.6821C94.5636 25.563 94.7207 25.4438 94.8658 25.3246C94.5636 24.9433 94.2856 24.5022 94.0196 24.0254ZM84.1788 14.8243H78.1098C77.892 14.8243 77.7229 14.6574 77.7229 14.4429V1.59467C77.7229 1.38013 77.892 1.21327 78.1098 1.21327H84.1788C86.2219 1.21327 87.854 1.83304 89.0992 3.07258C90.3564 4.30019 90.985 5.94496 90.985 8.01878C90.985 10.0807 90.3564 11.7374 89.0992 12.9769C87.854 14.2045 86.2219 14.8243 84.1788 14.8243Z" fill="white"/>
<path d="M112.167 15.6943C112.167 15.6228 112.191 15.5513 112.227 15.4917L121.898 1.04641C122.068 0.796124 121.886 0.462402 121.584 0.462402H121.403C121.27 0.462402 121.149 0.521998 121.077 0.629264L112.155 14.0257C111.997 14.2522 111.671 14.2522 111.514 14.0257L102.543 0.629264C102.471 0.521998 102.35 0.462402 102.229 0.462402H99.3637C99.0615 0.462402 98.8802 0.796124 99.0492 1.04641L108.709 15.4798C108.745 15.5394 108.769 15.6109 108.769 15.6824V21.7013C109.882 21.892 110.994 22.178 112.167 22.5833V15.6943Z" fill="white"/>
<path d="M147.057 15.6347C146.054 14.6693 144.785 13.9542 143.261 13.5013C142.923 13.3941 142.899 12.9292 143.225 12.7981C144.446 12.3095 145.462 11.642 146.259 10.8077C147.311 9.71122 147.843 8.43593 147.843 6.96995C147.843 5.12258 147.057 3.58507 145.498 2.34554C143.951 1.09409 142.004 0.462402 139.659 0.462402H128.379C128.162 0.462402 127.992 0.629262 127.992 0.843798V22.2377C129.153 22.2972 130.289 22.4402 131.389 22.6906V14.0615C131.389 13.847 131.559 13.6801 131.776 13.6801H139.296C141.073 13.6801 142.536 14.2284 143.697 15.3249C144.869 16.4214 145.449 17.9946 145.449 20.0685C145.449 21.9158 144.942 23.3818 143.914 24.4902C143.261 25.2054 142.463 25.6821 141.544 25.9325C141.992 25.9205 142.427 25.9087 142.826 25.8728C143.697 25.8013 143.685 25.8013 144.47 25.706C144.966 25.6463 145.401 25.5986 145.776 25.563C146.066 25.3723 146.356 25.1696 146.622 24.9433C148.182 23.6321 148.968 21.9873 148.968 20.0208C148.98 18.3164 148.339 16.8504 147.057 15.6347ZM138.135 12.9292H131.776C131.559 12.9292 131.389 12.7624 131.389 12.5478V1.59467C131.389 1.38013 131.559 1.21327 131.776 1.21327H138.716C140.396 1.21327 141.738 1.74961 142.754 2.83419C143.769 3.90688 144.289 5.32519 144.289 7.11296C144.289 8.92459 143.733 10.3429 142.633 11.3679C141.521 12.4048 140.021 12.9292 138.135 12.9292Z" fill="white"/>
<path d="M165.966 10.9269C165.845 10.772 165.869 10.5455 166.014 10.4263L176.459 1.11793C176.725 0.891474 176.556 0.462402 176.206 0.462402H176.024C175.928 0.462402 175.843 0.498159 175.77 0.557752L160.103 14.5144C159.861 14.7289 159.462 14.5621 159.462 14.2284V0.843798C159.462 0.629262 159.292 0.462402 159.075 0.462402H156.451C156.234 0.462402 156.064 0.629262 156.064 0.843798V26.5284C156.064 26.7429 156.234 26.9097 156.451 26.9097H159.075C159.292 26.9097 159.462 26.7429 159.462 26.5284V16.4214C159.462 16.3141 159.51 16.2068 159.595 16.1353L163.088 13.0604C163.258 12.9173 163.512 12.9412 163.657 13.1199L173.969 26.7547C174.042 26.85 174.151 26.9097 174.271 26.9097H177.282C177.596 26.9097 177.777 26.5522 177.584 26.3018L165.966 10.9269Z" fill="white"/>
<path d="M205.136 3.97823C202.5 1.3919 199.188 0.0927734 195.186 0.0927734C191.209 0.0927734 187.896 1.3919 185.249 3.97823C182.601 6.57648 181.283 9.80642 181.283 13.6919C181.283 17.5654 182.601 20.7953 185.249 23.3936C187.908 25.98 191.221 27.2671 195.186 27.2671C199.188 27.2671 202.5 25.98 205.136 23.3936C207.784 20.7953 209.101 17.5654 209.101 13.6919C209.101 9.81834 207.784 6.57648 205.136 3.97823ZM202.718 23.0241C200.832 25.3601 198.317 26.5282 195.186 26.5282C192.079 26.5282 189.577 25.3601 187.679 23.0241C185.793 20.6762 184.85 17.5654 184.85 13.6919C184.85 9.80642 185.793 6.69566 187.679 4.35962C189.577 2.01166 192.079 0.843643 195.186 0.843643C198.317 0.843643 200.832 2.01166 202.718 4.35962C204.616 6.69566 205.571 9.80642 205.571 13.6919C205.559 17.5654 204.616 20.6762 202.718 23.0241Z" fill="white"/>
<path d="M242.614 0.462402H239.676C239.543 0.462402 239.422 0.533915 239.349 0.641182L230.016 15.9089C229.871 16.1473 229.509 16.1473 229.364 15.9089L219.982 0.641182C219.909 0.533915 219.789 0.462402 219.655 0.462402H216.561C216.343 0.462402 216.174 0.629262 216.174 0.843798V26.5284C216.174 26.7429 216.343 26.9097 216.561 26.9097H216.706C216.923 26.9097 217.093 26.7429 217.093 26.5284V3.48973C217.093 3.10833 217.6 2.9653 217.806 3.29903L227.937 19.842C228.009 19.9612 228.13 20.0208 228.263 20.0208H228.432C228.566 20.0208 228.686 19.9493 228.759 19.842L238.89 3.29903C239.095 2.97722 239.603 3.10833 239.603 3.48973V26.5163C239.603 26.7308 239.773 26.8979 239.99 26.8979H242.614C242.831 26.8979 243 26.7308 243 26.5163V0.843798C243 0.629262 242.831 0.462402 242.614 0.462402Z" fill="white"/>
<path d="M134.653 39.4598C133.347 39.7814 131.933 39.9721 130.458 39.9841C129.43 39.9841 128.427 39.9006 127.472 39.7219C127.29 39.6981 127.133 39.7696 127.037 39.9006C126.142 41.2235 124.534 42.0341 122.624 42.2366C122.286 42.2604 122.261 42.7612 122.612 42.8089C123.434 42.9398 124.28 42.9995 125.163 42.9995C129.104 42.9875 132.598 41.6766 134.762 39.6504C134.846 39.5669 134.762 39.4239 134.653 39.4598Z" fill="#AB3541"/>
<path d="M146.55 29.7109C145.861 28.6857 144.785 28.7216 144.64 28.7334C144.217 28.7572 143.661 28.7931 143.044 28.8408C141.968 28.9241 140.699 29.0076 139.526 29.0553C138.716 29.0791 138.148 29.3057 137.447 29.5797C137.277 29.6394 137.108 29.7109 136.927 29.7824C134.605 30.6642 132.115 31.1291 129.661 31.153C127.944 31.1648 126.469 31.0694 125.176 30.8549C123.314 30.5451 122.02 30.2591 119.179 28.9479C118.623 28.6857 118.055 28.4236 117.499 28.1614C116.145 27.5179 114.791 26.8861 113.425 26.3259C113.038 26.1352 112.651 25.9684 112.24 25.8016C110.426 25.0863 108.516 24.5381 106.292 24.4309C104.756 24.3474 103.33 24.6334 102.677 24.8361C100.199 25.5512 98.0103 26.624 96.3178 28.0063C96.2816 28.0302 96.2454 28.0661 96.197 28.1017C96.0037 28.2688 96.1488 28.5666 96.3905 28.5071C98.4699 28.0661 100.295 28.3997 101.408 29.4605C101.408 29.4725 101.432 29.4964 101.468 29.5202C101.625 29.6632 101.855 29.675 102.024 29.544C103.499 28.4474 105.276 27.5297 107.295 26.8979C108.673 26.4571 110.946 26.4212 112.324 26.7908C113.485 27.1006 114.331 27.4105 115.081 27.7562C116.423 28.5071 117.837 29.4249 118.841 30.116C119.276 30.4141 119.759 30.7596 120.267 31.1291C122.069 32.4164 124.269 33.9895 125.877 34.8954C127.896 36.0395 128.754 36.3734 130.991 37.0169C132.623 37.4818 134.339 37.6366 136.02 37.732C137.495 37.7558 140.469 37.5057 141.521 36.8739C143.479 35.682 144.41 34.5856 145.68 33.0717C145.873 32.8454 146.066 32.6071 146.272 32.3688C146.743 31.7965 147.239 30.7357 146.55 29.7109Z" fill="#AB3541"/>
<path d="M122.805 26.3018C124.836 26.1946 126.638 26.7785 127.81 28.0776C127.919 28.197 128.088 28.2326 128.246 28.197C129.66 27.7797 131.232 27.5414 132.876 27.5414C133.65 27.5414 134.411 27.577 135.149 27.6844C135.282 27.7082 135.342 27.5414 135.233 27.4699C133.118 26.0514 130.192 25.1934 126.976 25.1934C125.465 25.1934 124.026 25.3722 122.721 25.7298C122.37 25.8131 122.443 26.3138 122.805 26.3018Z" fill="#AB3541"/>
</svg>
