<svg width="109" height="109" viewBox="0 0 109 109" fill="none" xmlns="http://www.w3.org/2000/svg">
<path fill-rule="evenodd" clip-rule="evenodd" d="M56.8642 0.0351066C51.5426 0.168374 46.9204 0.601492 43.5812 1.27949C29.928 4.05177 18.0697 11.7733 9.97176 23.1643C5.13692 29.9652 1.99233 37.6444 0.591145 46.0717C-0.193548 50.7913 -0.197533 58.4873 0.582179 63.1792C1.87229 70.9421 4.6833 78.1339 8.93486 84.5489C10.792 87.3511 13.0473 90.1799 15.0834 92.2615L16.5171 93.7271L18.1775 93.6292C21.2115 93.4501 24.521 93.0723 27.5586 92.558C29.9583 92.1519 33.6914 91.1447 38.102 89.7133C41.3849 88.6478 44.2836 87.7793 45.5737 87.4744C46.2129 87.3231 47.0348 87.1276 47.4001 87.0396C49.9914 86.4153 55.238 85.8822 58.7737 85.8842C61.0783 85.8854 65.056 86.1892 67.4609 86.5477C71.7535 87.1874 77.6868 88.8307 83.0981 90.8785C84.9953 91.5964 89.8102 93.3746 90.7282 93.6963L91.7168 94.0428L93.4771 92.2527C97.0765 88.5922 99.5305 85.3923 102.165 80.9237C102.774 79.8917 103.272 79.0136 103.272 78.9721C103.272 78.9307 103.637 78.1522 104.083 77.2422C105.963 73.4044 107.454 68.817 108.231 64.4755C109.016 60.0897 109 60.8367 109 29.5762V0.00762017L83.7623 0.000623684C69.8816 -0.00337433 57.7774 0.0122847 56.8642 0.0351066ZM46.188 6.08859C45.6532 6.31448 45.2301 7.39078 44.9113 9.33631C44.7612 10.2525 44.4559 11.6148 44.2329 12.3635L43.8275 13.725L42.9573 14.008C41.6789 14.4238 38.6908 15.6572 37.488 16.2655C35.6083 17.2162 33.6588 18.6345 31.9 20.3308C29.2283 22.9076 28.2282 24.5277 26.5745 28.959C24.8612 33.5494 22.9106 41.2776 22.9097 43.4776C22.9094 44.4032 23.1098 44.0652 23.6378 42.2496C24.1047 40.6441 24.5947 39.512 24.9063 39.3187C25.0026 39.2591 25.2333 39.4038 25.4189 39.6406C25.646 39.9304 25.917 40.071 26.2482 40.071C26.6954 40.071 26.7233 40.1027 26.5547 40.4185C26.2622 40.9671 26.5006 40.9922 27.2242 40.4891C28.0644 39.9049 28.568 39.0973 28.6566 38.1923L28.7254 37.489L28.4326 38.1017L28.1397 38.7142L27.8414 38.3099C27.628 38.0205 27.6044 37.9048 27.7584 37.9029C27.9123 37.9011 27.9026 37.8543 27.7246 37.7388C27.3693 37.5084 26.3367 37.5344 26.0761 37.7805C25.7274 38.1095 26.0037 37.1525 26.5053 36.2936C27.5804 34.4531 29.2167 33.2384 30.9192 33.017C31.7936 32.9034 33.9605 33.2316 34.8764 33.6164C36.1891 34.1681 37.3422 35.6474 37.3512 36.7908C37.3533 37.0597 37.4255 37.2149 37.5209 37.1558C37.7935 36.9867 37.7093 35.9369 37.3701 35.2751C36.7001 33.9685 35.5354 33.2602 33.164 32.7177C32.3184 32.5241 31.4172 32.2589 31.1613 32.1283C30.2509 31.6637 30.2984 30.6224 31.2674 29.8045C33.3892 28.0132 36.8648 28.3943 39.8263 30.7428C40.8036 31.5179 41.9411 33.1523 42.1018 34.0125C42.1599 34.3232 42.282 34.6236 42.373 34.68C42.659 34.8574 42.328 33.3927 41.8407 32.3249C40.9947 30.4716 38.9347 28.9367 36.4544 28.3117C35.116 27.9744 34.6982 27.6277 34.6982 26.8541C34.6982 23.8043 38.7661 19.6575 43.9568 17.4161C50.0937 14.7661 57.0047 14.0741 63.6718 15.4421C67.1712 16.1601 71.0691 17.7318 73.6964 19.4843C75.357 20.5917 77.956 23.284 79.0302 25.0093C80.236 26.9459 81.2554 29.9321 80.6285 29.6907C80.186 29.5203 77.7164 29.3698 77.2578 29.4853C76.8188 29.5959 76.8115 29.6126 77.1231 29.7883C77.3044 29.8907 78.3755 30.07 79.5034 30.1868C81.6121 30.4052 83.801 30.98 84.8415 31.5889C85.1611 31.7758 85.2732 31.8818 85.0906 31.8243C84.9079 31.7668 84.3102 31.5766 83.7623 31.4013C81.8361 30.7856 78.1937 30.3279 78.4431 30.7327C78.4964 30.8189 78.8931 30.9364 79.3246 30.9934C81.2599 31.2492 84.0756 32.0725 83.8295 32.3105C83.7925 32.3462 82.9404 32.1584 81.9359 31.8934C80.9313 31.6282 79.8885 31.4107 79.6183 31.41L79.1272 31.4087L79.8098 32.1166C80.5521 32.8866 81.6959 34.5946 81.9749 35.3499C82.071 35.6102 82.419 36.5533 82.7485 37.4455C83.4759 39.4168 83.5117 40.1005 82.9168 40.6537C82.162 41.3555 80.9737 41.6539 78.9472 41.6504C76.9596 41.6471 75.9869 41.3597 75.2208 40.5499C74.8771 40.1868 74.8575 40.0657 74.9806 39.0715C75.0543 38.476 75.1177 37.314 75.1215 36.4895C75.1273 35.1981 75.0659 34.8564 74.6774 34.0247C74.1097 32.809 72.6491 31.3292 71.2265 30.5284C70.6329 30.1943 69.9978 29.692 69.8151 29.4123C69.6325 29.1326 69.2154 28.7248 68.8882 28.5064C67.7667 27.7575 66.8117 27.5472 63.8592 27.3995C62.3186 27.3224 61.0228 27.2239 60.9798 27.1809C60.7837 26.9842 62.6775 26.8736 64.5358 26.9732C67.9773 27.1578 70.4929 27.8389 73.3849 29.369C74.3438 29.8764 75.3123 30.4117 75.537 30.5586C76.4146 31.1321 75.6409 30.3748 74.6812 29.721C73.271 28.7601 71.1478 27.7948 69.5115 27.3703L68.1227 27.0102L68.6205 26.7523C68.967 26.5727 69.2152 26.2414 69.4381 25.6615C69.8771 24.5181 70.0843 24.3302 71.5839 23.715C72.4251 23.3698 72.8126 23.1343 72.6705 23.0545C72.2552 22.8213 68.6972 23.2121 67.1585 23.6597C65.4495 24.1569 63.7669 24.9027 62.9596 25.5204C62.4454 25.9139 62.4243 25.966 62.6697 26.2381C62.9199 26.5156 62.8469 26.5376 61.3105 26.6472C59.2216 26.7961 56.8529 27.2775 55.0066 27.9287C53.2323 28.5544 50.1541 30.1071 48.5345 31.1934C45.7875 33.0358 42.802 35.9875 42.4729 37.1859C42.2189 38.1111 41.8038 38.6154 40.5313 39.5439C39.908 39.9987 38.9197 40.9123 38.3349 41.5739C37.0301 43.0507 33.8722 45.8156 32.3149 46.845C30.1493 48.2764 27.3702 49.3592 26.454 49.1285C25.9969 49.0134 25.7652 48.3452 26.0593 47.9899C26.1682 47.8581 26.6456 47.5305 27.1203 47.2618C27.5948 46.9931 28.2722 46.452 28.6257 46.0595C29.3203 45.2882 31.1108 41.6917 30.8488 41.5939C30.6071 41.5038 28.7811 42.1994 27.4875 42.8746C26.3905 43.4473 24.4223 45.1427 24.6221 45.3429C24.674 45.3952 25.0758 45.138 25.515 44.7715C26.6046 43.862 28.989 42.7363 29.8262 42.7363C30.2094 42.7363 30.0698 43.0282 29.6339 43.138C29.4054 43.1955 28.5806 43.4741 27.8009 43.7572C26.6248 44.1841 26.1858 44.4535 25.2268 45.3366C23.9612 46.5018 23.3564 46.6829 22.7528 46.0774C22.3068 45.6299 22.1843 44.7952 22.2894 42.9211C22.4166 40.6556 23.0651 37.9646 24.6616 33.0803C25.4242 30.7472 26.0246 28.8144 25.9957 28.7856C25.9102 28.6998 23.9812 33.8753 23.4301 35.6685C21.7124 41.2597 21.3639 45.2003 22.4993 46.193C22.7875 46.4448 23.1417 46.5678 23.5797 46.5678C24.1439 46.5678 24.38 46.4325 25.3418 45.5579C25.9527 45.0026 26.6783 44.431 26.9542 44.2879C27.5641 43.9716 29.7511 43.2146 29.8292 43.2931C29.8601 43.3239 29.6922 43.7174 29.4562 44.1671C28.8766 45.2728 27.7437 46.4027 26.4588 47.1566C25.1624 47.9173 24.9412 48.4145 25.6332 49.0117C26.1979 49.4991 26.9916 49.515 28.4129 49.0674C31.206 48.1878 34.0387 46.2268 37.5534 42.7398C39.1039 41.2014 40.4986 39.9692 40.9968 39.6972C41.9765 39.1626 42.797 38.1128 42.941 37.2103C43.0169 36.7337 43.2578 36.3619 43.893 35.7402C44.3608 35.2824 44.8572 34.9077 44.9962 34.9074C45.1352 34.9071 46.4324 35.6197 47.8791 36.491C50.3728 37.9929 51.302 38.4412 51.302 38.1423C51.302 38.0693 50.9496 37.2554 50.5191 36.3334C49.7892 34.7708 49.7317 34.5491 49.6708 33.066L49.6056 31.4748L50.1952 30.9555C52.078 29.297 57.0457 27.4106 59.5306 27.4106C61.5804 27.4106 62.5528 27.677 63.4471 28.4838C64.8868 29.7826 67.554 30.8957 69.5653 31.037C70.7518 31.1205 70.7981 31.1105 70.5615 30.8228C70.3322 30.5443 70.339 30.5349 70.649 30.7007C71.6801 31.2516 73.1214 32.5093 73.6227 33.2954C74.3485 34.4336 74.5861 35.3452 74.5806 36.9694C74.5766 38.137 74.5097 38.4172 73.9767 39.4991C73.4947 40.4778 72.925 41.1871 71.0671 43.1225C68.7362 45.5504 67.7505 46.856 67.3166 48.0898C66.7122 49.8085 67.9326 49.8303 72.5098 48.1833C76.6972 46.6764 78.114 46.3402 79.7269 46.4707C81.1699 46.5874 83.3505 47.1107 86.1655 48.0157C87.4545 48.43 88.4045 48.6341 89.0755 48.6406C90.0267 48.6496 90.074 48.6306 90.1217 48.2186C90.1898 47.6304 89.0288 45.9321 86.431 42.8196C84.4822 40.4848 83.6778 39.2326 83.4111 38.1181L83.3004 37.6555L83.7241 38.0455C84.4452 38.709 84.72 38.491 85.0575 36.9879C85.6045 34.5519 86.2019 33.7372 87.8302 33.2068C88.2411 33.073 88.5716 32.8947 88.5643 32.8108C88.5261 32.3635 84.8382 30.6212 82.8906 30.1305C81.678 29.8248 81.3547 29.5727 81.3547 28.9331C81.3547 28.2246 80.8902 26.5942 80.3665 25.4653C79.6316 23.8812 78.5992 22.4581 77.1248 20.9972C73.0711 16.9807 66.605 14.0703 59.3548 12.9993C57.6781 12.7516 57.4965 12.689 57.1395 12.2364C56.3419 11.2252 52.4275 8.53021 49.406 6.91168C47.8346 6.0701 46.8366 5.81473 46.188 6.08859ZM69.074 6.64931C68.893 7.29816 68.796 7.40011 68.1808 7.58768L67.4906 7.79841L68.1883 8.09893C68.7948 8.3603 68.9159 8.50289 69.1156 9.18988L69.3453 9.98032L69.5433 9.19138C69.7188 8.4924 69.8211 8.36812 70.4424 8.10042L71.1434 7.79841L70.4519 7.58735C69.8291 7.39728 69.7422 7.30415 69.5779 6.64881C69.4774 6.24868 69.3687 5.92134 69.3363 5.92134C69.3037 5.92134 69.1857 6.24885 69.074 6.64931ZM94.4818 12.9137L94.0976 14.409L93.164 14.7479C92.6504 14.9345 92.0097 15.1862 91.7402 15.3075L91.2502 15.5281L92.6534 16.0353L94.0566 16.5426L94.4961 18.1036C94.7445 18.9857 94.9794 19.5559 95.0364 19.4146C95.0919 19.2772 95.3059 18.5717 95.5123 17.8469L95.8873 16.5291L97.1995 16.0563C97.9211 15.7963 98.5389 15.556 98.5725 15.5226C98.6374 15.4574 98.267 15.2985 96.7731 14.7504L95.837 14.4071L95.4483 12.9129C95.2346 12.0909 95.0163 11.4186 94.963 11.4186C94.9097 11.4186 94.6932 12.0914 94.4818 12.9137ZM55.0136 16.8319C51.7963 17.5337 48.881 19.1286 46.4537 21.5146C44.9392 23.0033 43.1661 25.3415 43.1661 25.8499C43.1661 25.932 43.554 26.0916 44.0282 26.2046C45.0955 26.459 45.7786 27.0868 46.0157 28.0317C46.1659 28.6307 46.2596 28.7433 46.6071 28.7433C47.2996 28.7433 49.001 28.2411 50.0099 27.739C52.2334 26.632 53.3974 25.5021 53.9516 23.9124C54.5507 22.1946 55.3764 20.4899 56.4674 18.7186C57.0396 17.7898 57.4377 16.9695 57.3843 16.8297C57.2672 16.5239 56.4216 16.5246 55.0136 16.8319ZM14.6084 35.1071C14.426 35.8135 14.3385 35.9139 13.7182 36.1285L13.0303 36.3665L13.5284 36.5578C13.8024 36.663 14.1177 36.7813 14.2291 36.8205C14.3405 36.8596 14.4775 37.101 14.5336 37.3569C14.7364 38.2836 14.8179 38.3337 15.0185 37.6555C15.1782 37.1153 15.35 36.9244 15.9274 36.6467L16.6395 36.3041L15.9591 36.0997C15.3471 35.9156 15.2551 35.8161 15.0445 35.1095L14.8106 34.3239L14.6084 35.1071ZM38.7661 35.6279C38.7661 36.7322 38.7187 36.9091 38.268 37.483C37.9941 37.832 37.5456 38.5383 37.2713 39.0527C36.4664 40.5621 35.719 41.5543 34.1236 43.2311C32.7785 44.6449 32.7284 44.7184 33.6411 43.9394C35.6592 42.2169 37.3729 40.1651 37.8458 38.9049C37.9662 38.5842 38.198 38.2021 38.3608 38.0558C38.8827 37.5872 39.3459 36.6724 39.3466 36.1093C39.3471 35.6392 38.9632 34.4072 38.8161 34.4072C38.7886 34.4072 38.7661 34.9566 38.7661 35.6279ZM100.367 38.9018C100.266 39.4966 100.186 39.5869 99.6047 39.7618C99.2473 39.8693 98.9547 40.0084 98.9547 40.071C98.9547 40.1336 99.2473 40.2727 99.6047 40.3802C100.186 40.5551 100.266 40.6456 100.366 41.2396C100.428 41.6047 100.54 41.9034 100.615 41.9034C100.69 41.9034 100.802 41.6047 100.864 41.2396C100.964 40.6456 101.044 40.5551 101.625 40.3802C101.983 40.2727 102.275 40.1336 102.275 40.071C102.275 40.0084 101.985 39.8698 101.63 39.763C101.079 39.5976 100.968 39.4838 100.876 38.9929C100.722 38.1693 100.497 38.1291 100.367 38.9018ZM33.702 38.6869C32.2786 38.9259 29.916 40.0062 28.297 41.1581C26.873 42.1715 26.6271 42.5546 27.997 41.6257C30.1154 40.1893 32.9271 39.0715 34.4218 39.0715C35.1895 39.0715 35.3053 39.2946 34.7605 39.7245C34.436 39.9806 34.3932 40.071 34.5961 40.071C34.9948 40.071 36.1926 39.2734 36.1926 39.0079C36.1926 38.6634 34.8628 38.492 33.702 38.6869ZM57.1375 43.4552C57.0329 43.713 56.9472 44.0235 56.9472 44.1451C56.9472 44.2666 56.6296 44.496 56.2416 44.6547L55.5359 44.9436L56.2416 45.2071C56.6296 45.352 56.9472 45.5626 56.9472 45.6752C56.9472 45.7877 57.0329 46.0908 57.1375 46.3487L57.328 46.8176L57.5259 46.1513C57.6951 45.5821 57.8306 45.4448 58.4564 45.2089L59.1887 44.9331L58.6906 44.751C57.8556 44.4458 57.7258 44.3226 57.5232 43.6421L57.328 42.9862L57.1375 43.4552ZM93.4755 55.0471V56.0512L92.7145 55.7239C91.7346 55.3026 91.7132 55.3056 91.5093 55.8928C91.3093 56.4678 91.2952 56.4552 92.4426 56.7252L93.3191 56.9314L92.6386 57.6721L91.9584 58.4125L92.3833 58.7479C92.8897 59.1475 93.0132 59.0895 93.4982 58.2236C93.702 57.86 93.9226 57.5623 93.9884 57.5623C94.0543 57.5623 94.3052 57.8996 94.5459 58.3119C94.7868 58.7242 95.0367 59.0599 95.1013 59.0579C95.1659 59.0559 95.4057 58.9101 95.634 58.7341L96.049 58.414L95.4679 57.7834C95.1483 57.4365 94.8252 57.1059 94.7498 57.0486C94.6746 56.9911 95.0668 56.8547 95.6215 56.745C96.6939 56.5335 96.7383 56.4832 96.4374 55.821C96.2056 55.3106 96.1955 55.3099 95.2172 55.7305L94.441 56.0644L94.4978 55.1059L94.5547 54.1473L94.0151 54.0952L93.4755 54.0429V55.0471ZM56.8642 54.5625C56.5903 54.6369 56.086 54.7459 55.7435 54.8048C55.0549 54.9234 54.8879 55.3404 55.4944 55.4267L55.868 55.48L55.912 60.2729L55.9562 65.0659L55.4554 65.1664C55.1801 65.2217 54.9548 65.3699 54.9548 65.4958C54.9548 65.6763 55.3422 65.7249 56.7812 65.7249C57.8882 65.7249 58.6076 65.6593 58.6076 65.5583C58.6076 65.4667 58.4582 65.2418 58.2755 65.0586C57.974 64.7561 57.9435 64.5033 57.9435 62.3143V59.903L58.4001 59.6709C58.9842 59.3739 59.4446 59.45 59.8112 59.9043C60.0583 60.2105 60.102 60.6269 60.102 62.6771C60.102 64.9496 60.0827 65.0949 59.7699 65.1768C59.5872 65.2248 59.4378 65.3677 59.4378 65.4945C59.4378 65.6768 59.8199 65.7249 61.2642 65.7249C62.7375 65.7249 63.0906 65.6788 63.0906 65.4867C63.0906 65.3556 62.9224 65.2243 62.717 65.1952C62.3531 65.1432 62.3408 65.0752 62.2415 62.5598C62.1336 59.8232 62.0305 59.3572 61.4063 58.788C60.6358 58.085 59.2045 58.1412 58.519 58.9013C58.3567 59.081 58.161 59.2281 58.0838 59.2281C58.0066 59.2281 57.9435 58.1412 57.9435 56.8127C57.9435 54.149 57.9946 54.2556 56.8642 54.5625ZM77.7019 54.5616C77.3823 54.6338 76.8407 54.742 76.4981 54.8023C75.8604 54.9148 75.5979 55.3967 76.1744 55.3967C76.8374 55.3967 76.8717 55.6328 76.8717 60.1887C76.8717 62.8976 76.8058 64.7042 76.6999 64.903C76.6052 65.0802 76.3811 65.2252 76.2018 65.2252C76.0223 65.2252 75.8755 65.3376 75.8755 65.475C75.8755 65.6833 76.2076 65.7249 77.868 65.7249C79.5283 65.7249 79.8604 65.6833 79.8604 65.475C79.8604 65.3376 79.7259 65.2252 79.5615 65.2252C79.0111 65.2252 78.8642 64.8672 78.8642 63.526C78.8642 62.8114 78.9306 62.2266 79.0116 62.2266C79.0926 62.2266 79.5946 63.0119 80.1269 63.9718C80.659 64.9316 81.1718 65.7464 81.2662 65.7824C81.3605 65.8184 82.0167 65.8104 82.7245 65.7645C83.6049 65.7074 84.0113 65.6148 84.0113 65.4712C84.0113 65.3558 83.831 65.2158 83.6105 65.1603C83.39 65.1049 82.9884 64.778 82.7177 64.4344C81.9991 63.5213 80.6906 61.3103 80.6906 61.0089C80.6906 60.6008 82.2092 59.1475 82.82 58.9711C84.1385 58.5903 83.1237 58.2753 81.2302 58.4775C80.4962 58.5558 80.1925 58.6576 80.1925 58.825C80.1925 58.9551 80.3001 59.0616 80.4317 59.0616C80.5634 59.0616 80.7165 59.1355 80.7721 59.2258C80.9189 59.4642 80.0862 60.8138 79.4727 61.3319L78.9472 61.7759L78.9025 58.0865C78.8529 53.9877 78.9523 54.2798 77.7019 54.5616ZM18.2605 55.4455C18.2605 55.564 18.5033 55.7327 18.8001 55.8203L19.3398 55.9798V60.4775V64.9753L18.8001 65.1347C18.5033 65.2223 18.2605 65.3911 18.2605 65.5095C18.2605 65.6751 18.7795 65.7249 20.502 65.7249C22.3837 65.7249 22.7435 65.6848 22.7435 65.475C22.7435 65.3376 22.5994 65.2252 22.4232 65.2252C21.7093 65.2252 21.5813 64.8293 21.5813 62.6229C21.5813 60.7799 21.611 60.561 21.8428 60.6911C21.9867 60.7719 22.7538 61.9188 23.5475 63.2398L24.9905 65.6416L26.6067 65.6893C27.8568 65.7262 28.2228 65.6873 28.2228 65.5175C28.2228 65.3969 28.0071 65.2165 27.7432 65.1167C27.1928 64.9081 26.0947 63.4662 24.5651 60.9435L23.5332 59.2415L24.5912 57.9793C25.8071 56.5288 26.5953 55.9243 27.4527 55.7847C27.8133 55.7259 28.0567 55.5923 28.0567 55.4529C28.0567 55.1342 24.2191 55.201 24.113 55.5216C24.0725 55.6444 24.1884 55.7299 24.3953 55.7299C24.9986 55.7299 24.9722 56.1945 24.3121 57.193C23.6521 58.1913 21.9635 60.0611 21.7221 60.0611C21.6447 60.0611 21.5813 59.2043 21.5813 58.1572C21.5813 56.1368 21.7224 55.7299 22.4232 55.7299C22.5994 55.7299 22.7435 55.6174 22.7435 55.48C22.7435 55.2703 22.3837 55.2301 20.502 55.2301C18.7795 55.2301 18.2605 55.2799 18.2605 55.4455ZM72.58 56.6756C71.8388 57.1961 71.7246 57.3511 71.7246 57.8358C71.7246 58.1435 71.6499 58.4045 71.5585 58.416C71.4672 58.4275 71.3151 58.4462 71.2205 58.4577C71.0422 58.4792 70.7353 58.884 70.7308 59.1032C70.7295 59.172 70.9525 59.2281 71.2265 59.2281H71.7246V62.0574V64.8867L72.1812 65.3991C72.5441 65.8064 72.7741 65.9126 73.3019 65.9173C74.1798 65.925 75.5715 65.3259 75.445 64.9949C75.3786 64.8212 75.1936 64.7762 74.8054 64.8395C73.8623 64.9931 73.717 64.5738 73.717 61.6989V59.2465L74.5057 59.1957C75.1669 59.153 75.2944 59.091 75.2944 58.8117C75.2944 58.5576 75.176 58.473 74.7963 58.4554C74.5223 58.4427 74.1673 58.424 74.0076 58.4137C73.7628 58.3982 73.717 58.226 73.717 57.3223C73.717 56.732 73.6536 56.21 73.5762 56.162C73.4988 56.114 73.0505 56.3451 72.58 56.6756ZM31.1958 58.4725C28.9412 59.3053 28.1014 60.3156 29.2582 60.8035C29.9393 61.0909 30.3042 60.906 30.4443 60.2028C30.657 59.136 31.4567 58.7264 31.9491 59.4319C32.2588 59.8751 32.2918 61.1214 32.0001 61.3466C31.886 61.4345 31.1673 61.7557 30.4032 62.0599C29.1766 62.5481 28.985 62.6823 28.768 63.2032C28.5726 63.6728 28.5602 63.9198 28.7076 64.4136C29.1155 65.7794 30.5499 66.2956 31.714 65.4954L32.2902 65.0992L32.6561 65.4954C32.8574 65.7132 33.2104 65.8915 33.4405 65.8915C34.0935 65.8915 35.3624 65.2075 35.3624 64.8557C35.3624 64.6181 35.2754 64.5743 34.9609 64.6536C34.3417 64.8095 34.2001 64.3274 34.2001 62.0657C34.2001 59.5656 34.014 59.0206 33.0026 58.5601C32.1758 58.1837 32.0009 58.1752 31.1958 58.4725ZM37.7699 58.4902C37.3133 58.6013 36.7342 58.7392 36.4831 58.7969C35.9521 58.9183 35.8754 59.3163 36.3586 59.443C36.6731 59.5255 36.6907 59.6702 36.6907 62.1777C36.6907 64.9136 36.6194 65.2252 35.9933 65.2252C35.8289 65.2252 35.6944 65.3376 35.6944 65.475C35.6944 65.6826 36.0172 65.7249 37.6039 65.7249C39.0311 65.7249 39.5133 65.6718 39.5133 65.5145C39.5133 65.3989 39.3453 65.2301 39.1397 65.1397C38.7804 64.9816 38.7643 64.8832 38.7188 62.5598C38.6738 60.2618 38.6888 60.1302 39.0278 59.8528C39.5097 59.4585 40.2233 59.4852 40.6083 59.9118C40.8751 60.2075 40.9333 60.5793 40.9801 62.2856C41.0375 64.3806 40.8796 65.2252 40.4307 65.2252C40.2914 65.2252 40.1775 65.3376 40.1775 65.475C40.1775 65.6813 40.4818 65.7249 41.9208 65.7249C43.2945 65.7249 43.6642 65.6761 43.6642 65.4945C43.6642 65.3677 43.5148 65.2248 43.3322 65.1768C43.018 65.0946 43.0001 64.9496 43.0001 62.498C43.0001 60.106 43.0248 59.893 43.3212 59.7337C43.8314 59.4599 44.4166 59.5322 44.7593 59.9115C45.0286 60.2095 45.0837 60.5788 45.13 62.3969C45.1855 64.5731 45.0568 65.2252 44.5716 65.2252C44.4378 65.2252 44.3284 65.3376 44.3284 65.475C44.3284 65.6819 44.642 65.7249 46.1548 65.7249C47.5151 65.7249 47.9812 65.6713 47.9812 65.5145C47.9812 65.3989 47.8132 65.2301 47.6076 65.1397C47.2478 64.9814 47.2309 64.8763 47.151 62.3021C47.0594 59.3506 46.9426 58.9734 45.9642 58.4659C45.3014 58.1219 44.6752 58.2441 43.6202 58.9233L42.8057 59.4477L42.4462 59.0204C41.6466 58.0697 40.8034 58.0337 39.5133 58.8955L38.7661 59.3944L38.6831 58.8412L38.6001 58.2881L37.7699 58.4902ZM52.0267 58.41C51.1268 58.6717 49.9219 59.6094 49.407 60.4487C47.9462 62.8303 49.3628 65.8968 51.9331 65.9168C52.3834 65.9203 52.9673 65.8102 53.2307 65.6723C53.9197 65.3114 54.6826 64.4559 54.5724 64.1677C54.4932 63.9606 54.3755 63.9746 53.802 64.2593C52.6538 64.8292 51.4685 64.3031 50.9805 63.0071C50.7293 62.3401 50.7618 60.6508 51.0388 59.9858C51.4786 58.93 52.1901 58.8505 53.2046 59.7442C53.7952 60.2645 54.0886 60.2573 54.4266 59.7142C54.7311 59.2251 54.5105 58.7339 53.8649 58.4634C53.2381 58.2006 52.7915 58.1877 52.0267 58.41ZM66.0345 58.6318C64.9662 59.0726 63.9195 59.806 63.9233 60.1112C63.9271 60.4094 64.1262 60.6544 64.5434 60.8748C64.9972 61.1147 65.5809 60.8647 65.5819 60.43C65.5828 59.9396 66.2176 59.0616 66.5711 59.0616C66.9908 59.0616 67.3732 59.6416 67.47 60.4255C67.5643 61.1875 67.3712 61.3664 65.7955 61.9768C64.5426 62.4622 63.9736 62.9161 63.9165 63.476C63.8238 64.3852 63.9467 64.7847 64.4853 65.3251C65.1962 66.0382 66.0639 66.0965 66.9533 65.491L67.5414 65.0906L67.8884 65.491C68.0805 65.7126 68.4194 65.8915 68.6474 65.8915C69.2948 65.8915 70.5623 65.2058 70.5623 64.8557C70.5623 64.616 70.476 64.5741 70.1497 64.6564C69.5498 64.8074 69.4 64.2513 69.4 61.8743C69.4 59.5042 69.2252 59.0261 68.1853 58.5523C67.3028 58.1503 67.1914 58.1545 66.0345 58.6318ZM86.6407 58.5403C85.8065 58.876 84.8814 59.462 84.5574 59.86C84.289 60.1897 84.5594 60.6914 85.1208 60.9055C85.6619 61.1119 85.8915 60.9271 86.1438 60.0829C86.3852 59.2744 86.7076 58.9936 87.2408 59.1279C87.5353 59.202 87.7052 59.41 87.84 59.8618C88.1993 61.0647 88.0751 61.2456 86.4398 61.9008C85.6294 62.2255 84.8262 62.6649 84.6549 62.8772C84.0542 63.6214 84.4386 65.241 85.3292 65.7192C85.905 66.0284 86.7556 65.9701 87.2954 65.5845C87.9154 65.1415 88.0329 65.1389 88.4113 65.5583C88.7995 65.9886 89.3011 65.9794 90.2333 65.5252C90.7262 65.2848 90.9849 65.0516 90.9849 64.8475C90.9849 64.6201 90.9019 64.5628 90.6762 64.6346C90.5066 64.6888 90.2895 64.6374 90.1942 64.521C90.0989 64.4044 89.995 63.2934 89.9633 62.0524C89.9171 60.2456 89.8472 59.7064 89.6128 59.3477C88.9556 58.3422 87.8672 58.0466 86.6407 58.5403ZM31.419 62.3814C30.8211 62.8165 30.7133 62.9839 30.7133 63.477C30.7133 64.1357 31.1864 64.7254 31.7147 64.7254C32.1666 64.7254 32.2319 64.4907 32.174 63.0727L32.1246 61.8678L31.419 62.3814ZM66.6604 62.3639C66.1314 62.7297 65.9863 62.941 65.9471 63.4014C65.8668 64.3468 66.8112 65.0906 67.3744 64.5255C67.5912 64.3079 67.6601 61.8896 67.4491 61.899C67.3805 61.902 67.0257 62.1112 66.6604 62.3639ZM87.1674 62.3204C86.2548 62.9668 86.1115 63.6121 86.7226 64.3249C87.0317 64.6856 87.1979 64.7535 87.5527 64.6641C87.9871 64.5548 87.9962 64.525 87.9962 63.223C87.9962 62.4917 87.9403 61.8971 87.8717 61.9016C87.8031 61.9061 87.4863 62.0945 87.1674 62.3204ZM10.8265 66.7244C10.7377 66.9535 10.6093 67.4032 10.5413 67.7239C10.3458 68.6443 10.2097 68.794 9.26743 69.125C8.78011 69.2961 8.31853 69.4925 8.24198 69.5612C8.16544 69.6298 8.59 69.8487 9.18574 70.0474L10.2686 70.4091L10.5655 71.5652C10.7287 72.2012 10.9125 72.7214 10.9738 72.7214C11.0351 72.7214 11.2124 72.2005 11.3678 71.564L11.6506 70.4064L12.8236 70.0141L13.9967 69.6218L12.8494 69.2015L11.702 68.7812L11.3451 67.5447C11.021 66.4226 10.973 66.3466 10.8265 66.7244ZM52.998 69.3339C52.6982 69.4822 52.1207 69.974 51.7149 70.4269C51.1326 71.0766 50.9344 71.4577 50.7743 72.2357C50.6287 72.9431 50.4965 73.2212 50.3057 73.2212C50.0255 73.2212 49.6416 73.5292 49.6416 73.7542C49.6416 73.8275 49.8674 73.8875 50.1435 73.8875H50.6454L50.6001 76.8444C50.5553 79.7682 50.5506 79.8019 50.1812 79.8545C49.9757 79.8837 49.8076 80.015 49.8076 80.1461C49.8076 80.3296 50.0836 80.3871 51.0114 80.3963C51.6736 80.4029 52.5881 80.4199 53.0439 80.4341C53.6959 80.4542 53.8838 80.4009 53.9254 80.1842C53.9627 79.99 53.8417 79.8927 53.5157 79.8549C52.7646 79.7677 52.6354 79.2677 52.6328 76.4366L52.6303 73.905L53.5005 73.8545C54.1615 73.8164 54.3835 73.7364 54.424 73.5217C54.468 73.2896 54.3202 73.2303 53.5954 73.1885L52.7133 73.1379L52.6656 71.7058C52.5987 69.6926 52.9393 69.4627 54.3282 70.583C54.768 70.9378 54.7901 70.9395 55.1168 70.6428C56.2324 69.6298 54.5284 68.5771 52.998 69.3339ZM76.1661 69.3446C75.2927 69.5118 74.8793 69.6656 74.8793 69.8235C74.8793 69.9515 74.986 70.0561 75.1166 70.0561C75.6557 70.0561 75.8755 70.554 75.8753 71.7754V72.9713L75.0664 72.983C73.945 72.9993 72.5059 73.7281 71.878 74.5976C70.285 76.8041 71.1499 79.86 73.5641 80.5547C74.1939 80.7359 74.5939 80.6501 75.2369 80.1959C75.7975 79.7999 75.8755 79.8051 75.8755 80.2372C75.8755 80.534 75.9476 80.5745 76.3321 80.4934C76.5833 80.4404 77.2558 80.3115 77.8264 80.2069C78.9704 79.9975 79.1763 79.6931 78.3661 79.4098L77.868 79.2355V74.146C77.868 70.1744 77.8223 69.0612 77.6604 69.0774C77.5463 69.0889 76.8739 69.2092 76.1661 69.3446ZM31.3345 73.1261C30.2116 73.5282 29.7171 74.2227 29.7171 75.3981C29.7171 75.982 29.8162 76.1884 30.3407 76.6974C30.6838 77.0301 31.32 77.5074 31.7544 77.7579C32.7395 78.3258 33.0427 78.8969 32.6926 79.5252C32.3302 80.176 31.7071 80.1849 30.9855 79.5493C30.6605 79.263 30.3014 78.7704 30.1876 78.4547C29.9135 77.6943 29.6444 77.819 29.5909 78.7314C29.5286 79.7934 29.827 80.2618 30.7171 80.4994C32.5113 80.9785 34.2825 80.0807 34.4815 78.5915C34.6428 77.3859 34.1158 76.6894 32.296 75.7033C32.025 75.5565 31.6571 75.2398 31.4786 74.9998C31.206 74.6336 31.1849 74.495 31.3472 74.1375C31.7127 73.3326 32.7036 73.3878 33.1735 74.2392C33.6852 75.1662 33.8313 75.3176 34.0273 75.1241C34.1588 74.9943 34.1583 74.7079 34.0256 74.0872C33.8564 73.2958 33.7953 73.2167 33.2326 73.0598C32.4459 72.8405 32.0981 72.8527 31.3345 73.1261ZM38.5161 73.0436C37.3387 73.4029 36.6249 74.0128 36.0611 75.1407C35.0597 77.1442 35.6976 79.4499 37.5127 80.3881C38.1603 80.7228 39.5601 80.652 40.2053 80.2518C40.9955 79.7619 41.564 79.1112 41.4538 78.823C41.3738 78.6135 41.268 78.6245 40.7335 78.8979C39.7365 79.4079 39.0811 79.324 38.3564 78.5935C37.6676 77.8993 37.3211 76.7826 37.7163 76.531C37.8372 76.4542 38.4216 76.3846 39.0152 76.3764C39.6088 76.3683 40.4307 76.311 40.8416 76.249C41.5521 76.1419 41.5909 76.1077 41.6318 75.5533C41.6957 74.6891 41.0812 73.7176 40.1831 73.2628C39.4019 72.8672 39.1869 72.8389 38.5161 73.0436ZM44.7817 73.2911C42.7814 74.1164 42.1604 75.0171 43.236 75.5329C43.8504 75.8275 44.1819 75.6358 44.377 74.8734C44.7928 73.2488 46.1229 73.4319 46.1862 75.1224C46.2151 75.8928 46.0294 76.0641 44.5427 76.638C43.0736 77.2048 42.632 77.6381 42.6084 78.5354C42.587 79.3599 43.0325 80.0158 43.9115 80.4536L44.5524 80.7726L45.4427 80.305C46.2451 79.8835 46.3527 79.8637 46.5344 80.1044C46.9538 80.6605 47.5098 80.7003 48.4428 80.2413C49.0115 79.9617 49.3019 79.7208 49.269 79.5558C49.2376 79.3984 49.0774 79.3213 48.8488 79.3536C48.3018 79.4307 48.1473 78.8282 48.1473 76.62C48.1473 74.2338 47.9505 73.6753 46.9498 73.2195C46.0485 72.809 45.9414 72.8127 44.7817 73.2911ZM57.1491 73.1953C56.1066 73.5657 55.5703 74.0341 55.1336 74.9563C54.1908 76.9472 54.778 79.2553 56.4699 80.2094C56.9672 80.4897 57.4259 80.5955 58.1754 80.6027C59.9856 80.6198 61.2352 79.5702 61.6243 77.7059C62.2669 74.629 59.8816 72.2248 57.1491 73.1953ZM65.5873 73.0836C64.9849 73.257 64.1546 73.7792 63.7888 74.2145C62.9264 75.2408 62.6619 77.3724 63.2389 78.647C64.2029 80.7766 67.1564 81.3128 68.8038 79.6575C69.5893 78.8684 69.8982 78.0203 69.8982 76.6531C69.8982 74.9117 68.9903 73.5753 67.5066 73.1334C66.5759 72.856 66.3941 72.8514 65.5873 73.0836ZM38.1935 73.9978C38.0022 74.2418 37.8038 74.6353 37.7525 74.8723C37.7012 75.1096 37.6304 75.3973 37.5952 75.5117C37.5486 75.6635 37.8227 75.7199 38.6052 75.7199H39.6793V75.0478C39.6793 74.2708 39.2777 73.5543 38.8422 73.5543C38.6766 73.5543 38.3847 73.7539 38.1935 73.9978ZM57.4618 73.9876C57.0073 74.5672 56.8933 75.2845 56.9793 77.0188C57.0927 79.3033 57.8621 80.4704 58.8338 79.8316C59.8293 79.177 59.7715 75.0366 58.7516 73.9473C58.2745 73.4377 57.8834 73.4501 57.4618 73.9876ZM65.5911 74.0778C64.6429 75.642 65.1777 79.693 66.3719 79.9936C67.342 80.238 67.9019 78.6223 67.6794 76.2205C67.5149 74.4442 67.0113 73.5543 66.1708 73.5543C66.0265 73.5543 65.7657 73.7899 65.5911 74.0778ZM74.4212 73.7751C73.736 74.157 73.4969 74.7068 73.4173 76.0841C73.2925 78.2478 73.9775 79.4762 75.2411 79.3546L75.7925 79.3015L75.8385 76.8412C75.8838 74.4157 75.8787 74.3753 75.4724 73.9676C75.0046 73.4984 74.9394 73.4864 74.4212 73.7751ZM92.7441 74.6371C92.5882 75.1869 92.424 75.7627 92.3793 75.9168C92.3293 76.0889 91.8368 76.3521 91.1018 76.5995L89.9057 77.0018L91.0917 77.3874L92.2777 77.7731L92.6494 79.0369C92.8538 79.7323 93.0529 80.2132 93.0918 80.1059C93.1306 79.9986 93.2888 79.4459 93.4434 78.8775L93.7245 77.8442L94.8664 77.4217L96.0082 76.9991L95.3645 76.7636C93.6837 76.1487 93.7089 76.1725 93.3558 74.8582L93.0278 73.6376L92.7441 74.6371ZM45.4076 77.0301C44.8652 77.3996 44.7342 77.5942 44.6925 78.0911C44.6359 78.7676 45.086 79.3848 45.6364 79.3848C46.1462 79.3848 46.2609 79.0343 46.1638 77.7729L46.0718 76.5777L45.4076 77.0301ZM25.6329 85.4021C25.4966 86.0411 25.4167 86.1267 24.7479 86.35L24.0127 86.5953L24.7423 86.8659C25.3697 87.0984 25.4924 87.2234 25.6186 87.7583C25.8043 88.546 25.9645 88.5465 26.1596 87.7596C26.2912 87.2279 26.4186 87.1001 27.0485 86.8672L27.7838 86.5953L27.0562 86.3521C26.4438 86.1472 26.3055 86.0183 26.1835 85.537C25.9628 84.6678 25.7981 84.6275 25.6329 85.4021ZM66.8265 90.8101C61.4143 91.33 58.1151 92.0833 50.4718 94.5439C43.1759 96.8925 40.6475 97.4944 36.1095 97.9623C33.1632 98.2662 30.7304 98.266 27.8907 97.9613C25.6035 97.7161 21.3442 97.1148 20.6422 96.9379C20.4281 96.884 20.253 96.8822 20.253 96.9339C20.253 97.074 22.6212 98.8376 24.3038 99.9507C25.1338 100.5 26.0794 100.986 26.4623 101.06C28.1663 101.392 34.5649 101.192 38.268 100.692C42.1495 100.168 47.7004 98.8632 50.9699 97.7073C55.1632 96.2247 61.7318 94.5537 65.3321 94.0538C69.0198 93.5415 74.7607 93.5392 78.2831 94.0483C78.9223 94.1408 80.0057 94.297 80.6906 94.3956C82.5406 94.6617 85.0634 95.1882 86.751 95.6602C89.1937 96.3433 89.0268 96.3572 90.1524 95.3788C90.7017 94.9015 91.1509 94.4591 91.1509 94.3956C91.1509 94.3323 90.6465 94.1426 90.0302 93.974C89.4139 93.8056 88.1249 93.4531 87.1661 93.1907C83.8393 92.2803 81.4248 91.7213 78.9472 91.2882C76.7602 90.9057 75.9102 90.8461 71.9736 90.7994C69.508 90.7701 67.1917 90.7749 66.8265 90.8101ZM68.4038 96.4498C62.3207 97.2719 57.4377 98.8679 49.6416 102.582C45.8842 104.373 44.6623 104.941 42.5383 105.888C41.3256 106.429 40.2608 106.871 40.1723 106.871C40.0838 106.871 40.0114 106.935 40.0114 107.012C40.0114 107.195 43.3328 107.961 45.9084 108.372C47.1807 108.575 47.2981 108.566 48.565 108.162C50.9461 107.405 52.4695 106.728 58.0265 103.961C64.7336 100.62 66.153 100.111 69.8694 99.7078C72.4683 99.426 76.2373 99.8439 80.1432 100.847L81.9933 101.322L84.4967 99.6513C85.8734 98.7323 87 97.9312 87 97.8709C87 97.7443 83.5335 96.9985 81.1057 96.6029C78.8956 96.2427 70.6696 96.1436 68.4038 96.4498ZM61.0547 105.793C59.3687 106.039 57.6137 106.412 55.6189 106.948C50.5143 108.32 49.544 108.595 49.4216 108.705C49.2003 108.904 54.2847 109.083 56.6668 108.959C58.7577 108.851 61.456 108.555 63.4227 108.219C66.2085 107.742 71.6847 106.252 71.4415 106.036C70.9115 105.567 63.7495 105.399 61.0547 105.793Z" fill="white"/>
</svg>
