<svg width="26" height="20" viewBox="0 0 26 20" fill="none" xmlns="http://www.w3.org/2000/svg">
<g clip-path="url(#clip0_21_1840)">
<path d="M4.71243 19.9561V18.6288C4.71243 18.1211 4.40018 17.7886 3.86415 17.7886C3.59614 17.7886 3.30471 17.8762 3.10435 18.1649C2.94822 17.9226 2.72444 17.7886 2.38877 17.7886C2.16499 17.7886 1.94121 17.8556 1.76427 18.0979V17.8324H1.2959V19.9561H1.76427V18.7834C1.76427 18.4071 1.96463 18.2293 2.27688 18.2293C2.58913 18.2293 2.74526 18.4278 2.74526 18.7834V19.9561H3.21363V18.7834C3.21363 18.4071 3.43741 18.2293 3.72624 18.2293C4.03849 18.2293 4.19462 18.4278 4.19462 18.7834V19.9561H4.71243ZM11.66 17.8324H10.9002V17.1906H10.4318V17.8324H10.0077V18.2525H10.4318V19.2267C10.4318 19.7138 10.6322 19.9999 11.1682 19.9999C11.3686 19.9999 11.5923 19.9329 11.7485 19.8453L11.6132 19.4458C11.4778 19.5334 11.3217 19.5566 11.2098 19.5566C10.9861 19.5566 10.8976 19.4226 10.8976 19.2035V18.2525H11.6574V17.8324H11.66ZM15.636 17.786C15.368 17.786 15.1884 17.92 15.0765 18.0953V17.8298H14.6081V19.9535H15.0765V18.7577C15.0765 18.4046 15.2326 18.2035 15.5241 18.2035C15.6126 18.2035 15.7244 18.2267 15.8155 18.2473L15.9508 17.804C15.8571 17.786 15.7244 17.786 15.636 17.786ZM9.62776 18.0077C9.40399 17.853 9.09174 17.786 8.75607 17.786C8.22004 17.786 7.86355 18.0515 7.86355 18.4716C7.86355 18.8247 8.13157 19.0257 8.59994 19.0901L8.82372 19.1133C9.06832 19.1571 9.20363 19.2241 9.20363 19.335C9.20363 19.4896 9.02408 19.6004 8.71183 19.6004C8.39958 19.6004 8.15238 19.4896 7.99626 19.3788L7.77248 19.7319C8.01708 19.9097 8.35274 19.9973 8.68841 19.9973C9.31291 19.9973 9.672 19.7087 9.672 19.3118C9.672 18.9355 9.38057 18.737 8.93561 18.67L8.71183 18.6468C8.51147 18.6236 8.35535 18.5798 8.35535 18.4484C8.35535 18.2937 8.51147 18.2061 8.75867 18.2061C9.02668 18.2061 9.2947 18.3169 9.43001 18.3839L9.62776 18.0077ZM22.0891 17.786C21.8211 17.786 21.6416 17.92 21.5297 18.0953V17.8298H21.0613V19.9535H21.5297V18.7577C21.5297 18.4046 21.6858 18.2035 21.9772 18.2035C22.0657 18.2035 22.1776 18.2267 22.2687 18.2473L22.404 17.8092C22.3129 17.786 22.1802 17.786 22.0891 17.786ZM16.1043 18.8942C16.1043 19.536 16.5519 19.9999 17.2441 19.9999C17.5563 19.9999 17.7801 19.9329 18.0039 19.7577L17.7801 19.3814C17.6005 19.5154 17.4236 19.5798 17.2206 19.5798C16.8407 19.5798 16.5727 19.3144 16.5727 18.8942C16.5727 18.4948 16.8407 18.2293 17.2206 18.2087C17.421 18.2087 17.6005 18.2757 17.7801 18.4071L18.0039 18.0308C17.7801 17.853 17.5563 17.7886 17.2441 17.7886C16.5519 17.786 16.1043 18.2525 16.1043 18.8942ZM20.4368 18.8942V17.8324H19.9684V18.0979C19.8123 17.8994 19.5885 17.7886 19.2971 17.7886C18.6934 17.7886 18.225 18.2525 18.225 18.8942C18.225 19.536 18.6934 19.9999 19.2971 19.9999C19.6094 19.9999 19.8331 19.8891 19.9684 19.6906V19.9561H20.4368V18.8942ZM18.7168 18.8942C18.7168 18.518 18.9614 18.2087 19.3648 18.2087C19.7447 18.2087 20.0127 18.4973 20.0127 18.8942C20.0127 19.2705 19.7447 19.5798 19.3648 19.5798C18.964 19.5566 18.7168 19.268 18.7168 18.8942ZM13.112 17.786C12.4875 17.786 12.0399 18.2293 12.0399 18.8917C12.0399 19.5566 12.4875 19.9973 13.1354 19.9973C13.4476 19.9973 13.7599 19.9097 14.0071 19.7087L13.7833 19.3762C13.6037 19.5102 13.38 19.5979 13.1588 19.5979C12.8674 19.5979 12.5785 19.4638 12.5109 19.0901H14.0955C14.0955 19.0231 14.0955 18.9793 14.0955 18.9123C14.1164 18.2293 13.713 17.786 13.112 17.786ZM13.112 18.1855C13.4034 18.1855 13.6037 18.3633 13.648 18.6932H12.5317C12.5759 18.4071 12.7763 18.1855 13.112 18.1855ZM24.7485 18.8942V16.9922H24.2801V18.0979C24.124 17.8994 23.9002 17.7886 23.6087 17.7886C23.0051 17.7886 22.5367 18.2525 22.5367 18.8942C22.5367 19.536 23.0051 19.9999 23.6087 19.9999C23.921 19.9999 24.1448 19.8891 24.2801 19.6906V19.9561H24.7485V18.8942ZM23.0285 18.8942C23.0285 18.518 23.2731 18.2087 23.6764 18.2087C24.0563 18.2087 24.3243 18.4973 24.3243 18.8942C24.3243 19.2705 24.0563 19.5798 23.6764 19.5798C23.2731 19.5566 23.0285 19.268 23.0285 18.8942ZM7.34834 18.8942V17.8324H6.87997V18.0979C6.72384 17.8994 6.50006 17.7886 6.20863 17.7886C5.60495 17.7886 5.13657 18.2525 5.13657 18.8942C5.13657 19.536 5.60495 19.9999 6.20863 19.9999C6.52088 19.9999 6.74466 19.8891 6.87997 19.6906V19.9561H7.34834V18.8942ZM5.60755 18.8942C5.60755 18.518 5.85214 18.2087 6.25547 18.2087C6.63537 18.2087 6.90338 18.4973 6.90338 18.8942C6.90338 19.2705 6.63537 19.5798 6.25547 19.5798C5.85214 19.5566 5.60755 19.268 5.60755 18.8942Z" fill="black"/>
<path d="M16.5077 1.70361H9.47168V14.2242H16.5077V1.70361Z" fill="#FF5A00"/>
<path d="M9.93995 7.96392C9.93995 5.4201 11.1473 3.16237 13 1.70361C11.6365 0.641752 9.91653 0 8.04043 0C3.59608 0 0 3.56186 0 7.96392C0 12.366 3.59608 15.9278 8.04043 15.9278C9.91653 15.9278 11.6365 15.2861 13 14.2242C11.1447 12.7861 9.93995 10.5077 9.93995 7.96392Z" fill="#EB001B"/>
<path d="M26 7.96392C26 12.366 22.4039 15.9278 17.9596 15.9278C16.0835 15.9278 14.3635 15.2861 13 14.2242C14.8761 12.7629 16.06 10.5077 16.06 7.96392C16.06 5.4201 14.8527 3.16237 13 1.70361C14.3609 0.641752 16.0809 0 17.957 0C22.4039 0 26 3.58505 26 7.96392Z" fill="#F79E1B"/>
</g>
<defs>
<clipPath id="clip0_21_1840">
<rect width="26" height="20" fill="white"/>
</clipPath>
</defs>
</svg>
