<svg width="37" height="10" viewBox="0 0 37 10" fill="none" xmlns="http://www.w3.org/2000/svg">
<path fill-rule="evenodd" clip-rule="evenodd" d="M3.42153 0.00164969C3.75208 -0.000244477 4.73448 -0.0849951 5.1506 1.26023C5.4309 2.16638 5.87741 3.65071 6.49012 5.71321H6.73966C7.39674 3.53878 7.84812 2.05445 8.0938 1.26023C8.51425 -0.0990078 9.5654 0.00167632 9.98585 0.00167632L13.2298 0.0016802V9.66733H9.92348V3.9712H9.70177L7.85867 9.66733H5.37111L3.52801 3.96698H3.3063V9.66733H0V0.0016802L3.42153 0.00164969ZM17.9776 0.0016802V5.70205H18.2413L20.4833 1.01468C20.9185 0.0818757 21.846 0.0016802 21.846 0.0016802H25.0455V9.66735H21.6702V3.96698H21.4064L19.2084 8.65436C18.7732 9.58294 17.8017 9.66735 17.8017 9.66735H14.6022V0.0016802H17.9776ZM36.7122 4.59487C36.2414 5.87285 34.7628 6.7881 33.1259 6.7881H29.5861V9.66735H26.3764V4.59487H36.7122Z" fill="#0CBA7A"/>
<path opacity="0.5" fill-rule="evenodd" clip-rule="evenodd" d="M33.2796 0.00292969H26.207C26.3754 2.15484 28.3101 3.99701 30.3129 3.99701H36.9342C37.3163 2.20852 36.0009 0.00292969 33.2796 0.00292969Z" fill="#0CBA7A"/>
</svg>
