<svg width="22" height="22" viewBox="0 0 22 22" fill="none" xmlns="http://www.w3.org/2000/svg">
<path d="M9.16683 1.8335C7.97369 1.8335 6.96487 2.60235 6.58512 3.66683H1.8335V5.50016H6.58512C6.96487 6.56464 7.97369 7.3335 9.16683 7.3335C10.683 7.3335 11.9168 6.09966 11.9168 4.5835C11.9168 3.06733 10.683 1.8335 9.16683 1.8335ZM13.7502 3.66683V5.50016H20.1668V3.66683H13.7502ZM13.7502 8.25016C12.557 8.25016 11.5482 9.01902 11.1685 10.0835H1.8335V11.9168H11.1685C11.5482 12.9813 12.557 13.7502 13.7502 13.7502C15.2663 13.7502 16.5002 12.5163 16.5002 11.0002C16.5002 9.484 15.2663 8.25016 13.7502 8.25016ZM18.3335 10.0835V11.9168H20.1668V10.0835H18.3335ZM6.41683 14.6668C5.22369 14.6668 4.21487 15.4357 3.83512 16.5002H1.8335V18.3335H3.83512C4.21487 19.398 5.22369 20.1668 6.41683 20.1668C7.933 20.1668 9.16683 18.933 9.16683 17.4168C9.16683 15.9007 7.933 14.6668 6.41683 14.6668ZM11.0002 16.5002V18.3335H20.1668V16.5002H11.0002Z" fill="#AB3541"/>
</svg>
