<svg width="26" height="26" viewBox="0 0 26 26" fill="none" xmlns="http://www.w3.org/2000/svg">
<path d="M9.25982 3.25C7.81562 3.25 6.88717 4.91832 7.64857 6.14559L8.90964 8.17684L2.79579 9.86426V9.8632C1.48208 10.2252 0.975734 11.906 1.86903 12.9344C1.86903 12.9348 1.86903 12.9351 1.86903 12.9355L10.2702 22.5966C11.2262 23.6962 13.1146 23.2806 13.5212 21.8814C13.5212 21.8811 13.5212 21.8807 13.5212 21.8804L14.7622 17.6063L15.2964 18.4674C16.0733 19.7197 18.0343 19.5874 18.6374 18.2432L24.1609 5.92131C24.7106 4.69506 23.774 3.25 22.4301 3.25H9.25982ZM9.25982 4.875H13.0462C13.1022 5.0334 13.2059 5.17054 13.3431 5.26755C13.4803 5.36455 13.6441 5.41665 13.8121 5.41667C13.98 5.41643 14.1436 5.36423 14.2806 5.26724C14.4175 5.17025 14.5211 5.03323 14.577 4.875H22.4301C22.6571 4.875 22.7705 5.04991 22.6777 5.25692L19.8202 11.631C19.7443 11.5503 19.6527 11.4859 19.551 11.4419C19.4493 11.3978 19.3396 11.3751 19.2288 11.375C19.0181 11.3793 18.8173 11.4654 18.6689 11.615C18.5204 11.7646 18.4359 11.966 18.4331 12.1767C18.4304 12.3875 18.5096 12.591 18.6541 12.7444C18.7987 12.8979 18.9971 12.9891 19.2077 12.9989L17.1552 17.5777C17.0477 17.8173 16.8156 17.8338 16.6771 17.6105L15.3715 15.5073L17.3012 8.85921C17.7028 7.47495 16.3655 6.12008 14.9759 6.50317L10.542 7.72616L9.02918 5.28866C8.89467 5.07184 9.00535 4.875 9.25982 4.875ZM19.7705 5.95833C19.555 5.95833 19.3483 6.04394 19.196 6.19631C19.0436 6.34868 18.958 6.55535 18.958 6.77083C18.958 6.98632 19.0436 7.19298 19.196 7.34536C19.3483 7.49773 19.555 7.58333 19.7705 7.58333C19.986 7.58333 20.1926 7.49773 20.345 7.34536C20.4974 7.19298 20.583 6.98632 20.583 6.77083C20.583 6.55535 20.4974 6.34868 20.345 6.19631C20.1926 6.04394 19.986 5.95833 19.7705 5.95833ZM15.5736 8.05835C15.7181 8.08658 15.7939 8.22342 15.7408 8.40641L14.2184 13.6496L12.695 11.1951C12.8257 11.0898 12.9206 10.9465 12.9666 10.7849C13.0126 10.6234 13.0074 10.4516 12.9517 10.2931C12.896 10.1347 12.7926 9.99739 12.6557 9.90012C12.5188 9.80286 12.3551 9.75041 12.1871 9.75C12.0691 9.75026 11.9524 9.77625 11.8454 9.82617L11.4349 9.16496L15.4086 8.06893C15.4699 8.05204 15.5255 8.04894 15.5736 8.05835ZM9.80254 9.61564L13.609 15.7496L11.9607 21.4276C11.8885 21.6761 11.6658 21.7252 11.4963 21.5302L9.70309 19.4683C9.89121 19.4141 10.0534 19.2938 10.1599 19.1295C10.2665 18.9653 10.3101 18.7681 10.2828 18.5742C10.2555 18.3804 10.1591 18.2029 10.0114 18.0744C9.86371 17.946 9.67457 17.8751 9.47881 17.875C9.3218 17.8752 9.1682 17.9208 9.03658 18.0064C8.90497 18.092 8.80098 18.214 8.73719 18.3574L3.09518 11.8691C2.94306 11.6939 3.00388 11.4916 3.22743 11.43C3.22778 11.43 3.22813 11.43 3.22848 11.43L9.80254 9.61564ZM7.31214 11.9167C7.09665 11.9167 6.88999 12.0023 6.73762 12.1546C6.58525 12.307 6.49964 12.5137 6.49964 12.7292C6.49964 12.9447 6.58525 13.1513 6.73762 13.3037C6.88999 13.4561 7.09665 13.5417 7.31214 13.5417C7.52763 13.5417 7.73429 13.4561 7.88667 13.3037C8.03904 13.1513 8.12464 12.9447 8.12464 12.7292C8.12464 12.5137 8.03904 12.307 7.88667 12.1546C7.73429 12.0023 7.52763 11.9167 7.31214 11.9167ZM11.6455 13.5417C11.43 13.5417 11.2233 13.6273 11.071 13.7796C10.9186 13.932 10.833 14.1387 10.833 14.3542C10.833 14.5697 10.9186 14.7763 11.071 14.9287C11.2233 15.0811 11.43 15.1667 11.6455 15.1667C11.861 15.1667 12.0676 15.0811 12.22 14.9287C12.3724 14.7763 12.458 14.5697 12.458 14.3542C12.458 14.1387 12.3724 13.932 12.22 13.7796C12.0676 13.6273 11.861 13.5417 11.6455 13.5417Z" fill="#04A3E9"/>
</svg>
