<svg width="8" height="8" viewBox="0 0 8 8" fill="none" xmlns="http://www.w3.org/2000/svg">
<path opacity="0.3" d="M3.23269 5.89207e-06C3.10374 -0.000905334 3.00007 0.103995 3.00098 0.232419L3.00147 3.00111L0.233884 3.00111C0.105459 3.00019 -0.000905407 3.10521 5.82492e-06 3.23416L5.85849e-06 4.00213L5.892e-06 4.76877C-0.000905329 4.89772 0.103995 5.0014 0.232419 5.00048H3.00001L3.00098 7.76905C3.00007 7.89748 3.10508 8.00238 3.23403 8.00146H4.00067H4.76865C4.8976 8.00238 5.00127 7.89601 5.00036 7.76759L5.00146 5.00048H7.76905C7.89748 5.0014 8.00238 4.89638 8.00146 4.76743V4.00079V3.23282C8.00238 3.10387 7.89601 3.00019 7.76759 3.00111L5.00098 3.00146L5.00036 0.233884C5.00127 0.105459 4.89626 -0.000905334 4.76731 5.89207e-06H3.99933H3.23269Z" fill="#231F20"/>
</svg>
