<svg width="35" height="35" viewBox="0 0 35 35" fill="none" xmlns="http://www.w3.org/2000/svg">
<g clip-path="url(#clip0_403_319)">
<path d="M27.674 3.00039C23.2926 0.918164 11.6731 0.918164 7.292 3.00039C6.69276 3.28538 6.69331 4.13857 7.292 4.42315C11.6731 6.5049 23.2926 6.50518 27.674 4.42315C28.273 4.13823 28.2727 3.28504 27.674 3.00039ZM8.23488 3.71187C12.511 2.0504 22.455 2.0504 26.7311 3.71187C22.4549 5.37301 12.511 5.37301 8.23488 3.71187Z" fill="#3A3A3A"/>
<path d="M29.5912 18.5428C29.6585 18.5428 29.7253 18.5296 29.7875 18.5038C29.8498 18.478 29.9064 18.4403 29.9541 18.3926C30.0017 18.345 30.0395 18.2884 30.0653 18.2262C30.0911 18.1639 30.1044 18.0972 30.1044 18.0298V3.71174C30.1044 -1.2355 4.86133 -1.23899 4.86133 3.71174V31.2883C4.86133 36.2356 30.1044 36.239 30.1044 31.2883V20.424C30.1044 20.3566 30.0911 20.2899 30.0653 20.2276C30.0395 20.1654 30.0017 20.1088 29.954 20.0612C29.9064 20.0136 29.8498 19.9758 29.7875 19.95C29.7253 19.9243 29.6585 19.911 29.5912 19.9111C29.4551 19.9111 29.3247 19.9651 29.2285 20.0613C29.1323 20.1575 29.0782 20.2879 29.0782 20.424V21.8918C29.0782 22.9562 24.7354 24.5891 17.4827 24.5891C10.2444 24.5891 5.88754 22.9594 5.88754 21.8918V11.8313C8.19945 13.4206 13.461 13.8876 16.2723 13.9609C16.5537 13.9665 16.7911 13.7445 16.7986 13.4612C16.8021 13.3252 16.7514 13.1933 16.6577 13.0946C16.564 12.9959 16.435 12.9384 16.2989 12.9349C9.62857 12.7616 5.88754 11.231 5.88754 10.2534V5.28106C9.79359 7.99431 24.8014 8.24909 29.0782 5.28106V10.2534C29.0782 11.2299 25.343 12.7614 18.6664 12.9351C18.3834 12.9424 18.1596 13.1781 18.1671 13.4615C18.1706 13.5951 18.2261 13.7221 18.3218 13.8154C18.4175 13.9087 18.5459 13.961 18.6796 13.9611C18.6841 13.9611 18.6886 13.9611 18.6932 13.9609C21.5021 13.8879 26.7671 13.4203 29.0782 11.831V18.0298C29.0782 18.1659 29.1322 18.2963 29.2284 18.3925C29.3246 18.4887 29.4551 18.5428 29.5912 18.5428ZM29.0782 31.2884C29.0782 32.3514 24.7398 33.9853 17.4827 33.9853C10.2444 33.9853 5.88754 32.3556 5.88754 31.2883V26.3152C10.0147 29.1812 24.9451 29.1852 29.0782 26.3152V31.2884ZM29.0782 23.4612C29.0782 24.9264 29.1946 24.9643 28.5783 25.4167C26.391 27.0223 20.6814 27.4437 17.4827 27.4437C10.0617 27.4437 5.88754 25.7547 5.88754 24.7467V23.4612C10.0144 26.3261 24.9443 26.3307 29.0782 23.4612V23.4612ZM26.4965 5.31893C26.3032 5.37836 26.1087 5.4339 25.9131 5.48552C20.9335 6.80589 12.8717 6.67436 8.46913 5.31907C6.69104 4.77165 5.8872 4.13344 5.8872 3.7118C5.8872 2.64881 10.2257 1.01482 17.4827 1.01482C24.7211 1.01482 29.0782 2.64451 29.0782 3.7118C29.0782 4.13344 28.2744 4.77192 26.4965 5.31907V5.31893Z" fill="#3A3A3A"/>
<path d="M14.8754 20.7372L12.4083 20.0557M12.4083 20.0557V18.5627M12.4083 20.0557L10.311 21.2146C10.147 21.3053 9.95732 21.1465 10.0177 20.9691C10.3767 19.9132 10.3819 18.769 10.0325 17.7099L10.0108 17.6443C9.9524 17.4672 10.1416 17.3104 10.3048 17.4005L12.4083 18.5627M12.4083 18.5627L16.5373 17.4231C17.5538 17.1422 18.6031 17 19.6572 17H20.1384C21.9383 17 23.6665 17.7082 24.9489 18.9715C25.0432 19.0645 25.0904 19.1868 25.0904 19.3092C25.0904 19.4315 25.0432 19.5539 24.9489 19.6469C24.3137 20.2726 23.5625 20.7684 22.7375 21.1063C21.9127 21.4445 21.0298 21.6184 20.1384 21.6184H19.6572C18.8259 21.6184 17.9981 21.5302 17.1867 21.3552" stroke="#3A3A3A" stroke-miterlimit="10" stroke-linecap="round" stroke-linejoin="round"/>
<circle cx="21.9814" cy="19.0698" r="0.5" fill="#3A3A3A"/>
</g>
<defs>
<clipPath id="clip0_403_319">
<rect width="35" height="35" fill="white"/>
</clipPath>
</defs>
</svg>
