<svg width="22" height="22" viewBox="0 0 22 22" fill="none" xmlns="http://www.w3.org/2000/svg">
<g opacity="0.3">
<path d="M17.5393 2.24246C17.4347 2.24615 17.3291 2.26001 17.2251 2.28453L3.55835 5.50003H9.56234L17.5402 3.62283C17.6204 3.60266 17.6823 3.63225 17.713 3.65058C17.7428 3.66937 17.7962 3.71225 17.815 3.79291L18.2241 5.50003H19.6296L19.1542 3.4787C19.0561 3.06162 18.8015 2.70697 18.4372 2.48147C18.1635 2.31235 17.8532 2.23137 17.5393 2.24246ZM2.97917 6.41669C2.10148 6.41669 1.375 7.14317 1.375 8.02086V10.326C1.37502 10.4234 1.39576 10.5197 1.43584 10.6086C1.47592 10.6974 1.53443 10.7767 1.60748 10.8412C1.68053 10.9057 1.76646 10.9539 1.85957 10.9827C1.95268 11.0115 2.05084 11.0201 2.14754 11.0081C2.18939 11.0029 2.24071 11 2.29167 11C3.31411 11 4.125 11.8109 4.125 12.8334C4.125 13.8558 3.31411 14.6667 2.29167 14.6667C2.24071 14.6667 2.18939 14.6639 2.14754 14.6586C2.05084 14.6466 1.95268 14.6552 1.85957 14.684C1.76646 14.7128 1.68053 14.761 1.60748 14.8255C1.53443 14.89 1.47592 14.9693 1.43584 15.0581C1.39576 15.147 1.37502 15.2433 1.375 15.3408V17.6459C1.375 18.5235 2.10148 19.25 2.97917 19.25H19.0208C19.8985 19.25 20.625 18.5235 20.625 17.6459V15.3408C20.625 15.2433 20.6042 15.147 20.5642 15.0581C20.5241 14.9693 20.4656 14.89 20.3925 14.8255C20.3195 14.761 20.2335 14.7128 20.1404 14.684C20.0473 14.6552 19.9492 14.6466 19.8525 14.6586C19.8106 14.6639 19.7593 14.6667 19.7083 14.6667C18.6859 14.6667 17.875 13.8558 17.875 12.8334C17.875 11.8109 18.6859 11 19.7083 11C19.7593 11 19.8106 11.0029 19.8525 11.0081C19.9492 11.0201 20.0473 11.0115 20.1404 10.9827C20.2335 10.9539 20.3195 10.9057 20.3925 10.8412C20.4656 10.7767 20.5241 10.6974 20.5642 10.6086C20.6042 10.5197 20.625 10.4234 20.625 10.326V8.02086C20.625 7.14317 19.8985 6.41669 19.0208 6.41669H2.97917ZM2.97917 7.79169H19.0208C19.1561 7.79169 19.25 7.88563 19.25 8.02086V9.71812C17.7102 9.95079 16.5 11.2315 16.5 12.8334C16.5 14.4352 17.7102 15.7159 19.25 15.9486V17.6459C19.25 17.7811 19.1561 17.875 19.0208 17.875H2.97917C2.84394 17.875 2.75 17.7811 2.75 17.6459V15.9486C4.28976 15.7159 5.5 14.4352 5.5 12.8334C5.5 11.2315 4.28976 9.95079 2.75 9.71812V8.02086C2.75 7.88563 2.84394 7.79169 2.97917 7.79169Z" fill="#25344F"/>
</g>
</svg>
