<svg width="44" height="44" viewBox="0 0 44 44" fill="none" xmlns="http://www.w3.org/2000/svg">
<path d="M24.75 2.75V19.25H41.25V2.75H24.75ZM35.75 13.75H30.25V8.25H35.75V13.75ZM24.75 24.75H30.25V30.25H24.75V24.75ZM30.25 30.25H35.75V35.75H30.25V30.25ZM35.75 24.75H41.25V30.25H35.75V24.75ZM35.75 35.75H41.25V41.25H35.75V35.75ZM24.75 35.75H30.25V41.25H24.75V35.75ZM2.75 2.75V19.25H19.25V2.75H2.75ZM13.75 13.75H8.25V8.25H13.75V13.75ZM2.75 24.75V41.25H19.25V24.75H2.75ZM13.75 35.75H8.25V30.25H13.75V35.75Z" fill="#AB3541"/>
</svg>
