<svg width="22" height="22" viewBox="0 0 22 22" fill="none" xmlns="http://www.w3.org/2000/svg">
<path d="M14.2083 17.4167H11.9167C11.4107 17.4167 11 17.8273 11 18.3333C11 18.8393 11.4107 19.25 11.9167 19.25H14.2083C17.4937 19.25 20.1667 16.577 20.1667 13.2917C20.1667 10.0063 17.4937 7.33333 14.2083 7.33333H5.8795L8.89808 4.31475C9.25604 3.95679 9.25604 3.37654 8.89808 3.01858C8.54058 2.66062 7.95942 2.66062 7.60192 3.01858L3.01858 7.60192C2.66062 7.95988 2.66062 8.54013 3.01858 8.89808L7.60192 13.4814C7.78067 13.6606 8.01533 13.75 8.25 13.75C8.48467 13.75 8.71933 13.6606 8.89808 13.4814C9.25604 13.1235 9.25604 12.5432 8.89808 12.1853L5.8795 9.16667H14.2083C16.4826 9.16667 18.3333 11.017 18.3333 13.2917C18.3333 15.5664 16.4826 17.4167 14.2083 17.4167ZM3.66667 17.4167C3.42355 17.4167 3.19039 17.5132 3.01849 17.6852C2.84658 17.8571 2.75 18.0902 2.75 18.3333C2.75 18.5764 2.84658 18.8096 3.01849 18.9815C3.19039 19.1534 3.42355 19.25 3.66667 19.25C3.90978 19.25 4.14294 19.1534 4.31485 18.9815C4.48676 18.8096 4.58333 18.5764 4.58333 18.3333C4.58333 18.0902 4.48676 17.8571 4.31485 17.6852C4.14294 17.5132 3.90978 17.4167 3.66667 17.4167ZM6.41667 17.4167C6.17355 17.4167 5.94039 17.5132 5.76849 17.6852C5.59658 17.8571 5.5 18.0902 5.5 18.3333C5.5 18.5764 5.59658 18.8096 5.76849 18.9815C5.94039 19.1534 6.17355 19.25 6.41667 19.25C6.65978 19.25 6.89294 19.1534 7.06485 18.9815C7.23676 18.8096 7.33333 18.5764 7.33333 18.3333C7.33333 18.0902 7.23676 17.8571 7.06485 17.6852C6.89294 17.5132 6.65978 17.4167 6.41667 17.4167ZM9.16667 17.4167C8.92355 17.4167 8.69039 17.5132 8.51849 17.6852C8.34658 17.8571 8.25 18.0902 8.25 18.3333C8.25 18.5764 8.34658 18.8096 8.51849 18.9815C8.69039 19.1534 8.92355 19.25 9.16667 19.25C9.40978 19.25 9.64294 19.1534 9.81485 18.9815C9.98676 18.8096 10.0833 18.5764 10.0833 18.3333C10.0833 18.0902 9.98676 17.8571 9.81485 17.6852C9.64294 17.5132 9.40978 17.4167 9.16667 17.4167Z" fill="#25344F"/>
</svg>
