<svg width="304" height="115" viewBox="0 0 304 115" fill="none" xmlns="http://www.w3.org/2000/svg">
<path opacity="0.1" fill-rule="evenodd" clip-rule="evenodd" d="M315.502 -72C311.743 -72 297.074 -58.8822 278.734 -39.1153C255.267 -13.8245 245.279 -6.48989 232.233 -4.9685C220.263 -3.57107 213.012 -6.58382 188.927 -22.9566C165.8 -38.6777 156.206 -41.8877 145.413 -37.5132C141.451 -35.9073 135.723 -32.0456 132.684 -28.9314C120.699 -16.6494 115.983 -0.466306 111.847 42.561C110.408 57.5477 107.992 76.0016 106.482 83.5691C98.4941 123.584 82.1102 154.028 60.3828 169.235C51.5539 175.414 45.7854 177.233 21.8667 181.368C15.7649 182.424 9.28927 184.64 7.4771 186.293C-0.094155 193.198 -2.3368 213.023 2.70305 228.488C7.70513 243.838 7.16945 243.548 30.6146 243.548C48.1333 243.548 51.3461 243.12 50.7254 240.864C45.2551 221.026 51.809 206.873 68.6935 202.054C96.7953 194.036 103.623 189.608 117.44 170.446C125.468 159.314 128.914 152.727 133.24 140.244C140.689 118.747 142.852 105.087 144.158 71.2947C145.139 45.8818 145.661 41.588 148.885 32.4165C154.057 17.7021 159.469 13.4141 172.618 13.6169C183.949 13.7897 191.132 17.4711 206.479 30.9608C222.75 45.2657 230.103 49.0335 241.583 48.9509C250.545 48.887 253.17 48.0061 262.236 42.0125C267.948 38.2354 279.252 28.752 287.355 20.9347C295.456 13.1192 305.441 4.58623 309.543 1.97169L317 -2.78033L317 -37.3892C317 -61.4986 316.545 -72 315.502 -72ZM313.44 58.5413C303.567 49.5369 292.309 54.4786 275.421 75.2259C263.158 90.2915 255.607 95.4097 243.862 96.6099C230.857 97.9416 223.194 93.8695 207.363 77.2187C191.546 60.5811 185.73 57.7374 177.007 62.3729C165.347 68.5731 159.511 89.0048 160.913 118.719C163.15 166.126 149.917 196.588 122.036 208.213C102.562 216.332 95.705 224.043 95.705 237.82L95.705 243.548L110.458 243.548C124.051 243.548 125.276 243.252 126.07 239.771C127.196 234.833 133.205 230.626 141.223 229.163C153.096 226.995 159.455 220.384 171.026 198.181C179.159 182.574 183.637 178.748 193.772 178.748C200.114 178.748 203.017 179.687 205.917 182.678C211.74 188.684 215.798 198.183 215.793 205.792C215.785 217.882 210.788 225.808 194.883 238.965L189.485 243.432L208.433 243.49L227.38 243.548L231.155 232.748C241.259 203.844 266.091 159.648 298.592 112.733L317 86.1611L317 73.975C317 62.8782 316.682 61.4977 313.44 58.5413ZM312.767 130.032C305.883 139.004 293.734 162.73 287.545 179.291C282.058 193.968 272.501 227.309 270.605 238.383L269.721 243.548L283.817 243.548L297.911 243.548L302.165 233.197C304.506 227.504 308.801 218.654 311.711 213.53L317 204.216L317 164.365L317 124.515L312.767 130.032ZM252.966 127.951C248.77 122.107 242.59 121.935 231.098 127.338C220.063 132.526 216.502 130.627 208.127 115.088C196.516 93.5483 191.276 90.6183 182.828 100.943C176.75 108.372 175.517 116.657 178.712 128.586C181.659 139.588 192.876 155.27 200.28 158.737C203.249 160.127 209.217 163.771 213.543 166.836C223.62 173.976 227.035 172.995 237.102 160.069C241.341 154.624 246.934 148.664 249.532 146.823C257.333 141.296 258.388 135.496 252.966 127.951Z" fill="white"/>
</svg>
