<svg width="254" height="115" viewBox="0 0 254 115" fill="none" xmlns="http://www.w3.org/2000/svg">
<path opacity="0.1" fill-rule="evenodd" clip-rule="evenodd" d="M252.999 -137C249.985 -137 238.222 -126.506 223.515 -110.692C204.697 -90.4596 196.687 -84.5919 186.226 -83.3748C176.627 -82.2569 170.813 -84.6671 151.499 -97.7653C132.954 -110.342 125.261 -112.91 116.606 -109.411C113.429 -108.126 108.835 -105.036 106.399 -102.545C96.7879 -92.7195 93.0062 -79.773 89.6897 -45.3512C88.5352 -33.3619 86.5983 -18.5987 85.3875 -12.5447C78.9818 19.4669 65.8437 43.8228 48.4206 55.9879C41.3408 60.9315 36.7151 62.386 17.5348 65.6948C12.6418 66.5393 7.44906 68.3123 5.99587 69.6346C-0.0754766 75.1582 -1.87382 91.0183 2.16761 103.391C6.17873 115.67 5.74917 115.439 24.5497 115.439C38.5978 115.439 41.1741 115.096 40.6764 113.292C36.2898 97.4209 41.5453 86.0988 55.0849 82.2431C77.6195 75.8284 83.0947 72.2867 94.1748 56.9571C100.612 48.0511 103.375 42.7815 106.844 32.7951C112.817 15.5977 114.552 4.66923 115.599 -22.3643C116.386 -42.6946 116.805 -46.1296 119.39 -53.4668C123.537 -65.2383 127.877 -68.6687 138.422 -68.5065C147.508 -68.3682 153.267 -65.4231 165.574 -54.6313C178.622 -43.1874 184.518 -40.1732 193.724 -40.2393C200.911 -40.2904 203.015 -40.9951 210.286 -45.79C214.866 -48.8117 223.93 -56.3984 230.428 -62.6523C236.924 -68.9046 244.931 -75.731 248.221 -77.8226L254.2 -81.6243L254.2 -109.311C254.2 -128.599 253.836 -137 252.999 -137ZM251.346 -32.567C243.428 -39.7705 234.401 -35.8171 220.858 -19.2193C211.025 -7.16684 204.969 -3.07224 195.551 -2.11206C185.123 -1.04671 178.978 -4.30436 166.283 -17.625C153.599 -30.9351 148.936 -33.2101 141.94 -29.5017C132.591 -24.5415 127.911 -8.19614 129.035 15.5752C130.829 53.5011 120.217 77.8704 97.8602 87.1701C82.2442 93.6659 76.7452 99.8341 76.7452 110.856L76.7452 115.439L88.5752 115.439C99.4757 115.439 100.458 115.201 101.094 112.417C101.998 108.467 106.816 105.101 113.246 103.93C122.767 102.196 127.866 96.907 137.145 79.1447C143.666 66.6595 147.258 63.5986 155.385 63.5986C160.47 63.5986 162.798 64.35 165.123 66.7421C169.793 71.5475 173.047 79.1462 173.043 85.2333C173.036 94.9056 169.029 101.247 156.275 111.772L151.947 115.346L167.141 115.392L182.334 115.439L185.362 106.799C193.464 83.675 213.377 48.3186 239.439 10.7864L254.2 -10.4711L254.2 -20.22C254.2 -29.0975 253.945 -30.2019 251.346 -32.567ZM250.806 24.6254C245.285 31.8034 235.544 50.7844 230.58 64.0329C226.181 75.7743 218.517 102.447 216.996 111.307L216.288 115.439L227.591 115.439L238.893 115.439L242.304 107.158C244.182 102.603 247.626 95.5231 249.959 91.424L254.2 83.9726L254.2 52.0916L254.2 20.2122L250.806 24.6254ZM202.852 22.9605C199.487 18.2859 194.531 18.1477 185.316 22.4707C176.467 26.6209 173.612 25.1017 166.896 12.6706C157.585 -4.56133 153.383 -6.90539 146.608 1.35447C141.735 7.2973 140.746 13.9253 143.308 23.4684C145.671 32.2707 154.666 44.816 160.604 47.5898C162.984 48.7017 167.77 51.6168 171.239 54.0691C179.32 59.7805 182.058 58.9961 190.13 48.6552C193.53 44.2991 198.015 39.5313 200.098 38.0588C206.353 33.6366 207.2 28.9965 202.852 22.9605Z" fill="white"/>
</svg>
