<svg width="35" height="35" viewBox="0 0 35 35" fill="none" xmlns="http://www.w3.org/2000/svg">
<path fill-rule="evenodd" clip-rule="evenodd" d="M15.2835 0.0554708C14.7957 0.262393 14.6602 0.524193 14.4997 1.56975C14.1609 3.77898 13.4252 5.46782 12.0392 7.21838C11.3811 8.04943 10.5036 8.84735 9.27857 9.72855C7.94794 10.6857 7.1785 11.3584 6.42029 12.2276C3.148 15.9786 2.14913 20.9444 3.74737 25.5157C4.47347 27.5927 5.58891 29.3321 7.1893 30.883C9.40959 33.0346 11.948 34.2969 15.2144 34.8736C16.1657 35.0416 18.7432 35.0423 19.7557 34.8748C22.3827 34.4403 24.7055 33.4413 26.6762 31.8987C27.3523 31.3693 28.5887 30.1387 29.1026 29.4833C33.0448 24.4561 32.9557 17.4574 28.8872 12.5754C28.2342 11.7917 27.5418 11.1117 27.299 11.0155C27.1761 10.9667 26.9306 10.9445 26.7244 10.9635C26.2968 11.0028 26.0588 11.1901 25.7601 11.7224C25.3694 12.4189 24.2414 13.9248 24.0063 14.0638C23.9748 14.0824 23.9672 13.5967 23.9893 12.9845C24.0531 11.2174 23.8217 9.70084 23.2281 7.99763C22.2233 5.11378 20.1221 2.50713 17.4672 0.850794C16.2524 0.0928992 15.6837 -0.114228 15.2835 0.0554708Z" fill="#F6874D"/>
<path d="M17.8828 25.0909V24.554C17.8828 24.1463 17.969 23.7718 18.1413 23.4304C18.317 23.0857 18.5705 22.8106 18.902 22.6051C19.2367 22.3963 19.6444 22.2919 20.125 22.2919C20.6122 22.2919 21.0215 22.3946 21.353 22.6001C21.6877 22.8056 21.9396 23.0807 22.1087 23.4254C22.281 23.7668 22.3672 24.143 22.3672 24.554V25.0909C22.3672 25.4986 22.281 25.8748 22.1087 26.2195C21.9363 26.5608 21.6828 26.8343 21.348 27.0398C21.0133 27.2486 20.6056 27.353 20.125 27.353C19.6378 27.353 19.2285 27.2486 18.897 27.0398C18.5656 26.8343 18.3137 26.5608 18.1413 26.2195C17.969 25.8748 17.8828 25.4986 17.8828 25.0909ZM19.3295 24.554V25.0909C19.3295 25.3262 19.3859 25.5483 19.4986 25.7571C19.6146 25.9659 19.8234 26.0703 20.125 26.0703C20.4266 26.0703 20.6321 25.9676 20.7415 25.7621C20.8542 25.5566 20.9105 25.3329 20.9105 25.0909V24.554C20.9105 24.312 20.8575 24.0866 20.7514 23.8778C20.6454 23.669 20.4366 23.5646 20.125 23.5646C19.8267 23.5646 19.6196 23.669 19.5036 23.8778C19.3875 24.0866 19.3295 24.312 19.3295 24.554ZM12.6577 19.2642V18.7273C12.6577 18.3163 12.7455 17.9401 12.9212 17.5987C13.0968 17.254 13.3504 16.9789 13.6818 16.7734C14.0166 16.5679 14.4209 16.4652 14.8949 16.4652C15.3854 16.4652 15.7964 16.5679 16.1278 16.7734C16.4593 16.9789 16.7112 17.254 16.8835 17.5987C17.0559 17.9401 17.142 18.3163 17.142 18.7273V19.2642C17.142 19.6752 17.0542 20.0514 16.8786 20.3928C16.7062 20.7341 16.4527 21.0076 16.1179 21.2131C15.7865 21.4152 15.3788 21.5163 14.8949 21.5163C14.411 21.5163 14.0017 21.4136 13.6669 21.2081C13.3355 20.9993 13.0836 20.7259 12.9112 20.3878C12.7422 20.0464 12.6577 19.6719 12.6577 19.2642ZM14.1143 18.7273V19.2642C14.1143 19.5062 14.1707 19.7299 14.2834 19.9354C14.3994 20.1409 14.6032 20.2436 14.8949 20.2436C15.1998 20.2436 15.407 20.1409 15.5163 19.9354C15.629 19.7299 15.6854 19.5062 15.6854 19.2642V18.7273C15.6854 18.4853 15.6323 18.2599 15.5263 18.0511C15.4202 17.8423 15.2098 17.7379 14.8949 17.7379C14.5999 17.7379 14.3961 17.844 14.2834 18.0561C14.1707 18.2682 14.1143 18.492 14.1143 18.7273ZM13.3139 27L20.3139 16.8182H21.6165L14.6165 27H13.3139Z" fill="white"/>
</svg>
