<svg width="26" height="26" viewBox="0 0 26 26" fill="none" xmlns="http://www.w3.org/2000/svg">
<path d="M10.5551 3.24788C10.5275 3.24894 10.4999 3.25141 10.4726 3.25528C10.4726 3.25528 9.7808 3.32723 9.02848 3.60441C8.65496 3.74202 8.22316 3.94164 7.85417 4.2434C7.48517 3.94164 7.05337 3.74202 6.67985 3.60441C5.92753 3.32723 5.23576 3.25528 5.23576 3.25528C5.20873 3.2518 5.18154 3.24969 5.1543 3.24894C4.94469 3.24496 4.74165 3.32216 4.58762 3.46439C4.4336 3.60661 4.34051 3.80287 4.3278 4.01213C4.3151 4.2214 4.38377 4.42748 4.51946 4.58729C4.65515 4.74711 4.84735 4.8483 5.05591 4.8697C5.05591 4.8697 5.58289 4.93317 6.11702 5.12996C6.20703 5.16312 6.19626 5.21272 6.27572 5.25056C4.58624 5.77629 3.25 7.17701 3.25 9.07397C3.25 14.3623 4.6787 17.7495 7.14217 19.7275C9.60564 21.7054 12.9219 22.2083 16.5208 22.2083C16.5413 22.2084 16.5618 22.2077 16.5822 22.2062C17.7143 22.1198 18.8019 21.5902 19.6492 20.8087C20.0211 20.4656 20.3229 20.0471 20.5759 19.6047C20.8221 19.763 21.0821 19.9144 21.2826 20.2353C21.5647 20.6866 21.7079 21.1112 21.7079 21.1112C21.7417 21.2125 21.795 21.3062 21.865 21.3869C21.9349 21.4675 22.0201 21.5336 22.1156 21.5814C22.2111 21.6291 22.315 21.6576 22.4215 21.6652C22.528 21.6727 22.635 21.6593 22.7363 21.6255C22.8376 21.5917 22.9312 21.5384 23.0119 21.4684C23.0925 21.3984 23.1586 21.3133 23.2064 21.2178C23.2541 21.1223 23.2826 21.0183 23.2901 20.9118C23.2977 20.8053 23.2842 20.6984 23.2504 20.5971C23.2504 20.5971 23.0551 20.0061 22.6601 19.3741C22.465 19.0619 22.2122 18.7141 21.8835 18.4167C22.2122 18.1192 22.465 17.7714 22.6601 17.4592C23.0551 16.8272 23.2504 16.2362 23.2504 16.2362C23.2842 16.135 23.2977 16.028 23.2901 15.9215C23.2826 15.815 23.2541 15.711 23.2064 15.6155C23.1586 15.52 23.0925 15.4349 23.0119 15.3649C22.9312 15.295 22.8376 15.2416 22.7363 15.2078C22.635 15.1741 22.528 15.1606 22.4215 15.1681C22.315 15.1757 22.2111 15.2042 22.1156 15.252C22.0201 15.2997 21.9349 15.3658 21.865 15.4465C21.795 15.5271 21.7417 15.6208 21.7079 15.7221C21.7079 15.7221 21.5647 16.1467 21.2826 16.5981C21.1911 16.7445 21.0684 16.764 20.96 16.8858C20.5971 15.1442 19.2365 13.8029 17.4666 13.5163C17.3438 13.4453 17.2044 13.4077 17.0625 13.4073C15.395 13.4073 14.0003 13.4644 13.2296 13.0762C12.8442 12.8821 12.566 12.6183 12.325 12.0574C12.0841 11.4964 11.9167 10.6229 11.9167 9.3448V9.22208C11.9167 7.43796 10.8638 5.95727 9.31836 5.33837C9.44067 5.26899 9.43623 5.18709 9.59131 5.12996C10.1254 4.93317 10.6524 4.8697 10.6524 4.8697C10.864 4.85218 11.0603 4.75254 11.1994 4.59209C11.3385 4.43165 11.4092 4.22315 11.3965 4.01122C11.3838 3.79928 11.2886 3.60074 11.1313 3.45808C10.9741 3.31542 10.7673 3.23997 10.5551 3.24788ZM7.82983 6.63647C9.37126 6.68284 10.2917 7.6661 10.2917 9.22208V9.3448C10.2917 10.7591 10.4628 11.8406 10.8312 12.6985C11.1997 13.5564 11.8016 14.1761 12.4996 14.5277C13.8529 15.2093 15.3845 15.0441 16.9186 15.0334C16.9459 15.0383 16.9735 15.0418 17.0011 15.0439C18.4029 15.1509 19.5 16.3064 19.5 17.7406C19.5 18.3786 19.1411 19.0661 18.5468 19.6143C17.9566 20.1586 17.1564 20.5249 16.4743 20.5812C13.0527 20.5764 10.1558 20.0636 8.15991 18.4611C6.15463 16.851 4.875 14.0773 4.875 9.07397C4.875 7.58537 6.21116 6.5881 7.82983 6.63647Z" fill="#04A3E9"/>
</svg>
