<svg width="10" height="14" viewBox="0 0 10 14" fill="none" xmlns="http://www.w3.org/2000/svg">
<path d="M8.42284 13.1729C8.28966 13.3061 8.07398 13.3061 7.9408 13.1729L4.99989 10.232L2.0592 13.1729C1.92602 13.3061 1.71034 13.3061 1.57716 13.1729L0.0998864 11.6956C-0.0332955 11.5624 -0.0332955 11.3468 0.0998864 11.2136L4.75898 6.55448C4.82534 6.48767 4.91261 6.45448 4.99989 6.45448C5.08716 6.45448 5.17443 6.48767 5.24102 6.55426L9.90011 11.2133C10.0333 11.3465 10.0333 11.5622 9.90011 11.6954L8.42284 13.1729Z" fill="white"/>
<path d="M8.42284 6.71841C8.28966 6.85159 8.07398 6.85159 7.9408 6.71841L4.99989 3.7775L2.0592 6.71841C1.92602 6.85159 1.71034 6.85159 1.57716 6.71841L0.0998864 5.24114C-0.0332955 5.10796 -0.0332955 4.89227 0.0998864 4.75909L4.75898 0.0999997C4.82534 0.0331815 4.91261 0 4.99989 0C5.08716 0 5.17443 0.0331816 5.24102 0.0997726L9.90011 4.75886C10.0333 4.89205 10.0333 5.10773 9.90011 5.24091L8.42284 6.71841Z" fill="white"/>
</svg>
