<svg width="35" height="35" viewBox="0 0 35 35" fill="none" xmlns="http://www.w3.org/2000/svg">
<g clip-path="url(#clip0_403_281)">
<path d="M0.103485 19.4586L0.218117 19.0534C0.298229 18.7704 0.583267 18.6084 0.854774 18.692C0.985191 18.732 1.095 18.8244 1.16004 18.9488C1.22509 19.0733 1.24004 19.2195 1.20161 19.3554L1.08698 19.7606C0.979111 20.1366 1.01465 20.5415 1.18619 20.8909C1.35773 21.2403 1.65203 21.5073 2.00779 21.6361L4.56945 22.1839C5.10515 22.3759 5.68165 22.3085 6.14346 21.959C6.44244 21.7354 6.65605 21.4279 6.76515 21.0771C6.49303 21.1122 6.21742 21.1117 5.94441 21.0746C5.48838 21.0125 5.04988 20.8516 4.65714 20.6023C4.2644 20.3529 3.92612 20.0206 3.66409 19.6268L1.8829 16.9454C1.8209 17.2522 1.51495 17.4434 1.23332 17.3528C1.16874 17.333 1.10853 17.3001 1.05614 17.2561C1.00375 17.212 0.960205 17.1576 0.927994 17.096C0.895779 17.0344 0.875526 16.9668 0.868393 16.8971C0.861263 16.8273 0.867386 16.7568 0.886425 16.6895L1.20749 15.5537C1.0867 15.0161 1.10755 14.4488 1.27981 13.9039C1.57018 12.985 2.2406 12.2787 3.11917 11.966L4.04784 11.6354C4.04667 11.1998 4.15105 10.7639 4.36254 10.3609C4.7672 9.58985 5.51111 9.07017 6.35256 8.97066L8.2155 8.75049C8.30508 8.51933 8.42676 8.30313 8.57662 8.1088C9.09598 7.4327 9.90605 7.06794 10.7461 7.13048L14.4742 7.41332C14.6817 7.18921 14.9168 6.99488 15.1735 6.83545C16.1416 6.23343 17.1117 6.28037 17.6067 6.36271C18.0723 6.43194 18.5421 6.50388 19.0029 6.57682C19.1373 6.59807 19.2582 6.6741 19.3388 6.78818C19.4194 6.90225 19.4533 7.04503 19.4329 7.18511C19.3904 7.47686 19.1281 7.67666 18.8491 7.63314C18.3898 7.56048 17.9216 7.48876 17.4576 7.41981L17.4483 7.41831C17.1616 7.37016 16.4171 7.30634 15.6989 7.75287C14.6871 8.40091 14.5446 9.4308 14.4965 9.70595C13.8028 12.7513 13.9704 14.9256 14.9683 15.8285C16.0622 16.8178 18.3978 16.7244 21.5452 15.5661C23.5697 14.8209 25.8237 13.664 27.7294 12.3919C29.6504 11.1096 30.3608 10.2895 30.5439 9.96522C29.6796 9.74976 28.8 9.55367 27.9292 9.35793C27.6212 9.92804 27.035 10.3142 26.3636 10.3142C25.4419 10.3142 24.6805 9.58679 24.5796 8.65391C23.4639 8.43254 22.3459 8.22404 21.2258 8.02845C21.0917 8.00502 20.972 7.92703 20.8931 7.81166C20.8142 7.69629 20.7825 7.55298 20.805 7.41325C20.8161 7.34404 20.8401 7.27779 20.8758 7.21828C20.9115 7.15878 20.9581 7.10719 21.0129 7.06646C21.0677 7.02573 21.1297 6.99667 21.1954 6.98094C21.261 6.96521 21.3289 6.96311 21.3953 6.97477C22.5191 7.17101 23.6408 7.38015 24.7602 7.60215C25.0562 6.99158 25.6636 6.57169 26.3637 6.57169C27.3128 6.57169 28.0918 7.34302 28.1549 8.31565C29.0025 8.50378 29.8485 8.69923 30.693 8.902C31.1698 9.01561 31.4671 9.24532 31.5767 9.58479C31.694 9.94792 31.5539 10.3225 31.3339 10.6569C32.7261 9.89677 33.7136 8.61181 33.9305 7.13211C34.3018 4.59995 32.1958 2.75955 31.5414 2.25582C29.0678 0.351315 25.5335 0.996572 23.2969 2.40205C22.6547 2.80549 22.0669 3.3115 21.5496 3.9059C21.4582 4.01085 21.3306 4.07371 21.1948 4.08063C21.059 4.08755 20.9261 4.03796 20.8254 3.94279C20.7247 3.84762 20.6644 3.71465 20.6577 3.57314C20.6511 3.43162 20.6987 3.29316 20.79 3.1882C21.3744 2.51659 22.0397 1.94427 22.7674 1.48705C24.0594 0.675261 25.6746 0.142544 27.1989 0.0255159C29.0848 -0.119363 30.7976 0.354733 32.1506 1.39645C32.9217 1.99007 35.402 4.1698 34.944 7.29345C34.5701 9.84371 32.3726 11.912 29.5797 12.3624C29.302 12.5771 29.0193 12.7846 28.7319 12.9849C26.4571 14.5733 23.638 16.0059 21.191 16.8172C19.6759 17.3194 18.3445 17.5701 17.2235 17.5701C16.7793 17.5701 16.3688 17.5299 15.9924 17.4512L17.0543 19.235L19.5142 19.336C19.5815 19.3388 19.6476 19.3553 19.7087 19.3847C19.7699 19.4141 19.8248 19.4557 19.8705 19.5073C19.9162 19.5588 19.9517 19.6192 19.975 19.685C19.9983 19.7508 20.0089 19.8208 20.0062 19.8909C20.0009 20.0325 19.9418 20.166 19.8419 20.2622C19.742 20.3583 19.6096 20.4092 19.4738 20.4036L16.7418 20.2913C16.6581 20.2879 16.5764 20.2631 16.504 20.2191C16.4315 20.1752 16.3705 20.1134 16.3264 20.0391L14.9912 17.7962L14.4596 17.9909C14.1341 18.1098 13.7948 18.1826 13.4507 18.2073L13.3032 20.4019L15.2412 21.9841C15.347 22.0719 15.4153 22.1997 15.4311 22.3397C15.4468 22.4797 15.4089 22.6205 15.3254 22.7315C15.242 22.8424 15.1199 22.9145 14.9856 22.9321C14.8514 22.9496 14.716 22.9111 14.6089 22.8251L12.4566 21.068C12.3906 21.0142 12.3383 20.9442 12.3043 20.8644C12.2702 20.7846 12.2555 20.6972 12.2614 20.6101L12.4277 18.139C12.3631 18.1257 12.2989 18.1106 12.235 18.0937L11.0007 19.0067L10.1964 21.3945L11.664 23.4542C11.7041 23.5105 11.7332 23.5745 11.7496 23.6425C11.766 23.7106 11.7694 23.7813 11.7596 23.8507C11.7497 23.9201 11.7269 23.9868 11.6923 24.047C11.6577 24.1072 11.612 24.1597 11.558 24.2015C11.3329 24.3763 11.0105 24.3294 10.8408 24.091L9.21095 21.8036C9.16099 21.7335 9.12828 21.6516 9.1157 21.5653C9.10312 21.4789 9.11104 21.3907 9.13877 21.3083L9.71377 19.601C9.56195 19.6276 9.40809 19.6415 9.2536 19.6415C9.24397 19.6415 9.23433 19.6406 9.22469 19.6405L8.50416 20.2818C8.3092 20.4551 8.09544 20.6039 7.86723 20.7253C7.83675 21.1959 7.69689 21.6393 7.46435 22.0264L7.6474 22.4826C7.87612 23.0527 7.89437 23.6738 7.704 24.2517L9.69983 26.8746L16.5499 25.7203C17.1788 25.6149 17.7915 25.8904 18.1483 26.4408C18.505 26.9914 18.5218 27.6864 18.1923 28.255L17.6254 29.2331C17.1705 30.0182 16.4835 30.6205 15.6888 30.9673L16.0588 31.147C16.0638 31.1494 16.0687 31.1518 16.0736 31.1544C16.6424 31.4541 16.9821 32.0526 16.9601 32.7164C16.9381 33.3802 16.5596 33.9529 15.9723 34.211C15.1658 34.5769 14.1989 35.0421 13.3053 34.9969C11.9799 34.9969 10.6595 34.3874 9.85465 33.3034C9.8418 33.2861 9.82998 33.2679 9.81918 33.2491L7.82506 29.747L7.33256 29.6948C6.44931 29.6014 5.62967 29.1735 5.02914 28.4922L3.41125 26.658C2.92087 26.6343 2.4391 26.4776 2.00854 26.1891C1.24125 25.6748 0.767761 24.8359 0.709385 23.8872L0.585117 21.8674C0.0635681 21.2234 -0.142864 20.33 0.103485 19.4586ZM26.3636 7.64012C25.9388 7.64012 25.5932 8.00032 25.5932 8.44293C25.5932 8.88562 25.9388 9.24575 26.3636 9.24575C26.7883 9.24575 27.134 8.88554 27.134 8.44293C27.134 8.00025 26.7884 7.64012 26.3636 7.64012ZM5.26216 10.8734C5.02374 11.3278 5.01082 11.8511 5.22689 12.3089L6.38161 14.7555C6.41132 14.8184 6.42883 14.8869 6.43316 14.9569C6.43749 15.0269 6.42854 15.0971 6.40683 15.1635C6.38511 15.2299 6.35106 15.2912 6.30661 15.3439C6.26216 15.3966 6.20818 15.4397 6.14777 15.4706C5.89923 15.5997 5.58691 15.4943 5.46148 15.2269L4.30676 12.7803C4.29214 12.7493 4.27922 12.718 4.26582 12.6867L3.45041 12.977C2.87877 13.1804 2.44252 13.64 2.25352 14.2379C2.06459 14.8359 2.15345 15.4756 2.49728 15.9932L4.50704 19.0187C4.68737 19.2897 4.92016 19.5184 5.19045 19.69C5.46073 19.8616 5.7625 19.9723 6.07634 20.0151C6.39024 20.0573 6.70916 20.0305 7.01255 19.9366C7.31594 19.8426 7.59709 19.6835 7.83791 19.4694L7.99718 19.3276C7.48123 19.0534 7.05989 18.6142 6.80097 18.0655L6.51647 17.4627C6.48676 17.3997 6.46924 17.3313 6.46492 17.2612C6.46059 17.1912 6.46954 17.121 6.49126 17.0546C6.51297 16.9882 6.54702 16.9269 6.59147 16.8742C6.63592 16.8215 6.6899 16.7785 6.75031 16.7475C6.81073 16.7166 6.87641 16.6983 6.94359 16.6938C7.01078 16.6893 7.07817 16.6986 7.1419 16.7212C7.20563 16.7438 7.26445 16.7793 7.31502 16.8257C7.36558 16.872 7.4069 16.9282 7.4366 16.9912L7.72109 17.5941C7.93764 18.0529 8.33881 18.3893 8.82167 18.5168C9.29653 18.6423 9.79812 18.5547 10.2108 18.2776C10.3029 18.1975 11.0247 17.688 11.1349 17.5969C10.4245 17.1208 9.90858 16.4158 9.66538 15.5772L8.14981 10.3509C8.10214 10.1859 8.07128 10.0161 8.05774 9.84435L6.46815 10.0323C5.95008 10.0934 5.51049 10.4001 5.26216 10.8734ZM14.5365 16.8301C14.4533 16.7695 14.3731 16.7045 14.2962 16.6354C13.3779 15.8047 12.4944 13.8896 13.4936 9.48272C13.5173 9.31747 13.5932 8.90812 13.8057 8.43389L10.6717 8.19612C10.1686 8.15745 9.68547 8.37505 9.37719 8.77642C9.09448 9.14439 9.005 9.60566 9.13146 10.0419L10.647 15.2682C10.8448 15.9502 11.3003 16.5091 11.9297 16.842C12.745 17.2849 13.7073 17.2005 14.5365 16.8301ZM10.6838 32.6743C11.4447 33.6735 13.0934 34.3164 14.5631 33.6705L15.5736 33.2266C15.7917 33.1307 15.9269 32.9262 15.935 32.6796C15.9432 32.4354 15.8244 32.2235 15.6169 32.1113L12.9504 30.8163C12.8891 30.7868 12.834 30.745 12.7882 30.6933C12.7424 30.6416 12.7069 30.581 12.6837 30.515C12.6604 30.4489 12.6499 30.3788 12.6528 30.3085C12.6556 30.2382 12.6718 30.1692 12.7003 30.1055C12.7288 30.0417 12.7691 29.9844 12.8189 29.937C12.8688 29.8895 12.9271 29.8527 12.9905 29.8288C13.054 29.8049 13.1214 29.7942 13.1888 29.7975C13.2563 29.8008 13.3224 29.8179 13.3835 29.8478L14.1704 30.23C15.2349 30.2083 16.1959 29.6325 16.7474 28.6808L17.3144 27.7026C17.4368 27.4913 17.4308 27.2432 17.2983 27.0387C17.1658 26.8341 16.9467 26.7354 16.7133 26.7751L10.3854 27.8413C10.47 28.0329 10.5126 28.2417 10.5103 28.4526L11.2217 28.7981C11.3276 28.8494 11.4135 28.9369 11.4651 29.046C11.5168 29.1551 11.5312 29.2794 11.5059 29.3982C11.4806 29.517 11.4171 29.6232 11.326 29.6993C11.2348 29.7754 11.1215 29.8168 11.0047 29.8166C10.8429 29.8381 10.27 29.4992 10.118 29.4408C9.8524 29.728 9.47993 29.8923 9.09024 29.8758L10.6838 32.6743ZM5.78364 27.7692C6.21448 28.2579 6.80245 28.5649 7.43605 28.6318L9.08942 28.8071C9.29428 28.8295 9.3979 28.6885 9.43297 28.6272C9.46721 28.5674 9.53386 28.4122 9.4301 28.24L7.12838 25.2152C6.88982 25.4628 6.60369 25.6551 6.28878 25.7794L4.61422 26.4434L5.78364 27.7692ZM2.56283 25.2904C3.05341 25.6191 3.64741 25.6837 4.19234 25.4676L5.92404 24.7808C6.27409 24.642 6.54826 24.368 6.69604 24.0093C6.84847 23.6408 6.84464 23.2312 6.689 22.8645C6.23007 23.1918 5.70325 23.3604 5.1666 23.3604C4.88935 23.3604 4.60964 23.3156 4.33534 23.2245L1.77005 22.6759C1.73211 22.6683 1.69581 22.6541 1.65979 22.6403L1.73232 23.8188C1.76957 24.4253 2.07238 24.9616 2.56283 25.2904Z" fill="#3A3A3A"/>
</g>
<defs>
<clipPath id="clip0_403_281">
<rect width="35" height="35" fill="white" transform="matrix(-1 0 0 1 35 0)"/>
</clipPath>
</defs>
</svg>
