<svg width="15" height="16" viewBox="0 0 15 16" fill="none" xmlns="http://www.w3.org/2000/svg">
<path opacity="0.4" fill-rule="evenodd" clip-rule="evenodd" d="M5.71054 0.0100949C4.79069 0.1239 4.12769 0.322973 3.41721 0.69865C1.53386 1.69454 0.287107 3.53062 0.031165 5.6852C0.0140334 5.82943 0 6.14559 0 6.38775C0 8.10426 0.649908 9.68948 1.85854 10.921C2.82274 11.9035 4.05959 12.5326 5.40882 12.7268C5.8636 12.7923 6.67927 12.7922 7.13614 12.7267C8.01365 12.6007 8.9151 12.2632 9.61995 11.7967L9.86915 11.6318L11.7306 13.6032C12.7545 14.6875 13.6285 15.6061 13.673 15.6444C14.0985 16.0116 14.7845 15.8184 14.9592 15.2824C15.0232 15.0863 15.0104 14.7903 14.9313 14.6345C14.8713 14.5161 14.9127 14.5611 12.75 12.2688L11.087 10.5062L11.1942 10.3632C12.1014 9.15314 12.545 7.8497 12.545 6.39406C12.545 6.12554 12.5246 5.74844 12.4996 5.55605C12.2265 3.44761 10.9344 1.61757 9.03417 0.647891C8.48693 0.368656 7.9135 0.181127 7.25925 0.0675079C6.98241 0.0194109 5.94571 -0.0190295 5.71054 0.0100949ZM5.92317 1.68077C5.10583 1.77901 4.58089 1.94339 3.99176 2.28548C2.4726 3.16763 1.56742 4.83435 1.6491 6.59905C1.70624 7.83382 2.20178 8.93776 3.08706 9.80242C3.95844 10.6535 5.0565 11.1013 6.27248 11.1013C7.45043 11.1013 8.53914 10.6751 9.38594 9.88265C9.98379 9.32316 10.4111 8.6554 10.6627 7.88724C10.8161 7.41905 10.8772 7.06838 10.8967 6.54235C10.9643 4.72645 9.98342 3.02749 8.38426 2.19049C8.01301 1.99619 7.44822 1.80265 7.06883 1.73979C6.7823 1.69228 6.11377 1.65784 5.92317 1.68077Z" fill="#535A67"/>
</svg>
