<svg width="20" height="21" viewBox="0 0 20 21" fill="none" xmlns="http://www.w3.org/2000/svg">
<path fill-rule="evenodd" clip-rule="evenodd" d="M7.61406 0.013389C6.38759 0.16433 5.50358 0.428364 4.55628 0.92663C2.04514 2.2475 0.382809 4.68271 0.0415533 7.54038C0.0187112 7.73167 0 8.151 0 8.47217C0 10.7488 0.866544 12.8513 2.47805 14.4847C3.76365 15.7878 5.41278 16.6222 7.21177 16.8798C7.81814 16.9666 8.90569 16.9665 9.51486 16.8796C10.6849 16.7126 11.8868 16.2649 12.8266 15.6461L13.1589 15.4274L15.6409 18.0421C17.006 19.4803 18.1714 20.6986 18.2306 20.7494C18.798 21.2364 19.7127 20.9802 19.9457 20.2692C20.0309 20.0091 20.0139 19.6166 19.9084 19.4099C19.8283 19.2529 19.8836 19.3126 17 16.2724L14.7826 13.9346L14.9256 13.7449C16.1352 12.14 16.7266 10.4112 16.7266 8.48055C16.7266 8.1244 16.6994 7.62424 16.6662 7.36907C16.302 4.57262 14.5791 2.14541 12.0456 0.859308C11.3159 0.488954 10.5513 0.240232 9.679 0.0895368C9.30988 0.0257449 7.92761 -0.0252391 7.61406 0.013389ZM7.89756 2.22923C6.80778 2.35953 6.10785 2.57754 5.32235 3.03127C3.2968 4.20128 2.0899 6.41187 2.1988 8.75242C2.27498 10.3901 2.9357 11.8543 4.11609 13.0011C5.27792 14.1299 6.742 14.7238 8.36331 14.7238C9.93391 14.7238 11.3855 14.1586 12.5146 13.1075C13.3117 12.3654 13.8814 11.4798 14.217 10.461C14.4215 9.84 14.5029 9.3749 14.529 8.67722C14.6191 6.26877 13.3112 4.0154 11.179 2.90529C10.684 2.64757 9.93096 2.39089 9.42511 2.30751C9.04307 2.2445 8.1517 2.19881 7.89756 2.22923Z" fill="white"/>
</svg>
