<svg width="86" height="86" viewBox="0 0 86 86" fill="none" xmlns="http://www.w3.org/2000/svg">
<circle cx="43" cy="43" r="42.5" stroke="#D8D9DA"/>
<g clip-path="url(#clip0_58_32127)">
<path d="M27.375 45.0834L64.875 30.1792V57.5834C64.875 58.7344 63.9427 59.6667 62.7917 59.6667H27.375V45.0834Z" fill="#027CB1"/>
<path d="M21.125 30.1792V57.5834C21.125 58.7344 22.0573 59.6667 23.2083 59.6667H62.7917C63.3031 59.6667 63.7656 59.475 64.1281 59.1688L21.125 30.1792Z" fill="#04A3E9"/>
<path opacity="0.05" d="M21.125 29.4585H64.875V31.221L46.8333 45.2314C44.5781 46.9825 41.4219 46.9825 39.1667 45.2314L21.125 31.221V29.4585Z" fill="#35373D"/>
<path opacity="0.07" d="M21.125 28.9375H64.875V30.7L46.0896 44.3583C44.2542 45.7167 41.7458 45.7167 39.9104 44.3583L21.125 30.7V28.9375Z" fill="#35373D"/>
<path d="M23.2083 26.3335H62.7917C63.9427 26.3335 64.875 27.2658 64.875 28.4168V30.1793L45.3458 43.4856C43.9302 44.4502 42.0687 44.4502 40.6542 43.4856L21.125 30.1793V28.4168C21.125 27.2658 22.0573 26.3335 23.2083 26.3335Z" fill="#1EBBFF"/>
<path opacity="0.2" d="M64.8768 47.8113C62.8404 46.2895 60.3227 45.377 57.5852 45.377C50.8435 45.377 45.3789 50.8415 45.3789 57.5832C45.3789 58.2947 45.4529 58.9884 45.5695 59.6665H64.8768V47.8113Z" fill="url(#paint0_radial_58_32127)"/>
<path d="M50 55C50 50.0294 54.0294 46 59 46C63.9706 46 68 50.0294 68 55C68 59.9706 63.9706 64 59 64C54.0294 64 50 59.9706 50 55Z" fill="#ED1E26"/>
<path fill-rule="evenodd" clip-rule="evenodd" d="M59 66C52.9249 66 48 61.0751 48 55C48 48.9249 52.9249 44 59 44C65.0751 44 70 48.9249 70 55C70 61.0751 65.0751 66 59 66ZM59 46C54.0294 46 50 50.0294 50 55C50 59.9706 54.0294 64 59 64C63.9706 64 68 59.9706 68 55C68 50.0294 63.9706 46 59 46Z" fill="white"/>
<path d="M58.0742 59.5L58.127 53.2832L56.8145 53.541L56.4336 51.2793L60.7988 50.3125V59.5H58.0742Z" fill="white"/>
</g>
<defs>
<radialGradient id="paint0_radial_58_32127" cx="0" cy="0" r="1" gradientUnits="userSpaceOnUse" gradientTransform="translate(57.5883 57.9072) scale(12.6052)">
<stop offset="0.348" stop-color="#404D63"/>
<stop offset="0.936" stop-color="#404D63" stop-opacity="0.098"/>
<stop offset="1" stop-opacity="0"/>
</radialGradient>
<clipPath id="clip0_58_32127">
<rect width="50" height="50" fill="white" transform="translate(18 18)"/>
</clipPath>
</defs>
</svg>
