<svg width="38" height="38" viewBox="0 0 38 38" fill="none" xmlns="http://www.w3.org/2000/svg">
<path d="M31.6667 5.54175H6.33333C4.15071 5.54175 2.375 7.31746 2.375 9.50008V28.5001C2.375 30.6827 4.15071 32.4584 6.33333 32.4584H31.6667C33.8493 32.4584 35.625 30.6827 35.625 28.5001V9.50008C35.625 7.31746 33.8493 5.54175 31.6667 5.54175Z" fill="#FFD600"/>
<path d="M29.292 12.6666H8.70866C8.27087 12.6666 7.91699 12.3127 7.91699 11.8749C7.91699 11.4371 8.27087 11.0833 8.70866 11.0833H29.292C29.7298 11.0833 30.0837 11.4371 30.0837 11.8749C30.0837 12.3127 29.7298 12.6666 29.292 12.6666Z" fill="#25344F"/>
<path d="M19.0003 17.4166H8.70866C8.27087 17.4166 7.91699 17.0627 7.91699 16.6249C7.91699 16.1871 8.27087 15.8333 8.70866 15.8333H19.0003C19.4381 15.8333 19.792 16.1871 19.792 16.6249C19.792 17.0627 19.4381 17.4166 19.0003 17.4166Z" fill="#25344F"/>
<path d="M17.4166 26.9166C17.3272 26.9166 17.2353 26.9008 17.1459 26.8683L15.4565 26.254C14.8754 26.767 14.2856 26.8889 13.8589 26.8897C13.8581 26.8897 13.8565 26.8897 13.8549 26.8897C12.8859 26.8897 12.0721 26.2912 11.6098 25.8582L9.04713 26.7916C8.77242 26.8937 8.46209 26.8327 8.24359 26.6332C8.02588 26.4353 7.93563 26.1329 8.01004 25.8487L8.60934 23.5513C8.72017 23.1269 9.15717 22.8768 9.57517 22.9844C9.99871 23.0953 10.252 23.5275 10.142 23.9503L9.9235 24.7886L11.5559 24.1949C11.8718 24.0785 12.2304 24.1783 12.4426 24.4419C12.6255 24.6651 13.2818 25.308 13.8557 25.308C13.961 25.3016 14.246 25.3127 14.6236 24.8401C14.8366 24.5749 15.1952 24.4743 15.5127 24.5915L17.6874 25.3832C18.099 25.532 18.3104 25.9872 18.1608 26.3973C18.0436 26.7171 17.7396 26.9166 17.4166 26.9166Z" fill="#25344F"/>
<path d="M26.5208 29.2917C23.6835 29.2917 21.375 26.9832 21.375 24.1458C21.375 21.3085 23.6835 19 26.5208 19C29.3582 19 31.6667 21.3085 31.6667 24.1458C31.6667 26.9832 29.3582 29.2917 26.5208 29.2917ZM26.5208 20.5833C24.5567 20.5833 22.9583 22.1817 22.9583 24.1458C22.9583 26.11 24.5567 27.7083 26.5208 27.7083C28.485 27.7083 30.0833 26.11 30.0833 24.1458C30.0833 22.1817 28.485 20.5833 26.5208 20.5833Z" fill="#25344F"/>
<path d="M27.9476 34.0274C27.6389 34.0274 27.3467 33.8461 27.2185 33.5453L25.2615 28.937C25.0905 28.5348 25.2781 28.0693 25.6811 27.8983C26.0809 27.7297 26.5479 27.9149 26.7197 28.3179L28.3712 32.2081L30.4857 31.346L29.0837 27.9102C28.9182 27.5049 29.1129 27.0425 29.5175 26.8779C29.9212 26.7108 30.3836 26.9064 30.5498 27.3117L32.2503 31.4814C32.3303 31.6761 32.3287 31.8939 32.2472 32.0878C32.1656 32.2818 32.0104 32.4346 31.8157 32.5137L28.2453 33.9688C28.1487 34.0092 28.0474 34.0274 27.9476 34.0274Z" fill="#25344F"/>
<path d="M25.0946 34.0273C24.9949 34.0273 24.8935 34.0091 24.7962 33.9687L21.2257 32.5136C21.031 32.4345 20.8758 32.2809 20.7943 32.0877C20.7127 31.8946 20.7119 31.6761 20.7911 31.4813L22.4916 27.3116C22.6571 26.9063 23.1194 26.7115 23.5239 26.8778C23.9285 27.0424 24.1232 27.5048 23.9578 27.9101L22.5557 31.3459L25.3923 32.5026C25.7976 32.6672 25.9924 33.1296 25.8269 33.5341C25.7026 33.8421 25.4073 34.0273 25.0946 34.0273Z" fill="#25344F"/>
</svg>
