<svg width="30" height="30" viewBox="0 0 30 30" fill="none" xmlns="http://www.w3.org/2000/svg">
<path d="M21.25 23.25C20.6864 23.25 20.1459 23.4739 19.7474 23.8724C19.3489 24.2709 19.125 24.8114 19.125 25.375C19.125 25.9386 19.3489 26.4791 19.7474 26.8776C20.1459 27.2761 20.6864 27.5 21.25 27.5C21.8136 27.5 22.3541 27.2761 22.7526 26.8776C23.1511 26.4791 23.375 25.9386 23.375 25.375C23.375 24.8114 23.1511 24.2709 22.7526 23.8724C22.3541 23.4739 21.8136 23.25 21.25 23.25Z" fill="white"/>
<path d="M12.5 23.25C11.9364 23.25 11.3959 23.4739 10.9974 23.8724C10.5989 24.2709 10.375 24.8114 10.375 25.375C10.375 25.9386 10.5989 26.4791 10.9974 26.8776C11.3959 27.2761 11.9364 27.5 12.5 27.5C13.0636 27.5 13.6041 27.2761 14.0026 26.8776C14.4011 26.4791 14.625 25.9386 14.625 25.375C14.625 24.8114 14.4011 24.2709 14.0026 23.8724C13.6041 23.4739 13.0636 23.25 12.5 23.25Z" fill="white"/>
<path fill-rule="evenodd" clip-rule="evenodd" d="M28.9786 7.41022L26.9633 17.9949C26.5771 20.0231 24.7906 21.5001 22.726 21.5001H11.0243C8.9596 21.5001 7.17401 20.0225 6.78707 17.995L4.58501 6.43411C4.52129 6.10393 4.24457 5.87509 3.91008 5.87509H2.18935L2.18933 3.50009H3.91008C5.3747 3.50009 6.64369 4.55148 6.9181 5.98961L6.92008 6.00009H27.8127C27.9874 6.0002 28.1602 6.03887 28.3182 6.11335C28.4763 6.18783 28.616 6.29628 28.7274 6.43097C28.8387 6.56565 28.919 6.72325 28.9624 6.89252C29.0058 7.06176 29.0114 7.23859 28.9786 7.41022ZM11.0243 19.1251C10.0958 19.1251 9.30917 18.4805 9.12468 17.5729L7.3726 8.37509H26.3777L24.6301 17.551C24.4551 18.4701 23.6627 19.1251 22.726 19.1251H11.0243Z" fill="white"/>
</svg>
