<svg width="26" height="26" viewBox="0 0 26 26" fill="none" xmlns="http://www.w3.org/2000/svg">
<path d="M12.4574 1.08334C9.9578 1.08334 7.8856 2.9868 7.61417 5.41668H6.4991C5.24677 5.41668 4.20429 6.3555 4.07429 7.60133L2.72013 20.6013C2.64863 21.2865 2.87223 21.9736 3.33373 22.4866C3.79523 22.9985 4.45593 23.2917 5.14493 23.2917H20.8533C21.5423 23.2917 22.203 22.9985 22.6645 22.4866C23.126 21.9742 23.3485 21.2865 23.277 20.6013L21.9239 7.60133C21.7939 6.3555 20.7514 5.41668 19.4991 5.41668H18.3904C18.4072 5.59543 18.4158 5.77634 18.4158 5.95834V7.04168H19.4991C19.9167 7.04168 20.264 7.35514 20.3074 7.7706L21.6615 20.7706C21.6854 20.9992 21.6106 21.2279 21.4574 21.398C21.3035 21.5686 21.0829 21.6667 20.8533 21.6667H5.14493C4.91527 21.6667 4.6952 21.5691 4.5419 21.399C4.38807 21.2284 4.31283 20.9992 4.33666 20.7706L5.69083 7.7706C5.73416 7.35514 6.08147 7.04168 6.4991 7.04168H7.58243V8.93751C7.58091 9.04518 7.6008 9.15207 7.64095 9.25198C7.6811 9.35189 7.7407 9.44283 7.8163 9.51951C7.8919 9.59618 7.98199 9.65707 8.08132 9.69862C8.18065 9.74018 8.28726 9.76158 8.39493 9.76158C8.50261 9.76158 8.60921 9.74018 8.70855 9.69862C8.80788 9.65707 8.89796 9.59618 8.97356 9.51951C9.04916 9.44283 9.10877 9.35189 9.14891 9.25198C9.18906 9.15207 9.20895 9.04518 9.20743 8.93751V5.95834C9.20743 4.1539 10.653 2.70834 12.4574 2.70834C14.0769 2.70834 15.4041 3.87351 15.6598 5.41668H10.3627C10.3172 5.59001 10.2908 5.77093 10.2908 5.95834V7.04168H15.7074V8.93751C15.7059 9.04518 15.7258 9.15207 15.766 9.25198C15.8061 9.35189 15.8657 9.44283 15.9413 9.51951C16.0169 9.59618 16.107 9.65707 16.2063 9.69862C16.3057 9.74018 16.4123 9.76158 16.5199 9.76158C16.6276 9.76158 16.7342 9.74018 16.8335 9.69862C16.9329 9.65707 17.023 9.59618 17.0986 9.51951C17.1742 9.44283 17.2338 9.35189 17.2739 9.25198C17.3141 9.15207 17.334 9.04518 17.3324 8.93751V5.95834C17.3324 3.27562 15.1402 1.08334 12.4574 1.08334Z" fill="#25344F"/>
</svg>
