<svg width="26" height="26" viewBox="0 0 26 26" fill="none" xmlns="http://www.w3.org/2000/svg">
<path opacity="0.2" d="M1.89634 3.24996C1.78867 3.24844 1.68178 3.26833 1.58187 3.30848C1.48195 3.34862 1.39102 3.40823 1.31434 3.48383C1.23767 3.55943 1.17678 3.64951 1.13522 3.74885C1.09367 3.84818 1.07227 3.95478 1.07227 4.06246C1.07227 4.17014 1.09367 4.27674 1.13522 4.37607C1.17678 4.47541 1.23767 4.56549 1.31434 4.64109C1.39102 4.71669 1.48195 4.77629 1.58187 4.81644C1.68178 4.85659 1.78867 4.87648 1.89634 4.87496H3.38909C3.78339 4.87496 4.11207 5.14738 4.18678 5.53512L4.34865 6.38147L6.09531 15.5549C6.41117 17.21 7.86937 18.4166 9.55478 18.4166H19.6962C21.3816 18.4166 22.8405 17.2104 23.1557 15.5549L24.9024 6.38147C24.9248 6.26402 24.921 6.14307 24.8913 6.02725C24.8615 5.91143 24.8066 5.8036 24.7304 5.71144C24.6542 5.61929 24.5587 5.54508 24.4505 5.49412C24.3423 5.44316 24.2242 5.4167 24.1047 5.41663H5.81813L5.78322 5.23149C5.56486 4.08712 4.55428 3.24996 3.38909 3.24996H1.89634ZM6.12811 7.04163H23.1229L21.5593 15.2513C21.3881 16.1502 20.6119 16.7916 19.6962 16.7916H9.55478C8.63944 16.7916 7.86376 16.1502 7.69175 15.2513V15.2502L6.12811 7.04163ZM10.8338 19.5C10.4029 19.5 9.98954 19.6712 9.68479 19.9759C9.38004 20.2807 9.20884 20.694 9.20884 21.125C9.20884 21.5559 9.38004 21.9693 9.68479 22.274C9.98954 22.5788 10.4029 22.75 10.8338 22.75C11.2648 22.75 11.6781 22.5788 11.9829 22.274C12.2876 21.9693 12.4588 21.5559 12.4588 21.125C12.4588 20.694 12.2876 20.2807 11.9829 19.9759C11.6781 19.6712 11.2648 19.5 10.8338 19.5ZM18.4172 19.5C17.9862 19.5 17.5729 19.6712 17.2681 19.9759C16.9634 20.2807 16.7922 20.694 16.7922 21.125C16.7922 21.5559 16.9634 21.9693 17.2681 22.274C17.5729 22.5788 17.9862 22.75 18.4172 22.75C18.8481 22.75 19.2615 22.5788 19.5662 22.274C19.871 21.9693 20.0422 21.5559 20.0422 21.125C20.0422 20.694 19.871 20.2807 19.5662 19.9759C19.2615 19.6712 18.8481 19.5 18.4172 19.5Z" fill="#25344F"/>
</svg>
