<svg width="28" height="28" viewBox="0 0 28 28" fill="none" xmlns="http://www.w3.org/2000/svg">
<path d="M14.0002 2.33325C8.532 2.33325 4.0835 6.78175 4.0835 12.2499C4.0835 14.6043 4.92875 16.8892 6.47108 18.6946C6.64725 18.8947 10.8035 23.6173 12.1918 24.9409C12.6987 25.4245 13.3492 25.6666 14.0002 25.6666C14.6512 25.6666 15.3016 25.4245 15.8091 24.9409C17.4232 23.4015 21.3647 18.883 21.5374 18.6847C23.0716 16.8892 23.9168 14.6043 23.9168 12.2499C23.9168 6.78175 19.4683 2.33325 14.0002 2.33325ZM14.0002 15.1666C12.3896 15.1666 11.0835 13.8605 11.0835 12.2499C11.0835 10.6393 12.3896 9.33325 14.0002 9.33325C15.6107 9.33325 16.9168 10.6393 16.9168 12.2499C16.9168 13.8605 15.6107 15.1666 14.0002 15.1666Z" fill="#AB3541"/>
<path d="M14.0002 15.1666C12.3896 15.1666 11.0835 13.8605 11.0835 12.2499C11.0835 10.6393 12.3896 9.33325 14.0002 9.33325C15.6107 9.33325 16.9168 10.6393 16.9168 12.2499C16.9168 13.8605 15.6107 15.1666 14.0002 15.1666Z" fill="white"/>
<path fill-rule="evenodd" clip-rule="evenodd" d="M5.14899 19.8412L5.1405 19.8313C3.32939 17.7112 2.3335 15.0239 2.3335 12.2499C2.3335 5.81525 7.5655 0.583252 14.0002 0.583252C20.4348 0.583252 25.6668 5.81525 25.6668 12.2499C25.6668 15.0228 24.6717 17.7104 22.8679 19.8215L22.8574 19.8338L22.8573 19.8338C22.7133 19.9992 18.7052 24.5971 17.0169 26.2073L17.0163 26.2079C16.173 27.0114 15.0861 27.4166 14.0002 27.4166C12.9145 27.4166 11.8274 27.0116 10.9843 26.2075M5.14899 19.8412L5.15763 19.851L5.14899 19.8412ZM6.47108 18.6946C4.92875 16.8892 4.0835 14.6043 4.0835 12.2499C4.0835 6.78175 8.532 2.33325 14.0002 2.33325C19.4683 2.33325 23.9168 6.78175 23.9168 12.2499C23.9168 14.6043 23.0716 16.8892 21.5374 18.6847C21.3647 18.883 17.4232 23.4015 15.8091 24.9409C15.3016 25.4245 14.6512 25.6666 14.0002 25.6666C13.3492 25.6666 12.6987 25.4245 12.1918 24.9409C10.8135 23.6269 6.70702 18.9626 6.47551 18.6996L6.47108 18.6946ZM5.15763 19.851L5.16545 19.8599L5.15763 19.851ZM5.16545 19.8599C5.41094 20.1388 9.54326 24.8336 10.9839 26.2072L5.16545 19.8599Z" fill="white"/>
</svg>
