<svg width="26" height="26" viewBox="0 0 26 26" fill="none" xmlns="http://www.w3.org/2000/svg">
<path d="M12.9871 1.61338C12.7717 1.61674 12.5666 1.70543 12.4166 1.85995C12.2667 2.01448 12.1842 2.22221 12.1872 2.43752V3.83823L11.5758 3.4013C11.4891 3.336 11.3903 3.28871 11.2851 3.26222C11.1799 3.23574 11.0704 3.23058 10.9632 3.24707C10.8559 3.26356 10.7531 3.30135 10.6607 3.35823C10.5683 3.4151 10.4883 3.4899 10.4252 3.57821C10.3622 3.66652 10.3175 3.76656 10.2938 3.87243C10.27 3.97829 10.2677 4.08784 10.287 4.1946C10.3063 4.30137 10.3468 4.40319 10.406 4.49407C10.4653 4.58495 10.5421 4.66304 10.6321 4.72373L12.1872 5.83457V8.12502H10.6543C10.5117 8.12505 10.3716 8.1626 10.2481 8.23391C10.1246 8.30522 10.0221 8.40777 9.95076 8.53127L9.18481 9.85899L7.20116 8.71323L7.01602 6.81105C6.99916 6.60622 6.9053 6.4154 6.75336 6.277C6.60142 6.13861 6.40268 6.06293 6.19718 6.0652C6.08372 6.06659 5.97182 6.09171 5.86867 6.13897C5.76551 6.18622 5.6734 6.25455 5.59825 6.33956C5.52311 6.42457 5.4666 6.52437 5.43237 6.63255C5.39813 6.74072 5.38693 6.85486 5.39949 6.96763L5.47143 7.71559L4.25902 7.01524C4.16653 6.9592 4.06377 6.92219 3.95679 6.90637C3.8498 6.89056 3.74074 6.89626 3.63598 6.92314C3.53123 6.95003 3.4329 6.99755 3.34675 7.06293C3.2606 7.12831 3.18836 7.21023 3.13428 7.30388C3.0802 7.39754 3.04536 7.50104 3.0318 7.60834C3.01824 7.71563 3.02624 7.82456 3.05532 7.92872C3.0844 8.03289 3.13398 8.1302 3.20116 8.21495C3.26833 8.29971 3.35175 8.3702 3.44652 8.4223L4.65893 9.12266L3.9755 9.43369C3.87633 9.47653 3.7867 9.53871 3.71185 9.61659C3.637 9.69448 3.57843 9.78651 3.53956 9.88729C3.5007 9.98808 3.48232 10.0956 3.4855 10.2036C3.48868 10.3116 3.51336 10.4178 3.55809 10.5161C3.60282 10.6145 3.66671 10.7029 3.74602 10.7762C3.82532 10.8496 3.91846 10.9064 4.01997 10.9433C4.12149 10.9802 4.22935 10.9965 4.33724 10.9913C4.44513 10.986 4.5509 10.9593 4.64835 10.9127L6.38866 10.1214L8.37231 11.2661L7.6053 12.5938C7.53399 12.7173 7.49646 12.8574 7.49646 13C7.49646 13.1426 7.53399 13.2828 7.6053 13.4063L8.37231 14.734L6.38866 15.8787L4.64835 15.0873C4.5509 15.0407 4.44513 15.014 4.33724 15.0088C4.22935 15.0035 4.12149 15.0198 4.01997 15.0567C3.91846 15.0937 3.82532 15.1505 3.74602 15.2238C3.66671 15.2972 3.60282 15.3856 3.55809 15.4839C3.51336 15.5822 3.48868 15.6885 3.4855 15.7965C3.48232 15.9044 3.5007 16.012 3.53956 16.1127C3.57843 16.2135 3.637 16.3056 3.71185 16.3834C3.7867 16.4613 3.87633 16.5235 3.9755 16.5663L4.65893 16.8774L3.44652 17.5777C3.35175 17.6298 3.26833 17.7003 3.20116 17.7851C3.13398 17.8698 3.0844 17.9671 3.05532 18.0713C3.02624 18.1755 3.01824 18.2844 3.0318 18.3917C3.04536 18.499 3.0802 18.6025 3.13428 18.6962C3.18836 18.7898 3.2606 18.8717 3.34675 18.9371C3.4329 19.0025 3.53123 19.05 3.63598 19.0769C3.74074 19.1038 3.8498 19.1095 3.95679 19.0937C4.06377 19.0779 4.16653 19.0408 4.25902 18.9848L5.47143 18.2844L5.39949 19.0324C5.38504 19.1406 5.39255 19.2507 5.42157 19.3559C5.4506 19.4612 5.50053 19.5595 5.5684 19.645C5.63626 19.7305 5.72067 19.8015 5.81657 19.8537C5.91248 19.9059 6.01791 19.9382 6.12659 19.9487C6.23526 19.9592 6.34494 19.9478 6.44907 19.915C6.55321 19.8821 6.64967 19.8287 6.73269 19.7578C6.8157 19.6869 6.88358 19.6 6.93226 19.5022C6.98094 19.4045 7.00943 19.298 7.01602 19.189L7.20116 17.2868L9.18481 16.1411L9.95076 17.4688C10.0221 17.5923 10.1246 17.6948 10.2481 17.7661C10.3716 17.8374 10.5117 17.875 10.6543 17.875H12.1872V20.1655L10.6321 21.2763C10.5421 21.337 10.4653 21.4151 10.406 21.506C10.3468 21.5968 10.3063 21.6987 10.287 21.8054C10.2677 21.9122 10.27 22.0217 10.2938 22.1276C10.3175 22.2335 10.3622 22.3335 10.4252 22.4218C10.4883 22.5101 10.5683 22.5849 10.6607 22.6418C10.7531 22.6987 10.8559 22.7365 10.9632 22.753C11.0704 22.7695 11.1799 22.7643 11.2851 22.7378C11.3903 22.7113 11.4891 22.664 11.5758 22.5987L12.1872 22.1618V23.5625C12.1857 23.6702 12.2056 23.7771 12.2458 23.877C12.2859 23.9769 12.3455 24.0678 12.4211 24.1445C12.4967 24.2212 12.5868 24.2821 12.6861 24.3236C12.7855 24.3652 12.8921 24.3866 12.9997 24.3866C13.1074 24.3866 13.214 24.3652 13.3134 24.3236C13.4127 24.2821 13.5028 24.2212 13.5784 24.1445C13.654 24.0678 13.7136 23.9769 13.7537 23.877C13.7939 23.7771 13.8138 23.6702 13.8122 23.5625V22.1618L14.4237 22.5987C14.5104 22.664 14.6092 22.7113 14.7144 22.7378C14.8196 22.7643 14.9291 22.7695 15.0363 22.753C15.1435 22.7365 15.2464 22.6987 15.3388 22.6418C15.4312 22.5849 15.5112 22.5101 15.5743 22.4218C15.6373 22.3335 15.682 22.2335 15.7057 22.1276C15.7295 22.0217 15.7318 21.9122 15.7125 21.8054C15.6932 21.6987 15.6527 21.5968 15.5935 21.506C15.5342 21.4151 15.4573 21.337 15.3674 21.2763L13.8122 20.1655V17.875H15.3452C15.4878 17.875 15.6279 17.8374 15.7514 17.7661C15.8749 17.6948 15.9774 17.5923 16.0487 17.4688L16.8147 16.1411L18.7983 17.2868L18.9835 19.189C18.9901 19.298 19.0185 19.4045 19.0672 19.5022C19.1159 19.6 19.1838 19.6869 19.2668 19.7578C19.3498 19.8287 19.4463 19.8821 19.5504 19.915C19.6546 19.9478 19.7642 19.9592 19.8729 19.9487C19.9816 19.9382 20.087 19.9059 20.1829 19.8537C20.2788 19.8015 20.3632 19.7305 20.4311 19.645C20.499 19.5595 20.5489 19.4612 20.5779 19.3559C20.6069 19.2507 20.6145 19.1406 20.6 19.0324L20.5281 18.2844L21.7405 18.9848C21.833 19.0408 21.9357 19.0779 22.0427 19.0937C22.1497 19.1095 22.2588 19.1038 22.3635 19.0769C22.4683 19.05 22.5666 19.0025 22.6527 18.9371C22.7389 18.8717 22.8111 18.7898 22.8652 18.6962C22.9193 18.6025 22.9541 18.499 22.9677 18.3917C22.9812 18.2844 22.9733 18.1755 22.9442 18.0713C22.9151 17.9671 22.8655 17.8698 22.7983 17.7851C22.7312 17.7003 22.6477 17.6298 22.553 17.5777L21.3406 16.8774L22.024 16.5663C22.1232 16.5235 22.2128 16.4613 22.2876 16.3834C22.3625 16.3056 22.4211 16.2135 22.4599 16.1127C22.4988 16.012 22.5172 15.9044 22.514 15.7965C22.5108 15.6885 22.4861 15.5822 22.4414 15.4839C22.3967 15.3856 22.3328 15.2972 22.2535 15.2238C22.1742 15.1505 22.081 15.0937 21.9795 15.0567C21.878 15.0198 21.7701 15.0035 21.6623 15.0088C21.5544 15.014 21.4486 15.0407 21.3511 15.0873L19.6108 15.8787L17.6272 14.734L18.3942 13.4063C18.4655 13.2828 18.503 13.1426 18.503 13C18.503 12.8574 18.4655 12.7173 18.3942 12.5938L17.6272 11.2661L19.6108 10.1214L21.3511 10.9127C21.4486 10.9593 21.5544 10.986 21.6623 10.9913C21.7701 10.9965 21.878 10.9802 21.9795 10.9433C22.081 10.9064 22.1742 10.8496 22.2535 10.7762C22.3328 10.7029 22.3967 10.6145 22.4414 10.5161C22.4861 10.4178 22.5108 10.3116 22.514 10.2036C22.5172 10.0956 22.4988 9.98808 22.4599 9.88729C22.4211 9.7865 22.3625 9.69448 22.2876 9.61659C22.2128 9.53871 22.1232 9.47653 22.024 9.43369L21.3406 9.12266L22.553 8.4223C22.6477 8.3702 22.7312 8.29971 22.7983 8.21495C22.8655 8.1302 22.9151 8.03289 22.9442 7.92872C22.9733 7.82456 22.9812 7.71563 22.9677 7.60834C22.9541 7.50104 22.9193 7.39754 22.8652 7.30388C22.8111 7.21023 22.7389 7.12831 22.6527 7.06293C22.5666 6.99755 22.4683 6.95003 22.3635 6.92314C22.2588 6.89626 22.1497 6.89056 22.0427 6.90637C21.9357 6.92219 21.833 6.9592 21.7405 7.01524L20.5281 7.71559L20.6 6.96763C20.6128 6.85282 20.601 6.73661 20.5653 6.62673C20.5296 6.51686 20.4709 6.41586 20.3931 6.33046C20.3154 6.24506 20.2202 6.17723 20.1142 6.13149C20.0081 6.08575 19.8935 6.06315 19.778 6.0652C19.5767 6.069 19.384 6.1474 19.2372 6.2852C19.0904 6.423 19 6.61039 18.9835 6.81105L18.7983 8.71323L16.8147 9.85899L16.0487 8.53127C15.9774 8.40777 15.8749 8.30522 15.7514 8.23391C15.6279 8.1626 15.4878 8.12505 15.3452 8.12502H13.8122V5.83457L15.3674 4.72373C15.4573 4.66304 15.5342 4.58495 15.5935 4.49407C15.6527 4.40319 15.6932 4.30137 15.7125 4.1946C15.7317 4.08784 15.7295 3.97829 15.7057 3.87243C15.682 3.76656 15.6373 3.66652 15.5743 3.57821C15.5112 3.4899 15.4312 3.4151 15.3388 3.35823C15.2464 3.30135 15.1435 3.26356 15.0363 3.24707C14.9291 3.23058 14.8196 3.23574 14.7144 3.26222C14.6092 3.28871 14.5104 3.336 14.4237 3.4013L13.8122 3.83823V2.43752C13.8138 2.32877 13.7935 2.22082 13.7526 2.12005C13.7117 2.01929 13.6509 1.92777 13.574 1.85091C13.497 1.77406 13.4054 1.71343 13.3046 1.67263C13.2038 1.63183 13.0958 1.61168 12.9871 1.61338ZM11.123 9.75002H12.8664C12.9537 9.76435 13.0426 9.76435 13.1299 9.75002H14.8765L15.7314 11.2311C15.7664 11.3371 15.823 11.4347 15.8975 11.5178L15.8985 11.52L16.7523 13L15.8826 14.5076C15.8249 14.5771 15.7791 14.6558 15.7472 14.7403L14.8765 16.25H13.133C13.0848 16.2418 13.036 16.2379 12.9871 16.2384C12.9473 16.2394 12.9077 16.2432 12.8686 16.25H11.123L10.2512 14.7393C10.2199 14.6564 10.1752 14.5792 10.119 14.5108L9.24722 13L10.102 11.52C10.1773 11.436 10.2342 11.3373 10.2692 11.2301C10.2692 11.2297 10.2692 11.2294 10.2692 11.229L11.123 9.75002Z" fill="#04A3E9"/>
</svg>
