<svg width="26" height="26" viewBox="0 0 26 26" fill="none" xmlns="http://www.w3.org/2000/svg">
<path d="M17.8589 5.00012C17.5718 5.00432 17.2981 5.12235 17.0979 5.32826C16.8978 5.53417 16.7875 5.81112 16.7915 6.09826V16.483L14.8491 14.5406C14.7493 14.4367 14.6297 14.3537 14.4974 14.2965C14.3651 14.2393 14.2227 14.2091 14.0786 14.2076C13.9344 14.2061 13.7915 14.2335 13.658 14.2879C13.5246 14.3424 13.4034 14.423 13.3014 14.5249C13.1995 14.6268 13.119 14.748 13.0645 14.8815C13.01 15.0149 12.9827 15.1579 12.9842 15.302C12.9856 15.4462 13.0158 15.5885 13.073 15.7208C13.1302 15.8532 13.2132 15.9727 13.3172 16.0725L17.1089 19.8642C17.312 20.0673 17.5875 20.1814 17.8748 20.1814C18.1621 20.1814 18.4376 20.0673 18.6408 19.8642L22.4324 16.0725C22.5364 15.9727 22.6194 15.8532 22.6766 15.7208C22.7338 15.5885 22.764 15.4462 22.7655 15.302C22.7669 15.1579 22.7396 15.0149 22.6851 14.8815C22.6306 14.748 22.5501 14.6268 22.4482 14.5249C22.3463 14.423 22.225 14.3424 22.0916 14.2879C21.9581 14.2335 21.8152 14.2061 21.671 14.2076C21.5269 14.2091 21.3845 14.2393 21.2522 14.2965C21.1199 14.3537 21.0003 14.4367 20.9005 14.5406L18.9581 16.483V6.09826C18.9601 5.95341 18.933 5.80964 18.8785 5.67544C18.8239 5.54124 18.743 5.41935 18.6405 5.31696C18.5381 5.21458 18.4161 5.13379 18.2818 5.07937C18.1476 5.02494 18.0038 4.998 17.8589 5.00012ZM4.33314 5.01493C4.18958 5.0129 4.04706 5.03942 3.91384 5.09295C3.78063 5.14648 3.65938 5.22596 3.55714 5.32675C3.45491 5.42755 3.37373 5.54766 3.31832 5.68011C3.26291 5.81255 3.23438 5.95469 3.23438 6.09826C3.23438 6.24183 3.26291 6.38397 3.31832 6.51641C3.37373 6.64886 3.45491 6.76897 3.55714 6.86977C3.65938 6.97057 3.78063 7.05004 3.91384 7.10357C4.04706 7.1571 4.18958 7.18362 4.33314 7.18159H5.95814C6.10169 7.18362 6.24422 7.1571 6.37743 7.10357C6.51065 7.05004 6.6319 6.97057 6.73413 6.86977C6.83637 6.76897 6.91755 6.64886 6.97296 6.51641C7.02837 6.38397 7.0569 6.24183 7.0569 6.09826C7.0569 5.95469 7.02837 5.81255 6.97296 5.68011C6.91755 5.54766 6.83637 5.42755 6.73413 5.32675C6.6319 5.22596 6.51065 5.14648 6.37743 5.09295C6.24422 5.03942 6.10169 5.0129 5.95814 5.01493H4.33314ZM4.33314 9.34826C4.18958 9.34623 4.04706 9.37275 3.91384 9.42628C3.78063 9.47982 3.65938 9.55929 3.55714 9.66009C3.45491 9.76089 3.37373 9.881 3.31832 10.0134C3.26291 10.1459 3.23438 10.288 3.23438 10.4316C3.23438 10.5752 3.26291 10.7173 3.31832 10.8497C3.37373 10.9822 3.45491 11.1023 3.55714 11.2031C3.65938 11.3039 3.78063 11.3834 3.91384 11.4369C4.04706 11.4904 4.18958 11.517 4.33314 11.5149H8.1248C8.26836 11.517 8.41089 11.4904 8.5441 11.4369C8.67732 11.3834 8.79856 11.3039 8.9008 11.2031C9.00303 11.1023 9.08421 10.9822 9.13962 10.8497C9.19503 10.7173 9.22357 10.5752 9.22357 10.4316C9.22357 10.288 9.19503 10.1459 9.13962 10.0134C9.08421 9.881 9.00303 9.76089 8.9008 9.66009C8.79856 9.55929 8.67732 9.47982 8.5441 9.42628C8.41089 9.37275 8.26836 9.34623 8.1248 9.34826H4.33314ZM4.33314 13.6816C4.18958 13.6796 4.04706 13.7061 3.91384 13.7596C3.78063 13.8131 3.65938 13.8926 3.55714 13.9934C3.45491 14.0942 3.37373 14.2143 3.31832 14.3468C3.26291 14.4792 3.23438 14.6214 3.23438 14.7649C3.23438 14.9085 3.26291 15.0506 3.31832 15.1831C3.37373 15.3155 3.45491 15.4356 3.55714 15.5364C3.65938 15.6372 3.78063 15.7167 3.91384 15.7702C4.04706 15.8238 4.18958 15.8503 4.33314 15.8483H10.2915C10.435 15.8503 10.5776 15.8238 10.7108 15.7702C10.844 15.7167 10.9652 15.6372 11.0675 15.5364C11.1697 15.4356 11.2509 15.3155 11.3063 15.1831C11.3617 15.0506 11.3902 14.9085 11.3902 14.7649C11.3902 14.6214 11.3617 14.4792 11.3063 14.3468C11.2509 14.2143 11.1697 14.0942 11.0675 13.9934C10.9652 13.8926 10.844 13.8131 10.7108 13.7596C10.5776 13.7061 10.435 13.6796 10.2915 13.6816H4.33314ZM4.33314 18.0149C4.18958 18.0129 4.04706 18.0394 3.91384 18.0929C3.78063 18.1465 3.65938 18.226 3.55714 18.3268C3.45491 18.4276 3.37373 18.5477 3.31832 18.6801C3.26291 18.8126 3.23438 18.9547 3.23438 19.0983C3.23438 19.2418 3.26291 19.384 3.31832 19.5164C3.37373 19.6489 3.45491 19.769 3.55714 19.8698C3.65938 19.9706 3.78063 20.05 3.91384 20.1036C4.04706 20.1571 4.18958 20.1836 4.33314 20.1816H12.4581C12.6017 20.1836 12.7442 20.1571 12.8774 20.1036C13.0107 20.05 13.1319 19.9706 13.2341 19.8698C13.3364 19.769 13.4175 19.6489 13.473 19.5164C13.5284 19.384 13.5569 19.2418 13.5569 19.0983C13.5569 18.9547 13.5284 18.8126 13.473 18.6801C13.4175 18.5477 13.3364 18.4276 13.2341 18.3268C13.1319 18.226 13.0107 18.1465 12.8774 18.0929C12.7442 18.0394 12.6017 18.0129 12.4581 18.0149H4.33314Z" fill="#04A3E9"/>
</svg>
