<svg width="66" height="66" viewBox="0 0 66 66" fill="none" xmlns="http://www.w3.org/2000/svg">
<circle cx="33" cy="33" r="25" fill="white"/>
<circle opacity="0.3" cx="33" cy="33" r="33" fill="white"/>
<path d="M42.4841 24.26C43.5385 24.26 43.816 25.0575 43.5041 26.93C43.1473 29.0713 42.1191 36.1606 41.2991 40.5738C40.9854 42.2625 40.4198 42.9906 39.5966 42.9906C39.1441 42.9906 38.6141 42.7706 38.0054 42.3688C37.1804 41.8238 33.0154 39.0694 32.111 38.4225C31.286 37.8331 30.1479 37.1238 31.5754 35.7275C32.0835 35.23 35.4129 32.0506 38.0066 29.5763C38.2835 29.3119 38.0516 28.9088 37.7441 28.9088C37.6741 28.9088 37.5998 28.93 37.5273 28.9781C34.031 31.2969 29.1829 34.515 28.566 34.9344C27.9491 35.3531 27.3479 35.6219 26.5466 35.6219C26.1373 35.6219 25.6754 35.5519 25.1323 35.3956C23.9179 35.0469 22.7323 34.6313 22.2704 34.4725C20.4923 33.8625 20.9141 33.0719 22.641 32.3119C29.5648 29.2663 38.5241 25.5525 39.761 25.0388C40.966 24.5381 41.861 24.26 42.4841 24.26ZM42.4841 22.385C41.6291 22.385 40.5998 22.6606 39.0429 23.3063L38.856 23.3838C32.2091 26.1438 26.1823 28.705 21.886 30.595C21.2148 30.8906 19.1729 31.7888 19.2523 33.6675C19.286 34.4781 19.7323 35.5831 21.6623 36.245L21.8048 36.2938C22.3435 36.4794 23.4654 36.8663 24.6154 37.1969C25.3154 37.3981 25.9479 37.4956 26.5473 37.4956C27.5873 37.4956 28.3929 37.1988 29.0229 36.8531C29.0198 36.9581 29.0223 37.0638 29.0304 37.17C29.1441 38.615 30.2616 39.4075 30.9291 39.8813L31.0223 39.9475C32.0079 40.6525 36.4685 43.5994 36.9735 43.9325C37.9241 44.56 38.7823 44.8644 39.5979 44.8644C40.8804 44.8644 42.5373 44.1794 43.1435 40.9156C43.7191 37.82 44.3841 33.4956 44.8698 30.3381C45.0766 28.9906 45.2466 27.8856 45.3548 27.2375C45.5729 25.9288 45.6729 24.4463 44.7623 23.3719C44.3798 22.9219 43.6748 22.385 42.4841 22.385Z" fill="#ED1E26"/>
</svg>
