<svg width="35" height="35" viewBox="0 0 35 35" fill="none" xmlns="http://www.w3.org/2000/svg">
<path d="M28.3293 17.3388C25.6493 16.4996 22.7454 17.1483 20.7507 19.0313C20.6311 19.1442 20.5218 19.2555 20.4206 19.366C19.2826 17.0892 17.3453 15.4315 15.3069 15.0099C15.2133 14.9906 15.1156 14.9997 15.0278 15.0358C14.9399 15.072 14.8665 15.1335 14.8178 15.2114C13.7178 16.9758 13.7281 19.5719 14.8447 21.987C15.873 24.2112 17.03 24.4131 18.495 24.6687C18.6681 24.6989 18.8456 24.73 19.0299 24.7652L19.4818 25.7425C19.5171 25.8191 19.5753 25.8843 19.6494 25.93C19.7234 25.9758 19.81 26.0001 19.8985 26C19.9581 26 20.0173 25.989 20.0724 25.9674C20.1275 25.9458 20.1776 25.9142 20.2198 25.8743L20.9842 25.1527C21.2285 25.2323 21.4618 25.3121 21.6895 25.3899C22.5819 25.6953 23.3832 25.9693 24.1838 25.9693C25.0292 25.9693 25.8742 25.6636 26.825 24.7661C28.8195 22.8829 29.5066 20.1412 28.6177 17.6111C28.5954 17.5477 28.5576 17.49 28.5076 17.4428C28.4575 17.3955 28.3965 17.3599 28.3293 17.3388ZM15.678 21.6435C14.7508 19.6383 14.6682 17.4395 15.4412 15.9301C17.139 16.4213 18.7905 17.9736 19.7177 19.9788C20.5381 21.7538 20.1514 22.3822 19.4225 23.4688L17.1508 18.5546C17.1015 18.4517 17.0113 18.3713 16.8997 18.3307C16.7881 18.2901 16.6641 18.2927 16.5544 18.3379C16.4448 18.3831 16.3585 18.4672 16.3141 18.5721C16.2698 18.6769 16.271 18.7941 16.3174 18.8981L18.5892 23.8121C17.2498 23.5779 16.4987 23.4185 15.678 21.6435ZM20.0484 24.8221L19.8632 24.4219C19.9563 24.2775 20.0484 24.1401 20.1381 24.0061C20.2071 24.1855 20.2748 24.3653 20.341 24.5457L20.0484 24.8221ZM26.1821 24.1591C24.7399 25.5204 23.8242 25.2072 21.9992 24.5829C21.8999 24.5488 21.7991 24.5143 21.697 24.4797L25.8133 20.5935C25.8555 20.5537 25.8889 20.5064 25.9118 20.4543C25.9346 20.4022 25.9464 20.3464 25.9464 20.2901C25.9464 20.2337 25.9346 20.178 25.9118 20.1259C25.8889 20.0738 25.8555 20.0265 25.8133 19.9867C25.7711 19.9468 25.721 19.9152 25.6658 19.8936C25.6106 19.872 25.5515 19.8609 25.4918 19.8609C25.4321 19.8609 25.373 19.872 25.3178 19.8936C25.2627 19.9152 25.2125 19.9468 25.1704 19.9867L21.0538 23.8729C21.0178 23.7781 20.9821 23.6844 20.9466 23.592C20.8726 23.3993 20.8018 23.2148 20.7371 23.0372C21.108 22.3098 21.2551 21.5161 20.8172 20.2839C20.9667 20.0751 21.1561 19.8626 21.3936 19.6383C23.0894 18.0375 25.5342 17.4537 27.8234 18.0887C28.496 20.2502 27.8777 22.5583 26.1821 24.1591Z" fill="#3A3A3A"/>
<path d="M32.061 19.1403C32.1254 19.1404 32.1891 19.1277 32.2486 19.1031C32.308 19.0785 32.362 19.0424 32.4075 18.9969C32.453 18.9514 32.4891 18.8974 32.5137 18.8379C32.5384 18.7784 32.551 18.7147 32.551 18.6504V15.439C32.551 12.7884 30.6806 10.5675 28.1906 10.0235V8.79383C29.1982 8.56953 29.9537 7.66912 29.9537 6.59514V3.25312C29.9537 2.01066 28.9429 1.00003 27.7007 1.00003H17.332C17.0613 1.00003 16.8421 1.21956 16.8421 1.4902C16.8421 1.76084 17.0614 1.98017 17.332 1.98017H27.7007C28.4026 1.98017 28.9734 2.55122 28.9734 3.25312V6.59514C28.9734 7.29677 28.4026 7.86783 27.7007 7.86783H15.2501C14.5482 7.86783 13.9772 7.29677 13.9772 6.59514V3.25312C13.9772 2.55122 14.5482 1.98017 15.2501 1.98017H15.3715C15.4363 1.98091 15.5007 1.96879 15.5608 1.94449C15.6209 1.9202 15.6756 1.88422 15.7217 1.83864C15.7678 1.79306 15.8044 1.73878 15.8294 1.67895C15.8544 1.61912 15.8672 1.55494 15.8672 1.4901C15.8672 1.42527 15.8544 1.36108 15.8294 1.30125C15.8044 1.24142 15.7678 1.18715 15.7217 1.14157C15.6756 1.09598 15.6209 1.06001 15.5608 1.03571C15.5007 1.01142 15.4363 0.999289 15.3715 1.00003H15.2501C14.0077 1.00003 12.997 2.01066 12.997 3.25312V6.59514C12.997 7.66918 13.7526 8.56946 14.76 8.79383V10.0235C12.2697 10.5673 10.3993 12.7884 10.3993 15.439V23.4211C10.0455 23.3032 9.675 23.243 9.30208 23.2431C8.37937 23.2431 7.51203 23.6027 6.85944 24.255L3.01185 28.1025C2.35926 28.7551 2 29.6227 2 30.5454C2 31.4682 2.35926 32.3358 3.01191 32.9882C3.66437 33.6407 4.53172 34 5.45449 34C6.03231 34 6.58822 33.8592 7.08341 33.5936C7.58343 33.8609 8.14171 34.0004 8.70866 34H14.1502C14.4206 34 14.6862 33.9683 14.9429 33.9081C15.2732 33.9687 15.6083 33.9995 15.9441 34H27.0065C30.0638 34 32.5513 31.513 32.5513 28.456V20.6109C32.5483 20.4829 32.4954 20.361 32.4038 20.2715C32.3122 20.182 32.1892 20.1319 32.0611 20.1319C31.933 20.1319 31.81 20.182 31.7184 20.2715C31.6268 20.361 31.5739 20.4829 31.5709 20.6109V28.456C31.5709 30.9724 29.5235 33.0199 27.0065 33.0199H16.5591C16.5699 33.009 16.5812 32.999 16.592 32.9882C17.245 32.3363 17.6044 31.469 17.6044 30.5457C17.6044 28.6409 16.0548 27.091 14.1502 27.091H12.732C12.8467 26.0803 12.5184 25.0285 11.745 24.255C11.6306 24.1409 11.5084 24.0348 11.3794 23.9375V15.439C11.3794 12.9224 13.4271 10.8752 15.9438 10.8752H27.0065C29.5232 10.8752 31.5709 12.9224 31.5709 15.439V18.6504C31.5709 18.921 31.7904 19.1403 32.061 19.1403V19.1403ZM3.70498 32.295C3.23743 31.8277 2.98014 31.2063 2.98014 30.5454C2.98014 29.8844 3.23743 29.2632 3.70498 28.7956L5.28208 27.2185L8.78143 30.7177L7.20433 32.295C6.23953 33.2598 4.66977 33.2598 3.70498 32.295ZM7.97673 32.9087L10.9391 29.9465V33.0198H8.70866C8.45839 33.0198 8.21218 32.9815 7.97673 32.9087ZM14.1502 28.071C15.5143 28.071 16.6243 29.1813 16.6243 30.5456C16.6243 31.2068 16.367 31.8279 15.8992 32.2949C15.4319 32.7622 14.8108 33.0198 14.1502 33.0198H11.9192V28.9512C12.1468 28.6876 12.3329 28.3908 12.4711 28.071H14.1502ZM11.0519 28.4474L9.47456 30.0247L5.97521 26.5254L7.5525 24.9481C8.01979 24.4808 8.64118 24.2234 9.30208 24.2234C9.96324 24.2234 10.5846 24.4808 11.0519 24.9483C12.0167 25.9128 12.0167 27.4826 11.0519 28.4474H11.0519ZM15.9438 9.89501C15.8755 9.89501 15.8078 9.89752 15.7401 9.90003V8.84816H27.2105V9.90003C27.1425 9.89709 27.0745 9.89542 27.0065 9.89501H15.9438Z" fill="#3A3A3A"/>
</svg>
