<svg width="60" height="61" viewBox="0 0 60 61" fill="none" xmlns="http://www.w3.org/2000/svg">
<path d="M35.8601 42.3154C34.9901 42.5448 34.0458 42.6877 33.0591 42.7118C32.3717 42.7229 31.6995 42.6779 31.0586 42.5688C30.9369 42.5548 30.8326 42.6043 30.7693 42.693C30.1852 43.5878 29.1181 44.1476 27.8425 44.3038C27.6163 44.3234 27.6055 44.6587 27.8406 44.6867C28.3919 44.7654 28.9588 44.7962 29.5493 44.7866C32.186 44.7358 34.5091 43.8209 35.9351 42.4418C35.9906 42.385 35.9326 42.2902 35.8601 42.3154Z" fill="#AB3541"/>
<path d="M43.7136 35.6636C43.2414 34.9852 42.522 35.0209 42.4251 35.0304C42.1423 35.0509 41.7706 35.0809 41.3586 35.1195C40.6397 35.1869 39.7913 35.2566 39.0072 35.3012C38.4656 35.326 38.0879 35.4837 37.6217 35.6746C37.5091 35.7164 37.3968 35.7661 37.2762 35.8159C35.7327 36.4311 34.0716 36.7691 32.4299 36.8117C31.2815 36.8382 30.2938 36.7905 29.426 36.661C28.177 36.4739 27.3086 36.2966 25.3936 35.4502C25.0187 35.2809 24.6357 35.1116 24.2608 34.9423C23.3478 34.5264 22.4352 34.1185 21.5152 33.7585C21.2541 33.6351 20.9935 33.5277 20.7168 33.4206C19.4957 32.9617 18.2119 32.6157 16.7225 32.5681C15.6944 32.5289 14.7431 32.7358 14.3085 32.8785C12.6581 33.3837 11.2058 34.1252 10.0884 35.0684C10.0645 35.0848 10.0406 35.1092 10.0086 35.1335C9.88109 35.2474 9.9814 35.4451 10.1425 35.4027C11.5289 35.085 12.7537 35.2885 13.5094 35.9861C13.5095 35.9941 13.526 36.0098 13.5505 36.0253C13.6571 36.1193 13.811 36.1247 13.9229 36.0353C14.8978 35.2856 16.0768 34.6523 17.4206 34.2077C18.3378 33.8979 19.8581 33.8492 20.784 34.0815C21.564 34.2762 22.1335 34.4743 22.6386 34.6974C23.5447 35.1852 24.5009 35.7839 25.1797 36.2354C25.4742 36.4301 25.8014 36.656 26.1451 36.8977C27.3643 37.7394 28.8534 38.7679 29.9391 39.3566C31.3022 40.1001 31.8801 40.3142 33.3833 40.7204C34.4803 41.0137 35.6305 41.0987 36.7558 41.1442C37.7429 41.1441 39.7298 40.9445 40.4267 40.5105C41.7241 39.6917 42.3349 38.9481 43.1678 37.9215C43.2946 37.768 43.4215 37.6065 43.5565 37.4448C43.8657 37.0568 44.1858 36.3418 43.7136 35.6636Z" fill="#AB3541"/>
<path d="M27.7908 33.6408C29.1485 33.547 30.3599 33.9181 31.1586 34.7745C31.2328 34.8532 31.3463 34.8752 31.4511 34.8496C32.3928 34.5552 33.4417 34.3786 34.5418 34.3608C35.0594 34.3524 35.5694 34.368 36.064 34.4318C36.1531 34.4463 36.1917 34.334 36.1181 34.2874C34.6874 33.3613 32.7206 32.819 30.5693 32.8539C29.5582 32.8703 28.5976 33.0056 27.7279 33.259C27.4943 33.3185 27.5483 33.6527 27.7908 33.6408Z" fill="#AB3541"/>
<path d="M23.1897 18.3836C24.0597 18.1542 25.004 18.0113 25.9907 17.9872C26.6781 17.9761 27.3503 18.0211 27.9912 18.1302C28.1129 18.1442 28.2172 18.0946 28.2805 18.006C28.8646 17.1112 29.9317 16.5514 31.2073 16.3952C31.4335 16.3756 31.4443 16.0403 31.2092 16.0122C30.6579 15.9335 30.091 15.9028 29.5005 15.9123C26.8638 15.9632 24.5407 16.8781 23.1148 18.2572C23.0592 18.314 23.1172 18.4087 23.1897 18.3836Z" fill="#AB3541"/>
<path d="M15.3362 25.0354C15.8084 25.7137 16.5278 25.6781 16.6247 25.6686C16.9075 25.6481 17.2792 25.618 17.6912 25.5794C18.4101 25.512 19.2585 25.4424 20.0426 25.3977C20.5842 25.373 20.9619 25.2153 21.4281 25.0244C21.5407 24.9826 21.653 24.9329 21.7736 24.8831C23.3171 24.2679 24.9782 23.9299 26.6199 23.8873C27.7683 23.8607 28.756 23.9085 29.6238 24.038C30.8728 24.2251 31.7412 24.4024 33.6562 25.2487C34.0311 25.4181 34.4141 25.5873 34.789 25.7567C35.702 26.1725 36.6146 26.5805 37.5346 26.9405C37.7957 27.0638 38.0563 27.1713 38.333 27.2784C39.5541 27.7373 40.8379 28.0833 42.3273 28.1309C43.3555 28.17 44.3067 27.9632 44.7413 27.8205C46.3917 27.3152 47.844 26.5738 48.9614 25.6305C48.9853 25.6142 49.0092 25.5898 49.0412 25.5654C49.1687 25.4516 49.0684 25.2539 48.9073 25.2963C47.521 25.6139 46.2961 25.4105 45.5404 24.7129C45.5403 24.7049 45.5238 24.6892 45.4993 24.6736C45.3927 24.5797 45.2388 24.5743 45.127 24.6637C44.1521 25.4134 42.973 26.0467 41.6292 26.4912C40.712 26.8011 39.1917 26.8498 38.2658 26.6175C37.4858 26.4228 36.9163 26.2247 36.4112 26.0015C35.5051 25.5137 34.5489 24.9151 33.8701 24.4635C33.5756 24.2689 33.2484 24.043 32.9047 23.8013C31.6855 22.9596 30.1964 21.931 29.1108 21.3424C27.7476 20.5989 27.1697 20.3848 25.6665 19.9785C24.5695 19.6852 23.4193 19.6003 22.294 19.5548C21.3069 19.5548 19.32 19.7545 18.6231 20.1885C17.3257 21.0072 16.7149 21.7508 15.882 22.7774C15.7552 22.9309 15.6283 23.0925 15.4934 23.2542C15.1841 23.6422 14.864 24.3572 15.3362 25.0354Z" fill="#AB3541"/>
<path d="M31.259 27.0582C29.9013 27.1519 28.6899 26.7809 27.8912 25.9245C27.817 25.8458 27.7035 25.8238 27.5987 25.8493C26.657 26.1438 25.6081 26.3203 24.508 26.3382C23.9904 26.3466 23.4804 26.331 22.9858 26.2672C22.8967 26.2527 22.8581 26.365 22.9317 26.4116C24.3625 27.3377 26.3292 27.88 28.4805 27.8451C29.4916 27.8287 30.4522 27.6934 31.3219 27.44C31.5555 27.3805 31.5015 27.0462 31.259 27.0582Z" fill="#AB3541"/>
</svg>
