<svg width="28" height="28" viewBox="0 0 28 28" fill="none" xmlns="http://www.w3.org/2000/svg">
<g clip-path="url(#clip0_22_4727)">
<path d="M5.72406 4.1093C5.51612 4.33001 5.40228 4.623 5.40664 4.9262L5.40664 8.07941C5.38223 8.25816 5.3996 8.44013 5.45738 8.61104C5.51517 8.78194 5.61179 8.93712 5.73967 9.06437C5.86755 9.19163 6.0232 9.28749 6.19439 9.34444C6.36557 9.40139 6.54763 9.41786 6.72625 9.39257L9.87302 9.39257C10.0282 9.39573 10.1825 9.3679 10.3268 9.31069C10.4711 9.25348 10.6025 9.16806 10.7134 9.05943C10.8242 8.95079 10.9123 8.82112 10.9724 8.67802C11.0326 8.53492 11.0635 8.38126 11.0635 8.22603C11.0635 8.07081 11.0326 7.91715 10.9724 7.77404C10.9123 7.63094 10.8242 7.50128 10.7134 7.39264C10.6025 7.284 10.4711 7.19858 10.3268 7.14137C10.1825 7.08417 10.0282 7.05633 9.87302 7.05949L9.70384 7.05949C12.8559 5.09965 17.0298 5.48334 19.7725 8.22603C21.5948 10.0483 22.3513 12.5 22.0935 14.8813C22.0602 15.189 22.1504 15.4973 22.3444 15.7384C22.4405 15.8578 22.5591 15.9571 22.6935 16.0307C22.828 16.1042 22.9756 16.1506 23.1279 16.1671C23.2803 16.1836 23.4344 16.1699 23.5814 16.1268C23.7285 16.0838 23.8657 16.0122 23.9851 15.9161C24.2262 15.7221 24.3804 15.4403 24.4137 15.1326C24.7433 12.089 23.7588 8.91246 21.4224 6.57612C17.6989 2.85254 11.8466 2.53025 7.73973 5.5852L7.73973 4.9262C7.74306 4.69112 7.6753 4.46051 7.54532 4.2646C7.41534 4.06869 7.2292 3.91662 7.01131 3.82831C6.79341 3.74 6.55393 3.71958 6.32423 3.76972C6.09453 3.81986 5.88533 3.93822 5.72406 4.1093ZM3.90093 12.1712C3.71899 12.3611 3.60657 12.607 3.58191 12.8688C3.25236 15.9125 4.23684 19.089 6.57319 21.4254C10.2968 25.1489 16.149 25.4712 20.2559 22.4163L20.2559 23.0753C20.2527 23.2305 20.2806 23.3847 20.3378 23.529C20.395 23.6733 20.4804 23.8048 20.589 23.9156C20.6977 24.0265 20.8273 24.1146 20.9704 24.1747C21.1135 24.2348 21.2672 24.2658 21.4224 24.2658C21.5777 24.2658 21.7313 24.2348 21.8744 24.1747C22.0175 24.1146 22.1472 24.0265 22.2558 23.9156C22.3645 23.8048 22.4499 23.6733 22.5071 23.529C22.5643 23.3847 22.5921 23.2305 22.589 23.0753V19.9221C22.6134 19.7433 22.596 19.5613 22.5382 19.3904C22.4804 19.2195 22.3838 19.0644 22.2559 18.9371C22.1281 18.8098 21.9724 18.714 21.8012 18.657C21.63 18.6001 21.448 18.5836 21.2694 18.6089H18.1226C17.9665 18.6067 17.8116 18.6359 17.667 18.6948C17.5223 18.7536 17.391 18.8408 17.2807 18.9513C17.1169 19.1155 17.0057 19.3249 16.9614 19.5526C16.9172 19.7804 16.9418 20.0161 17.0321 20.2298C17.1225 20.4434 17.2745 20.6253 17.4687 20.7522C17.663 20.879 17.8906 20.9451 18.1226 20.942H18.2918C15.1397 22.9018 10.9658 22.5181 8.2231 19.7754C6.40083 17.9532 5.64428 15.5014 5.9021 13.1202C5.93203 12.8769 5.88457 12.6303 5.76644 12.4155C5.64831 12.2007 5.46551 12.0285 5.24401 11.9235C5.0225 11.8184 4.77353 11.7858 4.53245 11.8303C4.29136 11.8748 4.0704 11.994 3.90093 12.1712Z" fill="#04A3E9"/>
</g>
<defs>
<clipPath id="clip0_22_4727">
<rect width="28" height="28" fill="white"/>
</clipPath>
</defs>
</svg>
