<svg width="15" height="15" viewBox="0 0 15 15" fill="none" xmlns="http://www.w3.org/2000/svg">
<path d="M0.409371 6.363C0.144372 5.6472 -0.0475228 4.91617 0.0103504 4.13946C0.0469019 3.66124 0.226613 3.25308 0.576898 2.91803C0.957643 2.5586 1.31707 2.18091 1.69172 1.81539C2.17907 1.33413 2.79131 1.33718 3.27866 1.81539C3.58021 2.11085 3.87872 2.4124 4.17722 2.71395C4.46659 3.00331 4.759 3.29268 5.04836 3.58509C5.55704 4.09986 5.56009 4.69991 5.05141 5.21163C4.6859 5.57715 4.32343 5.94571 3.95182 6.30513C3.85435 6.39956 3.84521 6.47875 3.89699 6.59754C4.14067 7.18237 4.494 7.70323 4.88997 8.19058C5.68801 9.17138 6.58962 10.0425 7.66484 10.7157C7.89633 10.8588 8.14915 10.9654 8.38978 11.0964C8.51466 11.1634 8.5969 11.1421 8.69742 11.0385C9.05989 10.6639 9.4315 10.2953 9.8031 9.92677C10.2905 9.44551 10.8996 9.44247 11.387 9.92677C11.984 10.5177 12.578 11.1117 13.1689 11.7087C13.6654 12.2082 13.6623 12.8204 13.1628 13.323C12.8247 13.6642 12.4683 13.987 12.1515 14.3434C11.6886 14.8612 11.1037 15.0318 10.4397 14.9952C9.47109 14.9435 8.57863 14.6206 7.71662 14.2033C5.80376 13.2743 4.17113 11.9858 2.80349 10.3593C1.79224 9.1531 0.957643 7.84334 0.409371 6.363ZM14.2898 7.45346C14.6818 7.45346 15.0031 7.13472 14.966 6.74451C14.6299 3.19999 11.7995 0.369635 8.255 0.0334576C7.86479 -0.00355155 7.54605 0.317747 7.54605 0.709708C7.54605 1.10167 7.86522 1.41503 8.2545 1.4608C11.0159 1.78545 13.2141 3.9836 13.5387 6.745C13.5845 7.13428 13.8978 7.45346 14.2898 7.45346ZM10.8448 6.74877C10.9257 7.13229 11.2357 7.45346 11.6276 7.45346C12.0196 7.45346 12.3429 7.13385 12.2852 6.74615C11.9764 4.67002 10.3295 3.02314 8.25335 2.71431C7.86566 2.65664 7.54605 2.97991 7.54605 3.37187C7.54605 3.76384 7.86722 4.07376 8.25073 4.15468C8.88312 4.28812 9.46371 4.60115 9.93103 5.06847C10.3984 5.5358 10.7114 6.11638 10.8448 6.74877Z" fill="#08105B"/>
</svg>
