<svg width="26" height="26" viewBox="0 0 26 26" fill="none" xmlns="http://www.w3.org/2000/svg">
<path d="M19.0217 2.51471C18.4655 2.51472 17.9094 2.72455 17.4898 3.14419L15.6606 4.97337C15.6428 4.99057 15.6259 5.00858 15.6098 5.02732C14.6898 4.92919 13.6716 4.87498 12.5428 4.87498C9.74445 4.87498 7.80881 5.18928 6.4734 5.76154C5.13798 6.33379 4.33318 7.31794 4.33318 8.39581C4.33318 9.47379 5.13794 10.4579 6.4734 11.0301C7.80886 11.6023 9.74472 11.9166 12.5428 11.9166C15.3409 11.9166 17.4915 11.5966 19.0227 11.0481C19.7883 10.7738 20.4039 10.444 20.8709 10.0187C21.338 9.59335 21.6665 9.02195 21.6665 8.39581C21.6665 7.76973 21.339 7.19829 20.872 6.77293C20.7216 6.63597 20.5507 6.5116 20.3695 6.39313L20.5536 6.20905C21.3922 5.36958 21.3937 3.9835 20.5536 3.14419C20.1337 2.72479 19.5778 2.5147 19.0217 2.51471ZM12.5428 11.9166H4.60401H4.06235C3.86916 11.9146 3.68156 11.9815 3.53322 12.1053C3.38487 12.229 3.28548 12.4016 3.25287 12.592C3.22026 12.7825 3.25657 12.9783 3.35528 13.1444C3.454 13.3104 3.60865 13.4359 3.79151 13.4983V21.71C3.60865 21.7724 3.454 21.8979 3.35528 22.0639C3.25657 22.23 3.22026 22.4258 3.25287 22.6163C3.28548 22.8067 3.38487 22.9793 3.53322 23.103C3.68156 23.2268 3.86916 23.2937 4.06235 23.2916H4.60401H21.9373H22.479C22.6722 23.2937 22.8598 23.2268 23.0081 23.103C23.1565 22.9793 23.2559 22.8067 23.2885 22.6163C23.3211 22.4258 23.2848 22.23 23.1861 22.0639C23.0874 21.8979 22.9327 21.7724 22.7498 21.71V13.4983C22.9327 13.4359 23.0874 13.3104 23.1861 13.1444C23.2848 12.9783 23.3211 12.7825 23.2885 12.592C23.2559 12.4016 23.1565 12.229 23.0081 12.1053C22.8598 11.9815 22.6722 11.9146 22.479 11.9166H21.9373H12.5428ZM19.0217 4.13019C19.1585 4.13039 19.2953 4.1849 19.4046 4.29417C19.6229 4.51219 19.6234 4.84117 19.4046 5.06012L18.7953 5.66949C18.4267 5.54741 18.026 5.43745 17.5903 5.34153L18.6387 4.29311C18.7477 4.18408 18.8848 4.12998 19.0217 4.13019ZM12.5428 6.49998C15.2137 6.49998 17.2185 6.82292 18.4758 7.27334C19.1044 7.49854 19.5403 7.75804 19.777 7.97369C20.0138 8.18934 20.0415 8.3115 20.0415 8.39581C20.0415 8.48007 20.0139 8.60227 19.777 8.81793C19.5402 9.0336 19.1034 9.29308 18.4747 9.51829C17.2174 9.96871 15.2134 10.2916 12.5428 10.2916C9.87225 10.2916 8.10933 9.963 7.11345 9.53627C6.11758 9.10955 5.95818 8.73863 5.95818 8.39581C5.95818 8.0529 6.11767 7.68207 7.11345 7.25535C8.10924 6.82863 9.87197 6.49998 12.5428 6.49998ZM5.41651 13.5416H21.1248V21.6666H5.41651V13.5416Z" fill="#04A3E9"/>
<path d="M17.604 15.1666H13.2707H8.93735V16.7916H13.2707H17.604V15.1666Z" fill="#04A3E9"/>
<path d="M17.604 17.875H13.2707H8.93735V19.5H13.2707H17.604V17.875Z" fill="#04A3E9"/>
</svg>
