<svg width="212" height="24" viewBox="0 0 212 24" fill="none" xmlns="http://www.w3.org/2000/svg">
<path fill-rule="evenodd" clip-rule="evenodd" d="M10.5189 10.5905C12.8601 10.5905 13.527 8.92652 14.418 6.70263L14.5037 6.49001L14.5052 6.48607C14.9912 5.30703 15.57 3.94004 16.5124 2.8424C17.4947 1.69987 18.8431 0.871094 20.8252 0.871094C23.2047 0.871094 24.1259 2.21687 24.1259 3.71509C24.1259 4.49157 23.8212 5.08503 23.3603 5.50288C22.8329 5.97992 22.1066 6.20882 21.41 6.20882C20.8267 6.20882 20.4166 6.03122 20.0807 5.88569L20.0812 5.8852L20.0686 5.87928L20.0348 5.86498C19.8666 5.77618 19.7351 5.69675 19.6087 5.61979C19.3543 5.46292 19.1211 5.32085 18.9388 5.32085C18.2054 5.32085 17.6951 6.56253 17.2927 7.54424C17.2302 7.6947 17.1703 7.84122 17.1285 7.93841C16.5089 9.39617 15.9634 10.3162 15.4622 10.9274C15.2517 11.1835 15.0497 11.3872 14.8532 11.5525C15.7539 11.885 16.6041 12.4187 17.467 13.252C18.5968 14.3437 19.7472 15.9529 21.0715 18.3134L21.0755 18.3233L21.0941 18.3578C21.4135 18.9547 22.09 20.2172 22.8727 20.2172C23.045 20.2172 23.1759 20.1604 23.2852 20.0667C23.4328 19.9389 23.5678 19.7396 23.7063 19.5092L23.935 19.1294L24.346 19.3085L25.5811 19.8486L26.0133 20.0371L25.8476 20.4697C25.2572 22.0074 24.2982 22.851 23.3376 23.3122C22.3821 23.77 21.4412 23.8406 20.8569 23.8406C16.4107 23.8406 15.2537 20.9936 14.3883 18.8625L14.3747 18.828L13.1069 15.7146C12.642 14.5716 12.1791 13.9248 11.6875 13.5721C11.2316 13.2455 10.7143 13.1686 10.1275 13.1686H9.46209V18.7742H9.46057V18.8373C9.46007 20.3055 9.46007 21.0306 11.6713 21.2388L12.3846 21.3015L12.8445 21.3424V21.7908V22.9985V23.4913H12.3398C11.6033 23.4913 10.8674 23.4913 10.0741 23.4573C9.67616 23.442 9.2722 23.4257 8.89593 23.4144C8.53628 23.4025 8.15094 23.3956 7.7228 23.3956H5.12167C4.69402 23.3956 4.30869 23.403 3.94904 23.4144C3.57227 23.4252 3.1678 23.4415 2.76987 23.4573C1.97704 23.4913 1.24062 23.4913 0.504711 23.4913H0V22.9985V21.7908V21.3424L0.45938 21.3015L1.17263 21.2388C3.38389 21.0306 3.38339 20.3059 3.38339 18.8388V18.7742H3.38087V5.94144H3.38339V5.87682C3.38339 4.40919 3.38389 3.68499 1.17263 3.47681L0.45938 3.41268L0 3.37174V2.92281V1.71665V1.22283H0.504711C1.24113 1.22283 1.97704 1.22283 2.76987 1.25588C3.1678 1.27266 3.57277 1.28894 3.94904 1.29979C4.30869 1.31015 4.69402 1.31755 5.12167 1.31755H7.7228C8.15094 1.31755 8.53628 1.31015 8.89593 1.29979C9.27169 1.28894 9.67666 1.27266 10.0741 1.25588C10.4438 1.24059 10.8256 1.2327 11.214 1.22875C11.7691 1.22283 12.0542 1.22283 12.3403 1.22283H12.845V1.71665V2.92281V3.37174L12.3851 3.41268L11.6718 3.47681C9.46057 3.68499 9.46058 4.40919 9.46108 5.87829V5.94144H9.4626V10.5935H10.5189V10.5905ZM32.2673 18.6272C32.2179 18.7476 32.1509 18.9024 32.085 19.0549C31.8578 19.5798 31.6467 20.0647 31.6467 20.5487C31.6467 20.9201 31.7314 21.1091 31.8719 21.2063C32.0522 21.3306 32.3801 21.3888 32.7529 21.4539L32.7524 21.4544L33.3568 21.5521L33.7809 21.6216V22.0385V22.9822V23.4834L33.2667 23.4731L29.6838 23.3986H29.6823C29.2521 23.3872 28.8104 23.3917 28.4014 23.403C27.9133 23.4168 27.4539 23.445 27.121 23.4731L26.5729 23.5194V22.9817V22.038V21.629L26.9865 21.554C28.6986 21.2442 29.1977 20.0701 29.8571 18.5191C29.8843 18.4555 29.912 18.3904 29.9402 18.3243L35.2497 5.88915L35.3792 5.58526H35.7152H36.9593H37.2998L37.4272 5.89507L42.9398 19.3228L42.9413 19.3252L42.9861 19.4357C43.4339 20.5437 43.8152 21.487 45.3621 21.5462L45.8477 21.5654V22.038V22.9817V23.4884L45.3294 23.4726C45.1354 23.4667 44.9738 23.4607 44.799 23.4558C44.0354 23.4306 43.0642 23.3996 42.3449 23.3996H40.719H39.296C38.6472 23.3996 37.7975 23.4306 37.1306 23.4563C36.9648 23.4622 36.8097 23.4671 36.6712 23.4726L36.1488 23.4903V22.9817V22.038V21.5994L36.5961 21.5491L37.2565 21.4746V21.4751C37.3678 21.4598 37.3885 21.4579 37.4101 21.4549C37.7788 21.411 38.2825 21.3508 38.2825 20.9951C38.2825 20.8155 38.2659 20.6029 38.1823 20.2872C38.0901 19.9394 37.9209 19.4668 37.6146 18.785V18.7821L37.4167 18.3361H32.3907L32.2668 18.6277L32.2673 18.6272ZM36.5574 16.1586L34.9661 12.1099L33.2878 16.1586H36.5574ZM82.6549 21.5491L83.214 21.4993L83.2165 21.4978C85.1225 21.3335 85.1114 20.744 85.0973 19.9754L85.0918 19.6809V16.2864C84.4551 16.4511 83.7998 16.5888 83.145 16.6919C82.3023 16.8241 81.4697 16.8981 80.6934 16.8981C77.6616 16.8981 76.1112 16.0047 75.3134 14.9061C74.5049 13.7936 74.4984 12.5307 74.4984 11.7389V9.65368V9.60336H74.4999C74.5004 8.52102 74.5004 7.98774 72.8724 7.83432H72.8729L72.3153 7.78548L71.856 7.74502V7.29659V6.35287V5.85905H72.3607C72.9319 5.85905 73.5031 5.85905 74.1332 5.88569C74.447 5.89901 74.7643 5.91184 75.055 5.92023C75.328 5.92862 75.6262 5.93355 75.9682 5.93355H78.0006C78.5869 5.93355 79.1048 5.91184 79.6427 5.88915L79.7042 5.88569C79.9661 5.87336 80.2487 5.86793 80.5373 5.86448C80.9816 5.85905 81.1699 5.85905 81.3538 5.85905H81.859V6.35287V7.29659V7.74502L81.3991 7.78548L80.8425 7.83432C80.3091 7.88611 79.9389 7.93544 79.7616 8.11995C79.5616 8.32813 79.4709 8.77409 79.4709 9.65368V11.6146C79.4709 12.842 79.4709 14.4714 82.4972 14.4714C83.0311 14.4714 83.5288 14.4221 83.9625 14.3526C84.4193 14.2786 84.8067 14.1853 85.0913 14.1074V9.65417C85.0913 9.01335 85.0636 8.50918 84.8802 8.21713C84.7286 7.97245 84.4017 7.83925 83.7671 7.83925H83.2074H82.7027V7.34641V6.35337V5.85955H83.2074C83.7323 5.85955 84.2823 5.85955 84.8571 5.88619L84.9175 5.88915C85.4565 5.91233 85.9748 5.93404 86.5616 5.93404H88.5936C88.9356 5.93404 89.2343 5.92911 89.5073 5.92072C89.7984 5.91233 90.1152 5.89951 90.4285 5.88619C90.7167 5.87386 91.0164 5.86843 91.3211 5.86498C91.7976 5.85955 91.9996 5.85955 92.2016 5.85955H92.7063V6.35337V7.29709V7.74551L92.2469 7.78597L91.6898 7.8348C90.0618 7.98872 90.0618 8.522 90.0618 9.60435H90.0644V9.65368V19.6814V19.7297H90.0618C90.0618 20.8121 90.0618 21.3469 91.6898 21.4998L92.2469 21.5496L92.7063 21.5901V22.039V22.9827V23.4755H92.2016C91.6304 23.4755 91.0592 23.4755 90.4285 23.4489C90.1152 23.4366 89.7979 23.4237 89.5073 23.4144C89.2343 23.407 88.9361 23.401 88.5936 23.401H86.5616C86.1909 23.401 85.8735 23.407 85.5844 23.4144C85.2706 23.4237 84.9351 23.4366 84.6002 23.4489C84.2864 23.4612 83.968 23.4676 83.6441 23.4711C83.1369 23.4755 82.9208 23.4755 82.6997 23.4755H82.195V22.9827V22.039V21.5901L82.6549 21.5491ZM202.948 13.3541H203.079C203.184 13.3541 203.049 13.357 203.126 13.3551C203.786 13.3472 204.381 13.1528 204.802 12.7798C205.214 12.4143 205.471 11.8608 205.471 11.1198C205.471 11.0034 205.473 11.1479 205.472 11.0735L205.466 10.5737H205.975H206.966H207.48L207.468 11.0774L207.393 14.4192L207.468 17.7594L207.48 18.2621H206.966H205.975H205.466L205.472 17.7634C205.473 17.6874 205.471 17.8324 205.471 17.7175C205.471 16.9755 205.214 16.422 204.802 16.0575C204.381 15.683 203.786 15.4906 203.126 15.4813C203.049 15.4808 203.184 15.4837 203.079 15.4837H202.948V18.2661C202.948 19.6651 203.137 20.447 203.545 20.8506C203.932 21.2319 204.606 21.3222 205.568 21.3222C206.187 21.3222 207.152 21.2556 207.977 20.8136C208.77 20.3878 209.453 19.5872 209.587 18.1003L209.628 17.6489H210.09H211.081H211.648L211.582 18.199C211.525 18.6701 211.469 19.2675 211.439 19.898C211.417 20.3957 211.409 20.9182 211.431 21.4253V21.4292L211.482 22.9684L211.499 23.478L210.978 23.4745L199.446 23.4001V23.4015C198.927 23.4015 198.816 23.4079 198.662 23.4183C198.398 23.4351 198.015 23.4588 195.84 23.4745L195.333 23.4785V22.9837V22.04V21.5911L195.792 21.5506L196.35 21.5008C197.978 21.3483 197.978 20.8131 197.977 19.7307H197.976V19.6824V9.65466V9.60533H197.977C197.978 8.52299 197.978 7.98921 196.35 7.83579L195.792 7.78695L195.333 7.7465V7.29807V6.35435V5.85955L195.84 5.86349C198.017 5.8778 198.419 5.90296 198.694 5.91973C198.85 5.92861 198.961 5.93503 199.446 5.93503V5.93799L209.91 5.86349L210.399 5.85955L210.415 6.33955L210.426 6.64985C210.493 8.65125 210.52 9.46473 210.618 10.7104L210.66 11.2407H210.115H209.023H208.573L208.522 10.8011C208.368 9.47756 207.705 8.80023 206.897 8.4559C206.032 8.0864 204.963 8.06371 204.145 8.06371H203.587C202.946 8.06371 202.946 8.10663 202.946 8.78445V8.86042H202.948L202.948 13.3541ZM171.846 5.85807C172.417 5.85807 172.99 5.85807 173.62 5.88471C173.932 5.89803 174.251 5.91086 174.541 5.91924C174.814 5.92763 175.112 5.93256 175.455 5.93256H177.487C177.829 5.93256 178.128 5.92763 178.4 5.91924C178.691 5.91086 179.008 5.89803 179.322 5.88471C179.61 5.87237 179.909 5.86695 180.214 5.86349C180.69 5.85807 180.892 5.85807 181.094 5.85807H181.599V6.35188V7.2956V7.74403L181.14 7.78448L180.583 7.83333C178.955 7.98725 178.955 8.52003 178.955 9.60238H178.957V9.65269V16.6667L186.026 9.45585V9.45438C186.026 8.66457 185.889 8.27978 185.65 8.1012C185.402 7.9167 184.949 7.8797 184.408 7.83629L184.402 7.83333L183.843 7.78448L183.383 7.74403V7.2956V6.35188V5.85807H183.888C184.46 5.85807 185.031 5.85807 185.661 5.88471C185.974 5.89803 186.292 5.91086 186.582 5.91924C186.855 5.92763 187.153 5.93256 187.496 5.93256H189.528C189.871 5.93256 190.169 5.92763 190.442 5.91924C190.733 5.91086 191.05 5.89803 191.363 5.88471C191.993 5.85807 192.565 5.85807 193.136 5.85807H193.641V6.35188V7.2956V7.74403L193.181 7.78448L192.624 7.83333C190.996 7.98725 190.996 8.52003 190.997 9.60238H190.998V9.65269V19.6804V19.7307H190.997C190.996 20.8126 190.996 21.3464 192.624 21.4988L193.181 21.5486L193.641 21.5891V22.038V22.9817V23.4745H193.136C192.565 23.4745 191.993 23.4745 191.363 23.4479C191.05 23.4356 190.732 23.4228 190.442 23.4134C190.169 23.406 189.871 23.4001 189.528 23.4001H187.496C187.153 23.4001 186.855 23.406 186.582 23.4134C186.292 23.4228 185.974 23.4356 185.661 23.4479C185.373 23.4602 185.074 23.4667 184.769 23.4701C184.292 23.4745 184.09 23.4745 183.888 23.4745H183.383V22.9817V22.038V21.5891L183.843 21.5486L184.4 21.4988C186.028 21.3464 186.028 20.8111 186.028 19.7288H186.026V19.6804V12.6881L178.957 19.8768V19.9779C178.957 20.7026 179.092 21.0612 179.327 21.2299C179.578 21.4115 180.031 21.4539 180.575 21.4973L180.581 21.4988L181.14 21.5486L181.599 21.5891V22.038V22.9817V23.4745H181.094C180.523 23.4745 179.952 23.4745 179.322 23.4479C179.008 23.4356 178.691 23.4228 178.4 23.4134C178.128 23.406 177.829 23.4001 177.487 23.4001H175.455C175.112 23.4001 174.814 23.406 174.541 23.4134C174.25 23.4228 173.932 23.4356 173.62 23.4479C173.332 23.4602 173.032 23.4667 172.727 23.4701C172.251 23.4745 172.049 23.4745 171.846 23.4745H171.342V22.9817V22.038V21.5891L171.801 21.5486L172.359 21.4988C173.987 21.3464 173.987 20.8111 173.986 19.7288H173.985V19.6804V9.65269V9.60336H173.986C173.987 8.52102 173.987 7.98724 172.359 7.83382L171.801 7.78498L171.342 7.74453V7.2961V6.35237V5.85856H171.846V5.85807ZM158.087 13.1799C159.843 13.1799 160.352 11.9091 161.032 10.2106L161.099 10.0454L161.1 10.0409C161.484 9.113 161.939 8.03411 162.687 7.16487C163.474 6.25026 164.554 5.58625 166.141 5.58625C167.001 5.58625 167.632 5.81762 168.07 6.18563C168.601 6.63209 168.831 7.2591 168.831 7.9167C168.831 9.32069 167.682 9.97286 166.598 9.97286C166.119 9.97286 165.786 9.82782 165.513 9.70991L165.504 9.70498L165.472 9.69068C165.335 9.61816 165.233 9.5565 165.134 9.49582C164.949 9.38235 164.779 9.27826 164.668 9.27826C164.169 9.27826 163.787 10.2116 163.484 10.9477C163.434 11.0695 163.386 11.1869 163.355 11.2575C162.867 12.4054 162.435 13.1336 162.038 13.6185C161.915 13.768 161.796 13.8938 161.681 14.0033C162.338 14.2707 162.963 14.6791 163.598 15.2913C164.486 16.1497 165.39 17.4151 166.431 19.271L166.435 19.2803L166.449 19.3075C166.689 19.7549 167.197 20.7031 167.742 20.7031C167.846 20.7031 167.926 20.668 167.991 20.6113C168.096 20.5225 168.195 20.3745 168.298 20.2024L168.527 19.822L168.937 20.0021L169.903 20.4248L170.335 20.6138L170.169 21.0449C169.696 22.2773 168.926 22.9551 168.153 23.3251C167.387 23.6931 166.634 23.7498 166.167 23.7498C162.618 23.7498 161.698 21.484 161.01 19.7894L160.999 19.7638L160.008 17.3312C159.654 16.459 159.304 15.9677 158.936 15.7038C158.603 15.4655 158.22 15.4097 157.782 15.4097H157.372V19.6809V19.7317H157.37C157.37 20.8136 157.37 21.3474 158.998 21.4998L159.554 21.5496L160.014 21.5901V22.039V22.9827V23.4755H159.51C158.938 23.4755 158.367 23.4755 157.737 23.4489C157.423 23.4366 157.105 23.4237 156.815 23.4144C156.542 23.407 156.244 23.401 155.902 23.401H153.87C153.527 23.401 153.229 23.407 152.956 23.4144C152.665 23.4237 152.347 23.4366 152.035 23.4489C151.746 23.4612 151.447 23.4676 151.142 23.4711C150.667 23.4755 150.464 23.4755 150.262 23.4755H149.757V22.9827V22.039V21.5901L150.216 21.5496L150.773 21.4998C152.402 21.3474 152.401 20.8121 152.401 19.7297H152.399V19.6804V9.65368V9.60435H152.401C152.401 8.522 152.402 7.98823 150.773 7.8348L150.216 7.78597L149.757 7.74551V7.29709V6.35337V5.85955H150.262C150.833 5.85955 151.404 5.85955 152.035 5.88619C152.348 5.89951 152.665 5.91233 152.956 5.92072C153.229 5.92911 153.527 5.93404 153.87 5.93404H155.902C156.244 5.93404 156.542 5.92911 156.815 5.92072C157.106 5.91233 157.423 5.89951 157.737 5.88619C158.025 5.87386 158.324 5.86843 158.629 5.86498C159.105 5.85955 159.307 5.85955 159.51 5.85955H160.014V6.35337V7.29709V7.74551L159.554 7.78597L158.998 7.8348C157.37 7.98872 157.37 8.52151 157.37 9.60385H157.372V9.65417V13.1814H158.087V13.1799ZM148.113 19.8787L148.163 22.8244L148.172 23.3251H147.66H146.542H146.183L146.065 22.9921L145.788 22.2067C145.015 22.7489 144.216 23.1134 143.425 23.3522C142.44 23.6482 141.476 23.7478 140.598 23.7478C137.83 23.7478 135.45 22.852 133.767 21.26C132.119 19.6996 131.15 17.4817 131.15 14.7906C131.15 12.1282 132.182 9.84163 133.891 8.21121C135.621 6.5576 138.041 5.58477 140.775 5.58477C141.455 5.58477 142.252 5.63805 143.137 5.87435C143.835 6.06082 144.579 6.36027 145.346 6.83583L145.547 6.07957L145.645 5.70958H146.034H147.152H147.634L147.654 6.18317L147.884 11.4696L147.906 11.9821H147.38H146.237H145.838L145.746 11.6003C145.651 11.2066 145.528 10.8446 145.374 10.5096C145.22 10.1741 145.034 9.86236 144.815 9.56834L144.809 9.56291C144.316 8.87966 143.761 8.43468 143.178 8.16237C142.599 7.89203 141.979 7.78794 141.36 7.78794C140.233 7.78794 138.901 8.27288 137.955 9.61915C137.199 10.6936 136.682 12.3137 136.682 14.6658C136.682 17.0846 137.233 18.6568 138.006 19.6681C139.114 21.118 140.701 21.4209 141.715 21.4209C142.914 21.4209 143.831 20.9744 144.506 20.3109C145.386 19.4486 145.873 18.2172 146.044 17.1018L146.108 16.6791H146.543H147.66H148.173L148.164 17.1813L148.113 19.8787ZM111.808 11.0572C111.905 9.73409 111.932 8.85351 111.998 6.75147L112.011 6.33757L112.026 5.85412L112.521 5.86103L118.231 5.93503V5.93256H123.159V5.93503L128.87 5.86103L129.363 5.85412L129.378 6.33757L129.39 6.7051C129.457 8.84069 129.485 9.72324 129.583 11.0567L129.62 11.585H129.079H128.038H127.618L127.542 11.1785L127.442 10.6344H127.441C127.299 9.88702 126.978 9.27234 126.389 8.85203C125.77 8.41001 124.839 8.1599 123.491 8.1599C123.177 8.1599 123.177 8.23834 123.18 8.45294C123.181 8.61031 123.183 8.43567 123.183 8.60882V19.6784V19.7293H123.181C123.181 20.8111 123.181 21.3449 124.809 21.4973L125.365 21.5471L125.825 21.5876V22.0365V22.9802V23.4731H125.32C124.749 23.4731 124.178 23.4731 123.548 23.4464C123.234 23.4341 122.916 23.4213 122.626 23.4119C122.353 23.4045 122.055 23.3986 121.713 23.3986H119.68C119.338 23.3986 119.039 23.4045 118.766 23.4119C118.476 23.4213 118.159 23.4341 117.846 23.4464C117.215 23.4731 116.643 23.4731 116.073 23.4731H115.567V22.9802V22.0365V21.5876L116.027 21.5471L116.584 21.4973C118.212 21.3449 118.212 20.8111 118.212 19.7293H118.209V19.6784V8.60882C118.209 8.43567 118.211 8.60981 118.212 8.45294C118.214 8.23785 118.215 8.1599 117.902 8.1599C116.554 8.1599 115.622 8.41001 115.003 8.85203C114.414 9.27185 114.094 9.88653 113.952 10.6344H113.951L113.85 11.1785L113.774 11.585H113.355H112.313H111.771L111.808 11.0572ZM104.174 16.1586L102.583 12.1099L100.904 16.1586H104.174ZM99.8841 18.6272L99.8846 18.6277L100.008 18.3361H105.034L105.232 18.7821V18.785C105.539 19.4668 105.709 19.9394 105.801 20.2872C105.884 20.6034 105.9 20.816 105.9 20.9951C105.9 21.3508 105.397 21.411 105.027 21.4549C105.006 21.4579 104.986 21.4593 104.875 21.4751V21.4746L104.214 21.5491L103.767 21.5994V22.038V22.9817V23.4903L104.289 23.4726C104.427 23.4676 104.582 23.4627 104.748 23.4563C105.416 23.4306 106.265 23.3996 106.913 23.3996H108.336H109.963C110.682 23.3996 111.653 23.4306 112.417 23.4558C112.591 23.4607 112.753 23.4662 112.947 23.4726L113.465 23.4884V22.9817V22.038V21.5654L112.98 21.5462C111.434 21.4875 111.051 20.5437 110.603 19.4357L110.559 19.3252L110.557 19.3228L105.044 5.89507L104.917 5.58526H104.577H103.332H102.996L102.866 5.88915L97.5564 18.3243C97.5287 18.3904 97.5005 18.4555 97.4734 18.5191C96.8145 20.0701 96.3148 21.2442 94.6032 21.554L94.1887 21.629V22.038V22.9817V23.5194L94.7372 23.4731C95.0697 23.445 95.5296 23.4168 96.0181 23.403C96.4261 23.3922 96.8679 23.3877 97.298 23.3986H97.3001L100.882 23.4731L101.397 23.4834V22.9822V22.0385V21.6216L100.973 21.5521L100.369 21.4544V21.4539C99.9964 21.3888 99.6685 21.3306 99.4887 21.2063C99.3481 21.1091 99.263 20.9201 99.263 20.5487C99.263 20.0642 99.4741 19.5798 99.7012 19.0549C99.7677 18.9029 99.8352 18.7476 99.8841 18.6272ZM52.0835 12.6689V19.1343V19.1713H52.081C52.081 20.0721 52.0805 21.2423 53.7578 21.4756L54.2918 21.5501L54.7255 21.6108V22.0385V22.9822V23.4824L54.2127 23.4731C53.5629 23.4607 53.0355 23.4435 52.5812 23.4282C52.1122 23.4134 51.7249 23.4006 51.3245 23.4006H50.4863C50.0879 23.4006 49.7136 23.4134 49.2608 23.4282C48.8216 23.4435 48.3118 23.4607 47.6736 23.4731L47.1608 23.4829V22.9822V22.0385V21.6108L47.595 21.5501L48.1284 21.4756C49.8063 21.2423 49.8058 20.0731 49.8058 19.1713H49.8038V19.1343V8.4559C49.6718 8.27337 49.5162 8.14905 49.3187 8.06371C49.0427 7.94284 48.672 7.87871 48.1798 7.83333L47.6212 7.78448L47.1613 7.74403V7.2956V6.35188V5.84771L47.6781 5.86103C48.2337 5.87485 48.6956 5.88816 49.1061 5.89951C50.2077 5.93157 50.9411 5.9523 51.6655 5.93552L53.9009 5.86103L54.2454 5.8487L54.3799 6.15899L58.9858 16.756C59.7267 14.9707 60.3952 13.3541 61.0369 11.7409C61.7028 10.0656 62.3792 8.29655 63.1459 6.18761L63.2688 5.85018L63.635 5.86103L66.3283 5.93552C66.8068 5.94884 67.3347 5.93157 68.0172 5.90937C68.5658 5.89211 69.2135 5.87139 70.0436 5.86103L70.5544 5.85363V6.35188V7.2956V7.74403L70.0945 7.78448L69.5374 7.83333C67.9094 7.98725 67.9094 8.52052 67.9094 9.60287H67.9119V9.6522V19.6799V19.7283H67.9094C67.9094 20.8106 67.9094 21.3454 69.5374 21.4983L70.0945 21.5481L70.5544 21.5886V22.0375V22.9812V23.474H70.0492C69.478 23.474 68.9068 23.4741 68.2761 23.4474C67.9628 23.4351 67.646 23.4223 67.3554 23.4129C67.0824 23.4055 66.7836 23.3996 66.4416 23.3996H64.4082C64.0662 23.3996 63.7675 23.4055 63.4945 23.4129C63.2038 23.4223 62.8865 23.4351 62.5732 23.4474C62.2851 23.4597 61.9859 23.4662 61.6811 23.4696C61.2046 23.474 61.0031 23.474 60.8007 23.474H60.2959V22.9812V22.0375V21.5886L60.7553 21.5481L61.3119 21.4983C62.9404 21.3459 62.9399 20.8121 62.9399 19.7302H62.9374V19.6799V12.9579C61.9108 15.5035 61.5501 16.3145 61.2177 17.0609C60.7986 18.0036 60.4249 18.8442 58.7309 23.1559L58.6065 23.4736H58.2595H57.0148H56.6788L56.5494 23.1697L52.0835 12.6689Z" fill="#3A3A3A"/>
</svg>
