<svg width="256" height="29" viewBox="0 0 256 29" fill="none" xmlns="http://www.w3.org/2000/svg">
<path fill-rule="evenodd" clip-rule="evenodd" d="M6.08657 9.04368V18.3182H6.08404V18.3693C6.08404 19.6167 6.08354 21.2337 8.35533 21.5603L9.0399 21.6598L9.47458 21.7221V22.1641V23.4126V23.9306L8.96064 23.9214C8.13573 23.9051 7.46025 23.8816 6.87715 23.8627C6.26276 23.8423 5.7569 23.825 5.25357 23.825H4.17775C3.67644 23.825 3.18775 23.8423 2.59405 23.8627C2.03014 23.8816 1.37587 23.9051 0.571148 23.9214L0.0551959 23.9317V23.4121V22.1636V21.7216L0.489863 21.6593L1.17443 21.5598C3.44674 21.2331 3.44674 19.6162 3.44573 18.3688V18.3177H3.44421V4.13512C3.25439 3.85134 3.02873 3.66045 2.73844 3.52877C2.36839 3.36136 1.8792 3.27407 1.23249 3.21333L0.515615 3.14749L0.0546875 3.10564V2.64168V1.39273V0.871094L0.572658 0.884365C1.2855 0.902739 1.88374 0.921112 2.41534 0.936935C3.82386 0.978788 4.76388 1.00634 5.6943 0.983882V0.982869L8.56232 0.884365L8.90764 0.873648L9.04243 1.19366L15.0839 15.5421L15.1808 15.3007C16.1395 12.9166 17.0038 10.7586 17.8424 8.57972C18.6986 6.35589 19.5674 4.01262 20.5488 1.22377L20.672 0.874147L21.0395 0.884365L24.4937 0.982869C25.1146 1.00175 25.7967 0.978788 26.6807 0.950206C27.3824 0.926727 28.2108 0.899665 29.264 0.884863L29.7759 0.878228V1.39374V2.64269V3.10667L29.3154 3.1485L28.6006 3.21436C26.3843 3.42975 26.3848 4.17902 26.3848 5.69798V5.76432H26.3874V19.042H26.3848V19.1094C26.3848 20.6283 26.3843 21.3766 28.6006 21.592V21.5925L29.3154 21.6573L29.7759 21.6991V22.1641V23.4126V23.9235H29.27C28.5319 23.9235 27.7944 23.9235 26.9997 23.8883C26.6009 23.8709 26.196 23.8546 25.8179 23.8428C25.4574 23.8326 25.0712 23.825 24.6421 23.825H22.0356C21.6065 23.825 21.2203 23.8326 20.8598 23.8428C20.4822 23.8546 20.0768 23.8709 19.678 23.8883C19.3074 23.9051 18.9248 23.9128 18.5365 23.9168C17.9802 23.923 17.6944 23.923 17.4077 23.923H16.9018V23.4121V22.1636V21.6986L17.3628 21.6568L18.0776 21.592V21.5914C20.2934 21.3761 20.2934 20.6273 20.2924 19.1073V19.0415H20.2909V9.39075C18.7637 13.3147 18.2685 14.4637 17.8151 15.5171C17.2749 16.7702 16.7933 17.8864 14.6225 23.5938L14.4973 23.923H14.1494H12.5526H12.2159L12.0866 23.6075L6.08657 9.04368ZM40.8264 24.1915C38.1124 24.1915 35.5437 23.1921 33.6894 21.4526C31.9371 19.8081 30.8229 17.5087 30.8229 14.7709C30.8229 12.0255 31.9295 9.70772 33.7429 8.06064C35.5972 6.3758 38.1876 5.40042 41.0808 5.40042C44.1271 5.40042 46.5781 6.42837 48.3107 8.05145C50.2094 9.8297 51.2378 12.3174 51.2378 14.9511C51.2378 17.7323 50.0822 19.9556 48.2986 21.5292C46.3317 23.2615 43.602 24.1915 40.8264 24.1915ZM40.9789 7.6023C40.0913 7.6023 38.6197 7.87588 37.5919 9.3877C36.8785 10.4356 36.3671 12.0744 36.3671 14.6173C36.3671 17.2949 36.8765 19.0267 37.5954 20.1332C38.5965 21.6757 40.0242 21.9896 40.9789 21.9896C42.1925 21.9896 43.3597 21.6333 44.2134 20.5992C45.109 19.5146 45.6926 17.6833 45.6926 14.7449C45.6926 11.4941 44.8904 9.69903 43.8883 8.72416C42.9235 7.78502 41.7553 7.6023 40.9789 7.6023ZM59.7161 19.9832L59.7111 20.2889C59.696 21.0841 59.6853 21.693 61.5962 21.863L61.5977 21.8655L62.1586 21.9161L62.619 21.9584V22.4224V23.3988V23.9097H62.1131C61.4917 23.9097 60.8955 23.9097 60.2089 23.8821C59.8726 23.8684 59.5369 23.8561 59.2214 23.8469C58.9316 23.8377 58.6141 23.8326 58.2425 23.8326H56.206C55.8622 23.8326 55.5633 23.8377 55.2897 23.8469C54.9979 23.8551 54.6798 23.8684 54.3663 23.8821C54.0775 23.8949 53.7777 23.9005 53.4717 23.9041C52.9947 23.9097 52.7922 23.9097 52.5893 23.9097H52.0834V23.3988V22.4224V21.9584L52.5438 21.9161L53.1027 21.8655C54.7344 21.7063 54.7343 21.154 54.7338 20.0347H54.7323V19.9832V9.60921V9.55816H54.7338C54.7343 8.43732 54.7344 7.88505 53.1027 7.72683L52.5438 7.67529L52.0834 7.63343V7.16896V6.19409V5.6796L52.5933 5.68471C53.7297 5.69747 54.5223 5.72095 55.1554 5.73932C55.8551 5.75974 56.3584 5.77504 56.8809 5.76228H56.885L61.5189 5.68471H61.5215C61.684 5.68267 61.7426 5.68063 61.7507 5.68063C64.2809 5.68063 65.9449 6.33956 66.9889 7.2685C68.0698 8.2301 68.4813 9.47139 68.4979 10.5912C68.4994 10.6994 68.5004 10.5974 68.5004 10.6612C68.5004 11.4344 68.3359 12.7829 67.2398 13.9466C66.1842 15.0664 64.2648 15.9995 60.7889 15.9995H59.7161V19.9832ZM59.7161 13.8149C59.8015 13.8205 59.8868 13.8231 59.9741 13.8231C60.7289 13.8231 61.7244 13.6735 62.3959 13.0335C62.8613 12.5905 63.1854 11.8861 63.1854 10.7893C63.1854 10.3345 63.137 9.58062 62.7553 8.96813C62.3848 8.37402 61.6699 7.88507 60.3048 7.88507C59.9403 7.88507 59.7505 7.89067 59.7161 7.91926C59.7156 7.91977 59.7156 8.04635 59.7156 8.29951L59.7161 13.8149ZM77.2484 13.4388H77.3791C77.4846 13.4388 77.3493 13.4403 77.4271 13.4398C78.0884 13.4306 78.6842 13.2305 79.1067 12.8436C79.5197 12.467 79.7766 11.8933 79.7766 11.1261C79.7766 11.0072 79.7791 11.1567 79.7776 11.0776L79.7711 10.5621H80.2815H81.275H81.7904L81.7783 11.0822L81.7026 14.5387L81.7783 17.9951L81.7904 18.5157H81.275H80.2815H79.7711L79.7776 17.9992C79.7786 17.9216 79.7766 18.0712 79.7766 17.9507C79.7766 17.1841 79.5197 16.6114 79.1067 16.2332C78.6842 15.8469 78.0884 15.6468 77.4271 15.6381C77.3498 15.6366 77.4846 15.6391 77.3791 15.6391H77.2484V18.5188C77.2484 19.9648 77.4377 20.7738 77.8471 21.1918C78.2343 21.5869 78.9093 21.6808 79.8746 21.6808C80.495 21.6808 81.4628 21.6119 82.2892 21.1535C83.0839 20.713 83.7684 19.8847 83.9032 18.3463L83.9436 17.8803H84.4071H85.4001H85.9685L85.9019 18.4484C85.8449 18.9353 85.7883 19.5514 85.7595 20.2021C85.7368 20.7187 85.7292 21.2612 85.7509 21.7864V21.7905L85.8014 23.382L85.8186 23.9102L85.2956 23.9066L73.7382 23.8296V23.8321C73.2182 23.8321 73.1076 23.8393 72.9527 23.8495C72.6876 23.8668 72.3044 23.8913 70.124 23.9072L69.6156 23.9107V23.3988V22.4224V21.9584L70.0761 21.9161L70.6349 21.8655C72.2666 21.7063 72.2666 21.154 72.2661 20.0347H72.2646V19.9832V9.60921V9.55816H72.2661C72.2666 8.43732 72.2666 7.88505 70.6349 7.72683L70.0761 7.67529L69.6156 7.63343V7.16896V6.19409V5.68113L70.124 5.68521C72.3064 5.70103 72.7088 5.72605 72.9845 5.74341C73.141 5.75361 73.2515 5.76076 73.7382 5.76076V5.7628L84.2268 5.68521L84.716 5.68113L84.7327 6.17777L84.7428 6.49881C84.8104 8.57105 84.8377 9.41269 84.9361 10.7015L84.9775 11.2502H84.4318H83.3373H82.886L82.8345 10.7949C82.681 9.42546 82.0156 8.72467 81.2064 8.36739C80.339 7.98509 79.2682 7.96264 78.4479 7.96264H77.8885C77.2458 7.96264 77.2458 8.00603 77.2463 8.70784V8.78695H77.2479L77.2484 13.4388ZM97.1513 21.8655L97.7092 21.9161L98.1701 21.9584V22.4224V23.3988V23.9097H97.6638C97.0908 23.9097 96.5168 23.9097 95.8857 23.8821C95.5717 23.8684 95.2541 23.8551 94.9638 23.8469C94.6902 23.8377 94.3914 23.8326 94.0481 23.8326H92.0115C91.6682 23.8326 91.3694 23.8377 91.0957 23.8469C90.8055 23.8551 90.4874 23.8684 90.1739 23.8821C89.8856 23.8949 89.5847 23.9005 89.2778 23.9041C88.8012 23.9097 88.5983 23.9097 88.3953 23.9097H87.8895V23.3988V22.4224V21.9584L88.3499 21.9161L88.9082 21.8655C90.5399 21.7063 90.5399 21.154 90.5399 20.0342H90.5379V19.9832V9.60921V9.55816H90.5399C90.5399 8.43732 90.5399 7.88505 88.9082 7.72683L88.3499 7.67529L87.8895 7.63343V7.16896V6.19409V5.68317H88.3953C88.9678 5.68317 89.5408 5.68369 90.1724 5.71074C90.4864 5.7235 90.8049 5.73678 91.0957 5.74647C91.3694 5.75464 91.6682 5.76024 92.0115 5.76024H105.456C105.798 5.76024 106.098 5.75464 106.371 5.74647C106.663 5.73678 106.98 5.7235 107.295 5.71074C107.583 5.69798 107.883 5.69134 108.189 5.68777C108.666 5.68368 108.868 5.68317 109.071 5.68317H109.577V6.19409V7.16896V7.63343L109.117 7.67529L108.558 7.72683C106.927 7.88505 106.927 8.43733 106.927 9.55715H106.929V9.60921V19.9832V20.0347H106.927C106.927 21.154 106.927 21.7063 108.558 21.8655L109.117 21.9161L109.577 21.9584V22.4224V23.3988V23.9097H109.071C108.498 23.9097 107.924 23.9097 107.293 23.8821C106.98 23.8684 106.662 23.8551 106.371 23.8469C106.098 23.8377 105.799 23.8326 105.456 23.8326H103.419C103.075 23.8326 102.776 23.8377 102.503 23.8469C102.212 23.8551 101.895 23.8684 101.581 23.8821C101.293 23.8949 100.992 23.9005 100.685 23.9041C100.209 23.9097 100.006 23.9097 99.8023 23.9097H99.2964V23.3988V22.4224V21.9584L99.7574 21.9161L100.316 21.8655C101.947 21.7063 101.947 21.154 101.947 20.0347H101.945V19.9832V8.99212C101.945 8.04941 101.664 8.05401 101.258 8.06064C101.133 8.06166 101.099 8.06421 101.051 8.06421H96.4168C96.3683 8.06421 96.3355 8.06166 96.2098 8.06064C95.8034 8.0535 95.5222 8.04889 95.5222 8.99212V19.9832V20.0347H95.5202C95.5197 21.154 95.5197 21.7063 97.1513 21.8655ZM118.905 19.9832L118.9 20.2889C118.885 21.0841 118.874 21.693 120.785 21.863L120.787 21.8655L121.347 21.9161L121.808 21.9584V22.4224V23.3988V23.9097H121.302C120.681 23.9097 120.084 23.9097 119.397 23.8821C119.061 23.8684 118.725 23.8561 118.411 23.8469C118.12 23.8377 117.803 23.8326 117.431 23.8326H115.395C115.052 23.8326 114.752 23.8377 114.479 23.8469C114.187 23.8551 113.87 23.8684 113.556 23.8821C113.267 23.8949 112.967 23.9005 112.661 23.9041C112.184 23.9097 111.981 23.9097 111.779 23.9097H111.272V23.3988V22.4224V21.9584L111.733 21.9161L112.292 21.8655C113.923 21.7063 113.923 21.154 113.923 20.0347H113.921V19.9832V9.60921V9.55816H113.923C113.923 8.43732 113.923 7.88505 112.292 7.72683L111.733 7.67529L111.272 7.63343V7.16896V6.19409V5.6796L111.783 5.68471C112.919 5.69747 113.711 5.72095 114.344 5.73932C115.045 5.75974 115.547 5.77504 116.07 5.76228H116.074L120.709 5.68471H120.71C120.872 5.68267 120.932 5.68063 120.94 5.68063C123.47 5.68063 125.134 6.33956 126.179 7.2685C127.26 8.2301 127.671 9.47139 127.687 10.5912C127.689 10.6994 127.69 10.5974 127.69 10.6612C127.69 11.4344 127.525 12.7829 126.43 13.9466C125.374 15.0664 123.454 15.9995 119.979 15.9995H118.906V19.9832H118.905ZM118.905 13.8149C118.99 13.8205 119.076 13.8231 119.163 13.8231C119.917 13.8231 120.913 13.6735 121.584 13.0335C122.05 12.5905 122.374 11.8861 122.374 10.7893C122.374 10.3345 122.326 9.58062 121.944 8.96813C121.574 8.37402 120.858 7.88507 119.493 7.88507C119.129 7.88507 118.939 7.89067 118.905 7.91926C118.905 7.91977 118.905 8.04635 118.905 8.29951V13.8149H118.905ZM138.921 24.1915C136.207 24.1915 133.638 23.1921 131.784 21.4526C130.032 19.8081 128.918 17.5087 128.918 14.7709C128.918 12.0255 130.024 9.70772 131.838 8.06064C133.692 6.3758 136.282 5.40042 139.176 5.40042C142.222 5.40042 144.672 6.42837 146.405 8.05145C148.304 9.8297 149.333 12.3174 149.333 14.9511C149.333 17.7323 148.177 19.9556 146.393 21.5292C144.427 23.2615 141.696 24.1915 138.921 24.1915ZM139.074 7.6023C138.186 7.6023 136.714 7.87588 135.686 9.3877C134.973 10.435 134.462 12.0744 134.462 14.6173C134.462 17.2949 134.971 19.0267 135.69 20.1332C136.691 21.6757 138.119 21.9896 139.074 21.9896C140.287 21.9896 141.454 21.6333 142.309 20.5992C143.204 19.5146 143.788 17.6833 143.788 14.7449C143.788 11.4941 142.985 9.69903 141.984 8.72416C141.018 7.78502 139.85 7.6023 139.074 7.6023ZM167.388 28.7626H167.894V28.2527V22.0891V21.5787H167.388H165.809C165.566 21.5787 165.438 21.5659 165.405 21.5302C165.362 21.4812 165.348 21.3189 165.348 21.0361V9.60921V9.55715H165.347C165.346 8.43733 165.346 7.88505 166.977 7.72683L167.536 7.67529L167.997 7.63343V7.16896V6.19409V5.68317H167.491C166.918 5.68317 166.346 5.68318 165.714 5.71074C165.4 5.7235 165.081 5.73678 164.79 5.74647C164.516 5.75464 164.217 5.76024 163.875 5.76024H156.567C156.202 5.76024 155.923 5.75463 155.369 5.74289C154.752 5.72962 153.827 5.71125 152.297 5.68471L151.783 5.67654V6.19358V7.16845V7.6222L152.232 7.67477L152.662 7.72633C153.367 7.81259 153.856 8.00756 154.151 8.38577C154.465 8.78695 154.609 9.43209 154.609 10.4044C154.609 11.9627 154.449 13.3392 154.198 14.5407C153.947 15.7427 153.608 16.7702 153.251 17.6261H153.25C152.97 18.2851 152.578 19.0629 152.161 19.7555C151.811 20.3364 151.444 20.8575 151.116 21.1882V21.1913C150.929 21.3791 150.8 21.4781 150.673 21.5241C150.545 21.5705 150.365 21.5787 150.098 21.5787H149.207H148.701V22.0891V28.2527V28.7626H149.207H150.276H150.702L150.774 28.3375C151.538 23.8556 153.539 23.8556 155.388 23.8556V23.8571H155.42H161.404C162.477 23.8571 163.419 23.9505 164.141 24.5242C164.885 25.1163 165.462 26.2448 165.82 28.3369L165.893 28.7621H166.319H167.388V28.7626ZM160.363 8.17089V20.8054C160.363 21.2454 160.32 21.4562 160.245 21.5328C160.206 21.5731 160.073 21.5787 159.901 21.5787H153.868C154.099 21.2444 154.446 20.71 154.904 19.7744C155.348 18.8919 155.838 17.8109 156.25 16.3333C156.66 14.8638 156.991 13.0054 157.121 10.5611L157.248 8.25918H157.248C157.255 8.17649 157.266 8.08668 157.298 8.04993C157.343 7.99838 157.46 7.96214 157.711 7.96214H160.232C160.315 7.96214 160.351 7.93457 160.368 7.94784C160.372 7.95039 160.363 8.00246 160.363 8.17089ZM178.164 7.72683C178.148 7.72938 178.103 7.73347 178.021 7.74113C177.561 7.78808 177.064 7.83912 177.064 8.19641C177.064 8.31635 177.106 8.49601 177.168 8.68639C177.249 8.93751 177.359 9.18914 177.455 9.35706L180.278 14.3687L180.548 13.842C182.676 9.67097 183.13 8.78183 183.13 8.24846C183.13 8.23111 183.13 8.22091 183.13 8.21887C183.123 8.11321 183.072 7.99429 182.951 7.89834C182.78 7.76257 182.488 7.66762 182.021 7.66762V7.66916C181.931 7.66916 181.844 7.67221 181.76 7.67834L181.221 7.71561V7.16896V6.19409V5.64694L181.76 5.68471C182.182 5.71483 182.697 5.7429 183.194 5.75719C183.596 5.76995 184.001 5.77351 184.361 5.76228H184.362L187.494 5.68471L188.012 5.67194V6.19358V7.16845V7.63904L187.546 7.67733C186.354 7.77481 185.781 8.89821 183.975 12.4419C183.872 12.6466 183.764 12.8579 183.652 13.0774L183.651 13.0769L181.003 18.2876L180.724 18.8429C179.335 21.5991 177.99 24.269 174.851 24.269C174.027 24.269 173.391 24.0342 172.941 23.6693C172.395 23.2258 172.13 22.6021 172.13 21.9605C172.13 21.3158 172.386 20.7651 172.812 20.3711C173.233 19.9816 173.815 19.755 174.469 19.755C174.84 19.755 175.145 19.8494 175.396 19.9781C175.63 20.0975 175.807 20.2435 175.945 20.367C176.026 20.4308 176.102 20.4966 176.178 20.5625C176.34 20.7018 176.492 20.8335 176.557 20.8335C176.85 20.8335 177.186 20.2021 177.445 19.7142C177.468 19.6708 177.491 19.6279 177.513 19.5871L177.763 19.117L172.274 9.34634C171.991 8.84308 171.668 8.45926 171.302 8.18466C170.944 7.91568 170.54 7.74828 170.084 7.67172L169.661 7.60077V7.16896V6.19409V5.66021L170.188 5.68471C170.802 5.71381 171.604 5.74188 172.396 5.75719C173.038 5.76995 173.682 5.77351 174.231 5.76228H174.232L178.51 5.68471L179.024 5.67604V6.19358V7.16845V7.61913L178.579 7.67477L178.172 7.72633L178.164 7.72683ZM197.771 13.2581C199.53 13.2581 200.041 11.9423 200.723 10.1849L200.789 10.0134L200.791 10.0099C201.175 9.04879 201.632 7.93406 202.381 7.03473C203.17 6.0864 204.252 5.39939 205.843 5.39939C206.705 5.39939 207.338 5.63877 207.776 6.02055C208.309 6.48247 208.539 7.13017 208.539 7.81054C208.539 9.26314 207.387 9.93944 206.301 9.93944C205.821 9.93944 205.487 9.78887 205.214 9.66586L205.205 9.66229L205.173 9.64544C205.057 9.58317 204.944 9.51222 204.835 9.44332L204.834 9.44383C204.648 9.32746 204.478 9.22028 204.366 9.22028C203.866 9.22028 203.483 10.1855 203.18 10.947C203.129 11.0725 203.081 11.1945 203.051 11.2675C202.562 12.4552 202.129 13.207 201.73 13.7098C201.608 13.8634 201.488 13.9951 201.372 14.1069C202.032 14.3845 202.658 14.8072 203.293 15.4406C204.183 16.3287 205.09 17.6368 206.134 19.558L206.138 19.5677L206.152 19.5958C206.393 20.0587 206.901 21.0387 207.447 21.0387C207.553 21.0387 207.632 21.0035 207.698 20.9453C207.803 20.8524 207.902 20.6993 208.005 20.5211L208.235 20.1281L208.646 20.3149L209.613 20.7513L210.047 20.9468L209.881 21.3939C209.407 22.6689 208.635 23.3697 207.86 23.753C207.091 24.1328 206.337 24.1915 205.869 24.1915C202.312 24.1915 201.391 21.8482 200.701 20.0939L200.69 20.0674L199.697 17.5506C199.341 16.6482 198.992 16.1403 198.623 15.8678C198.29 15.6213 197.905 15.5626 197.467 15.5626H197.056V19.9827V20.0342H197.054C197.054 21.1535 197.054 21.7058 198.686 21.865L199.243 21.9156L199.704 21.9584V22.4214V23.3978V23.9087H199.198C198.626 23.9087 198.054 23.9087 197.421 23.8811C197.107 23.8673 196.789 23.8541 196.498 23.8459C196.224 23.8367 195.925 23.8316 195.582 23.8316H193.545C193.202 23.8316 192.903 23.8367 192.63 23.8459C192.338 23.8541 192.021 23.8673 191.707 23.8811C191.418 23.8939 191.117 23.8995 190.812 23.9031C190.335 23.9087 190.133 23.9087 189.93 23.9087H189.424V23.3978V22.4214V21.9574L189.884 21.915L190.442 21.8645C192.074 21.7053 192.074 21.1525 192.074 20.0332H192.072V19.9821V9.60921V9.55816H192.074C192.074 8.43732 192.074 7.88505 190.442 7.72683L189.884 7.67529L189.424 7.63343V7.16896V6.19409V5.68317H189.93C190.502 5.68317 191.075 5.68318 191.707 5.71074C192.021 5.7235 192.339 5.73678 192.63 5.74647C192.904 5.75464 193.202 5.76024 193.545 5.76024H195.582C195.926 5.76024 196.224 5.75464 196.498 5.74647C196.789 5.73678 197.107 5.7235 197.421 5.71074C197.71 5.69798 198.011 5.69134 198.316 5.68777C198.793 5.68317 198.996 5.68317 199.198 5.68317H199.704V6.19409V7.16896V7.63343L199.243 7.67529L198.686 7.72683C197.054 7.88505 197.054 8.43733 197.054 9.55715H197.056V9.60921V13.2586H197.771V13.2581ZM209.943 11.0623L209.904 11.609H210.447H211.491H211.911L211.988 11.1884L212.089 10.6254H212.09C212.232 9.85063 212.554 9.21467 213.144 8.78032C213.764 8.32401 214.697 8.06421 216.049 8.06421C216.364 8.06421 216.363 8.14638 216.361 8.36943C216.36 8.53327 216.358 8.35974 216.358 8.52971V19.9832V20.0342H216.36C216.36 21.154 216.36 21.7063 214.729 21.8655L214.17 21.9161L213.709 21.9584V22.4224V23.3988V23.9097H214.216C214.418 23.9097 214.62 23.9097 215.098 23.9041C215.403 23.9005 215.703 23.8949 215.993 23.8821C216.307 23.8684 216.624 23.8551 216.915 23.8469C217.189 23.8377 217.488 23.8326 217.831 23.8326H219.869C220.212 23.8326 220.511 23.8377 220.784 23.8469C221.075 23.8551 221.394 23.8684 221.708 23.8821C222.34 23.9097 222.912 23.9097 223.485 23.9097H223.991V23.3988V22.4224V21.9584L223.53 21.9161L222.972 21.8655C221.34 21.7063 221.34 21.154 221.34 20.0347H221.343V19.9832V8.52971C221.343 8.35005 221.341 8.53022 221.34 8.36893C221.337 8.14639 221.337 8.06421 221.651 8.06421C223.003 8.06421 223.936 8.32401 224.556 8.78032C225.146 9.21467 225.469 9.85063 225.611 10.6254H225.611L225.713 11.1884L225.788 11.609H226.209H227.253H227.795L227.757 11.0623C227.66 9.6827 227.632 8.76908 227.564 6.55903L227.553 6.17929L227.538 5.67756L227.043 5.68471L221.32 5.76228V5.76024H216.38V5.76228L210.657 5.68471L210.162 5.67756L210.147 6.17929L210.133 6.62079C210.067 8.78643 210.04 9.69495 209.943 11.0623ZM229.976 21.915L230.333 21.8895C230.964 21.8451 231.392 21.7716 231.616 21.5455C231.847 21.3128 231.948 20.8503 231.948 20.0097V9.58267C231.948 8.74203 231.847 8.2796 231.616 8.04686C231.391 7.82075 230.964 7.74571 230.333 7.70284L229.976 7.67834L229.503 7.64364V7.16896V6.19409V5.6694L230.023 5.68471C230.212 5.69033 230.349 5.69492 230.501 5.70003C231.288 5.72555 232.331 5.75974 233.09 5.75974H234.44H235.79C236.549 5.75974 237.592 5.72503 238.379 5.70003C238.531 5.69492 238.668 5.69033 238.857 5.68471L239.377 5.6694V6.19409V7.16896V7.64415L238.906 7.67834L238.55 7.70284H238.547C237.915 7.74571 237.488 7.82075 237.264 8.04686C237.033 8.2796 236.932 8.74203 236.932 9.58267V12.8518C237.335 12.8344 237.732 12.8212 238.106 12.8212C239.342 12.8212 241.342 12.8896 243.066 13.6026C244.875 14.3519 246.353 15.779 246.353 18.4938C246.353 20.9249 245.206 22.2897 243.711 23.0466C242.281 23.7709 240.554 23.9087 239.252 23.9087C238.675 23.9087 238.026 23.8913 237.313 23.8735C236.532 23.8536 235.665 23.8316 234.44 23.8316C233.638 23.8316 232.89 23.8367 232.216 23.8495C231.487 23.8612 230.751 23.8811 230.025 23.9061L229.503 23.925V23.3978V22.4214V21.9472L229.976 21.915ZM236.933 20.0097C236.933 20.4058 236.974 20.8345 237.175 21.1331C237.36 21.4087 237.72 21.6052 238.387 21.6052C238.848 21.6052 239.672 21.4669 240.241 20.761C240.63 20.2812 240.911 19.5299 240.911 18.3657C240.911 16.7064 240.357 15.8754 239.721 15.4615C239.08 15.045 238.326 15.0236 237.979 15.0236C237.633 15.0236 237.274 15.0236 236.932 15.0384L236.933 20.0097ZM246.599 21.915L246.127 21.9482V22.4224V23.3988V23.9265L246.651 23.9072C247.045 23.8924 247.768 23.8678 248.446 23.851C248.885 23.8403 249.338 23.8326 249.714 23.8326H252.413C252.789 23.8326 253.242 23.8403 253.681 23.851C254.359 23.8684 255.082 23.8924 255.476 23.9072L256.001 23.9265V23.3988V22.4224V21.9482L255.527 21.915L255.171 21.8895C254.537 21.8451 254.11 21.7716 253.888 21.5471V21.5455C253.657 21.3128 253.556 20.8503 253.556 20.0097V9.58267C253.556 8.74203 253.657 8.2796 253.888 8.04686C254.112 7.82075 254.539 7.74571 255.171 7.70284L255.527 7.67834L256.001 7.64364V7.16896V6.19409V5.6694L255.481 5.68471C255.3 5.69033 255.155 5.69492 255.003 5.70003C254.216 5.72555 253.172 5.75974 252.413 5.75974H251.063H249.714C248.955 5.75974 247.912 5.72503 247.125 5.70003C246.972 5.69492 246.83 5.69033 246.647 5.68471L246.127 5.6694V6.19409V7.16896V7.64415L246.597 7.67834L246.953 7.70284H246.956C247.587 7.74571 248.015 7.82126 248.239 8.04686C248.47 8.2796 248.571 8.74203 248.571 9.58267V20.0097C248.571 20.8503 248.47 21.3128 248.239 21.5455C248.015 21.7721 247.587 21.8456 246.956 21.8895L246.599 21.915Z" fill="#3A3A3A"/>
</svg>
