<svg width="20" height="20" viewBox="0 0 20 20" fill="none" xmlns="http://www.w3.org/2000/svg">
<rect x="2" y="2" width="16" height="16" rx="8" fill="white"/>
<rect x="1" y="1" width="18" height="18" rx="9" stroke="#25344F" stroke-opacity="0.1" stroke-width="2"/>
<path d="M12.7383 6.08105C12.6317 5.97298 12.4592 5.97298 12.3526 6.08105L9.99991 8.4674L7.64736 6.08105C7.54082 5.97298 7.36827 5.97298 7.26173 6.08105L6.07991 7.27976C5.97336 7.38783 5.97336 7.56284 6.07991 7.67091L8.37618 10L6.07991 12.3291C5.97336 12.4372 5.97336 12.6122 6.07991 12.7202L7.26173 13.9189C7.36827 14.027 7.54082 14.027 7.64736 13.9189L9.99991 11.5326L12.3526 13.9189C12.4592 14.027 12.6317 14.027 12.7383 13.9189L13.9201 12.7201C14.0266 12.612 14.0266 12.437 13.9201 12.3289L11.624 10L13.9201 7.67109C14.0266 7.56302 14.0266 7.38801 13.9201 7.27994L12.7383 6.08105Z" fill="#25344F" fill-opacity="0.4"/>
</svg>
