<svg width="44" height="44" viewBox="0 0 44 44" fill="none" xmlns="http://www.w3.org/2000/svg">
<path d="M35.75 5.5H8.25C6.73131 5.5 5.5 6.73131 5.5 8.25V38.5H38.5V8.25C38.5 6.73131 37.2687 5.5 35.75 5.5ZM15.125 8.25C15.8847 8.25 16.5 8.86531 16.5 9.625C16.5 10.3847 15.8847 11 15.125 11C14.3653 11 13.75 10.3847 13.75 9.625C13.75 8.86531 14.3653 8.25 15.125 8.25ZM8.25 9.625C8.25 8.86531 8.86531 8.25 9.625 8.25C10.3847 8.25 11 8.86531 11 9.625C11 10.3847 10.3847 11 9.625 11C8.86531 11 8.25 10.3847 8.25 9.625ZM21.3125 33.6875H9.625V30.25H21.3125V33.6875ZM21.3125 25.4375H9.625V17.875H21.3125V25.4375ZM34.375 33.6875H26.125V17.875H34.375V33.6875ZM33.6875 11H21.3125C20.5528 11 19.9375 10.3847 19.9375 9.625C19.9375 8.86531 20.5528 8.25 21.3125 8.25H33.6875C34.4472 8.25 35.0625 8.86531 35.0625 9.625C35.0625 10.3847 34.4472 11 33.6875 11Z" fill="#AB3541"/>
</svg>
