<svg width="26" height="26" viewBox="0 0 26 26" fill="none" xmlns="http://www.w3.org/2000/svg">
<path d="M8.90894 1.61969C8.72767 1.62376 8.55297 1.68834 8.41264 1.80314C8.27231 1.91795 8.1744 2.07639 8.13451 2.25326C8.09461 2.43013 8.11501 2.61526 8.19246 2.77919C8.26991 2.94313 8.39997 3.07645 8.56193 3.15794C8.55826 3.15777 8.55686 3.16137 8.57357 3.18228C8.60997 3.22775 8.66667 3.29512 8.66667 3.52082C8.66667 3.56596 8.57357 3.7578 8.30273 4.09634C8.0319 4.43488 7.58333 4.92012 7.58333 5.68748C7.58333 6.49998 8.0922 7.07445 8.36304 7.34528C8.43791 7.42326 8.52758 7.48551 8.62681 7.5284C8.72604 7.57128 8.83283 7.59394 8.94092 7.59504C9.04902 7.59614 9.15624 7.57566 9.25632 7.5348C9.3564 7.49394 9.44733 7.43352 9.52376 7.35708C9.6002 7.28064 9.66062 7.18972 9.70148 7.08964C9.74234 6.98956 9.76282 6.88233 9.76172 6.77424C9.76062 6.66614 9.73797 6.55936 9.69508 6.46013C9.65219 6.3609 9.58994 6.27122 9.51196 6.19636C9.24113 5.92552 9.20833 5.95832 9.20833 5.68748C9.20833 5.64235 9.30143 5.45051 9.57227 5.11196C9.8431 4.77342 10.2917 4.28818 10.2917 3.52082C10.2917 2.93401 10.0776 2.45972 9.8431 2.16665C9.60865 1.87358 9.30037 1.71068 9.30037 1.71068C9.17957 1.64805 9.04497 1.61677 8.90894 1.61969ZM12.9714 1.61969C12.7902 1.62376 12.6155 1.68834 12.4751 1.80314C12.3348 1.91795 12.2369 2.07639 12.197 2.25326C12.1571 2.43013 12.1775 2.61526 12.255 2.77919C12.3324 2.94313 12.4625 3.07645 12.6244 3.15794C12.6208 3.15777 12.6194 3.16137 12.6361 3.18228C12.6725 3.22775 12.7292 3.29512 12.7292 3.52082C12.7292 3.56596 12.6361 3.7578 12.3652 4.09634C12.0944 4.43488 11.6458 4.92012 11.6458 5.68748C11.6458 6.49998 12.1547 7.07445 12.4255 7.34528C12.5004 7.42326 12.5901 7.48551 12.6893 7.5284C12.7885 7.57128 12.8953 7.59394 13.0034 7.59504C13.1115 7.59614 13.2187 7.57566 13.3188 7.5348C13.4189 7.49394 13.5098 7.43352 13.5863 7.35708C13.6627 7.28064 13.7231 7.18972 13.764 7.08964C13.8048 6.98956 13.8253 6.88233 13.8242 6.77424C13.8231 6.66614 13.8005 6.55936 13.7576 6.46013C13.7147 6.3609 13.6524 6.27122 13.5745 6.19636C13.3036 5.92552 13.2708 5.95832 13.2708 5.68748C13.2708 5.64235 13.3639 5.45051 13.6348 5.11196C13.9056 4.77342 14.3542 4.28818 14.3542 3.52082C14.3542 2.93401 14.1401 2.45972 13.9056 2.16665C13.6711 1.87358 13.3629 1.71068 13.3629 1.71068C13.2421 1.64805 13.1075 1.61677 12.9714 1.61969ZM17.0339 1.61969C16.8527 1.62376 16.678 1.68834 16.5376 1.80314C16.3973 1.91795 16.2994 2.07639 16.2595 2.25326C16.2196 2.43013 16.24 2.61526 16.3175 2.77919C16.3949 2.94313 16.525 3.07645 16.6869 3.15794C16.6833 3.15777 16.6819 3.16137 16.6986 3.18228C16.735 3.22775 16.7917 3.29512 16.7917 3.52082C16.7917 3.56596 16.6986 3.7578 16.4277 4.09634C16.1569 4.43488 15.7083 4.92012 15.7083 5.68748C15.7083 6.49998 16.2172 7.07445 16.488 7.34528C16.5629 7.42326 16.6526 7.48551 16.7518 7.5284C16.851 7.57128 16.9578 7.59394 17.0659 7.59504C17.174 7.59614 17.2812 7.57566 17.3813 7.5348C17.4814 7.49394 17.5723 7.43352 17.6488 7.35708C17.7252 7.28064 17.7856 7.18972 17.8265 7.08964C17.8673 6.98956 17.8878 6.88233 17.8867 6.77424C17.8856 6.66614 17.863 6.55936 17.8201 6.46013C17.7772 6.3609 17.7149 6.27122 17.637 6.19636C17.3661 5.92552 17.3333 5.95832 17.3333 5.68748C17.3333 5.64235 17.4264 5.45051 17.6973 5.11196C17.9681 4.77342 18.4167 4.28818 18.4167 3.52082C18.4167 2.93401 18.2026 2.45972 17.9681 2.16665C17.7336 1.87358 17.4254 1.71068 17.4254 1.71068C17.3046 1.64805 17.17 1.61677 17.0339 1.61969ZM4.60417 8.12498C3.86555 8.12498 3.25 8.74054 3.25 9.47915V9.74998C3.25 12.4376 4.37116 14.663 6.1604 16.1527C6.5657 16.4901 7.00696 16.7854 7.47225 17.0487L5.45052 23.8735C5.41589 23.977 5.40246 24.0864 5.41101 24.1951C5.41957 24.3039 5.44994 24.4098 5.50032 24.5066C5.55069 24.6034 5.62004 24.689 5.70423 24.7584C5.78841 24.8278 5.88571 24.8795 5.99032 24.9105C6.09493 24.9415 6.20471 24.9511 6.31311 24.9388C6.42151 24.9264 6.52631 24.8924 6.62127 24.8386C6.71622 24.7849 6.79939 24.7126 6.8658 24.626C6.93221 24.5395 6.98051 24.4404 7.00781 24.3348L7.7981 21.6667H18.3119L18.4389 22.0623C18.1882 22.279 18.0098 22.5671 17.9275 22.888C17.8452 23.2089 17.863 23.5474 17.9785 23.8579C18.0939 24.1684 18.3015 24.4363 18.5735 24.6255C18.8454 24.8147 19.1687 24.9163 19.5 24.9167C19.8827 24.9164 20.2529 24.7811 20.5456 24.5346C20.8383 24.2881 21.0346 23.9463 21.1 23.5692C21.1654 23.1922 21.0956 22.8042 20.903 22.4736C20.7103 22.143 20.4072 21.8909 20.047 21.7619L18.5373 17.0424C18.9988 16.7804 19.4372 16.4877 19.8396 16.1527C21.6288 14.663 22.75 12.4376 22.75 9.74998V9.47915C22.75 8.74054 22.1344 8.12498 21.3958 8.12498H4.60417ZM4.875 9.74998H21.125C21.125 11.9986 20.2451 13.6998 18.7996 14.9032C17.3542 16.1066 15.308 16.7917 13 16.7917C10.692 16.7917 8.64582 16.1066 7.20036 14.9032C5.7549 13.6998 4.875 11.9986 4.875 9.74998ZM17.0498 17.7248L17.7914 20.0417H8.27946L8.96501 17.73C10.2046 18.1794 11.5694 18.4167 13 18.4167C14.4363 18.4167 15.8063 18.1776 17.0498 17.7248Z" fill="#04A3E9"/>
</svg>
