<svg width="16" height="14" viewBox="0 0 16 14" fill="none" xmlns="http://www.w3.org/2000/svg">
<path d="M4.69935 0.766663C2.47824 0.766663 0.666016 2.57889 0.666016 4.8C0.666016 6.30192 1.79815 7.71606 3.17825 9.16634C4.55836 10.6166 6.25709 12.0855 7.61048 13.4389C7.71363 13.542 7.8535 13.5999 7.99935 13.5999C8.14519 13.5999 8.28507 13.542 8.38822 13.4389C9.74161 12.0855 11.4403 10.6166 12.8204 9.16634C14.2005 7.71606 15.3327 6.30192 15.3327 4.8C15.3327 2.57889 13.5205 0.766663 11.2993 0.766663C10.0247 0.766663 8.91485 1.45104 7.99935 2.6136C7.08385 1.45104 5.97404 0.766663 4.69935 0.766663ZM4.69935 1.86666C5.77316 1.86666 6.66699 2.43808 7.53457 3.81028C7.58418 3.88866 7.65281 3.95323 7.73407 3.99796C7.81533 4.0427 7.90659 4.06616 7.99935 4.06616C8.09211 4.06616 8.18337 4.0427 8.26463 3.99796C8.34589 3.95323 8.41452 3.88866 8.46413 3.81028C9.33171 2.43808 10.2255 1.86666 11.2993 1.86666C12.926 1.86666 14.2327 3.1733 14.2327 4.8C14.2327 5.68141 13.3482 7.01727 12.0241 8.40866C10.8167 9.67747 9.3158 11.0031 7.99935 12.2866C6.6829 11.0031 5.18203 9.67747 3.97461 8.40866C2.65055 7.01727 1.76602 5.68141 1.76602 4.8C1.76602 3.1733 3.07265 1.86666 4.69935 1.86666Z" fill="#35373D"/>
</svg>
