<svg width="28" height="28" viewBox="0 0 28 28" fill="none" xmlns="http://www.w3.org/2000/svg">
<path fill-rule="evenodd" clip-rule="evenodd" d="M13.5006 4.92495C16.0951 4.92495 18.1705 6.98729 18.1705 9.49718C18.1705 12.0071 16.0951 14.0694 13.5006 14.0694C10.9062 14.0694 8.83081 12.0071 8.83081 9.49718C8.83081 6.98729 10.9062 4.92495 13.5006 4.92495ZM20.0205 9.49718C20.0205 5.935 17.086 3.07495 13.5006 3.07495C9.91526 3.07495 6.98081 5.935 6.98081 9.49718C6.98081 13.0594 9.91526 15.9194 13.5006 15.9194C17.086 15.9194 20.0205 13.0594 20.0205 9.49718ZM13.5006 19.8169C18.1728 19.8169 22.1846 22.1387 24.2096 25.4794C24.4744 25.9163 25.0432 26.0558 25.4801 25.791C25.917 25.5262 26.0565 24.9573 25.7917 24.5205C23.4081 20.5881 18.7735 17.9669 13.5006 17.9669C8.22778 17.9669 3.59318 20.5881 1.20961 24.5205C0.944805 24.9573 1.08429 25.5262 1.52116 25.791C1.95804 26.0558 2.52686 25.9163 2.79167 25.4794C4.81665 22.1387 8.82844 19.8169 13.5006 19.8169Z" fill="#04A3E9"/>
</svg>
