<svg width="60" height="60" viewBox="0 0 60 60" fill="none" xmlns="http://www.w3.org/2000/svg">
<circle opacity="0.15" cx="30" cy="30" r="30" fill="#04A3E9"/>
<g clip-path="url(#clip0_156_8738)">
<path fill-rule="evenodd" clip-rule="evenodd" d="M29.5006 20.925C32.0951 20.925 34.1705 22.9873 34.1705 25.4972C34.1705 28.0071 32.0951 30.0694 29.5006 30.0694C26.9062 30.0694 24.8308 28.0071 24.8308 25.4972C24.8308 22.9873 26.9062 20.925 29.5006 20.925ZM36.0205 25.4972C36.0205 21.935 33.086 19.075 29.5006 19.075C25.9153 19.075 22.9808 21.935 22.9808 25.4972C22.9808 29.0594 25.9153 31.9194 29.5006 31.9194C33.086 31.9194 36.0205 29.0594 36.0205 25.4972ZM29.5006 35.8169C34.1728 35.8169 38.1846 38.1387 40.2096 41.4794C40.4744 41.9163 41.0432 42.0558 41.4801 41.791C41.917 41.5262 42.0565 40.9573 41.7917 40.5205C39.4081 36.5881 34.7735 33.9669 29.5006 33.9669C24.2278 33.9669 19.5932 36.5881 17.2096 40.5205C16.9448 40.9573 17.0843 41.5262 17.5212 41.791C17.958 42.0558 18.5269 41.9163 18.7917 41.4794C20.8167 38.1387 24.8284 35.8169 29.5006 35.8169Z" fill="#04A3E9"/>
</g>
<defs>
<clipPath id="clip0_156_8738">
<rect width="28" height="28" fill="white" transform="translate(16 16)"/>
</clipPath>
</defs>
</svg>
