<svg width="18" height="18" viewBox="0 0 18 18" fill="none" xmlns="http://www.w3.org/2000/svg">
<path d="M2.25 1.5V13.875C2.25 15.3225 3.2595 16.5 4.5 16.5H14.25C15.4905 16.5 16.5 15.3225 16.5 13.875C16.5 12.4275 15.4905 11.25 14.25 11.25V1.5H12C12 1.914 11.664 2.25 11.25 2.25C10.836 2.25 10.5 1.914 10.5 1.5H9C9 1.914 8.664 2.25 8.25 2.25C7.836 2.25 7.5 1.914 7.5 1.5H6C6 1.914 5.664 2.25 5.25 2.25C4.836 2.25 4.5 1.914 4.5 1.5H2.25ZM4.5 4.5H12V6H4.5V4.5ZM4.5 7.5H9.75V9H4.5V7.5ZM4.5 12.75C4.899 12.75 5.25 13.2758 5.25 13.875C5.25 14.4743 4.899 15 4.5 15C4.101 15 3.75 14.4743 3.75 13.875C3.75 13.2758 4.101 12.75 4.5 12.75ZM6.52441 12.75H14.25C14.649 12.75 15 13.2758 15 13.875C15 14.4743 14.649 15 14.25 15H6.52441C6.66483 14.6577 6.75 14.2791 6.75 13.875C6.75 13.4708 6.66466 13.092 6.52441 12.75Z" fill="#E7D5B3"/>
</svg>
