<svg width="40" height="15" viewBox="0 0 40 15" fill="none" xmlns="http://www.w3.org/2000/svg">
<path fill-rule="evenodd" clip-rule="evenodd" d="M12.0249 14.9342C11.8947 14.854 11.8154 14.7128 11.8154 14.5604V14.0613C9.84631 13.7607 8.70834 12.6298 7.90197 11.2917C7.06547 9.90352 5.95241 8.56623 4.38483 8.04452C3.6572 7.80236 2.63785 7.64207 0 7.49999C2.63785 7.3579 3.6572 7.19762 4.38483 6.95546C5.95242 6.43377 7.06548 5.09648 7.90197 3.70833C8.70835 2.37017 9.84632 1.23931 11.8154 0.938669V0.439575C11.8154 0.287234 11.8947 0.146026 12.0249 0.0657827C12.1552 -0.0144603 12.3177 -0.0217556 12.4545 0.0464465L15.1039 1.36479C15.4032 1.51414 15.4032 2.00163 15.1039 2.15098L12.4545 3.46932C12.3178 3.53756 12.1552 3.53026 12.025 3.45002C11.8947 3.36978 11.8154 3.22857 11.8154 3.07622V2.73463C10.1888 3.25262 9.44784 5.11452 9.1365 6.62168L34.8645 6.62124C35.2406 5.57026 36.2397 4.86331 37.3506 4.86331C38.8115 4.86331 40 6.04606 40 7.50002C40 8.95397 38.8115 10.1367 37.3505 10.1367C36.2397 10.1367 35.2406 9.42974 34.8645 8.37876L9.1365 8.37832C9.44784 9.88548 10.1888 11.7474 11.8154 12.2654V11.9238C11.8154 11.7714 11.8947 11.6302 12.025 11.55C12.1552 11.4697 12.3178 11.4624 12.4545 11.5307L15.1039 12.849C15.4032 12.9984 15.4032 13.4859 15.1039 13.6352L12.4545 14.9536C12.3177 15.0218 12.1552 15.0145 12.0249 14.9342ZM38.6752 7.49999C38.6752 8.22695 38.081 8.81832 37.3505 8.81832C36.62 8.81832 36.0258 8.22695 36.0258 7.49999C36.0258 6.77302 36.62 6.18168 37.3505 6.18168C38.081 6.18168 38.6752 6.77302 38.6752 7.49999Z" fill="#AB3541"/>
</svg>
