<svg width="273" height="186" viewBox="0 0 273 186" fill="none" xmlns="http://www.w3.org/2000/svg">
<path opacity="0.1" fill-rule="evenodd" clip-rule="evenodd" d="M271.71 -85C268.473 -85 255.84 -73.7342 240.045 -56.758C219.835 -35.0377 211.234 -28.7385 199.999 -27.4319C189.69 -26.2318 183.445 -28.8192 162.704 -42.8805C142.787 -56.3821 134.525 -59.1389 125.229 -55.382C121.817 -54.0028 116.884 -50.6863 114.267 -48.0118C103.946 -37.4638 99.8846 -23.5653 96.3228 13.3874C95.0829 26.2583 93.0028 42.1069 91.7024 48.6061C84.823 82.9714 70.7132 109.118 52.0016 122.178C44.3982 127.485 39.4303 129.046 18.8315 132.598C13.5767 133.505 7.9999 135.408 6.43926 136.828C-0.0810923 142.757 -2.01246 159.784 2.32787 173.066C6.63564 186.248 6.17431 186 26.3652 186C41.4523 186 44.2192 185.632 43.6847 183.695C38.9736 166.657 44.6178 154.502 59.1588 150.363C83.36 143.477 89.24 139.675 101.14 123.218C108.053 113.657 111.021 108 114.746 97.2796C121.161 78.8177 123.024 67.0857 124.149 38.0645C124.993 16.2394 125.443 12.5518 128.219 4.67509C132.673 -7.96188 137.335 -11.6446 148.659 -11.4704C158.417 -11.322 164.602 -8.16028 177.82 3.42495C191.832 15.7103 198.164 18.9461 208.051 18.8752C215.769 18.8203 218.03 18.0638 225.838 12.9164C230.757 9.67248 240.491 1.52797 247.469 -5.18573C254.446 -11.8978 263.046 -19.2261 266.578 -21.4715L273 -25.5527L273 -55.2755C273 -75.9812 272.608 -85 271.71 -85ZM269.934 27.1116C261.432 19.3785 251.736 23.6225 237.192 41.4407C226.631 54.3794 220.128 58.775 210.014 59.8058C198.814 60.9495 192.214 57.4523 178.581 43.1522C164.959 28.8635 159.951 26.4212 152.438 30.4023C142.396 35.7271 137.371 53.2744 138.578 78.7935C140.505 119.508 129.108 145.669 105.098 155.653C88.3267 162.626 82.421 169.248 82.421 181.08L82.421 186L95.1259 186C106.833 186 107.888 185.745 108.571 182.756C109.541 178.515 114.716 174.902 121.621 173.645C131.846 171.783 137.323 166.105 147.288 147.037C154.291 133.634 158.148 130.348 166.877 130.348C172.338 130.348 174.838 131.155 177.335 133.723C182.351 138.881 185.845 147.039 185.84 153.573C185.833 163.957 181.53 170.764 167.833 182.064L163.185 185.9L179.502 185.95L195.819 186L199.07 176.724C207.772 151.901 229.158 113.944 257.147 73.6526L273 50.8322L273 40.3664C273 30.8363 272.726 29.6506 269.934 27.1116ZM269.355 88.5092C263.426 96.2149 252.964 116.592 247.633 130.814C242.908 143.419 234.677 172.053 233.045 181.564L232.283 186L244.422 186L256.56 186L260.224 177.11C262.24 172.221 265.939 164.62 268.445 160.219L273 152.22L273 117.995L273 83.7715L269.355 88.5092ZM217.854 86.7219C214.24 81.7035 208.918 81.5551 199.022 86.196C189.518 90.6514 186.452 89.0205 179.239 75.6754C169.239 57.1764 164.727 54.66 157.451 63.5272C152.217 69.907 151.155 77.0223 153.907 87.2671C156.445 96.7166 166.105 110.184 172.481 113.162C175.038 114.356 180.178 117.485 183.903 120.118C192.581 126.249 195.523 125.407 204.192 114.306C207.843 109.629 212.66 104.511 214.897 102.93C221.615 98.1829 222.523 93.2017 217.854 86.7219Z" fill="white"/>
</svg>
