<svg width="60" height="60" viewBox="0 0 60 60" fill="none" xmlns="http://www.w3.org/2000/svg">
<g clip-path="url(#clip0_153_3326)">
<path d="M20.1484 29.2676V55.6194C20.1484 56.4489 20.8209 57.1212 21.6502 57.1212H33.8389L42.6024 51.8346L47.327 57.1212H58.3438C59.1733 57.1212 59.8456 56.4487 59.8456 55.6194V29.8535C59.8456 29.6981 59.7839 29.5491 59.674 29.4392C59.5641 29.3293 59.415 29.2676 59.2596 29.2676H47.327L39.9971 33.3953L33.839 29.2676H20.1484Z" fill="#F6874D"/>
<path d="M33.8398 29.2676H47.3279V57.1212H33.8398V29.2676Z" fill="#F6874D"/>
<path d="M53.4451 22.6684L50.7511 24.0847C50.205 24.3718 49.5667 23.9081 49.671 23.3L50.1856 20.3003C50.206 20.1813 50.1971 20.0592 50.1598 19.9444C50.1225 19.8296 50.0579 19.7257 49.9715 19.6414L47.792 17.5169C47.3502 17.0863 47.594 16.3359 48.2045 16.2472L51.2165 15.8095C51.3359 15.7922 51.4493 15.746 51.547 15.6751C51.6446 15.6041 51.7236 15.5105 51.777 15.4023L53.1239 12.673C53.397 12.1197 54.1859 12.1197 54.4591 12.673L55.806 15.4023C55.8594 15.5105 55.9384 15.6041 56.036 15.6751C56.1336 15.746 56.2471 15.7922 56.3665 15.8095L57.6516 15.9963L59.0269 16.3644C59.6375 16.4531 59.8813 17.2035 59.4395 17.6341L57.3773 19.5242C57.2908 19.6085 57.2262 19.7125 57.1889 19.8272C57.1516 19.942 57.1428 20.0641 57.1632 20.1831L57.5604 22.8313C57.6647 23.4394 57.0264 23.9031 56.4803 23.616L55.2229 23.2387L54.138 22.6683C54.0311 22.6121 53.9122 22.5828 53.7915 22.5829C53.6708 22.5829 53.552 22.6122 53.4451 22.6684Z" fill="#F6874D"/>
<path d="M45.8413 10.3333L34.9083 21.2663L28.8456 24.314L25.3708 30.8038L13.6092 42.5656C13.0226 43.1521 12.0718 43.1521 11.4854 42.5656L6.52974 37.61C5.94321 37.0234 5.94321 36.0726 6.52974 35.4862L18.2914 23.7244L24.8419 20.3103L27.8289 14.1869L38.7619 3.25386C39.3484 2.66733 40.2993 2.66733 40.8857 3.25386L45.8413 8.20948C46.4279 8.79589 46.4279 9.74675 45.8413 10.3333Z" fill="#F6874D"/>
<path d="M16.2852 25.72L25.8225 16.1823L32.9065 23.2661L23.3692 32.8037L16.2852 25.72Z" fill="#F6874D"/>
<path d="M21.8219 14.5708L25.0206 9.56819M9.67158 24.9172L14.851 21.6056M45.3267 58.8868V31.4172M31.8386 31.4172V58.8868M32.7128 23.0719L26.0251 16.3843M16.5233 25.9573L23.1723 32.6064M24.1843 17.3995L18.8758 12.091C17.8278 11.043 16.1287 11.043 15.0807 12.091L12.1943 14.9774C11.1463 16.0255 11.1463 17.7246 12.1943 18.7726L17.4803 24.0585M30.2152 11.7727C31.4843 10.2541 30.9951 7.89991 29.1572 7.03963L27.549 6.28694C27.533 6.27947 27.5191 6.26827 27.5083 6.25426C27.4976 6.24026 27.4904 6.22387 27.4874 6.20649C27.4843 6.18911 27.4855 6.17125 27.4908 6.15443C27.4961 6.13761 27.5055 6.12232 27.5179 6.10987C28.7144 4.91338 28.7144 2.97358 27.5179 1.77721C25.9586 0.217914 23.3123 0.767055 22.5022 2.81795L18.966 11.7703M11.9154 30.0785C10.3984 31.3891 8.0108 30.9076 7.14314 29.0537L6.39045 27.4455C6.38298 27.4295 6.37177 27.4156 6.35777 27.4048C6.34377 27.3941 6.32738 27.3869 6.31 27.3838C6.29262 27.3808 6.27476 27.382 6.25794 27.3873C6.24112 27.3926 6.22583 27.4019 6.21338 27.4144C5.01689 28.6109 3.07709 28.6109 1.88072 27.4144C0.321423 25.8551 0.870563 23.2088 2.92158 22.3987L11.9884 18.8172M18.1481 38.2236V46.828M48.3159 31.2676H25.1086M18.1481 50.6583V57.6194C18.1481 58.4488 18.8205 59.1212 19.6499 59.1212H57.5154C58.3448 59.1212 59.0171 58.4487 59.0171 57.6194V31.8535C59.0171 31.6981 58.9554 31.5491 58.8455 31.4392C58.7356 31.3293 58.5866 31.2676 58.4312 31.2676H52.1463M37.3439 18.8295L11.608 44.5655C11.0215 45.1521 10.0706 45.1521 9.4842 44.5655L4.52857 39.6099C3.94205 39.0234 3.94205 38.0725 4.52857 37.4861L37.5895 4.42518C38.176 3.83866 39.1269 3.83866 39.7133 4.42518L44.6689 9.38081C45.2554 9.96733 45.2554 10.9182 44.6689 11.5046L40.0524 16.1211M52.4456 24.6684L49.7516 26.0847C49.2055 26.3718 48.5672 25.9081 48.6715 25.3L49.1859 22.3003C49.2063 22.1813 49.1975 22.0592 49.1602 21.9444C49.1229 21.8296 49.0582 21.7257 48.9718 21.6414L46.7924 19.5169C46.3506 19.0863 46.5943 18.3359 47.2049 18.2472L50.2168 17.8095C50.3363 17.7921 50.4497 17.746 50.5473 17.6751C50.645 17.6041 50.7239 17.5105 50.7773 17.4023L52.1243 14.673C52.3973 14.1198 53.1862 14.1198 53.4594 14.673L54.8063 17.4023C54.8598 17.5105 54.9387 17.6041 55.0363 17.6751C55.134 17.746 55.2474 17.7922 55.3669 17.8095L58.3788 18.2472C58.9894 18.3359 59.2332 19.0863 58.7914 19.5169L56.612 21.6414C56.5256 21.7257 56.4609 21.8297 56.4236 21.9444C56.3863 22.0592 56.3775 22.1813 56.3979 22.3003L56.9123 25.3C57.0166 25.9081 56.3784 26.3718 55.8322 26.0847L53.1382 24.6684C53.0314 24.6122 52.9125 24.5829 52.7919 24.5829C52.6712 24.5829 52.5524 24.6122 52.4456 24.6684Z" stroke="#3A3A3A" stroke-width="1.6" stroke-miterlimit="10" stroke-linecap="round" stroke-linejoin="round"/>
</g>
<defs>
<clipPath id="clip0_153_3326">
<rect width="60" height="60" fill="white"/>
</clipPath>
</defs>
</svg>
