<svg width="174" height="78" viewBox="0 0 174 78" fill="none" xmlns="http://www.w3.org/2000/svg">
<path fill-rule="evenodd" clip-rule="evenodd" d="M0.198267 41.3145V77.6911H8.08472V48.6944L24.8293 74.7614H28.5306L45.2752 48.6944V77.6911H56.7415V41.3145H41.8765L29.1956 61.4645L16.5764 41.3145H0.198267ZM38.4221 1.18747V35.163H26.9558L11.607 15.8915C9.30135 12.9618 7.66271 10.4436 6.38844 8.33477C6.99573 12.9042 7.3601 18.0003 7.3601 23.0965V35.163H0.140625V1.18747H11.4855L26.8344 20.459C29.1997 23.4463 30.9598 26.1414 32.234 28.3079C31.6268 23.6232 31.2027 18.4098 31.2027 13.254V1.18747H38.4221ZM43.2743 18.1752C43.2743 29.5402 52.1324 36.0415 65.3588 36.0415C78.5852 36.0415 87.4433 29.5402 87.4433 18.1752C87.4433 6.81031 78.5852 0.30896 65.3588 0.30896C52.1324 0.30896 43.2743 6.81031 43.2743 18.1752ZM65.3588 5.05329C57.2891 5.05329 53.4066 10.4436 53.4066 18.1752C53.4066 25.9089 57.2891 31.2972 65.3588 31.2972C73.4285 31.2972 77.311 25.9089 77.311 18.1752C77.311 10.4416 73.4285 5.05329 65.3588 5.05329ZM101.944 35.163H92.2975V1.18945H113.594C124.817 1.18945 129.428 6.16832 129.428 12.143C129.428 17.7658 126.394 21.8065 121.359 23.6232L129.245 35.163H117.9L110.74 24.7938H101.944V35.163ZM111.286 5.93379C116.383 5.93379 119.537 7.75043 119.537 12.7293C119.537 16.772 117.05 20.0515 111.407 20.0515H101.942V5.93379H111.286ZM134.766 35.163H152.968C166.438 35.163 173.779 27.3717 173.779 16.8873C173.779 9.56508 169.046 1.18945 152.847 1.18945H134.766V35.163ZM163.766 17.4736C163.766 10.5032 159.397 5.93379 151.389 5.93379H144.411V30.4187H150.963C158.487 30.4187 163.766 26.0261 163.766 17.4736ZM170.925 77.6911H133.735V41.3145H170.925V48.9289H145.201V55.959H170.925V62.9294H145.201V70.0767H170.925V77.6911ZM87.6863 77.6911H123.786V70.0767H99.1526V41.3145H87.6863V77.6911ZM77.978 77.6911H66.5116V41.3145H77.978V77.6911Z" fill="url(#paint0_linear_228_106)"/>
<defs>
<linearGradient id="paint0_linear_228_106" x1="0.140616" y1="4.86447" x2="179.722" y2="34.0839" gradientUnits="userSpaceOnUse">
<stop stop-color="white"/>
<stop offset="0.1875" stop-color="#B7A687"/>
<stop offset="0.375" stop-color="white"/>
<stop offset="0.4375" stop-color="#B7A687"/>
<stop offset="1" stop-color="#A59475"/>
</linearGradient>
</defs>
</svg>
