<svg width="227" height="47" viewBox="0 0 227 47" fill="none" xmlns="http://www.w3.org/2000/svg">
<path d="M0 33.5914V13.4086C0 5.17868 5.73854 0 14.8642 0C23.9899 0 29.7284 5.26265 29.7284 13.4086V33.5914C29.7284 41.8213 23.9899 47 14.8642 47C5.73854 47 0 41.7933 0 33.5914ZM20.5188 32.8916V14.1644C20.5188 10.4413 18.5033 8.42585 14.8362 8.42585C11.2531 8.42585 9.23764 10.4413 9.23764 14.1644V32.8916C9.23764 36.5587 11.2531 38.5742 14.8362 38.5742C18.4193 38.5742 20.5188 36.5587 20.5188 32.8916Z" fill="white"/>
<path d="M0 33.5914V13.4086C0 5.17868 5.73854 0 14.8642 0C23.9899 0 29.7284 5.26265 29.7284 13.4086V33.5914C29.7284 41.8213 23.9899 47 14.8642 47C5.73854 47 0 41.7933 0 33.5914ZM20.5188 32.8916V14.1644C20.5188 10.4413 18.5033 8.42585 14.8362 8.42585C11.2531 8.42585 9.23764 10.4413 9.23764 14.1644V32.8916C9.23764 36.5587 11.2531 38.5742 14.8362 38.5742C18.4193 38.5742 20.5188 36.5587 20.5188 32.8916Z" fill="url(#paint0_linear_233_296)"/>
<path d="M70.0381 44.7886V46.1602H60.7165L54.5021 31.1001L48.1757 46.1602H38.9101V44.7886L48.5956 23.1501L39.19 2.18344V0.811791H48.4556L54.4741 15.1161L60.3526 0.811791H69.6742V2.18344L60.3526 23.1221L70.0381 44.7886Z" fill="white"/>
<path d="M70.0381 44.7886V46.1602H60.7165L54.5021 31.1001L48.1757 46.1602H38.9101V44.7886L48.5956 23.1501L39.19 2.18344V0.811791H48.4556L54.4741 15.1161L60.3526 0.811791H69.6742V2.18344L60.3526 23.1221L70.0381 44.7886Z" fill="url(#paint1_linear_233_296)"/>
<path d="M79.2198 33.5914V13.4086C79.2198 5.17868 84.9583 0 94.084 0C103.21 0 108.948 5.26265 108.948 13.4086V33.5914C108.948 41.8213 103.21 47 94.084 47C84.9583 47 79.2198 41.7933 79.2198 33.5914ZM99.7665 32.8916V14.1644C99.7665 10.4413 97.751 8.42585 94.084 8.42585C90.5009 8.42585 88.4854 10.4413 88.4854 14.1644V32.8916C88.4854 36.5587 90.5009 38.5742 94.084 38.5742C97.6671 38.5742 99.7665 36.5587 99.7665 32.8916Z" fill="white"/>
<path d="M79.2198 33.5914V13.4086C79.2198 5.17868 84.9583 0 94.084 0C103.21 0 108.948 5.26265 108.948 13.4086V33.5914C108.948 41.8213 103.21 47 94.084 47C84.9583 47 79.2198 41.7933 79.2198 33.5914ZM99.7665 32.8916V14.1644C99.7665 10.4413 97.751 8.42585 94.084 8.42585C90.5009 8.42585 88.4854 10.4413 88.4854 14.1644V32.8916C88.4854 36.5587 90.5009 38.5742 94.084 38.5742C97.6671 38.5742 99.7665 36.5587 99.7665 32.8916Z" fill="url(#paint2_linear_233_296)"/>
<path d="M126.64 9.23764H117.99V0.811791H144.527V9.23764H135.877V46.1602H126.612V9.23764H126.64Z" fill="white"/>
<path d="M126.64 9.23764H117.99V0.811791H144.527V9.23764H135.877V46.1602H126.612V9.23764H126.64Z" fill="url(#paint3_linear_233_296)"/>
<path d="M184.585 44.7886V46.1602H175.039L167.649 27.7129H164.458V46.1602H155.192V0.811791H164.458V19.3431H167.649L174.759 0.811791H184.081V2.18344L175.711 23.402L184.585 44.7886Z" fill="white"/>
<path d="M184.585 44.7886V46.1602H175.039L167.649 27.7129H164.458V46.1602H155.192V0.811791H164.458V19.3431H167.649L174.759 0.811791H184.081V2.18344L175.711 23.402L184.585 44.7886Z" fill="url(#paint4_linear_233_296)"/>
<path d="M226.742 44.7886V46.1602H217.197L215.545 38.2102H205.104L203.452 46.1602H193.99V44.7886L204.908 0.811791H215.909L226.742 44.7886ZM213.893 30.2603L210.366 13.5205L206.839 30.2603H213.893Z" fill="white"/>
<path d="M226.742 44.7886V46.1602H217.197L215.545 38.2102H205.104L203.452 46.1602H193.99V44.7886L204.908 0.811791H215.909L226.742 44.7886ZM213.893 30.2603L210.366 13.5205L206.839 30.2603H213.893Z" fill="url(#paint5_linear_233_296)"/>
<defs>
<linearGradient id="paint0_linear_233_296" x1="-1.15834e-05" y1="2.76691" x2="214.467" y2="77.7911" gradientUnits="userSpaceOnUse">
<stop stop-color="white"/>
<stop offset="0.1875" stop-color="#BBBBBB"/>
<stop offset="0.375" stop-color="white"/>
<stop offset="0.4375" stop-color="#AEAEAE"/>
<stop offset="1" stop-color="#949494"/>
</linearGradient>
<linearGradient id="paint1_linear_233_296" x1="-1.15834e-05" y1="2.76691" x2="214.467" y2="77.7911" gradientUnits="userSpaceOnUse">
<stop stop-color="white"/>
<stop offset="0.1875" stop-color="#BBBBBB"/>
<stop offset="0.375" stop-color="white"/>
<stop offset="0.4375" stop-color="#AEAEAE"/>
<stop offset="1" stop-color="#949494"/>
</linearGradient>
<linearGradient id="paint2_linear_233_296" x1="-1.15834e-05" y1="2.76691" x2="214.467" y2="77.7911" gradientUnits="userSpaceOnUse">
<stop stop-color="white"/>
<stop offset="0.1875" stop-color="#BBBBBB"/>
<stop offset="0.375" stop-color="white"/>
<stop offset="0.4375" stop-color="#AEAEAE"/>
<stop offset="1" stop-color="#949494"/>
</linearGradient>
<linearGradient id="paint3_linear_233_296" x1="-1.15834e-05" y1="2.76691" x2="214.467" y2="77.7911" gradientUnits="userSpaceOnUse">
<stop stop-color="white"/>
<stop offset="0.1875" stop-color="#BBBBBB"/>
<stop offset="0.375" stop-color="white"/>
<stop offset="0.4375" stop-color="#AEAEAE"/>
<stop offset="1" stop-color="#949494"/>
</linearGradient>
<linearGradient id="paint4_linear_233_296" x1="-1.15834e-05" y1="2.76691" x2="214.467" y2="77.7911" gradientUnits="userSpaceOnUse">
<stop stop-color="white"/>
<stop offset="0.1875" stop-color="#BBBBBB"/>
<stop offset="0.375" stop-color="white"/>
<stop offset="0.4375" stop-color="#AEAEAE"/>
<stop offset="1" stop-color="#949494"/>
</linearGradient>
<linearGradient id="paint5_linear_233_296" x1="-1.15834e-05" y1="2.76691" x2="214.467" y2="77.7911" gradientUnits="userSpaceOnUse">
<stop stop-color="white"/>
<stop offset="0.1875" stop-color="#BBBBBB"/>
<stop offset="0.375" stop-color="white"/>
<stop offset="0.4375" stop-color="#AEAEAE"/>
<stop offset="1" stop-color="#949494"/>
</linearGradient>
</defs>
</svg>
