<svg width="279" height="50" viewBox="0 0 279 50" fill="none" xmlns="http://www.w3.org/2000/svg">
<path d="M24.2558 0.887689H0.599939C0.350639 0.887689 0.156738 1.07885 0.156738 1.32462C0.156738 1.5704 0.350639 1.76156 0.599939 1.76156H10.1011C10.3504 1.76156 10.5443 1.95272 10.5443 2.19849V30.7494C10.5443 30.9952 10.7382 31.1863 10.9875 31.1863H13.9929C14.2423 31.1863 14.4362 30.9952 14.4362 30.7494V2.18484C14.4362 1.93906 14.6301 1.7479 14.8794 1.7479H24.2558C24.5052 1.7479 24.6991 1.55675 24.6991 1.31097C24.6991 1.06519 24.4913 0.887689 24.2558 0.887689Z" fill="url(#paint0_linear_228_98)"/>
<path d="M37.0386 0.887689H34.0333C33.7841 0.887689 33.5901 1.07885 33.5901 1.32462V30.7494C33.5901 30.9952 33.7841 31.1863 34.0333 31.1863H37.0386C37.2881 31.1863 37.4818 30.9952 37.4818 30.7494V1.32462C37.4818 1.07885 37.2741 0.887689 37.0386 0.887689Z" fill="url(#paint1_linear_228_98)"/>
<path d="M73.6588 0.887689H70.6532C70.404 0.887689 70.21 1.07885 70.21 1.32462V14.9379C70.21 15.1836 70.0163 15.3748 69.7668 15.3748H52.579C52.3298 15.3748 52.1358 15.1836 52.1358 14.9379V1.32462C52.1358 1.07885 51.9418 0.887689 51.6926 0.887689H48.687C48.4378 0.887689 48.2438 1.07885 48.2438 1.32462V30.7494C48.2438 30.9952 48.4378 31.1863 48.687 31.1863H51.6926C51.9418 31.1863 52.1358 30.9952 52.1358 30.7494V16.6856C52.1358 16.4398 52.3298 16.2487 52.579 16.2487H69.7668C70.0163 16.2487 70.21 16.4398 70.21 16.6856V30.7494C70.21 30.9952 70.404 31.1863 70.6532 31.1863H73.6588C73.908 31.1863 74.102 30.9952 74.102 30.7494V1.32462C74.0882 1.07885 73.8942 0.887689 73.6588 0.887689Z" fill="url(#paint2_linear_228_98)"/>
<path d="M107.868 27.882L103.934 21.2734C103.297 20.1537 102.245 19.2662 100.776 18.6108C100.389 18.4333 100.444 17.8871 100.859 17.7916C102.854 17.341 104.516 16.4808 105.873 15.2382C107.577 13.6407 108.435 11.7428 108.435 9.51715C108.435 7.07303 107.369 5.02492 105.25 3.37274C103.159 1.70694 100.513 0.887689 97.3417 0.887689H85.7631C85.5136 0.887689 85.3199 1.07885 85.3199 1.32462V30.7494C85.3199 30.9952 85.5136 31.1863 85.7631 31.1863H88.7684C89.0176 31.1863 89.2116 30.9952 89.2116 30.7494V18.6518C89.2116 18.406 89.4056 18.2149 89.6548 18.2149H96.5521C96.6213 18.2149 96.6768 18.2285 96.746 18.2558C97.7849 18.7337 98.6435 19.5257 99.3222 20.618L103.962 28.6602C104.557 29.657 105.278 30.4626 106.122 31.0906C106.192 31.1455 106.289 31.1728 106.386 31.1728H107.175C107.383 30.7357 107.688 30.3261 108.075 29.9849L108.214 29.8619L108.325 29.78C108.491 29.6435 108.671 29.5069 108.837 29.3704C108.491 28.9335 108.172 28.4282 107.868 27.882ZM96.5938 17.341H89.6411C89.3916 17.341 89.1979 17.1498 89.1979 16.904V2.18484C89.1979 1.93906 89.3916 1.7479 89.6411 1.7479H96.5938C98.9345 1.7479 100.804 2.45792 102.231 3.87797C103.671 5.28435 104.391 7.16863 104.391 9.54445C104.391 11.9066 103.671 13.8046 102.231 15.2246C100.804 16.631 98.9345 17.341 96.5938 17.341Z" fill="url(#paint3_linear_228_98)"/>
<path d="M128.657 18.3377C128.657 18.2558 128.685 18.1739 128.726 18.1056L139.806 1.55675C140 1.27001 139.793 0.887689 139.446 0.887689H139.239C139.086 0.887689 138.948 0.955963 138.865 1.07885L128.643 16.4262C128.463 16.6856 128.089 16.6856 127.909 16.4262L117.632 1.07885C117.55 0.955963 117.411 0.887689 117.273 0.887689H113.99C113.644 0.887689 113.436 1.27001 113.63 1.55675L124.696 18.092C124.738 18.1603 124.765 18.2422 124.765 18.3241V25.2195C126.04 25.4379 127.314 25.7656 128.657 26.2299V18.3377Z" fill="url(#paint4_linear_228_98)"/>
<path d="M168.629 18.2695C167.48 17.1635 166.025 16.3442 164.28 15.8254C163.892 15.7025 163.865 15.17 164.239 15.0198C165.637 14.46 166.801 13.6953 167.715 12.7395C168.92 11.4833 169.529 10.0223 169.529 8.34289C169.529 6.22649 168.629 4.46508 166.842 3.04505C165.07 1.61136 162.84 0.887689 160.153 0.887689H147.231C146.981 0.887689 146.787 1.07885 146.787 1.32462V25.8339C148.117 25.9022 149.419 26.066 150.679 26.3528V16.4671C150.679 16.2213 150.873 16.0302 151.123 16.0302H159.737C161.773 16.0302 163.449 16.6583 164.779 17.9145C166.122 19.1707 166.787 20.973 166.787 23.3488C166.787 25.4652 166.205 27.1447 165.028 28.4145C164.28 29.2339 163.366 29.78 162.313 30.0668C162.826 30.053 163.324 30.0395 163.782 29.9984C164.779 29.9165 164.765 29.9165 165.665 29.8073C166.233 29.7389 166.732 29.6843 167.161 29.6435C167.493 29.425 167.826 29.1928 168.131 28.9335C169.917 27.4314 170.817 25.5472 170.817 23.2942C170.831 21.3417 170.097 19.6622 168.629 18.2695ZM158.408 15.17H151.123C150.873 15.17 150.679 14.9788 150.679 14.733V2.18484C150.679 1.93906 150.873 1.7479 151.123 1.7479H159.073C160.998 1.7479 162.535 2.36234 163.698 3.60486C164.862 4.83376 165.457 6.45861 165.457 8.50672C165.457 10.5822 164.82 12.207 163.56 13.3813C162.286 14.5692 160.568 15.17 158.408 15.17Z" fill="url(#paint5_linear_228_98)"/>
<path d="M190.291 12.8761C190.152 12.6986 190.18 12.4391 190.346 12.3026L202.313 1.63867C202.617 1.37924 202.424 0.887689 202.022 0.887689H201.814C201.704 0.887689 201.607 0.928652 201.523 0.996923L183.574 16.986C183.297 17.2318 182.84 17.0406 182.84 16.6583V1.32462C182.84 1.07885 182.646 0.887689 182.396 0.887689H179.391C179.142 0.887689 178.948 1.07885 178.948 1.32462V30.7494C178.948 30.9952 179.142 31.1863 179.391 31.1863H182.396C182.646 31.1863 182.84 30.9952 182.84 30.7494V19.1707C182.84 19.0478 182.895 18.9249 182.992 18.843L186.995 15.3202C187.189 15.1563 187.48 15.1836 187.645 15.3884L199.46 31.0087C199.543 31.1179 199.668 31.1863 199.806 31.1863H203.255C203.615 31.1863 203.822 30.7768 203.601 30.4899L190.291 12.8761Z" fill="url(#paint6_linear_228_98)"/>
<path d="M235.165 4.9155C232.146 1.95254 228.351 0.464233 223.767 0.464233C219.21 0.464233 215.415 1.95254 212.382 4.9155C209.349 7.89212 207.839 11.5924 207.839 16.0437C207.839 20.4813 209.349 24.1816 212.382 27.1582C215.429 30.1213 219.224 31.5957 223.767 31.5957C228.351 31.5957 232.146 30.1213 235.165 27.1582C238.198 24.1816 239.708 20.4813 239.708 16.0437C239.708 11.6061 238.198 7.89212 235.165 4.9155ZM232.395 26.7349C230.235 29.411 227.354 30.7493 223.767 30.7493C220.207 30.7493 217.34 29.411 215.166 26.7349C213.005 24.045 211.925 20.4813 211.925 16.0437C211.925 11.5924 213.005 8.02864 215.166 5.35244C217.34 2.66256 220.207 1.32445 223.767 1.32445C227.354 1.32445 230.235 2.66256 232.395 5.35244C234.57 8.02864 235.664 11.5924 235.664 16.0437C235.65 20.4813 234.57 24.045 232.395 26.7349Z" fill="url(#paint7_linear_228_98)"/>
<path d="M278.1 0.887689H274.735C274.582 0.887689 274.444 0.969615 274.361 1.0925L263.669 18.5835C263.502 18.8566 263.087 18.8566 262.921 18.5835L252.173 1.0925C252.09 0.969615 251.952 0.887689 251.799 0.887689H248.254C248.004 0.887689 247.81 1.07885 247.81 1.32462V30.7494C247.81 30.9952 248.004 31.1863 248.254 31.1863H248.42C248.669 31.1863 248.863 30.9952 248.863 30.7494V4.35586C248.863 3.91893 249.445 3.75507 249.68 4.13739L261.286 23.0894C261.369 23.2259 261.508 23.2942 261.66 23.2942H261.854C262.007 23.2942 262.145 23.2123 262.228 23.0894L273.835 4.13739C274.07 3.76872 274.652 3.91893 274.652 4.35586V30.7357C274.652 30.9814 274.846 31.1728 275.095 31.1728H278.1C278.35 31.1728 278.544 30.9814 278.544 30.7357V1.32462C278.544 1.07885 278.35 0.887689 278.1 0.887689Z" fill="url(#paint8_linear_228_98)"/>
<path d="M154.418 45.5641C152.922 45.9326 151.302 46.151 149.612 46.1648C148.435 46.1648 147.286 46.0691 146.191 45.8645C145.983 45.8372 145.803 45.9191 145.693 46.0691C144.668 47.5847 142.826 48.5134 140.637 48.7453C140.25 48.7726 140.222 49.3463 140.624 49.4009C141.565 49.5509 142.535 49.6194 143.546 49.6194C148.061 49.6056 152.064 48.1038 154.543 45.7826C154.64 45.6869 154.543 45.523 154.418 45.5641Z" fill="#AB3541"/>
<path d="M168.048 34.395C167.258 33.2206 166.026 33.2617 165.859 33.2752C165.375 33.3025 164.738 33.3436 164.031 33.3982C162.799 33.4937 161.344 33.5894 160.001 33.644C159.073 33.6713 158.422 33.9308 157.619 34.2447C157.425 34.3131 157.231 34.395 157.023 34.4769C154.364 35.4872 151.511 36.0198 148.699 36.0471C146.732 36.0606 145.043 35.9514 143.561 35.7056C141.428 35.3507 139.946 35.023 136.691 33.521C136.054 33.2206 135.403 32.9202 134.766 32.6199C133.215 31.8827 131.664 31.1589 130.099 30.5171C129.655 30.2987 129.212 30.1075 128.741 29.9164C126.664 29.097 124.475 28.469 121.927 28.3461C120.168 28.2505 118.534 28.5782 117.786 28.8104C114.946 29.6296 112.44 30.8586 110.501 32.4423C110.459 32.4696 110.418 32.5107 110.362 32.5515C110.141 32.7429 110.307 33.0841 110.584 33.016C112.966 32.5107 115.057 32.8929 116.332 34.1082C116.332 34.122 116.359 34.1493 116.401 34.1766C116.581 34.3404 116.844 34.3539 117.038 34.2039C118.728 32.9475 120.764 31.8962 123.077 31.1724C124.655 30.6674 127.259 30.6263 128.838 31.0497C130.168 31.4047 131.137 31.7596 131.996 32.1557C133.533 33.016 135.154 34.0673 136.303 34.8592C136.802 35.2006 137.356 35.5964 137.938 36.0198C140.001 37.4946 142.522 39.2967 144.364 40.3346C146.677 41.6452 147.66 42.0278 150.223 42.765C152.092 43.2976 154.059 43.4749 155.984 43.5842C157.674 43.6115 161.081 43.3249 162.286 42.6012C164.53 41.2356 165.596 39.9796 167.05 38.2453C167.272 37.986 167.494 37.713 167.729 37.4399C168.269 36.7843 168.837 35.5691 168.048 34.395Z" fill="#AB3541"/>
<path d="M140.845 30.4898C143.172 30.367 145.236 31.0359 146.579 32.5241C146.704 32.6609 146.898 32.7017 147.078 32.6609C148.698 32.1829 150.499 31.9099 152.382 31.9099C153.269 31.9099 154.141 31.9507 154.986 32.0737C155.138 32.101 155.208 31.9099 155.083 31.828C152.659 30.2029 149.307 29.2199 145.623 29.2199C143.892 29.2199 142.244 29.4249 140.748 29.8344C140.346 29.9299 140.43 30.5035 140.845 30.4898Z" fill="#AB3541"/>
<defs>
<linearGradient id="paint0_linear_228_98" x1="0.156724" y1="2.29696" x2="208.217" y2="137.207" gradientUnits="userSpaceOnUse">
<stop stop-color="white"/>
<stop offset="0.1875" stop-color="#BBBBBB"/>
<stop offset="0.375" stop-color="white"/>
<stop offset="0.4375" stop-color="#AEAEAE"/>
<stop offset="1" stop-color="#949494"/>
</linearGradient>
<linearGradient id="paint1_linear_228_98" x1="0.156724" y1="2.29696" x2="208.217" y2="137.207" gradientUnits="userSpaceOnUse">
<stop stop-color="white"/>
<stop offset="0.1875" stop-color="#BBBBBB"/>
<stop offset="0.375" stop-color="white"/>
<stop offset="0.4375" stop-color="#AEAEAE"/>
<stop offset="1" stop-color="#949494"/>
</linearGradient>
<linearGradient id="paint2_linear_228_98" x1="0.156724" y1="2.29696" x2="208.217" y2="137.207" gradientUnits="userSpaceOnUse">
<stop stop-color="white"/>
<stop offset="0.1875" stop-color="#BBBBBB"/>
<stop offset="0.375" stop-color="white"/>
<stop offset="0.4375" stop-color="#AEAEAE"/>
<stop offset="1" stop-color="#949494"/>
</linearGradient>
<linearGradient id="paint3_linear_228_98" x1="0.156724" y1="2.29696" x2="208.217" y2="137.207" gradientUnits="userSpaceOnUse">
<stop stop-color="white"/>
<stop offset="0.1875" stop-color="#BBBBBB"/>
<stop offset="0.375" stop-color="white"/>
<stop offset="0.4375" stop-color="#AEAEAE"/>
<stop offset="1" stop-color="#949494"/>
</linearGradient>
<linearGradient id="paint4_linear_228_98" x1="0.156724" y1="2.29696" x2="208.217" y2="137.207" gradientUnits="userSpaceOnUse">
<stop stop-color="white"/>
<stop offset="0.1875" stop-color="#BBBBBB"/>
<stop offset="0.375" stop-color="white"/>
<stop offset="0.4375" stop-color="#AEAEAE"/>
<stop offset="1" stop-color="#949494"/>
</linearGradient>
<linearGradient id="paint5_linear_228_98" x1="0.156724" y1="2.29696" x2="208.217" y2="137.207" gradientUnits="userSpaceOnUse">
<stop stop-color="white"/>
<stop offset="0.1875" stop-color="#BBBBBB"/>
<stop offset="0.375" stop-color="white"/>
<stop offset="0.4375" stop-color="#AEAEAE"/>
<stop offset="1" stop-color="#949494"/>
</linearGradient>
<linearGradient id="paint6_linear_228_98" x1="0.156724" y1="2.29696" x2="208.217" y2="137.207" gradientUnits="userSpaceOnUse">
<stop stop-color="white"/>
<stop offset="0.1875" stop-color="#BBBBBB"/>
<stop offset="0.375" stop-color="white"/>
<stop offset="0.4375" stop-color="#AEAEAE"/>
<stop offset="1" stop-color="#949494"/>
</linearGradient>
<linearGradient id="paint7_linear_228_98" x1="0.156724" y1="2.29696" x2="208.217" y2="137.207" gradientUnits="userSpaceOnUse">
<stop stop-color="white"/>
<stop offset="0.1875" stop-color="#BBBBBB"/>
<stop offset="0.375" stop-color="white"/>
<stop offset="0.4375" stop-color="#AEAEAE"/>
<stop offset="1" stop-color="#949494"/>
</linearGradient>
<linearGradient id="paint8_linear_228_98" x1="0.156724" y1="2.29696" x2="208.217" y2="137.207" gradientUnits="userSpaceOnUse">
<stop stop-color="white"/>
<stop offset="0.1875" stop-color="#BBBBBB"/>
<stop offset="0.375" stop-color="white"/>
<stop offset="0.4375" stop-color="#AEAEAE"/>
<stop offset="1" stop-color="#949494"/>
</linearGradient>
</defs>
</svg>
