<svg width="26" height="26" viewBox="0 0 26 26" fill="none" xmlns="http://www.w3.org/2000/svg">
<path d="M6.77083 3.25C4.83603 3.25 3.25 4.83603 3.25 6.77083V19.2292C3.25 21.164 4.83603 22.75 6.77083 22.75H19.2292C21.164 22.75 22.75 21.164 22.75 19.2292V6.77083C22.75 4.83603 21.164 3.25 19.2292 3.25H6.77083ZM6.77083 4.875H19.2292C20.2854 4.875 21.125 5.71455 21.125 6.77083V7.58333H4.875V6.77083C4.875 5.71455 5.71455 4.875 6.77083 4.875ZM4.875 9.20833H21.125V19.2292C21.125 20.2854 20.2854 21.125 19.2292 21.125H6.77083C5.71455 21.125 4.875 20.2854 4.875 19.2292V9.20833ZM8.39583 11.375C8.03669 11.375 7.69225 11.5177 7.43829 11.7716C7.18434 12.0256 7.04167 12.37 7.04167 12.7292C7.04167 13.0883 7.18434 13.4328 7.43829 13.6867C7.69225 13.9407 8.03669 14.0833 8.39583 14.0833C8.75498 14.0833 9.09942 13.9407 9.35337 13.6867C9.60733 13.4328 9.75 13.0883 9.75 12.7292C9.75 12.37 9.60733 12.0256 9.35337 11.7716C9.09942 11.5177 8.75498 11.375 8.39583 11.375ZM13 11.375C12.6409 11.375 12.2964 11.5177 12.0425 11.7716C11.7885 12.0256 11.6458 12.37 11.6458 12.7292C11.6458 13.0883 11.7885 13.4328 12.0425 13.6867C12.2964 13.9407 12.6409 14.0833 13 14.0833C13.3591 14.0833 13.7036 13.9407 13.9575 13.6867C14.2115 13.4328 14.3542 13.0883 14.3542 12.7292C14.3542 12.37 14.2115 12.0256 13.9575 11.7716C13.7036 11.5177 13.3591 11.375 13 11.375ZM17.6042 11.375C17.245 11.375 16.9006 11.5177 16.6466 11.7716C16.3927 12.0256 16.25 12.37 16.25 12.7292C16.25 13.0883 16.3927 13.4328 16.6466 13.6867C16.9006 13.9407 17.245 14.0833 17.6042 14.0833C17.9633 14.0833 18.3078 13.9407 18.5617 13.6867C18.8157 13.4328 18.9583 13.0883 18.9583 12.7292C18.9583 12.37 18.8157 12.0256 18.5617 11.7716C18.3078 11.5177 17.9633 11.375 17.6042 11.375ZM8.39583 16.25C8.03669 16.25 7.69225 16.3927 7.43829 16.6466C7.18434 16.9006 7.04167 17.245 7.04167 17.6042C7.04167 17.9633 7.18434 18.3078 7.43829 18.5617C7.69225 18.8157 8.03669 18.9583 8.39583 18.9583C8.75498 18.9583 9.09942 18.8157 9.35337 18.5617C9.60733 18.3078 9.75 17.9633 9.75 17.6042C9.75 17.245 9.60733 16.9006 9.35337 16.6466C9.09942 16.3927 8.75498 16.25 8.39583 16.25ZM13 16.25C12.6409 16.25 12.2964 16.3927 12.0425 16.6466C11.7885 16.9006 11.6458 17.245 11.6458 17.6042C11.6458 17.9633 11.7885 18.3078 12.0425 18.5617C12.2964 18.8157 12.6409 18.9583 13 18.9583C13.3591 18.9583 13.7036 18.8157 13.9575 18.5617C14.2115 18.3078 14.3542 17.9633 14.3542 17.6042C14.3542 17.245 14.2115 16.9006 13.9575 16.6466C13.7036 16.3927 13.3591 16.25 13 16.25Z" fill="#0084FE"/>
</svg>
