<svg width="30" height="30" viewBox="0 0 30 30" fill="none" xmlns="http://www.w3.org/2000/svg">
<g clip-path="url(#clip0_1_9477)">
<circle cx="15" cy="15" r="15" fill="#F6874D" fill-opacity="0.2"/>
<path d="M15.0008 4.80005C9.37628 4.80005 4.80078 9.37554 4.80078 15C4.80078 20.6246 9.37628 25.2 15.0008 25.2C20.6253 25.2 25.2008 20.6246 25.2008 15C25.2008 9.37554 20.6253 4.80005 15.0008 4.80005ZM20.1705 12.8385L14.6455 18.3634C14.4797 18.5292 14.2621 18.6126 14.0445 18.6126C13.8269 18.6126 13.6094 18.5292 13.4436 18.3634L10.6812 15.601C10.3487 15.2687 10.3487 14.7314 10.6812 14.3991C11.0134 14.0667 11.5506 14.0667 11.883 14.3991L14.0445 16.5606L18.9687 11.6367C19.3009 11.3042 19.8381 11.3042 20.1705 11.6367C20.5028 11.969 20.5028 12.5061 20.1705 12.8385Z" fill="#F6874D"/>
</g>
<defs>
<clipPath id="clip0_1_9477">
<rect width="30" height="30" fill="white"/>
</clipPath>
</defs>
</svg>
