<svg width="44" height="44" viewBox="0 0 44 44" fill="none" xmlns="http://www.w3.org/2000/svg">
<g clip-path="url(#clip0_127_30954)">
<path d="M0 3.38452V16.7941V30.4614H44V15.1018V3.38452H0ZM8.53426 6.76914H35.4657L36.5036 7.78056C36.4698 7.94302 36.4044 8.09551 36.4044 8.26643C36.4044 9.66597 37.5657 10.7983 38.9991 10.7983C39.1751 10.7983 39.329 10.7346 39.4949 10.7024L40.6154 11.7965V22.0528L39.4982 23.1435C39.3307 23.1114 39.1751 23.0444 38.9991 23.0444C37.5657 23.0444 36.4044 24.1783 36.4044 25.5795C36.4044 25.7522 36.4698 25.8996 36.5036 26.0621L35.4657 27.0768H8.53426L7.49639 26.0654C7.53024 25.903 7.59555 25.7522 7.59555 25.5795C7.59555 24.18 6.43429 23.0444 5.0009 23.0444C4.8249 23.0444 4.67095 23.1114 4.50511 23.1435L3.38462 22.0495V12.2129L4.5018 10.7024C4.66765 10.7363 4.8216 10.8016 4.9976 10.8016C6.43098 10.8016 7.59225 9.66766 7.59225 8.26643C7.59225 8.09382 7.52694 7.94632 7.49309 7.78386L8.53426 6.76914ZM22 9.41006C19.7563 9.41006 17.6044 10.2068 16.0176 11.6249C14.4308 13.0431 13.5391 14.9667 13.5385 16.9726C13.5383 17.9661 13.757 18.9499 14.1822 19.8678C14.6073 20.7857 15.2306 21.6198 16.0163 22.3223C16.8021 23.0249 17.7349 23.5822 18.7616 23.9624C19.7883 24.3427 20.8887 24.5384 22 24.5384C23.1113 24.5384 24.2117 24.3427 25.2384 23.9624C26.2651 23.5822 27.1979 23.0249 27.9837 22.3223C28.7694 21.6198 29.3927 20.7857 29.8178 19.8678C30.243 18.9499 30.4617 17.9661 30.4615 16.9726C30.4609 14.9667 29.5692 13.0431 27.9824 11.6249C26.3956 10.2068 24.2437 9.41006 22 9.41006ZM34.6923 14.3845C34.0201 14.3849 33.3755 14.6522 32.9002 15.1275C32.4248 15.6029 32.1576 16.2474 32.1572 16.9197C32.1569 17.2528 32.2223 17.5827 32.3496 17.8906C32.4769 18.1985 32.6636 18.4783 32.899 18.714C33.1344 18.9497 33.4139 19.1367 33.7216 19.2644C34.0293 19.3921 34.3592 19.4579 34.6923 19.4581C35.0254 19.4579 35.3553 19.3921 35.663 19.2644C35.9707 19.1367 36.2502 18.9497 36.4856 18.714C36.721 18.4783 36.9077 18.1985 37.035 17.8906C37.1623 17.5827 37.2277 17.2528 37.2275 16.9197C37.227 16.2474 36.9598 15.6029 36.4845 15.1275C36.0091 14.6522 35.3645 14.3849 34.6923 14.3845ZM9.30769 14.3878C8.63445 14.3878 7.98878 14.6553 7.51273 15.1313C7.03667 15.6074 6.76923 16.253 6.76923 16.9263C6.76923 17.5995 7.03667 18.2452 7.51273 18.7213C7.98878 19.1973 8.63445 19.4648 9.30769 19.4648C9.98093 19.4648 10.6266 19.1973 11.1027 18.7213C11.5787 18.2452 11.8462 17.5995 11.8462 16.9263C11.8462 16.253 11.5787 15.6074 11.1027 15.1313C10.6266 14.6553 9.98093 14.3878 9.30769 14.3878ZM0 32.1538V35.5384C3.95985 35.5384 27.1466 35.8787 38.3546 39.8815L40.6154 40.6913V32.1538H37.2308V36.1565C24.4408 32.3503 3.86644 32.1538 0 32.1538Z" fill="#AB3541"/>
</g>
<defs>
<clipPath id="clip0_127_30954">
<rect width="44" height="44" fill="white"/>
</clipPath>
</defs>
</svg>
