<svg width="30" height="30" viewBox="0 0 30 30" fill="none" xmlns="http://www.w3.org/2000/svg">
<path d="M15 2.5C8.10754 2.5 2.5 8.10755 2.5 15C2.5 21.8925 8.10754 27.5 15 27.5C21.8925 27.5 27.5 21.8925 27.5 15C27.5 8.10755 21.8925 2.5 15 2.5ZM15 4.375C20.8791 4.375 25.625 9.12087 25.625 15C25.625 20.8791 20.8791 25.625 15 25.625C9.12087 25.625 4.375 20.8791 4.375 15C4.375 9.12087 9.12087 4.375 15 4.375ZM14.6729 7.48657C14.4244 7.49045 14.1877 7.59278 14.0147 7.77108C13.8416 7.94938 13.7464 8.18907 13.75 8.4375V15.9375C13.75 16.1861 13.8488 16.4246 14.0246 16.6004C14.2004 16.7762 14.4389 16.875 14.6875 16.875H19.6875C19.8117 16.8768 19.9351 16.8538 20.0504 16.8075C20.1656 16.7612 20.2706 16.6924 20.359 16.6051C20.4475 16.5179 20.5178 16.414 20.5657 16.2994C20.6137 16.1847 20.6384 16.0617 20.6384 15.9375C20.6384 15.8133 20.6137 15.6903 20.5657 15.5756C20.5178 15.461 20.4475 15.3571 20.359 15.2699C20.2706 15.1826 20.1656 15.1138 20.0504 15.0675C19.9351 15.0212 19.8117 14.9982 19.6875 15H15.625V8.4375C15.6268 8.31202 15.6034 8.18746 15.5562 8.07119C15.5089 7.95493 15.4388 7.84933 15.3501 7.76065C15.2613 7.67197 15.1556 7.60202 15.0392 7.55494C14.9229 7.50786 14.7983 7.48461 14.6729 7.48657Z" fill="#25344F"/>
</svg>
