<svg width="13" height="13" viewBox="0 0 13 13" fill="none" xmlns="http://www.w3.org/2000/svg">
<path d="M12.5027 10.1016C13.1658 10.7647 13.1658 11.8397 12.5027 12.5027C11.8397 13.1658 10.7647 13.1658 10.1016 12.5027L0.497282 2.89837C-0.16576 2.23533 -0.165761 1.16032 0.497281 0.497282C1.16032 -0.16576 2.23533 -0.165761 2.89837 0.497281L12.5027 10.1016Z" fill="#3B435A"/>
<path d="M2.89837 12.5027C2.23533 13.1658 1.16032 13.1658 0.497281 12.5027C-0.16576 11.8397 -0.165761 10.7647 0.497281 10.1016L10.1016 0.497282C10.7647 -0.16576 11.8397 -0.165759 12.5027 0.497283C13.1658 1.16032 13.1658 2.23533 12.5027 2.89837L2.89837 12.5027Z" fill="#3B435A"/>
</svg>
