<svg width="8" height="8" viewBox="0 0 8 8" fill="none" xmlns="http://www.w3.org/2000/svg">
<g clip-path="url(#clip0_281_5)">
<path d="M6.28222 0.734169C6.19343 0.644112 6.04964 0.644112 5.96086 0.734169L4.00025 2.7228L2.0398 0.734169C1.95101 0.644112 1.80722 0.644112 1.71843 0.734169L0.733583 1.73309C0.644795 1.82315 0.644795 1.96899 0.733583 2.05905L2.64714 3.99996L0.733583 5.94087C0.644795 6.03093 0.644795 6.17677 0.733583 6.26683L1.71843 7.26575C1.80722 7.35581 1.95101 7.35581 2.0398 7.26575L4.00025 5.27712L5.96086 7.26575C6.04964 7.35581 6.19343 7.35581 6.28222 7.26575L7.26707 6.26667C7.35586 6.17662 7.35586 6.03077 7.26707 5.94072L5.35366 3.99996L7.26707 2.0592C7.35586 1.96915 7.35586 1.8233 7.26707 1.73325L6.28222 0.734169Z" fill="#25344F"/>
</g>
<defs>
<clipPath id="clip0_281_5">
<rect width="8" height="8" fill="white"/>
</clipPath>
</defs>
</svg>
