<svg width="187" height="95" viewBox="0 0 187 95" fill="none" xmlns="http://www.w3.org/2000/svg">
<path d="M62.1653 17.9837C68.7986 16.3496 75.9852 15.3809 83.4788 15.3197C88.6987 15.3197 93.7968 15.7441 98.6487 16.6517C99.5712 16.7728 100.369 16.4095 100.86 15.7441C105.405 9.02304 113.575 4.90475 123.279 3.87611C124.998 3.75502 125.121 1.2109 123.34 0.968718C119.164 0.303349 114.864 8.53147e-07 110.38 1.24515e-06C90.357 0.0611717 72.6076 6.7211 61.612 17.015C61.1832 17.4394 61.6121 18.1659 62.1653 17.9837Z" fill="#EBEBEB"/>
<path d="M1.72812 67.5154C5.22877 72.7235 10.6948 72.5413 11.432 72.4813C13.5814 72.3603 16.407 72.178 19.5397 71.9358C25.0057 71.5126 31.4552 71.0882 37.4135 70.846C41.5283 70.7249 44.4148 69.5739 47.9776 68.182C48.8379 67.8787 49.6969 67.5154 50.618 67.1522C62.4116 62.6718 75.0643 60.31 87.5329 60.1889C96.2547 60.129 103.747 60.6133 110.32 61.7031C119.779 63.2773 126.35 64.7304 140.784 71.3915C143.609 72.7235 146.496 74.0555 149.322 75.3875C156.201 78.6569 163.079 81.8664 170.02 84.7126C171.986 85.6813 173.952 86.529 176.039 87.3766C185.253 91.0105 194.957 93.7953 206.258 94.3402C214.059 94.7642 221.307 93.3112 224.623 92.2813C237.215 88.6487 248.332 83.1984 256.931 76.1752C257.115 76.0541 257.299 75.8718 257.545 75.6908C258.527 74.842 257.79 73.329 256.562 73.6311C245.998 75.8718 236.724 74.1766 231.073 68.7875C231.073 68.7263 230.949 68.6052 230.766 68.4841C229.967 67.7576 228.8 67.6977 227.94 68.363C220.446 73.9344 211.417 78.597 201.16 81.8065C194.159 84.046 182.612 84.2283 175.61 82.3508C169.713 80.7766 165.414 79.2024 161.606 77.446C154.788 73.6311 147.602 68.9685 142.504 65.4569C140.293 63.9426 137.836 62.1875 135.257 60.31C126.105 53.7699 114.927 45.778 106.757 41.1753C96.4996 35.363 92.1387 33.6665 80.7764 30.3971C72.4847 28.0352 63.7629 27.2488 55.2251 26.7644C47.7315 26.6433 32.6224 27.9142 27.2782 31.1237C17.3281 37.1794 12.5993 42.7495 6.14991 50.4406C5.16786 51.5903 4.18451 52.8012 3.14027 54.0121C0.744748 56.9195 -1.77381 62.3086 1.72812 67.5154Z" fill="#EBEBEB"/>
<path d="M122.359 84.834C112.04 85.3783 102.889 82.4123 96.9305 75.8123C96.3773 75.2056 95.5184 75.0245 94.719 75.2056C87.5337 77.3252 79.549 78.5361 71.1951 78.5361C67.2644 78.5361 63.3945 78.3551 59.6477 77.8096C58.9727 77.6885 58.6656 78.5361 59.2188 78.8994C69.967 86.1061 84.8311 90.4653 101.168 90.4653C108.846 90.4653 116.156 89.5565 122.789 87.7402C124.57 87.317 124.201 84.7729 122.359 84.834Z" fill="#EBEBEB"/>
</svg>
