<svg width="22" height="22" viewBox="0 0 22 22" fill="none" xmlns="http://www.w3.org/2000/svg">
<path d="M3.89518 4.125C2.25804 4.125 0.916016 5.46703 0.916016 7.10417V14.8958C0.916016 16.533 2.25804 17.875 3.89518 17.875H18.1035C19.7407 17.875 21.0827 16.533 21.0827 14.8958V7.10417C21.0827 5.46703 19.7407 4.125 18.1035 4.125H3.89518ZM3.89518 5.5H18.1035C18.9973 5.5 19.7077 6.21039 19.7077 7.10417V7.79167H2.29102V7.10417C2.29102 6.21039 3.0014 5.5 3.89518 5.5ZM2.29102 9.625H19.7077V14.8958C19.7077 15.7896 18.9973 16.5 18.1035 16.5H3.89518C3.0014 16.5 2.29102 15.7896 2.29102 14.8958V9.625ZM14.4368 13.2917C14.3457 13.2904 14.2553 13.3072 14.1708 13.3412C14.0862 13.3752 14.0093 13.4256 13.9444 13.4896C13.8795 13.5535 13.828 13.6297 13.7928 13.7138C13.7577 13.7979 13.7396 13.8881 13.7396 13.9792C13.7396 14.0703 13.7577 14.1605 13.7928 14.2445C13.828 14.3286 13.8795 14.4048 13.9444 14.4688C14.0093 14.5327 14.0862 14.5832 14.1708 14.6172C14.2553 14.6511 14.3457 14.668 14.4368 14.6667H17.1868C17.278 14.668 17.3684 14.6511 17.4529 14.6172C17.5375 14.5832 17.6144 14.5327 17.6793 14.4688C17.7442 14.4048 17.7957 14.3286 17.8309 14.2445C17.866 14.1605 17.8841 14.0703 17.8841 13.9792C17.8841 13.8881 17.866 13.7979 17.8309 13.7138C17.7957 13.6297 17.7442 13.5535 17.6793 13.4896C17.6144 13.4256 17.5375 13.3752 17.4529 13.3412C17.3684 13.3072 17.278 13.2904 17.1868 13.2917H14.4368Z" fill="#004CBE"/>
</svg>
