<svg width="26" height="26" viewBox="0 0 26 26" fill="none" xmlns="http://www.w3.org/2000/svg">
<g id="Clock">
<path id="Vector (Stroke)" fill-rule="evenodd" clip-rule="evenodd" d="M11.918 8.69373H14.0846V12.6077L15.9882 14.8911L14.3239 16.2785L11.918 13.3923V8.69373Z" fill="#2A2E38" style="fill:#2A2E38;fill:color(display-p3 0.1647 0.1804 0.2196);fill-opacity:1;"/>
<path id="Vector (Stroke)_2" fill-rule="evenodd" clip-rule="evenodd" d="M9.68211 4.99302C10.7336 4.55748 11.8606 4.33331 12.9987 4.33331C14.1368 4.33331 15.2638 4.55748 16.3153 4.99302C17.3668 5.42856 18.3222 6.06695 19.127 6.87172C19.9317 7.67649 20.5701 8.6319 21.0057 9.68339C21.4412 10.7349 21.6654 11.8619 21.6654 13C21.6654 14.1381 21.4412 15.2651 21.0057 16.3166C20.5701 17.3681 19.9317 18.3235 19.127 19.1282C18.3222 19.933 17.3668 20.5714 16.3153 21.0069C15.2638 21.4425 14.1368 21.6666 12.9987 21.6666C11.8606 21.6666 10.7336 21.4425 9.68211 21.0069C8.63062 20.5714 7.67521 19.933 6.87044 19.1282C6.06566 18.3235 5.42728 17.3681 4.99174 16.3166C4.5562 15.2651 4.33203 14.1381 4.33203 13C4.33203 11.8619 4.5562 10.7349 4.99174 9.68339C5.42728 8.6319 6.06566 7.67649 6.87044 6.87172C7.67521 6.06695 8.63062 5.42856 9.68211 4.99302ZM12.9987 6.49998C12.1451 6.49998 11.2999 6.66811 10.5113 6.99476C9.72264 7.32142 9.00608 7.8002 8.4025 8.40379C7.79892 9.00737 7.32014 9.72392 6.99348 10.5125C6.66683 11.3012 6.4987 12.1464 6.4987 13C6.4987 13.8536 6.66683 14.6988 6.99348 15.4874C7.32014 16.276 7.79892 16.9926 8.4025 17.5962C9.00608 18.1998 9.72264 18.6785 10.5113 19.0052C11.2999 19.3319 12.1451 19.5 12.9987 19.5C13.8523 19.5 14.6975 19.3319 15.4861 19.0052C16.2748 18.6785 16.9913 18.1998 17.5949 17.5962C18.1985 16.9926 18.6773 16.276 19.0039 15.4874C19.3306 14.6988 19.4987 13.8536 19.4987 13C19.4987 12.1464 19.3306 11.3012 19.0039 10.5125C18.6773 9.72392 18.1985 9.00737 17.5949 8.40379C16.9913 7.8002 16.2748 7.32142 15.4861 6.99476C14.6975 6.66811 13.8523 6.49998 12.9987 6.49998Z" fill="#2A2E38" style="fill:#2A2E38;fill:color(display-p3 0.1647 0.1804 0.2196);fill-opacity:1;"/>
<path id="Vector (Stroke)_3" fill-rule="evenodd" clip-rule="evenodd" d="M9.07724 3.47796C6.5477 4.52172 4.52249 6.54701 3.47981 9.07728L1.47656 8.25177C2.73921 5.18771 5.18817 2.73883 8.2508 1.4751L9.07724 3.47796ZM16.9196 22.521C19.4492 21.4772 21.4744 19.452 22.5171 16.9217L24.5203 17.7472C23.2577 20.8113 20.8087 23.2601 17.7461 24.5239L16.9196 22.521Z" fill="#2A2E38" style="fill:#2A2E38;fill:color(display-p3 0.1647 0.1804 0.2196);fill-opacity:1;"/>
</g>
</svg>
