<svg width="32" height="32" viewBox="0 0 32 32" fill="none" xmlns="http://www.w3.org/2000/svg">
<path d="M3.24609 28.8685L5.04209 22.3118C3.93409 20.3932 3.35143 18.2158 3.35209 15.9858C3.35543 9.00916 9.03276 3.33316 16.0101 3.33316C19.3961 3.33449 22.5734 4.65249 24.9634 7.04383C27.3528 9.43583 28.6688 12.6145 28.6674 15.9958C28.6648 22.9725 22.9861 28.6492 16.0101 28.6492H16.0048C13.8868 28.6485 11.8048 28.1172 9.95609 27.1085L3.24609 28.8685Z" fill="white" style="fill:white;fill-opacity:1;"/>
<path d="M3.2471 29.2018C3.1591 29.2018 3.07377 29.1671 3.01044 29.1031C2.9271 29.0185 2.89444 28.8951 2.92577 28.7811L4.6851 22.3571C3.59444 20.4198 3.0191 18.2198 3.02044 15.9865C3.0231 8.82515 8.85044 2.99982 16.0111 2.99982C19.4844 3.00115 22.7478 4.35382 25.2004 6.80848C27.6531 9.26382 29.0031 12.5265 29.0018 15.9958C28.9991 23.1565 23.1711 28.9825 16.0111 28.9825C13.8851 28.9818 11.7818 28.4571 9.9151 27.4645L3.33177 29.1905C3.30377 29.1985 3.27577 29.2018 3.2471 29.2018Z" fill="white" style="fill:white;fill-opacity:1;"/>
<path d="M16.0091 3.33314C19.3951 3.33447 22.5724 4.65247 24.9624 7.04381C27.3517 9.43581 28.6677 12.6145 28.6664 15.9958C28.6637 22.9725 22.9851 28.6491 16.0091 28.6491H16.0037C13.8857 28.6485 11.8037 28.1171 9.95506 27.1085L3.24507 28.8685L5.04107 22.3118C3.93307 20.3931 3.3504 18.2158 3.35107 15.9858C3.3544 9.00914 9.03173 3.33314 16.0091 3.33314ZM16.0091 2.66647C8.66507 2.66647 2.68773 8.64114 2.6844 15.9858C2.68373 18.2305 3.2504 20.4425 4.32507 22.4005L2.60173 28.6931C2.53907 28.9231 2.60307 29.1685 2.77107 29.3378C2.89773 29.4658 3.06907 29.5358 3.24507 29.5358C3.30173 29.5358 3.3584 29.5285 3.4144 29.5138L9.8724 27.8205C11.7577 28.7991 13.8711 29.3158 16.0037 29.3165C23.3531 29.3165 29.3304 23.3411 29.3337 15.9965C29.3351 12.4371 27.9504 9.09047 25.4351 6.57314C22.9184 4.05514 19.5711 2.66781 16.0091 2.66647Z" fill="#CFD8DC" style="fill:#CFD8DC;fill:color(display-p3 0.8118 0.8471 0.8627);fill-opacity:1;"/>
<path d="M23.4509 8.55449C21.4643 6.56649 18.8236 5.47116 16.0129 5.47049C10.2103 5.47049 5.49095 10.1878 5.48828 15.9865C5.48762 17.9738 6.04362 19.9085 7.09695 21.5838L7.34761 21.9818L6.28428 25.8625L10.2663 24.8185L10.6509 25.0465C12.2656 26.0052 14.1176 26.5118 16.0056 26.5125H16.0096C21.8083 26.5125 26.5276 21.7945 26.5296 15.9952C26.5303 13.1852 25.4376 10.5425 23.4509 8.55449Z" fill="#40C351" style="fill:#40C351;fill:color(display-p3 0.2510 0.7647 0.3176);fill-opacity:1;"/>
<path fill-rule="evenodd" clip-rule="evenodd" d="M12.8468 10.6965C12.6101 10.1698 12.3608 10.1591 12.1348 10.1498C11.9501 10.1418 11.7395 10.1425 11.5288 10.1425C11.3181 10.1425 10.9755 10.2218 10.6855 10.5385C10.3955 10.8551 9.57812 11.6198 9.57812 13.1758C9.57812 14.7318 10.7115 16.2358 10.8695 16.4465C11.0275 16.6571 13.0575 19.9525 16.2721 21.2205C18.9435 22.2738 19.4875 22.0645 20.0675 22.0118C20.6475 21.9591 21.9388 21.2471 22.2021 20.5085C22.4655 19.7698 22.4655 19.1371 22.3868 19.0051C22.3075 18.8731 22.0968 18.7945 21.7808 18.6358C21.4648 18.4771 19.9095 17.7125 19.6195 17.6071C19.3295 17.5018 19.1188 17.4491 18.9075 17.7658C18.6968 18.0818 18.0908 18.7945 17.9061 19.0051C17.7215 19.2165 17.5368 19.2431 17.2208 19.0845C16.9048 18.9258 15.8861 18.5925 14.6775 17.5151C13.7375 16.6771 13.1028 15.6418 12.9181 15.3251C12.7335 15.0091 12.8981 14.8378 13.0568 14.6798C13.1988 14.5378 13.3728 14.3105 13.5315 14.1258C13.6895 13.9411 13.7421 13.8091 13.8475 13.5985C13.9528 13.3871 13.9001 13.2025 13.8208 13.0445C13.7428 12.8858 13.1281 11.3218 12.8468 10.6965Z" fill="white" style="fill:white;fill-opacity:1;"/>
</svg>
