<svg width="26" height="26" viewBox="0 0 26 26" fill="none" xmlns="http://www.w3.org/2000/svg">
<path opacity="0.4" d="M11.1021 2.16651C10.9712 2.16483 10.8419 2.19479 10.7251 2.25383C10.6083 2.31287 10.5075 2.39925 10.4312 2.50562C10.355 2.61199 10.3056 2.7352 10.2872 2.86478C10.2688 2.99435 10.2819 3.12645 10.3255 3.24984H7.92824C6.93306 3.24984 6.00115 3.74788 5.44948 4.5765L4.16725 6.49984H4.0604C3.95273 6.49832 3.84584 6.51821 3.74593 6.55836C3.64602 6.59851 3.55508 6.65811 3.4784 6.73371C3.40173 6.80931 3.34084 6.8994 3.29929 6.99873C3.25773 7.09806 3.23633 7.20467 3.23633 7.31234C3.23633 7.42002 3.25773 7.52662 3.29929 7.62596C3.34084 7.72529 3.40173 7.81537 3.4784 7.89097C3.55508 7.96657 3.64602 8.02618 3.74593 8.06633C3.84584 8.10647 3.95273 8.12637 4.0604 8.12484H4.47406C4.54375 8.13538 4.61452 8.1368 4.68459 8.12907L6.02394 20.6297C6.18555 22.1368 7.47064 23.2915 8.98618 23.2915H17.0086C18.5241 23.2915 19.8092 22.1368 19.9708 20.6297L21.3112 8.12907C21.3799 8.13644 21.4492 8.13501 21.5175 8.12484H21.9354C22.0431 8.12637 22.15 8.10647 22.2499 8.06633C22.3498 8.02618 22.4407 7.96657 22.5174 7.89097C22.5941 7.81537 22.655 7.72529 22.6965 7.62596C22.7381 7.52662 22.7595 7.42002 22.7595 7.31234C22.7595 7.20467 22.7381 7.09806 22.6965 6.99873C22.655 6.8994 22.5941 6.80931 22.5174 6.73371C22.4407 6.65811 22.3498 6.59851 22.2499 6.55836C22.15 6.51821 22.0431 6.49832 21.9354 6.49984H21.8285L20.5463 4.5765C19.9942 3.74833 19.0624 3.24984 18.0676 3.24984H15.6703C15.7139 3.12645 15.7271 2.99435 15.7087 2.86478C15.6903 2.7352 15.6408 2.61199 15.5646 2.50562C15.4883 2.39925 15.3875 2.31287 15.2707 2.25383C15.1539 2.19479 15.0246 2.16483 14.8937 2.16651H11.1021ZM7.92824 4.87484H18.0676C18.5211 4.87484 18.9426 5.1003 19.1943 5.47787L19.8756 6.49984H6.12021L6.80153 5.47787C6.80188 5.47752 6.80224 5.47717 6.80259 5.47681C7.05364 5.09971 7.47392 4.87484 7.92824 4.87484ZM6.31911 8.12484H19.6767L18.3553 20.4562C18.2808 21.1515 17.7074 21.6665 17.0086 21.6665H8.98618C8.28739 21.6665 7.71504 21.1515 7.64048 20.4562L6.31911 8.12484Z" fill="#343C4B"/>
</svg>
