<svg width="22" height="15" viewBox="0 0 22 15" fill="none" xmlns="http://www.w3.org/2000/svg">
<path d="M1.60354 0.583321C1.51244 0.582032 1.42199 0.598863 1.33745 0.632835C1.25291 0.666807 1.17596 0.717243 1.11108 0.781211C1.0462 0.845179 0.994686 0.921404 0.959522 1.00546C0.924358 1.08951 0.90625 1.17971 0.90625 1.27082C0.90625 1.36193 0.924358 1.45213 0.959522 1.53619C0.994686 1.62024 1.0462 1.69646 1.11108 1.76043C1.17596 1.8244 1.25291 1.87483 1.33745 1.90881C1.42199 1.94278 1.51244 1.95961 1.60354 1.95832H8.47854C8.56964 1.95961 8.66009 1.94278 8.74463 1.90881C8.82917 1.87483 8.90612 1.8244 8.971 1.76043C9.03588 1.69646 9.0874 1.62024 9.12256 1.53619C9.15773 1.45213 9.17583 1.36193 9.17583 1.27082C9.17583 1.17971 9.15773 1.08951 9.12256 1.00546C9.0874 0.921404 9.03588 0.845179 8.971 0.781211C8.90612 0.717243 8.82917 0.666807 8.74463 0.632835C8.66009 0.598863 8.56964 0.582032 8.47854 0.583321H1.60354ZM11.2285 0.583321C11.1374 0.582032 11.047 0.598863 10.9624 0.632835C10.8779 0.666807 10.801 0.717243 10.7361 0.781211C10.6712 0.845179 10.6197 0.921404 10.5845 1.00546C10.5494 1.08951 10.5312 1.17971 10.5312 1.27082C10.5312 1.36193 10.5494 1.45213 10.5845 1.53619C10.6197 1.62024 10.6712 1.69646 10.7361 1.76043C10.801 1.8244 10.8779 1.87483 10.9624 1.90881C11.047 1.94278 11.1374 1.95961 11.2285 1.95832H12.6035C12.9915 1.95832 13.291 2.25784 13.291 2.64582V11.125H8.15091C7.84868 10.0715 6.87425 9.29165 5.72854 9.29165C4.58283 9.29165 3.6084 10.0715 3.30618 11.125H2.97854C2.59056 11.125 2.29104 10.8255 2.29104 10.4375V9.52082C2.29236 9.4288 2.2752 9.33746 2.24056 9.2522C2.20593 9.16693 2.15453 9.08949 2.08942 9.02446C2.0243 8.95943 1.94679 8.90813 1.86149 8.87361C1.77618 8.83909 1.68482 8.82204 1.5928 8.82347C1.41062 8.82632 1.23702 8.90136 1.11013 9.03211C0.983234 9.16287 0.913428 9.33864 0.916042 9.52082V10.4375C0.916042 11.5684 1.8476 12.5 2.97854 12.5H3.30618C3.6084 13.5534 4.58283 14.3333 5.72854 14.3333C6.87425 14.3333 7.84868 13.5534 8.15091 12.5H13.8478C14.1501 13.5534 15.1245 14.3333 16.2702 14.3333C17.4159 14.3333 18.3903 13.5534 18.6926 12.5H19.0202C20.1511 12.5 21.0827 11.5684 21.0827 10.4375V7.52098C21.0827 7.23159 21.0216 6.94732 20.9055 6.68488C20.9052 6.68458 20.9049 6.68429 20.9046 6.68399L19.5528 3.64216V3.64126C19.2228 2.89806 18.4816 2.41665 17.6685 2.41665H14.6428C14.5259 1.39302 13.6561 0.583321 12.6035 0.583321H11.2285ZM1.60354 3.33332C1.51244 3.33203 1.42199 3.34886 1.33745 3.38284C1.25291 3.41681 1.17596 3.46724 1.11108 3.53121C1.0462 3.59518 0.994686 3.6714 0.959522 3.75546C0.924358 3.83951 0.90625 3.92971 0.90625 4.02082C0.90625 4.11193 0.924358 4.20213 0.959522 4.28619C0.994686 4.37024 1.0462 4.44646 1.11108 4.51043C1.17596 4.5744 1.25291 4.62483 1.33745 4.65881C1.42199 4.69278 1.51244 4.70961 1.60354 4.70832H6.64521C6.73631 4.70961 6.82676 4.69278 6.9113 4.65881C6.99584 4.62483 7.07279 4.5744 7.13767 4.51043C7.20255 4.44646 7.25406 4.37024 7.28923 4.28619C7.32439 4.20213 7.3425 4.11193 7.3425 4.02082C7.3425 3.92971 7.32439 3.83951 7.28923 3.75546C7.25406 3.6714 7.20255 3.59518 7.13767 3.53121C7.07279 3.46724 6.99584 3.41681 6.9113 3.38284C6.82676 3.34886 6.73631 3.33203 6.64521 3.33332H1.60354ZM14.666 3.79165H17.6685C17.9423 3.79165 18.1851 3.94981 18.296 4.19986L19.133 6.08332H14.666V3.79165ZM1.60354 6.08332C1.51244 6.08203 1.42199 6.09886 1.33745 6.13284C1.25291 6.16681 1.17596 6.21724 1.11108 6.28121C1.0462 6.34518 0.994686 6.4214 0.959522 6.50546C0.924358 6.58951 0.90625 6.67971 0.90625 6.77082C0.90625 6.86193 0.924358 6.95213 0.959522 7.03619C0.994686 7.12024 1.0462 7.19646 1.11108 7.26043C1.17596 7.3244 1.25291 7.37483 1.33745 7.40881C1.42199 7.44278 1.51244 7.45961 1.60354 7.45832H4.81188C4.90298 7.45961 4.99343 7.44278 5.07797 7.40881C5.16251 7.37483 5.23945 7.3244 5.30433 7.26043C5.36921 7.19646 5.42073 7.12024 5.45589 7.03619C5.49106 6.95213 5.50917 6.86193 5.50917 6.77082C5.50917 6.67971 5.49106 6.58951 5.45589 6.50546C5.42073 6.4214 5.36921 6.34518 5.30433 6.28121C5.23945 6.21724 5.16251 6.16681 5.07797 6.13284C4.99343 6.09886 4.90298 6.08203 4.81188 6.08332H1.60354ZM14.666 7.45832H19.7014C19.7034 7.47919 19.7077 7.50016 19.7077 7.52098V10.4375C19.7077 10.8255 19.4082 11.125 19.0202 11.125H18.6926C18.3903 10.0715 17.4159 9.29165 16.2702 9.29165C15.6625 9.29165 15.1031 9.51131 14.666 9.87442V7.45832ZM5.72854 10.6667C6.34672 10.6667 6.83518 11.14 6.86811 11.7489C6.86418 11.7912 6.86418 11.8338 6.86811 11.876C6.83518 12.485 6.34672 12.9583 5.72854 12.9583C5.11037 12.9583 4.62191 12.485 4.58897 11.876C4.5929 11.8338 4.5929 11.7912 4.58897 11.7489C4.62191 11.14 5.11037 10.6667 5.72854 10.6667ZM16.2702 10.6667C16.9102 10.6667 17.416 11.1725 17.416 11.8125C17.416 12.4525 16.9102 12.9583 16.2702 12.9583C15.6302 12.9583 15.1244 12.4525 15.1244 11.8125C15.1244 11.1725 15.6302 10.6667 16.2702 10.6667Z" fill="#0CBA7A"/>
</svg>
