<svg width="22" height="22" viewBox="0 0 22 22" fill="none" xmlns="http://www.w3.org/2000/svg">
<path d="M10.9994 2.29169C6.20076 2.29169 2.29111 6.20134 2.29111 11C2.28939 11.1215 2.31183 11.2421 2.35713 11.3548C2.40242 11.4675 2.46967 11.5701 2.55496 11.6566C2.64025 11.7431 2.74188 11.8118 2.85395 11.8587C2.96602 11.9056 3.08629 11.9297 3.20777 11.9297C3.32926 11.9297 3.44953 11.9056 3.56159 11.8587C3.67366 11.8118 3.7753 11.7431 3.86059 11.6566C3.94588 11.5701 4.01313 11.4675 4.05842 11.3548C4.10372 11.2421 4.12616 11.1215 4.12444 11C4.12444 7.19211 7.19153 4.12502 10.9994 4.12502C12.5461 4.12502 13.9606 4.64092 15.1056 5.50002H14.6661C14.5446 5.4983 14.424 5.52074 14.3113 5.56604C14.1986 5.61134 14.096 5.67858 14.0095 5.76387C13.923 5.84916 13.8543 5.9508 13.8074 6.06287C13.7605 6.17494 13.7364 6.29521 13.7364 6.41669C13.7364 6.53817 13.7605 6.65844 13.8074 6.77051C13.8543 6.88258 13.923 6.98421 14.0095 7.0695C14.096 7.15479 14.1986 7.22204 14.3113 7.26733C14.424 7.31263 14.5446 7.33507 14.6661 7.33335H17.4161C17.6592 7.33333 17.8924 7.23674 18.0643 7.06484C18.2362 6.89294 18.3327 6.65979 18.3328 6.41669V3.66669C18.3344 3.54412 18.3115 3.42247 18.2654 3.30892C18.2192 3.19536 18.1508 3.09222 18.064 3.00559C17.9773 2.91896 17.8741 2.8506 17.7605 2.80455C17.6469 2.7585 17.5252 2.73569 17.4027 2.73749C17.1597 2.74105 16.9281 2.84092 16.7587 3.01515C16.5894 3.18938 16.4961 3.42373 16.4994 3.66669V4.25572C14.9994 3.03021 13.0833 2.29169 10.9994 2.29169ZM13.5068 7.78542C13.3283 7.79062 13.1588 7.86511 13.0342 7.9931L7.99252 13.0348C7.92654 13.0981 7.87387 13.174 7.83758 13.258C7.80129 13.3419 7.78212 13.4323 7.78119 13.5237C7.78026 13.6152 7.79759 13.7059 7.83216 13.7906C7.86674 13.8753 7.91786 13.9522 7.98254 14.0169C8.04722 14.0816 8.12415 14.1327 8.20883 14.1673C8.29352 14.2019 8.38425 14.2192 8.47571 14.2183C8.56718 14.2173 8.65754 14.1982 8.7415 14.1619C8.82546 14.1256 8.90134 14.0729 8.96469 14.0069L14.0064 8.96527C14.1055 8.86867 14.1733 8.74439 14.2006 8.60867C14.228 8.47296 14.2138 8.33214 14.1598 8.20464C14.1058 8.07715 14.0146 7.96892 13.8981 7.89412C13.7816 7.81932 13.6452 7.78143 13.5068 7.78542ZM8.70777 7.79169C8.46466 7.79169 8.2315 7.88826 8.05959 8.06017C7.88768 8.23208 7.79111 8.46524 7.79111 8.70835C7.79111 8.95147 7.88768 9.18463 8.05959 9.35653C8.2315 9.52844 8.46466 9.62502 8.70777 9.62502C8.95089 9.62502 9.18405 9.52844 9.35596 9.35653C9.52786 9.18463 9.62444 8.95147 9.62444 8.70835C9.62444 8.46524 9.52786 8.23208 9.35596 8.06017C9.18405 7.88826 8.95089 7.79169 8.70777 7.79169ZM18.7777 10.0708C18.5347 10.0744 18.3031 10.1743 18.1337 10.3485C17.9644 10.5227 17.8711 10.7571 17.8744 11C17.8744 14.8079 14.8073 17.875 10.9994 17.875C9.45275 17.875 8.03824 17.3591 6.89324 16.5H7.33277C7.45424 16.5017 7.57484 16.4793 7.68756 16.434C7.80028 16.3887 7.90288 16.3215 7.98938 16.2362C8.07589 16.1509 8.14458 16.0492 8.19147 15.9372C8.23835 15.8251 8.2625 15.7048 8.2625 15.5834C8.2625 15.4619 8.23835 15.3416 8.19147 15.2295C8.14458 15.1175 8.07589 15.0158 7.98938 14.9305C7.90288 14.8452 7.80028 14.778 7.68756 14.7327C7.57484 14.6874 7.45424 14.665 7.33277 14.6667H4.58277C4.33967 14.6667 4.10652 14.7633 3.93462 14.9352C3.76272 15.1071 3.66613 15.3402 3.66611 15.5834V18.3334C3.66439 18.4548 3.68683 18.5754 3.73213 18.6881C3.77742 18.8009 3.84467 18.9035 3.92996 18.99C4.01525 19.0765 4.11688 19.1452 4.22895 19.192C4.34102 19.2389 4.46129 19.2631 4.58277 19.2631C4.70426 19.2631 4.82453 19.2389 4.93659 19.192C5.04866 19.1452 5.1503 19.0765 5.23559 18.99C5.32088 18.9035 5.38813 18.8009 5.43342 18.6881C5.47872 18.5754 5.50116 18.4548 5.49944 18.3334V17.7443C6.99949 18.9698 8.91557 19.7084 10.9994 19.7084C15.7981 19.7084 19.7078 15.7987 19.7078 11C19.7094 10.8775 19.6865 10.7558 19.6404 10.6422C19.5942 10.5287 19.5258 10.4256 19.439 10.3389C19.3523 10.2523 19.2491 10.1839 19.1355 10.1379C19.0219 10.0918 18.9002 10.069 18.7777 10.0708ZM13.2911 12.375C13.048 12.375 12.8148 12.4716 12.6429 12.6435C12.471 12.8154 12.3744 13.0486 12.3744 13.2917C12.3744 13.5348 12.471 13.768 12.6429 13.9399C12.8148 14.1118 13.048 14.2084 13.2911 14.2084C13.5342 14.2084 13.7674 14.1118 13.9393 13.9399C14.1112 13.768 14.2078 13.5348 14.2078 13.2917C14.2078 13.0486 14.1112 12.8154 13.9393 12.6435C13.7674 12.4716 13.5342 12.375 13.2911 12.375Z" fill="#0CBA7A"/>
</svg>
