<svg width="14" height="14" viewBox="0 0 14 14" fill="none" xmlns="http://www.w3.org/2000/svg">
<path d="M11.2757 5.40635L11.9874 4.69469C12.7265 3.9556 12.7265 2.75277 11.9874 2.0134C11.6295 1.65581 11.1538 1.45923 10.6466 1.45923C10.1394 1.45923 9.66341 1.6561 9.30583 2.01369L8.59445 2.72506L11.2757 5.40635ZM7.97583 3.34369L2.7057 8.61381C2.59341 8.7261 2.50795 8.86465 2.45837 9.01485L1.48129 11.9668C1.42908 12.1237 1.4702 12.2967 1.58716 12.4136C1.67087 12.4971 1.78229 12.5417 1.89662 12.5417C1.9427 12.5417 1.98908 12.5344 2.03429 12.5195L4.98537 11.5421C5.13616 11.4926 5.27499 11.4071 5.38729 11.2945L10.6571 6.02469L7.97583 3.34369Z" fill="#212531"/>
</svg>
