<svg width="95" height="23" viewBox="0 0 95 23" fill="none" xmlns="http://www.w3.org/2000/svg">
<path d="M26.854 14.7432C27.2033 14.7432 27.5626 14.9029 27.9318 15.2322C28.7302 15.9307 29.6582 16.28 30.7161 16.28C31.724 16.28 32.6321 15.9607 33.4404 15.322C34.2488 14.6833 34.7877 13.875 35.0471 12.907H30.2869C29.9975 12.907 29.7381 12.7972 29.4886 12.5876C29.2391 12.3781 29.1194 12.1086 29.1194 11.7893C29.1194 11.4699 29.2291 11.1905 29.4587 10.9809C29.6782 10.7614 29.9576 10.6516 30.2969 10.6516H35.097C34.8475 9.6437 34.3186 8.81541 33.5103 8.15676C32.702 7.5081 31.7739 7.17878 30.726 7.17878C29.778 7.17878 28.9198 7.4582 28.1513 8.01705C27.8619 8.25656 27.5825 8.37631 27.3131 8.37631C27.0037 8.37631 26.7243 8.25656 26.4948 8.01705C26.2553 7.77755 26.1355 7.5081 26.1355 7.20872C26.1355 6.86942 26.2553 6.60995 26.4948 6.41037C27.6224 5.41242 29.0495 4.91345 30.746 4.91345C32.6521 4.91345 34.2588 5.57209 35.576 6.88938C36.1948 7.49812 36.6738 8.22662 37.0031 9.08485C37.3324 9.9331 37.5021 10.8213 37.5021 11.7394C37.5021 13.6953 36.8534 15.312 35.5661 16.6093C34.2588 17.9166 32.6521 18.5653 30.756 18.5653C29.8578 18.5653 28.9996 18.3956 28.1613 18.0563C27.3231 17.717 26.6045 17.2281 25.9758 16.5894C25.8162 16.4297 25.7363 16.2102 25.7363 15.9407C25.7363 15.6314 25.8561 15.3519 26.0956 15.1224C26.3052 14.8629 26.5646 14.7432 26.854 14.7432ZM51.1839 5.4723C51.3834 5.12302 51.6728 4.93341 52.062 4.89349C52.4213 4.89349 52.7207 5.00327 52.9702 5.21284C53.2097 5.4224 53.3294 5.69185 53.3294 6.01119V17.5075C53.3294 17.8168 53.2197 18.0663 53.0001 18.246C52.7806 18.4256 52.5011 18.5154 52.1718 18.5154C51.8525 18.5154 51.583 18.4256 51.3735 18.2559C51.1639 18.0863 51.0541 17.8368 51.0342 17.5274V10.003L47.6012 15.3619C47.5414 15.4817 47.4116 15.6313 47.222 15.781C47.0324 15.9407 46.8029 16.0106 46.5434 16.0106C46.1442 16.0106 45.8049 15.801 45.5355 15.3918L42.0826 10.003V17.5374C42.0726 17.8368 41.9529 18.0763 41.7333 18.246C41.5138 18.4156 41.2543 18.5054 40.945 18.5054C40.6356 18.5054 40.3662 18.4156 40.1466 18.226C39.9271 18.0364 39.8073 17.8069 39.8073 17.5175V6.04113C39.8073 5.73176 39.9071 5.46232 40.1167 5.23279C40.3262 5.00327 40.5957 4.88351 40.925 4.88351C41.3641 4.88351 41.7134 5.10306 41.9928 5.53218L46.5434 12.907L51.1839 5.4723ZM65.8736 4.98331C66.1729 4.98331 66.4124 5.0831 66.6021 5.28269C66.7917 5.48228 66.8815 5.73177 66.8815 6.03115V17.5574C66.8815 17.7969 66.7717 18.0164 66.5621 18.206C66.3526 18.4056 66.0731 18.5054 65.7239 18.5054C65.3746 18.5054 65.0952 18.4056 64.8956 18.216C64.686 18.0264 64.5862 17.8069 64.5862 17.5574V7.29853H58.8979V17.5574C58.8979 17.8168 58.7882 18.0464 58.5786 18.226C58.369 18.4156 58.0896 18.5054 57.7403 18.5054C57.421 18.5054 57.1416 18.4156 56.922 18.246C56.7025 18.0763 56.5827 17.8468 56.5827 17.5574V6.03115C56.5827 5.7617 56.6925 5.51222 56.912 5.30265C57.1316 5.09308 57.3711 4.98331 57.6505 4.98331H65.8736ZM80.3537 5.35255C80.5633 5.54216 80.673 5.80162 80.673 6.14092V17.278C80.673 17.5973 80.5633 17.8767 80.3437 18.0863C80.1242 18.3058 79.8547 18.4156 79.5354 18.4156C79.1961 18.4156 78.9266 18.3058 78.7171 18.0963C78.5075 17.8867 78.3977 17.6073 78.3977 17.278V9.51397L72.2504 17.9665C72.0907 18.1861 71.8712 18.3358 71.6017 18.3956C71.3323 18.4555 71.0728 18.4256 70.8233 18.3058C70.6138 18.206 70.4342 18.0563 70.3044 17.8468C70.1647 17.6372 70.0949 17.4276 70.0949 17.1981V5.97127C70.0949 5.66191 70.1946 5.4224 70.4042 5.24277C70.6138 5.07312 70.9032 4.98331 71.2724 4.98331C71.5918 4.98331 71.8612 5.07312 72.0608 5.25275C72.2704 5.43238 72.3702 5.67189 72.3702 5.97127V13.865L78.4875 5.48228C78.6871 5.1829 78.9765 5.02323 79.3558 4.99329C79.7549 4.97333 80.0843 5.09308 80.3537 5.35255ZM89.884 16.27C90.9119 16.27 91.84 15.9208 92.6683 15.2222C92.9876 14.9029 93.3469 14.7332 93.7361 14.7332C94.0255 14.7332 94.285 14.853 94.5345 15.0825C94.7839 15.312 94.9037 15.5815 94.9037 15.8908C94.9037 16.1603 94.8139 16.3898 94.6442 16.5594C93.3269 17.8767 91.7302 18.5354 89.8641 18.5354C87.9979 18.5354 86.4012 17.8767 85.0839 16.5594C83.7766 15.2821 83.128 13.6654 83.128 11.7094C83.128 10.8013 83.2976 9.92312 83.6269 9.07487C83.9662 8.22662 84.4453 7.49812 85.064 6.86942C86.3912 5.54216 87.9979 4.87354 89.8641 4.87354C91.5805 4.87354 92.9976 5.37251 94.0954 6.37045C94.3448 6.59 94.4646 6.86942 94.4646 7.20872C94.4646 7.49812 94.3548 7.75759 94.1353 7.99709C93.9157 8.2366 93.6563 8.35635 93.3569 8.35635C93.0874 8.35635 92.7781 8.24658 92.4388 8.03701C91.5207 7.44823 90.6624 7.15882 89.8641 7.15882C88.6366 7.15882 87.5788 7.6079 86.7106 8.50604C85.8424 9.40419 85.4033 10.462 85.4033 11.6995C85.4033 12.9469 85.8424 14.0147 86.7106 14.9228C87.6087 15.821 88.6566 16.27 89.884 16.27Z" fill="#fff"/>
<path d="M9.78027 13.3662L22.7535 0.692383L15.3687 22.9465L9.78027 13.3662Z" fill="#0097D1"/>
<path d="M9.87963 13.4659L22.7531 0.791992L0 7.578L9.87963 13.4659Z" fill="#0EB1F2"/>
<path d="M2.99316 20.152L8.58164 14.5635L11.2761 19.2538L2.99316 20.152Z" fill="#0097D1"/>
<path d="M3.09375 20.1522L8.58243 14.6636L3.9919 11.7695L3.09375 20.1522Z" fill="#0EB1F2"/>
</svg>
