<svg width="410" height="245" viewBox="0 0 410 245" fill="none" xmlns="http://www.w3.org/2000/svg">
<g clip-path="url(#clip0_24_6)">
<path d="M0 15C0 6.71572 6.71573 0 15 0H410V230C410 238.284 403.284 245 395 245H15C6.71574 245 0 238.284 0 230V15Z" fill="#08105B"/>
<path opacity="0.1" fill-rule="evenodd" clip-rule="evenodd" d="M408.8 106C405.788 106 394.034 113.483 379.339 124.759C360.536 139.185 352.533 143.369 342.08 144.237C332.488 145.034 326.678 143.316 307.38 133.976C288.849 125.008 281.162 123.177 272.514 125.672C269.339 126.589 264.75 128.791 262.315 130.568C252.712 137.574 248.933 146.805 245.619 171.35C244.465 179.898 242.53 190.425 241.32 194.742C234.92 217.568 221.792 234.934 204.382 243.609C197.308 247.134 192.686 248.171 173.521 250.53C168.632 251.132 163.443 252.397 161.991 253.339C155.925 257.278 154.128 268.587 158.166 277.409C162.174 286.165 161.745 286 180.53 286C194.567 286 197.142 285.756 196.644 284.469C192.261 273.152 197.513 265.079 211.041 262.33C233.558 257.756 239.029 255.231 250.101 244.3C256.533 237.95 259.294 234.192 262.76 227.071C268.728 214.809 270.462 207.016 271.508 187.74C272.294 173.244 272.713 170.795 275.296 165.563C279.44 157.169 283.776 154.723 294.313 154.839C303.391 154.937 309.147 157.037 321.444 164.732C334.481 172.892 340.372 175.042 349.571 174.995C356.752 174.958 358.855 174.456 366.12 171.037C370.697 168.882 379.754 163.472 386.246 159.013C392.738 154.555 400.739 149.687 404.025 148.196L410 145.485L410 125.743C410 111.99 409.636 106 408.8 106ZM407.148 180.465C399.237 175.329 390.216 178.148 376.684 189.983C366.858 198.577 360.808 201.496 351.397 202.181C340.977 202.941 334.837 200.618 322.152 191.12C309.478 181.629 304.819 180.007 297.829 182.651C288.486 186.188 283.81 197.843 284.933 214.793C286.726 241.836 276.123 259.212 253.783 265.843C238.179 270.475 232.685 274.873 232.685 282.732L232.685 286L244.505 286C255.397 286 256.379 285.831 257.015 283.845C257.918 281.028 262.732 278.628 269.157 277.794C278.67 276.557 283.766 272.786 293.037 260.121C299.553 251.218 303.142 249.036 311.262 249.036C316.344 249.036 318.67 249.571 320.993 251.277C325.66 254.703 328.911 260.122 328.906 264.462C328.9 271.359 324.896 275.88 312.152 283.386L307.827 285.933L323.01 285.967L338.191 286L341.216 279.839C349.312 263.351 369.209 238.14 395.25 211.378L410 196.221L410 189.269C410 182.939 409.745 182.152 407.148 180.465ZM406.608 221.246C401.092 226.364 391.358 239.898 386.399 249.345C382.003 257.717 374.344 276.736 372.825 283.053L372.117 286L383.411 286L394.704 286L398.113 280.095C399.989 276.848 403.431 271.799 405.762 268.876L410 263.563L410 240.831L410 218.099L406.608 221.246ZM358.692 220.059C355.33 216.726 350.378 216.627 341.17 219.71C332.328 222.669 329.475 221.586 322.764 212.722C313.461 200.435 309.262 198.763 302.493 204.653C297.623 208.89 296.635 213.616 299.195 220.421C301.557 226.697 310.545 235.643 316.477 237.621C318.856 238.413 323.638 240.492 327.104 242.241C335.178 246.313 337.915 245.754 345.981 238.38C349.378 235.274 353.859 231.875 355.94 230.825C362.191 227.671 363.036 224.363 358.692 220.059Z" fill="white"/>
</g>
<defs>
<clipPath id="clip0_24_6">
<path d="M0 15C0 6.71572 6.71573 0 15 0H410V230C410 238.284 403.284 245 395 245H15C6.71574 245 0 238.284 0 230V15Z" fill="white"/>
</clipPath>
</defs>
</svg>
