<svg width="22" height="22" viewBox="0 0 22 22" fill="none" xmlns="http://www.w3.org/2000/svg">
<circle cx="11" cy="11" r="10" fill="#FFD600"/>
<path d="M8.62598 16.4645L7.12891 15.6783L13.2744 5.65002L14.7988 6.43616L8.62598 16.4645ZM7.55273 10.9479C6.75977 10.9479 6.0944 10.6972 5.55664 10.1959C5.01888 9.69006 4.75 9.06799 4.75 8.32971C4.75 7.58232 5.01888 6.95569 5.55664 6.44983C6.0944 5.94397 6.76432 5.69104 7.56641 5.69104C8.36393 5.69104 9.0293 5.94169 9.5625 6.44299C10.0957 6.9443 10.3623 7.57092 10.3623 8.32288C10.3623 9.06571 10.0934 9.69006 9.55566 10.1959C9.02246 10.6972 8.35482 10.9479 7.55273 10.9479ZM6.8418 9.11584C7.02409 9.32548 7.26562 9.4303 7.56641 9.4303C7.86719 9.4303 8.10645 9.32776 8.28418 9.12268C8.46647 8.9176 8.55762 8.65556 8.55762 8.33655C8.55762 8.00842 8.46647 7.73726 8.28418 7.52307C8.10189 7.30432 7.86035 7.19495 7.55957 7.19495C7.25879 7.19495 7.01725 7.29976 6.83496 7.5094C6.65723 7.71903 6.56836 7.99019 6.56836 8.32288C6.56836 8.64189 6.65951 8.90621 6.8418 9.11584ZM14.3818 16.3073C13.5889 16.3073 12.9235 16.0566 12.3857 15.5553C11.848 15.0494 11.5791 14.4274 11.5791 13.6891C11.5791 12.9417 11.848 12.3151 12.3857 11.8092C12.9235 11.2988 13.5911 11.0436 14.3887 11.0436C15.1908 11.0436 15.8584 11.2942 16.3916 11.7955C16.9294 12.2968 17.1982 12.9235 17.1982 13.6754C17.1982 14.4228 16.9271 15.0494 16.3848 15.5553C15.847 16.0566 15.1794 16.3073 14.3818 16.3073ZM14.3955 14.7897C14.6963 14.7897 14.9355 14.6871 15.1133 14.4821C15.2956 14.277 15.3867 14.0149 15.3867 13.6959C15.3867 13.3632 15.2956 13.0898 15.1133 12.8756C14.931 12.6614 14.6895 12.5543 14.3887 12.5543C14.0924 12.5543 13.8532 12.6591 13.6709 12.8688C13.4932 13.0784 13.4043 13.3496 13.4043 13.6823C13.4043 14.0013 13.4954 14.2656 13.6777 14.4752C13.86 14.6849 14.0993 14.7897 14.3955 14.7897Z" fill="#25344F"/>
</svg>
