<svg width="12" height="12" viewBox="0 0 12 12" fill="none" xmlns="http://www.w3.org/2000/svg">
<path d="M5.2 0.799988C5.09391 0.799988 4.99217 0.842131 4.91716 0.917145C4.84214 0.99216 4.8 1.0939 4.8 1.19999C4.8 3.22279 2 4.79999 2 7.59999C2 9.72712 4.3054 11.1024 5.11719 11.1914C5.14442 11.1971 5.17217 11.2 5.2 11.2C5.30609 11.2 5.40783 11.1578 5.48284 11.0828C5.55786 11.0078 5.6 10.9061 5.6 10.8C5.59997 10.7406 5.5867 10.6819 5.56116 10.6283C5.53562 10.5746 5.49845 10.5273 5.45234 10.4898C5.45234 10.4896 5.45234 10.4893 5.45234 10.489C5.08834 10.1938 4.4 9.33746 4.4 8.55546C4.4 7.27186 5.6 6.79999 5.6 6.79999C4.9156 8.73599 7.15817 8.96991 7.60937 10.8867H7.61016C7.62986 10.9755 7.67922 11.0548 7.75008 11.1118C7.82094 11.1687 7.90909 11.1998 8 11.2C8.08424 11.1998 8.16626 11.173 8.23437 11.1234C8.24159 11.1182 8.24862 11.1127 8.25547 11.107C8.32057 11.0647 10 9.954 10 7.59999C10 6.63894 9.51933 4.98819 9.17344 4.25702C9.17315 4.25641 9.17294 4.25528 9.17265 4.25467C9.1724 4.25415 9.17213 4.25363 9.17187 4.25311C9.14242 4.1785 9.09121 4.11446 9.02489 4.06932C8.95858 4.02418 8.88022 4.00002 8.8 3.99999C8.70658 4.00008 8.61614 4.03286 8.54436 4.09265C8.47258 4.15244 8.424 4.23547 8.40703 4.32733C8.40703 4.32785 8.40703 4.32837 8.40703 4.32889C8.40605 4.33327 8.22233 5.1492 7.6 5.59999C7.6 3.71533 6.23934 1.76863 5.52187 0.963269C5.51111 0.948686 5.49936 0.934852 5.48672 0.921863C5.44951 0.883402 5.40496 0.852798 5.35571 0.831864C5.30646 0.810929 5.25351 0.80009 5.2 0.799988Z" fill="white"/>
</svg>
