<svg width="60" height="60" viewBox="0 0 60 60" fill="none" xmlns="http://www.w3.org/2000/svg">
<g clip-path="url(#clip0_114_6319)">
<path d="M51.0708 20.9509L24.4157 47.6056C23.2112 48.8103 21.2583 48.8103 20.0536 47.6056L4.36844 31.9205C3.16365 30.7157 3.16365 28.7627 4.36844 27.5585L31.0231 0.903336C32.2279 -0.301112 34.1809 -0.301112 35.3851 0.903336L51.0708 16.5889C52.275 17.7932 52.275 19.7461 51.0708 20.9509Z" fill="#F6874D"/>
<path d="M30.5888 6.97862L27.9769 9.59033C26.9496 10.6172 26.9496 12.2816 27.9769 13.3084C29.0038 14.3352 30.6681 14.3352 31.695 13.3084L34.3067 10.6966C35.3335 9.66993 35.3335 8.00545 34.3067 6.97862C33.2798 5.95179 31.6156 5.95179 30.5888 6.97862ZM53.5888 28.8227H15.8931C14.1895 28.8227 12.8086 30.2038 12.8086 31.9069V54.0893C12.8086 55.793 14.1895 57.1738 15.8931 57.1738H53.5888C55.2918 57.1738 56.6727 55.7929 56.6727 54.0893V31.9069C56.6727 30.2039 55.2919 28.8227 53.5888 28.8227Z" fill="#F6874D"/>
<path d="M30.5854 6.97862L27.9736 9.59033C26.9463 10.6172 26.9463 12.2816 27.9736 13.3084C29.0004 14.3352 30.6648 14.3352 31.6916 13.3084L34.3033 10.6966C35.3302 9.66993 35.3302 8.00545 34.3033 6.97862C33.2765 5.95179 31.6122 5.95179 30.5854 6.97862Z" fill="white"/>
<path d="M10.8438 37.7546H54.7079V43.0837H10.8439L10.8438 37.7546Z" fill="white"/>
<path d="M45.8913 49.6354V52.9221C45.8913 53.1764 46.0972 53.3822 46.3515 53.3822H51.5795C51.8337 53.3822 52.0396 53.1764 52.0396 52.9221V49.6354C52.0396 49.3811 51.8337 49.1753 51.5795 49.1753H46.3513C46.0971 49.1753 45.8912 49.3811 45.8912 49.6354H45.8913ZM30.1289 49.6354V52.9221C30.1289 53.0441 30.1774 53.1612 30.2637 53.2475C30.35 53.3338 30.467 53.3822 30.5891 53.3822H41.6465C41.901 53.3822 42.1067 53.1764 42.1067 52.9221V49.6354C42.1067 49.3811 41.901 49.1753 41.6465 49.1753H30.5891C30.467 49.1753 30.35 49.2238 30.2637 49.3101C30.1774 49.3964 30.1289 49.5134 30.1289 49.6354Z" fill="white"/>
<path d="M3.01504 33.2741C2.1488 32.4077 2.1488 30.9981 3.01504 30.132L24.1575 8.98978C24.2377 8.90969 24.3012 8.8146 24.3446 8.70993C24.388 8.60527 24.4103 8.49308 24.4103 8.37979C24.4103 8.2665 24.388 8.15431 24.3446 8.04965C24.3012 7.94499 24.2377 7.84989 24.1575 7.7698C24.0775 7.68961 23.9824 7.626 23.8777 7.58259C23.773 7.53919 23.6608 7.51685 23.5475 7.51685C23.4342 7.51685 23.322 7.53919 23.2173 7.58259C23.1126 7.626 23.0175 7.68961 22.9374 7.7698L1.7946 28.9121C0.255967 30.4507 0.255967 32.955 1.7946 34.4941L7.12006 39.8192C7.20008 39.8993 7.29514 39.9629 7.39979 40.0062C7.50444 40.0495 7.61661 40.0718 7.72987 40.0717C7.95098 40.0717 8.17162 39.9877 8.34015 39.8191C8.42028 39.739 8.48384 39.6439 8.52721 39.5392C8.57058 39.4345 8.5929 39.3224 8.5929 39.2091C8.5929 39.0958 8.57058 38.9836 8.52721 38.8789C8.48384 38.7743 8.42028 38.6792 8.34015 38.5991L3.01504 33.2741Z" fill="#3A3A3A"/>
<path d="M19.9764 18.2828L6.92054 31.3387C6.79991 31.4594 6.71778 31.6131 6.68452 31.7805C6.65126 31.9479 6.66837 32.1214 6.73368 32.279C6.799 32.4367 6.90959 32.5714 7.05147 32.6663C7.19336 32.7611 7.36017 32.8117 7.53082 32.8117C7.64407 32.8119 7.75624 32.7897 7.86088 32.7463C7.96551 32.703 8.06055 32.6394 8.14052 32.5592L21.1965 19.5033C21.2767 19.4232 21.3403 19.328 21.3836 19.2233C21.427 19.1186 21.4493 19.0064 21.4493 18.893C21.4493 18.7797 21.427 18.6675 21.3836 18.5628C21.3403 18.4581 21.2767 18.3629 21.1965 18.2828C20.8599 17.9462 20.3135 17.9462 19.9764 18.2828ZM27.8717 16.9032C28.766 16.9032 29.6603 16.5631 30.3411 15.8823L32.9528 13.2706C34.3144 11.909 34.3144 9.69357 32.9528 8.33198C31.5913 6.97039 29.3759 6.97039 28.0143 8.33198L25.4026 10.9437C24.7429 11.6034 24.3799 12.4801 24.3799 13.413C24.3799 14.3455 24.7429 15.2225 25.4026 15.8823C26.0833 16.5631 26.9774 16.9032 27.8717 16.9032ZM26.6226 12.1637L29.2344 9.55208C29.9232 8.86311 31.0439 8.86311 31.7324 9.55208C32.4213 10.2409 32.4213 11.3616 31.7324 12.0501L29.1206 14.6618C28.4322 15.3507 27.3115 15.3507 26.6226 14.6618C26.2892 14.3283 26.1053 13.8849 26.1053 13.413C26.1053 12.9411 26.2892 12.4973 26.6226 12.1637Z" fill="#3A3A3A"/>
<path d="M51.6231 29.9234H43.3178L49.7168 23.5245C51.256 21.9853 51.256 19.481 49.7168 17.9419L34.0312 2.25683C33.2858 1.51127 32.2944 1.10059 31.2402 1.10059C30.186 1.10059 29.1947 1.51127 28.4487 2.25672L25.3751 5.33053C25.2135 5.49239 25.1227 5.71178 25.1227 5.94052C25.1227 6.16927 25.2135 6.38866 25.3751 6.55051C25.4552 6.63064 25.5503 6.69421 25.6549 6.73758C25.7596 6.78095 25.8718 6.80327 25.9851 6.80327C26.0984 6.80327 26.2106 6.78095 26.3152 6.73758C26.4199 6.69421 26.515 6.63064 26.5951 6.55051L29.6692 3.47681C29.875 3.26982 30.1198 3.10572 30.3895 2.99403C30.6592 2.88234 30.9483 2.82528 31.2402 2.82616C31.5321 2.82536 31.8212 2.88246 32.0908 2.99415C32.3605 3.10583 32.6053 3.26988 32.8111 3.47681L48.4963 19.162C49.3627 20.0284 49.3627 21.4376 48.4963 22.3039L40.8774 29.9229H19.0734L25.3448 23.6516C25.425 23.5715 25.4885 23.4764 25.5319 23.3718C25.5753 23.2671 25.5976 23.1549 25.5976 23.0416C25.5976 22.9283 25.5753 22.8161 25.5319 22.7115C25.4885 22.6068 25.425 22.5117 25.3448 22.4316C25.2647 22.3515 25.1696 22.2879 25.065 22.2445C24.9603 22.2011 24.8481 22.1788 24.7348 22.1788C24.6215 22.1788 24.5093 22.2011 24.4046 22.2445C24.2999 22.2879 24.2048 22.3515 24.1247 22.4316L16.6335 29.9235H13.9278C11.751 29.9235 9.98047 31.6939 9.98047 33.8702V56.0529C9.98047 58.229 11.7509 60.0001 13.9278 60.0001H51.623C53.7996 60.0001 55.5702 58.229 55.5702 56.0528V52.8643C55.5702 52.3874 55.1842 52.0015 54.7074 52.0015C54.4785 52.0015 54.2591 52.0924 54.0973 52.2542C53.9355 52.416 53.8446 52.6354 53.8446 52.8643V56.053C53.8446 57.2779 52.8484 58.2746 51.623 58.2746H13.9279C12.7028 58.2746 11.7062 57.2779 11.7062 56.0529V43.9465H53.8447V49.4131C53.8447 49.6419 53.9356 49.8614 54.0974 50.0232C54.2592 50.185 54.4787 50.2759 54.7075 50.2759C54.9363 50.2759 55.1558 50.185 55.3176 50.0232C55.4794 49.8614 55.5703 49.6419 55.5703 49.4131V33.8707C55.5703 31.6939 53.7998 29.9234 51.6231 29.9234ZM13.9279 31.6489H51.6231C52.848 31.6489 53.8447 32.6457 53.8447 33.8707V36.8923H11.7063V33.8707C11.7063 32.6457 12.7028 31.649 13.9279 31.649V31.6489ZM11.7062 42.2209V38.6178H53.8447V42.2208L11.7062 42.2209Z" fill="#3A3A3A"/>
<path d="M44.387 50.2759C43.6576 50.2759 43.064 50.8695 43.064 51.5988V54.8855C43.064 55.6153 43.6576 56.2084 44.387 56.2084H49.615C50.3443 56.2084 50.9379 55.6153 50.9379 54.8855V51.5988C50.9379 50.8695 50.3443 50.2759 49.615 50.2759H44.387ZM49.2124 54.4828H44.7895V52.0014H49.2122L49.2124 54.4828ZM28.6246 50.2759C27.8952 50.2759 27.3016 50.8695 27.3016 51.5988V54.8855C27.3016 55.6153 27.8952 56.2084 28.6246 56.2084H39.682C40.4114 56.2084 41.005 55.6153 41.005 54.8855V51.5988C41.005 50.8695 40.4114 50.2759 39.682 50.2759H28.6246ZM39.2794 54.4828H29.0272V52.0014H39.2794V54.4828ZM18.1479 54.4829C17.9191 54.4829 17.6997 54.5738 17.5379 54.7356C17.3761 54.8974 17.2852 55.1169 17.2852 55.3457C17.2852 55.5745 17.3761 55.794 17.5379 55.9558C17.6997 56.1176 17.9191 56.2085 18.1479 56.2085H23.6572C23.8861 56.2085 24.1055 56.1176 24.2673 55.9558C24.4291 55.794 24.52 55.5745 24.52 55.3457C24.52 55.1169 24.4291 54.8974 24.2673 54.7356C24.1055 54.5738 23.8861 54.4829 23.6572 54.4829H18.1479Z" fill="#3A3A3A"/>
</g>
<defs>
<clipPath id="clip0_114_6319">
<rect width="60" height="60" fill="white"/>
</clipPath>
</defs>
</svg>
