<svg width="277" height="125" viewBox="0 0 277 125" fill="none" xmlns="http://www.w3.org/2000/svg">
<path d="M81.924 23.6994C90.6656 21.5459 100.136 20.2693 110.012 20.1887C116.89 20.1887 123.609 20.7481 130.003 21.9441C131.219 22.1036 132.27 21.6249 132.917 20.7481C138.907 11.8908 149.673 6.46359 162.461 5.10802C164.727 4.94844 164.889 1.59572 162.542 1.27657C157.039 0.399731 151.372 -3.13006e-05 145.463 -3.0784e-05C119.076 0.0805818 95.6851 8.85723 81.1949 22.4228C80.6297 22.9821 81.1949 23.9396 81.924 23.6994Z" fill="#EBEBEB"/>
<path d="M2.27752 88.9735C6.89078 95.8369 14.0941 95.5967 15.0656 95.5177C17.8981 95.3582 21.6217 95.118 25.7501 94.7988C32.9534 94.2411 41.4527 93.6818 49.3048 93.3627C54.7273 93.2031 58.5313 91.6863 63.2265 89.852C64.3602 89.4522 65.4922 88.9735 66.7061 88.4948C82.248 82.5905 98.922 79.4779 115.354 79.3184C126.847 79.2394 136.721 79.8777 145.382 81.3139C157.848 83.3884 166.508 85.3033 185.529 94.0816C189.253 95.8369 193.057 97.5922 196.781 99.3475C205.847 103.656 214.911 107.886 224.057 111.636C226.649 112.913 229.239 114.03 231.99 115.147C244.132 119.936 256.92 123.606 271.813 124.324C282.093 124.883 291.644 122.968 296.015 121.611C312.609 116.824 327.26 109.641 338.591 100.386C338.834 100.226 339.076 99.9858 339.401 99.7473C340.695 98.6286 339.723 96.6348 338.105 97.0329C324.183 99.9858 311.962 97.7518 304.514 90.6499C304.514 90.5692 304.352 90.4097 304.11 90.2501C303.058 89.2926 301.52 89.2137 300.386 90.0905C290.511 97.4326 278.612 103.577 265.095 107.807C255.869 110.758 240.651 110.998 231.424 108.524C223.653 106.449 217.988 104.375 212.97 102.06C203.984 97.0329 194.515 90.8884 187.796 86.2607C184.882 84.2652 181.645 81.9522 178.246 79.4779C166.185 70.8592 151.454 60.3272 140.687 54.2617C127.17 46.6021 121.423 44.3664 106.45 40.0579C95.5227 36.9454 84.0288 35.909 72.7774 35.2706C62.9021 35.1111 42.9909 36.7858 35.9481 41.0154C22.8357 48.9958 16.6039 56.3363 8.10467 66.4718C6.81048 67.9869 5.51461 69.5826 4.13848 71.1784C0.981594 75.0098 -2.33744 82.1118 2.27752 88.9735Z" fill="#EBEBEB"/>
<path d="M161.247 111.796C147.648 112.514 135.589 108.605 127.737 99.9073C127.008 99.1077 125.876 98.8692 124.823 99.1077C115.354 101.901 104.831 103.497 93.8221 103.497C88.642 103.497 83.5423 103.258 78.6046 102.539C77.7151 102.38 77.3104 103.497 78.0394 103.976C92.2036 113.473 111.792 119.218 133.322 119.218C143.439 119.218 153.072 118.02 161.814 115.626C164.162 115.069 163.675 111.716 161.247 111.796Z" fill="#EBEBEB"/>
</svg>
