<svg width="277" height="125" viewBox="0 0 277 125" fill="none" xmlns="http://www.w3.org/2000/svg">
<path d="M81.9257 23.6994C90.6673 21.5459 100.138 20.2693 110.013 20.1887C116.892 20.1887 123.611 20.7481 130.005 21.9441C131.22 22.1036 132.272 21.6249 132.919 20.7481C138.908 11.8908 149.675 6.46359 162.463 5.10802C164.729 4.94844 164.891 1.59572 162.543 1.27657C157.041 0.399731 151.374 -3.13006e-05 145.465 -3.0784e-05C119.078 0.0805818 95.6868 8.85723 81.1966 22.4228C80.6314 22.9821 81.1967 23.9396 81.9257 23.6994Z" fill="#EBEBEB"/>
<path d="M2.2774 88.9735C6.89065 95.8369 14.094 95.5967 15.0655 95.5177C17.898 95.3582 21.6216 95.118 25.75 94.7988C32.9533 94.2411 41.4525 93.6818 49.3047 93.3627C54.7272 93.2031 58.5312 91.6863 63.2264 89.852C64.36 89.4522 65.492 88.9735 66.706 88.4948C82.2479 82.5905 98.9219 79.4779 115.353 79.3184C126.847 79.2394 136.721 79.8777 145.382 81.3139C157.848 83.3884 166.507 85.3033 185.529 94.0816C189.253 95.8369 193.057 97.5922 196.78 99.3475C205.846 103.656 214.911 107.886 224.057 111.636C226.649 112.913 229.239 114.03 231.989 115.147C244.132 119.936 256.92 123.606 271.813 124.324C282.093 124.883 291.644 122.968 296.015 121.611C312.609 116.824 327.26 109.641 338.591 100.386C338.834 100.226 339.076 99.9858 339.401 99.7473C340.695 98.6286 339.723 96.6348 338.105 97.0329C324.183 99.9858 311.962 97.7518 304.514 90.6499C304.514 90.5692 304.352 90.4097 304.11 90.2501C303.058 89.2926 301.52 89.2137 300.386 90.0905C290.511 97.4326 278.612 103.577 265.095 107.807C255.868 110.758 240.651 110.998 231.424 108.524C223.652 106.449 217.987 104.375 212.97 102.06C203.984 97.0329 194.515 90.8884 187.796 86.2607C184.882 84.2652 181.645 81.9522 178.245 79.4779C166.185 70.8592 151.454 60.3272 140.687 54.2617C127.17 46.6021 121.423 44.3664 106.45 40.0579C95.5225 36.9454 84.0287 35.909 72.7772 35.2706C62.9019 35.1111 42.9908 36.7858 35.948 41.0154C22.8355 48.9958 16.6038 56.3363 8.10455 66.4718C6.81036 67.9869 5.51449 69.5826 4.13836 71.1784C0.981472 75.0098 -2.33756 82.1118 2.2774 88.9735Z" fill="#EBEBEB"/>
<path d="M161.248 111.796C147.649 112.514 135.59 108.605 127.738 99.9073C127.009 99.1077 125.877 98.8692 124.823 99.1077C115.354 101.901 104.832 103.497 93.8229 103.497C88.6428 103.497 83.543 103.258 78.6054 102.539C77.7158 102.38 77.3111 103.497 78.0402 103.976C92.2044 113.473 111.793 119.218 133.322 119.218C143.44 119.218 153.073 118.02 161.815 115.626C164.162 115.069 163.676 111.716 161.248 111.796Z" fill="#EBEBEB"/>
</svg>
