<svg width="44" height="44" viewBox="0 0 44 44" fill="none" xmlns="http://www.w3.org/2000/svg">
<g clip-path="url(#clip0_127_25265)">
<path d="M14.6094 29.392V34.1172H2.57812C1.15423 34.1172 0 35.2714 0 36.6953V41.4218C0 42.8457 1.15423 44 2.57812 44H14.5187C16.4545 44 18.2622 43.0325 19.3359 41.4218H31.5391V31.9687H19.3359C18.279 30.3833 16.5107 29.4217 14.6094 29.392Z" fill="#AB3541"/>
<path d="M2.57812 19.3359V31.5391H12.0312V19.3359C13.6167 18.279 14.5783 16.5107 14.608 14.6094H9.88281V2.57812C9.88281 1.15423 8.72859 0 7.30469 0H2.57812C1.15423 0 0 1.15423 0 2.57812V14.5187C0 16.4545 0.967484 18.2621 2.57812 19.3359Z" fill="#AB3541"/>
<path d="M41.4219 0H29.4813C27.5455 0 25.7379 0.967484 24.6641 2.57812H12.4609V12.0312H24.6641C25.721 13.6167 27.4893 14.5783 29.3906 14.608V9.88281H41.4219C42.8458 9.88281 44 8.72859 44 7.30469V2.57812C44 1.15423 42.8458 0 41.4219 0Z" fill="#AB3541"/>
<path d="M41.4218 24.6641V12.4609H31.9687V24.6641C30.3833 25.721 29.4217 27.4893 29.392 29.3906H34.1172V41.4219C34.1172 42.8458 35.2714 44 36.6953 44H41.4218C42.8457 44 44 42.8458 44 41.4219V29.4813C44 27.5455 43.0325 25.7379 41.4218 24.6641Z" fill="#AB3541"/>
</g>
<defs>
<clipPath id="clip0_127_25265">
<rect width="44" height="44" fill="white"/>
</clipPath>
</defs>
</svg>
