<svg width="35" height="35" viewBox="0 0 35 35" fill="none" xmlns="http://www.w3.org/2000/svg">
<path fill-rule="evenodd" clip-rule="evenodd" d="M2.00198 3.9286C1.3661 4.20553 1.15979 5.07978 1.60536 5.60929C1.91304 5.97501 1.95672 5.98335 3.74856 6.01992C5.34161 6.05246 5.43375 6.06155 5.63651 6.20613C5.75374 6.28974 5.90161 6.43746 5.96504 6.53426C6.03839 6.64623 6.75234 10.0894 7.92491 15.9867C8.93943 21.0887 9.80212 25.3856 9.84211 25.5354C10.1285 26.6087 11.1936 27.5917 12.3232 27.8254C12.5567 27.8737 15.5216 27.8911 21.4316 27.8789C30.1605 27.8608 30.1943 27.8602 30.3824 27.7198C30.7411 27.452 30.8531 27.2335 30.8531 26.8012C30.8531 26.3689 30.7411 26.1504 30.3824 25.8826C30.1946 25.7424 30.1481 25.7414 21.4316 25.7074C13.2829 25.6756 12.6543 25.665 12.4527 25.5546C12.0559 25.3376 11.9633 25.1174 11.7098 23.7896C11.5797 23.1075 11.4732 22.5217 11.4732 22.4878C11.4732 22.4515 15.176 22.4262 20.4823 22.4262C30.4013 22.4262 29.8602 22.4486 30.6966 22.0028C30.9194 21.8841 31.2619 21.6119 31.4661 21.3913C32.1337 20.6702 32.1722 20.5465 32.9719 16.5473C33.3667 14.5734 33.6898 12.788 33.6898 12.5797C33.6904 11.0977 32.5501 9.68474 31.1061 9.37808C30.8463 9.32291 27.6444 9.30117 19.7868 9.30117H8.82971L8.50849 7.71182C8.13962 5.88676 7.99162 5.50244 7.41959 4.88461C6.99262 4.42339 6.44581 4.09731 5.83065 3.93708C5.29136 3.7966 2.32012 3.79004 2.00198 3.9286ZM9.28567 11.5399C9.28567 11.5681 9.6747 13.5369 10.1503 15.9149L11.015 20.2387H20.1294C28.3931 20.2387 29.2698 20.2283 29.5222 20.1273C30.0405 19.9199 30.0475 19.8977 30.8232 16.0113L31.5297 12.4722L31.3623 12.1342C31.2342 11.8757 31.1232 11.7601 30.8898 11.6425L30.5848 11.4887H19.9352C14.078 11.4887 9.28567 11.5118 9.28567 11.5399ZM12.9395 14.8656C12.4871 15.0637 12.2265 15.5878 12.3234 16.1044C12.3834 16.4239 12.7247 16.8016 13.0347 16.8915C13.2057 16.9409 15.6086 16.9574 20.6454 16.9435C27.9573 16.9234 28.0074 16.9223 28.1949 16.7823C28.5536 16.5145 28.6656 16.296 28.6656 15.8637C28.6656 15.4314 28.5536 15.2129 28.1949 14.9451C28.0072 14.8049 27.9621 14.804 20.5771 14.7892C14.5052 14.777 13.1099 14.791 12.9395 14.8656ZM14.0332 29.0849C13.3435 29.3852 13.1806 30.3021 13.721 30.8424C14.489 31.6105 15.7475 30.9226 15.5455 29.8451C15.4245 29.2008 14.6552 28.8139 14.0332 29.0849ZM27.1582 29.0849C26.4685 29.3852 26.3056 30.3021 26.846 30.8424C27.614 31.6105 28.8725 30.9226 28.6705 29.8451C28.5495 29.2008 27.7802 28.8139 27.1582 29.0849Z" fill="white"/>
</svg>
