<svg width="35" height="35" viewBox="0 0 35 35" fill="none" xmlns="http://www.w3.org/2000/svg">
<path fill-rule="evenodd" clip-rule="evenodd" d="M9.46418 4.03888C6.01598 4.44406 3.27061 6.96801 2.33195 10.5959C1.48625 13.8641 2.26321 17.2782 4.58561 20.4985C6.01446 22.4799 8.20738 24.6416 10.8714 26.6947C13.123 28.4301 16.7986 30.8852 17.2858 30.9792C17.6537 31.0502 17.9078 30.9556 18.7345 30.4401C24.8089 26.652 29.1299 22.7848 31.2409 19.2468C32.4894 17.1544 33.0893 14.9205 32.9893 12.7362C32.7912 8.40968 30.1156 4.99383 26.2698 4.15768C25.4717 3.98412 23.9748 3.96786 23.2068 4.12429C21.8316 4.40444 20.8136 4.88101 19.7027 5.76481C19.1305 6.22008 18.3103 7.11173 17.8644 7.76323C17.6943 8.01167 17.5317 8.21488 17.503 8.21488C17.4742 8.21488 17.3116 8.01167 17.1415 7.76323C16.0341 6.14501 14.3887 4.87372 12.7401 4.36251C11.7696 4.06156 10.4123 3.9275 9.46418 4.03888ZM9.73144 6.53754C8.4165 6.68338 7.29088 7.24018 6.35483 8.20777C5.28499 9.31373 4.65804 10.7369 4.47847 12.4668C4.07949 16.3115 6.60852 20.2566 12.2946 24.6595C13.5538 25.6345 15.115 26.7417 16.425 27.5884L17.503 28.2852L18.5809 27.5884C19.8909 26.7417 21.4521 25.6345 22.7114 24.6595C27.0823 21.2749 29.5591 18.1979 30.3122 15.2165C30.8494 13.0895 30.4981 10.8011 29.3702 9.07937C28.8247 8.24677 27.8357 7.38627 26.9735 6.99399C25.8583 6.4867 24.3455 6.36946 23.1658 6.69883C21.3241 7.21308 19.7492 8.82975 18.7739 11.2073C18.5899 11.6558 18.4572 11.8836 18.2886 12.0403C18.0773 12.2366 17.7352 12.3881 17.503 12.3881C17.2708 12.3881 16.9286 12.2366 16.7173 12.0403C16.5487 11.8836 16.416 11.6558 16.2321 11.2073C14.8877 7.93037 12.5185 6.22842 9.73144 6.53754Z" fill="white"/>
</svg>
