<svg width="30" height="30" viewBox="0 0 30 30" fill="none" xmlns="http://www.w3.org/2000/svg">
<path d="M20.625 3.75C17.0063 3.75 15 6.3625 15 6.3625C15 6.3625 12.9937 3.75 9.375 3.75C5.5775 3.75 2.5 6.8275 2.5 10.625C2.5 15.8387 8.64 20.8913 10.3513 22.4875C12.3225 24.325 15 26.6875 15 26.6875C15 26.6875 17.6775 24.325 19.6488 22.4875C21.36 20.8913 27.5 15.8387 27.5 10.625C27.5 6.8275 24.4225 3.75 20.625 3.75ZM18.5138 20.1375C18.2925 20.3375 18.1 20.5112 17.9437 20.6575C17.005 21.5325 15.895 22.5362 15 23.3387C14.105 22.5362 12.9938 21.5312 12.0563 20.6575C11.8988 20.5112 11.7063 20.3363 11.4862 20.1375C9.71125 18.5338 5 14.2738 5 10.625C5 8.2125 6.9625 6.25 9.375 6.25C11.6587 6.25 12.9825 7.84375 13.0175 7.885L15 10L16.9825 7.885C16.995 7.86875 18.3413 6.25 20.625 6.25C23.0375 6.25 25 8.2125 25 10.625C25 14.2738 20.2887 18.5338 18.5138 20.1375Z" fill="white"/>
</svg>
