<svg width="16" height="16" viewBox="0 0 16 16" fill="none" xmlns="http://www.w3.org/2000/svg">
<path d="M8.00044 0.336243C7.93084 0.336243 7.86152 0.358318 7.80232 0.403118L0.44232 6.14749C0.30472 6.25629 0.279145 6.45732 0.387945 6.59812C0.496745 6.73572 0.69777 6.76129 0.83857 6.65249L1.28045 6.30749V14.72C1.28045 14.896 1.42445 15.04 1.60045 15.04H6.08044V9.27999H9.92044V15.04H14.4004C14.5764 15.04 14.7204 14.896 14.7204 14.72V6.30749L15.1623 6.65249C15.2231 6.69729 15.29 6.71999 15.3604 6.71999C15.4564 6.71999 15.5489 6.67812 15.6129 6.59812C15.7217 6.45732 15.6962 6.25629 15.5586 6.14749L8.19857 0.403118C8.13937 0.358318 8.07004 0.336243 8.00044 0.336243ZM11.2004 1.59999V1.93624L13.1204 3.43374V1.59999H11.2004Z" fill="#ED1E26"/>
</svg>
