<svg width="22" height="22" viewBox="0 0 22 22" fill="none" xmlns="http://www.w3.org/2000/svg">
<path d="M10.9997 1.83331C5.9452 1.83331 1.83301 5.94551 1.83301 11C1.83301 16.0544 5.9452 20.1666 10.9997 20.1666C16.0541 20.1666 20.1663 16.0544 20.1663 11C20.1663 5.94551 16.0541 1.83331 10.9997 1.83331ZM10.9997 3.20831C15.311 3.20831 18.7913 6.68862 18.7913 11C18.7913 15.3113 15.311 18.7916 10.9997 18.7916C6.68831 18.7916 3.20801 15.3113 3.20801 11C3.20801 6.68862 6.68831 3.20831 10.9997 3.20831ZM10.9997 6.41665C10.7566 6.41665 10.5234 6.51322 10.3515 6.68513C10.1796 6.85704 10.083 7.0902 10.083 7.33331C10.083 7.57643 10.1796 7.80959 10.3515 7.98149C10.5234 8.1534 10.7566 8.24998 10.9997 8.24998C11.2428 8.24998 11.4759 8.1534 11.6479 7.98149C11.8198 7.80959 11.9163 7.57643 11.9163 7.33331C11.9163 7.0902 11.8198 6.85704 11.6479 6.68513C11.4759 6.51322 11.2428 6.41665 10.9997 6.41665ZM10.9889 9.61513C10.8068 9.61798 10.6332 9.69302 10.5063 9.82377C10.3794 9.95452 10.3096 10.1303 10.3122 10.3125V15.3541C10.3109 15.4452 10.3277 15.5357 10.3617 15.6202C10.3957 15.7048 10.4461 15.7817 10.5101 15.8466C10.574 15.9115 10.6503 15.963 10.7343 15.9982C10.8184 16.0333 10.9086 16.0514 10.9997 16.0514C11.0908 16.0514 11.181 16.0333 11.265 15.9982C11.3491 15.963 11.4253 15.9115 11.4893 15.8466C11.5533 15.7817 11.6037 15.7048 11.6377 15.6202C11.6716 15.5357 11.6885 15.4452 11.6872 15.3541V10.3125C11.6885 10.2205 11.6713 10.1291 11.6367 10.0439C11.6021 9.95859 11.5507 9.88115 11.4855 9.81612C11.4204 9.75109 11.3429 9.69979 11.2576 9.66527C11.1723 9.63074 11.0809 9.61369 10.9889 9.61513Z" fill="#04A3E9"/>
</svg>
