<svg width="22" height="22" viewBox="0 0 22 22" fill="none" xmlns="http://www.w3.org/2000/svg">
<path d="M10.9997 1.83331C6.70475 1.83331 3.20801 5.33005 3.20801 9.62498C3.20801 11.5531 3.91536 13.3214 5.07715 14.681L5.08073 14.6845L5.08341 14.6881C5.08341 14.6881 8.39805 18.4704 9.57812 19.5964C10.3684 20.3498 11.6301 20.3498 12.4203 19.5964C13.7654 18.3134 16.9168 14.6863 16.9168 14.6863L16.9186 14.6837L16.9213 14.681C18.0841 13.3213 18.7913 11.5531 18.7913 9.62498C18.7913 5.33005 15.2946 1.83331 10.9997 1.83331ZM10.9997 3.20831C14.5514 3.20831 17.4163 6.07324 17.4163 9.62498C17.4163 11.2178 16.8359 12.6649 15.8757 13.7876C15.8695 13.7947 12.6451 17.4824 11.4714 18.6019C11.1992 18.8614 10.7992 18.8614 10.527 18.6019C9.54611 17.6659 6.13268 13.7989 6.12272 13.7876L6.12183 13.7867C5.16295 12.6641 4.58301 11.2173 4.58301 9.62498C4.58301 6.07324 7.44793 3.20831 10.9997 3.20831ZM10.9997 6.87498C10.1403 6.87498 9.40871 7.222 8.93896 7.75047C8.46921 8.27894 8.24967 8.95658 8.24967 9.62498C8.24967 10.2934 8.46921 10.971 8.93896 11.4995C9.40871 12.028 10.1403 12.375 10.9997 12.375C11.859 12.375 12.5906 12.028 13.0604 11.4995C13.5301 10.971 13.7497 10.2934 13.7497 9.62498C13.7497 8.95658 13.5301 8.27894 13.0604 7.75047C12.5906 7.222 11.859 6.87498 10.9997 6.87498ZM10.9997 8.24998C11.5153 8.24998 11.815 8.41858 12.0327 8.66355C12.2505 8.90852 12.3747 9.26213 12.3747 9.62498C12.3747 9.98783 12.2505 10.3414 12.0327 10.5864C11.815 10.8314 11.5153 11 10.9997 11C10.484 11 10.1844 10.8314 9.96663 10.5864C9.74888 10.3414 9.62467 9.98783 9.62467 9.62498C9.62467 9.26213 9.74888 8.90852 9.96663 8.66355C10.1844 8.41858 10.484 8.24998 10.9997 8.24998Z" fill="#04A3E9"/>
</svg>
