<svg width="26" height="26" viewBox="0 0 26 26" fill="none" xmlns="http://www.w3.org/2000/svg">
<path d="M12.9993 2.16669C7.02588 2.16669 2.16602 7.02656 2.16602 13C2.16602 18.9735 7.02588 23.8334 12.9993 23.8334C18.9728 23.8334 23.8327 18.9735 23.8327 13C23.8327 7.02656 18.9728 2.16669 12.9993 2.16669ZM12.9993 3.79169C18.0946 3.79169 22.2077 7.90477 22.2077 13C22.2077 18.0953 18.0946 22.2084 12.9993 22.2084C7.9041 22.2084 3.79102 18.0953 3.79102 13C3.79102 7.90477 7.9041 3.79169 12.9993 3.79169ZM16.2493 5.95835C16.1057 5.95835 15.9679 6.01542 15.8663 6.117C15.7647 6.21859 15.7077 6.35636 15.7077 6.50002C15.7077 6.64368 15.7647 6.78145 15.8663 6.88304C15.9679 6.98462 16.1057 7.04169 16.2493 7.04169C16.393 7.04169 16.5308 6.98462 16.6324 6.88304C16.7339 6.78145 16.791 6.64368 16.791 6.50002C16.791 6.35636 16.7339 6.21859 16.6324 6.117C16.5308 6.01542 16.393 5.95835 16.2493 5.95835ZM10.0297 6.22919C7.95897 6.22903 6.22852 7.88753 6.22852 9.94362C6.22852 10.9372 6.63309 11.8466 7.28117 12.5091H7.28223C7.429 12.659 7.4842 12.8457 7.45996 12.9799C7.40955 13.2591 7.40579 13.5541 7.45573 13.8506C7.61201 14.7863 8.31866 15.482 9.20768 15.7782V16.7917C8.92036 16.7917 8.64481 16.9058 8.44165 17.109C8.23849 17.3122 8.12435 17.5877 8.12435 17.875C8.12435 18.1623 8.23849 18.4379 8.44165 18.6411C8.64481 18.8442 8.92036 18.9584 9.20768 18.9584C9.36131 18.958 9.51311 18.925 9.65301 18.8616C9.79291 18.7981 9.91771 18.7056 10.0191 18.5902C10.1208 18.7058 10.2459 18.7985 10.3862 18.862C10.5265 18.9255 10.6787 18.9583 10.8327 18.9584C11.12 18.9584 11.3955 18.8442 11.5987 18.6411C11.8019 18.4379 11.916 18.1623 11.916 17.875C11.916 17.5877 11.8019 17.3122 11.5987 17.109C11.3955 16.9058 11.12 16.7917 10.8327 16.7917V15.8057C11.8473 15.4606 12.6206 14.547 12.6206 13.4253C12.6206 13.321 12.6135 13.2161 12.6005 13.1122C12.5669 12.8441 12.6292 12.6432 12.7677 12.5007C13.5376 11.7087 13.9576 10.5587 13.7653 9.35118C13.5024 7.70008 12.1201 6.43186 10.4476 6.2514C10.3069 6.23627 10.1678 6.2292 10.0297 6.22919ZM14.6243 7.58335C14.4807 7.58335 14.3429 7.64042 14.2413 7.742C14.1397 7.84359 14.0827 7.98136 14.0827 8.12502C14.0827 8.26868 14.1397 8.40645 14.2413 8.50804C14.3429 8.60962 14.4807 8.66669 14.6243 8.66669C14.768 8.66669 14.9058 8.60962 15.0074 8.50804C15.1089 8.40645 15.166 8.26868 15.166 8.12502C15.166 7.98136 15.1089 7.84359 15.0074 7.742C14.9058 7.64042 14.768 7.58335 14.6243 7.58335ZM9.7832 7.86371C9.9413 7.84805 10.1049 7.8488 10.273 7.86688C11.2211 7.96918 12.0192 8.72004 12.1604 9.6072C12.2714 10.3042 12.0398 10.917 11.6018 11.3676C11.0761 11.9087 10.9048 12.6485 10.9882 13.3142C10.9925 13.3489 10.9956 13.3866 10.9956 13.4253C10.9956 14.0003 10.4863 14.4693 9.79907 14.3309C9.42605 14.2557 9.11648 13.9299 9.05851 13.5829V13.5819C9.0395 13.4696 9.04079 13.3669 9.05851 13.2687C9.18919 12.545 8.91351 11.8535 8.44279 11.3729C8.07362 10.9955 7.85352 10.5003 7.85352 9.94362C7.85352 8.86723 8.67652 7.97334 9.7832 7.86371ZM16.791 8.12502C16.6474 8.12502 16.5096 8.18209 16.408 8.28367C16.3064 8.38525 16.2493 8.52303 16.2493 8.66669C16.2493 8.81035 16.3064 8.94812 16.408 9.0497C16.5096 9.15129 16.6474 9.20835 16.791 9.20835C16.9347 9.20835 17.0724 9.15129 17.174 9.0497C17.2756 8.94812 17.3327 8.81035 17.3327 8.66669C17.3327 8.52303 17.2756 8.38525 17.174 8.28367C17.0724 8.18209 16.9347 8.12502 16.791 8.12502ZM18.416 9.20835C18.2724 9.20835 18.1346 9.26542 18.033 9.367C17.9314 9.46859 17.8743 9.60636 17.8743 9.75002C17.8743 9.89368 17.9314 10.0315 18.033 10.133C18.1346 10.2346 18.2724 10.2917 18.416 10.2917C18.5597 10.2917 18.6974 10.2346 18.799 10.133C18.9006 10.0315 18.9577 9.89368 18.9577 9.75002C18.9577 9.60636 18.9006 9.46859 18.799 9.367C18.6974 9.26542 18.5597 9.20835 18.416 9.20835ZM15.7077 9.75002C15.564 9.75002 15.4262 9.80709 15.3247 9.90867C15.2231 10.0103 15.166 10.148 15.166 10.2917C15.166 10.4353 15.2231 10.5731 15.3247 10.6747C15.4262 10.7763 15.564 10.8334 15.7077 10.8334C15.8513 10.8334 15.9891 10.7763 16.0907 10.6747C16.1923 10.5731 16.2493 10.4353 16.2493 10.2917C16.2493 10.148 16.1923 10.0103 16.0907 9.90867C15.9891 9.80709 15.8513 9.75002 15.7077 9.75002ZM18.4689 11.1201C18.3384 11.1295 18.21 11.1536 18.0881 11.1931C17.6002 11.3507 17.1673 11.6706 16.6979 12.1441C16.321 12.5241 16.2358 12.511 15.8494 12.6689C15.4631 12.8268 14.892 13.1265 14.1927 13.8495C13.217 14.8587 12.8269 15.8641 12.7465 16.6647C12.668 17.4464 12.9006 18.0744 12.9253 18.1469C13.3924 19.9406 16.0621 20.4687 18.0341 18.5087C19.4847 17.0665 20.1729 15.3714 20.2949 13.8654C20.3675 12.9707 20.3288 12.0511 19.5586 11.43C19.366 11.2748 19.1199 11.176 18.8614 11.1359C18.7321 11.1159 18.5994 11.1106 18.4689 11.1201ZM18.5483 12.7683C18.5373 12.795 18.722 13.1575 18.6752 13.7342C18.5849 14.8478 18.0702 16.1816 16.8883 17.3566C15.4949 18.7415 14.5093 17.8099 14.491 17.7364L14.4836 17.7089L14.4752 17.6825C14.4019 17.4564 14.3198 17.2682 14.3641 16.8266C14.4084 16.385 14.5992 15.767 15.3607 14.9794C15.937 14.3835 16.152 14.3008 16.4641 14.1733C16.7762 14.0457 17.3011 13.8443 17.8521 13.2888V13.2878C18.193 12.9439 18.4353 12.8116 18.5483 12.7683Z" fill="#04A3E9"/>
</svg>
