<svg width="22" height="22" viewBox="0 0 22 22" fill="none" xmlns="http://www.w3.org/2000/svg">
<path d="M10.9997 1.83246C5.94531 1.83246 1.83301 5.94476 1.83301 10.9991C1.83301 12.5003 2.22842 13.9035 2.86963 15.1546L1.87598 18.712C1.64454 19.5386 2.46181 20.3558 3.28857 20.1246L6.84871 19.131C8.09876 19.7708 9.49989 20.1658 10.9997 20.1658C16.054 20.1658 20.1663 16.0535 20.1663 10.9991C20.1663 5.94476 16.054 1.83246 10.9997 1.83246ZM10.9997 3.20746C15.3109 3.20746 18.7913 6.68791 18.7913 10.9991C18.7913 15.3103 15.3109 18.7908 10.9997 18.7908C9.62395 18.7908 8.33703 18.4331 7.21484 17.8079C7.05666 17.7197 6.87009 17.6975 6.69564 17.7461L3.31006 18.6905L4.25537 15.3067C4.30421 15.132 4.282 14.9451 4.1936 14.7866C3.56718 13.6636 3.20801 12.3762 3.20801 10.9991C3.20801 6.68791 6.68846 3.20746 10.9997 3.20746ZM10.9997 5.95835C9.48907 5.95835 8.24967 7.19775 8.24967 8.70835C8.24839 8.79946 8.26522 8.88991 8.29919 8.97445C8.33316 9.05899 8.3836 9.13593 8.44757 9.20081C8.51153 9.26569 8.58776 9.31721 8.67181 9.35237C8.75586 9.38754 8.84606 9.40565 8.93717 9.40565C9.02829 9.40565 9.11849 9.38754 9.20254 9.35237C9.28659 9.31721 9.36282 9.26569 9.42678 9.20081C9.49075 9.13593 9.54119 9.05899 9.57516 8.97445C9.60913 8.88991 9.62596 8.79946 9.62467 8.70835C9.62467 7.94104 10.2324 7.33335 10.9997 7.33335C11.767 7.33335 12.3747 7.94104 12.3747 8.70835C12.3747 9.43537 12.0798 9.64936 11.5618 10.1335C11.0439 10.6176 10.3122 11.3697 10.3122 12.6042C10.3109 12.6953 10.3277 12.7857 10.3617 12.8703C10.3957 12.9548 10.4461 13.0318 10.5101 13.0966C10.574 13.1615 10.6503 13.213 10.7343 13.2482C10.8184 13.2834 10.9086 13.3015 10.9997 13.3015C11.0908 13.3015 11.181 13.2834 11.265 13.2482C11.3491 13.213 11.4253 13.1615 11.4893 13.0966C11.5533 13.0318 11.6037 12.9548 11.6377 12.8703C11.6716 12.7857 11.6885 12.6953 11.6872 12.6042C11.6872 11.8435 11.9867 11.6176 12.5 11.1379C13.0133 10.6581 13.7497 9.92238 13.7497 8.70835C13.7497 7.19775 12.5103 5.95835 10.9997 5.95835ZM10.9997 14.2084C10.7566 14.2084 10.5234 14.3049 10.3515 14.4768C10.1796 14.6487 10.083 14.8819 10.083 15.125C10.083 15.3681 10.1796 15.6013 10.3515 15.7732C10.5234 15.9451 10.7566 16.0417 10.9997 16.0417C11.2428 16.0417 11.4759 15.9451 11.6479 15.7732C11.8198 15.6013 11.9163 15.3681 11.9163 15.125C11.9163 14.8819 11.8198 14.6487 11.6479 14.4768C11.4759 14.3049 11.2428 14.2084 10.9997 14.2084Z" fill="#04A3E9"/>
</svg>
