<svg width="26" height="26" viewBox="0 0 26 26" fill="none" xmlns="http://www.w3.org/2000/svg">
<path d="M12.9871 1.61337C12.7717 1.61673 12.5666 1.70541 12.4166 1.85994C12.2667 2.01446 12.1842 2.22219 12.1872 2.4375V3.83822L11.5758 3.40129C11.4891 3.33599 11.3903 3.2887 11.2851 3.26221C11.1799 3.23572 11.0704 3.23057 10.9632 3.24706C10.8559 3.26354 10.7531 3.30134 10.6607 3.35821C10.5683 3.41508 10.4883 3.48988 10.4252 3.5782C10.3622 3.66651 10.3175 3.76655 10.2938 3.87241C10.27 3.97827 10.2677 4.08782 10.287 4.19459C10.3063 4.30135 10.3468 4.40318 10.406 4.49405C10.4653 4.58493 10.5421 4.66302 10.6321 4.72372L12.1872 5.83456V8.125H10.6543C10.5117 8.12503 10.3716 8.16259 10.2481 8.2339C10.1246 8.30521 10.0221 8.40776 9.95076 8.53125L9.18481 9.85897L7.20116 8.71322L7.01602 6.81104C6.99916 6.60621 6.9053 6.41538 6.75336 6.27699C6.60142 6.13859 6.40268 6.06291 6.19718 6.06519C6.08372 6.06657 5.97182 6.0917 5.86867 6.13895C5.76551 6.1862 5.6734 6.25453 5.59825 6.33955C5.52311 6.42456 5.4666 6.52436 5.43237 6.63253C5.39813 6.74071 5.38693 6.85485 5.39949 6.96761L5.47143 7.71558L4.25902 7.01522C4.16653 6.95918 4.06377 6.92217 3.95679 6.90636C3.8498 6.89054 3.74074 6.89625 3.63598 6.92313C3.53123 6.95001 3.4329 6.99754 3.34675 7.06291C3.2606 7.12829 3.18836 7.21021 3.13428 7.30386C3.0802 7.39752 3.04536 7.50103 3.0318 7.60832C3.01824 7.71562 3.02624 7.82454 3.05532 7.92871C3.0844 8.03287 3.13398 8.13018 3.20116 8.21494C3.26833 8.29969 3.35175 8.37019 3.44652 8.42228L4.65893 9.12264L3.9755 9.43368C3.87633 9.47651 3.7867 9.53869 3.71185 9.61658C3.637 9.69446 3.57843 9.78649 3.53956 9.88728C3.5007 9.98807 3.48232 10.0956 3.4855 10.2036C3.48868 10.3115 3.51336 10.4178 3.55809 10.5161C3.60282 10.6145 3.66671 10.7029 3.74602 10.7762C3.82532 10.8496 3.91846 10.9063 4.01997 10.9433C4.12149 10.9802 4.22935 10.9965 4.33724 10.9913C4.44513 10.986 4.5509 10.9593 4.64835 10.9127L6.38866 10.1213L8.37231 11.266L7.6053 12.5938C7.53399 12.7173 7.49646 12.8574 7.49646 13C7.49646 13.1426 7.53399 13.2827 7.6053 13.4063L8.37231 14.734L6.38866 15.8787L4.64835 15.0873C4.5509 15.0407 4.44513 15.014 4.33724 15.0087C4.22935 15.0035 4.12149 15.0198 4.01997 15.0567C3.91846 15.0937 3.82532 15.1505 3.74602 15.2238C3.66671 15.2971 3.60282 15.3856 3.55809 15.4839C3.51336 15.5822 3.48868 15.6885 3.4855 15.7964C3.48232 15.9044 3.5007 16.0119 3.53956 16.1127C3.57843 16.2135 3.637 16.3055 3.71185 16.3834C3.7867 16.4613 3.87633 16.5235 3.9755 16.5663L4.65893 16.8774L3.44652 17.5777C3.35175 17.6298 3.26833 17.7003 3.20116 17.7851C3.13398 17.8698 3.0844 17.9671 3.05532 18.0713C3.02624 18.1755 3.01824 18.2844 3.0318 18.3917C3.04536 18.499 3.0802 18.6025 3.13428 18.6961C3.18836 18.7898 3.2606 18.8717 3.34675 18.9371C3.4329 19.0025 3.53123 19.05 3.63598 19.0769C3.74074 19.1038 3.8498 19.1095 3.95679 19.0936C4.06377 19.0778 4.16653 19.0408 4.25902 18.9848L5.47143 18.2844L5.39949 19.0324C5.38504 19.1406 5.39255 19.2506 5.42157 19.3559C5.4506 19.4611 5.50053 19.5595 5.5684 19.645C5.63626 19.7305 5.72067 19.8015 5.81657 19.8537C5.91248 19.9059 6.01791 19.9382 6.12659 19.9487C6.23526 19.9592 6.34494 19.9477 6.44907 19.9149C6.55321 19.8821 6.64967 19.8287 6.73269 19.7578C6.8157 19.6869 6.88358 19.5999 6.93226 19.5022C6.98094 19.4045 7.00943 19.2979 7.01602 19.189L7.20116 17.2868L9.18481 16.141L9.95076 17.4688C10.0221 17.5922 10.1246 17.6948 10.2481 17.7661C10.3716 17.8374 10.5117 17.875 10.6543 17.875H12.1872V20.1654L10.6321 21.2763C10.5421 21.337 10.4653 21.4151 10.406 21.506C10.3468 21.5968 10.3063 21.6987 10.287 21.8054C10.2677 21.9122 10.27 22.0217 10.2938 22.1276C10.3175 22.2335 10.3622 22.3335 10.4252 22.4218C10.4883 22.5101 10.5683 22.5849 10.6607 22.6418C10.7531 22.6987 10.8559 22.7365 10.9632 22.753C11.0704 22.7694 11.1799 22.7643 11.2851 22.7378C11.3903 22.7113 11.4891 22.664 11.5758 22.5987L12.1872 22.1618V23.5625C12.1857 23.6702 12.2056 23.7771 12.2458 23.877C12.2859 23.9769 12.3455 24.0678 12.4211 24.1445C12.4967 24.2212 12.5868 24.2821 12.6861 24.3236C12.7855 24.3652 12.8921 24.3866 12.9997 24.3866C13.1074 24.3866 13.214 24.3652 13.3134 24.3236C13.4127 24.2821 13.5028 24.2212 13.5784 24.1445C13.654 24.0678 13.7136 23.9769 13.7537 23.877C13.7939 23.7771 13.8138 23.6702 13.8122 23.5625V22.1618L14.4237 22.5987C14.5104 22.664 14.6092 22.7113 14.7144 22.7378C14.8196 22.7643 14.9291 22.7694 15.0363 22.753C15.1435 22.7365 15.2464 22.6987 15.3388 22.6418C15.4312 22.5849 15.5112 22.5101 15.5743 22.4218C15.6373 22.3335 15.682 22.2335 15.7057 22.1276C15.7295 22.0217 15.7318 21.9122 15.7125 21.8054C15.6932 21.6987 15.6527 21.5968 15.5935 21.506C15.5342 21.4151 15.4573 21.337 15.3674 21.2763L13.8122 20.1654V17.875H15.3452C15.4878 17.875 15.6279 17.8374 15.7514 17.7661C15.8749 17.6948 15.9774 17.5922 16.0487 17.4688L16.8147 16.141L18.7983 17.2868L18.9835 19.189C18.9901 19.2979 19.0185 19.4045 19.0672 19.5022C19.1159 19.5999 19.1838 19.6869 19.2668 19.7578C19.3498 19.8287 19.4463 19.8821 19.5504 19.9149C19.6546 19.9477 19.7642 19.9592 19.8729 19.9487C19.9816 19.9382 20.087 19.9059 20.1829 19.8537C20.2788 19.8015 20.3632 19.7305 20.4311 19.645C20.499 19.5595 20.5489 19.4611 20.5779 19.3559C20.6069 19.2506 20.6145 19.1406 20.6 19.0324L20.5281 18.2844L21.7405 18.9848C21.833 19.0408 21.9357 19.0778 22.0427 19.0936C22.1497 19.1095 22.2588 19.1038 22.3635 19.0769C22.4683 19.05 22.5666 19.0025 22.6527 18.9371C22.7389 18.8717 22.8111 18.7898 22.8652 18.6961C22.9193 18.6025 22.9541 18.499 22.9677 18.3917C22.9812 18.2844 22.9733 18.1755 22.9442 18.0713C22.9151 17.9671 22.8655 17.8698 22.7983 17.7851C22.7312 17.7003 22.6477 17.6298 22.553 17.5777L21.3406 16.8774L22.024 16.5663C22.1232 16.5235 22.2128 16.4613 22.2876 16.3834C22.3625 16.3055 22.4211 16.2135 22.4599 16.1127C22.4988 16.0119 22.5172 15.9044 22.514 15.7964C22.5108 15.6885 22.4861 15.5822 22.4414 15.4839C22.3967 15.3856 22.3328 15.2971 22.2535 15.2238C22.1742 15.1504 22.081 15.0937 21.9795 15.0567C21.878 15.0198 21.7701 15.0035 21.6623 15.0087C21.5544 15.014 21.4486 15.0407 21.3511 15.0873L19.6108 15.8787L17.6272 14.734L18.3942 13.4063C18.4655 13.2827 18.503 13.1426 18.503 13C18.503 12.8574 18.4655 12.7173 18.3942 12.5938L17.6272 11.266L19.6108 10.1213L21.3511 10.9127C21.4486 10.9593 21.5544 10.986 21.6623 10.9913C21.7701 10.9965 21.878 10.9802 21.9795 10.9433C22.081 10.9064 22.1742 10.8496 22.2535 10.7762C22.3328 10.7029 22.3967 10.6145 22.4414 10.5161C22.4861 10.4178 22.5108 10.3115 22.514 10.2036C22.5172 10.0956 22.4988 9.98807 22.4599 9.88728C22.4211 9.78649 22.3625 9.69446 22.2876 9.61658C22.2128 9.53869 22.1232 9.47651 22.024 9.43368L21.3406 9.12264L22.553 8.42228C22.6477 8.37019 22.7312 8.29969 22.7983 8.21494C22.8655 8.13018 22.9151 8.03287 22.9442 7.92871C22.9733 7.82454 22.9812 7.71562 22.9677 7.60832C22.9541 7.50103 22.9193 7.39752 22.8652 7.30386C22.8111 7.21021 22.7389 7.12829 22.6527 7.06291C22.5666 6.99754 22.4683 6.95001 22.3635 6.92313C22.2588 6.89625 22.1497 6.89054 22.0427 6.90636C21.9357 6.92217 21.833 6.95918 21.7405 7.01522L20.5281 7.71558L20.6 6.96761C20.6128 6.85281 20.601 6.73659 20.5653 6.62672C20.5296 6.51685 20.4709 6.41584 20.3931 6.33044C20.3154 6.24505 20.2202 6.17721 20.1142 6.13147C20.0081 6.08573 19.8935 6.06314 19.778 6.06519C19.5767 6.06899 19.384 6.14739 19.2372 6.28519C19.0904 6.42299 19 6.61038 18.9835 6.81104L18.7983 8.71322L16.8147 9.85897L16.0487 8.53125C15.9774 8.40776 15.8749 8.30521 15.7514 8.2339C15.6279 8.16259 15.4878 8.12503 15.3452 8.125H13.8122V5.83456L15.3674 4.72372C15.4573 4.66302 15.5342 4.58493 15.5935 4.49405C15.6527 4.40318 15.6932 4.30135 15.7125 4.19459C15.7317 4.08782 15.7295 3.97827 15.7057 3.87241C15.682 3.76655 15.6373 3.66651 15.5743 3.5782C15.5112 3.48988 15.4312 3.41508 15.3388 3.35821C15.2464 3.30134 15.1435 3.26354 15.0363 3.24706C14.9291 3.23057 14.8196 3.23572 14.7144 3.26221C14.6092 3.2887 14.5104 3.33599 14.4237 3.40129L13.8122 3.83822V2.4375C13.8138 2.32875 13.7935 2.2208 13.7526 2.12004C13.7117 2.01927 13.6509 1.92775 13.574 1.8509C13.497 1.77404 13.4054 1.71342 13.3046 1.67262C13.2038 1.63181 13.0958 1.61167 12.9871 1.61337ZM11.123 9.75H12.8664C12.9537 9.76433 13.0426 9.76433 13.1299 9.75H14.8765L15.7314 11.2311C15.7664 11.3371 15.823 11.4347 15.8975 11.5178L15.8985 11.5199L16.7523 13L15.8826 14.5076C15.8249 14.5771 15.7791 14.6557 15.7472 14.7403L14.8765 16.25H13.133C13.0848 16.2417 13.036 16.2378 12.9871 16.2384C12.9473 16.2393 12.9077 16.2432 12.8686 16.25H11.123L10.2512 14.7393C10.2199 14.6564 10.1752 14.5792 10.119 14.5107L9.24722 13L10.102 11.5199C10.1773 11.436 10.2342 11.3372 10.2692 11.2301C10.2692 11.2297 10.2692 11.2294 10.2692 11.229L11.123 9.75Z" fill="#04A3E9"/>
</svg>
