<svg width="26" height="26" viewBox="0 0 26 26" fill="none" xmlns="http://www.w3.org/2000/svg">
<path d="M5.1449 2.70833C4.10763 2.70833 3.24907 3.56689 3.24907 4.60416V6.07259L2.22392 8.63598C2.17866 8.74937 2.15953 8.8715 2.16795 8.9933C2.17638 9.1151 2.21214 9.23344 2.27258 9.33951C2.27258 9.33987 2.27258 9.34022 2.27258 9.34057C2.39624 10.2045 2.74213 10.9973 3.24907 11.6575V20.8542C3.24907 22.4899 4.59252 23.8333 6.22823 23.8333H19.7699C21.4056 23.8333 22.7491 22.4899 22.7491 20.8542V11.6596C23.258 10.9976 23.6046 10.2012 23.7277 9.33422C23.787 9.22866 23.8219 9.11118 23.83 8.99037C23.838 8.86956 23.819 8.74848 23.7742 8.63598L22.7491 6.07259V4.60416C22.7491 3.56689 21.8905 2.70833 20.8532 2.70833H5.1449ZM5.1449 4.33333H20.8532C21.0131 4.33333 21.1241 4.44435 21.1241 4.60416V6.22916C21.1241 6.33245 21.1439 6.43478 21.1823 6.53068L22.1672 8.99357C21.9998 10.6359 20.6479 11.9167 18.9574 11.9167C18.0543 11.9167 17.2462 11.5535 16.6574 10.9635C16.5102 10.8159 16.312 10.7306 16.1037 10.7251C15.8954 10.7196 15.6929 10.7943 15.5381 10.9338C14.8625 11.5445 13.98 11.9167 12.9991 11.9167C12.0182 11.9167 11.1357 11.5445 10.46 10.9338C10.3052 10.7943 10.1028 10.7196 9.89444 10.7251C9.68612 10.7306 9.48788 10.8159 9.3407 10.9635C8.75196 11.5535 7.94386 11.9167 7.04073 11.9167C5.34956 11.9167 3.99784 10.6358 3.83093 8.99357L4.81588 6.53068C4.85426 6.43478 4.87401 6.33245 4.87407 6.22916V4.60416C4.87407 4.44435 4.98508 4.33333 5.1449 4.33333ZM7.31157 5.41666C7.09608 5.41666 6.88941 5.50226 6.73704 5.65464C6.58467 5.80701 6.49907 6.01367 6.49907 6.22916C6.49907 6.44465 6.58467 6.65131 6.73704 6.80369C6.88941 6.95606 7.09608 7.04166 7.31157 7.04166C7.52705 7.04166 7.73372 6.95606 7.88609 6.80369C8.03846 6.65131 8.12407 6.44465 8.12407 6.22916C8.12407 6.01367 8.03846 5.80701 7.88609 5.65464C7.73372 5.50226 7.52705 5.41666 7.31157 5.41666ZM10.0199 5.41666C9.80441 5.41666 9.59775 5.50226 9.44537 5.65464C9.293 5.80701 9.2074 6.01367 9.2074 6.22916C9.2074 6.44465 9.293 6.65131 9.44537 6.80369C9.59775 6.95606 9.80441 7.04166 10.0199 7.04166C10.2354 7.04166 10.442 6.95606 10.5944 6.80369C10.7468 6.65131 10.8324 6.44465 10.8324 6.22916C10.8324 6.01367 10.7468 5.80701 10.5944 5.65464C10.442 5.50226 10.2354 5.41666 10.0199 5.41666ZM9.93103 12.488C10.8111 13.1088 11.8411 13.5417 12.9991 13.5417C14.157 13.5417 15.187 13.1088 16.0671 12.488C16.8853 13.1072 17.8567 13.5417 18.9574 13.5417C19.7402 13.5417 20.4748 13.3515 21.1241 13.018V20.8542C21.1241 21.6115 20.5273 22.2083 19.7699 22.2083H18.9574V15.9792C18.9574 15.7637 18.8718 15.557 18.7194 15.4047C18.567 15.2523 18.3604 15.1667 18.1449 15.1667H12.9991H7.85323C7.63775 15.1667 7.4311 15.2523 7.27873 15.4047C7.12636 15.557 7.04075 15.7637 7.04073 15.9792V22.2083H6.22823C5.47086 22.2083 4.87407 21.6115 4.87407 20.8542V13.018C5.52331 13.3516 6.25764 13.5417 7.04073 13.5417C8.14142 13.5417 9.11279 13.1072 9.93103 12.488ZM8.66573 16.7917H12.1866V22.2083H8.66573V16.7917ZM13.8116 16.7917H17.3324V22.2083H13.8116V16.7917Z" fill="#04A3E9"/>
</svg>
