<svg width="22" height="22" viewBox="0 0 22 22" fill="none" xmlns="http://www.w3.org/2000/svg">
<path d="M1.60452 4.58332C1.51342 4.58203 1.42297 4.59886 1.33843 4.63284C1.25389 4.66681 1.17694 4.71724 1.11206 4.78121C1.04718 4.84518 0.995663 4.9214 0.960499 5.00546C0.925335 5.08951 0.907227 5.17971 0.907227 5.27082C0.907227 5.36193 0.925335 5.45213 0.960499 5.53619C0.995663 5.62024 1.04718 5.69646 1.11206 5.76043C1.17694 5.8244 1.25389 5.87483 1.33843 5.90881C1.42297 5.94278 1.51342 5.95961 1.60452 5.95832H8.47952C8.57062 5.95961 8.66107 5.94278 8.74561 5.90881C8.83015 5.87483 8.9071 5.8244 8.97198 5.76043C9.03686 5.69646 9.08837 5.62024 9.12354 5.53619C9.1587 5.45213 9.17681 5.36193 9.17681 5.27082C9.17681 5.17971 9.1587 5.08951 9.12354 5.00546C9.08837 4.9214 9.03686 4.84518 8.97198 4.78121C8.9071 4.71724 8.83015 4.66681 8.74561 4.63284C8.66107 4.59886 8.57062 4.58203 8.47952 4.58332H1.60452ZM11.2295 4.58332C11.1384 4.58203 11.048 4.59886 10.9634 4.63284C10.8789 4.66681 10.8019 4.71724 10.7371 4.78121C10.6722 4.84518 10.6207 4.9214 10.5855 5.00546C10.5503 5.08951 10.5322 5.17971 10.5322 5.27082C10.5322 5.36193 10.5503 5.45213 10.5855 5.53619C10.6207 5.62024 10.6722 5.69646 10.7371 5.76043C10.8019 5.8244 10.8789 5.87483 10.9634 5.90881C11.048 5.94278 11.1384 5.95961 11.2295 5.95832H12.6045C12.9925 5.95832 13.292 6.25784 13.292 6.64582V15.125H8.15188C7.84966 14.0715 6.87523 13.2917 5.72952 13.2917C4.58381 13.2917 3.60938 14.0715 3.30716 15.125H2.97952C2.59154 15.125 2.29202 14.8255 2.29202 14.4375V13.5208C2.29334 13.4288 2.27617 13.3375 2.24154 13.2522C2.2069 13.1669 2.15551 13.0895 2.09039 13.0245C2.02528 12.9594 1.94777 12.9081 1.86247 12.8736C1.77716 12.8391 1.68579 12.822 1.59378 12.8235C1.4116 12.8263 1.23799 12.9014 1.1111 13.0321C0.98421 13.1629 0.914405 13.3386 0.917018 13.5208V14.4375C0.917018 15.5684 1.84858 16.5 2.97952 16.5H3.30716C3.60938 17.5534 4.58381 18.3333 5.72952 18.3333C6.87523 18.3333 7.84966 17.5534 8.15188 16.5H13.8488C14.151 17.5534 15.1255 18.3333 16.2712 18.3333C17.4169 18.3333 18.3913 17.5534 18.6935 16.5H19.0212C20.1521 16.5 21.0837 15.5684 21.0837 14.4375V11.521C21.0837 11.2316 21.0226 10.9473 20.9064 10.6849C20.9061 10.6846 20.9058 10.6843 20.9055 10.684L19.5538 7.64216V7.64126C19.2237 6.89806 18.4826 6.41665 17.6695 6.41665H14.6437C14.5269 5.39302 13.6571 4.58332 12.6045 4.58332H11.2295ZM1.60452 7.33332C1.51342 7.33203 1.42297 7.34886 1.33843 7.38284C1.25389 7.41681 1.17694 7.46724 1.11206 7.53121C1.04718 7.59518 0.995663 7.6714 0.960499 7.75546C0.925335 7.83951 0.907227 7.92971 0.907227 8.02082C0.907227 8.11193 0.925335 8.20213 0.960499 8.28619C0.995663 8.37024 1.04718 8.44646 1.11206 8.51043C1.17694 8.5744 1.25389 8.62483 1.33843 8.65881C1.42297 8.69278 1.51342 8.70961 1.60452 8.70832H6.64619C6.73729 8.70961 6.82774 8.69278 6.91228 8.65881C6.99682 8.62483 7.07376 8.5744 7.13864 8.51043C7.20352 8.44646 7.25504 8.37024 7.2902 8.28619C7.32537 8.20213 7.34348 8.11193 7.34348 8.02082C7.34348 7.92971 7.32537 7.83951 7.2902 7.75546C7.25504 7.6714 7.20352 7.59518 7.13864 7.53121C7.07376 7.46724 6.99682 7.41681 6.91228 7.38284C6.82774 7.34886 6.73729 7.33203 6.64619 7.33332H1.60452ZM14.667 7.79165H17.6695C17.9433 7.79165 18.186 7.94981 18.297 8.19986L19.134 10.0833H14.667V7.79165ZM1.60452 10.0833C1.51342 10.082 1.42297 10.0989 1.33843 10.1328C1.25389 10.1668 1.17694 10.2172 1.11206 10.2812C1.04718 10.3452 0.995663 10.4214 0.960499 10.5055C0.925335 10.5895 0.907227 10.6797 0.907227 10.7708C0.907227 10.8619 0.925335 10.9521 0.960499 11.0362C0.995663 11.1202 1.04718 11.1965 1.11206 11.2604C1.17694 11.3244 1.25389 11.3748 1.33843 11.4088C1.42297 11.4428 1.51342 11.4596 1.60452 11.4583H4.81285C4.90395 11.4596 4.9944 11.4428 5.07894 11.4088C5.16348 11.3748 5.24043 11.3244 5.30531 11.2604C5.37019 11.1965 5.42171 11.1202 5.45687 11.0362C5.49203 10.9521 5.51014 10.8619 5.51014 10.7708C5.51014 10.6797 5.49203 10.5895 5.45687 10.5055C5.42171 10.4214 5.37019 10.3452 5.30531 10.2812C5.24043 10.2172 5.16348 10.1668 5.07894 10.1328C4.9944 10.0989 4.90395 10.082 4.81285 10.0833H1.60452ZM14.667 11.4583H19.7024C19.7044 11.4792 19.7087 11.5002 19.7087 11.521V14.4375C19.7087 14.8255 19.4092 15.125 19.0212 15.125H18.6935C18.3913 14.0715 17.4169 13.2917 16.2712 13.2917C15.6634 13.2917 15.1041 13.5113 14.667 13.8744V11.4583ZM5.72952 14.6667C6.34769 14.6667 6.83616 15.14 6.86909 15.7489C6.86516 15.7912 6.86516 15.8338 6.86909 15.876C6.83616 16.485 6.34769 16.9583 5.72952 16.9583C5.11134 16.9583 4.62288 16.485 4.58995 15.876C4.59388 15.8338 4.59388 15.7912 4.58995 15.7489C4.62288 15.14 5.11134 14.6667 5.72952 14.6667ZM16.2712 14.6667C16.9112 14.6667 17.417 15.1725 17.417 15.8125C17.417 16.4525 16.9112 16.9583 16.2712 16.9583C15.6312 16.9583 15.1254 16.4525 15.1254 15.8125C15.1254 15.1725 15.6312 14.6667 16.2712 14.6667Z" fill="#04A3E9"/>
</svg>
