<svg width="26" height="26" viewBox="0 0 26 26" fill="none" xmlns="http://www.w3.org/2000/svg">
<path d="M8.90894 1.61973C8.72767 1.62379 8.55297 1.68837 8.41264 1.80317C8.27231 1.91798 8.1744 2.07642 8.13451 2.25329C8.09461 2.43016 8.11501 2.61529 8.19246 2.77922C8.26991 2.94316 8.39997 3.07648 8.56193 3.15797C8.55826 3.1578 8.55686 3.1614 8.57357 3.18231C8.60997 3.22778 8.66667 3.29515 8.66667 3.52085C8.66667 3.56599 8.57357 3.75783 8.30273 4.09637C8.0319 4.43491 7.58333 4.92015 7.58333 5.68751C7.58333 6.50002 8.0922 7.07448 8.36304 7.34531C8.43791 7.42329 8.52758 7.48554 8.62681 7.52843C8.72604 7.57131 8.83283 7.59397 8.94092 7.59507C9.04902 7.59617 9.15624 7.57569 9.25632 7.53483C9.3564 7.49397 9.44733 7.43355 9.52376 7.35711C9.6002 7.28067 9.66062 7.18975 9.70148 7.08967C9.74234 6.98959 9.76282 6.88236 9.76172 6.77427C9.76062 6.66617 9.73797 6.55939 9.69508 6.46016C9.65219 6.36093 9.58994 6.27125 9.51196 6.19639C9.24113 5.92555 9.20833 5.95835 9.20833 5.68751C9.20833 5.64238 9.30143 5.45054 9.57227 5.11199C9.8431 4.77345 10.2917 4.28821 10.2917 3.52085C10.2917 2.93404 10.0776 2.45975 9.8431 2.16668C9.60865 1.87361 9.30037 1.71071 9.30037 1.71071C9.17957 1.64808 9.04497 1.6168 8.90894 1.61973ZM12.9714 1.61973C12.7902 1.62379 12.6155 1.68837 12.4751 1.80317C12.3348 1.91798 12.2369 2.07642 12.197 2.25329C12.1571 2.43016 12.1775 2.61529 12.255 2.77922C12.3324 2.94316 12.4625 3.07648 12.6244 3.15797C12.6208 3.1578 12.6194 3.1614 12.6361 3.18231C12.6725 3.22778 12.7292 3.29515 12.7292 3.52085C12.7292 3.56599 12.6361 3.75783 12.3652 4.09637C12.0944 4.43491 11.6458 4.92015 11.6458 5.68751C11.6458 6.50002 12.1547 7.07448 12.4255 7.34531C12.5004 7.42329 12.5901 7.48554 12.6893 7.52843C12.7885 7.57131 12.8953 7.59397 13.0034 7.59507C13.1115 7.59617 13.2187 7.57569 13.3188 7.53483C13.4189 7.49397 13.5098 7.43355 13.5863 7.35711C13.6627 7.28067 13.7231 7.18975 13.764 7.08967C13.8048 6.98959 13.8253 6.88236 13.8242 6.77427C13.8231 6.66617 13.8005 6.55939 13.7576 6.46016C13.7147 6.36093 13.6524 6.27125 13.5745 6.19639C13.3036 5.92555 13.2708 5.95835 13.2708 5.68751C13.2708 5.64238 13.3639 5.45054 13.6348 5.11199C13.9056 4.77345 14.3542 4.28821 14.3542 3.52085C14.3542 2.93404 14.1401 2.45975 13.9056 2.16668C13.6711 1.87361 13.3629 1.71071 13.3629 1.71071C13.2421 1.64808 13.1075 1.6168 12.9714 1.61973ZM17.0339 1.61973C16.8527 1.62379 16.678 1.68837 16.5376 1.80317C16.3973 1.91798 16.2994 2.07642 16.2595 2.25329C16.2196 2.43016 16.24 2.61529 16.3175 2.77922C16.3949 2.94316 16.525 3.07648 16.6869 3.15797C16.6833 3.1578 16.6819 3.1614 16.6986 3.18231C16.735 3.22778 16.7917 3.29515 16.7917 3.52085C16.7917 3.56599 16.6986 3.75783 16.4277 4.09637C16.1569 4.43491 15.7083 4.92015 15.7083 5.68751C15.7083 6.50002 16.2172 7.07448 16.488 7.34531C16.5629 7.42329 16.6526 7.48554 16.7518 7.52843C16.851 7.57131 16.9578 7.59397 17.0659 7.59507C17.174 7.59617 17.2812 7.57569 17.3813 7.53483C17.4814 7.49397 17.5723 7.43355 17.6488 7.35711C17.7252 7.28067 17.7856 7.18975 17.8265 7.08967C17.8673 6.98959 17.8878 6.88236 17.8867 6.77427C17.8856 6.66617 17.863 6.55939 17.8201 6.46016C17.7772 6.36093 17.7149 6.27125 17.637 6.19639C17.3661 5.92555 17.3333 5.95835 17.3333 5.68751C17.3333 5.64238 17.4264 5.45054 17.6973 5.11199C17.9681 4.77345 18.4167 4.28821 18.4167 3.52085C18.4167 2.93404 18.2026 2.45975 17.9681 2.16668C17.7336 1.87361 17.4254 1.71071 17.4254 1.71071C17.3046 1.64808 17.17 1.6168 17.0339 1.61973ZM4.60417 8.12502C3.86555 8.12502 3.25 8.74057 3.25 9.47918V9.75002C3.25 12.4377 4.37116 14.6631 6.1604 16.1527C6.5657 16.4901 7.00696 16.7854 7.47225 17.0488L5.45052 23.8736C5.41589 23.977 5.40246 24.0864 5.41101 24.1952C5.41957 24.3039 5.44994 24.4099 5.50032 24.5066C5.55069 24.6034 5.62004 24.689 5.70423 24.7584C5.78841 24.8278 5.88571 24.8796 5.99032 24.9106C6.09493 24.9415 6.20471 24.9511 6.31311 24.9388C6.42151 24.9264 6.52631 24.8924 6.62127 24.8387C6.71622 24.7849 6.79939 24.7126 6.8658 24.6261C6.93221 24.5395 6.98051 24.4404 7.00781 24.3348L7.7981 21.6667H18.3119L18.4389 22.0624C18.1882 22.279 18.0098 22.5671 17.9275 22.888C17.8452 23.209 17.863 23.5474 17.9785 23.8579C18.0939 24.1685 18.3015 24.4363 18.5735 24.6255C18.8454 24.8148 19.1687 24.9164 19.5 24.9167C19.8827 24.9164 20.2529 24.7811 20.5456 24.5346C20.8383 24.2882 21.0346 23.9463 21.1 23.5693C21.1654 23.1922 21.0956 22.8042 20.903 22.4736C20.7103 22.143 20.4072 21.891 20.047 21.7619L18.5373 17.0424C18.9988 16.7804 19.4372 16.4877 19.8396 16.1527C21.6288 14.6631 22.75 12.4377 22.75 9.75002V9.47918C22.75 8.74057 22.1344 8.12502 21.3958 8.12502H4.60417ZM4.875 9.75002H21.125C21.125 11.9986 20.2451 13.6998 18.7996 14.9033C17.3542 16.1067 15.308 16.7917 13 16.7917C10.692 16.7917 8.64582 16.1067 7.20036 14.9033C5.7549 13.6998 4.875 11.9986 4.875 9.75002ZM17.0498 17.7248L17.7914 20.0417H8.27946L8.96501 17.7301C10.2046 18.1794 11.5694 18.4167 13 18.4167C14.4363 18.4167 15.8063 18.1777 17.0498 17.7248Z" fill="#04A3E9"/>
</svg>
