<svg width="35" height="35" viewBox="0 0 35 35" fill="none" xmlns="http://www.w3.org/2000/svg">
<circle cx="19.1875" cy="17.9238" r="1.5" fill="white" stroke="#3A3A3A"/>
<circle cx="23.1875" cy="14.9238" r="1.5" stroke="#3A3A3A"/>
<circle cx="20.1875" cy="14.9238" r="1.5" stroke="#3A3A3A"/>
<circle cx="25.1875" cy="17.9238" r="1.5" fill="white" stroke="#3A3A3A"/>
<circle cx="26.1875" cy="14.9238" r="1.5" stroke="#3A3A3A"/>
<circle cx="22.1875" cy="17.9238" r="1.5" fill="white" stroke="#3A3A3A"/>
<mask id="path-7-inside-1_403_354" fill="white">
<path d="M28.6543 11.6014C28.923 11.5424 29.1954 11.7143 29.1864 11.9893C29.1762 12.3024 29.0924 12.6111 28.9389 12.8895C28.7046 13.3145 28.3236 13.6399 27.8671 13.8048C27.4106 13.9698 26.9096 13.963 26.4577 13.7859C26.0058 13.6088 25.6337 13.2734 25.4108 12.8421C25.1879 12.4109 25.1295 11.9134 25.2463 11.4423C25.3632 10.9711 25.6475 10.5586 26.046 10.2816C26.4446 10.0045 26.9304 9.88189 27.4127 9.93655C27.7286 9.97234 28.0288 10.0826 28.2902 10.2553C28.5197 10.4069 28.5024 10.7286 28.2988 10.9137C28.0953 11.0987 27.7788 11.0674 27.5191 10.9765C27.4488 10.9519 27.3755 10.935 27.3005 10.9265C27.0585 10.8991 26.8147 10.9606 26.6147 11.0997C26.4146 11.2387 26.272 11.4457 26.2133 11.6822C26.1547 11.9186 26.184 12.1683 26.2959 12.3847C26.4077 12.6011 26.5945 12.7694 26.8213 12.8583C27.0481 12.9472 27.2994 12.9506 27.5285 12.8678C27.7577 12.785 27.9488 12.6217 28.0664 12.4084C28.1029 12.3423 28.1315 12.2728 28.1521 12.2012C28.2281 11.9368 28.3856 11.6605 28.6543 11.6014Z"/>
</mask>
<path d="M28.6543 11.6014C28.923 11.5424 29.1954 11.7143 29.1864 11.9893C29.1762 12.3024 29.0924 12.6111 28.9389 12.8895C28.7046 13.3145 28.3236 13.6399 27.8671 13.8048C27.4106 13.9698 26.9096 13.963 26.4577 13.7859C26.0058 13.6088 25.6337 13.2734 25.4108 12.8421C25.1879 12.4109 25.1295 11.9134 25.2463 11.4423C25.3632 10.9711 25.6475 10.5586 26.046 10.2816C26.4446 10.0045 26.9304 9.88189 27.4127 9.93655C27.7286 9.97234 28.0288 10.0826 28.2902 10.2553C28.5197 10.4069 28.5024 10.7286 28.2988 10.9137C28.0953 11.0987 27.7788 11.0674 27.5191 10.9765C27.4488 10.9519 27.3755 10.935 27.3005 10.9265C27.0585 10.8991 26.8147 10.9606 26.6147 11.0997C26.4146 11.2387 26.272 11.4457 26.2133 11.6822C26.1547 11.9186 26.184 12.1683 26.2959 12.3847C26.4077 12.6011 26.5945 12.7694 26.8213 12.8583C27.0481 12.9472 27.2994 12.9506 27.5285 12.8678C27.7577 12.785 27.9488 12.6217 28.0664 12.4084C28.1029 12.3423 28.1315 12.2728 28.1521 12.2012C28.2281 11.9368 28.3856 11.6605 28.6543 11.6014Z" stroke="#3A3A3A" stroke-width="2" stroke-linejoin="round" mask="url(#path-7-inside-1_403_354)"/>
<circle cx="24.1875" cy="11.9238" r="1.5" stroke="#3A3A3A"/>
<circle cx="28.1875" cy="17.9238" r="1.5" stroke="#3A3A3A"/>
<circle cx="29.1875" cy="14.9238" r="1.5" fill="white" stroke="#3A3A3A"/>
<circle cx="31.1875" cy="17.9238" r="1.5" fill="white" stroke="#3A3A3A"/>
<rect x="17.1875" y="18.9238" width="15" height="2" fill="white"/>
<path d="M11.6869 16.9241C10.1869 14.4241 8.18664 12.9241 6.18703 12.4241C6.18703 12.4241 4.25826 11.7441 1.68703 11.4241C0.889532 11.3248 0.687072 9.4241 1.61552 9.10432C2.76053 8.70976 7.38702 9.42408 10.187 11.4241C12.987 13.4241 13.8536 15.2574 14.6869 16.4241C15.5202 17.5908 17.0539 19.1042 19.1154 19.1042C21.3683 19.1042 28.4937 19.1042 32.8075 19.1042C33.4669 19.1042 33.9582 19.7348 33.8128 20.3779C33.5046 21.7408 33.1446 23.0751 31.6154 24.6042C29.6154 26.6042 26.1154 26.6042 26.1154 26.6042H24.492C22.992 26.6042 19.6871 25.9241 16.6871 22.9241C15.1871 21.4241 14.6869 20.9241 13.1869 18.9241" stroke="#3A3A3A" stroke-linecap="round"/>
</svg>
