<svg width="40" height="40" viewBox="0 0 40 40" fill="none" xmlns="http://www.w3.org/2000/svg">
<g clip-path="url(#clip0_282_47)">
<path d="M14.4458 22.525C14.4458 20.8516 12.0854 19.5898 8.95531 19.5898C5.82523 19.5898 3.46484 20.8516 3.46484 22.525C3.46484 24.1983 5.82523 25.4601 8.95531 25.4601C12.0854 25.4601 14.4458 24.1983 14.4458 22.525ZM4.63664 22.525C4.63664 21.7887 6.27953 20.7617 8.95524 20.7617C11.6309 20.7617 13.2738 21.7887 13.2738 22.525C13.2738 23.2612 11.6309 24.2883 8.95524 24.2883C6.27953 24.2883 4.63664 23.2613 4.63664 22.525ZM27.9077 18.1323C28.2313 18.1323 28.4936 17.8701 28.4936 17.5464C28.4936 17.2227 28.2313 16.9604 27.9077 16.9604H16.5223C16.1987 16.9604 15.9364 17.2227 15.9364 17.5464C15.9364 17.8701 16.1987 18.1323 16.5223 18.1323H27.9077ZM34.7327 23.9231L33.0297 22.5044C32.9103 22.405 32.7563 22.357 32.6015 22.3711C32.4467 22.3852 32.3039 22.4602 32.2045 22.5796C32.105 22.699 32.057 22.853 32.0711 23.0078C32.0852 23.1625 32.1602 23.3054 32.2796 23.4048L32.7388 23.7873H28.5816C28.5046 23.7873 28.4284 23.8025 28.3573 23.8319C28.2862 23.8613 28.2216 23.9045 28.1672 23.9589C28.1128 24.0133 28.0696 24.0779 28.0402 24.149C28.0108 24.2201 27.9956 24.2963 27.9956 24.3733V26.4776C27.9956 26.8012 28.2579 27.0635 28.5816 27.0635C28.9052 27.0635 29.1675 26.8012 29.1675 26.4776V24.9592H32.7389L32.2796 25.3418C32.2205 25.391 32.1716 25.4515 32.1359 25.5196C32.1001 25.5877 32.0781 25.6622 32.0711 25.7389C32.0642 25.8155 32.0723 25.8927 32.0952 25.9662C32.1181 26.0397 32.1552 26.1079 32.2045 26.167C32.2537 26.2262 32.3142 26.275 32.3823 26.3108C32.4504 26.3466 32.5249 26.3686 32.6016 26.3755C32.6782 26.3825 32.7555 26.3743 32.8289 26.3514C32.9024 26.3286 32.9706 26.2914 33.0298 26.2422L34.7328 24.8234C34.7988 24.7684 34.8519 24.6996 34.8883 24.6218C34.9247 24.544 34.9436 24.4591 34.9436 24.3732C34.9436 24.2873 34.9247 24.2025 34.8883 24.1247C34.8518 24.0469 34.7987 23.9781 34.7327 23.9231ZM34.9436 29.4804V27.3761C34.9436 27.0524 34.6813 26.7901 34.3577 26.7901C34.034 26.7901 33.7717 27.0524 33.7717 27.3761V28.8944H30.2003L30.6596 28.5119C30.779 28.4124 30.854 28.2696 30.8681 28.1148C30.8822 27.96 30.8342 27.806 30.7348 27.6866C30.6855 27.6275 30.6251 27.5787 30.557 27.5429C30.4888 27.5071 30.4143 27.4851 30.3377 27.4781C30.183 27.464 30.0289 27.512 29.9095 27.6115L28.2065 29.0301C28.1405 29.0851 28.0874 29.154 28.0509 29.2318C28.0145 29.3096 27.9956 29.3945 27.9956 29.4804C27.9956 29.5663 28.0145 29.6512 28.0509 29.729C28.0874 29.8068 28.1405 29.8756 28.2065 29.9306L29.9095 31.3494C30.0147 31.4372 30.1473 31.4852 30.2843 31.4851C30.4047 31.4851 30.5223 31.4481 30.6209 31.3789C30.7195 31.3098 30.7945 31.212 30.8355 31.0987C30.8765 30.9855 30.8817 30.8623 30.8502 30.7461C30.8187 30.6298 30.7522 30.5261 30.6597 30.449L30.2005 30.0665H34.3577C34.5131 30.0664 34.6621 30.0046 34.772 29.8947C34.8819 29.7848 34.9436 29.6358 34.9436 29.4804Z" fill="#3A3A3A"/>
<path d="M35.5884 19.4589V6.32916C35.5884 5.34447 34.7873 4.54346 33.8027 4.54346H1.7857C0.801094 4.54346 0 5.34455 0 6.32916V26.9518C0 27.9365 0.801094 28.7374 1.7857 28.7374H5.31734C5.64102 28.7374 5.90328 28.4752 5.90328 28.1515C5.90328 27.8278 5.64102 27.5656 5.31734 27.5656H1.7857C1.44719 27.5656 1.17188 27.2903 1.17188 26.9518V13.8254H34.4165V18.9214C33.4977 18.5822 32.5051 18.3967 31.4699 18.3967C29.347 18.3967 27.403 19.1763 25.9086 20.4642H22.2418C21.9181 20.4642 21.6559 20.7264 21.6559 21.0501C21.6559 21.3738 21.9181 21.636 22.2418 21.636H24.7837C23.63 23.0911 22.9399 24.9298 22.9399 26.9267C22.9399 27.1417 22.9481 27.3547 22.9638 27.5656H7.66008C7.33641 27.5656 7.07414 27.8279 7.07414 28.1516C7.07414 28.4753 7.33641 28.7375 7.66008 28.7375H23.1341C23.9667 32.5741 27.3877 35.4568 31.4699 35.4568C33.4145 35.4568 35.2462 34.8192 36.767 33.6128C36.8887 33.5163 36.9671 33.3753 36.9849 33.2209C37.0027 33.0665 36.9585 32.9114 36.8619 32.7896C36.7653 32.6679 36.6243 32.5895 36.4699 32.5717C36.3156 32.5539 36.1604 32.5981 36.0387 32.6947C34.7273 33.735 33.1474 34.2849 31.47 34.2849C27.4127 34.2849 24.1119 30.984 24.1119 26.9267C24.1119 22.8693 27.4127 19.5685 31.47 19.5685C35.5273 19.5685 38.8282 22.8693 38.8282 26.9267C38.8282 28.4307 38.3772 29.8773 37.5238 31.1097C37.4354 31.2375 37.4013 31.3951 37.429 31.548C37.4568 31.7009 37.5442 31.8365 37.672 31.925C37.7997 32.0135 37.9574 32.0476 38.1103 32.0198C38.2632 31.992 38.3988 31.9047 38.4873 31.7769C39.4769 30.3474 40 28.6703 40 26.9267C40 23.7159 38.2165 20.9141 35.5884 19.4589ZM1.17188 12.6535V10.6573H26.7366C27.0603 10.6573 27.3226 10.395 27.3226 10.0713C27.3226 9.74768 27.0603 9.48541 26.7366 9.48541H1.17188V6.32916C1.17188 5.99064 1.44719 5.71533 1.7857 5.71533H33.8026C34.1411 5.71533 34.4164 5.99064 34.4164 6.32916V9.48541H29.0793C28.7556 9.48541 28.4934 9.74768 28.4934 10.0713C28.4934 10.395 28.7556 10.6573 29.0793 10.6573H34.4164V12.6535H1.17188Z" fill="#3A3A3A"/>
</g>
<defs>
<clipPath id="clip0_282_47">
<rect width="40" height="40" fill="white"/>
</clipPath>
</defs>
</svg>
