<svg width="26" height="26" viewBox="0 0 26 26" fill="none" xmlns="http://www.w3.org/2000/svg">
<path d="M8.93717 2.70825C5.50647 2.70825 2.70801 5.50671 2.70801 8.93742V17.0624C2.70801 20.4927 5.50637 23.2916 8.93717 23.2916H17.0622C20.4925 23.2916 23.2913 20.4928 23.2913 17.0624V8.93742C23.2913 5.50662 20.4924 2.70825 17.0622 2.70825H8.93717ZM8.93717 4.33325H17.0622C19.6141 4.33325 21.6663 6.38497 21.6663 8.93742V17.0624C21.6663 19.6142 19.614 21.6666 17.0622 21.6666H8.93717C6.38473 21.6666 4.33301 19.6143 4.33301 17.0624V8.93742C4.33301 6.38487 6.38463 4.33325 8.93717 4.33325ZM18.4163 6.49992C17.8178 6.49992 17.333 6.98471 17.333 7.58325C17.333 8.18179 17.8178 8.66658 18.4163 8.66658C19.0149 8.66658 19.4997 8.18179 19.4997 7.58325C19.4997 6.98471 19.0149 6.49992 18.4163 6.49992ZM12.9997 7.58325C10.0179 7.58325 7.58301 10.0181 7.58301 12.9999C7.58301 15.9817 10.0179 18.4166 12.9997 18.4166C15.9815 18.4166 18.4163 15.9817 18.4163 12.9999C18.4163 10.0181 15.9815 7.58325 12.9997 7.58325ZM12.9997 9.20825C15.1031 9.20825 16.7913 10.8965 16.7913 12.9999C16.7913 15.1033 15.1031 16.7916 12.9997 16.7916C10.8963 16.7916 9.20801 15.1033 9.20801 12.9999C9.20801 10.8965 10.8963 9.20825 12.9997 9.20825Z" fill="#0CBA7A"/>
</svg>
