<svg width="22" height="22" viewBox="0 0 22 22" fill="none" xmlns="http://www.w3.org/2000/svg">
<path d="M1.60354 4.58332C1.51244 4.58203 1.42199 4.59886 1.33745 4.63284C1.25291 4.66681 1.17596 4.71724 1.11108 4.78121C1.0462 4.84518 0.994686 4.9214 0.959522 5.00546C0.924358 5.08951 0.90625 5.17971 0.90625 5.27082C0.90625 5.36193 0.924358 5.45213 0.959522 5.53619C0.994686 5.62024 1.0462 5.69646 1.11108 5.76043C1.17596 5.8244 1.25291 5.87483 1.33745 5.90881C1.42199 5.94278 1.51244 5.95961 1.60354 5.95832H8.47854C8.56964 5.95961 8.66009 5.94278 8.74463 5.90881C8.82917 5.87483 8.90612 5.8244 8.971 5.76043C9.03588 5.69646 9.0874 5.62024 9.12256 5.53619C9.15773 5.45213 9.17583 5.36193 9.17583 5.27082C9.17583 5.17971 9.15773 5.08951 9.12256 5.00546C9.0874 4.9214 9.03588 4.84518 8.971 4.78121C8.90612 4.71724 8.82917 4.66681 8.74463 4.63284C8.66009 4.59886 8.56964 4.58203 8.47854 4.58332H1.60354ZM11.2285 4.58332C11.1374 4.58203 11.047 4.59886 10.9624 4.63284C10.8779 4.66681 10.801 4.71724 10.7361 4.78121C10.6712 4.84518 10.6197 4.9214 10.5845 5.00546C10.5494 5.08951 10.5312 5.17971 10.5312 5.27082C10.5312 5.36193 10.5494 5.45213 10.5845 5.53619C10.6197 5.62024 10.6712 5.69646 10.7361 5.76043C10.801 5.8244 10.8779 5.87483 10.9624 5.90881C11.047 5.94278 11.1374 5.95961 11.2285 5.95832H12.6035C12.9915 5.95832 13.291 6.25784 13.291 6.64582V15.125H8.1509C7.84868 14.0715 6.87425 13.2917 5.72854 13.2917C4.58283 13.2917 3.6084 14.0715 3.30618 15.125H2.97854C2.59056 15.125 2.29104 14.8255 2.29104 14.4375V13.5208C2.29236 13.4288 2.2752 13.3375 2.24056 13.2522C2.20593 13.1669 2.15453 13.0895 2.08942 13.0245C2.0243 12.9594 1.94679 12.9081 1.86149 12.8736C1.77618 12.8391 1.68482 12.822 1.5928 12.8235C1.41062 12.8263 1.23702 12.9014 1.11013 13.0321C0.983234 13.1629 0.913428 13.3386 0.916042 13.5208V14.4375C0.916042 15.5684 1.8476 16.5 2.97854 16.5H3.30618C3.6084 17.5534 4.58283 18.3333 5.72854 18.3333C6.87425 18.3333 7.84868 17.5534 8.1509 16.5H13.8478C14.1501 17.5534 15.1245 18.3333 16.2702 18.3333C17.4159 18.3333 18.3903 17.5534 18.6926 16.5H19.0202C20.1511 16.5 21.0827 15.5684 21.0827 14.4375V11.521C21.0827 11.2316 21.0216 10.9473 20.9055 10.6849C20.9052 10.6846 20.9049 10.6843 20.9046 10.684L19.5528 7.64216V7.64126C19.2228 6.89806 18.4816 6.41665 17.6685 6.41665H14.6428C14.5259 5.39302 13.6561 4.58332 12.6035 4.58332H11.2285ZM1.60354 7.33332C1.51244 7.33203 1.42199 7.34886 1.33745 7.38284C1.25291 7.41681 1.17596 7.46724 1.11108 7.53121C1.0462 7.59518 0.994686 7.6714 0.959522 7.75546C0.924358 7.83951 0.90625 7.92971 0.90625 8.02082C0.90625 8.11193 0.924358 8.20213 0.959522 8.28619C0.994686 8.37024 1.0462 8.44646 1.11108 8.51043C1.17596 8.5744 1.25291 8.62483 1.33745 8.65881C1.42199 8.69278 1.51244 8.70961 1.60354 8.70832H6.64521C6.73631 8.70961 6.82676 8.69278 6.9113 8.65881C6.99584 8.62483 7.07279 8.5744 7.13767 8.51043C7.20255 8.44646 7.25406 8.37024 7.28923 8.28619C7.32439 8.20213 7.3425 8.11193 7.3425 8.02082C7.3425 7.92971 7.32439 7.83951 7.28923 7.75546C7.25406 7.6714 7.20255 7.59518 7.13767 7.53121C7.07279 7.46724 6.99584 7.41681 6.9113 7.38284C6.82676 7.34886 6.73631 7.33203 6.64521 7.33332H1.60354ZM14.666 7.79165H17.6685C17.9423 7.79165 18.1851 7.94981 18.296 8.19986L19.133 10.0833H14.666V7.79165ZM1.60354 10.0833C1.51244 10.082 1.42199 10.0989 1.33745 10.1328C1.25291 10.1668 1.17596 10.2172 1.11108 10.2812C1.0462 10.3452 0.994686 10.4214 0.959522 10.5055C0.924358 10.5895 0.90625 10.6797 0.90625 10.7708C0.90625 10.8619 0.924358 10.9521 0.959522 11.0362C0.994686 11.1202 1.0462 11.1965 1.11108 11.2604C1.17596 11.3244 1.25291 11.3748 1.33745 11.4088C1.42199 11.4428 1.51244 11.4596 1.60354 11.4583H4.81188C4.90298 11.4596 4.99343 11.4428 5.07797 11.4088C5.16251 11.3748 5.23945 11.3244 5.30433 11.2604C5.36921 11.1965 5.42073 11.1202 5.45589 11.0362C5.49106 10.9521 5.50917 10.8619 5.50917 10.7708C5.50917 10.6797 5.49106 10.5895 5.45589 10.5055C5.42073 10.4214 5.36921 10.3452 5.30433 10.2812C5.23945 10.2172 5.16251 10.1668 5.07797 10.1328C4.99343 10.0989 4.90298 10.082 4.81188 10.0833H1.60354ZM14.666 11.4583H19.7014C19.7034 11.4792 19.7077 11.5002 19.7077 11.521V14.4375C19.7077 14.8255 19.4082 15.125 19.0202 15.125H18.6926C18.3903 14.0715 17.4159 13.2917 16.2702 13.2917C15.6625 13.2917 15.1031 13.5113 14.666 13.8744V11.4583ZM5.72854 14.6667C6.34672 14.6667 6.83518 15.14 6.86811 15.7489C6.86418 15.7912 6.86418 15.8338 6.86811 15.876C6.83518 16.485 6.34672 16.9583 5.72854 16.9583C5.11037 16.9583 4.62191 16.485 4.58897 15.876C4.5929 15.8338 4.5929 15.7912 4.58897 15.7489C4.62191 15.14 5.11037 14.6667 5.72854 14.6667ZM16.2702 14.6667C16.9102 14.6667 17.416 15.1725 17.416 15.8125C17.416 16.4525 16.9102 16.9583 16.2702 16.9583C15.6302 16.9583 15.1244 16.4525 15.1244 15.8125C15.1244 15.1725 15.6302 14.6667 16.2702 14.6667Z" fill="#0CBA7A"/>
</svg>
