<?xml version="1.0" encoding="utf-8"?>
<svg viewBox="19 10 213.92 68" width="213.92" height="68" xmlns="http://www.w3.org/2000/svg">
  <path fill-rule="evenodd" clip-rule="evenodd" d="M172.184 43.0062C170.729 43.0062 169.395 43.4038 168.206 44.0993L153.476 21.6927L137.438 39.8421L126.156 21.6927L109.048 42.1592C109.12 41.5378 109.145 40.9387 109.145 40.2931C109.145 35.3129 107.422 30.7304 104.583 27.1463L74.5673 54.3834C78.2081 58.4891 83.4244 61.0541 89.1994 61.0541C91.9896 61.0541 94.659 60.4567 97.0599 59.3877C99.9239 58.2412 102.593 56.4491 104.729 53.9599L114.799 42.2091L125.91 59.985L141.78 42.0576L153.332 60.3586L164.202 49.3033C164.228 49.3274 164.251 49.3274 164.275 49.3274C164.08 50.0263 163.986 50.7735 163.986 51.5429C163.986 56.2494 167.672 60.0832 172.184 60.0832C172.84 60.0832 173.472 59.985 174.078 59.8336C176.432 59.4376 177.791 58.5906 179.829 56.9466L194.824 40.4412C194.896 51.796 203.827 61.0317 214.745 61.0317C222.803 61.0317 229.768 56.0016 232.92 48.78L228.236 48.7559C220.474 58.2911 208.486 59.4617 202.008 48.3582L216.859 32.6464C216.834 32.55 216.082 34.7896 216.154 35.2131C216.154 38.7455 217.052 40.3396 220.11 42.2608C230.759 45.9413 236.367 28.4408 223.845 21.8941C221.394 20.4721 218.167 19.5512 214.745 19.5512C206.448 19.5512 199.289 24.8808 196.306 32.426L188.903 21.5687L165.706 21.6703L182.546 48.0604L180.314 50.5479C179.829 46.3183 176.36 43.0062 172.184 43.0062ZM89.1994 19.551C78.2316 19.551 69.252 28.8883 69.252 40.293C69.252 42.8546 69.7151 45.3197 70.5389 47.6127L61.6834 55.5039C61.3931 55.8035 61.1012 55.8035 60.8093 55.5039C55.348 48.8057 49.8884 42.0851 44.4288 35.4109C44.4288 35.3128 44.4288 35.2629 44.4288 35.1889L55.6165 20.7716C55.7389 22.5395 58.4067 27.6678 63.4535 27.9432C67.0692 28.1412 69.9818 26.2011 71.413 23.6086C73.3542 20.126 73.1596 16.2166 70.4416 12.8304C67.7722 10.4651 66.195 9.89188 62.6767 10.0158C59.6197 10.3653 57.5594 11.6839 55.3245 14.0733L43.8248 28.5147L43.8483 11.8354L19.0487 23.5621L19 69.1948L43.8483 57.098V42.0575L60.6381 61.1796C60.9066 61.4051 61.1482 61.4051 61.4653 61.1796C65.0793 57.8951 68.7201 54.6329 72.3358 51.3449C72.3358 51.3707 72.3593 51.3707 72.3593 51.3707L102.132 24.5313C102.107 24.5313 102.083 24.5072 102.083 24.4796C102.083 24.4796 102.107 24.4572 102.132 24.4572C101.939 24.2816 101.744 24.1577 101.55 24.0338C98.1522 21.245 93.857 19.551 89.1994 19.551ZM94.2952 41.3125C98.0082 41.3125 101.042 44.6005 101.042 48.6081C101.042 52.6157 98.0082 55.9002 94.2952 55.9002C90.5822 55.9002 87.5487 52.6157 87.5487 48.6081C87.5487 44.6005 90.5822 41.3125 94.2952 41.3125V41.3125Z" fill="#DA1F2A"/>
  <path d="M102.233 67.1951C103.157 67.1951 103.958 67.3473 104.638 67.6516C105.328 67.956 105.855 68.3923 106.221 68.9604C106.586 69.5285 106.768 70.2032 106.768 70.9844C106.768 71.7555 106.586 72.4302 106.221 73.0084C105.855 73.5766 105.328 74.0128 104.638 74.3172C103.958 74.6216 103.157 74.7738 102.233 74.7738H99.829V77.8478H97.8506V67.1951H102.233ZM102.142 73.0998C103.004 73.0998 103.659 72.9171 104.105 72.5519C104.552 72.1867 104.775 71.6642 104.775 70.9844C104.775 70.3047 104.552 69.7822 104.105 69.4169C103.659 69.0517 103.004 68.8691 102.142 68.8691H99.829V73.0998H102.142Z" fill="black"/>
  <path d="M116.934 76.189V77.8478H108.944V67.1951H116.721V68.8539H110.923V71.6236H116.067V73.2519H110.923V76.189H116.934Z" fill="black"/>
  <path d="M133.14 67.1951V77.8478H119.459V67.1951H121.407V76.1738H125.333V67.1951H127.281V76.1738H131.192V67.1951H133.14Z" fill="black"/>
  <path d="M144.427 76.189V77.8478H136.438V67.1951H144.214V68.8539H138.416V71.6236H143.56V73.2519H138.416V76.189H144.427Z" fill="black"/>
  <path d="M156.403 67.1951V77.8478H154.424V73.2824H148.915V77.8478H146.937V67.1951H148.915V71.5932H154.424V67.1951H156.403Z" fill="black"/>
  <path d="M159.711 67.1951H161.658V74.7585L167.381 67.1951H169.222V77.8478H167.274V70.2996L161.552 77.8478H159.711V67.1951Z" fill="black"/>
  <path d="M180.503 76.189V77.8478H172.513V67.1951H180.29V68.8539H174.491V71.6236H179.635V73.2519H174.491V76.189H180.503Z" fill="black"/>
  <path d="M195.512 76.189V77.8478H187.523V67.1951H195.299V68.8539H189.501V71.6236H194.645V73.2519H189.501V76.189H195.512Z" fill="black"/>
  <path d="M202.878 78C201.802 78 200.828 77.7667 199.956 77.3C199.093 76.8231 198.414 76.1688 197.917 75.3368C197.43 74.5049 197.186 73.5664 197.186 72.5215C197.186 71.4765 197.435 70.538 197.932 69.7061C198.429 68.8742 199.109 68.2249 199.971 67.7582C200.844 67.2813 201.818 67.0429 202.893 67.0429C203.765 67.0429 204.562 67.1951 205.282 67.4995C206.003 67.8038 206.611 68.2451 207.108 68.8234L205.83 70.0257C205.059 69.1937 204.11 68.7778 202.984 68.7778C202.254 68.7778 201.599 68.9401 201.021 69.2648C200.443 69.5793 199.991 70.0206 199.667 70.5887C199.342 71.1569 199.18 71.8011 199.18 72.5215C199.18 73.2418 199.342 73.886 199.667 74.4542C199.991 75.0223 200.443 75.4687 201.021 75.7934C201.599 76.1079 202.254 76.2651 202.984 76.2651C204.11 76.2651 205.059 75.8441 205.83 75.002L207.108 76.2195C206.611 76.7978 205.997 77.2391 205.267 77.5435C204.547 77.8478 203.75 78 202.878 78Z" fill="black"/>
  <path d="M216.862 68.8691H213.331V77.8478H211.368V68.8691H207.852V67.1951H216.862V68.8691Z" fill="black"/>
  <path d="M223.788 70.8018C225.066 70.8018 226.045 71.0909 226.725 71.6692C227.415 72.2374 227.76 73.0845 227.76 74.2107C227.76 75.3876 227.384 76.2905 226.633 76.9195C225.883 77.5384 224.828 77.8478 223.468 77.8478H218.887V67.1951H220.835V70.8018H223.788ZM223.377 76.326C224.148 76.326 224.741 76.1485 225.157 75.7934C225.573 75.4383 225.781 74.9209 225.781 74.2411C225.781 72.9526 224.98 72.3084 223.377 72.3084H220.835V76.326H223.377Z" fill="black"/>
  <path d="M229.598 67.1951H231.85L231.47 74.3172H229.963L229.598 67.1951ZM230.724 77.9544C230.369 77.9544 230.075 77.8428 229.841 77.6196C229.608 77.3862 229.491 77.1021 229.491 76.7673C229.491 76.4325 229.608 76.1535 229.841 75.9303C230.075 75.7071 230.369 75.5955 230.724 75.5955C231.069 75.5955 231.353 75.7071 231.576 75.9303C231.81 76.1535 231.926 76.4325 231.926 76.7673C231.926 77.1021 231.81 77.3862 231.576 77.6196C231.353 77.8428 231.069 77.9544 230.724 77.9544Z" fill="black"/>
  <path d="M202.611 44.3111C202.463 44.4679 202.284 44.5515 202.073 44.5621C201.858 44.5683 201.667 44.493 201.501 44.3363C201.331 44.1753 201.242 43.9917 201.236 43.7855C201.235 43.5748 201.31 43.3887 201.463 43.2273C201.615 43.0659 201.794 42.9822 202 42.9763C202.211 42.9657 202.401 43.041 202.572 43.202C202.738 43.3587 202.824 43.5446 202.83 43.7597C202.832 43.9705 202.759 44.1543 202.611 44.3111Z" fill="white"/>
  <path d="M205.479 41.2721C205.118 41.6548 204.713 41.9221 204.265 42.0741C203.816 42.2261 203.368 42.2525 202.921 42.1533C202.47 42.0497 202.062 41.8259 201.697 41.4821C201.333 41.1382 201.089 40.7461 200.964 40.3056C200.839 39.8651 200.837 39.4188 200.959 38.9668C201.085 38.5101 201.33 38.0881 201.696 37.7008C202.04 37.3365 202.414 37.088 202.818 36.9552C203.227 36.8178 203.635 36.8105 204.042 36.9334L203.803 37.963C203.532 37.908 203.279 37.922 203.044 38.0051C202.808 38.0791 202.601 38.2107 202.423 38.3998C202.118 38.7225 201.972 39.0901 201.983 39.5024C201.991 39.9104 202.17 40.2798 202.52 40.6106C202.87 40.9414 203.25 41.1031 203.658 41.0958C204.065 41.0796 204.424 40.9078 204.733 40.5804C204.911 40.3913 205.033 40.1793 205.098 39.9441C205.163 39.7 205.16 39.4444 205.089 39.1773L206.103 38.879C206.245 39.2831 206.262 39.6953 206.153 40.1156C206.043 40.5269 205.819 40.9124 205.479 41.2721Z" fill="white"/>
  <path d="M209.189 37.3417C208.837 37.7152 208.438 37.9757 207.994 38.1231C207.55 38.2704 207.104 38.2945 206.657 38.1953C206.21 38.087 205.804 37.861 205.44 37.5172C205.076 37.1733 204.829 36.7834 204.7 36.3476C204.575 35.9071 204.573 35.4608 204.695 35.0088C204.816 34.5567 205.053 34.1439 205.406 33.7704C205.763 33.3923 206.163 33.1296 206.608 32.9822C207.052 32.8348 207.496 32.8131 207.938 32.9169C208.385 33.0162 208.791 33.2377 209.155 33.5816C209.519 33.9254 209.766 34.3198 209.896 34.7646C210.025 35.2005 210.029 35.6444 209.907 36.0965C209.786 36.5485 209.546 36.9636 209.189 37.3417ZM208.449 36.6431C208.75 36.325 208.892 35.962 208.875 35.5543C208.859 35.1466 208.678 34.7795 208.332 34.4531C207.986 34.1266 207.61 33.967 207.202 33.9743C206.794 33.9816 206.439 34.1443 206.139 34.4625C205.839 34.7807 205.697 35.1436 205.713 35.5513C205.734 35.9544 205.917 36.3192 206.263 36.6457C206.608 36.9721 206.983 37.134 207.387 37.1313C207.795 37.124 208.149 36.9613 208.449 36.6431Z" fill="white"/>
  <path d="M212.448 26.3106C212.887 25.8449 213.371 25.6044 213.9 25.5891C214.425 25.5695 214.956 25.8144 215.496 26.3236L217.612 28.3215L216.796 29.186L214.79 27.2927C214.468 26.988 214.158 26.8309 213.862 26.8215C213.561 26.8078 213.284 26.9346 213.032 27.2021C212.758 27.4926 212.635 27.8169 212.663 28.1749C212.686 28.5286 212.876 28.873 213.231 29.2081L215.105 30.9774L214.289 31.842L212.283 29.9487C211.961 29.644 211.651 29.4869 211.355 29.4775C211.054 29.4638 210.777 29.5906 210.525 29.8581C210.246 30.1532 210.119 30.4776 210.142 30.8313C210.17 31.1803 210.364 31.5246 210.724 31.8641L212.598 33.6334L211.782 34.498L208.089 31.0116L208.866 30.1885L209.336 30.6325C209.3 30.3375 209.337 30.0449 209.445 29.7547C209.553 29.4645 209.727 29.1926 209.967 28.9389C210.228 28.6623 210.511 28.4679 210.818 28.3559C211.124 28.235 211.437 28.208 211.757 28.275C211.707 27.94 211.742 27.6026 211.863 27.2627C211.978 26.9185 212.173 26.6011 212.448 26.3106Z" fill="white"/>
</svg>