<svg width="169" height="97" viewBox="0 0 169 97" fill="none" xmlns="http://www.w3.org/2000/svg">
<path fill-rule="evenodd" clip-rule="evenodd" d="M78.2211 131.853C87.7681 129.054 98.798 134.595 107.483 129.744C116.585 124.658 122.173 114.889 125.963 105.182C129.888 95.1292 132.67 83.8414 129.423 73.5532C126.24 63.4722 115.794 58.0955 108.642 50.3076C101.532 42.565 97.6713 29.8762 87.369 27.7596C76.8923 25.6072 68.6654 37.3943 58.2809 39.9608C48.3152 42.4239 35.5147 35.3014 28.1084 42.406C20.6441 49.5663 26.9601 62.6739 24.2131 72.641C21.6225 82.0406 12.6916 89.1702 12.5337 98.9175C12.3647 109.349 16.9814 119.442 23.3207 127.729C29.9444 136.389 38.3074 146.018 49.1862 146.835C60.2345 147.665 67.5885 134.971 78.2211 131.853Z" fill="#FDDC12"/>
<path fill-rule="evenodd" clip-rule="evenodd" d="M205.277 -3C203.463 -3 196.383 1.53128 187.531 8.35935C176.204 17.0956 171.384 19.6292 165.087 20.1547C159.31 20.6374 155.81 19.5967 144.186 13.941C133.023 8.51051 128.393 7.4017 123.183 8.91277C121.271 9.46751 118.507 10.8015 117.04 11.8772C111.255 16.1197 108.979 21.7099 106.983 36.5728C106.288 41.7496 105.122 48.1242 104.394 50.7382C100.538 64.5605 92.6305 75.077 82.1437 80.3297C77.8825 82.4643 75.0983 83.0924 63.5539 84.5211C60.6089 84.8857 57.4835 85.6513 56.6088 86.2222C52.9545 88.6072 51.8721 95.4554 54.3046 100.798C56.7189 106.1 56.4603 106 67.7761 106C76.2315 106 77.7822 105.852 77.4826 105.073C74.8424 98.22 78.0056 93.3312 86.1549 91.6664C99.7182 88.8966 103.014 87.3674 109.683 80.7482C113.557 76.9028 115.22 74.6274 117.308 70.3154C120.903 62.8898 121.947 58.171 122.578 46.4983C123.051 37.7199 123.303 36.2367 124.859 33.0686C127.355 27.9858 129.968 26.5046 136.314 26.5746C141.783 26.6343 145.25 27.906 152.657 32.5658C160.51 37.5071 164.059 38.8086 169.6 38.78C173.926 38.758 175.192 38.4537 179.568 36.3833C182.325 35.0786 187.781 31.8028 191.692 29.1024C195.602 26.4027 200.421 23.4552 202.401 22.552L206 20.9105L206 8.9556C206 0.627491 205.781 -3 205.277 -3ZM204.282 42.0929C199.517 38.9825 194.083 40.6895 185.932 47.8562C180.013 53.0603 176.369 54.8283 170.7 55.2429C164.423 55.7029 160.724 54.2963 153.084 48.5446C145.45 42.7975 142.643 41.8152 138.432 43.4164C132.805 45.5581 129.988 52.6159 130.665 62.88C131.744 79.256 125.357 89.7784 111.901 93.7938C102.502 96.5986 99.192 99.262 99.192 104.021L99.192 106L106.312 106C112.873 106 113.465 105.897 113.847 104.695C114.391 102.989 117.291 101.536 121.161 101.031C126.892 100.282 129.961 97.9981 135.546 90.3285C139.471 84.9376 141.633 83.616 146.524 83.616C149.585 83.616 150.986 83.9404 152.386 84.9733C155.197 87.0482 157.155 90.3292 157.152 92.9575C157.148 97.1339 154.737 99.8719 147.06 104.417L144.455 105.96L153.6 105.98L162.745 106L164.567 102.269C169.444 92.2847 181.429 77.0182 197.115 60.8123L206 51.6336L206 47.4241C206 43.591 205.846 43.1141 204.282 42.0929ZM203.957 66.7878C200.634 69.8872 194.771 78.0829 191.783 83.8035C189.135 88.8733 184.522 100.39 183.607 104.216L183.181 106L189.984 106L196.787 106L198.84 102.424C199.97 100.458 202.043 97.4006 203.447 95.6306L206 92.4132L206 78.6474L206 64.8823L203.957 66.7878ZM175.094 66.0689C173.069 64.0505 170.086 63.9908 164.54 65.8574C159.214 67.6494 157.495 66.9935 153.452 61.6259C147.848 54.1854 145.319 53.1732 141.242 56.7397C138.308 59.3058 137.713 62.1677 139.255 66.2882C140.678 70.089 146.092 75.5059 149.665 76.7036C151.098 77.1837 153.979 78.4424 156.067 79.5012C160.93 81.9674 162.579 81.6287 167.437 77.1636C169.483 75.2827 172.183 73.224 173.437 72.5882C177.202 70.6787 177.711 68.6752 175.094 66.0689Z" fill="#08105B"/>
</svg>
