<svg width="98" height="98" viewBox="0 0 98 98" fill="none" xmlns="http://www.w3.org/2000/svg">
<path fill-rule="evenodd" clip-rule="evenodd" d="M51.1256 0.0315638C46.341 0.151382 42.1853 0.540791 39.1831 1.15036C26.9077 3.64288 16.2462 10.5851 8.96544 20.8266C4.61851 26.9412 1.79127 33.8454 0.531488 41.4223C-0.174016 45.6656 -0.177599 52.5849 0.523427 56.8033C1.68334 63.7828 4.21068 70.2488 8.03317 76.0164C9.70289 78.5359 11.7306 81.0792 13.5612 82.9507L14.8503 84.2684L16.3431 84.1803C19.0709 84.0193 22.0464 83.6797 24.7775 83.2173C26.935 82.8522 30.2913 81.9466 34.2568 80.6597C37.2084 79.7017 39.8146 78.9208 40.9745 78.6467C41.5492 78.5107 42.2882 78.3349 42.6166 78.2558C44.9464 77.6945 49.6636 77.2152 52.8424 77.217C54.9144 77.218 58.4907 77.4912 60.6529 77.8135C64.5123 78.3887 69.8469 79.8662 74.7121 81.7073C76.4178 82.3527 80.7468 83.9515 81.5722 84.2407L82.461 84.5522L84.0437 82.9428C87.2798 79.6517 89.4862 76.7747 91.8551 72.7571C92.4022 71.8292 92.8498 71.0398 92.8498 71.0025C92.8498 70.9652 93.1779 70.2653 93.5789 69.4471C95.2699 65.9966 96.6102 61.8722 97.3089 57.9688C98.0147 54.0256 98 54.6972 98 26.5915V0.00685116L75.3092 0.000560743C62.8293 -0.0030338 51.9467 0.0110449 51.1256 0.0315638ZM41.5268 5.47415C41.046 5.67724 40.6656 6.64492 40.379 8.39411C40.2441 9.21786 39.9695 10.4427 39.769 11.1158L39.4045 12.3399L38.6221 12.5943C37.4728 12.9682 34.7862 14.0771 33.7048 14.624C32.0148 15.4788 30.2621 16.754 28.6807 18.2791C26.2786 20.5958 25.3795 22.0525 23.8927 26.0366C22.3522 30.1637 20.5985 37.1119 20.5977 39.09C20.5974 39.9221 20.7776 39.6182 21.2523 37.9859C21.6721 36.5424 22.1126 35.5245 22.3928 35.3508C22.4794 35.2972 22.6868 35.4273 22.8537 35.6401C23.0579 35.9007 23.3015 36.0271 23.5993 36.0271C24.0014 36.0271 24.0264 36.0556 23.8749 36.3396C23.6119 36.8328 23.8262 36.8554 24.4768 36.4031C25.2322 35.8778 25.6849 35.1517 25.7647 34.338L25.8265 33.7057L25.5633 34.2565L25.3 34.8072L25.0317 34.4437C24.8399 34.1836 24.8187 34.0795 24.9571 34.0779C25.0954 34.0762 25.0868 34.0341 24.9267 33.9303C24.6073 33.7232 23.6789 33.7466 23.4445 33.9678C23.131 34.2636 23.3794 33.4031 23.8304 32.6309C24.797 30.9762 26.2682 29.8841 27.7989 29.685C28.585 29.5829 30.5333 29.8779 31.3567 30.2239C32.537 30.72 33.5737 32.0499 33.5818 33.078C33.5837 33.3197 33.6487 33.4593 33.7343 33.4061C33.9795 33.2541 33.9038 32.3102 33.5988 31.7152C32.9965 30.5405 31.9492 29.9037 29.8172 29.4159C29.0569 29.2418 28.2466 29.0034 28.0166 28.886C27.1981 28.4683 27.2408 27.532 28.112 26.7967C30.0196 25.1862 33.1445 25.5288 35.8071 27.6403C36.6858 28.3372 37.7085 29.8066 37.853 30.5801C37.9053 30.8594 38.015 31.1294 38.0968 31.1802C38.354 31.3397 38.0563 30.0228 37.6182 29.0627C36.8576 27.3965 35.0055 26.0165 32.7755 25.4546C31.5722 25.1513 31.1966 24.8396 31.1966 24.144C31.1966 21.402 34.854 17.6737 39.5208 15.6585C45.0384 13.2759 51.2519 12.6538 57.2462 13.8837C60.3924 14.5292 63.8969 15.9423 66.2592 17.518C67.7521 18.5136 70.0888 20.9343 71.0547 22.4855C72.1388 24.2266 73.0554 26.9114 72.4917 26.6944C72.0938 26.5412 69.8734 26.4059 69.4611 26.5097C69.0664 26.6091 69.0598 26.6241 69.34 26.7821C69.5031 26.8742 70.4661 27.0354 71.4801 27.1404C73.376 27.3367 75.344 27.8536 76.2795 28.401C76.5669 28.5691 76.6677 28.6643 76.5035 28.6127C76.3392 28.561 75.8018 28.3899 75.3092 28.2324C73.5774 27.6788 70.3026 27.2672 70.5268 27.6312C70.5747 27.7088 70.9314 27.8144 71.3194 27.8656C73.0594 28.0956 75.5909 28.8358 75.3697 29.0498C75.3364 29.0819 74.5703 28.9131 73.6671 28.6748C72.764 28.4364 71.8263 28.2408 71.5834 28.2402L71.1419 28.239L71.7556 28.8755C72.423 29.5678 73.4514 31.1034 73.7022 31.7824C73.7886 32.0165 74.1015 32.8644 74.3977 33.6666C75.0517 35.439 75.0839 36.0537 74.5491 36.551C73.8704 37.182 72.802 37.4503 70.98 37.4471C69.193 37.4441 68.3185 37.1858 67.6297 36.4577C67.3207 36.1312 67.3031 36.0224 67.4137 35.1285C67.48 34.5931 67.537 33.5484 67.5405 32.807C67.5457 31.646 67.4904 31.3388 67.1411 30.591C66.6307 29.498 65.3175 28.1675 64.0385 27.4476C63.5048 27.1471 62.9338 26.6956 62.7696 26.4441C62.6054 26.1926 62.2304 25.826 61.9361 25.6296C60.9279 24.9563 60.0692 24.7672 57.4147 24.6344C56.0295 24.5651 54.8645 24.4765 54.8259 24.4379C54.6496 24.261 56.3523 24.1616 58.023 24.2511C61.1172 24.4171 63.3789 25.0295 65.9791 26.4052C66.8412 26.8614 67.712 27.3426 67.914 27.4747C68.7031 27.9904 68.0074 27.3095 67.1446 26.7216C65.8767 25.8577 63.9677 24.9898 62.4965 24.6082L61.248 24.2844L61.6955 24.0525C62.007 23.8911 62.2302 23.5932 62.4306 23.0718C62.8253 22.0438 63.0116 21.8748 64.3599 21.3217C65.1161 21.0114 65.4646 20.7996 65.3368 20.7279C64.9634 20.5182 61.7645 20.8696 60.3811 21.272C58.8445 21.7191 57.3317 22.3896 56.6059 22.945C56.1436 23.2987 56.1246 23.3456 56.3453 23.5902C56.5702 23.8397 56.5045 23.8595 55.1232 23.958C53.2451 24.0919 51.1155 24.5248 49.4555 25.1102C47.8602 25.6728 45.0927 27.0688 43.6365 28.0455C41.1668 29.702 38.4825 32.3558 38.1867 33.4332C37.9583 34.2651 37.5851 34.7184 36.441 35.5533C35.8806 35.9621 34.992 36.7835 34.4663 37.3784C33.2931 38.7061 30.4539 41.192 29.0538 42.1175C27.1067 43.4045 24.608 44.378 23.7843 44.1706C23.3733 44.0671 23.1651 43.4663 23.4295 43.1469C23.5274 43.0284 23.9566 42.7338 24.3834 42.4922C24.81 42.2506 25.4191 41.7642 25.7369 41.4113C26.3613 40.7179 27.9712 37.4843 27.7356 37.3964C27.5183 37.3153 25.8766 37.9408 24.7136 38.5478C23.7273 39.0627 21.9577 40.587 22.1373 40.767C22.184 40.814 22.5453 40.5828 22.9401 40.2533C23.9197 39.4355 26.0635 38.4235 26.8162 38.4235C27.1607 38.4235 27.0352 38.6859 26.6433 38.7846C26.4379 38.8363 25.6963 39.0868 24.9953 39.3413C23.9379 39.7252 23.5432 39.9674 22.681 40.7613C21.5431 41.809 20.9993 41.9718 20.4567 41.4273C20.0557 41.0251 19.9455 40.2745 20.04 38.5896C20.1544 36.5527 20.7375 34.1333 22.1728 29.7419C22.8585 27.6442 23.3983 25.9066 23.3723 25.8807C23.2954 25.8035 21.5611 30.4567 21.0656 32.069C19.5213 37.0959 19.2079 40.6388 20.2287 41.5313C20.4879 41.7577 20.8063 41.8683 21.2001 41.8683C21.7073 41.8683 21.9196 41.7467 22.7844 40.9603C23.3336 40.461 23.986 39.9471 24.2341 39.8185C24.7824 39.5341 26.7487 38.8535 26.8189 38.924C26.8467 38.9518 26.6957 39.3055 26.4836 39.7099C25.9625 40.7039 24.9439 41.7198 23.7886 42.3977C22.623 43.0816 22.4242 43.5286 23.0464 44.0656C23.5541 44.5038 24.2677 44.518 25.5455 44.1156C28.0567 43.3248 30.6036 41.5617 33.7636 38.4266C35.1576 37.0435 36.4116 35.9356 36.8596 35.6911C37.7403 35.2104 38.4781 34.2666 38.6075 33.4551C38.6757 33.0266 38.8923 32.6923 39.4635 32.1334C39.884 31.7218 40.3303 31.3849 40.4553 31.3846C40.5802 31.3843 41.7466 32.0251 43.0473 32.8084C45.2893 34.1587 46.1247 34.5618 46.1247 34.2931C46.1247 34.2275 45.8079 33.4957 45.4208 32.6667C44.7646 31.2618 44.7129 31.0625 44.6582 29.7291L44.5995 28.2984L45.1296 27.8316C46.8224 26.3405 51.2888 24.6444 53.5229 24.6444C55.3658 24.6444 56.2402 24.8839 57.0442 25.6093C58.3386 26.777 60.7367 27.7778 62.5449 27.9048C63.6117 27.9799 63.6533 27.9709 63.4406 27.7122C63.2344 27.4618 63.2406 27.4534 63.5193 27.6024C64.4463 28.0977 65.7422 29.2285 66.1929 29.9353C66.8454 30.9587 67.059 31.7782 67.0541 33.2385C67.0505 34.2883 66.9904 34.5402 66.5112 35.513C66.0778 36.3929 65.5656 37.0306 63.8952 38.7707C61.7995 40.9536 60.9133 42.1274 60.5232 43.2367C59.9798 44.7819 61.077 44.8016 65.1923 43.3208C68.9571 41.9659 70.231 41.6637 71.6811 41.781C72.9785 41.8859 74.939 42.3564 77.4699 43.1701C78.6288 43.5426 79.483 43.726 80.0862 43.7319C80.9414 43.74 80.984 43.7229 81.0268 43.3525C81.088 42.8237 80.0443 41.2967 77.7086 38.4984C75.9565 36.3992 75.2332 35.2733 74.9935 34.2714L74.8939 33.8554L75.2749 34.2061C75.9232 34.8026 76.1703 34.6066 76.4738 33.2552C76.9655 31.065 77.5026 30.3325 78.9666 29.8556C79.3361 29.7354 79.6331 29.5751 79.6266 29.4996C79.5922 29.0975 76.2766 27.531 74.5255 27.0898C73.4353 26.8149 73.1446 26.5883 73.1446 26.0132C73.1446 25.3762 72.7269 23.9104 72.2561 22.8954C71.5954 21.4712 70.6672 20.1917 69.3415 18.8782C65.697 15.267 59.8834 12.6503 53.3648 11.6875C51.8574 11.4647 51.6941 11.4084 51.3731 11.0015C50.656 10.0924 47.1367 7.66936 44.4201 6.21417C43.0073 5.45752 42.1099 5.22792 41.5268 5.47415ZM62.1032 5.97828C61.9405 6.56164 61.8533 6.65331 61.3002 6.82195L60.6796 7.01141L61.3069 7.2816C61.8522 7.5166 61.9611 7.6448 62.1407 8.26246L62.3471 8.97313L62.5252 8.26381C62.683 7.63537 62.775 7.52363 63.3336 7.28295L63.9638 7.01141L63.3421 6.82165C62.7821 6.65076 62.704 6.56704 62.5562 5.97783C62.4659 5.61808 62.3682 5.32378 62.3391 5.32378C62.3098 5.32378 62.2037 5.61823 62.1032 5.97828ZM84.947 11.6105L84.6015 12.9548L83.7621 13.2596C83.3004 13.4274 82.7243 13.6537 82.482 13.7627L82.0415 13.961L83.3031 14.4171L84.5647 14.8731L84.9598 16.2766C85.1831 17.0697 85.3944 17.5824 85.4456 17.4554C85.4954 17.3318 85.6878 16.6975 85.8734 16.0458L86.2106 14.861L87.3904 14.4359C88.0392 14.2021 88.5947 13.9862 88.6248 13.9561C88.6832 13.8975 88.3501 13.7546 87.007 13.2619L86.1654 12.9532L85.8159 11.6097C85.6238 10.8708 85.4275 10.2663 85.3796 10.2663C85.3317 10.2663 85.137 10.8712 84.947 11.6105ZM49.4617 15.1333C46.5691 15.7643 43.948 17.1982 41.7657 19.3434C40.4041 20.6819 38.8099 22.7841 38.8099 23.2412C38.8099 23.3151 39.1586 23.4585 39.585 23.5601C40.5446 23.7888 41.1587 24.3533 41.3719 25.2028C41.507 25.7414 41.5912 25.8426 41.9036 25.8426C42.5263 25.8426 44.056 25.391 44.963 24.9396C46.9622 23.9444 48.0086 22.9285 48.5069 21.4992C49.0455 19.9548 49.7879 18.4221 50.7688 16.8296C51.2833 15.9945 51.6412 15.257 51.5932 15.1313C51.4879 14.8563 50.7276 14.8569 49.4617 15.1333ZM13.1341 31.5642C12.9702 32.1993 12.8915 32.2896 12.3338 32.4825L11.7153 32.6965L12.1632 32.8684C12.4095 32.9631 12.693 33.0694 12.7932 33.1046C12.8933 33.1398 13.0165 33.3568 13.0669 33.5869C13.2492 34.4201 13.3225 34.4652 13.5028 33.8554C13.6464 33.3697 13.801 33.1981 14.32 32.9484L14.9603 32.6403L14.3485 32.4566C13.7983 32.2911 13.7156 32.2017 13.5263 31.5663L13.3159 30.86L13.1341 31.5642ZM34.854 32.0324C34.854 33.0253 34.8113 33.1843 34.4061 33.7003C34.1598 34.014 33.7566 34.6491 33.51 35.1116C32.7863 36.4687 32.1143 37.3607 30.6799 38.8683C29.4706 40.1394 29.4255 40.2055 30.2461 39.5052C32.0606 37.9565 33.6013 36.1118 34.0265 34.9787C34.1347 34.6904 34.3431 34.3468 34.4896 34.2153C34.9588 33.794 35.3752 32.9715 35.3758 32.4653C35.3763 32.0426 35.0312 30.9349 34.8989 30.9349C34.8741 30.9349 34.854 31.4288 34.854 32.0324ZM90.2378 34.9759C90.1478 35.5107 90.0758 35.5919 89.5529 35.7492C89.2315 35.8458 88.9685 35.9708 88.9685 36.0271C88.9685 36.0835 89.2315 36.2085 89.5529 36.3051C90.0757 36.4624 90.1478 36.5437 90.2376 37.0778C90.293 37.4061 90.3936 37.6746 90.4613 37.6746C90.5289 37.6746 90.6295 37.4061 90.6849 37.0778C90.7748 36.5437 90.8469 36.4624 91.3696 36.3051C91.691 36.2085 91.9541 36.0835 91.9541 36.0271C91.9541 35.9708 91.6927 35.8462 91.3734 35.7502C90.8785 35.6015 90.7783 35.4992 90.6958 35.0578C90.5574 34.3173 90.3548 34.2812 90.2378 34.9759ZM30.3009 34.7827C29.0211 34.9976 26.897 35.9689 25.4413 37.0046C24.1611 37.9156 23.94 38.2601 25.1716 37.425C27.0763 36.1335 29.6042 35.1285 30.948 35.1285C31.6383 35.1285 31.7423 35.3291 31.2525 35.7156C30.9608 35.9458 30.9223 36.0271 31.1048 36.0271C31.4632 36.0271 32.5401 35.31 32.5401 35.0713C32.5401 34.7616 31.3445 34.6075 30.3009 34.7827ZM51.3713 39.0698C51.2773 39.3016 51.2003 39.5808 51.2003 39.6901C51.2003 39.7993 50.9147 40.0055 50.5658 40.1483L49.9314 40.408L50.5658 40.6449C50.9147 40.7752 51.2003 40.9645 51.2003 41.0658C51.2003 41.1669 51.2773 41.4395 51.3713 41.6713L51.5426 42.0929L51.7205 41.4938C51.8726 40.9821 51.9944 40.8587 52.5571 40.6466L53.2156 40.3986L52.7677 40.2349C52.017 39.9605 51.9002 39.8496 51.7181 39.2378L51.5426 38.6482L51.3713 39.0698ZM84.0422 49.4918V50.3947L83.358 50.1004C82.477 49.7216 82.4577 49.7243 82.2744 50.2522C82.0946 50.7693 82.082 50.7579 83.1135 51.0007L83.9015 51.1861L83.2898 51.852L82.6782 52.5177L83.0602 52.8192C83.5155 53.1785 83.6266 53.1264 84.0626 52.3479C84.2458 52.0209 84.4442 51.7533 84.5033 51.7533C84.5626 51.7533 84.7881 52.0565 85.0046 52.4272C85.2212 52.7979 85.4459 53.0997 85.5039 53.0979C85.562 53.0961 85.7776 52.9651 85.9828 52.8068L86.356 52.519L85.8335 51.952C85.5462 51.6402 85.2557 51.3429 85.1879 51.2914C85.1203 51.2397 85.4729 51.117 85.9716 51.0185C86.9358 50.8283 86.9757 50.783 86.7052 50.1877C86.4968 49.7288 86.4877 49.7282 85.6081 50.1064L84.9102 50.4065L84.9613 49.5447L85.0125 48.6829L84.5273 48.636L84.0422 48.589V49.4918ZM51.1256 49.0562C50.8793 49.1231 50.4259 49.2211 50.118 49.2741C49.4989 49.3807 49.3487 49.7556 49.8941 49.8332L50.2299 49.8811L50.2695 54.1904L50.3092 58.4996L49.859 58.5899C49.6115 58.6397 49.4089 58.7729 49.4089 58.8862C49.4089 59.0484 49.7572 59.0921 51.051 59.0921C52.0462 59.0921 52.6931 59.0331 52.6931 58.9423C52.6931 58.86 52.5587 58.6578 52.3945 58.493C52.1234 58.221 52.096 57.9938 52.096 56.0257V53.8577L52.5065 53.6491C53.0317 53.382 53.4456 53.4505 53.7752 53.8589C53.9974 54.1342 54.0366 54.5086 54.0366 56.3519C54.0366 58.3951 54.0193 58.5257 53.7381 58.5994C53.5738 58.6425 53.4395 58.771 53.4395 58.885C53.4395 59.0488 53.783 59.0921 55.0816 59.0921C56.4062 59.0921 56.7237 59.0506 56.7237 58.8779C56.7237 58.7601 56.5725 58.642 56.3878 58.6158C56.0606 58.5691 56.0495 58.508 55.9603 56.2464C55.8632 53.786 55.7705 53.3671 55.2094 52.8553C54.5166 52.2232 53.2297 52.2737 52.6134 52.9571C52.4675 53.1187 52.2915 53.251 52.2221 53.251C52.1527 53.251 52.096 52.2737 52.096 51.0793C52.096 48.6844 52.1419 48.7803 51.1256 49.0562ZM69.8604 49.0554C69.5731 49.1203 69.0861 49.2176 68.7781 49.2718C68.2048 49.3729 67.9687 49.8062 68.487 49.8062C69.0831 49.8062 69.114 50.0184 69.114 54.1146C69.114 56.5502 69.0548 58.1745 68.9595 58.3531C68.8744 58.5125 68.6729 58.6428 68.5117 58.6428C68.3503 58.6428 68.2183 58.7439 68.2183 58.8675C68.2183 59.0547 68.5169 59.0921 70.0097 59.0921C71.5025 59.0921 71.8011 59.0547 71.8011 58.8675C71.8011 58.7439 71.6802 58.6428 71.5324 58.6428C71.0375 58.6428 70.9054 58.3209 70.9054 57.1151C70.9054 56.4726 70.9651 55.9469 71.038 55.9469C71.1108 55.9469 71.5621 56.6529 72.0407 57.5159C72.5191 58.3789 72.9801 59.1114 73.0651 59.1438C73.1499 59.1761 73.7398 59.1689 74.3762 59.1278C75.1677 59.0764 75.5331 58.9931 75.5331 58.864C75.5331 58.7602 75.371 58.6344 75.1728 58.5845C74.9745 58.5347 74.6134 58.2408 74.3701 57.9318C73.724 57.1109 72.5475 55.123 72.5475 54.8521C72.5475 54.4851 73.9128 53.1785 74.462 53.0199C75.6475 52.6775 74.7351 52.3943 73.0327 52.5761C72.3727 52.6465 72.0997 52.738 72.0997 52.8885C72.0997 53.0055 72.1964 53.1012 72.3148 53.1012C72.4332 53.1012 72.5708 53.1677 72.6208 53.2489C72.7528 53.4632 72.0041 54.6767 71.4525 55.1425L70.98 55.5416L70.9399 52.2246C70.8953 48.5394 70.9847 48.802 69.8604 49.0554ZM16.4177 49.8501C16.4177 49.9566 16.636 50.1083 16.9029 50.1871L17.388 50.3304V54.3743V58.4181L16.9029 58.5615C16.636 58.6402 16.4177 58.792 16.4177 58.8985C16.4177 59.0473 16.8844 59.0921 18.433 59.0921C20.1248 59.0921 20.4483 59.056 20.4483 58.8675C20.4483 58.7439 20.3187 58.6428 20.1603 58.6428C19.5184 58.6428 19.4033 58.2869 19.4033 56.3032C19.4033 54.6461 19.4301 54.4493 19.6385 54.5663C19.7679 54.6389 20.4576 55.6701 21.1711 56.8578L22.4685 59.0172L23.9216 59.0601C25.0456 59.0933 25.3746 59.0583 25.3746 58.9056C25.3746 58.7972 25.1807 58.635 24.9435 58.5453C24.4486 58.3578 23.4613 57.0613 22.0861 54.7932L21.1583 53.263L22.1095 52.1281C23.2027 50.8241 23.9113 50.2805 24.6822 50.155C25.0065 50.1022 25.2253 49.982 25.2253 49.8567C25.2253 49.5702 21.775 49.6302 21.6796 49.9185C21.6432 50.0289 21.7474 50.1058 21.9334 50.1058C22.4758 50.1058 22.4521 50.5235 21.8586 51.4212C21.2652 52.3188 19.747 53.9998 19.5299 53.9998C19.4604 53.9998 19.4033 53.2296 19.4033 52.2881C19.4033 50.4717 19.5302 50.1058 20.1603 50.1058C20.3187 50.1058 20.4483 50.0047 20.4483 49.8811C20.4483 49.6925 20.1248 49.6564 18.433 49.6564C16.8844 49.6564 16.4177 49.7012 16.4177 49.8501ZM65.2554 50.956C64.589 51.4241 64.4863 51.5633 64.4863 51.9992C64.4863 52.2758 64.4191 52.5105 64.337 52.5208C64.2549 52.5312 64.1182 52.548 64.0331 52.5583C63.8728 52.5776 63.5969 52.9416 63.5929 53.1387C63.5917 53.2005 63.7922 53.251 64.0385 53.251H64.4863V55.7947V58.3385L64.8968 58.7992C65.2232 59.1654 65.4299 59.2609 65.9045 59.2651C66.6937 59.272 67.945 58.7334 67.8313 58.4358C67.7715 58.2796 67.6052 58.2392 67.2562 58.2961C66.4083 58.4342 66.2777 58.0572 66.2777 55.4724V53.2675L66.9868 53.2218C67.5812 53.1834 67.6959 53.1277 67.6959 52.8766C67.6959 52.6481 67.5894 52.5721 67.248 52.5562C67.0017 52.5448 66.6825 52.528 66.5389 52.5187C66.3189 52.5048 66.2777 52.35 66.2777 51.5374C66.2777 51.0068 66.2207 50.5374 66.1511 50.4943C66.0815 50.4511 65.6785 50.6589 65.2554 50.956ZM28.0476 52.5716C26.0205 53.3203 25.2655 54.2287 26.3055 54.6674C26.9179 54.9257 27.246 54.7595 27.372 54.1273C27.5632 53.1682 28.2821 52.7999 28.7249 53.4342C29.0033 53.8327 29.033 54.9532 28.7707 55.1556C28.6682 55.2347 28.0219 55.5235 27.335 55.797C26.2322 56.2359 26.0599 56.3565 25.8648 56.8249C25.6891 57.2471 25.6779 57.4692 25.8105 57.9131C26.1773 59.1411 27.4669 59.6052 28.5135 58.8857L29.0315 58.5296L29.3606 58.8857C29.5415 59.0816 29.8589 59.2419 30.0658 59.2419C30.6529 59.2419 31.7937 58.6269 31.7937 58.3106C31.7937 58.097 31.7155 58.0576 31.4327 58.1289C30.8761 58.2691 30.7487 57.8357 30.7487 55.8022C30.7487 53.5544 30.5814 53.0644 29.6721 52.6504C28.9287 52.3119 28.7715 52.3043 28.0476 52.5716ZM33.9583 52.5875C33.5477 52.6874 33.0271 52.8114 32.8013 52.8632C32.3239 52.9724 32.255 53.3302 32.6894 53.4442C32.9721 53.5183 32.9879 53.6485 32.9879 55.9029C32.9879 58.3627 32.9239 58.6428 32.361 58.6428C32.2132 58.6428 32.0923 58.7439 32.0923 58.8675C32.0923 59.0541 32.3825 59.0921 33.809 59.0921C35.0922 59.0921 35.5257 59.0443 35.5257 58.9029C35.5257 58.799 35.3747 58.6473 35.1898 58.566C34.8668 58.4238 34.8523 58.3353 34.8114 56.2464C34.771 54.1803 34.7844 54.062 35.0892 53.8126C35.5224 53.4581 36.1641 53.4821 36.5102 53.8657C36.7501 54.1315 36.8024 54.4658 36.8445 55.9999C36.8961 57.8834 36.7542 58.6428 36.3505 58.6428C36.2253 58.6428 36.1228 58.7439 36.1228 58.8675C36.1228 59.0529 36.3965 59.0921 37.6903 59.0921C38.9253 59.0921 39.2578 59.0482 39.2578 58.885C39.2578 58.771 39.1234 58.6425 38.9592 58.5994C38.6768 58.5254 38.6606 58.3951 38.6606 56.1909C38.6606 54.0403 38.6829 53.8487 38.9493 53.7055C39.4081 53.4593 39.9342 53.5243 40.2423 53.8653C40.4844 54.1333 40.534 54.4653 40.5756 56.1C40.6255 58.0566 40.5098 58.6428 40.0736 58.6428C39.9533 58.6428 39.8549 58.7439 39.8549 58.8675C39.8549 59.0535 40.1369 59.0921 41.497 59.0921C42.72 59.0921 43.1391 59.0439 43.1391 58.9029C43.1391 58.799 42.988 58.6473 42.8032 58.566C42.4797 58.4237 42.4645 58.3292 42.3927 56.0147C42.3103 53.3611 42.2053 53.022 41.3256 52.5656C40.7297 52.2563 40.1667 52.3663 39.2182 52.9769L38.4858 53.4484L38.1626 53.0642C37.4437 52.2095 36.6856 52.1771 35.5257 52.9519L34.854 53.4005L34.7793 52.9031L34.7047 52.4058L33.9583 52.5875ZM46.7763 52.5154C45.9672 52.7507 44.8839 53.5938 44.421 54.3484C43.1076 56.4897 44.3812 59.2467 46.6921 59.2647C47.097 59.2678 47.622 59.1688 47.8588 59.0448C48.4783 58.7204 49.1642 57.9511 49.0651 57.692C48.9939 57.5059 48.888 57.5185 48.3724 57.7744C47.3401 58.2868 46.2744 57.8138 45.8357 56.6486C45.6098 56.0489 45.6391 54.53 45.8881 53.9322C46.2835 52.9829 46.9232 52.9114 47.8353 53.715C48.3663 54.1827 48.6301 54.1763 48.934 53.688C49.2078 53.2483 49.0094 52.8066 48.429 52.5634C47.8655 52.3272 47.4639 52.3155 46.7763 52.5154ZM59.3704 52.7148C58.41 53.1111 57.4689 53.7705 57.4723 54.0449C57.4758 54.313 57.6547 54.5333 58.0299 54.7315C58.4379 54.9472 58.9626 54.7223 58.9635 54.3316C58.9644 53.8907 59.5351 53.1012 59.8529 53.1012C60.2303 53.1012 60.5741 53.6227 60.6611 54.3275C60.7459 55.0126 60.5723 55.1735 59.1556 55.7222C58.0291 56.1587 57.5176 56.5668 57.4662 57.0702C57.3829 57.8876 57.4934 58.2468 57.9776 58.7327C58.6167 59.3738 59.3969 59.4263 60.1966 58.8818L60.7253 58.5218L61.0373 58.8818C61.21 59.081 61.5147 59.2419 61.7197 59.2419C62.3017 59.2419 63.4413 58.6254 63.4413 58.3106C63.4413 58.0951 63.3637 58.0575 63.0704 58.1315C62.531 58.2672 62.3964 57.7672 62.3964 55.6301C62.3964 53.4992 62.2392 53.0693 61.3042 52.6434C60.5108 52.282 60.4106 52.2857 59.3704 52.7148ZM77.8971 52.6326C77.1472 52.9344 76.3154 53.4613 76.0241 53.8191C75.7827 54.1155 76.0259 54.5666 76.5306 54.759C77.0171 54.9446 77.2236 54.7785 77.4504 54.0195C77.6674 53.2926 77.9573 53.0401 78.4367 53.1608C78.7015 53.2275 78.8542 53.4145 78.9754 53.8207C79.2985 54.9022 79.1868 55.0649 77.7165 55.6539C76.9879 55.9458 76.2658 56.3409 76.1117 56.5318C75.5716 57.2009 75.9172 58.657 76.718 59.087C77.2357 59.365 78.0005 59.3126 78.4858 58.9659C79.0432 58.5676 79.1489 58.5652 79.4891 58.9423C79.8381 59.3292 80.2891 59.321 81.1272 58.9125C81.5704 58.6964 81.8029 58.4867 81.8029 58.3033C81.8029 58.0988 81.7283 58.0473 81.5254 58.1118C81.3729 58.1605 81.1778 58.1144 81.0921 58.0097C81.0064 57.9049 80.9129 56.906 80.8844 55.7902C80.8429 54.1658 80.7801 53.681 80.5693 53.3585C79.9784 52.4545 78.9999 52.1886 77.8971 52.6326ZM28.2483 56.086C27.7107 56.4772 27.6138 56.6278 27.6138 57.0711C27.6138 57.6633 28.0391 58.1935 28.5141 58.1935C28.9205 58.1935 28.9791 57.9824 28.927 56.7076L28.8827 55.6243L28.2483 56.086ZM59.9332 56.0703C59.4576 56.3992 59.3271 56.5891 59.2919 57.0031C59.2197 57.853 60.0688 58.5218 60.5751 58.0137C60.7701 57.8181 60.8321 55.6439 60.6423 55.6523C60.5807 55.655 60.2616 55.8431 59.9332 56.0703ZM78.3707 56.0312C77.5502 56.6123 77.4214 57.1925 77.9707 57.8334C78.2487 58.1577 78.3981 58.2188 78.7171 58.1384C79.1077 58.0401 79.1159 58.0133 79.1159 56.8427C79.1159 56.1852 79.0656 55.6506 79.0039 55.6547C78.9423 55.6587 78.6574 55.8281 78.3707 56.0312ZM9.73394 59.9907C9.65407 60.1967 9.53868 60.6011 9.47747 60.8894C9.30177 61.7169 9.17936 61.8515 8.33219 62.1491C7.89405 62.3029 7.47904 62.4795 7.41022 62.5412C7.3414 62.6029 7.72312 62.7997 8.25874 62.9784L9.23235 63.3036L9.49927 64.343C9.64601 64.9148 9.81126 65.3826 9.86635 65.3826C9.92143 65.3826 10.0809 64.9142 10.2206 64.3419L10.4748 63.3012L11.5295 62.9485L12.5842 62.5957L11.5526 62.2179L10.5211 61.84L10.2001 60.7282C9.90875 59.7194 9.8656 59.6511 9.73394 59.9907ZM47.6496 62.3369C47.38 62.4702 46.8608 62.9124 46.496 63.3196C45.9724 63.9037 45.7942 64.2464 45.6503 64.9458C45.5194 65.5819 45.4005 65.8319 45.229 65.8319C44.977 65.8319 44.6319 66.1088 44.6319 66.3112C44.6319 66.377 44.8349 66.431 45.0832 66.431H45.5344L45.4937 69.0894C45.4534 71.7182 45.4492 71.7485 45.117 71.7958C44.9322 71.822 44.7812 71.9401 44.7812 72.0579C44.7812 72.223 45.0293 72.2746 45.8635 72.2829C46.4588 72.2889 47.281 72.3041 47.6908 72.3169C48.277 72.335 48.446 72.2871 48.4833 72.0922C48.5169 71.9176 48.4081 71.8301 48.1151 71.7961C47.4397 71.7178 47.3236 71.2682 47.3212 68.7228L47.3189 66.4467L48.1013 66.4013C48.6956 66.367 48.8952 66.2951 48.9316 66.1021C48.9712 65.8934 48.8383 65.8401 48.1867 65.8025L47.3936 65.757L47.3507 64.4694C47.2906 62.6594 47.5968 62.4527 48.8455 63.4599C49.2409 63.7789 49.2608 63.7804 49.5546 63.5137C50.5576 62.6029 49.0255 61.6565 47.6496 62.3369ZM68.4796 62.3465C67.6944 62.4969 67.3227 62.6351 67.3227 62.7771C67.3227 62.8921 67.4186 62.9862 67.536 62.9862C68.0207 62.9862 68.2183 63.4339 68.2182 64.532V65.6072L67.4909 65.6177C66.4827 65.6324 65.1888 66.2876 64.6242 67.0694C63.192 69.0532 63.9696 71.8008 66.1402 72.4253C66.7064 72.5883 67.066 72.5111 67.6442 72.1027C68.1482 71.7467 68.2183 71.7513 68.2183 72.1398C68.2183 72.4067 68.2831 72.4431 68.6289 72.3702C68.8547 72.3226 69.4593 72.2066 69.9724 72.1126C71.0009 71.9243 71.1861 71.6507 70.4576 71.3959L70.0097 71.2393V66.6634C70.0097 63.0925 69.9687 62.0918 69.8231 62.1063C69.7206 62.1166 69.116 62.2248 68.4796 62.3465ZM28.1723 65.7464C27.1627 66.1079 26.7181 66.7323 26.7181 67.7891C26.7181 68.3141 26.8072 68.4996 27.2788 68.9573C27.5872 69.2564 28.1593 69.6855 28.5498 69.9108C29.4355 70.4214 29.7081 70.9348 29.3934 71.4997C29.0675 72.0849 28.5073 72.0928 27.8585 71.5214C27.5663 71.264 27.2434 70.8211 27.1412 70.5373C26.8947 69.8536 26.6527 69.9657 26.6047 70.7861C26.5487 71.7409 26.8169 72.162 27.6172 72.3756C29.2304 72.8063 30.8228 71.9992 31.0018 70.6602C31.1467 69.5763 30.6729 68.9501 29.0368 68.0635C28.7931 67.9315 28.4623 67.6468 28.3019 67.431C28.0567 67.1018 28.0378 66.9772 28.1838 66.6558C28.5123 65.9321 29.4032 65.9817 29.8257 66.7471C30.2858 67.5806 30.4172 67.7168 30.5933 67.5427C30.7116 67.4261 30.7111 67.1686 30.5918 66.6105C30.4397 65.899 30.3848 65.8278 29.8789 65.6867C29.1716 65.4896 28.8588 65.5006 28.1723 65.7464ZM34.6291 65.6722C33.5706 65.9953 32.9288 66.5436 32.4219 67.5577C31.5216 69.359 32.0951 71.432 33.727 72.2755C34.3092 72.5764 35.5678 72.5128 36.1479 72.153C36.8584 71.7125 37.3695 71.1275 37.2704 70.8684C37.1984 70.68 37.1033 70.6899 36.6228 70.9357C35.7264 71.3943 35.1371 71.3188 34.4855 70.662C33.8663 70.0379 33.5548 69.0339 33.9101 68.8077C34.0187 68.7387 34.5442 68.6761 35.0779 68.6687C35.6116 68.6614 36.3505 68.6099 36.72 68.5541C37.3587 68.4578 37.3937 68.4271 37.4304 67.9287C37.4879 67.1517 36.9354 66.2782 36.1279 65.8693C35.4256 65.5136 35.2322 65.4882 34.6291 65.6722ZM40.2624 65.8948C38.464 66.6368 37.9057 67.4466 38.8728 67.9103C39.4251 68.1752 39.7232 68.0028 39.8986 67.3173C40.2724 65.8567 41.4683 66.0213 41.5252 67.5412C41.5512 68.2339 41.3843 68.3879 40.0476 68.9039C38.7268 69.4135 38.3297 69.8031 38.3085 70.6098C38.2892 71.3511 38.6897 71.9408 39.48 72.3344L40.0563 72.6212L40.8567 72.2008C41.5782 71.8219 41.6749 71.8041 41.8382 72.0205C42.2153 72.5204 42.7153 72.5562 43.5541 72.1436C44.0654 71.8921 44.3265 71.6755 44.2969 71.5273C44.2687 71.3857 44.1246 71.3164 43.9191 71.3455C43.4273 71.4148 43.2884 70.8731 43.2884 68.8877C43.2884 66.7423 43.1115 66.2402 42.2117 65.8304C41.4014 65.4613 41.3052 65.4646 40.2624 65.8948ZM51.3818 65.8087C50.4445 66.1416 49.9623 66.5628 49.5697 67.3919C48.722 69.1818 49.2499 71.2571 50.7711 72.1148C51.2182 72.3669 51.6306 72.462 52.3045 72.4684C53.932 72.4839 55.0555 71.5402 55.4054 69.8641C55.9831 67.0976 53.8385 64.9361 51.3818 65.8087ZM58.9684 65.7082C58.4268 65.8641 57.6803 66.3336 57.3514 66.725C56.576 67.6477 56.3382 69.5642 56.857 70.7101C57.7237 72.6248 60.3791 73.1069 61.8603 71.6186C62.5666 70.9092 62.8442 70.1467 62.8442 68.9175C62.8442 67.3518 62.0279 66.1503 60.694 65.7529C59.8572 65.5036 59.6938 65.4994 58.9684 65.7082ZM34.3391 66.5301C34.1671 66.7495 33.9887 67.1033 33.9426 67.3164C33.8965 67.5297 33.8329 67.7884 33.8012 67.8912C33.7593 68.0277 34.0057 68.0785 34.7093 68.0785H35.675V67.4741C35.675 66.7756 35.3139 66.1314 34.9223 66.1314C34.7735 66.1314 34.5111 66.3108 34.3391 66.5301ZM51.6629 66.521C51.2543 67.042 51.1518 67.687 51.2291 69.2462C51.331 71.3002 52.0228 72.3495 52.8964 71.7752C53.7915 71.1867 53.7395 67.4641 52.8225 66.4847C52.3936 66.0266 52.0419 66.0377 51.6629 66.521ZM58.9719 66.602C58.1193 68.0084 58.6001 71.6505 59.6738 71.9209C60.546 72.1406 61.0494 70.688 60.8494 68.5285C60.7014 66.9315 60.2487 66.1314 59.493 66.1314C59.3633 66.1314 59.1288 66.3432 58.9719 66.602ZM66.9108 66.3299C66.2947 66.6733 66.0797 67.1675 66.0082 68.4059C65.896 70.3513 66.5119 71.4557 67.6479 71.3463L68.1437 71.2986L68.1851 69.0866C68.2258 66.9059 68.2212 66.8695 67.8559 66.503C67.4354 66.0811 67.3767 66.0703 66.9108 66.3299ZM83.3846 67.1049C83.2444 67.5992 83.0968 68.117 83.0566 68.2555C83.0117 68.4102 82.5689 68.6469 81.908 68.8693L80.8326 69.231L81.8989 69.5777L82.9653 69.9244L83.2995 71.0607C83.4833 71.6859 83.6622 72.1183 83.6972 72.0218C83.7321 71.9254 83.8744 71.4284 84.0134 70.9174L84.2661 69.9884L85.2927 69.6085L86.3193 69.2286L85.7405 69.0168C84.2294 68.464 84.2521 68.4854 83.9345 67.3037L83.6397 66.2063L83.3846 67.1049ZM40.8252 69.2564C40.3375 69.5886 40.2197 69.7636 40.1823 70.2103C40.1314 70.8186 40.5361 71.3735 41.0309 71.3735C41.4892 71.3735 41.5924 71.0583 41.505 69.9243L41.4223 68.8496L40.8252 69.2564ZM23.0461 76.7835C22.9235 77.3581 22.8517 77.4351 22.2504 77.6357L21.5894 77.8564L22.2454 78.0996C22.8095 78.3087 22.9198 78.421 23.0333 78.9019C23.2002 79.6102 23.3442 79.6106 23.5196 78.9031C23.638 78.425 23.7525 78.3102 24.3189 78.1008L24.9799 77.8564L24.3257 77.6377C23.7752 77.4535 23.6508 77.3375 23.5411 76.9049C23.3427 76.1233 23.1946 76.0871 23.0461 76.7835ZM60.0825 81.6458C55.2165 82.1132 52.2503 82.7905 45.3783 85.0028C38.8187 87.1144 36.5455 87.6555 32.4655 88.0762C29.8165 88.3494 27.6292 88.3493 25.076 88.0753C23.0197 87.8549 19.1902 87.3142 18.559 87.1551C18.3666 87.1068 18.2091 87.1051 18.2091 87.1515C18.2091 87.2775 20.3383 88.8631 21.8511 89.8639C22.5974 90.3576 23.4475 90.7946 23.7918 90.8616C25.3238 91.1595 31.0767 90.9799 34.4061 90.5303C37.8959 90.0589 42.8866 88.8862 45.8261 87.8469C49.5962 86.514 55.502 85.0116 58.739 84.5621C62.0545 84.1016 67.2161 84.0995 70.3829 84.5572C70.9577 84.6403 71.9317 84.7808 72.5475 84.8695C74.2108 85.1086 76.479 85.5821 77.9963 86.0064C80.1925 86.6206 80.0425 86.633 81.0545 85.7534C81.5483 85.3243 81.9522 84.9265 81.9522 84.8695C81.9522 84.8125 81.4987 84.6419 80.9446 84.4904C80.3904 84.339 79.2316 84.022 78.3695 83.7862C75.3785 82.9676 73.2076 82.465 70.98 82.0756C69.0137 81.7317 68.2495 81.6781 64.7102 81.6362C62.4934 81.6098 60.4109 81.6142 60.0825 81.6458ZM61.5007 86.7163C56.0315 87.4554 51.6412 88.8904 44.6319 92.23C41.2536 93.8396 40.1551 94.3508 38.2455 95.2021C37.1551 95.6883 36.1978 96.0859 36.1182 96.0859C36.0387 96.0859 35.9736 96.143 35.9736 96.2126C35.9736 96.3772 38.9598 97.066 41.2754 97.4354C42.4194 97.6178 42.5249 97.6096 43.6639 97.247C45.8048 96.5656 47.1745 95.9574 52.1706 93.4692C58.2008 90.466 59.477 90.0079 62.8184 89.6456C65.1549 89.3921 68.5436 89.7679 72.0553 90.6697L73.7188 91.0969L75.9695 89.5948C77.2073 88.7685 78.2202 88.0482 78.2202 87.994C78.2202 87.8802 75.1035 87.2097 72.9207 86.8539C70.9336 86.5301 63.5378 86.441 61.5007 86.7163ZM54.8932 95.1167C53.3774 95.3381 51.7995 95.6734 50.006 96.1554C45.4165 97.3886 44.5441 97.6361 44.4341 97.7351C44.2351 97.914 48.8064 98.0743 50.9481 97.9635C52.828 97.8661 55.254 97.6001 57.0222 97.2976C59.5269 96.8689 64.4505 95.5289 64.2318 95.3354C63.7553 94.9135 57.316 94.7627 54.8932 95.1167Z" fill="#3A3A3A"/>
</svg>
