<svg width="25" height="25" viewBox="0 0 25 25" fill="none" xmlns="http://www.w3.org/2000/svg">
<g clip-path="url(#clip0_37_4071)">
<circle cx="12.5" cy="12.5" r="12.5" fill="#F6874D" fill-opacity="0.2"/>
<path d="M12.5 4C7.81291 4 4 7.81291 4 12.5C4 17.1871 7.81291 21 12.5 21C17.1871 21 21 17.1871 21 12.5C21 7.81291 17.1871 4 12.5 4ZM16.8081 10.6987L12.2039 15.3028C12.0658 15.4409 11.8844 15.5105 11.7031 15.5105C11.5218 15.5105 11.3405 15.4409 11.2024 15.3028L8.90031 13.0008C8.62328 12.7239 8.62328 12.2761 8.90031 11.9992C9.17722 11.7222 9.62482 11.7222 9.90186 11.9992L11.7031 13.8005L15.8066 9.69719C16.0835 9.42015 16.5311 9.42015 16.8081 9.69719C17.085 9.9741 17.085 10.4217 16.8081 10.6987Z" fill="#F6874D"/>
</g>
<defs>
<clipPath id="clip0_37_4071">
<rect width="25" height="25" fill="white"/>
</clipPath>
</defs>
</svg>
