<svg width="26" height="26" viewBox="0 0 26 26" fill="none" xmlns="http://www.w3.org/2000/svg">
<path fill-rule="evenodd" clip-rule="evenodd" d="M3.03358 22.2415C2.72739 21.9376 2.72432 21.4766 2.90555 21.0852C4.0983 18.5086 6.48087 15.6182 9.00773 14.5854C9.32479 14.4558 9.33644 14.4436 9.22118 14.3626C8.94351 14.1674 8.16456 13.4368 7.93453 13.1559C6.95171 11.9556 6.48982 10.6459 6.48664 9.05065C6.48488 8.17774 6.55391 7.74024 6.81163 6.99006C7.52405 4.91662 9.24606 3.33526 11.4166 2.76125C11.9606 2.61739 12.135 2.6 13.0327 2.6C13.9304 2.6 14.1047 2.61739 14.6488 2.76125C16.8193 3.33526 18.5413 4.91662 19.2537 6.99006C19.5115 7.74024 19.5805 8.17774 19.5787 9.05065C19.5756 10.6466 19.111 11.9629 18.1297 13.1565C17.8707 13.4716 17.2212 14.0867 16.9052 14.3163L16.7222 14.4492L16.9357 14.5266C17.3852 14.6895 18.4516 15.2445 18.9482 15.5739C20.6228 16.6846 21.8759 18.1229 22.7328 19.9174C22.9332 20.3371 23.1828 20.9805 23.3125 21.3864C23.3835 21.6084 23.312 21.832 23.1536 22.0029C22.6288 22.5691 21.6385 22.2859 21.3704 21.562C20.8881 20.2598 20.1283 18.9966 19.1844 18.1033C17.9375 16.9233 16.5558 16.201 14.8012 15.8121C14.1848 15.6755 12.264 15.6358 11.6301 15.7466C8.32696 16.3241 5.65065 18.878 4.57823 21.9686C4.37293 22.5603 3.47812 22.6827 3.03358 22.2415ZM8.55566 7.57699C9.08744 5.99684 10.5323 4.76056 12.1964 4.46178C14.8636 3.98292 17.4164 5.86849 17.7219 8.54293C17.9743 10.7519 16.6272 12.8158 14.4658 13.5318C14.0205 13.6793 13.8955 13.6934 13.0327 13.6934C12.1699 13.6934 12.0449 13.6793 11.5996 13.5318C10.6462 13.216 9.76381 12.5837 9.21605 11.8238C8.32318 10.585 8.07669 9.00012 8.55566 7.57699Z" fill="#3A3A3A"/>
</svg>
