<svg width="34" height="34" viewBox="0 0 34 34" fill="none" xmlns="http://www.w3.org/2000/svg">
<path fill-rule="evenodd" clip-rule="evenodd" d="M17.4999 3C21.7243 3 25.1842 6.40935 25.1842 10.6587C25.1842 14.908 21.7243 18.3173 17.4999 18.3173C13.2755 18.3173 9.81558 14.908 9.81558 10.6587C9.81558 6.40935 13.2755 3 17.4999 3ZM17.4999 5.48022C20.4078 5.48022 22.7303 7.81797 22.7303 10.6587C22.7303 13.4994 20.4078 15.8371 17.4999 15.8371C14.592 15.8371 12.2695 13.4994 12.2695 10.6587C12.2695 7.81797 14.592 5.48022 17.4999 5.48022Z" fill="white"/>
<path fill-rule="evenodd" clip-rule="evenodd" d="M29.7233 29.4021C27.4168 25.5526 22.8401 22.8681 17.4999 22.8681C12.1597 22.8681 7.58301 25.5526 5.27648 29.4021L3.17749 28.1173C5.95918 23.4747 11.3619 20.3879 17.4999 20.3879C23.6379 20.3879 29.0406 23.4747 31.8223 28.1173L29.7233 29.4021Z" fill="white"/>
</svg>
