<svg width="68" height="384" viewBox="0 0 68 384" fill="none" xmlns="http://www.w3.org/2000/svg">
<path d="M67.0742 33.5821L67.0742 1.02165C67.0742 0.67851 66.8111 0.411621 66.4728 0.411621C66.1345 0.411621 65.8714 0.67851 65.8714 1.02165L65.8714 14.0992C65.8714 14.4424 65.6083 14.7093 65.27 14.7093L25.9719 14.7093C25.6337 14.7093 25.3706 14.9761 25.3706 15.3193L25.3706 19.456C25.3706 19.7992 25.6337 20.0661 25.9719 20.0661L65.2888 20.0661C65.6271 20.0661 65.8902 20.333 65.8902 20.6761L65.8902 33.5821C65.8902 33.9252 66.1533 34.1921 66.4916 34.1921C66.8299 34.1921 67.0742 33.9062 67.0742 33.5821Z" fill="white"/>
<path d="M67.0742 51.1765L67.0742 47.0399C67.0742 46.6969 66.8111 46.4299 66.4728 46.4299L25.9719 46.4299C25.6337 46.4299 25.3706 46.6969 25.3706 47.0399L25.3706 51.1765C25.3706 51.5199 25.6337 51.7865 25.9719 51.7865L66.4728 51.7865C66.8111 51.7865 67.0742 51.5006 67.0742 51.1765Z" fill="white"/>
<path d="M67.0742 101.581L67.0742 97.4441C67.0742 97.1011 66.8111 96.8341 66.4728 96.8341L47.7353 96.8341C47.397 96.8341 47.1339 96.5674 47.1339 96.224L47.1339 72.5664C47.1339 72.2233 47.397 71.9563 47.7353 71.9563L66.4728 71.9563C66.8111 71.9563 67.0742 71.6893 67.0742 71.3463L67.0742 67.2094C67.0742 66.8664 66.8111 66.5994 66.4728 66.5994L25.9719 66.5994C25.6337 66.5994 25.3706 66.8664 25.3706 67.2094L25.3706 71.3463C25.3706 71.6893 25.6337 71.9563 25.9719 71.9563L45.3297 71.9563C45.668 71.9563 45.9311 72.2233 45.9311 72.5664L45.9311 96.224C45.9311 96.5674 45.668 96.8341 45.3297 96.8341L25.9719 96.8341C25.6337 96.8341 25.3706 97.1011 25.3706 97.4441L25.3706 101.581C25.3706 101.924 25.6337 102.191 25.9719 102.191L66.4728 102.191C66.8111 102.172 67.0742 101.905 67.0742 101.581Z" fill="white"/>
<path d="M29.9187 148.667L39.0149 143.253C40.556 142.376 41.7777 140.927 42.6798 138.907C42.9241 138.373 43.6758 138.449 43.8074 139.021C44.4276 141.766 45.6116 144.054 47.3218 145.922C49.5207 148.267 52.1331 149.448 55.1965 149.448C58.5606 149.448 61.3796 147.981 63.6537 145.064C65.9466 142.185 67.0742 138.544 67.0742 134.179L67.0742 118.242C67.0742 117.898 66.8111 117.632 66.4728 117.632L25.9719 117.632C25.6337 117.632 25.3706 117.898 25.3706 118.242L25.3706 122.378C25.3706 122.721 25.6337 122.988 25.9719 122.988L42.6234 122.988C42.9616 122.988 43.2248 123.255 43.2248 123.598L43.2248 133.092C43.2248 133.187 43.206 133.264 43.1684 133.359C42.5106 134.789 41.4205 135.971 39.9171 136.905L28.8476 143.291C27.4756 144.111 26.3667 145.102 25.5023 146.265C25.4268 146.36 25.3892 146.494 25.3892 146.627L25.3892 147.714C25.9909 148 26.5547 148.419 27.0242 148.953L27.1936 149.144L27.3063 149.296C27.4942 149.525 27.6821 149.773 27.8701 150.001C28.4714 149.525 29.1669 149.087 29.9187 148.667ZM44.4276 133.149L44.4276 123.58C44.4276 123.236 44.6907 122.97 45.029 122.97L65.2888 122.97C65.6271 122.97 65.8902 123.236 65.8902 123.58L65.8902 133.149C65.8902 136.371 64.9129 138.945 62.9583 140.908C61.0226 142.891 58.429 143.882 55.1589 143.882C51.9075 143.882 49.2952 142.891 47.3406 140.908C45.4049 138.945 44.4276 136.371 44.4276 133.149Z" fill="white"/>
<path d="M43.0556 177.282C43.1684 177.282 43.2811 177.32 43.3751 177.377L66.1533 192.628C66.548 192.895 67.0742 192.609 67.0742 192.133L67.0742 191.847C67.0742 191.637 66.9802 191.446 66.8111 191.332L45.6868 177.263C45.3297 177.015 45.3297 176.5 45.6868 176.253L66.8111 162.108C66.9802 161.993 67.0742 161.803 67.0742 161.612L67.0742 157.094C67.0742 156.617 66.548 156.332 66.1533 156.598L43.3939 171.83C43.2999 171.887 43.1872 171.925 43.0744 171.925L33.5835 171.925C33.2828 173.679 32.8318 175.433 32.1928 177.282L43.0556 177.282Z" fill="white"/>
<path d="M43.1496 232.3C44.6719 230.718 45.7995 228.716 46.5137 226.314C46.6829 225.781 47.4158 225.742 47.6225 226.257C48.3931 228.182 49.4455 229.784 50.7611 231.042C52.4902 232.701 54.5011 233.539 56.8127 233.539C59.7258 233.539 62.1502 232.3 64.1048 229.841C66.0781 227.401 67.0742 224.332 67.0742 220.633L67.0742 202.847C67.0742 202.504 66.8111 202.237 66.4728 202.237L32.7378 202.237C32.6438 204.067 32.4183 205.859 32.0236 207.594L45.6304 207.594C45.9687 207.594 46.2318 207.861 46.2318 208.204L46.2318 220.061C46.2318 222.864 45.3673 225.171 43.6382 227.001C41.9092 228.85 39.4284 229.765 36.1583 229.765C33.2452 229.765 30.9336 228.964 29.1858 227.344C28.058 226.314 27.3063 225.056 26.9115 223.607C26.9305 224.312 26.9491 224.999 27.0057 225.628C27.1184 227.001 27.1184 226.982 27.2687 228.221C27.3629 229.002 27.4381 229.689 27.4942 230.279C27.7949 230.737 28.1146 231.195 28.4714 231.614C30.5389 234.073 33.1325 235.312 36.2334 235.312C38.921 235.331 41.2326 234.321 43.1496 232.3ZM47.4158 218.231L47.4158 208.204C47.4158 207.861 47.6789 207.594 48.0172 207.594L65.2888 207.594C65.6271 207.594 65.8902 207.861 65.8902 208.204L65.8902 219.146C65.8902 221.796 65.0445 223.912 63.3342 225.514C61.6428 227.115 59.4063 227.935 56.5872 227.935C53.7306 227.935 51.4941 227.058 49.8778 225.323C48.2428 223.569 47.4158 221.205 47.4158 218.231Z" fill="white"/>
<path d="M50.5732 262.116C50.8175 261.925 51.1746 261.963 51.3625 262.192L66.0405 278.663C66.3976 279.082 67.0742 278.816 67.0742 278.263L67.0742 277.977C67.0742 277.825 67.0178 277.691 66.9239 277.576L44.9162 252.87C44.5779 252.489 44.841 251.86 45.3673 251.86L66.4728 251.86C66.8111 251.86 67.0742 251.593 67.0742 251.25L67.0742 247.113C67.0742 246.77 66.8111 246.503 66.4728 246.503L25.9719 246.503C25.6337 246.503 25.3706 246.77 25.3706 247.113L25.3706 251.25C25.3706 251.593 25.6337 251.86 25.9719 251.86L41.9092 251.86C42.0784 251.86 42.2475 251.936 42.3602 252.069L47.2091 257.579C47.4346 257.846 47.397 258.246 47.1151 258.475L25.6151 274.736C25.4647 274.85 25.3706 275.022 25.3706 275.213L25.3706 279.959C25.3706 280.455 25.9343 280.741 26.3292 280.436L50.5732 262.116Z" fill="white"/>
<path d="M61.5294 323.882C65.6077 319.726 67.6562 314.503 67.6562 308.193C67.6562 301.92 65.6077 296.697 61.5294 292.522C57.4324 288.347 52.3392 286.269 46.2124 286.269C40.1044 286.269 35.0113 288.347 30.9142 292.522C26.8358 296.716 24.8063 301.94 24.8063 308.193C24.8063 314.503 26.8358 319.726 30.9142 323.882C35.0113 328.057 40.1044 330.134 46.2124 330.134C52.3204 330.134 57.4324 328.057 61.5294 323.882ZM31.4968 320.069C27.8133 317.095 25.9713 313.13 25.9713 308.193C25.9713 303.293 27.8133 299.347 31.4968 296.354C35.1992 293.38 40.1044 291.893 46.2124 291.893C52.3392 291.893 57.2445 293.38 60.928 296.354C64.6304 299.347 66.4722 303.293 66.4722 308.193C66.4722 313.13 64.6304 317.095 60.928 320.069C57.2444 323.062 52.3392 324.568 46.2124 324.568C40.1044 324.549 35.1992 323.062 31.4968 320.069Z" fill="white"/>
<path d="M67.0742 382.979L67.0742 378.346C67.0742 378.136 66.9615 377.946 66.7923 377.832L42.7174 363.115C42.3414 362.886 42.3414 362.314 42.7174 362.085L66.7923 347.292C66.9615 347.177 67.0742 346.987 67.0742 346.777L67.0742 341.897C67.0742 341.553 66.8111 341.287 66.4728 341.287L25.9719 341.287C25.6337 341.287 25.3706 341.553 25.3706 341.897L25.3706 342.126C25.3706 342.469 25.6337 342.736 25.9719 342.736L62.3006 342.736C62.902 342.736 63.1275 343.536 62.6013 343.86L36.5153 359.836C36.3274 359.95 36.2334 360.14 36.2334 360.35L36.2334 360.617C36.2334 360.827 36.3462 361.017 36.5153 361.132L62.6013 377.107C63.1087 377.431 62.902 378.232 62.3006 378.232L25.9909 378.232C25.6527 378.232 25.3892 378.499 25.3892 378.842L25.3892 382.979C25.3892 383.322 25.6527 383.589 25.9909 383.589L66.4728 383.589C66.8111 383.589 67.0742 383.322 67.0742 382.979Z" fill="white"/>
<path d="M5.58091 212.74C5.07373 210.681 4.77306 208.451 4.75408 206.125C4.75408 204.505 4.88581 202.922 5.1675 201.417C5.20508 201.13 5.09233 200.883 4.88581 200.73C2.79975 199.32 1.52153 196.784 1.20227 193.772C1.16468 193.238 0.375049 193.2 0.299882 193.753C0.0933675 195.049 -0.00078453 196.384 -0.00078459 197.775C0.0182004 203.99 2.08528 209.499 5.28024 212.912C5.41198 213.045 5.63748 212.912 5.58091 212.74Z" fill="#AB3541"/>
<path d="M20.9555 231.5C22.5719 230.413 22.5154 228.717 22.4968 228.488C22.4592 227.821 22.4026 226.944 22.3274 225.972C22.1961 224.275 22.0644 222.273 21.9892 220.424C21.9516 219.147 21.5944 218.251 21.1624 217.145C21.0682 216.878 20.9555 216.611 20.8427 216.326C19.4521 212.665 18.7191 208.738 18.6815 204.868C18.6629 202.161 18.8132 199.836 19.1515 197.796C19.6401 194.86 20.0911 192.82 22.1585 188.34C22.5719 187.463 22.9853 186.567 23.3988 185.69C24.4135 183.555 25.4097 181.42 26.2931 179.266C26.5937 178.656 26.8568 178.046 27.1199 177.398C28.2478 174.538 29.1121 171.526 29.2812 168.019C29.4128 165.597 28.9619 163.348 28.6422 162.319C27.5147 158.41 25.8231 154.96 23.6433 152.291C23.6057 152.234 23.5491 152.177 23.4929 152.1C23.2294 151.796 22.7599 152.024 22.8536 152.406C23.5491 155.684 23.0229 158.563 21.3503 160.317C21.3313 160.317 21.2937 160.355 21.2561 160.412C21.0306 160.66 21.012 161.022 21.2185 161.289C22.9478 163.615 24.3949 166.417 25.3911 169.601C26.0862 171.774 26.1427 175.358 25.56 177.531C25.0714 179.361 24.5828 180.696 24.0377 181.878C22.8536 183.994 21.4065 186.224 20.3165 187.806C19.8466 188.493 19.3018 189.255 18.7191 190.056C16.6892 192.896 14.2087 196.366 12.7801 198.901C10.9761 202.085 10.4496 203.439 9.43484 206.965C8.70177 209.539 8.45768 212.246 8.30734 214.896C8.26976 217.221 8.66419 221.911 9.66034 223.57C11.5399 226.658 13.2687 228.126 15.6558 230.127C16.0127 230.432 16.3885 230.737 16.7643 231.062C17.6667 231.805 19.3394 232.587 20.9555 231.5Z" fill="#AB3541"/>
<path d="M26.3323 194.058C26.5012 197.261 25.5806 200.101 23.5321 201.95C23.3438 202.122 23.2876 202.389 23.3438 202.637C24.0017 204.867 24.3775 207.345 24.3775 209.938C24.3775 211.158 24.3214 212.359 24.152 213.522C24.1145 213.732 24.3775 213.827 24.4903 213.655C26.7271 210.319 28.0801 205.706 28.0801 200.635C28.0801 198.252 27.798 195.983 27.2343 193.925C27.1029 193.372 26.3133 193.486 26.3323 194.058Z" fill="#AB3541"/>
</svg>
