<svg width="22" height="22" viewBox="0 0 22 22" fill="none" xmlns="http://www.w3.org/2000/svg">
<path d="M4.81217 3.66675C3.17504 3.66675 1.83301 5.00878 1.83301 6.64591V15.3542C1.83301 16.9914 3.17504 18.3334 4.81217 18.3334H17.1872C18.8243 18.3334 20.1663 16.9914 20.1663 15.3542V6.64591C20.1663 5.00878 18.8243 3.66675 17.1872 3.66675H4.81217ZM4.81217 5.04175H17.1872C18.081 5.04175 18.7913 5.75214 18.7913 6.64591V7.15259L10.9997 11.3644L3.20801 7.15259V6.64591C3.20801 5.75214 3.9184 5.04175 4.81217 5.04175ZM3.20801 8.71558L10.6729 12.7511C10.7733 12.8053 10.8856 12.8337 10.9997 12.8337C11.1138 12.8337 11.226 12.8053 11.3264 12.7511L18.7913 8.71558V15.3542C18.7913 16.248 18.081 16.9584 17.1872 16.9584H4.81217C3.9184 16.9584 3.20801 16.248 3.20801 15.3542V8.71558Z" fill="#25344F"/>
</svg>
