<svg width="18" height="18" viewBox="0 0 18 18" fill="none" xmlns="http://www.w3.org/2000/svg">
<path d="M9 1.5C4.85775 1.5 1.5 4.85775 1.5 9C1.5 13.1423 4.85775 16.5 9 16.5C13.1423 16.5 16.5 13.1423 16.5 9C16.5 4.85775 13.1423 1.5 9 1.5ZM9 3.5625C10.3463 3.5625 11.4375 4.65375 11.4375 6C11.4375 7.34625 10.3463 8.4375 9 8.4375C7.65375 8.4375 6.5625 7.34625 6.5625 6C6.5625 4.65375 7.65375 3.5625 9 3.5625ZM9 15C6.9225 15 5.0925 13.944 4.0155 12.3398C4.85625 11.1173 7.5345 10.5 9 10.5C10.4655 10.5 13.1438 11.1173 13.9845 12.3398C12.9075 13.944 11.0775 15 9 15Z" fill="#E7D5B3"/>
</svg>
