<svg width="20" height="20" viewBox="0 0 20 20" fill="none" xmlns="http://www.w3.org/2000/svg">
<path d="M13.5421 2.08331C12.5084 2.08331 11.6671 2.92456 11.6671 3.95831V4.16665H2.2921C2.20928 4.16547 2.12706 4.18078 2.0502 4.21166C1.97335 4.24254 1.9034 4.28839 1.84442 4.34655C1.78543 4.4047 1.7386 4.47399 1.70663 4.55041C1.67467 4.62682 1.6582 4.70882 1.6582 4.79165C1.6582 4.87447 1.67467 4.95648 1.70663 5.03289C1.7386 5.1093 1.78543 5.17859 1.84442 5.23675C1.9034 5.2949 1.97335 5.34075 2.0502 5.37163C2.12706 5.40252 2.20928 5.41782 2.2921 5.41665H11.6671V5.62498C11.6671 6.65873 12.5084 7.49998 13.5421 7.49998C14.5759 7.49998 15.4171 6.65873 15.4171 5.62498V5.41665H17.7088C17.7916 5.41782 17.8738 5.40252 17.9507 5.37163C18.0275 5.34075 18.0975 5.2949 18.1565 5.23675C18.2154 5.17859 18.2623 5.1093 18.2942 5.03289C18.3262 4.95648 18.3427 4.87447 18.3427 4.79165C18.3427 4.70882 18.3262 4.62682 18.2942 4.55041C18.2623 4.47399 18.2154 4.4047 18.1565 4.34655C18.0975 4.28839 18.0275 4.24254 17.9507 4.21166C17.8738 4.18078 17.7916 4.16547 17.7088 4.16665H15.4171V3.95831C15.4171 2.92456 14.5759 2.08331 13.5421 2.08331ZM6.45877 7.29165C5.42502 7.29165 4.58377 8.1329 4.58377 9.16665V9.37498H2.2921C2.20928 9.37381 2.12706 9.38911 2.0502 9.41999C1.97335 9.45088 1.9034 9.49673 1.84442 9.55488C1.78543 9.61303 1.7386 9.68233 1.70663 9.75874C1.67467 9.83515 1.6582 9.91715 1.6582 9.99998C1.6582 10.0828 1.67467 10.1648 1.70663 10.2412C1.7386 10.3176 1.78543 10.3869 1.84442 10.4451C1.9034 10.5032 1.97335 10.5491 2.0502 10.58C2.12706 10.6108 2.20928 10.6262 2.2921 10.625H4.58377V10.8333C4.58377 11.8671 5.42502 12.7083 6.45877 12.7083C7.49252 12.7083 8.33377 11.8671 8.33377 10.8333V10.625H17.7088C17.7916 10.6262 17.8738 10.6108 17.9507 10.58C18.0275 10.5491 18.0975 10.5032 18.1565 10.4451C18.2154 10.3869 18.2623 10.3176 18.2942 10.2412C18.3262 10.1648 18.3427 10.0828 18.3427 9.99998C18.3427 9.91715 18.3262 9.83515 18.2942 9.75874C18.2623 9.68233 18.2154 9.61303 18.1565 9.55488C18.0975 9.49673 18.0275 9.45088 17.9507 9.41999C17.8738 9.38911 17.7916 9.37381 17.7088 9.37498H8.33377V9.16665C8.33377 8.1329 7.49252 7.29165 6.45877 7.29165ZM12.7088 12.5C11.675 12.5 10.8338 13.3412 10.8338 14.375V14.5833H2.2921C2.20928 14.5821 2.12706 14.5974 2.0502 14.6283C1.97335 14.6592 1.9034 14.7051 1.84442 14.7632C1.78543 14.8214 1.7386 14.8907 1.70663 14.9671C1.67467 15.0435 1.6582 15.1255 1.6582 15.2083C1.6582 15.2911 1.67467 15.3731 1.70663 15.4496C1.7386 15.526 1.78543 15.5953 1.84442 15.6534C1.9034 15.7116 1.97335 15.7574 2.0502 15.7883C2.12706 15.8192 2.20928 15.8345 2.2921 15.8333H10.8338V16.0416C10.8338 17.0754 11.675 17.9166 12.7088 17.9166C13.7425 17.9166 14.5838 17.0754 14.5838 16.0416V15.8333H17.7088C17.7916 15.8345 17.8738 15.8192 17.9507 15.7883C18.0275 15.7574 18.0975 15.7116 18.1565 15.6534C18.2154 15.5953 18.2623 15.526 18.2942 15.4496C18.3262 15.3731 18.3427 15.2911 18.3427 15.2083C18.3427 15.1255 18.3262 15.0435 18.2942 14.9671C18.2623 14.8907 18.2154 14.8214 18.1565 14.7632C18.0975 14.7051 18.0275 14.6592 17.9507 14.6283C17.8738 14.5974 17.7916 14.5821 17.7088 14.5833H14.5838V14.375C14.5838 13.3412 13.7425 12.5 12.7088 12.5Z" fill="white"/>
</svg>
