<svg width="22" height="22" viewBox="0 0 22 22" fill="none" xmlns="http://www.w3.org/2000/svg">
<path opacity="0.35" d="M19.1989 2.12584C19.0116 2.04092 18.813 1.9978 18.6075 1.9978C18.3316 1.9978 18.0634 2.07678 17.8329 2.22572C17.735 2.28886 15.4133 3.79036 13.6293 5.51428L3.39076 15.7515C2.3594 16.7829 2.3594 18.4608 3.39032 19.4924C3.88906 19.9916 4.55346 20.2664 5.2612 20.2664C5.9652 20.2664 6.62718 19.994 7.1257 19.499L9.87878 16.764L10.937 18.0503C11.1867 18.3537 11.5552 18.5425 11.9316 18.5675C11.9692 18.5706 12.0068 18.5722 12.0445 18.5722C12.4068 18.5722 12.7533 18.4344 13.0188 18.1852C18.2553 13.277 19.5887 8.66512 19.9189 6.90952C20.2654 5.0646 20.0492 3.40998 20.0232 3.22584C19.9537 2.74096 19.6468 2.33022 19.1989 2.12584Z" fill="black"/>
<path d="M18.7594 1.68584C18.5722 1.60092 18.3735 1.5578 18.1681 1.5578C17.8922 1.5578 17.624 1.63678 17.3934 1.78572C17.2955 1.84886 14.9739 3.35036 13.1899 5.07428L2.95131 15.3115C1.91995 16.3429 1.91995 18.0208 2.95087 19.0524C3.44961 19.5516 4.11401 19.8264 4.82175 19.8264C5.52575 19.8264 6.18773 19.554 6.68625 19.059L9.43933 16.324L10.4975 17.6103C10.7472 17.9137 11.1157 18.1025 11.4922 18.1275C11.5298 18.1306 11.5674 18.1322 11.605 18.1322C11.9674 18.1322 12.3139 17.9944 12.5794 17.7452C17.8158 12.837 19.1493 8.22512 19.4795 6.46952C19.826 4.6246 19.6097 2.96998 19.5837 2.78584C19.5142 2.30096 19.2073 1.89022 18.7594 1.68584Z" fill="#F2F2F2"/>
<path d="M3.96154 18.0415C3.48678 17.5668 3.48678 16.7972 3.96154 16.3227L14.1999 6.08561C15.8734 4.46883 18.1669 2.98779 18.1669 2.98779C18.1669 2.98779 18.3876 4.53307 18.073 6.20529C17.6638 8.38153 16.0956 12.4885 11.6006 16.7015L9.5447 14.2023L5.67754 18.0444C5.20234 18.5163 4.43498 18.515 3.96154 18.0415Z" fill="#707CC0"/>
<path d="M18.1668 2.98779C18.1668 2.98779 15.8735 4.46861 14.2 6.08561L8.06641 12.2183L9.79979 13.9926L11.8104 16.4366C11.8104 16.4366 11.8264 16.4478 11.8495 16.4637C16.1521 12.3345 17.6714 8.34061 18.0729 6.20529C18.3875 4.53307 18.1668 2.98779 18.1668 2.98779Z" fill="#70BFFF"/>
<path d="M18.1668 2.98779C18.1668 2.98779 15.8735 4.46861 14.2 6.08561L8.06641 12.2183L9.79979 13.9926L11.8104 16.4366C11.8104 16.4366 11.8264 16.4478 11.8495 16.4637C16.1521 12.3345 17.6714 8.34061 18.0729 6.20529C18.3875 4.53307 18.1668 2.98779 18.1668 2.98779Z" fill="#D9EEFF"/>
<path d="M4.8199 18.7264C4.4239 18.7264 4.0279 18.5759 3.72716 18.275C3.1248 17.6724 3.1248 16.6919 3.72716 16.0893L13.9655 5.85224C15.6472 4.22754 17.8923 2.77158 17.9869 2.71064C18.0815 2.6497 18.2005 2.64112 18.3028 2.68754C18.4053 2.7344 18.4768 2.82988 18.4927 2.9412C18.5019 3.00654 18.7171 4.56018 18.3965 6.26628C18.0863 7.91496 16.8253 12.2558 11.8254 16.9422C11.7589 17.0045 11.6694 17.0381 11.5785 17.0307C11.4874 17.0247 11.403 16.9814 11.3449 16.911L9.51932 14.6918L5.90912 18.2785C5.60838 18.5773 5.21414 18.7264 4.8199 18.7264ZM4.19378 17.8084C4.53764 18.1522 5.09864 18.1538 5.44404 17.8103L9.3112 13.9683C9.37742 13.9027 9.46828 13.8697 9.56046 13.8728C9.6533 13.8774 9.73976 13.921 9.79872 13.9927L11.6296 16.2182C16.4077 11.6286 17.5192 7.35946 17.7478 6.14418C17.9387 5.12844 17.9246 4.15098 17.8886 3.5715C17.1397 4.08498 15.616 5.17574 14.4282 6.32304L4.19378 16.5561C3.84882 16.9013 3.84882 17.4627 4.19378 17.8084Z" fill="#40396E"/>
<path opacity="0.35" d="M17.0619 3.74835C16.2492 4.33201 15.129 5.18759 14.1995 6.08563L8.06587 12.2184L7.59375 12.6795L9.32713 14.4538L9.79925 13.9927L10.7032 15.0916C10.7032 15.0916 15.1188 11 16.5249 7.03845C17.178 5.19727 17.0619 3.74923 17.0619 3.74835Z" fill="#40396E"/>
<path d="M5.39055 16.9389C5.5728 16.9389 5.72055 16.7912 5.72055 16.6089C5.72055 16.4267 5.5728 16.2789 5.39055 16.2789C5.20829 16.2789 5.06055 16.4267 5.06055 16.6089C5.06055 16.7912 5.20829 16.9389 5.39055 16.9389Z" fill="#D9EEFF"/>
<path d="M7.36906 14.9589C7.55132 14.9589 7.69906 14.8111 7.69906 14.6289C7.69906 14.4466 7.55132 14.2989 7.36906 14.2989C7.18681 14.2989 7.03906 14.4466 7.03906 14.6289C7.03906 14.8111 7.18681 14.9589 7.36906 14.9589Z" fill="#D9EEFF"/>
</svg>
