<svg width="35" height="35" viewBox="0 0 35 35" fill="none" xmlns="http://www.w3.org/2000/svg">
<g clip-path="url(#clip0_403_303)">
<path d="M15.2519 1.61955C16.0637 -0.40972 18.9363 -0.40972 19.7481 1.61955C20.3485 3.12043 22.2229 3.62268 23.4933 2.62309C25.211 1.27159 27.6987 2.70786 27.3871 4.87116C27.1566 6.47116 28.5288 7.84336 30.1288 7.61289C32.2921 7.3013 33.7284 9.78898 32.3769 11.5067C31.3773 12.7771 31.8796 14.6515 33.3805 15.2519C35.4097 16.0637 35.4097 18.9363 33.3805 19.7481C31.8796 20.3485 31.3773 22.2229 32.3769 23.4933C33.7284 25.211 32.2921 27.6987 30.1288 27.3871C28.5288 27.1566 27.1566 28.5288 27.3871 30.1288C27.6987 32.2921 25.211 33.7284 23.4933 32.3769C22.2229 31.3773 20.3485 31.8796 19.7481 33.3805C18.9363 35.4097 16.0637 35.4097 15.2519 33.3805C14.6515 31.8796 12.7771 31.3773 11.5067 32.3769C9.78898 33.7284 7.3013 32.2921 7.61289 30.1288C7.84336 28.5288 6.47116 27.1566 4.87116 27.3871C2.70786 27.6987 1.27159 25.211 2.62309 23.4933C3.62268 22.2229 3.12043 20.3485 1.61955 19.7481C-0.40972 18.9363 -0.40972 16.0637 1.61955 15.2519C3.12043 14.6515 3.62268 12.7771 2.62309 11.5067C1.27159 9.78898 2.70786 7.3013 4.87116 7.61289C6.47116 7.84336 7.84336 6.47116 7.61289 4.87116C7.3013 2.70786 9.78898 1.27159 11.5067 2.62309C12.7771 3.62268 14.6515 3.12043 15.2519 1.61955Z" fill="#08105B"/>
<path d="M13.3166 14.4545V21H12.1213L9.27366 16.8803H9.22572V21H7.84184V14.4545H9.05633L11.8816 18.571H11.9391V14.4545H13.3166ZM14.46 21V14.4545H18.8705V15.5955H15.8439V17.1552H18.6436V18.2962H15.8439V19.859H18.8833V21H14.46ZM21.4441 21L19.5712 14.4545H21.083L22.1664 19.0025H22.2207L23.4161 14.4545H24.7104L25.9026 19.0121H25.9601L27.0435 14.4545H28.5553L26.6824 21H25.3337L24.0872 16.7205H24.0361L22.7928 21H21.4441Z" fill="white"/>
</g>
<defs>
<clipPath id="clip0_403_303">
<rect width="35" height="35" fill="white"/>
</clipPath>
</defs>
</svg>
