<svg width="26" height="26" viewBox="0 0 26 26" fill="none" xmlns="http://www.w3.org/2000/svg">
<path d="M5.14588 2.70834C4.10861 2.70834 3.25004 3.56691 3.25004 4.60418V6.0726L2.2249 8.636C2.17963 8.74939 2.1605 8.87152 2.16893 8.99332C2.17735 9.11512 2.21312 9.23345 2.27356 9.33953C2.27356 9.33988 2.27356 9.34023 2.27356 9.34059C2.39722 10.2045 2.7431 10.9973 3.25004 11.6575V20.8542C3.25004 22.4899 4.5935 23.8333 6.22921 23.8333H19.7709C21.4066 23.8333 22.75 22.4899 22.75 20.8542V11.6596C23.259 10.9976 23.6056 10.2012 23.7286 9.33424C23.7879 9.22867 23.8229 9.11119 23.8309 8.99039C23.839 8.86958 23.8199 8.7485 23.7752 8.636L22.75 6.0726V4.60418C22.75 3.56691 21.8915 2.70834 20.8542 2.70834H5.14588ZM5.14588 4.33334H20.8542C21.014 4.33334 21.125 4.44436 21.125 4.60418V6.22918C21.1251 6.33247 21.1448 6.4348 21.1832 6.53069L22.1682 8.99358C22.0008 10.6359 20.6489 11.9167 18.9584 11.9167C18.0553 11.9167 17.2471 11.5535 16.6584 10.9635C16.5112 10.816 16.313 10.7306 16.1047 10.7251C15.8964 10.7196 15.6939 10.7943 15.5391 10.9338C14.8634 11.5446 13.9809 11.9167 13 11.9167C12.0192 11.9167 11.1367 11.5446 10.461 10.9338C10.3062 10.7943 10.1037 10.7196 9.89541 10.7251C9.6871 10.7306 9.48886 10.816 9.34168 10.9635C8.75294 11.5535 7.94483 11.9167 7.04171 11.9167C5.35054 11.9167 3.99882 10.6358 3.83191 8.99358L4.81686 6.53069C4.85524 6.4348 4.87499 6.33247 4.87504 6.22918V4.60418C4.87504 4.44436 4.98606 4.33334 5.14588 4.33334ZM7.31254 5.41668C7.09705 5.41668 6.89039 5.50228 6.73802 5.65465C6.58564 5.80703 6.50004 6.01369 6.50004 6.22918C6.50004 6.44467 6.58564 6.65133 6.73802 6.8037C6.89039 6.95607 7.09705 7.04168 7.31254 7.04168C7.52803 7.04168 7.73469 6.95607 7.88707 6.8037C8.03944 6.65133 8.12504 6.44467 8.12504 6.22918C8.12504 6.01369 8.03944 5.80703 7.88707 5.65465C7.73469 5.50228 7.52803 5.41668 7.31254 5.41668ZM10.0209 5.41668C9.80539 5.41668 9.59872 5.50228 9.44635 5.65465C9.29398 5.80703 9.20838 6.01369 9.20838 6.22918C9.20838 6.44467 9.29398 6.65133 9.44635 6.8037C9.59872 6.95607 9.80539 7.04168 10.0209 7.04168C10.2364 7.04168 10.443 6.95607 10.5954 6.8037C10.7478 6.65133 10.8334 6.44467 10.8334 6.22918C10.8334 6.01369 10.7478 5.80703 10.5954 5.65465C10.443 5.50228 10.2364 5.41668 10.0209 5.41668ZM9.93201 12.488C10.8121 13.1088 11.8421 13.5417 13 13.5417C14.158 13.5417 15.188 13.1088 16.0681 12.488C16.8863 13.1072 17.8577 13.5417 18.9584 13.5417C19.7412 13.5417 20.4758 13.3515 21.125 13.018V20.8542C21.125 21.6115 20.5282 22.2083 19.7709 22.2083H18.9584V15.9792C18.9584 15.7637 18.8727 15.557 18.7204 15.4047C18.568 15.2523 18.3614 15.1667 18.1459 15.1667H13H7.85421C7.63873 15.1667 7.43208 15.2523 7.27971 15.4047C7.12734 15.557 7.04173 15.7637 7.04171 15.9792V22.2083H6.22921C5.47184 22.2083 4.87504 21.6115 4.87504 20.8542V13.018C5.52429 13.3516 6.25861 13.5417 7.04171 13.5417C8.14239 13.5417 9.11377 13.1072 9.93201 12.488ZM8.66671 16.7917H12.1875V22.2083H8.66671V16.7917ZM13.8125 16.7917H17.3334V22.2083H13.8125V16.7917Z" fill="#04A3E9"/>
</svg>
