<svg width="22" height="22" viewBox="0 0 22 22" fill="none" xmlns="http://www.w3.org/2000/svg">
<rect x="3" y="3" width="16" height="16" rx="8" fill="white"/>
<rect x="2" y="2" width="18" height="18" rx="9" stroke="#25344F" stroke-opacity="0.1" stroke-width="2"/>
<path d="M13.7383 7.08105C13.6317 6.97298 13.4592 6.97298 13.3526 7.08105L10.9999 9.4674L8.64736 7.08105C8.54082 6.97298 8.36827 6.97298 8.26173 7.08105L7.07991 8.27976C6.97336 8.38783 6.97336 8.56284 7.07991 8.67091L9.37618 11L7.07991 13.3291C6.97336 13.4372 6.97336 13.6122 7.07991 13.7202L8.26173 14.9189C8.36827 15.027 8.54082 15.027 8.64736 14.9189L10.9999 12.5326L13.3526 14.9189C13.4592 15.027 13.6317 15.027 13.7383 14.9189L14.9201 13.7201C15.0266 13.612 15.0266 13.437 14.9201 13.3289L12.624 11L14.9201 8.67109C15.0266 8.56302 15.0266 8.38801 14.9201 8.27994L13.7383 7.08105Z" fill="#25344F" fill-opacity="0.4"/>
</svg>
