<svg width="35" height="35" viewBox="0 0 35 35" fill="none" xmlns="http://www.w3.org/2000/svg">
<path d="M29.9462 30.712C29.9852 30.6272 30.0035 30.5338 29.9995 30.44L29.1277 23C29.1123 22.8683 29.0468 22.7482 28.9457 22.6663C28.8446 22.5844 28.7162 22.5473 28.5887 22.5633C28.4611 22.5792 28.3449 22.6468 28.2656 22.7512C28.1863 22.8556 28.1504 22.9883 28.1658 23.12L28.9103 29.4715L25.8026 27.297V16.557C25.8026 16.4244 25.7516 16.2972 25.6608 16.2035C25.5701 16.1097 25.4469 16.057 25.3186 16.057C25.1902 16.057 25.0671 16.1097 24.9763 16.2035C24.8855 16.2972 24.8345 16.4244 24.8345 16.557V27.3235L22.4272 29.332L24.7512 10.2H26.6497L27.9291 21.12C27.9445 21.2517 28.0099 21.3717 28.111 21.4535C28.212 21.5354 28.3404 21.5724 28.4679 21.5565C28.5954 21.5406 28.7115 21.473 28.7908 21.3687C28.87 21.2643 28.9059 21.1317 28.8905 21L27.5593 9.64002C27.545 9.51871 27.4882 9.407 27.3997 9.32594C27.3111 9.24489 27.1969 9.2001 27.0786 9.20002C26.2881 9.19752 23.9762 9.20502 23.2293 9.19002V7.69702C23.2313 6.93701 23.0542 6.18791 22.7133 5.51438C22.3724 4.84085 21.8779 4.2631 21.2726 3.83099C20.6673 3.39888 19.9693 3.12539 19.2389 3.0341C18.5084 2.94282 17.7674 3.03649 17.0798 3.30703C16.3922 3.03639 15.6511 2.94264 14.9206 3.03387C14.19 3.1251 13.4919 3.39858 12.8866 3.8307C12.2812 4.26283 11.7867 4.84061 11.4458 5.5142C11.1049 6.18779 10.9278 6.93694 10.9297 7.69702V9.07702L6.94638 9.04002C6.82834 9.04007 6.71439 9.08467 6.62596 9.16542C6.53752 9.24618 6.4807 9.35753 6.46619 9.47852L5.44481 17.9585C5.4325 18.0882 5.46972 18.2178 5.54854 18.3196C5.62735 18.4214 5.74154 18.4874 5.86676 18.5035C5.99199 18.5196 6.11835 18.4845 6.21892 18.4058C6.3195 18.3271 6.38633 18.2109 6.40519 18.082L7.37332 10.044L10.9297 10.0765V11.27C10.5137 11.3908 10.154 11.6631 9.91721 12.0365C9.6804 12.4099 9.58245 12.8592 9.64147 13.3015C9.70048 13.7437 9.91248 14.1489 10.2383 14.4422C10.5641 14.7355 10.9816 14.8971 11.4138 14.8971C11.846 14.8971 12.2635 14.7355 12.5893 14.4422C12.9151 14.1489 13.1271 13.7437 13.1861 13.3015C13.2452 12.8592 13.1472 12.4099 12.9104 12.0365C12.6736 11.6631 12.3139 11.3908 11.8979 11.27V10.0855L19.0562 10.1515V11.27C18.6402 11.3908 18.2805 11.6631 18.0437 12.0365C17.8069 12.4099 17.7089 12.8592 17.7679 13.3015C17.827 13.7437 18.039 14.1489 18.3647 14.4422C18.6905 14.7355 19.1081 14.8971 19.5403 14.8971C19.9725 14.8971 20.39 14.7355 20.7158 14.4422C21.0416 14.1489 21.2536 13.7437 21.3126 13.3015C21.3716 12.8592 21.2737 12.4099 21.0369 12.0365C20.8001 11.6631 20.4404 11.3908 20.0243 11.27V10.16C20.7495 10.1685 23.087 10.1875 23.7763 10.195L21.3705 29.9995L4.96752 29.972L6.16316 20.082C6.17268 20.0161 6.16934 19.9489 6.15333 19.8843C6.13733 19.8197 6.10899 19.7591 6.06998 19.706C6.03096 19.6529 5.98207 19.6084 5.92616 19.5751C5.87025 19.5418 5.80846 19.5204 5.74443 19.5121C5.6804 19.5039 5.61541 19.5089 5.55329 19.527C5.49117 19.545 5.43317 19.5757 5.3827 19.6173C5.33224 19.6588 5.29032 19.7103 5.25942 19.7689C5.22852 19.8274 5.20926 19.8917 5.20278 19.958L4.00714 29.847C3.99036 29.991 4.00324 30.1371 4.04492 30.2757C4.0866 30.4142 4.15616 30.5421 4.24902 30.651C4.34188 30.7598 4.45596 30.8472 4.58379 30.9073C4.71161 30.9675 4.8503 30.9991 4.99076 31H29.5183C29.609 31.0003 29.6979 30.9732 29.7739 30.922C29.8499 30.8708 29.9098 30.7978 29.9462 30.712ZM12.2391 13.045C12.2391 13.2711 12.1522 13.488 11.9974 13.6478C11.8426 13.8077 11.6327 13.8975 11.4138 13.8975C11.1949 13.8975 10.985 13.8077 10.8302 13.6478C10.6754 13.488 10.5885 13.2711 10.5885 13.045C10.5885 12.8189 10.6754 12.6021 10.8302 12.4422C10.985 12.2823 11.1949 12.1925 11.4138 12.1925C11.6327 12.1925 11.8426 12.2823 11.9974 12.4422C12.1522 12.6021 12.2391 12.8189 12.2391 13.045ZM20.3651 13.045C20.3599 13.2675 20.2707 13.479 20.1165 13.6344C19.9624 13.7899 19.7555 13.8769 19.54 13.8769C19.3246 13.8769 19.1177 13.7899 18.9635 13.6344C18.8094 13.479 18.7202 13.2675 18.7149 13.045C18.7149 12.8189 18.8019 12.6021 18.9567 12.4422C19.1115 12.2823 19.3214 12.1925 19.5403 12.1925C19.7592 12.1925 19.9691 12.2823 20.1239 12.4422C20.2787 12.6021 20.3651 12.8189 20.3651 13.045ZM11.8984 7.69702C11.8976 7.17804 12.0027 6.66472 12.207 6.19056C12.4113 5.71641 12.7101 5.29208 13.0839 4.94528C13.4577 4.59848 13.8981 4.33701 14.3764 4.17792C14.8546 4.01883 15.36 3.96571 15.8595 4.02203C15.3224 4.4606 14.8883 5.01902 14.5898 5.65545C14.2913 6.29188 14.136 6.98983 14.1357 7.69702V9.10602L11.8984 9.08602V7.69702ZM15.1038 9.11502V7.69702C15.1048 7.01167 15.2901 6.34006 15.6391 5.75717C15.9881 5.17428 16.487 4.70303 17.0803 4.39603C17.6735 4.70298 18.1725 5.17422 18.5215 5.75712C18.8705 6.34003 19.0558 7.01165 19.0567 7.69702V9.15152L15.1038 9.11502ZM18.3011 4.02153C18.8001 3.96753 19.3046 4.02228 19.7818 4.18223C20.2591 4.34219 20.6985 4.6038 21.0718 4.95015C21.4451 5.2965 21.7439 5.71989 21.9488 6.19296C22.1538 6.66602 22.2604 7.17825 22.2617 7.69652V9.18102L20.0248 9.16052V7.69702C20.0245 6.98982 19.8693 6.29186 19.5708 5.65542C19.2723 5.01899 18.8382 4.46008 18.3011 4.02153ZM25.3447 28.184L27.9402 30H23.1674L25.3447 28.184Z" fill="#3A3A3A"/>
</svg>
