<svg width="22" height="22" viewBox="0 0 22 22" fill="none" xmlns="http://www.w3.org/2000/svg">
<path d="M18.9814 10.3519L12.5648 3.93522C12.2068 3.57726 11.6265 3.57726 11.2686 3.93522C10.9106 4.29317 10.9106 4.87342 11.2686 5.23138L16.1205 10.0833H3.66667C3.16067 10.0833 2.75 10.494 2.75 11C2.75 11.506 3.16067 11.9166 3.66667 11.9166H16.1205L11.2686 16.7685C10.9106 17.1265 10.9106 17.7068 11.2686 18.0647C11.4478 18.2439 11.682 18.3333 11.9167 18.3333C12.1513 18.3333 12.3855 18.2439 12.5648 18.0647L18.9814 11.648C19.3394 11.2901 19.3394 10.7098 18.9814 10.3519Z" fill="#343C4B"/>
</svg>
