<svg width="35" height="35" viewBox="0 0 35 35" fill="none" xmlns="http://www.w3.org/2000/svg">
<path d="M34.168 9.95664L33.2435 9.0059L32.9326 7.64937C32.8243 7.17391 32.5991 6.73298 32.2774 6.36652C31.9557 6.00007 31.5476 5.71967 31.0902 5.55074L29.7916 5.06894L28.9525 3.89672C28.6801 3.51707 28.3214 3.20767 27.9058 2.99409C27.4902 2.78052 27.0298 2.66889 26.5626 2.66843H26.5511L25.1142 2.6739L23.9204 1.82625C23.5451 1.56017 23.1128 1.3855 22.6581 1.31618C22.2033 1.24687 21.7386 1.28483 21.3011 1.42703L19.9115 1.88257L18.5214 1.42703C18.0841 1.28463 17.6197 1.24639 17.1651 1.31537C16.7104 1.38435 16.2782 1.55864 15.9029 1.82433L14.7091 2.67199L13.2719 2.66679C12.8553 2.6649 12.443 2.75197 12.0628 2.92218C11.9467 2.97389 11.856 3.06957 11.8105 3.18818C11.765 3.30679 11.7685 3.43861 11.8202 3.55465C11.8719 3.67068 11.9676 3.76142 12.0862 3.8069C12.2048 3.85239 12.3367 3.84889 12.4527 3.79718C12.7092 3.68243 12.9873 3.6237 13.2683 3.62492L14.8592 3.63066C14.9584 3.62659 15.0547 3.59609 15.1381 3.54234L16.4572 2.60445C16.7104 2.42535 17.002 2.30788 17.3087 2.2614C17.6154 2.21493 17.9286 2.24073 18.2236 2.33675L19.7625 2.84125C19.8593 2.87296 19.9637 2.87296 20.0605 2.84125L21.6003 2.33675C21.8952 2.24086 22.2084 2.21514 22.5151 2.26167C22.8217 2.30819 23.1132 2.42566 23.3664 2.60472L24.6857 3.54234C24.7677 3.59919 24.8649 3.63006 24.9646 3.63093L26.5552 3.62492H26.5626C26.878 3.62507 27.1888 3.70029 27.4693 3.84436C27.7498 3.98843 27.992 4.19721 28.1759 4.45343L29.1001 5.74433C29.1556 5.82208 29.2331 5.88134 29.3227 5.91441L30.7585 6.44761C31.0671 6.56156 31.3423 6.75069 31.5593 6.99787C31.7763 7.24506 31.9282 7.54248 32.0013 7.8632L32.342 9.3507C32.3616 9.43617 32.4044 9.51459 32.4656 9.57738L33.4833 10.6241C33.7218 10.8705 33.8925 11.1743 33.9791 11.5061C34.0657 11.8379 34.0651 12.1864 33.9774 12.5179L33.798 13.1887C33.7653 13.3102 33.6961 13.4188 33.5999 13.4999C33.5037 13.581 33.3849 13.6308 33.2596 13.6426L31.1408 13.8359C30.8219 8.77949 25.9083 4.74929 19.9129 4.74929C13.9175 4.74929 9.00245 8.77921 8.68362 13.8359L6.56475 13.6426C6.43947 13.6307 6.32079 13.5809 6.22457 13.4998C6.12836 13.4187 6.05921 13.3101 6.02636 13.1887L5.84725 12.5182C5.75958 12.1867 5.75899 11.8382 5.84555 11.5064C5.93212 11.1746 6.1029 10.8708 6.34136 10.6244L7.35909 9.57765C7.42032 9.51491 7.463 9.43646 7.48241 9.35097L7.82339 7.8632C7.89637 7.5425 8.04823 7.24509 8.26519 6.9979C8.48215 6.75071 8.75736 6.56157 9.06589 6.44761L10.502 5.91441C10.5616 5.89305 10.6163 5.86008 10.663 5.81741C10.7098 5.77475 10.7476 5.72323 10.7743 5.66585C10.801 5.60847 10.816 5.54637 10.8186 5.48313C10.8211 5.41989 10.8111 5.35678 10.789 5.29745C10.767 5.23812 10.7334 5.18375 10.6903 5.13748C10.6471 5.09121 10.5951 5.05397 10.5375 5.02792C10.4798 5.00186 10.4175 4.9875 10.3543 4.98567C10.291 4.98384 10.228 4.99458 10.1689 5.01726L8.73284 5.55074C8.27546 5.71968 7.86747 6.00009 7.54585 6.36655C7.22422 6.73301 6.99913 7.17394 6.89097 7.64937L6.57979 9.00644L5.65557 9.95664C5.30187 10.322 5.04851 10.7725 4.92003 11.2646C4.79155 11.7566 4.7923 12.2735 4.92222 12.7651L5.10132 13.4356C5.18514 13.7461 5.36184 14.0235 5.60775 14.2308C5.85367 14.4381 6.15705 14.5652 6.47725 14.5952L8.971 14.823C9.59991 15.2534 12.6326 17.0261 19.911 17.0261C27.1893 17.0261 30.222 15.2534 30.8509 14.823L33.3449 14.5952C33.6651 14.5652 33.9685 14.438 34.2143 14.2308C34.4602 14.0235 34.6368 13.7461 34.7206 13.4356L34.9003 12.7648C35.0303 12.2733 35.0312 11.7566 34.9029 11.2646C34.7746 10.7726 34.5215 10.3221 34.168 9.95664ZM19.9115 16.0691C13.3085 16.0691 10.3568 14.555 9.6278 14.1066C9.78667 9.4516 14.3389 5.70605 19.9115 5.70605C25.4842 5.70605 30.0366 9.45214 30.1955 14.1066C29.4665 14.555 26.5145 16.0691 19.9115 16.0691Z" fill="#3A3A3A"/>
<path d="M19.9111 10.5305C19.7841 10.5305 19.6624 10.5809 19.5727 10.6707C19.483 10.7604 19.4325 10.8821 19.4325 11.009V12.8889C19.4325 13.0158 19.483 13.1375 19.5727 13.2273C19.6624 13.317 19.7841 13.3674 19.9111 13.3674C20.038 13.3674 20.1597 13.317 20.2494 13.2273C20.3392 13.1375 20.3896 13.0158 20.3896 12.8889V11.009C20.3896 10.9462 20.3773 10.8839 20.3532 10.8259C20.3292 10.7678 20.2939 10.715 20.2495 10.6706C20.2051 10.6261 20.1523 10.5909 20.0942 10.5669C20.0361 10.5428 19.9739 10.5305 19.9111 10.5305ZM18.5018 13.31L16.9803 12.2953C16.9281 12.2593 16.8692 12.2341 16.8071 12.2211C16.745 12.2081 16.6809 12.2075 16.6186 12.2195C16.5563 12.2315 16.497 12.2557 16.4442 12.2908C16.3913 12.326 16.346 12.3712 16.3108 12.424C16.2756 12.4768 16.2513 12.5361 16.2392 12.5984C16.2271 12.6606 16.2276 12.7247 16.2405 12.7868C16.2534 12.8489 16.2785 12.9079 16.3144 12.9602C16.3503 13.0125 16.3963 13.0571 16.4496 13.0915L17.9718 14.1063C18.0774 14.1744 18.2056 14.1982 18.3286 14.1726C18.4517 14.1471 18.5597 14.0741 18.6294 13.9695C18.6991 13.865 18.7248 13.7372 18.7011 13.6138C18.6774 13.4904 18.6061 13.3813 18.5026 13.31H18.5018ZM22.8428 12.2953L21.3206 13.31C21.2673 13.3444 21.2214 13.389 21.1855 13.4414C21.1496 13.4937 21.1244 13.5526 21.1115 13.6147C21.0986 13.6768 21.0982 13.7409 21.1102 13.8032C21.1223 13.8655 21.1466 13.9247 21.1818 13.9775C21.217 14.0303 21.2624 14.0756 21.3152 14.1107C21.368 14.1458 21.4273 14.1701 21.4897 14.182C21.552 14.194 21.616 14.1935 21.6781 14.1805C21.7402 14.1675 21.7991 14.1422 21.8514 14.1063L23.3736 13.0915C23.4269 13.0571 23.4729 13.0125 23.5088 12.9602C23.5447 12.9079 23.5698 12.8489 23.5827 12.7868C23.5956 12.7247 23.5961 12.6606 23.584 12.5984C23.5719 12.5361 23.5476 12.4768 23.5124 12.424C23.4772 12.3712 23.4319 12.326 23.379 12.2908C23.3262 12.2557 23.2669 12.2315 23.2046 12.2195C23.1423 12.2075 23.0782 12.2081 23.0161 12.2211C22.954 12.2341 22.8951 12.2593 22.8428 12.2953ZM23.5502 24.72C23.4594 24.6314 23.337 24.5825 23.2101 24.5841C23.0832 24.5857 22.9621 24.6376 22.8735 24.7285C22.7849 24.8194 22.736 24.9417 22.7375 25.0686C22.7391 25.1955 22.7911 25.3166 22.8819 25.4052C23.1618 25.6776 23.4236 25.9679 23.6659 26.2742C23.7445 26.3739 23.8596 26.4383 23.9857 26.4532C24.1118 26.4681 24.2387 26.4323 24.3384 26.3537C24.4381 26.275 24.5025 26.16 24.5174 26.0339C24.5323 25.9077 24.4965 25.7809 24.4178 25.6811C24.1496 25.3424 23.8598 25.0214 23.5502 24.72Z" fill="#3A3A3A"/>
<path d="M28.4209 25.6994L28.1097 24.3426C28.0016 23.867 27.7766 23.4259 27.4549 23.0593C27.1332 22.6928 26.7251 22.4123 26.2675 22.2434L24.969 21.7611L24.1298 20.5899C23.8574 20.2099 23.4985 19.9003 23.0827 19.6866C22.6668 19.4728 22.2061 19.3612 21.7386 19.3608H21.7279L20.2905 19.366L19.0966 18.5184C18.7214 18.2525 18.2892 18.0782 17.8346 18.0092C17.3799 17.9402 16.9154 17.9785 16.4782 18.1211L15.0881 18.5766L13.6995 18.1202C13.2623 17.9778 12.7979 17.9395 12.3432 18.0085C11.8886 18.0775 11.4564 18.2518 11.0811 18.5175L9.887 19.3652L8.45009 19.3597H8.43915C7.97191 19.3601 7.51148 19.4717 7.09591 19.6853C6.68035 19.8989 6.32159 20.2083 6.0493 20.588L5.21013 21.76L3.91048 22.2431C3.45294 22.4121 3.04481 22.6925 2.72309 23.0591C2.40136 23.4257 2.17621 23.8667 2.06806 24.3423L1.75716 25.6991L0.832665 26.6496C0.479102 27.015 0.225893 27.4656 0.0975568 27.9576C-0.0307795 28.4496 -0.0298947 28.9665 0.100126 29.458L0.279227 30.1285C0.363033 30.439 0.539727 30.7165 0.785639 30.9238C1.03155 31.1311 1.33494 31.2584 1.65516 31.2884L4.14891 31.5162C4.77782 31.9466 7.81079 33.7193 15.0891 33.7193C22.3675 33.7193 25.4002 31.9466 26.0291 31.5162L28.5229 31.2884C28.8431 31.2584 29.1464 31.1312 29.3923 30.924C29.6382 30.7167 29.8149 30.4393 29.8988 30.1288L30.0779 29.4583C30.2079 28.9667 30.2088 28.4499 30.0805 27.9579C29.9521 27.4658 29.6989 27.0153 29.3454 26.6498L28.4209 25.6994ZM29.1534 29.2111L28.9743 29.8816C28.9415 30.0031 28.8723 30.1116 28.7761 30.1927C28.6799 30.2737 28.5612 30.3235 28.4359 30.3352L26.3168 30.5288C26.282 29.9717 26.1913 29.4195 26.0461 28.8805C26.0123 28.7588 25.9317 28.6554 25.822 28.5928C25.7123 28.5302 25.5822 28.5136 25.4603 28.5465C25.3383 28.5794 25.2343 28.6592 25.171 28.7685C25.1076 28.8778 25.0901 29.0077 25.1221 29.1299C25.2693 29.6751 25.3535 30.2354 25.3729 30.7998C24.6439 31.248 21.6921 32.7623 15.0891 32.7623C8.48208 32.7623 5.53059 31.2461 4.80516 30.8001C4.96403 26.1448 9.51622 22.3993 15.0891 22.3993C16.9111 22.392 18.7099 22.8075 20.3441 23.613C20.4003 23.6412 20.4614 23.658 20.5241 23.6626C20.5868 23.6671 20.6498 23.6592 20.7094 23.6394C20.769 23.6196 20.8242 23.5883 20.8717 23.5471C20.9192 23.506 20.9582 23.4559 20.9864 23.3998C21.0145 23.3436 21.0314 23.2824 21.0359 23.2197C21.0404 23.157 21.0326 23.0941 21.0128 23.0344C20.993 22.9748 20.9616 22.9196 20.9205 22.8721C20.8794 22.8246 20.8293 22.7856 20.7731 22.7575C19.0055 21.8852 17.0597 21.435 15.0886 21.4422C9.09321 21.4422 4.17845 25.4724 3.86071 30.5288L1.74184 30.3352C1.61649 30.3235 1.49771 30.2738 1.40143 30.1926C1.30515 30.1115 1.23597 30.0029 1.20317 29.8813L1.02407 29.2111C0.936365 28.8795 0.935817 28.5308 1.02248 28.1988C1.10914 27.8669 1.28008 27.5629 1.51872 27.3165L2.53645 26.2698C2.59767 26.207 2.64042 26.1285 2.66005 26.0431L3.00075 24.5556C3.07374 24.2348 3.22563 23.9373 3.44264 23.6901C3.65965 23.4429 3.93493 23.2537 4.24352 23.1397L5.67934 22.6068C5.76887 22.5736 5.84639 22.5144 5.90192 22.4367L6.82614 21.1458C7.01067 20.8888 7.25385 20.6796 7.53548 20.5355C7.81712 20.3914 8.12908 20.3166 8.44544 20.3173L10.036 20.3233C10.1362 20.3246 10.234 20.2934 10.3149 20.2344L11.6343 19.2968C11.8874 19.1176 12.1789 19 12.4856 18.9535C12.7922 18.9069 13.1055 18.9328 13.4004 19.0289L14.9401 19.5334C15.0369 19.5651 15.1414 19.5651 15.2382 19.5334L16.7774 19.0289C17.0722 18.9327 17.3855 18.9068 17.6922 18.9533C17.9988 18.9998 18.2903 19.1173 18.5435 19.2966L19.8625 20.2344C19.9426 20.2951 20.0411 20.3264 20.1415 20.323L21.7323 20.3173C22.0485 20.3181 22.3599 20.3937 22.6414 20.5377C22.9228 20.6817 23.1663 20.8902 23.3519 21.1461L24.2764 22.4373C24.3319 22.5149 24.4094 22.5742 24.499 22.6073L25.935 23.1405C26.2436 23.2544 26.5189 23.4435 26.7359 23.6907C26.9528 23.9379 27.1047 24.2354 27.1775 24.5561L27.5185 26.0439C27.5379 26.1294 27.5806 26.2078 27.6418 26.2706L28.6593 27.3165C28.8978 27.563 29.0686 27.867 29.1551 28.1989C29.2417 28.5309 29.2411 28.8795 29.1534 29.2111Z" fill="#3A3A3A"/>
<path d="M15.0889 27.2234C14.962 27.2234 14.8403 27.2738 14.7505 27.3635C14.6608 27.4533 14.6104 27.575 14.6104 27.7019V29.5818C14.6104 29.7087 14.6608 29.8304 14.7505 29.9202C14.8403 30.0099 14.962 30.0603 15.0889 30.0603C15.2158 30.0603 15.3375 30.0099 15.4273 29.9202C15.517 29.8304 15.5674 29.7087 15.5674 29.5818V27.7019C15.5673 27.575 15.5169 27.4533 15.4272 27.3636C15.3375 27.2739 15.2158 27.2235 15.0889 27.2234ZM18.0196 28.9884L16.4974 30.0032C16.4441 30.0375 16.3981 30.0822 16.3622 30.1345C16.3263 30.1868 16.3012 30.2457 16.2883 30.3079C16.2753 30.37 16.2749 30.434 16.287 30.4963C16.2991 30.5586 16.3234 30.6179 16.3586 30.6707C16.3938 30.7235 16.4391 30.7687 16.492 30.8038C16.5448 30.839 16.6041 30.8632 16.6664 30.8752C16.7287 30.8872 16.7928 30.8866 16.8549 30.8736C16.917 30.8606 16.9759 30.8354 17.0281 30.7994L18.5503 29.7847C18.6037 29.7503 18.6496 29.7056 18.6855 29.6533C18.7214 29.601 18.7466 29.5421 18.7595 29.48C18.7724 29.4179 18.7728 29.3538 18.7607 29.2915C18.7487 29.2292 18.7243 29.1699 18.6891 29.1172C18.654 29.0644 18.6086 29.0191 18.5558 28.984C18.5029 28.9489 18.4436 28.9246 18.3813 28.9127C18.319 28.9007 18.2549 28.9012 18.1929 28.9142C18.1308 28.9272 18.0719 28.9524 18.0196 28.9884ZM13.6793 30.0032L12.1571 28.9884C12.1048 28.9524 12.046 28.9272 11.9839 28.9142C11.9218 28.9012 11.8577 28.9007 11.7954 28.9127C11.7331 28.9246 11.6738 28.9489 11.6209 28.984C11.5681 29.0191 11.5228 29.0644 11.4876 29.1172C11.4524 29.1699 11.428 29.2292 11.416 29.2915C11.4039 29.3538 11.4043 29.4179 11.4172 29.48C11.4302 29.5421 11.4553 29.601 11.4912 29.6533C11.5271 29.7056 11.573 29.7503 11.6264 29.7847L13.1486 30.7994C13.2008 30.8354 13.2597 30.8606 13.3218 30.8736C13.3839 30.8866 13.448 30.8872 13.5103 30.8752C13.5726 30.8632 13.6319 30.839 13.6848 30.8038C13.7376 30.7687 13.7829 30.7235 13.8181 30.6707C13.8533 30.6179 13.8777 30.5586 13.8897 30.4963C13.9018 30.434 13.9014 30.37 13.8885 30.3079C13.8755 30.2457 13.8504 30.1868 13.8145 30.1345C13.7786 30.0822 13.7326 30.0375 13.6793 30.0032Z" fill="#3A3A3A"/>
</svg>
