<svg width="15" height="15" viewBox="0 0 15 15" fill="none" xmlns="http://www.w3.org/2000/svg">
<path d="M12.4794 2.60804C11.3343 0.950713 9.51947 0 7.50059 0C5.48171 0 3.66686 0.950713 2.52173 2.60804C1.38223 4.25698 1.11912 6.34459 1.8165 8.18897C2.00303 8.69265 2.29955 9.18199 2.6957 9.64055L7.1013 14.8154C7.15051 14.8732 7.2117 14.9197 7.28064 14.9516C7.34959 14.9835 7.42463 15 7.50059 15C7.57655 15 7.6516 14.9835 7.72054 14.9516C7.78948 14.9197 7.85067 14.8732 7.89988 14.8154L12.3043 9.64195C12.7022 9.18076 12.9983 8.69194 13.1833 8.19232C13.8821 6.34459 13.6189 4.25698 12.4794 2.60804ZM12.2011 7.82499C12.0585 8.21048 11.8256 8.5916 11.5093 8.95819C11.5085 8.95907 11.5076 8.95995 11.5069 8.96101L7.50059 13.6666L3.49184 8.95805C3.17576 8.59178 2.94288 8.21068 2.79882 7.8215C2.22208 6.29616 2.44096 4.57011 3.3845 3.20455C4.33099 1.83463 5.83134 1.04895 7.50059 1.04895C9.16981 1.04895 10.67 1.8346 11.6165 3.20455C12.5602 4.57011 12.7793 6.29616 12.2011 7.82499Z" fill="#3A3A3A"/>
<path d="M7.50055 3.11182C5.88113 3.11182 4.56348 4.4293 4.56348 6.04889C4.56348 7.66848 5.88096 8.98596 7.50055 8.98596C9.12014 8.98596 10.4376 7.66848 10.4376 6.04889C10.4376 4.42947 9.11996 3.11182 7.50055 3.11182ZM7.50055 7.93698C6.45945 7.93698 5.61242 7.08995 5.61242 6.04886C5.61242 5.00776 6.45945 4.16073 7.50055 4.16073C8.54164 4.16073 9.38867 5.00776 9.38867 6.04886C9.38867 7.08995 8.54164 7.93698 7.50055 7.93698Z" fill="#3A3A3A"/>
</svg>
