<svg width="26" height="26" viewBox="0 0 26 26" fill="none" xmlns="http://www.w3.org/2000/svg">
<path d="M12.7136 1.57318C12.5026 1.57933 12.3023 1.66736 12.155 1.81863L11.0717 2.90196C10.9962 2.97739 10.9362 3.06697 10.8953 3.16557C10.8544 3.26417 10.8333 3.36986 10.8332 3.47662C10.8332 3.58337 10.8542 3.68909 10.895 3.78773C10.9358 3.88638 10.9956 3.97602 11.071 4.05154C11.1465 4.12706 11.2361 4.18698 11.3347 4.22787C11.4333 4.26876 11.539 4.28983 11.6457 4.28987C11.7525 4.2899 11.8582 4.26891 11.9569 4.22809C12.0555 4.18727 12.1451 4.12741 12.2206 4.05194L13.304 2.96861C13.4216 2.85452 13.5019 2.70754 13.5345 2.54696C13.5671 2.38638 13.5503 2.2197 13.4865 2.0688C13.4227 1.9179 13.3147 1.78982 13.1768 1.70137C13.0388 1.61293 12.8774 1.56824 12.7136 1.57318ZM17.047 2.11485C16.8359 2.121 16.6356 2.20903 16.4884 2.36029L14.8634 3.98529C14.7878 4.06073 14.7279 4.1503 14.687 4.2489C14.6461 4.3475 14.625 4.4532 14.6249 4.55995C14.6249 4.6667 14.6458 4.77242 14.6866 4.87107C14.7274 4.96971 14.7873 5.05935 14.8627 5.13487C14.9382 5.21039 15.0277 5.27031 15.1264 5.3112C15.225 5.3521 15.3307 5.37316 15.4374 5.3732C15.5442 5.37324 15.6499 5.35224 15.7485 5.31142C15.8472 5.2706 15.9368 5.21074 16.0123 5.13528L17.6373 3.51028C17.7549 3.39619 17.8352 3.24921 17.8678 3.08863C17.9004 2.92805 17.8837 2.76137 17.8198 2.61047C17.756 2.45956 17.648 2.33149 17.5101 2.24304C17.3722 2.15459 17.2107 2.10991 17.047 2.11485ZM21.3803 2.65652C21.1693 2.66267 20.9689 2.75069 20.8217 2.90196L18.655 5.06863C18.5025 5.22098 18.4168 5.42768 18.4167 5.64325C18.4166 5.85881 18.5021 6.06558 18.6545 6.21808C18.8069 6.37058 19.0136 6.45631 19.2291 6.45641C19.4447 6.45651 19.6515 6.37097 19.804 6.21861L21.9706 4.05194C22.0882 3.93785 22.1686 3.79087 22.2012 3.63029C22.2337 3.46971 22.217 3.30304 22.1532 3.15213C22.0893 3.00123 21.9814 2.87315 21.8434 2.78471C21.7055 2.69626 21.5441 2.65157 21.3803 2.65652ZM8.51994 4.83165C6.78279 4.83165 5.44964 6.04014 4.7981 7.49661C4.05706 9.15309 2.16699 11.842 2.16699 15.2915V15.3656C2.16699 16.5611 2.22672 17.755 2.6145 18.8526C3.00229 19.9501 3.77899 20.9446 5.02767 21.5186C5.07495 21.5402 5.12419 21.5572 5.17472 21.5694L14.0763 23.7455C14.6053 24.0428 15.2074 24.1738 15.8705 24.2671C16.6023 24.3701 17.3963 24.4077 18.1398 24.4163C19.594 24.4331 20.8034 24.335 20.8587 24.3306C21.9183 24.3289 22.7793 23.7635 23.2349 23.0399C23.6911 22.3152 23.8337 21.4798 23.8337 20.7124C23.8337 18.2831 22.3211 16.0853 21.6744 14.8726C20.8115 13.2538 20.5831 12.7127 20.5837 10.937C20.5837 10.9367 20.5837 10.9363 20.5837 10.936C20.5837 9.03216 19.2137 7.43317 17.4109 7.07449C17.3732 7.05744 17.3343 7.04329 17.2945 7.03217C17.2945 7.03217 15.6983 6.55552 13.8255 6.04511C11.9527 5.53469 9.84773 4.99006 8.6215 4.83694C8.58814 4.8331 8.55457 4.83133 8.521 4.83165H8.51994ZM8.49137 6.46723C9.47123 6.59708 11.5728 7.11551 13.3981 7.61298C13.7629 7.7124 14.0144 7.78606 14.3481 7.87958C13.7776 8.35833 13.3192 8.97302 12.9622 9.58604C12.0336 11.1824 10.292 14.0309 10.292 17.4582C10.292 18.82 10.841 20.1062 11.5446 21.1832C11.6198 21.2984 11.7031 21.4009 11.7816 21.5112L5.67301 20.0184C4.83597 19.6218 4.41897 19.0824 4.1464 18.3109C3.86916 17.5262 3.79199 16.4976 3.79199 15.3656V15.2915C3.79199 12.4458 5.41145 10.1045 6.28133 8.15994C6.73842 7.13816 7.51591 6.48166 8.49137 6.46723ZM16.6449 8.62331H16.646C17.9331 8.62331 18.9587 9.6487 18.9587 10.936C18.9581 12.8914 19.3488 13.964 20.2409 15.6375C20.9667 16.9987 22.2087 19.0045 22.2087 20.7124C22.2087 21.2559 22.0804 21.8237 21.8595 22.1745C21.6387 22.5253 21.4177 22.7066 20.8545 22.7066C20.8326 22.7065 20.8107 22.7072 20.7889 22.7088C20.7889 22.7088 19.5583 22.8074 18.1589 22.7913C17.4591 22.7832 16.7202 22.7457 16.0969 22.658C15.4791 22.5711 14.9708 22.4057 14.8052 22.3004C14.801 22.2975 14.7967 22.2947 14.7925 22.2919C14.2527 21.9373 13.4879 21.1866 12.9051 20.2945C12.3202 19.3992 11.917 18.3655 11.917 17.4582C11.917 14.5902 13.426 12.0217 14.3672 10.4038H14.3661C14.9928 9.32762 15.6812 8.62331 16.6449 8.62331ZM15.9636 10.7815C15.7526 10.7877 15.5523 10.8757 15.405 11.027C14.5364 11.8956 14.1276 13.0913 13.8731 14.0728C13.6187 15.0542 13.5452 15.8618 13.5452 15.8618C13.5257 16.0764 13.5922 16.29 13.7302 16.4556C13.8682 16.6211 14.0663 16.7251 14.281 16.7446C14.4956 16.7641 14.7092 16.6975 14.8748 16.5596C15.0403 16.4216 15.1443 16.2235 15.1638 16.0088C15.1638 16.0088 15.2257 15.3268 15.4452 14.4801C15.6647 13.6334 16.0684 12.6625 16.554 12.1769C16.6716 12.0629 16.7519 11.9159 16.7845 11.7553C16.8171 11.5947 16.8003 11.428 16.7365 11.2771C16.6727 11.1262 16.5647 10.9982 16.4268 10.9097C16.2888 10.8213 16.1274 10.7766 15.9636 10.7815ZM19.1787 16.7388C19.0378 16.7464 18.9013 16.7906 18.7827 16.867C18.6641 16.9434 18.5674 17.0494 18.5022 17.1745C18.4369 17.2997 18.4054 17.4396 18.4107 17.5806C18.416 17.7216 18.4579 17.8588 18.5323 17.9787C18.9017 18.5943 19.0518 19.0451 19.0824 19.3054C19.1131 19.5656 19.0728 19.6097 19.019 19.6725C18.9113 19.7981 18.3267 19.9983 17.6045 19.9983C17.4968 19.9968 17.3899 20.0167 17.29 20.0568C17.1901 20.097 17.0992 20.1566 17.0225 20.2322C16.9458 20.3078 16.8849 20.3979 16.8434 20.4972C16.8018 20.5965 16.7804 20.7031 16.7804 20.8108C16.7804 20.9185 16.8018 21.0251 16.8434 21.1244C16.8849 21.2238 16.9458 21.3138 17.0225 21.3894C17.0992 21.465 17.1901 21.5246 17.29 21.5648C17.3899 21.6049 17.4968 21.6248 17.6045 21.6233C18.5073 21.6233 19.5477 21.5517 20.2525 20.7294C20.6049 20.3182 20.7678 19.719 20.6969 19.116C20.6259 18.513 20.3698 17.8804 19.9267 17.1419C19.8513 17.0122 19.7416 16.9059 19.6096 16.8348C19.4776 16.7636 19.3284 16.7304 19.1787 16.7388Z" fill="#04A3E9"/>
</svg>
