<svg width="26" height="26" viewBox="0 0 26 26" fill="none" xmlns="http://www.w3.org/2000/svg">
<path d="M13.0003 2.16669C7.02686 2.16669 2.16699 7.02656 2.16699 13C2.16699 18.9735 7.02686 23.8334 13.0003 23.8334C18.9738 23.8334 23.8337 18.9735 23.8337 13C23.8337 7.02656 18.9738 2.16669 13.0003 2.16669ZM13.0003 3.79169C18.0956 3.79169 22.2087 7.90477 22.2087 13C22.2087 18.0953 18.0956 22.2084 13.0003 22.2084C7.90508 22.2084 3.79199 18.0953 3.79199 13C3.79199 7.90477 7.90508 3.79169 13.0003 3.79169ZM16.2503 5.95835C16.1067 5.95835 15.9689 6.01542 15.8673 6.117C15.7657 6.21859 15.7087 6.35636 15.7087 6.50002C15.7087 6.64368 15.7657 6.78145 15.8673 6.88304C15.9689 6.98462 16.1067 7.04169 16.2503 7.04169C16.394 7.04169 16.5318 6.98462 16.6333 6.88304C16.7349 6.78145 16.792 6.64368 16.792 6.50002C16.792 6.35636 16.7349 6.21859 16.6333 6.117C16.5318 6.01542 16.394 5.95835 16.2503 5.95835ZM10.0307 6.22919C7.95994 6.22903 6.22949 7.88753 6.22949 9.94362C6.22949 10.9372 6.63407 11.8466 7.28215 12.5091H7.2832C7.42998 12.659 7.48517 12.8457 7.46094 12.9799C7.41053 13.2591 7.40676 13.5541 7.45671 13.8506C7.61298 14.7863 8.31964 15.482 9.20866 15.7782V16.7917C8.92134 16.7917 8.64579 16.9058 8.44263 17.109C8.23946 17.3122 8.12533 17.5877 8.12533 17.875C8.12533 18.1623 8.23946 18.4379 8.44263 18.6411C8.64579 18.8442 8.92134 18.9584 9.20866 18.9584C9.36228 18.958 9.51408 18.925 9.65398 18.8616C9.79388 18.7981 9.91868 18.7056 10.0201 18.5902C10.1218 18.7058 10.2469 18.7985 10.3872 18.862C10.5275 18.9255 10.6797 18.9583 10.8337 18.9584C11.121 18.9584 11.3965 18.8442 11.5997 18.6411C11.8029 18.4379 11.917 18.1623 11.917 17.875C11.917 17.5877 11.8029 17.3122 11.5997 17.109C11.3965 16.9058 11.121 16.7917 10.8337 16.7917V15.8057C11.8483 15.4606 12.6216 14.547 12.6216 13.4253C12.6216 13.321 12.6145 13.2161 12.6015 13.1122C12.5679 12.8441 12.6302 12.6432 12.7686 12.5007C13.5386 11.7087 13.9586 10.5587 13.7663 9.35118C13.5034 7.70008 12.1211 6.43186 10.4486 6.2514C10.3079 6.23627 10.1687 6.2292 10.0307 6.22919ZM14.6253 7.58335C14.4817 7.58335 14.3439 7.64042 14.2423 7.742C14.1407 7.84359 14.0837 7.98136 14.0837 8.12502C14.0837 8.26868 14.1407 8.40645 14.2423 8.50804C14.3439 8.60962 14.4817 8.66669 14.6253 8.66669C14.769 8.66669 14.9068 8.60962 15.0083 8.50804C15.1099 8.40645 15.167 8.26868 15.167 8.12502C15.167 7.98136 15.1099 7.84359 15.0083 7.742C14.9068 7.64042 14.769 7.58335 14.6253 7.58335ZM9.78418 7.86371C9.94228 7.84805 10.1059 7.8488 10.274 7.86688C11.2221 7.96918 12.0201 8.72004 12.1614 9.6072C12.2724 10.3042 12.0408 10.917 11.6028 11.3676C11.0771 11.9087 10.9058 12.6485 10.9892 13.3142C10.9935 13.3489 10.9966 13.3866 10.9966 13.4253C10.9966 14.0003 10.4873 14.4693 9.80005 14.3309C9.42702 14.2557 9.11746 13.9299 9.05949 13.5829V13.5819C9.04048 13.4696 9.04177 13.3669 9.05949 13.2687C9.19017 12.545 8.91449 11.8535 8.44377 11.3729C8.0746 10.9955 7.85449 10.5003 7.85449 9.94362C7.85449 8.86723 8.6775 7.97334 9.78418 7.86371ZM16.792 8.12502C16.6483 8.12502 16.5106 8.18209 16.409 8.28367C16.3074 8.38525 16.2503 8.52303 16.2503 8.66669C16.2503 8.81035 16.3074 8.94812 16.409 9.0497C16.5106 9.15129 16.6483 9.20835 16.792 9.20835C16.9356 9.20835 17.0734 9.15129 17.175 9.0497C17.2766 8.94812 17.3337 8.81035 17.3337 8.66669C17.3337 8.52303 17.2766 8.38525 17.175 8.28367C17.0734 8.18209 16.9356 8.12502 16.792 8.12502ZM18.417 9.20835C18.2733 9.20835 18.1356 9.26542 18.034 9.367C17.9324 9.46859 17.8753 9.60636 17.8753 9.75002C17.8753 9.89368 17.9324 10.0315 18.034 10.133C18.1356 10.2346 18.2733 10.2917 18.417 10.2917C18.5606 10.2917 18.6984 10.2346 18.8 10.133C18.9016 10.0315 18.9587 9.89368 18.9587 9.75002C18.9587 9.60636 18.9016 9.46859 18.8 9.367C18.6984 9.26542 18.5606 9.20835 18.417 9.20835ZM15.7087 9.75002C15.565 9.75002 15.4272 9.80709 15.3256 9.90867C15.2241 10.0103 15.167 10.148 15.167 10.2917C15.167 10.4353 15.2241 10.5731 15.3256 10.6747C15.4272 10.7763 15.565 10.8334 15.7087 10.8334C15.8523 10.8334 15.9901 10.7763 16.0917 10.6747C16.1933 10.5731 16.2503 10.4353 16.2503 10.2917C16.2503 10.148 16.1933 10.0103 16.0917 9.90867C15.9901 9.80709 15.8523 9.75002 15.7087 9.75002ZM18.4699 11.1201C18.3394 11.1295 18.211 11.1536 18.089 11.1931C17.6012 11.3507 17.1683 11.6706 16.6989 12.1441C16.322 12.5241 16.2368 12.511 15.8504 12.6689C15.4641 12.8268 14.893 13.1265 14.1937 13.8495C13.218 14.8587 12.8279 15.8641 12.7475 16.6647C12.669 17.4464 12.9016 18.0744 12.9263 18.1469C13.3934 19.9406 16.0631 20.4687 18.0351 18.5087C19.4857 17.0665 20.1738 15.3714 20.2959 13.8654C20.3685 12.9707 20.3298 12.0511 19.5596 11.43C19.367 11.2748 19.1209 11.176 18.8624 11.1359C18.7331 11.1159 18.6004 11.1106 18.4699 11.1201ZM18.5492 12.7683C18.5382 12.795 18.723 13.1575 18.6762 13.7342C18.5859 14.8478 18.0712 16.1816 16.8893 17.3566C15.4959 18.7415 14.5103 17.8099 14.492 17.7364L14.4846 17.7089L14.4762 17.6825C14.4029 17.4564 14.3207 17.2682 14.3651 16.8266C14.4094 16.385 14.6002 15.767 15.3617 14.9794C15.938 14.3835 16.153 14.3008 16.4651 14.1733C16.7772 14.0457 17.3021 13.8443 17.8531 13.2888V13.2878C18.194 12.9439 18.4363 12.8116 18.5492 12.7683Z" fill="#04A3E9"/>
</svg>
