<svg width="14" height="14" viewBox="0 0 14 14" fill="none" xmlns="http://www.w3.org/2000/svg">
<path d="M10.9946 1.28476C10.8392 1.12717 10.5876 1.12717 10.4322 1.28476L7.00117 4.76486L3.57037 1.28476C3.415 1.12717 3.16337 1.12717 3.00799 1.28476L1.2845 3.03288C1.12912 3.19048 1.12912 3.44571 1.2845 3.60331L4.63323 6.9999L1.2845 10.3965C1.12912 10.5541 1.12912 10.8093 1.2845 10.9669L3.00799 12.715C3.16337 12.8726 3.415 12.8726 3.57037 12.715L7.00117 9.23493L10.4322 12.715C10.5876 12.8726 10.8392 12.8726 10.9946 12.715L12.7181 10.9666C12.8735 10.809 12.8735 10.5538 12.7181 10.3962L9.36964 6.9999L12.7181 3.60358C12.8735 3.44598 12.8735 3.19075 12.7181 3.03315L10.9946 1.28476Z" fill="#212531"/>
</svg>
