<svg width="12" height="12" viewBox="0 0 12 12" fill="none" xmlns="http://www.w3.org/2000/svg">
<g opacity="0.5">
<path d="M9.42284 1.10119C9.28966 0.966107 9.07398 0.966107 8.94079 1.10119L5.99989 4.08413L3.0592 1.10119C2.92602 0.966107 2.71034 0.966107 2.57716 1.10119L1.09989 2.59958C0.966705 2.73466 0.966705 2.95343 1.09989 3.08851L3.97023 5.99988L1.09989 8.91124C0.966705 9.04633 0.966705 9.26509 1.09989 9.40018L2.57716 10.8986C2.71034 11.0336 2.92602 11.0336 3.0592 10.8986L5.99989 7.91562L8.94079 10.8986C9.07398 11.0336 9.28966 11.0336 9.42284 10.8986L10.9001 9.39995C11.0333 9.26486 11.0333 9.0461 10.9001 8.91101L8.03 5.99988L10.9001 3.08874C11.0333 2.95366 11.0333 2.73489 10.9001 2.59981L9.42284 1.10119Z" fill="#25344F"/>
</g>
</svg>
