<svg width="317" height="113" viewBox="0 0 317 113" fill="none" xmlns="http://www.w3.org/2000/svg">
<path opacity="0.1" fill-rule="evenodd" clip-rule="evenodd" d="M315.502 112.5C311.743 112.5 297.074 100.808 278.734 83.1898C255.267 60.6479 245.279 54.1106 232.233 52.7545C220.263 51.509 213.012 54.1943 188.927 68.7874C165.8 82.7997 156.206 85.6608 145.413 81.7618C141.451 80.3304 135.723 76.8884 132.684 74.1128C120.699 63.1658 115.983 48.7417 111.847 10.3913C110.408 -2.9664 107.992 -19.4145 106.482 -26.1595C98.4941 -61.8246 82.1102 -88.9601 60.3828 -102.514C51.5539 -108.022 45.7854 -109.642 21.8667 -113.328C15.7649 -114.269 9.28927 -116.245 7.4771 -117.718C-0.094155 -123.872 -2.3368 -141.542 2.70305 -155.327C7.70513 -169.007 7.16945 -168.75 30.6146 -168.75C48.1333 -168.75 51.3461 -168.368 50.7254 -166.357C45.2551 -148.676 51.809 -136.061 68.6935 -131.765C96.7953 -124.619 103.623 -120.673 117.44 -103.594C125.468 -93.6711 128.914 -87.8 133.24 -76.6739C140.689 -57.5138 142.852 -45.338 144.158 -15.2192C145.139 7.43147 145.661 11.2585 148.885 19.4331C154.057 32.5481 159.469 36.3701 172.618 36.1893C183.949 36.0352 191.132 32.754 206.479 20.7306C222.75 7.98057 230.103 4.6223 241.583 4.69597C250.545 4.75289 253.17 5.53804 262.236 10.8801C267.948 14.2467 279.252 22.6993 287.355 29.6669C295.456 36.6329 305.441 44.2384 309.543 46.5687L317 50.8042L317 81.6513C317 103.14 316.545 112.5 315.502 112.5ZM313.44 -3.85203C303.567 4.17364 292.309 -0.230925 275.421 -18.7231C263.158 -32.1511 255.607 -36.713 243.862 -37.7828C230.857 -38.9697 223.194 -35.3403 207.363 -20.4993C191.546 -5.6701 185.73 -3.13549 177.007 -7.26718C165.347 -12.7934 159.511 -31.0043 160.913 -57.4887C163.15 -99.7431 149.917 -126.894 122.036 -137.255C102.562 -144.492 95.705 -151.364 95.705 -163.644L95.705 -168.75L110.458 -168.75C124.051 -168.75 125.276 -168.485 126.07 -165.383C127.196 -160.982 133.205 -157.232 141.223 -155.928C153.096 -153.996 159.455 -148.103 171.026 -128.313C179.159 -114.403 183.637 -110.993 193.772 -110.993C200.114 -110.993 203.017 -111.83 205.917 -114.495C211.74 -119.849 215.798 -128.315 215.793 -135.097C215.785 -145.873 210.788 -152.938 194.883 -164.665L189.485 -168.646L208.433 -168.698L227.38 -168.75L231.155 -159.124C241.259 -133.361 266.091 -93.9691 298.592 -52.1533L317 -28.4697L317 -17.6081C317 -7.71753 316.682 -6.48707 313.44 -3.85203ZM312.767 -67.5718C305.883 -75.569 293.734 -96.7163 287.545 -111.477C282.058 -124.558 272.501 -154.275 270.605 -164.146L269.721 -168.75L283.817 -168.75L297.911 -168.75L302.165 -159.524C304.506 -154.45 308.801 -146.561 311.711 -141.994L317 -133.692L317 -98.1728L317 -62.655L312.767 -67.5718ZM252.966 -65.7169C248.77 -60.5088 242.59 -60.3547 231.098 -65.1711C220.063 -69.795 216.502 -68.1025 208.127 -54.2526C196.516 -35.054 191.276 -32.4424 182.828 -41.6449C176.75 -48.266 175.517 -55.6505 178.712 -66.2827C181.659 -76.0897 192.876 -90.0668 200.28 -93.1571C203.249 -94.396 209.217 -97.6438 213.543 -100.376C223.62 -106.739 227.035 -105.865 237.102 -94.3441C241.341 -89.4909 246.934 -84.179 249.532 -82.5383C257.333 -77.6114 258.388 -72.4418 252.966 -65.7169Z" fill="white"/>
</svg>
