<svg width="26" height="26" viewBox="0 0 26 26" fill="none" xmlns="http://www.w3.org/2000/svg">
<path d="M22.4326 12.2341L14.8492 4.65075C14.4262 4.22771 13.7405 4.22771 13.3174 4.65075C12.8944 5.07379 12.8944 5.75954 13.3174 6.18258L19.0515 11.9167H4.33333C3.73533 11.9167 3.25 12.402 3.25 13C3.25 13.598 3.73533 14.0833 4.33333 14.0833H19.0515L13.3174 19.8174C12.8944 20.2405 12.8944 20.9262 13.3174 21.3492C13.5292 21.561 13.806 21.6667 14.0833 21.6667C14.3607 21.6667 14.6375 21.561 14.8492 21.3492L22.4326 13.7659C22.8556 13.3429 22.8556 12.6571 22.4326 12.2341Z" fill="#343C4B"/>
</svg>
