<svg width="18" height="18" viewBox="0 0 18 18" fill="none" xmlns="http://www.w3.org/2000/svg">
<path d="M7.56 1.08008C4.17657 1.08008 1.44 3.81664 1.44 7.20008C1.44 10.5835 4.17657 13.3201 7.56 13.3201C8.76797 13.3201 9.88594 12.9657 10.8338 12.3638L15.255 16.7851L16.785 15.2551L12.42 10.9013C13.2047 9.87195 13.68 8.59648 13.68 7.20008C13.68 3.81664 10.9434 1.08008 7.56 1.08008ZM7.56 2.52008C10.1517 2.52008 12.24 4.60836 12.24 7.20008C12.24 9.7918 10.1517 11.8801 7.56 11.8801C4.96828 11.8801 2.88 9.7918 2.88 7.20008C2.88 4.60836 4.96828 2.52008 7.56 2.52008Z" fill="white"/>
</svg>
