<svg width="30" height="30" viewBox="0 0 30 30" fill="none" xmlns="http://www.w3.org/2000/svg">
<path d="M12.6 1.7998C6.96093 1.7998 2.39999 6.36074 2.39999 11.9998C2.39999 17.6389 6.96093 22.1998 12.6 22.1998C14.6133 22.1998 16.4766 21.6092 18.0562 20.6061L25.425 27.9748L27.975 25.4248L20.7 18.1686C22.0078 16.4529 22.8 14.3271 22.8 11.9998C22.8 6.36074 18.2391 1.7998 12.6 1.7998ZM12.6 4.1998C16.9195 4.1998 20.4 7.68027 20.4 11.9998C20.4 16.3193 16.9195 19.7998 12.6 19.7998C8.28046 19.7998 4.79999 16.3193 4.79999 11.9998C4.79999 7.68027 8.28046 4.1998 12.6 4.1998Z" fill="white"/>
</svg>
