<svg width="35" height="35" viewBox="0 0 35 35" fill="none" xmlns="http://www.w3.org/2000/svg">
<path d="M14.8383 0.512695V1.17612C14.8383 2.04641 14.1328 2.75194 13.2625 2.75194C12.3922 2.75194 11.6867 2.04641 11.6867 1.17612V0.512695M9.04823 4.71379V6.47158C9.04823 7.69788 8.76693 8.90757 8.22778 10.009C7.82341 10.8351 7.42863 11.6658 7.04353 12.5011M17.477 4.71393L17.4771 6.47158C17.4771 7.69795 17.7581 8.90723 18.2975 10.0092C19.8704 13.2221 23.1558 20.3062 23.1558 23.4145C23.1558 24.0181 23.0806 24.6121 22.95 25.1891M6.05977 14.7034C4.69121 17.8719 3.36914 21.443 3.36914 23.4145C3.36914 26.7887 5.71934 29.873 6.98672 31.2936C7.17248 31.5024 7.40032 31.6695 7.65528 31.7841C7.91023 31.8986 8.18653 31.9579 8.46602 31.958H16.6247" stroke="#3A3A3A" stroke-miterlimit="10" stroke-linecap="round" stroke-linejoin="round"/>
<path d="M18.7625 10.97H7.7627M30.2016 23.342C30.4265 23.677 30.6056 24.0413 30.73 24.4221C31.1901 25.8303 30.9457 27.4102 30.2535 28.7205C30.2438 28.7389 30.2337 28.7574 30.2235 28.7752M18.0241 28.7752C17.9878 28.646 17.9625 28.5147 17.9482 28.3828C17.8702 27.6773 18.0924 26.9438 18.5477 26.3997C19.3311 25.4652 20.6525 25.1863 21.872 25.1672C23.1845 25.1474 24.59 25.3832 25.869 24.9813C26.3092 24.8425 26.7283 24.582 26.9648 24.1855C27.2908 23.6394 26.9901 22.6666 26.42 22.562C25.9243 22.4718 25.8396 21.8046 26.3078 21.6173C26.6161 21.4942 26.9771 21.445 27.2286 21.4703C27.6292 21.5113 28.0155 21.6187 28.3764 21.78M9.04826 1.19629V4.71372L17.477 4.71386L17.4769 1.19629C17.4769 0.81874 17.1709 0.512695 16.7933 0.512695H9.73179C9.35431 0.512695 9.04826 0.81874 9.04826 1.19629Z" stroke="#3A3A3A" stroke-miterlimit="10" stroke-linecap="round" stroke-linejoin="round"/>
<path d="M16.4961 29.3194V31.0182C16.4961 32.9341 18.0492 34.4873 19.9651 34.4873H28.162C30.0779 34.4873 31.631 32.9341 31.631 31.0182V29.3194C31.631 29.2479 31.6169 29.1771 31.5896 29.1111C31.5622 29.0451 31.5222 28.9851 31.4716 28.9345C31.4211 28.884 31.3611 28.8439 31.2951 28.8166C31.229 28.7892 31.1583 28.7751 31.0868 28.7751H17.0402C16.8959 28.7752 16.7575 28.8325 16.6555 28.9346C16.5534 29.0366 16.4961 29.175 16.4961 29.3194Z" stroke="#3A3A3A" stroke-miterlimit="10" stroke-linecap="round" stroke-linejoin="round"/>
<path d="M13.2626 25.8409C14.9502 25.8409 16.3182 24.4729 16.3182 22.7853C16.3182 21.0978 14.9502 19.7297 13.2626 19.7297C11.5751 19.7297 10.207 21.0978 10.207 22.7853C10.207 24.4729 11.5751 25.8409 13.2626 25.8409Z" stroke="#3A3A3A" stroke-miterlimit="10" stroke-linecap="round" stroke-linejoin="round"/>
<path d="M5.28906 16.5494C5.71091 16.9738 6.29511 17.2366 6.94076 17.2366C7.66872 17.2366 8.31848 16.9025 8.74552 16.3794C8.90069 16.1893 9.19525 16.1893 9.35043 16.3794C9.77747 16.9025 10.4272 17.2366 11.1551 17.2366C11.8831 17.2366 12.5328 16.9025 12.9599 16.3794C13.115 16.1893 13.4096 16.1893 13.5648 16.3794C13.9918 16.9025 14.6416 17.2366 15.3695 17.2366C16.0975 17.2366 16.7473 16.9025 17.1743 16.3794C17.3295 16.1893 17.624 16.1893 17.7792 16.3794C18.2062 16.9025 18.856 17.2366 19.584 17.2366C20.2296 17.2366 20.8138 16.9737 21.2357 16.5494" stroke="#3A3A3A" stroke-miterlimit="10" stroke-linecap="round" stroke-linejoin="round"/>
</svg>
