<svg width="18" height="18" viewBox="0 0 18 18" fill="none" xmlns="http://www.w3.org/2000/svg">
<path d="M5.90625 13.5C5.53329 13.5 5.1756 13.6482 4.91188 13.9119C4.64816 14.1756 4.5 14.5333 4.5 14.9062C4.5 15.2792 4.64816 15.6369 4.91188 15.9006C5.1756 16.1643 5.53329 16.3125 5.90625 16.3125C6.27921 16.3125 6.6369 16.1643 6.90062 15.9006C7.16434 15.6369 7.3125 15.2792 7.3125 14.9062C7.3125 14.5333 7.16434 14.1756 6.90062 13.9119C6.6369 13.6482 6.27921 13.5 5.90625 13.5ZM13.2188 13.5C12.8458 13.5 12.4881 13.6482 12.2244 13.9119C11.9607 14.1756 11.8125 14.5333 11.8125 14.9062C11.8125 15.2792 11.9607 15.6369 12.2244 15.9006C12.4881 16.1643 12.8458 16.3125 13.2188 16.3125C13.5917 16.3125 13.9494 16.1643 14.2131 15.9006C14.4768 15.6369 14.625 15.2792 14.625 14.9062C14.625 14.5333 14.4768 14.1756 14.2131 13.9119C13.9494 13.6482 13.5917 13.5 13.2188 13.5ZM3.51253 3.96422L3.23184 2.77172C3.0825 2.13637 2.51578 1.6875 1.86328 1.6875H0.28125L0.5625 2.8125H1.86328C1.99378 2.8125 2.10713 2.90222 2.13694 3.02934L4.13184 11.5079C4.25166 12.0181 4.70194 12.375 5.22675 12.375H14.1519C14.7004 12.375 15.1664 11.9827 15.2601 11.4429L16.4112 4.82428L3.51253 3.96422Z" fill="#E7D5B3"/>
</svg>
