<svg width="26" height="26" viewBox="0 0 26 26" fill="none" xmlns="http://www.w3.org/2000/svg">
<path d="M14.896 4.33331C14.599 4.33312 14.3102 4.43057 14.074 4.61066C13.8378 4.79076 13.6674 5.0435 13.589 5.32997C13.5106 5.61644 13.5285 5.92074 13.6401 6.19601C13.7516 6.47128 13.9505 6.70224 14.2062 6.85333L13.4445 7.61505C12.5404 7.192 11.4306 7.33114 10.6886 8.07314L10.1882 8.57355C9.77538 8.98633 9.22511 9.23275 8.62664 9.28131C7.43319 9.37839 6.04992 10.1604 4.84979 11.6225C3.64966 13.0846 2.70851 15.2628 2.70851 18.1458C2.70868 18.1557 2.70904 18.1656 2.70957 18.1754C2.30281 19.037 1.99877 19.9561 1.81878 20.9197C1.73537 21.367 1.78355 21.8087 1.92987 22.2083H1.35435C1.24668 22.2068 1.13978 22.2267 1.03987 22.2668C0.939961 22.307 0.849025 22.3666 0.77235 22.4422C0.695675 22.5178 0.634789 22.6079 0.593232 22.7072C0.551674 22.8065 0.530273 22.9131 0.530273 23.0208C0.530273 23.1285 0.551674 23.2351 0.593232 23.3344C0.634789 23.4338 0.695675 23.5238 0.77235 23.5994C0.849025 23.675 0.939961 23.7346 1.03987 23.7748C1.13978 23.8149 1.24668 23.8348 1.35435 23.8333H4.21185H21.7885H24.646C24.7537 23.8348 24.8606 23.8149 24.9605 23.7748C25.0604 23.7346 25.1513 23.675 25.228 23.5994C25.3047 23.5238 25.3656 23.4338 25.4071 23.3344C25.4487 23.2351 25.4701 23.1285 25.4701 23.0208C25.4701 22.9131 25.4487 22.8065 25.4071 22.7072C25.3656 22.6079 25.3047 22.5178 25.228 22.4422C25.1513 22.3666 25.0604 22.307 24.9605 22.2668C24.8606 22.2267 24.7537 22.2068 24.646 22.2083H24.0715C24.2178 21.8087 24.2652 21.367 24.1816 20.9197C23.743 18.5709 22.5765 16.483 20.9347 14.8821L21.6996 14.1161C22.406 13.4097 22.5558 12.35 22.1641 11.485L22.9396 10.7095C23.0592 10.9121 23.2295 11.0799 23.4338 11.1966C23.638 11.3133 23.8691 11.3748 24.1043 11.375C24.4635 11.375 24.8079 11.2323 25.0619 10.9784C25.3158 10.7244 25.4585 10.38 25.4585 10.0208C25.4585 9.66167 25.3158 9.31723 25.0619 9.06327C24.8079 8.80932 24.4635 8.66665 24.1043 8.66665C24.0003 8.66708 23.8966 8.6795 23.7954 8.70367C23.8418 8.50523 23.8427 8.29889 23.7982 8.10003C23.7537 7.90116 23.6649 7.71491 23.5384 7.55515C23.4118 7.39539 23.2509 7.26625 23.0676 7.17733C22.8842 7.08842 22.6831 7.04204 22.4793 7.04165C22.1823 7.04145 21.8935 7.1389 21.6573 7.31899C21.4212 7.49909 21.2507 7.75183 21.1723 8.0383C21.0939 8.32477 21.1119 8.62907 21.2234 8.90434C21.3349 9.17961 21.5339 9.41058 21.7896 9.56167L21.0152 10.3361C20.7066 10.1964 20.3756 10.1192 20.0418 10.1192C19.4401 10.1192 18.8384 10.3461 18.384 10.8005L17.6043 11.5802C17.3366 11.848 17.0371 12.0784 16.7157 12.2785C15.8361 11.9743 14.9114 11.77 13.9502 11.6902L14.1068 11.5485C14.1165 11.5392 14.1261 11.5297 14.1354 11.5199C14.8774 10.7779 15.0165 9.6681 14.5934 8.76398L15.3562 8.0012C15.4759 8.20373 15.6462 8.37161 15.8504 8.48829C16.0547 8.60498 16.2858 8.66645 16.521 8.66665C16.8802 8.66665 17.2246 8.52398 17.4786 8.27002C17.7325 8.01606 17.8752 7.67163 17.8752 7.31248C17.8752 6.95333 17.7325 6.60889 17.4786 6.35494C17.2246 6.10098 16.8802 5.95831 16.521 5.95831C16.417 5.95875 16.3133 5.97117 16.2121 5.99534C16.2584 5.7969 16.2594 5.59055 16.2149 5.39169C16.1703 5.19283 16.0815 5.00658 15.955 4.84682C15.8285 4.68706 15.6676 4.55791 15.4842 4.469C15.3009 4.38009 15.0998 4.33371 14.896 4.33331ZM12.412 8.97874C12.6181 8.97874 12.8242 9.0598 12.9864 9.22207C13.3101 9.54573 13.3094 10.0432 12.9875 10.3678L11.6428 11.5845C11.588 11.6348 11.5403 11.6925 11.5011 11.7558C8.86496 12.1044 6.51399 13.3518 4.76621 15.1878C5.09325 14.1451 5.57224 13.3038 6.10557 12.654C7.07183 11.4769 8.27426 10.9404 8.75889 10.901C9.72259 10.8228 10.6416 10.4179 11.3371 9.72247L11.8375 9.22207C11.9998 9.0598 12.2059 8.97874 12.412 8.97874ZM20.0418 11.7336C20.2242 11.7336 20.4066 11.8053 20.5507 11.9494C20.839 12.2378 20.839 12.6789 20.5507 12.9672L19.771 13.7479C18.7177 14.8012 18.1049 16.1521 17.8265 17.5512C17.8262 17.5537 17.8258 17.5562 17.8255 17.5587C17.8269 17.5513 17.8229 17.5696 17.8212 17.5777C17.6136 18.5687 16.7418 19.3649 15.736 19.4831C14.1316 19.6704 12.831 18.3709 13.0171 16.7673C13.1336 15.7606 13.9309 14.887 14.9225 14.6789C14.9267 14.6779 14.9309 14.6769 14.9352 14.6758C14.9272 14.6776 14.945 14.6746 14.95 14.6736L14.9531 14.6726C15.7014 14.5241 16.4336 14.2758 17.1156 13.9193C17.1747 13.8957 17.2308 13.8651 17.2827 13.8283C17.8126 13.5331 18.3105 13.1719 18.7533 12.7291L19.533 11.9494C19.6771 11.8053 19.8595 11.7336 20.0418 11.7336ZM13.0002 13.2708C13.2998 13.2708 13.5954 13.2857 13.8878 13.3121C12.5497 13.8646 11.5742 15.1099 11.4037 16.5801C11.1023 19.1776 13.3265 21.3998 15.9243 21.0964C17.6405 20.8956 19.0578 19.6031 19.4124 17.9109C19.4131 17.906 19.4138 17.9011 19.4145 17.8961C19.4125 17.9068 19.4165 17.8904 19.4208 17.8686C19.5374 17.2826 19.7223 16.7257 19.9784 16.2161C21.2943 17.5654 22.2241 19.2904 22.5841 21.2181C22.6845 21.7549 22.3217 22.2083 21.7885 22.2083H4.21185C3.67948 22.2083 3.31613 21.7551 3.41628 21.2181C4.26096 16.6958 8.22214 13.2708 13.0002 13.2708Z" fill="#04A3E9"/>
</svg>
