<svg width="22" height="22" viewBox="0 0 22 22" fill="none" xmlns="http://www.w3.org/2000/svg">
<path d="M15.5833 17.05C15.17 17.05 14.7737 17.2142 14.4814 17.5064C14.1892 17.7987 14.025 18.195 14.025 18.6083C14.025 19.0216 14.1892 19.418 14.4814 19.7102C14.7737 20.0025 15.17 20.1667 15.5833 20.1667C15.9966 20.1667 16.393 20.0025 16.6852 19.7102C16.9775 19.418 17.1417 19.0216 17.1417 18.6083C17.1417 18.195 16.9775 17.7987 16.6852 17.5064C16.393 17.2142 15.9966 17.05 15.5833 17.05Z" fill="white"/>
<path d="M9.16667 17.05C8.75337 17.05 8.35701 17.2142 8.06476 17.5064C7.77252 17.7987 7.60834 18.195 7.60834 18.6083C7.60834 19.0216 7.77252 19.418 8.06476 19.7102C8.35701 20.0025 8.75337 20.1667 9.16667 20.1667C9.57997 20.1667 9.97634 20.0025 10.2686 19.7102C10.5608 19.418 10.725 19.0216 10.725 18.6083C10.725 18.195 10.5608 17.7987 10.2686 17.5064C9.97634 17.2142 9.57997 17.05 9.16667 17.05Z" fill="white"/>
<path fill-rule="evenodd" clip-rule="evenodd" d="M21.2509 5.43415L19.773 13.1962C19.4898 14.6836 18.1797 15.7667 16.6656 15.7667H8.08442C6.57028 15.7667 5.26085 14.6832 4.97709 13.1963L3.36224 4.71833C3.31552 4.4762 3.11259 4.30839 2.8673 4.30839H1.60543L1.60542 2.56672H2.8673C3.94135 2.56672 4.87194 3.33774 5.07318 4.39237L5.07463 4.40005H20.3959C20.524 4.40013 20.6507 4.42849 20.7666 4.48311C20.8825 4.53773 20.985 4.61726 21.0667 4.71603C21.1483 4.8148 21.2072 4.93037 21.239 5.0545C21.2709 5.17861 21.2749 5.30828 21.2509 5.43415ZM8.08442 14.0251C7.40351 14.0251 6.82663 13.5523 6.69134 12.8868L5.40648 6.14172H19.3436L18.062 12.8707C17.9336 13.5447 17.3526 14.0251 16.6656 14.0251H8.08442Z" fill="white"/>
</svg>
