<svg width="22" height="17" viewBox="0 0 22 17" fill="none" xmlns="http://www.w3.org/2000/svg">
<path opacity="0.35" d="M21.3795 7.09322C21.447 6.35072 21.196 5.63484 20.6904 5.12972C20.2383 4.67696 19.6252 4.42726 18.9648 4.42726C18.9355 4.42726 18.906 4.4277 18.8768 4.4288C17.6102 2.16038 15.2142 0.739624 12.5403 0.739624H8.80031C8.72595 0.739624 8.65137 0.744244 8.57767 0.753704C4.50371 0.984264 1.32031 4.34982 1.32031 8.43962C1.32031 12.5307 4.50525 15.8967 8.58097 16.1258C8.65401 16.135 8.72749 16.1396 8.80031 16.1396H12.5403C15.5493 16.1396 18.2066 14.3055 19.2888 11.5814C19.8267 11.5126 20.3158 11.2776 20.6904 10.9027C21.4415 10.1514 21.5845 8.99974 21.1285 8.01568C21.2646 7.72264 21.3507 7.41002 21.3795 7.09322Z" fill="black"/>
<path d="M20.4986 6.65322C20.5662 5.91072 20.3151 5.19484 19.8096 4.68972C19.3575 4.23696 18.7443 3.98726 18.0839 3.98726C18.0546 3.98726 18.0252 3.9877 17.9959 3.9888C16.7294 1.72038 14.9933 0.299622 12.3195 0.299622H7.91945C7.84509 0.299622 7.77051 0.304242 7.69681 0.313702C3.62285 0.544262 0.439453 3.90982 0.439453 7.99962C0.439453 12.0907 3.62439 15.4567 7.70011 15.6858C7.77315 15.695 7.84663 15.6996 7.91945 15.6996H12.3195C15.3284 15.6996 17.3258 13.8655 18.408 11.1414C18.9459 11.0726 19.4349 10.8376 19.8096 10.4627C20.5607 9.71144 20.7037 8.55974 20.2476 7.57568C20.3838 7.28264 20.4698 6.97002 20.4986 6.65322Z" fill="#F2F2F2"/>
<path d="M18.3663 7.7946C18.044 7.71144 18.044 7.44084 18.3663 7.35768C18.5977 7.29806 19.3503 6.11182 18.7926 5.78358C18.2349 5.45534 17.2016 5.53146 16.4846 5.95342C15.9172 6.28738 15.7065 7.15374 15.6429 7.502C15.6277 7.50112 15.6191 7.5009 15.6191 7.5009C15.6191 7.5009 15.6227 7.52972 15.6301 7.57614C15.6227 7.62278 15.6191 7.6516 15.6191 7.6516C15.6191 7.6516 15.6277 7.65116 15.6431 7.6505C15.7067 7.99876 15.9175 8.86512 16.4848 9.19886C17.2018 9.62082 18.2352 9.69694 18.7929 9.3687C19.3503 9.04046 18.5977 7.85444 18.3663 7.7946Z" fill="#DD4F2C"/>
<path d="M12.3199 13.9396H7.91992V2.05963H12.3199C15.3575 2.05963 17.1599 4.49393 17.1599 7.53147V8.46757C17.1599 11.5053 15.3575 13.9396 12.3199 13.9396Z" fill="#DE5147"/>
<path opacity="0.35" d="M17.8204 7.53145C17.8204 6.86089 17.7102 6.21585 17.5095 5.61151C17.2928 5.64165 17.077 5.69621 16.8711 5.77431C17.0577 6.32541 17.1604 6.91567 17.1604 7.53145V8.46755C17.1604 8.80327 17.1287 9.13107 17.0711 9.44963C17.284 9.51277 17.5045 9.55105 17.7196 9.56535C17.7848 9.20895 17.8204 8.84243 17.8204 8.46755V7.53145Z" fill="#40396E"/>
<path d="M8.13922 13.9396C11.4198 13.9396 14.0792 11.2802 14.0792 7.99963C14.0792 4.71906 11.4198 2.05963 8.13922 2.05963C4.85865 2.05963 2.19922 4.71906 2.19922 7.99963C2.19922 11.2802 4.85865 13.9396 8.13922 13.9396Z" fill="#FF7575"/>
<path d="M6.27 5.57961C6.69526 5.57961 7.04 5.23487 7.04 4.80961C7.04 4.38435 6.69526 4.03961 6.27 4.03961C5.84474 4.03961 5.5 4.38435 5.5 4.80961C5.5 5.23487 5.84474 5.57961 6.27 5.57961Z" fill="#F2F2F2"/>
<path d="M8.46922 12.1796C8.89448 12.1796 9.23922 11.8349 9.23922 11.4096C9.23922 10.9844 8.89448 10.6396 8.46922 10.6396C8.04396 10.6396 7.69922 10.9844 7.69922 11.4096C7.69922 11.8349 8.04396 12.1796 8.46922 12.1796Z" fill="#F2F2F2"/>
<path d="M7.36961 8.8796C7.79487 8.8796 8.13961 8.53486 8.13961 8.1096C8.13961 7.68434 7.79487 7.3396 7.36961 7.3396C6.94435 7.3396 6.59961 7.68434 6.59961 8.1096C6.59961 8.53486 6.94435 8.8796 7.36961 8.8796Z" fill="#F2F2F2"/>
<path d="M11.1098 7.77962C11.5351 7.77962 11.8798 7.43488 11.8798 7.00962C11.8798 6.58436 11.5351 6.23962 11.1098 6.23962C10.6846 6.23962 10.3398 6.58436 10.3398 7.00962C10.3398 7.43488 10.6846 7.77962 11.1098 7.77962Z" fill="#F2F2F2"/>
<path d="M8.90938 5.57961C9.21313 5.57961 9.45938 5.33337 9.45938 5.02961C9.45938 4.72586 9.21313 4.47961 8.90938 4.47961C8.60562 4.47961 8.35938 4.72586 8.35938 5.02961C8.35938 5.33337 8.60562 5.57961 8.90938 5.57961Z" fill="#F2F2F2"/>
<path d="M5.60859 11.0796C5.91235 11.0796 6.15859 10.8334 6.15859 10.5296C6.15859 10.2259 5.91235 9.97961 5.60859 9.97961C5.30484 9.97961 5.05859 10.2259 5.05859 10.5296C5.05859 10.8334 5.30484 11.0796 5.60859 11.0796Z" fill="#F2F2F2"/>
<path d="M10.6691 9.97964C10.9729 9.97964 11.2191 9.7334 11.2191 9.42964C11.2191 9.12588 10.9729 8.87964 10.6691 8.87964C10.3654 8.87964 10.1191 9.12588 10.1191 9.42964C10.1191 9.7334 10.3654 9.97964 10.6691 9.97964Z" fill="#F2F2F2"/>
<path d="M4.50898 7.9996C4.81274 7.9996 5.05898 7.75335 5.05898 7.4496C5.05898 7.14584 4.81274 6.8996 4.50898 6.8996C4.20523 6.8996 3.95898 7.14584 3.95898 7.4496C3.95898 7.75335 4.20523 7.9996 4.50898 7.9996Z" fill="#F2F2F2"/>
<path d="M12.3191 14.5996H7.91906C7.8821 14.5996 7.8447 14.5963 7.8073 14.5899C4.29038 14.4161 1.53906 11.5258 1.53906 7.9996C1.53906 4.4741 4.2895 1.58418 7.8051 1.4095C7.84294 1.4029 7.88122 1.3996 7.91906 1.3996H12.3191C14.8662 1.3996 16.4548 2.93014 17.3802 5.25004C17.605 5.14378 17.8452 5.08724 18.0835 5.08724C18.4498 5.08724 18.7864 5.22232 19.0315 5.46762C19.3091 5.74526 19.4411 6.13114 19.4026 6.55398C19.369 6.92468 19.2059 7.28416 18.9415 7.5761C19.5232 8.2185 19.5692 9.14712 19.0315 9.68502C18.6839 10.0326 18.1372 10.1497 17.6257 9.99676C16.9349 12.6874 15.1487 14.5996 12.3191 14.5996ZM7.91906 2.0596C7.90036 2.064 7.87946 2.06664 7.8601 2.06752C4.68572 2.2136 2.19906 4.81928 2.19906 7.9996C2.19906 11.1804 4.68638 13.786 7.86164 13.9319C7.88034 13.9328 7.89904 13.9352 7.91752 13.9392L12.3191 13.9396C14.9701 13.9396 16.584 12.0612 17.0658 9.47338C17.0856 9.36712 17.1562 9.27714 17.2548 9.2327C17.3533 9.1887 17.4675 9.19508 17.5601 9.25096C17.9101 9.46128 18.3334 9.44918 18.5644 9.2184C18.8645 8.91832 18.7948 8.35996 18.4089 7.97386C18.3675 7.9325 18.3182 7.89488 18.2584 7.8588C18.1594 7.79918 18.0989 7.69182 18.0989 7.57632C18.0989 7.46082 18.1594 7.35346 18.2584 7.29384C18.3176 7.2582 18.3682 7.21948 18.4087 7.179C18.6034 6.9843 18.7226 6.74142 18.745 6.49458C18.7655 6.27018 18.7013 6.0713 18.5644 5.93446C18.2991 5.66936 17.7863 5.70148 17.4165 6.00266C17.3318 6.0713 17.2189 6.09352 17.1144 6.06316C17.0099 6.03214 16.9274 5.95162 16.894 5.84778C16.1644 3.58178 14.7208 2.0596 12.3191 2.0596H7.91906Z" fill="#40396E"/>
</svg>
