<?xml version="1.0" encoding="utf-8"?>
<!-- Generator: Adobe Illustrator 23.0.1, SVG Export Plug-In . SVG Version: 6.00 Build 0)  -->
<svg version="1.1" id="Layer_1" xmlns="http://www.w3.org/2000/svg" xmlns:xlink="http://www.w3.org/1999/xlink" x="0px" y="0px"
	 viewBox="0 0 181.49 46.49" style="enable-background:new 0 0 181.49 46.49;" xml:space="preserve">
<style type="text/css">
	.st0{fill-rule:evenodd;clip-rule:evenodd;fill:#FEC800;}
	.st1{fill-rule:evenodd;clip-rule:evenodd;}
	.st2{fill-rule:evenodd;clip-rule:evenodd;fill:#1D71B8;}
	.st3{fill-rule:evenodd;clip-rule:evenodd;fill:#FFFFFF;}
	.st4{fill:#FFFFFF;}
	.st5{fill:#13A538;}
	.st6{fill:#FEC800;}
	.st7{fill-rule:evenodd;clip-rule:evenodd;fill:#13A538;}
</style>
<g>
	<path class="st7" d="M125.04,21.48c0.02,1.07,0.91,1.93,1.98,1.93c1.07,0,1.96-0.86,1.96-1.93v-4.42h6.46v4.42
		c0,1.07,0.91,1.93,1.98,1.93c1.07,0,1.96-0.86,1.96-1.93V8.75c0-1.07-0.91-1.93-1.98-1.93c-1.07,0-1.96,0.86-1.96,1.93v4.42h-6.48
		V8.75c0-1.07-0.89-1.93-1.96-1.93c-1.07,0-1.96,0.86-1.96,1.93V21.48L125.04,21.48z M78.04,10.87v10.61c0,1.09,0.91,1.93,1.99,1.93
		c1.1,0,1.99-0.85,1.99-1.93V10.87H85c1.09,0,1.96-0.86,1.96-1.95c0-1.05-0.88-1.93-1.96-1.93h-9.94c-1.09,0-1.96,0.88-1.96,1.93
		c0,1.09,0.88,1.95,1.96,1.95H78.04L78.04,10.87z M64.18,15.67l-4.61-7.88c-0.53-0.89-1.64-1.21-2.6-0.78
		c-0.97,0.56-1.28,1.74-0.72,2.68l5.5,9.29c-0.67,0.44-1.39,0.6-2.17,0.66c-1.07,0.1-1.79,0.86-1.79,1.87c0,1.2,0.97,1.87,1.96,1.87
		c2.23,0,4.18-1.13,5.59-2.71c1.28-1.44,2.25-3.26,3.16-4.96l3.24-6.08c0.49-0.94,0.19-2.17-0.81-2.65
		c-0.94-0.45-2.09-0.05-2.59,0.88L64.18,15.67L64.18,15.67z M142.52,15.13c0,4.76,3.53,8.28,8.32,8.28c4.79,0,8.32-3.54,8.32-8.28
		c0-4.76-3.56-8.3-8.32-8.3C146.05,6.83,142.52,10.37,142.52,15.13L142.52,15.13z M155.17,15.13c0,2.54-1.76,4.45-4.34,4.45
		c-2.59,0-4.34-1.92-4.34-4.45c0-2.54,1.76-4.47,4.34-4.47C153.42,10.66,155.17,12.59,155.17,15.13L155.17,15.13z M172.7,10.88
		c1.09,0,1.95-0.85,1.95-1.91c0-1.04-0.86-1.92-1.95-1.92h-2.97c-4.85,0-8.3,3.46-8.3,8.11c0,4.64,3.45,8.11,8.3,8.11h2.97
		c1.09,0,1.95-0.85,1.95-1.92c0-1.04-0.86-1.92-1.95-1.92h-3.08c-2.59,0-4.29-1.82-4.29-4.28c0-2.46,1.71-4.28,4.29-4.28H172.7
		L172.7,10.88z M100.4,22.84c0.73,0.75,1.96,0.78,2.71,0.03c0.73-0.72,0.81-1.96,0.08-2.71l-5-5.16l4.8-4.96
		c0.72-0.75,0.65-1.98-0.08-2.68c-0.73-0.75-1.96-0.72-2.68,0.03l-4.96,5.11c-0.43,0.45-0.73,0.51-1.05,0.51
		c-0.49,0-0.91-0.34-0.91-0.85V8.75c0-1.07-0.89-1.93-1.96-1.93c-1.07,0-1.96,0.86-1.96,1.93v12.74c0,1.07,0.89,1.93,1.96,1.93
		c1.07,0,1.96-0.86,1.96-1.93v-3.62c0-0.49,0.42-0.83,0.91-0.83c0.32,0,0.62,0.06,1.05,0.51L100.4,22.84L100.4,22.84z M105.28,15.13
		c0,4.76,3.53,8.28,8.32,8.28c4.79,0,8.32-3.54,8.32-8.28c0-4.76-3.56-8.3-8.32-8.3C108.81,6.83,105.28,10.37,105.28,15.13
		L105.28,15.13z M117.94,15.13c0,2.54-1.76,4.45-4.34,4.45c-2.59,0-4.34-1.92-4.34-4.45c0-2.54,1.76-4.47,4.34-4.47
		C116.18,10.66,117.94,12.59,117.94,15.13L117.94,15.13z M179.52,13.57c1.05,0,1.98-0.86,1.98-1.99c0-1.09-0.93-1.96-1.98-1.96
		c-1.08,0-1.99,0.88-1.99,1.96C177.52,12.7,178.43,13.57,179.52,13.57L179.52,13.57z M179.52,20.64c1.05,0,1.98-0.89,1.98-1.99
		c0-1.09-0.93-1.95-1.98-1.95c-1.08,0-1.99,0.86-1.99,1.95C177.52,19.74,178.43,20.64,179.52,20.64z"/>
	<g>
		<path d="M59.26,31.89c1.91,0,2.96,1.42,2.96,3.17c0,1.75-1.04,3.17-2.96,3.17c-1.91,0-2.96-1.42-2.96-3.17
			C56.31,33.31,57.35,31.89,59.26,31.89z M59.26,37.58c1.39,0,2.24-0.98,2.24-2.52s-0.85-2.52-2.24-2.52
			c-1.39,0-2.24,0.98-2.24,2.52S57.87,37.58,59.26,37.58z"/>
		<path d="M68.64,32.02c0.24,0,0.35,0.19,0.35,0.4v5.29c0,0.21-0.11,0.4-0.35,0.4c-0.24,0-0.35-0.19-0.35-0.4v-2.42h-3.65v2.42
			c0,0.21-0.11,0.4-0.35,0.4s-0.35-0.19-0.35-0.4v-5.29c0-0.21,0.11-0.4,0.35-0.4s0.35,0.19,0.35,0.4v2.22h3.65v-2.22
			C68.29,32.2,68.4,32.02,68.64,32.02z"/>
		<path d="M71.29,36.85c0.35-0.9,0.5-2.69,0.56-4.52c0-0.19,0.14-0.31,0.34-0.31h3.01c0.25,0,0.37,0.17,0.37,0.38v5.31
			c0,0.21-0.11,0.4-0.35,0.4c-0.24,0-0.35-0.19-0.35-0.4v-5.05h-2.37c-0.07,1.39-0.17,3.43-0.65,4.55c-0.3,0.7-0.73,0.96-1.23,0.96
			c-0.25,0-0.53-0.1-0.5-0.4c0.04-0.29,0.22-0.27,0.45-0.27C70.9,37.5,71.14,37.22,71.29,36.85z"/>
		<path d="M77.76,32.81c-0.1-0.24,0.02-0.37,0.21-0.47c0.46-0.24,1.24-0.45,1.98-0.45c1.63,0,2.3,0.83,2.3,2.2v3.62
			c0,0.21-0.11,0.4-0.35,0.4s-0.35-0.19-0.35-0.4v-0.93c-0.3,0.7-1.03,1.45-2.37,1.45c-1.19,0-2.01-0.61-2.01-1.81
			c0-1.6,1.45-2.05,2.76-2.05c0.7,0,1.18,0.06,1.63,0.12v-0.35c0-0.98-0.5-1.6-1.67-1.6c-0.61,0-1.06,0.15-1.57,0.35
			C78.11,32.97,77.85,33.02,77.76,32.81z M81.55,35.35v-0.24c-0.51-0.07-0.87-0.12-1.53-0.12c-1.23,0-2.14,0.37-2.14,1.4
			c0,0.71,0.47,1.19,1.38,1.19C80.82,37.58,81.55,36.3,81.55,35.35z"/>
		<path d="M84.71,37.93c-0.07,0.09-0.19,0.17-0.36,0.17c-0.24,0-0.35-0.19-0.35-0.4v-5.29c0-0.21,0.11-0.4,0.35-0.4
			c0.24,0,0.35,0.19,0.35,0.4v4.56l3.74-4.78c0.1-0.11,0.2-0.17,0.35-0.17c0.24,0,0.35,0.19,0.35,0.4v5.29c0,0.21-0.11,0.4-0.35,0.4
			c-0.24,0-0.35-0.19-0.35-0.4v-4.52L84.71,37.93z M84.92,30.11c-0.07-0.19-0.07-0.39,0.1-0.48c0.2-0.11,0.37,0.02,0.47,0.2
			c0.22,0.4,0.57,0.7,1.12,0.7c0.55,0,0.89-0.3,1.12-0.7c0.1-0.17,0.27-0.3,0.47-0.2c0.17,0.09,0.17,0.3,0.1,0.48
			c-0.17,0.44-0.73,1.02-1.69,1.02C85.66,31.13,85.1,30.55,84.92,30.11z"/>
		<path d="M95.62,32.02c0.24,0,0.35,0.19,0.35,0.4v5.29c0,0.21-0.11,0.4-0.35,0.4s-0.35-0.19-0.35-0.4v-2.42h-3.65v2.42
			c0,0.21-0.11,0.4-0.35,0.4s-0.35-0.19-0.35-0.4v-5.29c0-0.21,0.11-0.4,0.35-0.4s0.35,0.19,0.35,0.4v2.22h3.65v-2.22
			C95.28,32.2,95.39,32.02,95.62,32.02z"/>
		<path d="M97.97,34.75c0-0.19,0.14-0.32,0.34-0.32h3.26c0.2,0,0.34,0.14,0.34,0.32c0,0.2-0.14,0.32-0.34,0.32h-3.26
			C98.11,35.07,97.97,34.95,97.97,34.75z"/>
		<path d="M104.6,37.71c0,0.21-0.11,0.4-0.35,0.4s-0.35-0.19-0.35-0.4v-5.29c0-0.21,0.11-0.4,0.35-0.4h3.02
			c0.2,0,0.34,0.14,0.34,0.32c0,0.2-0.14,0.32-0.34,0.32h-2.67V37.71z"/>
		<path d="M109.73,37.93c-0.07,0.09-0.19,0.17-0.36,0.17c-0.24,0-0.35-0.19-0.35-0.4v-5.29c0-0.21,0.11-0.4,0.35-0.4
			s0.35,0.19,0.35,0.4v4.56l3.74-4.78c0.1-0.11,0.2-0.17,0.35-0.17c0.24,0,0.35,0.19,0.35,0.4v5.29c0,0.21-0.11,0.4-0.35,0.4
			s-0.35-0.19-0.35-0.4v-4.52L109.73,37.93z"/>
		<path d="M116.89,32.66v5.05c0,0.21-0.11,0.4-0.35,0.4c-0.24,0-0.35-0.19-0.35-0.4v-5.29c0-0.21,0.12-0.4,0.34-0.4h4.18
			c0.24,0,0.36,0.19,0.36,0.4v5.29c0,0.21-0.11,0.4-0.35,0.4s-0.35-0.19-0.35-0.4v-5.05H116.89z"/>
		<path d="M126.96,37.21c0.22-0.11,0.4-0.11,0.5,0.06c0.1,0.17,0.01,0.36-0.15,0.47c-0.51,0.34-1.21,0.48-1.89,0.48
			c-1.94,0-2.87-1.19-2.87-3.13c0-1.83,1.03-3.21,2.83-3.21c1.64,0,2.37,1.17,2.37,2.36c0,0.19-0.01,0.37-0.04,0.53
			c-0.05,0.37-0.21,0.61-0.66,0.61h-3.8c0.1,1.42,0.87,2.19,2.16,2.19C126.02,37.58,126.5,37.43,126.96,37.21z M123.26,34.77h3.82
			c0.02-0.16,0.02-0.32,0.02-0.47c-0.02-1.02-0.57-1.76-1.76-1.76C124.13,32.54,123.36,33.33,123.26,34.77z"/>
		<path d="M134.78,34.87c0,1.8-0.87,3.36-2.92,3.36c-0.66,0-1.26-0.12-1.73-0.39v2.35c0,0.21-0.11,0.4-0.35,0.4
			c-0.24,0-0.35-0.19-0.35-0.4v-7.78c0-0.21,0.11-0.4,0.35-0.4c0.24,0,0.35,0.19,0.35,0.4v1.01c0.4-1.01,1.18-1.53,2.26-1.53
			C134,31.89,134.78,33.13,134.78,34.87z M130.13,35.93v1.22c0.53,0.31,1.08,0.44,1.74,0.44c1.65,0,2.19-1.27,2.19-2.71
			c0-1.35-0.52-2.34-1.77-2.34C130.48,32.54,130.13,34.39,130.13,35.93z"/>
		<path d="M136.61,32.02c0.2,0,0.31,0.1,0.44,0.29l2.12,3l2.18-2.97c0.14-0.19,0.26-0.31,0.47-0.31c0.24,0,0.32,0.2,0.32,0.4v5.29
			c0,0.21-0.11,0.4-0.35,0.4s-0.35-0.19-0.35-0.4v-4.5l-1.98,2.72c-0.2,0.29-0.51,0.25-0.68,0l-1.86-2.62v4.4
			c0,0.21-0.09,0.4-0.32,0.4c-0.24,0-0.32-0.19-0.32-0.4v-5.29C136.27,32.19,136.37,32.02,136.61,32.02z"/>
		<path d="M144.35,32.81c-0.1-0.24,0.02-0.37,0.21-0.47c0.46-0.24,1.24-0.45,1.98-0.45c1.63,0,2.3,0.83,2.3,2.2v3.62
			c0,0.21-0.11,0.4-0.35,0.4s-0.35-0.19-0.35-0.4v-0.93c-0.3,0.7-1.03,1.45-2.37,1.45c-1.19,0-2.01-0.61-2.01-1.81
			c0-1.6,1.45-2.05,2.76-2.05c0.7,0,1.18,0.06,1.63,0.12v-0.35c0-0.98-0.5-1.6-1.67-1.6c-0.61,0-1.06,0.15-1.57,0.35
			C144.7,32.97,144.44,33.02,144.35,32.81z M148.14,35.35v-0.24c-0.51-0.07-0.87-0.12-1.53-0.12c-1.23,0-2.14,0.37-2.14,1.4
			c0,0.71,0.47,1.19,1.38,1.19C147.41,37.58,148.14,36.3,148.14,35.35z"/>
		<path d="M155.95,34.87c0,1.8-0.87,3.36-2.92,3.36c-0.66,0-1.26-0.12-1.73-0.39v2.35c0,0.21-0.11,0.4-0.35,0.4
			c-0.24,0-0.35-0.19-0.35-0.4v-7.78c0-0.21,0.11-0.4,0.35-0.4c0.24,0,0.35,0.19,0.35,0.4v1.01c0.4-1.01,1.18-1.53,2.26-1.53
			C155.17,31.89,155.95,33.13,155.95,34.87z M151.3,35.93v1.22c0.53,0.31,1.08,0.44,1.74,0.44c1.65,0,2.19-1.27,2.19-2.71
			c0-1.35-0.52-2.34-1.77-2.34C151.65,32.54,151.3,34.39,151.3,35.93z"/>
		<path d="M158.03,32.02c0.24,0,0.35,0.19,0.35,0.4v2.41l2.7-2.65c0.17-0.17,0.37-0.22,0.53-0.06c0.12,0.12,0.11,0.34-0.06,0.51
			l-2.51,2.36l2.8,2.47c0.16,0.15,0.21,0.37,0.07,0.53c-0.15,0.19-0.4,0.1-0.57-0.05l-2.96-2.66v2.42c0,0.21-0.11,0.4-0.35,0.4
			c-0.24,0-0.35-0.19-0.35-0.4v-5.29C157.68,32.2,157.79,32.02,158.03,32.02z"/>
		<path d="M167.57,37.21c0.22-0.11,0.4-0.11,0.5,0.06c0.1,0.17,0.01,0.36-0.15,0.47c-0.51,0.34-1.21,0.48-1.89,0.48
			c-1.94,0-2.87-1.19-2.87-3.13c0-1.83,1.03-3.21,2.83-3.21c1.64,0,2.37,1.17,2.37,2.36c0,0.19-0.01,0.37-0.04,0.53
			c-0.05,0.37-0.21,0.61-0.66,0.61h-3.8c0.1,1.42,0.87,2.19,2.16,2.19C166.63,37.58,167.11,37.43,167.57,37.21z M163.87,34.77h3.82
			c0.02-0.16,0.02-0.32,0.02-0.47c-0.02-1.02-0.57-1.76-1.76-1.76C164.74,32.54,163.97,33.33,163.87,34.77z"/>
		<path d="M172.44,37.71c0,0.21-0.11,0.4-0.35,0.4c-0.24,0-0.35-0.19-0.35-0.4v-5.05h-1.99c-0.2,0-0.34-0.12-0.34-0.32
			c0-0.19,0.14-0.32,0.34-0.32h4.67c0.2,0,0.34,0.14,0.34,0.32c0,0.2-0.14,0.32-0.34,0.32h-1.99V37.71z"/>
	</g>
	<path class="st0" d="M42.48,5.03c0-2.78-2.25-5.03-5.03-5.03H5.03C2.25,0,0,2.25,0,5.03v20.21c0,11.73,9.51,21.24,21.24,21.24
		c11.73,0,21.24-9.51,21.24-21.24C42.48,17.2,42.49,13.08,42.48,5.03z"/>
	<path class="st1" d="M19.84,30.86c0-1.1-0.9-1.98-2.02-1.98c-1.1,0-1.98,0.88-1.98,1.98c0,1.1,0.88,2,1.98,2
		C18.94,32.86,19.84,31.96,19.84,30.86L19.84,30.86z M26.94,30.86L26.94,30.86c0-1.1-0.9-1.98-2-1.98c-1.1,0-2,0.88-2,1.98
		c0,1.1,0.9,2,2,2C26.04,32.86,26.94,31.96,26.94,30.86z"/>
</g>
</svg>
