<svg width="38" height="12" viewBox="0 0 38 12" fill="none" xmlns="http://www.w3.org/2000/svg">
<g clip-path="url(#clip0_21_1831)">
<path d="M16.5234 11.1549H13.5137L15.3962 0.878906H18.4057L16.5234 11.1549Z" fill="#0282EC"/>
<path d="M27.4346 1.12987C26.841 0.921952 25.8994 0.692383 24.7351 0.692383C21.7629 0.692383 19.6699 2.09159 19.6571 4.09204C19.6324 5.56797 21.1556 6.38773 22.2949 6.87985C23.4593 7.38272 23.8551 7.71095 23.8551 8.15919C23.8432 8.84761 22.9142 9.16494 22.0476 9.16494C20.846 9.16494 20.2022 9.00133 19.2237 8.61833L18.8274 8.45414L18.4062 10.7609C19.1121 11.0448 20.4127 11.2967 21.7629 11.3078C24.9209 11.3078 26.9769 9.93021 27.0013 7.79842C27.0133 6.62863 26.209 5.7323 24.4749 4.99986C23.4222 4.52967 22.7776 4.21264 22.7776 3.73156C22.7899 3.29421 23.3228 2.84626 24.5111 2.84626C25.4896 2.82432 26.2085 3.03195 26.7531 3.23973L27.0253 3.34885L27.4346 1.12987Z" fill="#0282EC"/>
<path d="M31.4348 7.51446C31.6827 6.92412 32.6364 4.63933 32.6364 4.63933C32.6239 4.66127 32.8838 4.03809 33.0324 3.65553L33.2428 4.54097C33.2428 4.54097 33.8127 7.0007 33.9365 7.51446C33.4661 7.51446 32.0293 7.51446 31.4348 7.51446ZM35.1499 0.878906H32.8219C32.104 0.878906 31.5586 1.0646 31.2489 1.73151L26.7783 11.1547H29.9363C29.9363 11.1547 30.4562 9.88643 30.568 9.61328C30.9144 9.61328 33.9865 9.61328 34.4322 9.61328C34.5186 9.97405 34.7913 11.1547 34.7913 11.1547H37.578L35.1499 0.878906Z" fill="#0282EC"/>
<path d="M11.0001 0.878906L8.05257 7.88615L7.73048 6.465C7.18554 4.82517 5.47652 3.04354 3.56934 2.15767L6.26915 11.144H9.45185L14.1826 0.878906H11.0001Z" fill="#0282EC"/>
<path d="M5.31572 0.878906H0.473367L0.423828 1.08654C4.20116 1.93928 6.70282 3.9948 7.73064 6.46543L6.67797 1.7427C6.50466 1.08639 5.97207 0.900556 5.31572 0.878906Z" fill="#FAA61A"/>
</g>
<defs>
<clipPath id="clip0_21_1831">
<rect width="37.1538" height="10.6154" fill="white" transform="translate(0.423828 0.692383)"/>
</clipPath>
</defs>
</svg>
