<svg width="26" height="26" viewBox="0 0 26 26" fill="none" xmlns="http://www.w3.org/2000/svg">
<path d="M24.7882 19.0677C23.8148 17.3159 21.3074 15.211 20.2723 14.295C19.989 14.0442 19.9587 13.6104 20.2165 13.333C22.192 11.2102 23.772 8.77112 24.3158 7.29724C24.5558 6.64616 24.0591 5.95824 23.3593 5.95824H21.3264C20.6563 5.95824 20.2642 6.19874 20.0773 6.5817C18.4355 9.94599 17.0272 11.402 16.0413 12.253C15.4894 12.7296 14.6287 12.3347 14.6287 11.6095C14.6287 10.212 14.6287 8.40549 14.6287 7.12445C14.6287 6.50316 14.1206 6.00049 13.4939 6.00049L9.78021 5.95824C9.31275 5.95824 9.04571 6.48745 9.32629 6.85849L9.93946 7.7387C10.1702 8.04366 10.2948 8.4147 10.2948 8.79549L10.2915 12.7594C10.2915 13.449 9.45575 13.7859 8.95959 13.3027C7.28096 11.668 5.82442 8.32966 5.30009 6.73337C5.14842 6.27133 4.71563 5.95933 4.22488 5.95824L2.22234 5.95337C1.47105 5.95337 0.921795 6.66566 1.126 7.38283C2.95575 13.8054 6.71004 19.9154 13.4007 20.5778C14.0599 20.6428 14.6287 20.112 14.6287 19.455V17.3717C14.6287 16.7742 15.0972 16.2607 15.6995 16.2456C15.7207 16.245 15.7418 16.245 15.7629 16.245C17.5325 16.245 19.5145 18.8207 20.2078 20.0253C20.4072 20.372 20.7798 20.5832 21.1828 20.5832H23.8765C24.6625 20.5832 25.1668 19.7496 24.7882 19.0677Z" fill="#0CBA7A"/>
</svg>
